<?xml version="1.0" encoding="utf-8"?>
<!-- Generator: Adobe Illustrator 26.0.3, SVG Export Plug-In . SVG Version: 6.00 Build 0)  -->
<svg version="1.1" id="Capa_1" xmlns="http://www.w3.org/2000/svg" xmlns:xlink="http://www.w3.org/1999/xlink" x="0px" y="0px"
	 viewBox="0 0 50 50" style="enable-background:new 0 0 50 50;" xml:space="preserve">
<style type="text/css">
	.st0{fill:#FFFFFF;}
</style>
<path class="st0" d="M6.9,38.35c0-8.91,0-17.81,0-26.72c0.02-0.09,0.05-0.18,0.07-0.27c0.33-1.8,1.29-3.13,2.93-3.92
	c0.54-0.26,1.15-0.37,1.73-0.55c8.91,0,17.81,0,26.72,0c0.05,0.02,0.11,0.05,0.16,0.06c2.76,0.46,4.57,2.59,4.57,5.39
	c0,8.44,0,16.87,0,25.31c0,0.41-0.03,0.83-0.12,1.23c-0.55,2.51-2.65,4.2-5.22,4.21c-2.73,0.01-5.47,0-8.2,0c-0.09,0-0.18,0-0.29,0
	c0-4.28,0-8.52,0-12.8c1.79,0,3.57,0,5.35,0c0.35-2.13,0.7-4.23,1.06-6.36c-2.16,0-4.28,0-6.41,0c0-1.45,0-2.87,0-4.31
	c2.14,0,4.26,0,6.38,0c0-2.13,0-4.23,0-6.35c-0.13,0-0.23,0-0.33,0c-1.98,0-3.96,0-5.94,0c-3.71,0.01-6.49,2.8-6.5,6.51
	c0,1.26,0,2.52,0,3.78c0,0.12,0,0.25,0,0.4c-1.44,0-2.83,0-4.22,0c0,2.13,0,4.23,0,6.35c1.41,0,2.8,0,4.19,0c0,4.27,0,8.52,0,12.76
	c-0.05,0.01-0.09,0.02-0.12,0.02c-3.59,0-7.19,0.05-10.78-0.03c-2.03-0.04-3.55-1.1-4.47-2.91C7.2,39.6,7.09,38.96,6.9,38.35z"/>
</svg>
