<?xml version="1.0" encoding="utf-8"?>
<!-- Generator: Adobe Illustrator 27.2.0, SVG Export Plug-In . SVG Version: 6.00 Build 0)  -->
<svg version="1.1" id="Capa_1" xmlns="http://www.w3.org/2000/svg" xmlns:xlink="http://www.w3.org/1999/xlink" x="0px" y="0px"
	 viewBox="0 0 250.2 438.8" style="enable-background:new 0 0 250.2 438.8;" xml:space="preserve">
<style type="text/css">
	.st0{fill:#FFFFFF;}
	.st1{fill:#BD8ABE;}
	.st2{font-family:'Arial-BoldMT';}
	.st3{font-size:15.7042px;}
	.st4{fill:#F89E41;}
	.st5{fill:#4BBCB6;}
	.st6{fill:#ED8242;}
	.st7{fill:#0B75A4;}
	.st8{fill:none;stroke:#0B75A4;stroke-width:2;stroke-miterlimit:10;}
	.st9{font-size:21.7407px;}
	.st10{fill:none;}
	.st11{font-size:15px;}
	.st12{fill:#CC405E;}
</style>
<g>
	<image style="overflow:visible;" width="282" height="471" xlink:href="F7D328CC.png"  transform="matrix(1 0 0 1 -18 -14.17)">
	</image>
</g>
<path class="st0" d="M206.1,418.5H44.1c-13.1,0-23.8-10.7-23.8-23.8V44.1C20.3,31,31,20.3,44.1,20.3h161.9
	c13.1,0,23.8,10.7,23.8,23.8v350.5C229.9,407.8,219.2,418.5,206.1,418.5z"/>
<rect x="20.3" y="83.4" class="st1" width="209.5" height="42.4"/>
<text transform="matrix(1 0 0 1 26.9538 111.3486)" class="st0 st2 st3">ENTREVISTA AMBIENTAL</text>
<g>
	<path class="st1" d="M87.5,188.1c-0.7,0-1.3-0.2-1.7-0.7c-0.5-0.5-0.7-1.1-0.7-1.7s0.2-1.3,0.7-1.7c0.5-0.5,1.1-0.7,1.7-0.7
		c0.7,0,1.3,0.2,1.7,0.7c0.5,0.5,0.7,1.1,0.7,1.7s-0.2,1.3-0.7,1.7C88.7,187.9,88.1,188.1,87.5,188.1z M82.5,193.2v-0.4
		c0-0.5,0.1-0.9,0.4-1.3c0.3-0.4,0.6-0.7,1-0.9c0.5-0.2,1.1-0.4,1.7-0.5c0.6-0.1,1.2-0.2,1.8-0.2c0.6,0,1.2,0.1,1.8,0.2
		c0.6,0.1,1.1,0.3,1.7,0.5c0.4,0.2,0.8,0.5,1,0.9c0.3,0.4,0.4,0.8,0.4,1.3v0.4H82.5z"/>
</g>
<path class="st8" d="M206.1,418.5H44.1c-13.1,0-23.8-10.7-23.8-23.8V44.1C20.3,31,31,20.3,44.1,20.3h161.9
	c13.1,0,23.8,10.7,23.8,23.8v350.5C229.9,407.8,219.2,418.5,206.1,418.5z"/>
<circle class="st1" cx="125.1" cy="50.4" r="14.8"/>
<text transform="matrix(1 0 0 1 119.0596 58.5713)" class="st0 st2 st9">4</text>
<g id="Capa_1-2_00000096756516933952572430000001821205775949846693_">
	<path class="st7" d="M121.1,382c1.1,0.9,2.3,0.1,3.5,0.5c-0.2,0.4-0.4,0.7-0.7,0.9c-1.1,1.1-2.4,1.4-3.9,1.4
		c-0.2,0-0.4-0.3-0.4-0.4c0-0.5-0.3-0.5-0.6-0.6c-0.7-0.2-1.4-0.3-2-0.6c-0.8-0.5-1.7-0.6-2.6-0.6c-0.4,0-0.8,0-1.2,0
		c0.1-0.6,0.1-1.2,0.2-1.7c0.1-0.6,0-1.1-0.2-1.7c-0.3-0.8-0.4-1.6-0.4-2.4c0-0.6-0.1-1-0.9-0.8c0.1-0.6,0.2-1,0.3-1.5
		c0.3-1.3,1.2-2.2,2.2-2.9c0.2-0.1,0.5-0.1,0.7-0.1c0,0.2,0,0.4,0,0.6c0,0.6-0.1,1.2-0.2,1.8c-0.1,0.4-0.1,0.8-0.4,1.1
		c-0.6,0.9,0.2,3.2,1.2,3.4c0.1,0,0.3,0,0.4-0.1c2.5-2,5-4,7.5-6c-0.3-0.3-0.6-0.6-0.9-0.9c-0.5,0.3-0.9,1-1.6,0.4
		c-0.5-0.5,0-1,0.4-1.4c-0.4-0.4-0.6-0.7-1.3-0.6c-1.1,0.2-2.1-0.6-2.3-1.7c-0.2-0.9,0.4-1.8,1.3-2c1.2-0.4,2.7,0.7,2.6,2
		c-0.1,0.8,0.4,1,0.8,1.3c0.4-0.3,0.9-0.9,1.4-0.3c0.4,0.4,0.2,0.9-0.2,1.3c1.3,1.2,0.9,1.2,2.3-0.1c-0.3-0.4-0.6-0.9-0.1-1.3
		c0.5-0.5,1,0,1.4,0.4c0.4-0.4,0.9-0.5,0.8-1.3c-0.1-1,0.9-2,1.9-2c1-0.1,1.8,0.5,2,1.5c0.2,1.2-0.9,2.5-2.3,2.3
		c-0.6-0.1-0.9,0.1-1.3,0.6c0.3,0.4,0.9,0.9,0.3,1.5c-0.6,0.6-1-0.1-1.5-0.4c-0.3,0.3-0.7,0.6-1.1,1c1.3,1,2.5,2,3.7,3
		c1.2,1,2.5,2,3.7,3c0.5,0.4,0.8,0.3,1.2-0.1c0.7-0.7,0.9-1.6,0.9-2.6c0-0.1,0-0.2-0.1-0.2c-0.7-0.6-0.5-1.4-0.6-2.1
		c0-0.4-0.1-0.7-0.1-1.1c0-0.2,0-0.4,0-0.7c0.2,0,0.5,0,0.7,0.2c1,0.7,1.8,1.6,2.2,2.8c0.1,0.5,0.2,1,0.3,1.5
		c-0.9,0.3-0.8,0.3-0.9,1.1c-0.1,0.9-0.5,1.8-0.6,2.7c-0.1,0.7,0,1.4,0.1,2c0,0.3,0.1,0.6,0.1,0.9c-0.8,0-1.5,0-2.2,0
		c-0.4,0-0.8,0.1-1.1,0.3c-0.8,0.5-1.7,0.9-2.6,0.9c-0.4,0-0.5,0.1-0.5,0.5c0,0.2-0.3,0.5-0.4,0.5c-1.5,0-3-0.3-4-1.5
		c-0.2-0.2-0.3-0.5-0.5-0.8c1.1-0.5,2.4,0.3,3.4-0.5c0.6,0.8,1.2,0.5,1.9,0.2c0.5-0.2,0.9-0.5,1.3-0.9c0.6-0.5,0.6-0.8,0-1.3
		c-1.3-1.2-2.7-2.4-4-3.6c-1.1-1-2.1-2-3.2-3c-1.8,1.7-3.6,3.3-5.4,5c-0.6,0.5-1.2,1.1-1.8,1.6c-0.5,0.5-0.5,0.8,0,1.2
		c0.5,0.4,1.1,0.8,1.7,1.1C120.1,382.6,120.8,382.9,121.1,382L121.1,382z M130.4,368.6c-0.1,0.1-0.2,0.2-0.3,0.3
		c0.8-0.2,1.2-0.6,1.1-1.1c-0.1-0.5-0.4-0.7-0.8-0.8c-0.5-0.1-0.9,0.3-1.1,1.1c0.1-0.1,0.2-0.2,0.4-0.4
		C129.9,368,130.1,368.3,130.4,368.6L130.4,368.6z M120,369c0.3-0.3,0.6-0.6,0.9-0.9c-0.3-0.7-0.6-1-1.1-0.9
		c-0.4,0.1-0.7,0.3-0.7,0.8C118.9,368.4,119.2,368.7,120,369L120,369z"/>
</g>
<g>
	<path class="st1" d="M123.5,167.6h-5.2c-0.4,0-0.7,0.3-0.7,0.7v2.5l1.3,1v-2.8h3.9v2.8l1.3-1v-2.5
		C124.3,167.9,124,167.6,123.5,167.6C123.6,167.6,123.6,167.6,123.5,167.6z"/>
	<path class="st1" d="M111.5,163l9.5-6.9l9.5,6.9v3.2l1.3-1v-2.6c0-0.2-0.1-0.4-0.3-0.5l-10.1-7.3c-0.2-0.2-0.6-0.2-0.8,0l-10.1,7.3
		c-0.2,0.1-0.3,0.3-0.3,0.5v2.6l1.3,1V163z"/>
	<path class="st1" d="M108.7,161.4l12.2-8.9l12.2,8.9c0.3,0.3,0.7,0.3,1,0.1c0.3-0.3,0.3-0.7,0.1-1c-0.1-0.1-0.1-0.1-0.2-0.2
		l-12.7-9.2c-0.3-0.2-0.6-0.2-0.9,0l-12.7,9.2c-0.4,0.2-0.5,0.6-0.3,1s0.6,0.5,1,0.3C108.6,161.5,108.6,161.4,108.7,161.4
		L108.7,161.4z"/>
	<path class="st1" d="M107.1,170.3c-0.2-0.2-0.6-0.2-0.8,0l-10.1,7.3c-0.2,0.1-0.3,0.3-0.3,0.5v14.7c0,0.4,0.3,0.7,0.7,0.7
		c0,0,0,0,0,0h20.3c0.4,0,0.7-0.3,0.7-0.7l0,0v-14.7c0-0.2-0.1-0.4-0.3-0.5L107.1,170.3z M108.7,192.2h-3.9v-7.8h3.9L108.7,192.2z
		 M116.2,192.2H110v-8.4c0-0.4-0.3-0.7-0.7-0.7c0,0,0,0,0,0h-5.3c-0.4,0-0.7,0.3-0.7,0.7l0,0v8.4h-6.2v-13.7l9.5-6.9l9.5,6.9
		L116.2,192.2z"/>
	<path class="st1" d="M119.8,175.7l-12.7-9.2c-0.3-0.2-0.6-0.2-0.9,0l-12.7,9.2c-0.3,0.3-0.2,0.8,0.1,1c0.2,0.2,0.5,0.2,0.8,0.1
		l12.3-8.8l12.2,8.9c0.4,0.2,0.8,0,1-0.3C120.1,176.3,120.1,175.9,119.8,175.7L119.8,175.7z"/>
	<path class="st1" d="M135.5,170.3c-0.2-0.2-0.6-0.2-0.8,0l-10.1,7.3c-0.2,0.1-0.3,0.3-0.3,0.5v14.7c0,0.4,0.3,0.7,0.7,0.7h0h20.3
		c0.4,0,0.7-0.3,0.7-0.7v0v-14.7c0-0.2-0.1-0.4-0.3-0.5L135.5,170.3z M137.1,192.2h-3.9v-7.8h3.9V192.2z M144.6,192.2h-6.2v-8.4
		c0-0.4-0.3-0.7-0.7-0.7h0h-5.3c-0.4,0-0.7,0.3-0.7,0.7l0,0v8.4h-6.2v-13.7l9.5-6.9l9.5,6.9L144.6,192.2z"/>
	<path class="st1" d="M148.2,175.7l-12.7-9.2c-0.3-0.2-0.6-0.2-0.9,0l-12.7,9.2c-0.3,0.3-0.2,0.8,0.1,1c0.2,0.2,0.5,0.2,0.8,0.1
		l12.2-8.9l12.2,8.9c0.4,0.2,0.8,0,1-0.3C148.5,176.2,148.4,175.9,148.2,175.7L148.2,175.7z"/>
</g>
<g>
	<path class="st1" d="M154.3,188.1c-0.7,0-1.3-0.2-1.7-0.7c-0.5-0.5-0.7-1.1-0.7-1.7s0.2-1.3,0.7-1.7c0.5-0.5,1.1-0.7,1.7-0.7
		s1.3,0.2,1.7,0.7c0.5,0.5,0.7,1.1,0.7,1.7s-0.2,1.3-0.7,1.7C155.5,187.9,155,188.1,154.3,188.1z"/>
	<path class="st1" d="M149.4,193.2v-0.4c0-0.5,0.1-0.9,0.4-1.3c0.3-0.4,0.6-0.7,1-0.9c0.5-0.2,1.1-0.4,1.7-0.5s1.2-0.2,1.8-0.2
		s1.2,0.1,1.8,0.2s1.1,0.3,1.7,0.5c0.4,0.2,0.8,0.5,1,0.9c0.3,0.4,0.4,0.8,0.4,1.3v0.4H149.4z"/>
</g>
<g>
	<rect x="53.8" y="227.1" class="st10" width="155.4" height="128.8"/>
	<text transform="matrix(1 0 0 1 53.8171 237.7994)"><tspan x="0" y="0" class="st7 st2 st11">Visita al domicilio de </tspan><tspan x="0" y="18" class="st7 st2 st11">los postulantes </tspan><tspan x="0" y="36" class="st7 st2 st11">seleccionados.</tspan><tspan x="0" y="72" class="st7 st2 st11">Conocer la situación</tspan><tspan x="0" y="90" class="st7 st2 st11">socio ambiental.</tspan></text>
	<circle class="st7" cx="47.2" cy="232.4" r="1.8"/>
	<circle class="st7" cx="47.2" cy="304.6" r="1.8"/>
</g>
</svg>
