<?xml version="1.0" encoding="utf-8"?>
<!-- Generator: Adobe Illustrator 27.5.0, SVG Export Plug-In . SVG Version: 6.00 Build 0)  -->
<svg version="1.1" id="Capa_1" xmlns="http://www.w3.org/2000/svg" xmlns:xlink="http://www.w3.org/1999/xlink" x="0px" y="0px"
	 viewBox="0 0 250.2 438.8" style="enable-background:new 0 0 250.2 438.8;" xml:space="preserve">
<style type="text/css">
	.st0{fill:#FFFFFF;}
	.st1{fill:#914B96;}
	.st2{fill:#F89E41;}
	.st3{fill:#4BBCB6;}
	.st4{fill:#ED8242;}
	.st5{font-family:'Arial-BoldMT';}
	.st6{font-size:16.8884px;}
	.st7{fill:#0B75A4;}
	.st8{fill:none;stroke:#0B75A4;stroke-width:2;stroke-miterlimit:10;}
	.st9{font-size:21.7407px;}
	.st10{fill:none;}
	.st11{font-size:15px;}
	.st12{letter-spacing:5;}
	.st13{letter-spacing:2;}
	.st14{fill:#CC405E;}
</style>
<g>
	<image style="overflow:visible;" width="282" height="471" xlink:href="73CC783E.png"  transform="matrix(1 0 0 1 -18 -14.17)">
	</image>
</g>
<path class="st0" d="M206.1,418.5H44.1c-13.1,0-23.8-10.7-23.8-23.8V44.1C20.3,31,31,20.3,44.1,20.3h161.9
	c13.1,0,23.8,10.7,23.8,23.8v350.5C229.9,407.8,219.2,418.5,206.1,418.5z"/>
<rect x="20.3" y="83.4" class="st4" width="209.5" height="42.4"/>
<text transform="matrix(1 0 0 1 57.5516 110.6337)" class="st0 st5 st6">ETAPA VIRTUAL</text>
<g>
	<g>
		<path class="st4" d="M110.1,184.3h30c1.3,0,2.3-1,2.3-2.3v-20.9c0-1.3-1-2.3-2.3-2.3l0,0h-30c-1.3,0-2.3,1-2.3,2.3V182
			C107.8,183.3,108.9,184.3,110.1,184.3z M109.8,161.1c0-0.2,0.1-0.3,0.3-0.3h30c0.2,0,0.3,0.2,0.3,0.3v18.8h-30.6V161.1z"/>
		<path class="st4" d="M144.8,190.6l-3.6-3.4c-0.3-0.3-0.7-0.4-1.1-0.5h-30.1c-0.4,0-0.8,0.2-1.1,0.5l-3.6,3.4c-0.7,0.8-0.9,2-0.5,3
			c0.2,0.7,0.9,1.2,1.6,1.2h37.3c0.7,0,1.4-0.5,1.6-1.2C145.8,192.6,145.6,191.4,144.8,190.6z"/>
	</g>
</g>
<path class="st8" d="M206.1,418.5H44.1c-13.1,0-23.8-10.7-23.8-23.8V44.1C20.3,31,31,20.3,44.1,20.3h161.9
	c13.1,0,23.8,10.7,23.8,23.8v350.5C229.9,407.8,219.2,418.5,206.1,418.5z"/>
<circle class="st4" cx="125.1" cy="50.4" r="14.8"/>
<text transform="matrix(1 0 0 1 119.0596 58.5713)" class="st0 st5 st9">2</text>
<rect x="38.6" y="233.4" class="st10" width="182.8" height="105.3"/>
<text transform="matrix(1 0 0 1 38.5797 244.1548)"><tspan x="0" y="0" class="st7 st5 st11">Realizar el curso de</tspan><tspan x="0" y="18" class="st7 st5 st11">nivelación obligatorio.</tspan><tspan x="0" y="54" class="st7 st5 st11">Completar</tspan><tspan x="74.2" y="54" class="st7 st5 st11 st12"> </tspan><tspan x="83.5" y="54" class="st7 st5 st11">la</tspan><tspan x="96" y="54" class="st7 st5 st11 st12"> </tspan><tspan x="105.3" y="54" class="st7 st5 st11">evaluación </tspan><tspan x="0" y="72" class="st7 st5 st11">psicológica</tspan><tspan x="82.5" y="72" class="st7 st5 st11 st13"> </tspan><tspan x="89.3" y="72" class="st7 st5 st11">de</tspan><tspan x="106.9" y="72" class="st7 st5 st11 st13"> </tspan><tspan x="113.7" y="72" class="st7 st5 st11">Aptitudes </tspan><tspan x="0" y="90" class="st7 st5 st11">Intelectuales.</tspan></text>
<g id="Capa_1-2_00000125569997936050136840000016562530603642538419_">
	<path class="st7" d="M121.1,382c1.1,0.9,2.3,0.1,3.5,0.5c-0.2,0.4-0.4,0.7-0.7,0.9c-1.1,1.1-2.4,1.4-3.9,1.4
		c-0.2,0-0.4-0.3-0.4-0.4c0-0.5-0.3-0.5-0.6-0.6c-0.7-0.2-1.4-0.3-2-0.6c-0.8-0.5-1.7-0.6-2.6-0.6c-0.4,0-0.8,0-1.2,0
		c0.1-0.6,0.1-1.2,0.2-1.7c0.1-0.6,0-1.1-0.2-1.7c-0.3-0.8-0.4-1.6-0.4-2.4c0-0.6-0.1-1-0.9-0.8c0.1-0.6,0.2-1,0.3-1.5
		c0.3-1.3,1.2-2.2,2.2-2.9c0.2-0.1,0.5-0.1,0.7-0.1c0,0.2,0,0.4,0,0.6c0,0.6-0.1,1.2-0.2,1.8c-0.1,0.4-0.1,0.8-0.4,1.1
		c-0.6,0.9,0.2,3.2,1.2,3.4c0.1,0,0.3,0,0.4-0.1c2.5-2,5-4,7.5-6c-0.3-0.3-0.6-0.6-0.9-0.9c-0.5,0.3-0.9,1-1.6,0.4
		c-0.5-0.5,0-1,0.4-1.4c-0.4-0.4-0.6-0.7-1.3-0.6c-1.1,0.2-2.1-0.6-2.3-1.7c-0.2-0.9,0.4-1.8,1.3-2c1.2-0.4,2.7,0.7,2.6,2
		c-0.1,0.8,0.4,1,0.8,1.3c0.4-0.3,0.9-0.9,1.4-0.3c0.4,0.4,0.2,0.9-0.2,1.3c1.3,1.2,0.9,1.2,2.3-0.1c-0.3-0.4-0.6-0.9-0.1-1.3
		c0.5-0.5,1,0,1.4,0.4c0.4-0.4,0.9-0.5,0.8-1.3c-0.1-1,0.9-2,1.9-2c1-0.1,1.8,0.5,2,1.5c0.2,1.2-0.9,2.5-2.3,2.3
		c-0.6-0.1-0.9,0.1-1.3,0.6c0.3,0.4,0.9,0.9,0.3,1.5c-0.6,0.6-1-0.1-1.5-0.4c-0.3,0.3-0.7,0.6-1.1,1c1.3,1,2.5,2,3.7,3
		c1.2,1,2.5,2,3.7,3c0.5,0.4,0.8,0.3,1.2-0.1c0.7-0.7,0.9-1.6,0.9-2.6c0-0.1,0-0.2-0.1-0.2c-0.7-0.6-0.5-1.4-0.6-2.1
		c0-0.4-0.1-0.7-0.1-1.1c0-0.2,0-0.4,0-0.7c0.2,0,0.5,0,0.7,0.2c1,0.7,1.8,1.6,2.2,2.8c0.1,0.5,0.2,1,0.3,1.5
		c-0.9,0.3-0.8,0.3-0.9,1.1c-0.1,0.9-0.5,1.8-0.6,2.7c-0.1,0.7,0,1.4,0.1,2c0,0.3,0.1,0.6,0.1,0.9c-0.8,0-1.5,0-2.2,0
		c-0.4,0-0.8,0.1-1.1,0.3c-0.8,0.5-1.7,0.9-2.6,0.9c-0.4,0-0.5,0.1-0.5,0.5c0,0.2-0.3,0.5-0.4,0.5c-1.5,0-3-0.3-4-1.5
		c-0.2-0.2-0.3-0.5-0.5-0.8c1.1-0.5,2.4,0.3,3.4-0.5c0.6,0.8,1.2,0.5,1.9,0.2c0.5-0.2,0.9-0.5,1.3-0.9c0.6-0.5,0.6-0.8,0-1.3
		c-1.3-1.2-2.7-2.4-4-3.6c-1.1-1-2.1-2-3.2-3c-1.8,1.7-3.6,3.3-5.4,5c-0.6,0.5-1.2,1.1-1.8,1.6c-0.5,0.5-0.5,0.8,0,1.2
		c0.5,0.4,1.1,0.8,1.7,1.1C120.1,382.6,120.8,382.9,121.1,382L121.1,382z M130.4,368.6c-0.1,0.1-0.2,0.2-0.3,0.3
		c0.8-0.2,1.2-0.6,1.1-1.1c-0.1-0.5-0.4-0.7-0.8-0.8c-0.5-0.1-0.9,0.3-1.1,1.1c0.1-0.1,0.2-0.2,0.4-0.4
		C129.9,368,130.1,368.3,130.4,368.6L130.4,368.6z M120,369c0.3-0.3,0.6-0.6,0.9-0.9c-0.3-0.7-0.6-1-1.1-0.9
		c-0.4,0.1-0.7,0.3-0.7,0.8C118.9,368.4,119.2,368.7,120,369L120,369z"/>
</g>
<circle class="st7" cx="30.8" cy="238.6" r="1.8"/>
<circle class="st7" cx="30.8" cy="292.6" r="1.8"/>
</svg>
