<?xml version="1.0" encoding="utf-8"?>
<!-- Generator: Adobe Illustrator 27.5.0, SVG Export Plug-In . SVG Version: 6.00 Build 0)  -->
<svg version="1.1" id="Capa_1" xmlns="http://www.w3.org/2000/svg" xmlns:xlink="http://www.w3.org/1999/xlink" x="0px" y="0px"
	 viewBox="0 0 250.2 438.8" style="enable-background:new 0 0 250.2 438.8;" xml:space="preserve">
<style type="text/css">
	.st0{fill:#FFFFFF;}
	.st1{fill:#914B96;}
	.st2{fill:#F89E41;}
	.st3{font-family:'Arial-BoldMT';}
	.st4{font-size:16.8884px;}
	.st5{fill:#4BBCB6;}
	.st6{fill:#ED8242;}
	.st7{fill:#0B75A4;}
	.st8{fill:none;stroke:#0B75A4;stroke-width:2;stroke-miterlimit:10;}
	.st9{font-size:21.7407px;}
	.st10{fill:none;}
	.st11{font-size:15px;}
	.st12{fill:#CC405E;}
</style>
<g>
	<image style="overflow:visible;" width="282" height="471" xlink:href="2DDACC89.png"  transform="matrix(1 0 0 1 -18 -14.17)">
	</image>
</g>
<path class="st0" d="M206.1,418.5H44.1c-13.1,0-23.8-10.7-23.8-23.8V44.1C20.3,31,31,20.3,44.1,20.3h161.9
	c13.1,0,23.8,10.7,23.8,23.8v350.5C229.9,407.8,219.2,418.5,206.1,418.5z"/>
<rect x="20.3" y="83.4" class="st2" width="209.5" height="42.4"/>
<text transform="matrix(1 0 0 1 39.7147 110.6337)" class="st0 st3 st4">ETAPA PRESENCIAL</text>
<path class="st2" d="M118.9,170.8c-1,0-1.8-0.4-2.5-1.1s-0.9-1.6-0.7-2.6l1.1-6.4c0.4-2,1.3-3.7,2.9-5c1.5-1.3,3.3-2,5.4-2
	c2.1,0,3.9,0.7,5.5,2s2.5,3,2.9,5l1.1,6.4c0.2,1,0,1.8-0.7,2.6c-0.6,0.8-1.5,1.1-2.5,1.1H118.9z M120.2,166.5h9.9l-0.9-5.1
	c-0.2-1-0.7-1.8-1.4-2.5s-1.6-1-2.6-1c-1,0-1.9,0.3-2.7,1c-0.8,0.6-1.2,1.5-1.4,2.5L120.2,166.5z M100.8,175.9c-1,0-1.8-0.1-2.5-0.6
	c-0.7-0.4-1.2-1.1-1.4-1.9c-0.1-0.4-0.1-0.8,0-1.1c0.1-0.4,0.2-0.7,0.3-1.1c0,0,0,0-0.1-0.3c0,0-0.2-0.5-0.6-1.5
	c-0.1-0.5,0-1,0.1-1.4c0.2-0.4,0.5-0.8,0.9-1.2l0.1-0.1c0.1-0.8,0.4-1.5,1-2c0.6-0.5,1.3-0.8,2.1-0.8c0,0,0.4,0.1,1.1,0.2l0.2-0.1
	c0.2-0.2,0.5-0.3,0.8-0.5s0.7-0.2,1-0.2c0.4,0,0.8,0.1,1.2,0.2c0.4,0.2,0.7,0.4,0.9,0.7c0,0,0.1,0,0.1,0c0,0,0.1,0,0.1,0
	c0.6,0,1.1,0.2,1.5,0.5s0.8,0.7,1,1.2c0.1,0.3,0.1,0.6,0.1,0.9c0,0.3-0.1,0.5-0.2,0.8c0,0.1,0,0.2,0.1,0.2c0.3,0.3,0.5,0.6,0.7,1
	c0.2,0.4,0.2,0.7,0.2,1.1c0,0.1-0.1,0.5-0.4,1.3c0,0.1,0,0.2,0,0.3c0,0.2,0.1,0.5,0.1,1c0,0.9-0.4,1.6-1.1,2.2s-1.6,1-2.6,1H100.8z
	 M148.5,175.8c-1.4,0-2.6-0.5-3.5-1.5s-1.5-2.2-1.5-3.5c0-0.5,0.1-1,0.2-1.5c0.2-0.5,0.4-0.9,0.6-1.2l-1.8-1.6
	c-0.4-0.4-0.5-0.8-0.2-1.3c0.2-0.5,0.6-0.7,1.1-0.7h5c1.4,0,2.6,0.5,3.5,1.5c1,1,1.5,2.2,1.5,3.5v1.3c0,1.4-0.5,2.6-1.5,3.5
	C151.1,175.3,149.9,175.8,148.5,175.8z M90.9,187.9v-3.8c0-1.9,1-3.4,3-4.5c2-1.1,4.6-1.7,7.7-1.7c0.6,0,1.2,0,1.7,0
	c0.5,0,1,0.1,1.6,0.2c-0.4,0.8-0.7,1.6-0.9,2.5s-0.3,1.7-0.3,2.7v4.6H90.9z M108,187.9v-4.6c0-3.1,1.6-5.6,4.7-7.5
	c3.2-1.9,7.3-2.9,12.4-2.9c5.1,0,9.3,1,12.4,2.9c3.1,1.9,4.7,4.4,4.7,7.5v4.6H108z M148.6,177.9c3.2,0,5.8,0.6,7.8,1.7
	c1.9,1.1,2.9,2.6,2.9,4.5v3.8h-12.8v-4.6c0-1-0.1-1.8-0.2-2.7c-0.2-0.8-0.4-1.7-0.8-2.5c0.5-0.1,1-0.2,1.6-0.2
	C147.5,177.9,148.1,177.9,148.6,177.9z M125.1,177.2c-3.8,0-6.9,0.6-9.3,1.7c-2.4,1.1-3.6,2.6-3.6,4.4v0.4h25.7v-0.4
	c0-1.7-1.2-3.1-3.5-4.3C132.1,177.8,129,177.2,125.1,177.2z"/>
<path class="st8" d="M206.1,418.5H44.1c-13.1,0-23.8-10.7-23.8-23.8V44.1C20.3,31,31,20.3,44.1,20.3h161.9
	c13.1,0,23.8,10.7,23.8,23.8v350.5C229.9,407.8,219.2,418.5,206.1,418.5z"/>
<circle class="st2" cx="125.1" cy="50.4" r="14.8"/>
<text transform="matrix(1 0 0 1 119.0596 58.5713)" class="st0 st3 st9">3</text>
<g id="Capa_1-2_00000107571527286591769880000017216828423229550224_">
	<path class="st7" d="M121.1,382c1.1,0.9,2.3,0.1,3.5,0.5c-0.2,0.4-0.4,0.7-0.7,0.9c-1.1,1.1-2.4,1.4-3.9,1.4
		c-0.2,0-0.4-0.3-0.4-0.4c0-0.5-0.3-0.5-0.6-0.6c-0.7-0.2-1.4-0.3-2-0.6c-0.8-0.5-1.7-0.6-2.6-0.6c-0.4,0-0.8,0-1.2,0
		c0.1-0.6,0.1-1.2,0.2-1.7c0.1-0.6,0-1.1-0.2-1.7c-0.3-0.8-0.4-1.6-0.4-2.4c0-0.6-0.1-1-0.9-0.8c0.1-0.6,0.2-1,0.3-1.5
		c0.3-1.3,1.2-2.2,2.2-2.9c0.2-0.1,0.5-0.1,0.7-0.1c0,0.2,0,0.4,0,0.6c0,0.6-0.1,1.2-0.2,1.8c-0.1,0.4-0.1,0.8-0.4,1.1
		c-0.6,0.9,0.2,3.2,1.2,3.4c0.1,0,0.3,0,0.4-0.1c2.5-2,5-4,7.5-6c-0.3-0.3-0.6-0.6-0.9-0.9c-0.5,0.3-0.9,1-1.6,0.4
		c-0.5-0.5,0-1,0.4-1.4c-0.4-0.4-0.6-0.7-1.3-0.6c-1.1,0.2-2.1-0.6-2.3-1.7c-0.2-0.9,0.4-1.8,1.3-2c1.2-0.4,2.7,0.7,2.6,2
		c-0.1,0.8,0.4,1,0.8,1.3c0.4-0.3,0.9-0.9,1.4-0.3c0.4,0.4,0.2,0.9-0.2,1.3c1.3,1.2,0.9,1.2,2.3-0.1c-0.3-0.4-0.6-0.9-0.1-1.3
		c0.5-0.5,1,0,1.4,0.4c0.4-0.4,0.9-0.5,0.8-1.3c-0.1-1,0.9-2,1.9-2c1-0.1,1.8,0.5,2,1.5c0.2,1.2-0.9,2.5-2.3,2.3
		c-0.6-0.1-0.9,0.1-1.3,0.6c0.3,0.4,0.9,0.9,0.3,1.5c-0.6,0.6-1-0.1-1.5-0.4c-0.3,0.3-0.7,0.6-1.1,1c1.3,1,2.5,2,3.7,3
		c1.2,1,2.5,2,3.7,3c0.5,0.4,0.8,0.3,1.2-0.1c0.7-0.7,0.9-1.6,0.9-2.6c0-0.1,0-0.2-0.1-0.2c-0.7-0.6-0.5-1.4-0.6-2.1
		c0-0.4-0.1-0.7-0.1-1.1c0-0.2,0-0.4,0-0.7c0.2,0,0.5,0,0.7,0.2c1,0.7,1.8,1.6,2.2,2.8c0.1,0.5,0.2,1,0.3,1.5
		c-0.9,0.3-0.8,0.3-0.9,1.1c-0.1,0.9-0.5,1.8-0.6,2.7c-0.1,0.7,0,1.4,0.1,2c0,0.3,0.1,0.6,0.1,0.9c-0.8,0-1.5,0-2.2,0
		c-0.4,0-0.8,0.1-1.1,0.3c-0.8,0.5-1.7,0.9-2.6,0.9c-0.4,0-0.5,0.1-0.5,0.5c0,0.2-0.3,0.5-0.4,0.5c-1.5,0-3-0.3-4-1.5
		c-0.2-0.2-0.3-0.5-0.5-0.8c1.1-0.5,2.4,0.3,3.4-0.5c0.6,0.8,1.2,0.5,1.9,0.2c0.5-0.2,0.9-0.5,1.3-0.9c0.6-0.5,0.6-0.8,0-1.3
		c-1.3-1.2-2.7-2.4-4-3.6c-1.1-1-2.1-2-3.2-3c-1.8,1.7-3.6,3.3-5.4,5c-0.6,0.5-1.2,1.1-1.8,1.6c-0.5,0.5-0.5,0.8,0,1.2
		c0.5,0.4,1.1,0.8,1.7,1.1C120.1,382.6,120.8,382.9,121.1,382L121.1,382z M130.4,368.6c-0.1,0.1-0.2,0.2-0.3,0.3
		c0.8-0.2,1.2-0.6,1.1-1.1c-0.1-0.5-0.4-0.7-0.8-0.8c-0.5-0.1-0.9,0.3-1.1,1.1c0.1-0.1,0.2-0.2,0.4-0.4
		C129.9,368,130.1,368.3,130.4,368.6L130.4,368.6z M120,369c0.3-0.3,0.6-0.6,0.9-0.9c-0.3-0.7-0.6-1-1.1-0.9
		c-0.4,0.1-0.7,0.3-0.7,0.8C118.9,368.4,119.2,368.7,120,369L120,369z"/>
</g>
<rect x="45.8" y="206.4" class="st10" width="191" height="172.1"/>
<text transform="matrix(1 0 0 1 45.7628 217.0951)"><tspan x="0" y="0" class="st7 st3 st11">Rendir exámenes:</tspan><tspan x="0" y="36" class="st7 st3 st11">Intelectual</tspan><tspan x="0" y="54" class="st7 st3 st11">Psicotécnico</tspan><tspan x="0" y="72" class="st7 st3 st11">Entrevista psicológica</tspan><tspan x="0" y="90" class="st7 st3 st11">Médico</tspan><tspan x="0" y="108" class="st7 st3 st11">Prueba física</tspan><tspan x="0" y="126" class="st7 st3 st11">Entrevista personal</tspan></text>
<circle class="st7" cx="34.2" cy="248.7" r="1.8"/>
<circle class="st7" cx="34.2" cy="267.3" r="1.8"/>
<circle class="st7" cx="34.2" cy="283.9" r="1.8"/>
<circle class="st7" cx="34.2" cy="302.6" r="1.8"/>
<circle class="st7" cx="34.2" cy="320.2" r="1.8"/>
<circle class="st7" cx="34.2" cy="337.8" r="1.8"/>
</svg>
