<?xml version="1.0" encoding="utf-8"?>
<!-- Generator: Adobe Illustrator 27.5.0, SVG Export Plug-In . SVG Version: 6.00 Build 0)  -->
<svg version="1.1" id="Capa_1" xmlns="http://www.w3.org/2000/svg" xmlns:xlink="http://www.w3.org/1999/xlink" x="0px" y="0px"
	 viewBox="0 0 250.2 438.8" style="enable-background:new 0 0 250.2 438.8;" xml:space="preserve">
<style type="text/css">
	.st0{fill:#FFFFFF;}
	.st1{fill:#914B96;}
	.st2{fill:#F89E41;}
	.st3{fill:#4BBCB6;}
	.st4{fill:#ED8242;}
	.st5{fill:#0B75A4;}
	.st6{fill:none;stroke:#0B75A4;stroke-width:2;stroke-miterlimit:10;}
	.st7{fill:#CC405E;}
</style>
<g>
	<image style="overflow:visible;" width="282" height="471" xlink:href="B5599695.png"  transform="matrix(1 0 0 1 -18 -14.17)">
	</image>
</g>
<path class="st0" d="M206.1,418.5H44.1c-13.1,0-23.8-10.7-23.8-23.8V44.1C20.3,31,31,20.3,44.1,20.3h161.9
	c13.1,0,23.8,10.7,23.8,23.8v350.5C229.9,407.8,219.2,418.5,206.1,418.5z"/>
<rect x="20.3" y="83.4" class="st4" width="209.5" height="42.4"/>
<g>
	<path class="st0" d="M60.5,110.6V98.5h9v2h-6.5v2.7H69v2h-6.1v3.3h6.8v2H60.5z"/>
	<path class="st0" d="M74.5,110.6v-10h-3.6v-2h9.6v2h-3.6v10H74.5z"/>
	<path class="st0" d="M91.7,110.6h-2.7l-1.1-2.7h-4.8l-1,2.7h-2.6l4.7-12.1h2.6L91.7,110.6z M87.2,105.9l-1.7-4.5l-1.6,4.5H87.2z"/>
	<path class="st0" d="M93,110.6V98.5h3.9c1.5,0,2.5,0.1,2.9,0.2c0.7,0.2,1.3,0.6,1.7,1.2c0.5,0.6,0.7,1.4,0.7,2.4
		c0,0.7-0.1,1.4-0.4,1.9s-0.6,0.9-1,1.2s-0.8,0.5-1.3,0.6c-0.6,0.1-1.4,0.2-2.5,0.2h-1.6v4.6H93z M95.5,100.6v3.4h1.3
		c1,0,1.6-0.1,1.9-0.2s0.6-0.3,0.8-0.6c0.2-0.3,0.3-0.6,0.3-0.9c0-0.4-0.1-0.8-0.4-1.1c-0.3-0.3-0.6-0.5-1-0.5
		c-0.3-0.1-0.9-0.1-1.8-0.1H95.5z"/>
	<path class="st0" d="M113.9,110.6h-2.7l-1.1-2.7h-4.8l-1,2.7h-2.6l4.7-12.1h2.6L113.9,110.6z M109.4,105.9l-1.7-4.5l-1.6,4.5H109.4
		z"/>
	<path class="st0" d="M122.4,110.6l-4.3-12.1h2.6l3.1,8.9l3-8.9h2.6l-4.3,12.1H122.4z"/>
	<path class="st0" d="M130.5,110.6V98.5h2.4v12.1H130.5z"/>
	<path class="st0" d="M135.3,110.6V98.5h5.1c1.3,0,2.2,0.1,2.8,0.3c0.6,0.2,1.1,0.6,1.4,1.2c0.4,0.6,0.5,1.2,0.5,1.9
		c0,0.9-0.3,1.7-0.8,2.2s-1.3,1-2.4,1.1c0.5,0.3,1,0.6,1.3,1c0.3,0.4,0.8,1,1.4,2l1.5,2.4h-2.9l-1.8-2.6c-0.6-0.9-1.1-1.5-1.3-1.8
		c-0.2-0.2-0.5-0.4-0.7-0.5c-0.3-0.1-0.7-0.1-1.2-0.1h-0.5v5H135.3z M137.7,103.7h1.8c1.2,0,1.9,0,2.2-0.1c0.3-0.1,0.5-0.3,0.7-0.5
		c0.2-0.2,0.2-0.5,0.2-0.9c0-0.4-0.1-0.7-0.3-1c-0.2-0.2-0.5-0.4-0.9-0.5c-0.2,0-0.8,0-1.8,0h-1.9V103.7z"/>
	<path class="st0" d="M150.2,110.6v-10h-3.6v-2h9.6v2h-3.6v10H150.2z"/>
	<path class="st0" d="M157.7,98.5h2.4v6.5c0,1,0,1.7,0.1,2c0.1,0.5,0.4,0.9,0.7,1.2c0.4,0.3,0.9,0.4,1.6,0.4c0.7,0,1.2-0.1,1.6-0.4
		s0.6-0.6,0.6-1c0.1-0.4,0.1-1.1,0.1-2.1v-6.7h2.4v6.3c0,1.5-0.1,2.5-0.2,3.1s-0.4,1.1-0.7,1.5c-0.4,0.4-0.8,0.7-1.4,1
		s-1.4,0.4-2.3,0.4c-1.2,0-2-0.1-2.6-0.4s-1.1-0.6-1.4-1c-0.3-0.4-0.6-0.9-0.7-1.3c-0.2-0.7-0.2-1.7-0.2-3.1V98.5z"/>
	<path class="st0" d="M180.9,110.6h-2.7l-1.1-2.7h-4.8l-1,2.7h-2.6l4.7-12.1h2.6L180.9,110.6z M176.4,105.9l-1.7-4.5l-1.6,4.5H176.4
		z"/>
	<path class="st0" d="M182.2,110.6v-12h2.4v10h6.1v2H182.2z"/>
</g>
<g>
	<g>
		<path class="st4" d="M110.1,184.3h30c1.3,0,2.3-1,2.3-2.3v-20.9c0-1.3-1-2.3-2.3-2.3l0,0h-30c-1.3,0-2.3,1-2.3,2.3V182
			C107.8,183.3,108.9,184.3,110.1,184.3z M109.8,161.1c0-0.2,0.1-0.3,0.3-0.3h30c0.2,0,0.3,0.2,0.3,0.3v18.8h-30.6V161.1z"/>
		<path class="st4" d="M144.8,190.6l-3.6-3.4c-0.3-0.3-0.7-0.4-1.1-0.5h-30.1c-0.4,0-0.8,0.2-1.1,0.5l-3.6,3.4c-0.7,0.8-0.9,2-0.5,3
			c0.2,0.7,0.9,1.2,1.6,1.2h37.3c0.7,0,1.4-0.5,1.6-1.2C145.8,192.6,145.6,191.4,144.8,190.6z"/>
	</g>
</g>
<path class="st6" d="M206.1,418.5H44.1c-13.1,0-23.8-10.7-23.8-23.8V44.1C20.3,31,31,20.3,44.1,20.3h161.9
	c13.1,0,23.8,10.7,23.8,23.8v350.5C229.9,407.8,219.2,418.5,206.1,418.5z"/>
<circle class="st4" cx="125.1" cy="50.4" r="14.8"/>
<g>
	<path class="st0" d="M130.1,55.8v2.8h-10.5c0.1-1,0.5-2,1-3c0.6-0.9,1.7-2.2,3.4-3.7c1.3-1.3,2.2-2.1,2.5-2.5
		c0.4-0.6,0.6-1.2,0.6-1.8c0-0.7-0.2-1.2-0.5-1.5s-0.9-0.5-1.5-0.5c-0.6,0-1.1,0.2-1.5,0.6c-0.4,0.4-0.6,1-0.6,1.9l-3-0.3
		c0.2-1.6,0.7-2.8,1.7-3.5s2.1-1.1,3.5-1.1c1.5,0,2.7,0.4,3.6,1.2c0.9,0.8,1.3,1.9,1.3,3.1c0,0.7-0.1,1.4-0.4,2
		c-0.3,0.6-0.6,1.3-1.2,2c-0.4,0.5-1,1.1-2,2c-0.9,0.9-1.5,1.4-1.8,1.7s-0.5,0.6-0.6,0.8H130.1z"/>
</g>
<g>
	<path class="st5" d="M39.7,237.2v-10.7h4.6c1.1,0,2,0.1,2.5,0.3c0.5,0.2,0.9,0.5,1.2,1s0.5,1.1,0.5,1.7c0,0.8-0.2,1.5-0.7,2
		c-0.5,0.5-1.2,0.9-2.1,1c0.5,0.3,0.9,0.6,1.2,0.9c0.3,0.3,0.7,0.9,1.2,1.7l1.3,2.1h-2.6l-1.6-2.3c-0.6-0.8-0.9-1.4-1.1-1.6
		c-0.2-0.2-0.4-0.4-0.7-0.4c-0.2-0.1-0.6-0.1-1.1-0.1h-0.4v4.5H39.7z M41.8,231h1.6c1,0,1.7,0,1.9-0.1s0.5-0.2,0.6-0.5
		s0.2-0.5,0.2-0.8c0-0.4-0.1-0.7-0.3-0.9c-0.2-0.2-0.5-0.4-0.8-0.4c-0.2,0-0.7,0-1.6,0h-1.7V231z"/>
	<path class="st5" d="M55,234.8l2.1,0.3c-0.3,0.8-0.7,1.3-1.2,1.7c-0.6,0.4-1.3,0.6-2.1,0.6c-1.4,0-2.4-0.4-3-1.3
		c-0.5-0.7-0.8-1.6-0.8-2.7c0-1.3,0.3-2.3,1-3c0.7-0.7,1.5-1.1,2.6-1.1c1.2,0,2.1,0.4,2.7,1.1c0.7,0.8,1,1.9,1,3.5H52
		c0,0.6,0.2,1.1,0.5,1.4c0.3,0.3,0.7,0.5,1.2,0.5c0.3,0,0.6-0.1,0.8-0.3S54.9,235.1,55,234.8z M55.1,232.7c0-0.6-0.2-1-0.5-1.4
		c-0.3-0.3-0.6-0.5-1.1-0.5c-0.4,0-0.8,0.2-1.1,0.5s-0.4,0.8-0.4,1.3H55.1z"/>
	<path class="st5" d="M60.4,231.8l-1.9-0.3c0.2-0.8,0.6-1.3,1.1-1.7s1.3-0.5,2.3-0.5c0.9,0,1.6,0.1,2.1,0.3c0.4,0.2,0.8,0.5,0.9,0.8
		c0.2,0.3,0.3,0.9,0.3,1.8l0,2.4c0,0.7,0,1.2,0.1,1.5c0.1,0.3,0.2,0.7,0.4,1h-2c-0.1-0.1-0.1-0.3-0.2-0.6c0-0.1-0.1-0.2-0.1-0.2
		c-0.4,0.3-0.7,0.6-1.1,0.8s-0.8,0.3-1.3,0.3c-0.8,0-1.4-0.2-1.9-0.7c-0.5-0.4-0.7-1-0.7-1.6c0-0.4,0.1-0.8,0.3-1.2
		c0.2-0.3,0.5-0.6,0.9-0.8c0.4-0.2,0.9-0.3,1.6-0.5c1-0.2,1.6-0.3,2-0.5V232c0-0.4-0.1-0.7-0.3-0.8c-0.2-0.2-0.6-0.3-1.1-0.3
		c-0.4,0-0.7,0.1-0.9,0.2C60.7,231.2,60.5,231.5,60.4,231.8z M63.1,233.5c-0.3,0.1-0.7,0.2-1.3,0.3s-0.9,0.2-1.1,0.4
		c-0.3,0.2-0.4,0.4-0.4,0.7c0,0.3,0.1,0.5,0.3,0.7s0.5,0.3,0.8,0.3c0.4,0,0.7-0.1,1.1-0.4c0.2-0.2,0.4-0.4,0.5-0.7
		c0.1-0.2,0.1-0.5,0.1-1V233.5z"/>
	<path class="st5" d="M67.2,237.2v-10.7h2.1v10.7H67.2z"/>
	<path class="st5" d="M71.3,228.4v-1.9h2.1v1.9H71.3z M71.3,237.2v-7.8h2.1v7.8H71.3z"/>
	<path class="st5" d="M74.7,237.2v-1.6l2.9-3.3c0.5-0.5,0.8-0.9,1.1-1.2c-0.2,0-0.6,0-0.9,0l-2.7,0v-1.7h6.4v1.5l-3,3.4l-1,1.1
		c0.6,0,0.9-0.1,1.1-0.1h3.2v1.8H74.7z"/>
	<path class="st5" d="M84.5,231.8l-1.9-0.3c0.2-0.8,0.6-1.3,1.1-1.7s1.3-0.5,2.3-0.5c0.9,0,1.6,0.1,2.1,0.3c0.4,0.2,0.8,0.5,0.9,0.8
		c0.2,0.3,0.3,0.9,0.3,1.8l0,2.4c0,0.7,0,1.2,0.1,1.5c0.1,0.3,0.2,0.7,0.4,1h-2c-0.1-0.1-0.1-0.3-0.2-0.6c0-0.1-0.1-0.2-0.1-0.2
		c-0.4,0.3-0.7,0.6-1.1,0.8s-0.8,0.3-1.3,0.3c-0.8,0-1.4-0.2-1.9-0.7c-0.5-0.4-0.7-1-0.7-1.6c0-0.4,0.1-0.8,0.3-1.2
		c0.2-0.3,0.5-0.6,0.9-0.8c0.4-0.2,0.9-0.3,1.6-0.5c1-0.2,1.6-0.3,2-0.5V232c0-0.4-0.1-0.7-0.3-0.8c-0.2-0.2-0.6-0.3-1.1-0.3
		c-0.4,0-0.7,0.1-0.9,0.2C84.8,231.2,84.7,231.5,84.5,231.8z M87.3,233.5c-0.3,0.1-0.7,0.2-1.3,0.3s-0.9,0.2-1.1,0.4
		c-0.3,0.2-0.4,0.4-0.4,0.7c0,0.3,0.1,0.5,0.3,0.7s0.5,0.3,0.8,0.3c0.4,0,0.7-0.1,1.1-0.4c0.2-0.2,0.4-0.4,0.5-0.7
		c0.1-0.2,0.1-0.5,0.1-1V233.5z"/>
	<path class="st5" d="M93.3,237.2h-2.1v-7.8h1.9v1.1c0.3-0.5,0.6-0.9,0.9-1c0.3-0.2,0.6-0.2,0.9-0.2c0.5,0,0.9,0.1,1.4,0.4l-0.6,1.8
		c-0.3-0.2-0.7-0.3-1-0.3c-0.3,0-0.5,0.1-0.7,0.2c-0.2,0.2-0.4,0.4-0.5,0.9c-0.1,0.4-0.2,1.3-0.2,2.6V237.2z"/>
	<path class="st5" d="M105.9,234.8l2.1,0.3c-0.3,0.8-0.7,1.3-1.2,1.7c-0.6,0.4-1.3,0.6-2.1,0.6c-1.4,0-2.4-0.4-3-1.3
		c-0.5-0.7-0.8-1.6-0.8-2.7c0-1.3,0.3-2.3,1-3c0.7-0.7,1.5-1.1,2.6-1.1c1.2,0,2.1,0.4,2.7,1.1c0.7,0.8,1,1.9,1,3.5h-5.2
		c0,0.6,0.2,1.1,0.5,1.4c0.3,0.3,0.7,0.5,1.2,0.5c0.3,0,0.6-0.1,0.8-0.3S105.7,235.1,105.9,234.8z M106,232.7c0-0.6-0.2-1-0.5-1.4
		c-0.3-0.3-0.6-0.5-1.1-0.5c-0.4,0-0.8,0.2-1.1,0.5s-0.4,0.8-0.4,1.3H106z"/>
	<path class="st5" d="M109.7,237.2v-10.7h2.1v10.7H109.7z"/>
	<path class="st5" d="M124.8,231.8l-2,0.4c-0.1-0.4-0.2-0.7-0.5-0.9c-0.2-0.2-0.6-0.3-0.9-0.3c-0.5,0-0.9,0.2-1.2,0.5
		c-0.3,0.4-0.5,0.9-0.5,1.8c0,0.9,0.2,1.6,0.5,2c0.3,0.4,0.7,0.6,1.2,0.6c0.4,0,0.7-0.1,1-0.3c0.2-0.2,0.4-0.6,0.5-1.1l2,0.3
		c-0.2,0.9-0.6,1.6-1.2,2.1s-1.4,0.7-2.4,0.7c-1.1,0-2-0.4-2.7-1.1c-0.7-0.7-1-1.7-1-3c0-1.3,0.3-2.3,1-3c0.7-0.7,1.6-1.1,2.8-1.1
		c0.9,0,1.7,0.2,2.3,0.6C124.2,230.3,124.6,230.9,124.8,231.8z"/>
	<path class="st5" d="M131.5,237.2v-1.2c-0.3,0.4-0.7,0.7-1.1,1c-0.5,0.2-0.9,0.4-1.5,0.4c-0.5,0-1-0.1-1.4-0.3s-0.7-0.6-0.9-1
		s-0.3-1-0.3-1.7v-4.9h2.1v3.6c0,1.1,0,1.8,0.1,2c0.1,0.2,0.2,0.4,0.4,0.6c0.2,0.1,0.5,0.2,0.8,0.2c0.4,0,0.7-0.1,0.9-0.3
		c0.3-0.2,0.5-0.4,0.6-0.7c0.1-0.3,0.2-1,0.2-2.1v-3.3h2.1v7.8H131.5z"/>
	<path class="st5" d="M137.5,237.2h-2.1v-7.8h1.9v1.1c0.3-0.5,0.6-0.9,0.9-1c0.3-0.2,0.6-0.2,0.9-0.2c0.5,0,0.9,0.1,1.4,0.4
		l-0.6,1.8c-0.3-0.2-0.7-0.3-1-0.3c-0.3,0-0.5,0.1-0.7,0.2c-0.2,0.2-0.4,0.4-0.5,0.9c-0.1,0.4-0.2,1.3-0.2,2.6V237.2z"/>
	<path class="st5" d="M140.6,235l2.1-0.3c0.1,0.4,0.3,0.7,0.5,0.9c0.3,0.2,0.6,0.3,1.1,0.3c0.5,0,0.9-0.1,1.2-0.3
		c0.2-0.1,0.3-0.3,0.3-0.5c0-0.2,0-0.3-0.1-0.4c-0.1-0.1-0.3-0.2-0.7-0.3c-1.7-0.4-2.7-0.7-3.2-1c-0.6-0.4-0.9-1-0.9-1.8
		c0-0.7,0.3-1.2,0.8-1.7s1.4-0.7,2.5-0.7c1.1,0,1.9,0.2,2.4,0.5s0.9,0.9,1.1,1.5l-1.9,0.4c-0.1-0.3-0.2-0.5-0.5-0.7
		c-0.2-0.2-0.6-0.2-1-0.2c-0.5,0-0.9,0.1-1.2,0.2c-0.2,0.1-0.2,0.2-0.2,0.4c0,0.1,0.1,0.3,0.2,0.4c0.2,0.1,0.8,0.3,1.9,0.6
		c1.1,0.2,1.9,0.6,2.3,0.9c0.4,0.4,0.6,0.9,0.6,1.5c0,0.7-0.3,1.3-0.9,1.8s-1.5,0.8-2.6,0.8c-1.1,0-1.9-0.2-2.5-0.6
		C141.2,236.3,140.8,235.7,140.6,235z"/>
	<path class="st5" d="M149.2,233.2c0-0.7,0.2-1.3,0.5-2c0.3-0.6,0.8-1.1,1.4-1.5c0.6-0.3,1.3-0.5,2.1-0.5c1.2,0,2.1,0.4,2.9,1.1
		c0.8,0.8,1.1,1.7,1.1,2.9c0,1.2-0.4,2.2-1.1,2.9c-0.8,0.8-1.7,1.2-2.9,1.2c-0.7,0-1.4-0.2-2-0.5c-0.6-0.3-1.1-0.8-1.5-1.4
		C149.4,234.9,149.2,234.1,149.2,233.2z M151.3,233.3c0,0.8,0.2,1.4,0.5,1.8c0.4,0.4,0.8,0.6,1.4,0.6s1-0.2,1.4-0.6
		c0.4-0.4,0.5-1,0.5-1.8c0-0.8-0.2-1.3-0.5-1.8c-0.4-0.4-0.8-0.6-1.4-0.6s-1,0.2-1.4,0.6C151.5,232,151.3,232.6,151.3,233.3z"/>
	<path class="st5" d="M170.2,237.2h-1.9v-1.1c-0.3,0.4-0.7,0.8-1.1,1c-0.4,0.2-0.9,0.3-1.3,0.3c-0.9,0-1.7-0.4-2.3-1.1
		c-0.6-0.7-1-1.7-1-3c0-1.3,0.3-2.3,0.9-3c0.6-0.7,1.4-1,2.4-1c0.9,0,1.6,0.4,2.3,1.1v-3.9h2.1V237.2z M164.7,233.2
		c0,0.8,0.1,1.4,0.3,1.8c0.3,0.5,0.8,0.8,1.4,0.8c0.5,0,0.9-0.2,1.2-0.6c0.3-0.4,0.5-1,0.5-1.8c0-0.9-0.2-1.5-0.5-1.9
		c-0.3-0.4-0.7-0.6-1.2-0.6c-0.5,0-0.9,0.2-1.2,0.6C164.9,231.8,164.7,232.4,164.7,233.2z"/>
	<path class="st5" d="M176.7,234.8l2.1,0.3c-0.3,0.8-0.7,1.3-1.2,1.7c-0.6,0.4-1.3,0.6-2.1,0.6c-1.4,0-2.4-0.4-3-1.3
		c-0.5-0.7-0.8-1.6-0.8-2.7c0-1.3,0.3-2.3,1-3c0.7-0.7,1.5-1.1,2.6-1.1c1.2,0,2.1,0.4,2.7,1.1c0.7,0.8,1,1.9,1,3.5h-5.2
		c0,0.6,0.2,1.1,0.5,1.4c0.3,0.3,0.7,0.5,1.2,0.5c0.3,0,0.6-0.1,0.8-0.3S176.6,235.1,176.7,234.8z M176.8,232.7c0-0.6-0.2-1-0.5-1.4
		c-0.3-0.3-0.6-0.5-1.1-0.5c-0.5,0-0.8,0.2-1.1,0.5s-0.4,0.8-0.4,1.3H176.8z"/>
	<path class="st5" d="M46.7,255.2h-2.1v-4c0-0.8,0-1.4-0.1-1.6c-0.1-0.2-0.2-0.4-0.4-0.6c-0.2-0.1-0.4-0.2-0.7-0.2
		c-0.4,0-0.7,0.1-1,0.3s-0.5,0.5-0.6,0.8c-0.1,0.3-0.2,0.9-0.2,1.8v3.5h-2.1v-7.8h1.9v1.1c0.7-0.9,1.5-1.3,2.6-1.3
		c0.5,0,0.9,0.1,1.2,0.2c0.4,0.2,0.7,0.4,0.9,0.6c0.2,0.3,0.3,0.5,0.4,0.9c0.1,0.3,0.1,0.8,0.1,1.4V255.2z"/>
	<path class="st5" d="M48.8,246.4v-1.9h2.1v1.9H48.8z M48.8,255.2v-7.8h2.1v7.8H48.8z"/>
	<path class="st5" d="M55.1,255.2l-3.1-7.8h2.2l1.5,4l0.4,1.3c0.1-0.3,0.2-0.6,0.2-0.7c0.1-0.2,0.1-0.4,0.2-0.7l1.5-4h2.1l-3.1,7.8
		H55.1z"/>
	<path class="st5" d="M65.8,252.8l2.1,0.3c-0.3,0.8-0.7,1.3-1.2,1.7c-0.6,0.4-1.3,0.6-2.1,0.6c-1.4,0-2.4-0.4-3-1.3
		c-0.5-0.7-0.8-1.6-0.8-2.7c0-1.3,0.3-2.3,1-3c0.7-0.7,1.5-1.1,2.6-1.1c1.2,0,2.1,0.4,2.7,1.1c0.7,0.8,1,1.9,1,3.5h-5.2
		c0,0.6,0.2,1.1,0.5,1.4c0.3,0.3,0.7,0.5,1.2,0.5c0.3,0,0.6-0.1,0.8-0.3S65.7,253.1,65.8,252.8z M65.9,250.7c0-0.6-0.2-1-0.5-1.4
		c-0.3-0.3-0.6-0.5-1.1-0.5c-0.4,0-0.8,0.2-1.1,0.5s-0.4,0.8-0.4,1.3H65.9z"/>
	<path class="st5" d="M69.7,255.2v-10.7h2.1v10.7H69.7z"/>
	<path class="st5" d="M75.4,249.8l-1.9-0.3c0.2-0.8,0.6-1.3,1.1-1.7s1.3-0.5,2.3-0.5c0.9,0,1.6,0.1,2.1,0.3c0.4,0.2,0.8,0.5,0.9,0.8
		c0.2,0.3,0.3,0.9,0.3,1.8l0,2.4c0,0.7,0,1.2,0.1,1.5c0.1,0.3,0.2,0.7,0.4,1h-2c-0.1-0.1-0.1-0.3-0.2-0.6c0-0.1-0.1-0.2-0.1-0.2
		c-0.4,0.3-0.7,0.6-1.1,0.8c-0.4,0.2-0.8,0.3-1.3,0.3c-0.8,0-1.4-0.2-1.9-0.7c-0.5-0.4-0.7-1-0.7-1.6c0-0.4,0.1-0.8,0.3-1.2
		c0.2-0.3,0.5-0.6,0.9-0.8c0.4-0.2,0.9-0.3,1.6-0.5c1-0.2,1.6-0.3,2-0.5V250c0-0.4-0.1-0.7-0.3-0.8c-0.2-0.2-0.6-0.3-1.1-0.3
		c-0.4,0-0.7,0.1-0.9,0.2C75.7,249.2,75.5,249.5,75.4,249.8z M78.1,251.5c-0.3,0.1-0.7,0.2-1.3,0.3s-0.9,0.2-1.1,0.4
		c-0.3,0.2-0.4,0.4-0.4,0.7c0,0.3,0.1,0.5,0.3,0.7c0.2,0.2,0.5,0.3,0.8,0.3c0.4,0,0.7-0.1,1.1-0.4c0.2-0.2,0.4-0.4,0.5-0.7
		c0.1-0.2,0.1-0.5,0.1-1V251.5z"/>
	<path class="st5" d="M89,249.8l-2,0.4c-0.1-0.4-0.2-0.7-0.5-0.9c-0.2-0.2-0.6-0.3-0.9-0.3c-0.5,0-0.9,0.2-1.2,0.5
		c-0.3,0.4-0.5,0.9-0.5,1.8c0,0.9,0.2,1.6,0.5,2c0.3,0.4,0.7,0.6,1.2,0.6c0.4,0,0.7-0.1,1-0.3c0.2-0.2,0.4-0.6,0.5-1.1l2,0.3
		c-0.2,0.9-0.6,1.6-1.2,2.1c-0.6,0.5-1.4,0.7-2.4,0.7c-1.1,0-2-0.4-2.7-1.1c-0.7-0.7-1-1.7-1-3c0-1.3,0.3-2.3,1-3
		c0.7-0.7,1.6-1.1,2.8-1.1c0.9,0,1.7,0.2,2.3,0.6C88.3,248.3,88.7,248.9,89,249.8z"/>
	<path class="st5" d="M90.5,246.4v-1.9h2.1v1.9H90.5z M90.5,255.2v-7.8h2.1v7.8H90.5z"/>
	<path class="st5" d="M94.2,251.2c0-0.7,0.2-1.3,0.5-2c0.3-0.6,0.8-1.1,1.4-1.5c0.6-0.3,1.3-0.5,2.1-0.5c1.2,0,2.1,0.4,2.9,1.1
		c0.8,0.8,1.1,1.7,1.1,2.9c0,1.2-0.4,2.2-1.1,2.9c-0.8,0.8-1.7,1.2-2.9,1.2c-0.7,0-1.4-0.2-2-0.5c-0.6-0.3-1.1-0.8-1.5-1.4
		C94.4,252.9,94.2,252.1,94.2,251.2z M96.3,251.3c0,0.8,0.2,1.4,0.5,1.8s0.8,0.6,1.4,0.6s1-0.2,1.4-0.6c0.4-0.4,0.5-1,0.5-1.8
		c0-0.8-0.2-1.3-0.5-1.8c-0.4-0.4-0.8-0.6-1.4-0.6s-1,0.2-1.4,0.6S96.3,250.6,96.3,251.3z M97.2,246.5l1-2.2h2.3l-2,2.2H97.2z"/>
	<path class="st5" d="M110.9,255.2h-2.1v-4c0-0.8,0-1.4-0.1-1.6c-0.1-0.2-0.2-0.4-0.4-0.6c-0.2-0.1-0.4-0.2-0.7-0.2
		c-0.4,0-0.7,0.1-1,0.3s-0.5,0.5-0.6,0.8c-0.1,0.3-0.2,0.9-0.2,1.8v3.5h-2.1v-7.8h1.9v1.1c0.7-0.9,1.5-1.3,2.6-1.3
		c0.5,0,0.9,0.1,1.2,0.2c0.4,0.2,0.7,0.4,0.9,0.6c0.2,0.3,0.3,0.5,0.4,0.9c0.1,0.3,0.1,0.8,0.1,1.4V255.2z"/>
	<path class="st5" d="M116.7,251.2c0-0.7,0.2-1.3,0.5-2c0.3-0.6,0.8-1.1,1.4-1.5c0.6-0.3,1.3-0.5,2.1-0.5c1.2,0,2.1,0.4,2.9,1.1
		c0.8,0.8,1.1,1.7,1.1,2.9c0,1.2-0.4,2.2-1.1,2.9c-0.8,0.8-1.7,1.2-2.9,1.2c-0.7,0-1.4-0.2-2-0.5c-0.6-0.3-1.1-0.8-1.5-1.4
		C116.9,252.9,116.7,252.1,116.7,251.2z M118.8,251.3c0,0.8,0.2,1.4,0.5,1.8s0.8,0.6,1.4,0.6s1-0.2,1.4-0.6c0.4-0.4,0.5-1,0.5-1.8
		c0-0.8-0.2-1.3-0.5-1.8c-0.4-0.4-0.8-0.6-1.4-0.6s-1,0.2-1.4,0.6S118.8,250.6,118.8,251.3z"/>
	<path class="st5" d="M126.3,255.2v-10.7h2.1v3.9c0.6-0.7,1.4-1.1,2.3-1.1c0.9,0,1.7,0.3,2.4,1c0.6,0.7,0.9,1.7,0.9,3
		c0,1.3-0.3,2.4-0.9,3.1c-0.6,0.7-1.4,1.1-2.3,1.1c-0.4,0-0.9-0.1-1.3-0.3c-0.4-0.2-0.8-0.6-1.1-1v1.1H126.3z M128.3,251.2
		c0,0.8,0.1,1.4,0.4,1.8c0.4,0.5,0.8,0.8,1.4,0.8c0.5,0,0.8-0.2,1.2-0.6c0.3-0.4,0.5-1,0.5-1.8c0-0.9-0.2-1.5-0.5-1.9
		c-0.3-0.4-0.7-0.6-1.2-0.6c-0.5,0-0.9,0.2-1.2,0.6C128.5,249.8,128.3,250.4,128.3,251.2z"/>
	<path class="st5" d="M135.5,255.2v-10.7h2.1v10.7H135.5z"/>
	<path class="st5" d="M139.7,246.4v-1.9h2.1v1.9H139.7z M139.7,255.2v-7.8h2.1v7.8H139.7z"/>
	<path class="st5" d="M143.7,255.7l2.4,0.3c0,0.3,0.1,0.5,0.3,0.6c0.2,0.1,0.5,0.2,0.9,0.2c0.5,0,0.9-0.1,1.2-0.2
		c0.2-0.1,0.3-0.3,0.4-0.5c0.1-0.2,0.1-0.5,0.1-0.9V254c-0.6,0.8-1.4,1.3-2.3,1.3c-1,0-1.9-0.4-2.5-1.3c-0.5-0.7-0.7-1.6-0.7-2.6
		c0-1.3,0.3-2.3,0.9-3c0.6-0.7,1.4-1,2.3-1c1,0,1.8,0.4,2.4,1.3v-1.1h1.9v7c0,0.9-0.1,1.6-0.2,2.1c-0.2,0.5-0.4,0.8-0.6,1.1
		s-0.6,0.5-1.1,0.6c-0.5,0.1-1,0.2-1.7,0.2c-1.3,0-2.3-0.2-2.8-0.7c-0.6-0.5-0.8-1-0.8-1.7C143.6,255.9,143.6,255.8,143.7,255.7z
		 M145.5,251.2c0,0.8,0.2,1.4,0.5,1.8c0.3,0.4,0.7,0.6,1.2,0.6c0.5,0,0.9-0.2,1.3-0.6c0.3-0.4,0.5-1,0.5-1.7c0-0.8-0.2-1.4-0.5-1.8
		s-0.8-0.6-1.3-0.6c-0.5,0-0.9,0.2-1.2,0.6C145.7,249.8,145.5,250.4,145.5,251.2z"/>
	<path class="st5" d="M154.5,249.8l-1.9-0.3c0.2-0.8,0.6-1.3,1.1-1.7s1.3-0.5,2.3-0.5c0.9,0,1.6,0.1,2.1,0.3
		c0.4,0.2,0.8,0.5,0.9,0.8c0.2,0.3,0.3,0.9,0.3,1.8l0,2.4c0,0.7,0,1.2,0.1,1.5c0.1,0.3,0.2,0.7,0.4,1h-2c-0.1-0.1-0.1-0.3-0.2-0.6
		c0-0.1-0.1-0.2-0.1-0.2c-0.4,0.3-0.7,0.6-1.1,0.8c-0.4,0.2-0.8,0.3-1.3,0.3c-0.8,0-1.4-0.2-1.9-0.7c-0.5-0.4-0.7-1-0.7-1.6
		c0-0.4,0.1-0.8,0.3-1.2c0.2-0.3,0.5-0.6,0.9-0.8c0.4-0.2,0.9-0.3,1.6-0.5c1-0.2,1.6-0.3,2-0.5V250c0-0.4-0.1-0.7-0.3-0.8
		c-0.2-0.2-0.6-0.3-1.1-0.3c-0.4,0-0.7,0.1-0.9,0.2C154.8,249.2,154.7,249.5,154.5,249.8z M157.3,251.5c-0.3,0.1-0.7,0.2-1.3,0.3
		s-0.9,0.2-1.1,0.4c-0.3,0.2-0.4,0.4-0.4,0.7c0,0.3,0.1,0.5,0.3,0.7c0.2,0.2,0.5,0.3,0.8,0.3c0.4,0,0.7-0.1,1.1-0.4
		c0.2-0.2,0.4-0.4,0.5-0.7c0.1-0.2,0.1-0.5,0.1-1V251.5z"/>
	<path class="st5" d="M164.9,247.5v1.6h-1.4v3.1c0,0.6,0,1,0,1.1c0,0.1,0.1,0.2,0.2,0.3c0.1,0.1,0.2,0.1,0.3,0.1
		c0.2,0,0.5-0.1,0.8-0.2l0.2,1.6c-0.5,0.2-1,0.3-1.6,0.3c-0.4,0-0.7-0.1-1-0.2c-0.3-0.1-0.5-0.3-0.7-0.5c-0.1-0.2-0.2-0.5-0.3-0.8
		c0-0.2-0.1-0.7-0.1-1.4v-3.4h-0.9v-1.6h0.9v-1.5l2.1-1.2v2.7H164.9z"/>
	<path class="st5" d="M165.9,251.2c0-0.7,0.2-1.3,0.5-2c0.3-0.6,0.8-1.1,1.4-1.5c0.6-0.3,1.3-0.5,2.1-0.5c1.2,0,2.1,0.4,2.9,1.1
		c0.8,0.8,1.1,1.7,1.1,2.9c0,1.2-0.4,2.2-1.1,2.9c-0.8,0.8-1.7,1.2-2.9,1.2c-0.7,0-1.4-0.2-2-0.5c-0.6-0.3-1.1-0.8-1.5-1.4
		C166,252.9,165.9,252.1,165.9,251.2z M168,251.3c0,0.8,0.2,1.4,0.5,1.8c0.4,0.4,0.8,0.6,1.4,0.6s1-0.2,1.4-0.6
		c0.4-0.4,0.5-1,0.5-1.8c0-0.8-0.2-1.3-0.5-1.8c-0.4-0.4-0.8-0.6-1.4-0.6s-1,0.2-1.4,0.6C168.2,250,168,250.6,168,251.3z"/>
	<path class="st5" d="M177.5,255.2h-2.1v-7.8h1.9v1.1c0.3-0.5,0.6-0.9,0.9-1c0.3-0.2,0.6-0.2,0.9-0.2c0.5,0,0.9,0.1,1.4,0.4
		l-0.6,1.8c-0.3-0.2-0.7-0.3-1-0.3c-0.3,0-0.5,0.1-0.7,0.2c-0.2,0.2-0.4,0.4-0.5,0.9c-0.1,0.4-0.2,1.3-0.2,2.6V255.2z"/>
	<path class="st5" d="M181.3,246.4v-1.9h2.1v1.9H181.3z M181.3,255.2v-7.8h2.1v7.8H181.3z"/>
	<path class="st5" d="M185,251.2c0-0.7,0.2-1.3,0.5-2c0.3-0.6,0.8-1.1,1.4-1.5c0.6-0.3,1.3-0.5,2.1-0.5c1.2,0,2.1,0.4,2.9,1.1
		c0.8,0.8,1.1,1.7,1.1,2.9c0,1.2-0.4,2.2-1.1,2.9c-0.8,0.8-1.7,1.2-2.9,1.2c-0.7,0-1.4-0.2-2-0.5c-0.6-0.3-1.1-0.8-1.5-1.4
		C185.2,252.9,185,252.1,185,251.2z M187.1,251.3c0,0.8,0.2,1.4,0.5,1.8c0.4,0.4,0.8,0.6,1.4,0.6s1-0.2,1.4-0.6
		c0.4-0.4,0.5-1,0.5-1.8c0-0.8-0.2-1.3-0.5-1.8c-0.4-0.4-0.8-0.6-1.4-0.6s-1,0.2-1.4,0.6C187.3,250,187.1,250.6,187.1,251.3z"/>
	<path class="st5" d="M194.7,255.2v-2.1h2.1v2.1H194.7z"/>
	<path class="st5" d="M46.5,287.3l2.1,0.7c-0.3,1.2-0.9,2-1.6,2.6c-0.8,0.6-1.7,0.9-2.9,0.9c-1.4,0-2.6-0.5-3.5-1.5
		c-0.9-1-1.4-2.3-1.4-4c0-1.8,0.5-3.2,1.4-4.2c0.9-1,2.1-1.5,3.6-1.5c1.3,0,2.4,0.4,3.2,1.2c0.5,0.5,0.9,1.1,1.1,2l-2.1,0.5
		c-0.1-0.6-0.4-1-0.8-1.3c-0.4-0.3-0.9-0.5-1.5-0.5c-0.8,0-1.4,0.3-1.9,0.9c-0.5,0.6-0.7,1.5-0.7,2.8c0,1.4,0.2,2.3,0.7,2.9
		s1.1,0.9,1.9,0.9c0.6,0,1.1-0.2,1.5-0.5C46.1,288.6,46.4,288.1,46.5,287.3z"/>
	<path class="st5" d="M50,287.2c0-0.7,0.2-1.3,0.5-2c0.3-0.6,0.8-1.1,1.4-1.5c0.6-0.3,1.3-0.5,2.1-0.5c1.2,0,2.1,0.4,2.9,1.1
		c0.8,0.8,1.1,1.7,1.1,2.9c0,1.2-0.4,2.2-1.1,2.9c-0.8,0.8-1.7,1.2-2.9,1.2c-0.7,0-1.4-0.2-2-0.5c-0.6-0.3-1.1-0.8-1.5-1.4
		C50.2,288.9,50,288.1,50,287.2z M52.1,287.3c0,0.8,0.2,1.4,0.5,1.8s0.8,0.6,1.4,0.6s1-0.2,1.4-0.6c0.4-0.4,0.5-1,0.5-1.8
		c0-0.8-0.2-1.3-0.5-1.8c-0.4-0.4-0.8-0.6-1.4-0.6s-1,0.2-1.4,0.6S52.1,286.6,52.1,287.3z"/>
	<path class="st5" d="M59.5,283.5h1.9v1.1c0.7-0.8,1.5-1.2,2.4-1.2c0.5,0,0.9,0.1,1.3,0.3s0.7,0.5,0.9,0.9c0.3-0.4,0.7-0.7,1.1-0.9
		s0.8-0.3,1.3-0.3c0.6,0,1.1,0.1,1.5,0.3c0.4,0.2,0.7,0.6,0.9,1c0.1,0.3,0.2,0.9,0.2,1.6v5h-2.1v-4.4c0-0.8-0.1-1.3-0.2-1.5
		c-0.2-0.3-0.5-0.4-0.9-0.4c-0.3,0-0.6,0.1-0.8,0.3s-0.4,0.4-0.5,0.8c-0.1,0.3-0.2,0.9-0.2,1.6v3.7h-2.1V287c0-0.8,0-1.2-0.1-1.5
		s-0.2-0.4-0.3-0.5c-0.2-0.1-0.4-0.2-0.6-0.2c-0.3,0-0.6,0.1-0.9,0.3s-0.4,0.4-0.5,0.7c-0.1,0.3-0.2,0.9-0.2,1.6v3.8h-2.1V283.5z"/>
	<path class="st5" d="M72.9,283.5h1.9v1.1c0.2-0.4,0.6-0.7,1-1s0.9-0.4,1.4-0.4c0.9,0,1.7,0.4,2.3,1.1c0.6,0.7,0.9,1.7,0.9,3
		c0,1.3-0.3,2.3-1,3c-0.6,0.7-1.4,1.1-2.3,1.1c-0.4,0-0.8-0.1-1.2-0.3c-0.3-0.2-0.7-0.5-1.1-0.9v3.9h-2.1V283.5z M75,287.2
		c0,0.9,0.2,1.5,0.5,1.9c0.3,0.4,0.8,0.6,1.3,0.6c0.5,0,0.9-0.2,1.2-0.6c0.3-0.4,0.5-1,0.5-1.9c0-0.8-0.2-1.4-0.5-1.8
		c-0.3-0.4-0.7-0.6-1.2-0.6c-0.5,0-0.9,0.2-1.3,0.6C75.1,285.9,75,286.4,75,287.2z"/>
	<path class="st5" d="M82.2,291.2v-10.7h2.1v10.7H82.2z"/>
	<path class="st5" d="M90.8,288.8l2.1,0.3c-0.3,0.8-0.7,1.3-1.2,1.7c-0.6,0.4-1.3,0.6-2.1,0.6c-1.4,0-2.4-0.4-3-1.3
		c-0.5-0.7-0.8-1.6-0.8-2.7c0-1.3,0.3-2.3,1-3c0.7-0.7,1.5-1.1,2.6-1.1c1.2,0,2.1,0.4,2.7,1.1c0.7,0.8,1,1.9,1,3.5h-5.2
		c0,0.6,0.2,1.1,0.5,1.4c0.3,0.3,0.7,0.5,1.2,0.5c0.3,0,0.6-0.1,0.8-0.3S90.7,289.1,90.8,288.8z M90.9,286.7c0-0.6-0.2-1-0.5-1.4
		c-0.3-0.3-0.6-0.5-1.1-0.5c-0.4,0-0.8,0.2-1.1,0.5s-0.4,0.8-0.4,1.3H90.9z"/>
	<path class="st5" d="M98.2,283.5v1.6h-1.4v3.1c0,0.6,0,1,0,1.1c0,0.1,0.1,0.2,0.2,0.3c0.1,0.1,0.2,0.1,0.3,0.1
		c0.2,0,0.5-0.1,0.8-0.2l0.2,1.6c-0.5,0.2-1,0.3-1.6,0.3c-0.4,0-0.7-0.1-1-0.2c-0.3-0.1-0.5-0.3-0.7-0.5c-0.1-0.2-0.2-0.5-0.3-0.8
		c0-0.2-0.1-0.7-0.1-1.4v-3.4h-0.9v-1.6h0.9v-1.5l2.1-1.2v2.7H98.2z"/>
	<path class="st5" d="M101.2,285.8l-1.9-0.3c0.2-0.8,0.6-1.3,1.1-1.7s1.3-0.5,2.3-0.5c0.9,0,1.6,0.1,2.1,0.3
		c0.4,0.2,0.8,0.5,0.9,0.8c0.2,0.3,0.3,0.9,0.3,1.8l0,2.4c0,0.7,0,1.2,0.1,1.5c0.1,0.3,0.2,0.7,0.4,1h-2c-0.1-0.1-0.1-0.3-0.2-0.6
		c0-0.1-0.1-0.2-0.1-0.2c-0.4,0.3-0.7,0.6-1.1,0.8c-0.4,0.2-0.8,0.3-1.3,0.3c-0.8,0-1.4-0.2-1.9-0.7c-0.5-0.4-0.7-1-0.7-1.6
		c0-0.4,0.1-0.8,0.3-1.2c0.2-0.3,0.5-0.6,0.9-0.8c0.4-0.2,0.9-0.3,1.6-0.5c1-0.2,1.6-0.3,2-0.5V286c0-0.4-0.1-0.7-0.3-0.8
		c-0.2-0.2-0.6-0.3-1.1-0.3c-0.4,0-0.7,0.1-0.9,0.2C101.5,285.2,101.3,285.5,101.2,285.8z M103.9,287.5c-0.3,0.1-0.7,0.2-1.3,0.3
		s-0.9,0.2-1.1,0.4c-0.3,0.2-0.4,0.4-0.4,0.7c0,0.3,0.1,0.5,0.3,0.7c0.2,0.2,0.5,0.3,0.8,0.3c0.4,0,0.7-0.1,1.1-0.4
		c0.2-0.2,0.4-0.4,0.5-0.7c0.1-0.2,0.1-0.5,0.1-1V287.5z"/>
	<path class="st5" d="M110,291.2h-2.1v-7.8h1.9v1.1c0.3-0.5,0.6-0.9,0.9-1c0.3-0.2,0.6-0.2,0.9-0.2c0.5,0,0.9,0.1,1.4,0.4l-0.6,1.8
		c-0.3-0.2-0.7-0.3-1-0.3c-0.3,0-0.5,0.1-0.7,0.2c-0.2,0.2-0.4,0.4-0.5,0.9c-0.1,0.4-0.2,1.3-0.2,2.6V291.2z"/>
	<path class="st5" d="M123.1,291.2v-10.7h2.1v10.7H123.1z"/>
	<path class="st5" d="M128.8,285.8l-1.9-0.3c0.2-0.8,0.6-1.3,1.1-1.7s1.3-0.5,2.3-0.5c0.9,0,1.6,0.1,2.1,0.3
		c0.4,0.2,0.8,0.5,0.9,0.8c0.2,0.3,0.3,0.9,0.3,1.8l0,2.4c0,0.7,0,1.2,0.1,1.5c0.1,0.3,0.2,0.7,0.4,1h-2c-0.1-0.1-0.1-0.3-0.2-0.6
		c0-0.1-0.1-0.2-0.1-0.2c-0.4,0.3-0.7,0.6-1.1,0.8c-0.4,0.2-0.8,0.3-1.3,0.3c-0.8,0-1.4-0.2-1.9-0.7c-0.5-0.4-0.7-1-0.7-1.6
		c0-0.4,0.1-0.8,0.3-1.2c0.2-0.3,0.5-0.6,0.9-0.8c0.4-0.2,0.9-0.3,1.6-0.5c1-0.2,1.6-0.3,2-0.5V286c0-0.4-0.1-0.7-0.3-0.8
		c-0.2-0.2-0.6-0.3-1.1-0.3c-0.4,0-0.7,0.1-0.9,0.2C129.1,285.2,129,285.5,128.8,285.8z M131.6,287.5c-0.3,0.1-0.7,0.2-1.3,0.3
		s-0.9,0.2-1.1,0.4c-0.3,0.2-0.4,0.4-0.4,0.7c0,0.3,0.1,0.5,0.3,0.7c0.2,0.2,0.5,0.3,0.8,0.3c0.4,0,0.7-0.1,1.1-0.4
		c0.2-0.2,0.4-0.4,0.5-0.7c0.1-0.2,0.1-0.5,0.1-1V287.5z"/>
	<path class="st5" d="M149.5,288.8l2.1,0.3c-0.3,0.8-0.7,1.3-1.2,1.7c-0.6,0.4-1.3,0.6-2.1,0.6c-1.4,0-2.4-0.4-3-1.3
		c-0.5-0.7-0.8-1.6-0.8-2.7c0-1.3,0.3-2.3,1-3c0.7-0.7,1.5-1.1,2.6-1.1c1.2,0,2.1,0.4,2.7,1.1c0.7,0.8,1,1.9,1,3.5h-5.2
		c0,0.6,0.2,1.1,0.5,1.4c0.3,0.3,0.7,0.5,1.2,0.5c0.3,0,0.6-0.1,0.8-0.3S149.4,289.1,149.5,288.8z M149.6,286.7c0-0.6-0.2-1-0.5-1.4
		c-0.3-0.3-0.6-0.5-1.1-0.5c-0.5,0-0.8,0.2-1.1,0.5s-0.4,0.8-0.4,1.3H149.6z"/>
	<path class="st5" d="M155.4,291.2l-3.1-7.8h2.2l1.5,4l0.4,1.3c0.1-0.3,0.2-0.6,0.2-0.7c0.1-0.2,0.1-0.4,0.2-0.7l1.5-4h2.1l-3.1,7.8
		H155.4z"/>
	<path class="st5" d="M163.2,285.8l-1.9-0.3c0.2-0.8,0.6-1.3,1.1-1.7s1.3-0.5,2.3-0.5c0.9,0,1.6,0.1,2.1,0.3
		c0.4,0.2,0.8,0.5,0.9,0.8c0.2,0.3,0.3,0.9,0.3,1.8l0,2.4c0,0.7,0,1.2,0.1,1.5c0.1,0.3,0.2,0.7,0.4,1h-2c-0.1-0.1-0.1-0.3-0.2-0.6
		c0-0.1-0.1-0.2-0.1-0.2c-0.4,0.3-0.7,0.6-1.1,0.8c-0.4,0.2-0.8,0.3-1.3,0.3c-0.8,0-1.4-0.2-1.9-0.7c-0.5-0.4-0.7-1-0.7-1.6
		c0-0.4,0.1-0.8,0.3-1.2c0.2-0.3,0.5-0.6,0.9-0.8c0.4-0.2,0.9-0.3,1.6-0.5c1-0.2,1.6-0.3,2-0.5V286c0-0.4-0.1-0.7-0.3-0.8
		c-0.2-0.2-0.6-0.3-1.1-0.3c-0.4,0-0.7,0.1-0.9,0.2C163.5,285.2,163.3,285.5,163.2,285.8z M165.9,287.5c-0.3,0.1-0.7,0.2-1.3,0.3
		s-0.9,0.2-1.1,0.4c-0.3,0.2-0.4,0.4-0.4,0.7c0,0.3,0.1,0.5,0.3,0.7c0.2,0.2,0.5,0.3,0.8,0.3c0.4,0,0.7-0.1,1.1-0.4
		c0.2-0.2,0.4-0.4,0.5-0.7c0.1-0.2,0.1-0.5,0.1-1V287.5z"/>
	<path class="st5" d="M170,291.2v-10.7h2.1v10.7H170z"/>
	<path class="st5" d="M179.3,291.2v-1.2c-0.3,0.4-0.7,0.7-1.1,1c-0.5,0.2-0.9,0.4-1.5,0.4c-0.5,0-1-0.1-1.4-0.3
		c-0.4-0.2-0.7-0.6-0.9-1s-0.3-1-0.3-1.7v-4.9h2.1v3.6c0,1.1,0,1.8,0.1,2c0.1,0.2,0.2,0.4,0.4,0.6c0.2,0.1,0.5,0.2,0.8,0.2
		c0.4,0,0.7-0.1,0.9-0.3c0.3-0.2,0.5-0.4,0.6-0.7c0.1-0.3,0.2-1,0.2-2.1v-3.3h2.1v7.8H179.3z"/>
	<path class="st5" d="M184.9,285.8l-1.9-0.3c0.2-0.8,0.6-1.3,1.1-1.7s1.3-0.5,2.3-0.5c0.9,0,1.6,0.1,2.1,0.3
		c0.4,0.2,0.8,0.5,0.9,0.8c0.2,0.3,0.3,0.9,0.3,1.8l0,2.4c0,0.7,0,1.2,0.1,1.5c0.1,0.3,0.2,0.7,0.4,1h-2c-0.1-0.1-0.1-0.3-0.2-0.6
		c0-0.1-0.1-0.2-0.1-0.2c-0.4,0.3-0.7,0.6-1.1,0.8c-0.4,0.2-0.8,0.3-1.3,0.3c-0.8,0-1.4-0.2-1.9-0.7c-0.5-0.4-0.7-1-0.7-1.6
		c0-0.4,0.1-0.8,0.3-1.2c0.2-0.3,0.5-0.6,0.9-0.8c0.4-0.2,0.9-0.3,1.6-0.5c1-0.2,1.6-0.3,2-0.5V286c0-0.4-0.1-0.7-0.3-0.8
		c-0.2-0.2-0.6-0.3-1.1-0.3c-0.4,0-0.7,0.1-0.9,0.2C185.1,285.2,185,285.5,184.9,285.8z M187.6,287.5c-0.3,0.1-0.7,0.2-1.3,0.3
		s-0.9,0.2-1.1,0.4c-0.3,0.2-0.4,0.4-0.4,0.7c0,0.3,0.1,0.5,0.3,0.7c0.2,0.2,0.5,0.3,0.8,0.3c0.4,0,0.7-0.1,1.1-0.4
		c0.2-0.2,0.4-0.4,0.5-0.7c0.1-0.2,0.1-0.5,0.1-1V287.5z"/>
	<path class="st5" d="M198.4,285.8l-2,0.4c-0.1-0.4-0.2-0.7-0.5-0.9c-0.2-0.2-0.6-0.3-0.9-0.3c-0.5,0-0.9,0.2-1.2,0.5
		c-0.3,0.4-0.5,0.9-0.5,1.8c0,0.9,0.2,1.6,0.5,2c0.3,0.4,0.7,0.6,1.2,0.6c0.4,0,0.7-0.1,1-0.3c0.2-0.2,0.4-0.6,0.5-1.1l2,0.3
		c-0.2,0.9-0.6,1.6-1.2,2.1c-0.6,0.5-1.4,0.7-2.4,0.7c-1.1,0-2-0.4-2.7-1.1c-0.7-0.7-1-1.7-1-3c0-1.3,0.3-2.3,1-3
		c0.7-0.7,1.6-1.1,2.8-1.1c0.9,0,1.7,0.2,2.3,0.6C197.8,284.3,198.2,284.9,198.4,285.8z"/>
	<path class="st5" d="M200,282.4v-1.9h2.1v1.9H200z M200,291.2v-7.8h2.1v7.8H200z"/>
	<path class="st5" d="M203.7,287.2c0-0.7,0.2-1.3,0.5-2c0.3-0.6,0.8-1.1,1.4-1.5c0.6-0.3,1.3-0.5,2.1-0.5c1.2,0,2.1,0.4,2.9,1.1
		c0.8,0.8,1.1,1.7,1.1,2.9c0,1.2-0.4,2.2-1.1,2.9c-0.8,0.8-1.7,1.2-2.9,1.2c-0.7,0-1.4-0.2-2-0.5c-0.6-0.3-1.1-0.8-1.5-1.4
		C203.9,288.9,203.7,288.1,203.7,287.2z M205.8,287.3c0,0.8,0.2,1.4,0.5,1.8c0.4,0.4,0.8,0.6,1.4,0.6s1-0.2,1.4-0.6
		c0.4-0.4,0.5-1,0.5-1.8c0-0.8-0.2-1.3-0.5-1.8c-0.4-0.4-0.8-0.6-1.4-0.6s-1,0.2-1.4,0.6C206,286,205.8,286.6,205.8,287.3z
		 M206.7,282.5l1-2.2h2.3l-2,2.2H206.7z"/>
	<path class="st5" d="M220.4,291.2h-2.1v-4c0-0.8,0-1.4-0.1-1.6c-0.1-0.2-0.2-0.4-0.4-0.6c-0.2-0.1-0.4-0.2-0.7-0.2
		c-0.4,0-0.7,0.1-1,0.3s-0.5,0.5-0.6,0.8c-0.1,0.3-0.2,0.9-0.2,1.8v3.5h-2.1v-7.8h1.9v1.1c0.7-0.9,1.5-1.3,2.6-1.3
		c0.5,0,0.9,0.1,1.2,0.2c0.4,0.2,0.7,0.4,0.9,0.6c0.2,0.3,0.3,0.5,0.4,0.9c0.1,0.3,0.1,0.8,0.1,1.4V291.2z"/>
	<path class="st5" d="M39.6,301.5h1.9v1.1c0.2-0.4,0.6-0.7,1-1s0.9-0.4,1.4-0.4c0.9,0,1.7,0.4,2.3,1.1c0.6,0.7,0.9,1.7,0.9,3
		c0,1.3-0.3,2.3-1,3c-0.6,0.7-1.4,1.1-2.3,1.1c-0.4,0-0.8-0.1-1.2-0.3c-0.3-0.2-0.7-0.5-1.1-0.9v3.9h-2.1V301.5z M41.6,305.2
		c0,0.9,0.2,1.5,0.5,1.9c0.3,0.4,0.8,0.6,1.3,0.6c0.5,0,0.9-0.2,1.2-0.6c0.3-0.4,0.5-1,0.5-1.9c0-0.8-0.2-1.4-0.5-1.8
		c-0.3-0.4-0.7-0.6-1.2-0.6c-0.5,0-0.9,0.2-1.3,0.6C41.8,303.9,41.6,304.4,41.6,305.2z"/>
	<path class="st5" d="M48.1,307l2.1-0.3c0.1,0.4,0.3,0.7,0.5,0.9c0.3,0.2,0.6,0.3,1.1,0.3c0.5,0,0.9-0.1,1.2-0.3
		c0.2-0.1,0.3-0.3,0.3-0.5c0-0.2,0-0.3-0.1-0.4c-0.1-0.1-0.3-0.2-0.7-0.3c-1.7-0.4-2.7-0.7-3.2-1c-0.6-0.4-0.9-1-0.9-1.8
		c0-0.7,0.3-1.2,0.8-1.7s1.4-0.7,2.5-0.7c1.1,0,1.9,0.2,2.4,0.5s0.9,0.9,1.1,1.5l-1.9,0.4c-0.1-0.3-0.2-0.5-0.5-0.7
		c-0.2-0.2-0.6-0.2-1-0.2c-0.5,0-0.9,0.1-1.2,0.2c-0.2,0.1-0.2,0.2-0.2,0.4c0,0.1,0.1,0.3,0.2,0.4c0.2,0.1,0.8,0.3,1.9,0.6
		c1.1,0.2,1.9,0.6,2.3,0.9c0.4,0.4,0.6,0.9,0.6,1.5c0,0.7-0.3,1.3-0.9,1.8c-0.6,0.5-1.5,0.8-2.6,0.8c-1.1,0-1.9-0.2-2.5-0.6
		C48.7,308.3,48.3,307.8,48.1,307z"/>
	<path class="st5" d="M57.2,300.4v-1.9h2.1v1.9H57.2z M57.2,309.2v-7.8h2.1v7.8H57.2z"/>
	<path class="st5" d="M68.1,303.8l-2,0.4c-0.1-0.4-0.2-0.7-0.5-0.9c-0.2-0.2-0.6-0.3-0.9-0.3c-0.5,0-0.9,0.2-1.2,0.5
		c-0.3,0.4-0.5,0.9-0.5,1.8c0,0.9,0.2,1.6,0.5,2c0.3,0.4,0.7,0.6,1.2,0.6c0.4,0,0.7-0.1,1-0.3c0.2-0.2,0.4-0.6,0.5-1.1l2,0.3
		c-0.2,0.9-0.6,1.6-1.2,2.1c-0.6,0.5-1.4,0.7-2.4,0.7c-1.1,0-2-0.4-2.7-1.1c-0.7-0.7-1-1.7-1-3c0-1.3,0.3-2.3,1-3
		c0.7-0.7,1.6-1.1,2.8-1.1c0.9,0,1.7,0.2,2.3,0.6C67.5,302.3,67.9,302.9,68.1,303.8z"/>
	<path class="st5" d="M69.2,305.2c0-0.7,0.2-1.3,0.5-2c0.3-0.6,0.8-1.1,1.4-1.5c0.6-0.3,1.3-0.5,2.1-0.5c1.2,0,2.1,0.4,2.9,1.1
		c0.8,0.8,1.1,1.7,1.1,2.9c0,1.2-0.4,2.2-1.1,2.9c-0.8,0.8-1.7,1.2-2.9,1.2c-0.7,0-1.4-0.2-2-0.5c-0.6-0.3-1.1-0.8-1.5-1.4
		C69.4,306.9,69.2,306.1,69.2,305.2z M71.3,305.3c0,0.8,0.2,1.4,0.5,1.8s0.8,0.6,1.4,0.6s1-0.2,1.4-0.6c0.4-0.4,0.5-1,0.5-1.8
		c0-0.8-0.2-1.3-0.5-1.8c-0.4-0.4-0.8-0.6-1.4-0.6s-1,0.2-1.4,0.6S71.3,304.6,71.3,305.3z"/>
	<path class="st5" d="M78.8,309.2v-10.7h2.1v10.7H78.8z"/>
	<path class="st5" d="M82.5,305.2c0-0.7,0.2-1.3,0.5-2c0.3-0.6,0.8-1.1,1.4-1.5c0.6-0.3,1.3-0.5,2.1-0.5c1.2,0,2.1,0.4,2.9,1.1
		c0.8,0.8,1.1,1.7,1.1,2.9c0,1.2-0.4,2.2-1.1,2.9c-0.8,0.8-1.7,1.2-2.9,1.2c-0.7,0-1.4-0.2-2-0.5c-0.6-0.3-1.1-0.8-1.5-1.4
		C82.7,306.9,82.5,306.1,82.5,305.2z M84.6,305.3c0,0.8,0.2,1.4,0.5,1.8s0.8,0.6,1.4,0.6s1-0.2,1.4-0.6c0.4-0.4,0.5-1,0.5-1.8
		c0-0.8-0.2-1.3-0.5-1.8c-0.4-0.4-0.8-0.6-1.4-0.6s-1,0.2-1.4,0.6S84.6,304.6,84.6,305.3z M85.5,300.5l1-2.2h2.3l-2,2.2H85.5z"/>
	<path class="st5" d="M92,309.7l2.4,0.3c0,0.3,0.1,0.5,0.3,0.6c0.2,0.1,0.5,0.2,0.9,0.2c0.5,0,0.9-0.1,1.2-0.2
		c0.2-0.1,0.3-0.3,0.4-0.5c0.1-0.2,0.1-0.5,0.1-0.9V308c-0.6,0.8-1.4,1.3-2.3,1.3c-1,0-1.9-0.4-2.5-1.3c-0.5-0.7-0.7-1.6-0.7-2.6
		c0-1.3,0.3-2.3,0.9-3c0.6-0.7,1.4-1,2.3-1c1,0,1.8,0.4,2.4,1.3v-1.1h1.9v7c0,0.9-0.1,1.6-0.2,2.1s-0.4,0.8-0.6,1.1
		s-0.6,0.5-1.1,0.6c-0.5,0.1-1,0.2-1.7,0.2c-1.3,0-2.3-0.2-2.8-0.7c-0.6-0.5-0.8-1-0.8-1.7C92,309.9,92,309.8,92,309.7z M93.8,305.2
		c0,0.8,0.2,1.4,0.5,1.8c0.3,0.4,0.7,0.6,1.2,0.6c0.5,0,0.9-0.2,1.3-0.6c0.3-0.4,0.5-1,0.5-1.7c0-0.8-0.2-1.4-0.5-1.8
		s-0.8-0.6-1.3-0.6c-0.5,0-0.9,0.2-1.2,0.6C94,303.8,93.8,304.4,93.8,305.2z"/>
	<path class="st5" d="M101.3,300.4v-1.9h2.1v1.9H101.3z M101.3,309.2v-7.8h2.1v7.8H101.3z"/>
	<path class="st5" d="M112.3,303.8l-2,0.4c-0.1-0.4-0.2-0.7-0.5-0.9c-0.2-0.2-0.6-0.3-0.9-0.3c-0.5,0-0.9,0.2-1.2,0.5
		c-0.3,0.4-0.5,0.9-0.5,1.8c0,0.9,0.2,1.6,0.5,2c0.3,0.4,0.7,0.6,1.2,0.6c0.4,0,0.7-0.1,1-0.3c0.2-0.2,0.4-0.6,0.5-1.1l2,0.3
		c-0.2,0.9-0.6,1.6-1.2,2.1c-0.6,0.5-1.4,0.7-2.4,0.7c-1.1,0-2-0.4-2.7-1.1c-0.7-0.7-1-1.7-1-3c0-1.3,0.3-2.3,1-3
		c0.7-0.7,1.6-1.1,2.8-1.1c0.9,0,1.7,0.2,2.3,0.6C111.6,302.3,112,302.9,112.3,303.8z"/>
	<path class="st5" d="M115.4,303.8l-1.9-0.3c0.2-0.8,0.6-1.3,1.1-1.7s1.3-0.5,2.3-0.5c0.9,0,1.6,0.1,2.1,0.3
		c0.4,0.2,0.8,0.5,0.9,0.8c0.2,0.3,0.3,0.9,0.3,1.8l0,2.4c0,0.7,0,1.2,0.1,1.5c0.1,0.3,0.2,0.7,0.4,1h-2c-0.1-0.1-0.1-0.3-0.2-0.6
		c0-0.1-0.1-0.2-0.1-0.2c-0.4,0.3-0.7,0.6-1.1,0.8c-0.4,0.2-0.8,0.3-1.3,0.3c-0.8,0-1.4-0.2-1.9-0.7c-0.5-0.4-0.7-1-0.7-1.6
		c0-0.4,0.1-0.8,0.3-1.2c0.2-0.3,0.5-0.6,0.9-0.8c0.4-0.2,0.9-0.3,1.6-0.5c1-0.2,1.6-0.3,2-0.5V304c0-0.4-0.1-0.7-0.3-0.8
		c-0.2-0.2-0.6-0.3-1.1-0.3c-0.4,0-0.7,0.1-0.9,0.2C115.7,303.2,115.5,303.5,115.4,303.8z M118.1,305.5c-0.3,0.1-0.7,0.2-1.3,0.3
		s-0.9,0.2-1.1,0.4c-0.3,0.2-0.4,0.4-0.4,0.7c0,0.3,0.1,0.5,0.3,0.7c0.2,0.2,0.5,0.3,0.8,0.3c0.4,0,0.7-0.1,1.1-0.4
		c0.2-0.2,0.4-0.4,0.5-0.7c0.1-0.2,0.1-0.5,0.1-1V305.5z"/>
	<path class="st5" d="M136.6,309.2h-1.9v-1.1c-0.3,0.4-0.7,0.8-1.1,1c-0.4,0.2-0.9,0.3-1.3,0.3c-0.9,0-1.7-0.4-2.3-1.1
		c-0.6-0.7-1-1.7-1-3c0-1.3,0.3-2.3,0.9-3c0.6-0.7,1.4-1,2.4-1c0.9,0,1.6,0.4,2.3,1.1v-3.9h2.1V309.2z M131.1,305.2
		c0,0.8,0.1,1.4,0.3,1.8c0.3,0.5,0.8,0.8,1.4,0.8c0.5,0,0.9-0.2,1.2-0.6c0.3-0.4,0.5-1,0.5-1.8c0-0.9-0.2-1.5-0.5-1.9
		c-0.3-0.4-0.7-0.6-1.2-0.6c-0.5,0-0.9,0.2-1.2,0.6C131.3,303.8,131.1,304.4,131.1,305.2z"/>
	<path class="st5" d="M143.2,306.8l2.1,0.3c-0.3,0.8-0.7,1.3-1.2,1.7c-0.6,0.4-1.3,0.6-2.1,0.6c-1.4,0-2.4-0.4-3-1.3
		c-0.5-0.7-0.8-1.6-0.8-2.7c0-1.3,0.3-2.3,1-3c0.7-0.7,1.5-1.1,2.6-1.1c1.2,0,2.1,0.4,2.7,1.1c0.7,0.8,1,1.9,1,3.5h-5.2
		c0,0.6,0.2,1.1,0.5,1.4c0.3,0.3,0.7,0.5,1.2,0.5c0.3,0,0.6-0.1,0.8-0.3S143,307.1,143.2,306.8z M143.3,304.7c0-0.6-0.2-1-0.5-1.4
		c-0.3-0.3-0.6-0.5-1.1-0.5c-0.5,0-0.8,0.2-1.1,0.5s-0.4,0.8-0.4,1.3H143.3z"/>
	<path class="st5" d="M163,309.2h-2.4l-0.9-2.4h-4.3l-0.9,2.4h-2.3l4.2-10.7h2.3L163,309.2z M159,305l-1.5-4l-1.5,4H159z"/>
	<path class="st5" d="M164.1,301.5h1.9v1.1c0.2-0.4,0.6-0.7,1-1c0.4-0.2,0.9-0.4,1.4-0.4c0.9,0,1.7,0.4,2.3,1.1
		c0.6,0.7,0.9,1.7,0.9,3c0,1.3-0.3,2.3-1,3c-0.6,0.7-1.4,1.1-2.3,1.1c-0.4,0-0.8-0.1-1.2-0.3c-0.3-0.2-0.7-0.5-1.1-0.9v3.9h-2.1
		V301.5z M166.1,305.2c0,0.9,0.2,1.5,0.5,1.9c0.3,0.4,0.8,0.6,1.3,0.6c0.5,0,0.9-0.2,1.2-0.6c0.3-0.4,0.5-1,0.5-1.9
		c0-0.8-0.2-1.4-0.5-1.8c-0.3-0.4-0.7-0.6-1.2-0.6c-0.5,0-0.9,0.2-1.3,0.6C166.3,303.9,166.1,304.4,166.1,305.2z"/>
	<path class="st5" d="M176.9,301.5v1.6h-1.4v3.1c0,0.6,0,1,0,1.1c0,0.1,0.1,0.2,0.2,0.3c0.1,0.1,0.2,0.1,0.3,0.1
		c0.2,0,0.5-0.1,0.8-0.2l0.2,1.6c-0.5,0.2-1,0.3-1.6,0.3c-0.4,0-0.7-0.1-1-0.2c-0.3-0.1-0.5-0.3-0.7-0.5c-0.1-0.2-0.2-0.5-0.3-0.8
		c0-0.2-0.1-0.7-0.1-1.4v-3.4h-0.9v-1.6h0.9v-1.5l2.1-1.2v2.7H176.9z"/>
	<path class="st5" d="M178.3,300.4v-1.9h2.1v1.9H178.3z M178.3,309.2v-7.8h2.1v7.8H178.3z"/>
	<path class="st5" d="M186.1,301.5v1.6h-1.4v3.1c0,0.6,0,1,0,1.1c0,0.1,0.1,0.2,0.2,0.3c0.1,0.1,0.2,0.1,0.3,0.1
		c0.2,0,0.5-0.1,0.8-0.2l0.2,1.6c-0.5,0.2-1,0.3-1.6,0.3c-0.4,0-0.7-0.1-1-0.2c-0.3-0.1-0.5-0.3-0.7-0.5c-0.1-0.2-0.2-0.5-0.3-0.8
		c0-0.2-0.1-0.7-0.1-1.4v-3.4h-0.9v-1.6h0.9v-1.5l2.1-1.2v2.7H186.1z"/>
	<path class="st5" d="M192.6,309.2v-1.2c-0.3,0.4-0.7,0.7-1.1,1c-0.5,0.2-0.9,0.4-1.5,0.4c-0.5,0-1-0.1-1.4-0.3
		c-0.4-0.2-0.7-0.6-0.9-1s-0.3-1-0.3-1.7v-4.9h2.1v3.6c0,1.1,0,1.8,0.1,2c0.1,0.2,0.2,0.4,0.4,0.6c0.2,0.1,0.5,0.2,0.8,0.2
		c0.4,0,0.7-0.1,0.9-0.3c0.3-0.2,0.5-0.4,0.6-0.7c0.1-0.3,0.2-1,0.2-2.1v-3.3h2.1v7.8H192.6z"/>
	<path class="st5" d="M203.8,309.2h-1.9v-1.1c-0.3,0.4-0.7,0.8-1.1,1c-0.4,0.2-0.9,0.3-1.3,0.3c-0.9,0-1.7-0.4-2.3-1.1
		c-0.6-0.7-1-1.7-1-3c0-1.3,0.3-2.3,0.9-3c0.6-0.7,1.4-1,2.4-1c0.9,0,1.6,0.4,2.3,1.1v-3.9h2.1V309.2z M198.3,305.2
		c0,0.8,0.1,1.4,0.3,1.8c0.3,0.5,0.8,0.8,1.4,0.8c0.5,0,0.9-0.2,1.2-0.6c0.3-0.4,0.5-1,0.5-1.8c0-0.9-0.2-1.5-0.5-1.9
		c-0.3-0.4-0.7-0.6-1.2-0.6c-0.5,0-0.9,0.2-1.2,0.6C198.5,303.8,198.3,304.4,198.3,305.2z"/>
	<path class="st5" d="M210.3,306.8l2.1,0.3c-0.3,0.8-0.7,1.3-1.2,1.7c-0.6,0.4-1.3,0.6-2.1,0.6c-1.4,0-2.4-0.4-3-1.3
		c-0.5-0.7-0.8-1.6-0.8-2.7c0-1.3,0.3-2.3,1-3c0.7-0.7,1.5-1.1,2.6-1.1c1.2,0,2.1,0.4,2.7,1.1c0.7,0.8,1,1.9,1,3.5h-5.2
		c0,0.6,0.2,1.1,0.5,1.4c0.3,0.3,0.7,0.5,1.2,0.5c0.3,0,0.6-0.1,0.8-0.3S210.2,307.1,210.3,306.8z M210.4,304.7c0-0.6-0.2-1-0.5-1.4
		c-0.3-0.3-0.6-0.5-1.1-0.5c-0.5,0-0.8,0.2-1.1,0.5s-0.4,0.8-0.4,1.3H210.4z"/>
	<path class="st5" d="M213.4,307l2.1-0.3c0.1,0.4,0.3,0.7,0.5,0.9c0.3,0.2,0.6,0.3,1.1,0.3c0.5,0,0.9-0.1,1.2-0.3
		c0.2-0.1,0.3-0.3,0.3-0.5c0-0.2,0-0.3-0.1-0.4c-0.1-0.1-0.3-0.2-0.7-0.3c-1.7-0.4-2.7-0.7-3.2-1c-0.6-0.4-0.9-1-0.9-1.8
		c0-0.7,0.3-1.2,0.8-1.7s1.4-0.7,2.5-0.7c1.1,0,1.9,0.2,2.4,0.5s0.9,0.9,1.1,1.5l-1.9,0.4c-0.1-0.3-0.2-0.5-0.5-0.7
		c-0.2-0.2-0.6-0.2-1-0.2c-0.5,0-0.9,0.1-1.2,0.2c-0.2,0.1-0.2,0.2-0.2,0.4c0,0.1,0.1,0.3,0.2,0.4c0.2,0.1,0.8,0.3,1.9,0.6
		c1.1,0.2,1.9,0.6,2.3,0.9c0.4,0.4,0.6,0.9,0.6,1.5c0,0.7-0.3,1.3-0.9,1.8c-0.6,0.5-1.5,0.8-2.6,0.8c-1.1,0-1.9-0.2-2.5-0.6
		C214,308.3,213.6,307.8,213.4,307z"/>
	<path class="st5" d="M39.6,327.2v-10.7h2.2v10.7H39.6z"/>
	<path class="st5" d="M50.9,327.2h-2.1v-4c0-0.8,0-1.4-0.1-1.6c-0.1-0.2-0.2-0.4-0.4-0.6c-0.2-0.1-0.4-0.2-0.7-0.2
		c-0.4,0-0.7,0.1-1,0.3s-0.5,0.5-0.6,0.8c-0.1,0.3-0.2,0.9-0.2,1.8v3.5h-2.1v-7.8h1.9v1.1c0.7-0.9,1.5-1.3,2.6-1.3
		c0.5,0,0.9,0.1,1.2,0.2c0.4,0.2,0.7,0.4,0.9,0.6c0.2,0.3,0.3,0.5,0.4,0.9c0.1,0.3,0.1,0.8,0.1,1.4V327.2z"/>
	<path class="st5" d="M56.6,319.5v1.6h-1.4v3.1c0,0.6,0,1,0,1.1c0,0.1,0.1,0.2,0.2,0.3c0.1,0.1,0.2,0.1,0.3,0.1
		c0.2,0,0.5-0.1,0.8-0.2l0.2,1.6c-0.5,0.2-1,0.3-1.6,0.3c-0.4,0-0.7-0.1-1-0.2c-0.3-0.1-0.5-0.3-0.7-0.5c-0.1-0.2-0.2-0.5-0.3-0.8
		c0-0.2-0.1-0.7-0.1-1.4v-3.4h-0.9v-1.6h0.9v-1.5l2.1-1.2v2.7H56.6z"/>
	<path class="st5" d="M62.5,324.8l2.1,0.3c-0.3,0.8-0.7,1.3-1.2,1.7c-0.6,0.4-1.3,0.6-2.1,0.6c-1.4,0-2.4-0.4-3-1.3
		c-0.5-0.7-0.8-1.6-0.8-2.7c0-1.3,0.3-2.3,1-3c0.7-0.7,1.5-1.1,2.6-1.1c1.2,0,2.1,0.4,2.7,1.1c0.7,0.8,1,1.9,1,3.5h-5.2
		c0,0.6,0.2,1.1,0.5,1.4c0.3,0.3,0.7,0.5,1.2,0.5c0.3,0,0.6-0.1,0.8-0.3S62.4,325.1,62.5,324.8z M62.6,322.7c0-0.6-0.2-1-0.5-1.4
		c-0.3-0.3-0.6-0.5-1.1-0.5c-0.4,0-0.8,0.2-1.1,0.5s-0.4,0.8-0.4,1.3H62.6z"/>
	<path class="st5" d="M66.3,327.2v-10.7h2.1v10.7H66.3z"/>
	<path class="st5" d="M75,324.8l2.1,0.3c-0.3,0.8-0.7,1.3-1.2,1.7c-0.6,0.4-1.3,0.6-2.1,0.6c-1.4,0-2.4-0.4-3-1.3
		c-0.5-0.7-0.8-1.6-0.8-2.7c0-1.3,0.3-2.3,1-3c0.7-0.7,1.5-1.1,2.6-1.1c1.2,0,2.1,0.4,2.7,1.1c0.7,0.8,1,1.9,1,3.5H72
		c0,0.6,0.2,1.1,0.5,1.4c0.3,0.3,0.7,0.5,1.2,0.5c0.3,0,0.6-0.1,0.8-0.3S74.9,325.1,75,324.8z M75.1,322.7c0-0.6-0.2-1-0.5-1.4
		c-0.3-0.3-0.6-0.5-1.1-0.5c-0.4,0-0.8,0.2-1.1,0.5s-0.4,0.8-0.4,1.3H75.1z"/>
	<path class="st5" d="M85.6,321.8l-2,0.4c-0.1-0.4-0.2-0.7-0.5-0.9c-0.2-0.2-0.6-0.3-0.9-0.3c-0.5,0-0.9,0.2-1.2,0.5
		c-0.3,0.4-0.5,0.9-0.5,1.8c0,0.9,0.2,1.6,0.5,2c0.3,0.4,0.7,0.6,1.2,0.6c0.4,0,0.7-0.1,1-0.3c0.2-0.2,0.4-0.6,0.5-1.1l2,0.3
		c-0.2,0.9-0.6,1.6-1.2,2.1c-0.6,0.5-1.4,0.7-2.4,0.7c-1.1,0-2-0.4-2.7-1.1c-0.7-0.7-1-1.7-1-3c0-1.3,0.3-2.3,1-3
		c0.7-0.7,1.6-1.1,2.8-1.1c0.9,0,1.7,0.2,2.3,0.6C85,320.3,85.4,320.9,85.6,321.8z"/>
	<path class="st5" d="M90.7,319.5v1.6h-1.4v3.1c0,0.6,0,1,0,1.1c0,0.1,0.1,0.2,0.2,0.3c0.1,0.1,0.2,0.1,0.3,0.1
		c0.2,0,0.5-0.1,0.8-0.2l0.2,1.6c-0.5,0.2-1,0.3-1.6,0.3c-0.4,0-0.7-0.1-1-0.2c-0.3-0.1-0.5-0.3-0.7-0.5c-0.1-0.2-0.2-0.5-0.3-0.8
		c0-0.2-0.1-0.7-0.1-1.4v-3.4h-0.9v-1.6h0.9v-1.5l2.1-1.2v2.7H90.7z"/>
	<path class="st5" d="M97.3,327.2v-1.2c-0.3,0.4-0.7,0.7-1.1,1c-0.5,0.2-0.9,0.4-1.5,0.4c-0.5,0-1-0.1-1.4-0.3
		c-0.4-0.2-0.7-0.6-0.9-1s-0.3-1-0.3-1.7v-4.9h2.1v3.6c0,1.1,0,1.8,0.1,2c0.1,0.2,0.2,0.4,0.4,0.6c0.2,0.1,0.5,0.2,0.8,0.2
		c0.4,0,0.7-0.1,0.9-0.3c0.3-0.2,0.5-0.4,0.6-0.7c0.1-0.3,0.2-1,0.2-2.1v-3.3h2.1v7.8H97.3z"/>
	<path class="st5" d="M102.9,321.8l-1.9-0.3c0.2-0.8,0.6-1.3,1.1-1.7s1.3-0.5,2.3-0.5c0.9,0,1.6,0.1,2.1,0.3
		c0.4,0.2,0.8,0.5,0.9,0.8c0.2,0.3,0.3,0.9,0.3,1.8l0,2.4c0,0.7,0,1.2,0.1,1.5c0.1,0.3,0.2,0.7,0.4,1h-2c-0.1-0.1-0.1-0.3-0.2-0.6
		c0-0.1-0.1-0.2-0.1-0.2c-0.4,0.3-0.7,0.6-1.1,0.8c-0.4,0.2-0.8,0.3-1.3,0.3c-0.8,0-1.4-0.2-1.9-0.7c-0.5-0.4-0.7-1-0.7-1.6
		c0-0.4,0.1-0.8,0.3-1.2c0.2-0.3,0.5-0.6,0.9-0.8c0.4-0.2,0.9-0.3,1.6-0.5c1-0.2,1.6-0.3,2-0.5V322c0-0.4-0.1-0.7-0.3-0.8
		c-0.2-0.2-0.6-0.3-1.1-0.3c-0.4,0-0.7,0.1-0.9,0.2C103.2,321.2,103,321.5,102.9,321.8z M105.6,323.5c-0.3,0.1-0.7,0.2-1.3,0.3
		s-0.9,0.2-1.1,0.4c-0.3,0.2-0.4,0.4-0.4,0.7c0,0.3,0.1,0.5,0.3,0.7c0.2,0.2,0.5,0.3,0.8,0.3c0.4,0,0.7-0.1,1.1-0.4
		c0.2-0.2,0.4-0.4,0.5-0.7c0.1-0.2,0.1-0.5,0.1-1V323.5z"/>
	<path class="st5" d="M109.7,327.2v-10.7h2.1v10.7H109.7z"/>
	<path class="st5" d="M118.3,324.8l2.1,0.3c-0.3,0.8-0.7,1.3-1.2,1.7c-0.6,0.4-1.3,0.6-2.1,0.6c-1.4,0-2.4-0.4-3-1.3
		c-0.5-0.7-0.8-1.6-0.8-2.7c0-1.3,0.3-2.3,1-3c0.7-0.7,1.5-1.1,2.6-1.1c1.2,0,2.1,0.4,2.7,1.1c0.7,0.8,1,1.9,1,3.5h-5.2
		c0,0.6,0.2,1.1,0.5,1.4c0.3,0.3,0.7,0.5,1.2,0.5c0.3,0,0.6-0.1,0.8-0.3S118.2,325.1,118.3,324.8z M118.5,322.7c0-0.6-0.2-1-0.5-1.4
		c-0.3-0.3-0.6-0.5-1.1-0.5c-0.4,0-0.8,0.2-1.1,0.5s-0.4,0.8-0.4,1.3H118.5z"/>
	<path class="st5" d="M121.5,325l2.1-0.3c0.1,0.4,0.3,0.7,0.5,0.9c0.3,0.2,0.6,0.3,1.1,0.3c0.5,0,0.9-0.1,1.2-0.3
		c0.2-0.1,0.3-0.3,0.3-0.5c0-0.2,0-0.3-0.1-0.4c-0.1-0.1-0.3-0.2-0.7-0.3c-1.7-0.4-2.7-0.7-3.2-1c-0.6-0.4-0.9-1-0.9-1.8
		c0-0.7,0.3-1.2,0.8-1.7s1.4-0.7,2.5-0.7c1.1,0,1.9,0.2,2.4,0.5s0.9,0.9,1.1,1.5l-1.9,0.4c-0.1-0.3-0.2-0.5-0.5-0.7
		c-0.2-0.2-0.6-0.2-1-0.2c-0.5,0-0.9,0.1-1.2,0.2c-0.2,0.1-0.2,0.2-0.2,0.4c0,0.1,0.1,0.3,0.2,0.4c0.2,0.1,0.8,0.3,1.9,0.6
		c1.1,0.2,1.9,0.6,2.3,0.9c0.4,0.4,0.6,0.9,0.6,1.5c0,0.7-0.3,1.3-0.9,1.8c-0.6,0.5-1.5,0.8-2.6,0.8c-1.1,0-1.9-0.2-2.5-0.6
		C122.1,326.3,121.7,325.8,121.5,325z"/>
	<path class="st5" d="M130.5,327.2v-2.1h2.1v2.1H130.5z"/>
</g>
<g id="Capa_1-2_00000125569997936050136840000016562530603642538419_">
	<path class="st5" d="M121.1,382c1.1,0.9,2.3,0.1,3.5,0.5c-0.2,0.4-0.4,0.7-0.7,0.9c-1.1,1.1-2.4,1.4-3.9,1.4
		c-0.2,0-0.4-0.3-0.4-0.4c0-0.5-0.3-0.5-0.6-0.6c-0.7-0.2-1.4-0.3-2-0.6c-0.8-0.5-1.7-0.6-2.6-0.6c-0.4,0-0.8,0-1.2,0
		c0.1-0.6,0.1-1.2,0.2-1.7c0.1-0.6,0-1.1-0.2-1.7c-0.3-0.8-0.4-1.6-0.4-2.4c0-0.6-0.1-1-0.9-0.8c0.1-0.6,0.2-1,0.3-1.5
		c0.3-1.3,1.2-2.2,2.2-2.9c0.2-0.1,0.5-0.1,0.7-0.1c0,0.2,0,0.4,0,0.6c0,0.6-0.1,1.2-0.2,1.8c-0.1,0.4-0.1,0.8-0.4,1.1
		c-0.6,0.9,0.2,3.2,1.2,3.4c0.1,0,0.3,0,0.4-0.1c2.5-2,5-4,7.5-6c-0.3-0.3-0.6-0.6-0.9-0.9c-0.5,0.3-0.9,1-1.6,0.4
		c-0.5-0.5,0-1,0.4-1.4c-0.4-0.4-0.6-0.7-1.3-0.6c-1.1,0.2-2.1-0.6-2.3-1.7c-0.2-0.9,0.4-1.8,1.3-2c1.2-0.4,2.7,0.7,2.6,2
		c-0.1,0.8,0.4,1,0.8,1.3c0.4-0.3,0.9-0.9,1.4-0.3c0.4,0.4,0.2,0.9-0.2,1.3c1.3,1.2,0.9,1.2,2.3-0.1c-0.3-0.4-0.6-0.9-0.1-1.3
		c0.5-0.5,1,0,1.4,0.4c0.4-0.4,0.9-0.5,0.8-1.3c-0.1-1,0.9-2,1.9-2c1-0.1,1.8,0.5,2,1.5c0.2,1.2-0.9,2.5-2.3,2.3
		c-0.6-0.1-0.9,0.1-1.3,0.6c0.3,0.4,0.9,0.9,0.3,1.5c-0.6,0.6-1-0.1-1.5-0.4c-0.3,0.3-0.7,0.6-1.1,1c1.3,1,2.5,2,3.7,3
		c1.2,1,2.5,2,3.7,3c0.5,0.4,0.8,0.3,1.2-0.1c0.7-0.7,0.9-1.6,0.9-2.6c0-0.1,0-0.2-0.1-0.2c-0.7-0.6-0.5-1.4-0.6-2.1
		c0-0.4-0.1-0.7-0.1-1.1c0-0.2,0-0.4,0-0.7c0.2,0,0.5,0,0.7,0.2c1,0.7,1.8,1.6,2.2,2.8c0.1,0.5,0.2,1,0.3,1.5
		c-0.9,0.3-0.8,0.3-0.9,1.1c-0.1,0.9-0.5,1.8-0.6,2.7c-0.1,0.7,0,1.4,0.1,2c0,0.3,0.1,0.6,0.1,0.9c-0.8,0-1.5,0-2.2,0
		c-0.4,0-0.8,0.1-1.1,0.3c-0.8,0.5-1.7,0.9-2.6,0.9c-0.4,0-0.5,0.1-0.5,0.5c0,0.2-0.3,0.5-0.4,0.5c-1.5,0-3-0.3-4-1.5
		c-0.2-0.2-0.3-0.5-0.5-0.8c1.1-0.5,2.4,0.3,3.4-0.5c0.6,0.8,1.2,0.5,1.9,0.2c0.5-0.2,0.9-0.5,1.3-0.9c0.6-0.5,0.6-0.8,0-1.3
		c-1.3-1.2-2.7-2.4-4-3.6c-1.1-1-2.1-2-3.2-3c-1.8,1.7-3.6,3.3-5.4,5c-0.6,0.5-1.2,1.1-1.8,1.6c-0.5,0.5-0.5,0.8,0,1.2
		c0.5,0.4,1.1,0.8,1.7,1.1C120.1,382.6,120.8,382.9,121.1,382L121.1,382z M130.4,368.6c-0.1,0.1-0.2,0.2-0.3,0.3
		c0.8-0.2,1.2-0.6,1.1-1.1c-0.1-0.5-0.4-0.7-0.8-0.8c-0.5-0.1-0.9,0.3-1.1,1.1c0.1-0.1,0.2-0.2,0.4-0.4
		C129.9,368,130.1,368.3,130.4,368.6L130.4,368.6z M120,369c0.3-0.3,0.6-0.6,0.9-0.9c-0.3-0.7-0.6-1-1.1-0.9
		c-0.4,0.1-0.7,0.3-0.7,0.8C118.9,368.4,119.2,368.7,120,369L120,369z"/>
</g>
<circle class="st5" cx="30.8" cy="231.7" r="1.8"/>
<circle class="st5" cx="30.8" cy="285.7" r="1.8"/>
</svg>
