<?xml version="1.0" encoding="utf-8"?>
<!-- Generator: Adobe Illustrator 27.5.0, SVG Export Plug-In . SVG Version: 6.00 Build 0)  -->
<svg version="1.1" id="Capa_1" xmlns="http://www.w3.org/2000/svg" xmlns:xlink="http://www.w3.org/1999/xlink" x="0px" y="0px"
	 viewBox="0 0 250.2 438.8" style="enable-background:new 0 0 250.2 438.8;" xml:space="preserve">
<style type="text/css">
	.st0{fill:#FFFFFF;}
	.st1{fill:#914B96;}
	.st2{fill:#F89E41;}
	.st3{fill:#4BBCB6;}
	.st4{fill:#ED8242;}
	.st5{fill:#0B75A4;}
	.st6{fill:none;stroke:#0B75A4;stroke-width:2;stroke-miterlimit:10;}
	.st7{fill:#CC405E;}
</style>
<g>
	<image style="overflow:visible;" width="282" height="471" xlink:href="E384936E.png"  transform="matrix(1 0 0 1 -18 -14.17)">
	</image>
</g>
<path class="st0" d="M206.1,418.5H44.1c-13.1,0-23.8-10.7-23.8-23.8V44.1C20.3,31,31,20.3,44.1,20.3h161.9
	c13.1,0,23.8,10.7,23.8,23.8v350.5C229.9,407.8,219.2,418.5,206.1,418.5z"/>
<rect x="20.3" y="83.4" class="st7" width="209.5" height="42.4"/>
<g>
	<path class="st0" d="M53.5,110.6V98.5H56v12.1H53.5z"/>
	<path class="st0" d="M58.3,110.6V98.5h2.4l4.9,8.1v-8.1h2.3v12.1h-2.4l-4.9-7.9v7.9H58.3z"/>
	<path class="st0" d="M78.2,106.2l2.4,0.8c-0.4,1.3-1,2.3-1.8,2.9c-0.8,0.6-1.9,1-3.2,1c-1.6,0-2.9-0.5-4-1.6s-1.5-2.6-1.5-4.5
		c0-2,0.5-3.6,1.6-4.7s2.4-1.7,4.1-1.7c1.5,0,2.7,0.4,3.6,1.3c0.6,0.5,1,1.3,1.2,2.2l-2.4,0.6c-0.1-0.6-0.4-1.1-0.9-1.5
		c-0.5-0.4-1-0.5-1.7-0.5c-0.9,0-1.6,0.3-2.2,1s-0.8,1.7-0.8,3.1c0,1.5,0.3,2.6,0.8,3.3c0.5,0.6,1.3,1,2.1,1c0.6,0,1.2-0.2,1.7-0.6
		C77.7,107.7,78,107.1,78.2,106.2z"/>
	<path class="st0" d="M82.2,104.7c0-1.2,0.2-2.3,0.6-3.1c0.3-0.6,0.6-1.2,1.1-1.7c0.5-0.5,1-0.9,1.6-1.1c0.8-0.3,1.6-0.5,2.6-0.5
		c1.8,0,3.2,0.6,4.3,1.7c1.1,1.1,1.6,2.6,1.6,4.6c0,2-0.5,3.5-1.6,4.6c-1.1,1.1-2.5,1.7-4.3,1.7c-1.8,0-3.2-0.5-4.3-1.6
		C82.7,108.1,82.2,106.6,82.2,104.7z M84.7,104.6c0,1.4,0.3,2.4,0.9,3.1c0.6,0.7,1.4,1.1,2.4,1.1c1,0,1.8-0.4,2.4-1.1
		c0.6-0.7,0.9-1.8,0.9-3.2c0-1.4-0.3-2.4-0.9-3.1c-0.6-0.7-1.4-1-2.4-1c-1,0-1.8,0.3-2.4,1S84.7,103.2,84.7,104.6z"/>
	<path class="st0" d="M95.8,110.6V98.5h5.1c1.3,0,2.2,0.1,2.8,0.3s1.1,0.6,1.4,1.2c0.4,0.6,0.5,1.2,0.5,1.9c0,0.9-0.3,1.7-0.8,2.2
		s-1.3,1-2.4,1.1c0.5,0.3,1,0.6,1.3,1c0.3,0.4,0.8,1,1.4,2l1.5,2.4h-2.9L102,108c-0.6-0.9-1.1-1.5-1.3-1.8c-0.2-0.2-0.5-0.4-0.7-0.5
		s-0.7-0.1-1.2-0.1h-0.5v5H95.8z M98.3,103.7h1.8c1.2,0,1.9,0,2.2-0.1c0.3-0.1,0.5-0.3,0.7-0.5c0.2-0.2,0.2-0.5,0.2-0.9
		c0-0.4-0.1-0.7-0.3-1c-0.2-0.2-0.5-0.4-0.9-0.5c-0.2,0-0.8,0-1.8,0h-1.9V103.7z"/>
	<path class="st0" d="M108,110.6V98.5h3.9c1.5,0,2.5,0.1,2.9,0.2c0.7,0.2,1.3,0.6,1.7,1.2s0.7,1.4,0.7,2.4c0,0.7-0.1,1.4-0.4,1.9
		c-0.3,0.5-0.6,0.9-1,1.2s-0.8,0.5-1.3,0.6c-0.6,0.1-1.4,0.2-2.5,0.2h-1.6v4.6H108z M110.5,100.6v3.4h1.3c1,0,1.6-0.1,1.9-0.2
		s0.6-0.3,0.8-0.6c0.2-0.3,0.3-0.6,0.3-0.9c0-0.4-0.1-0.8-0.4-1.1c-0.3-0.3-0.6-0.5-1-0.5c-0.3-0.1-0.9-0.1-1.8-0.1H110.5z"/>
	<path class="st0" d="M118.8,104.7c0-1.2,0.2-2.3,0.6-3.1c0.3-0.6,0.7-1.2,1.1-1.7s1-0.9,1.6-1.1c0.8-0.3,1.6-0.5,2.6-0.5
		c1.8,0,3.2,0.6,4.3,1.7c1.1,1.1,1.6,2.6,1.6,4.6c0,2-0.5,3.5-1.6,4.6c-1.1,1.1-2.5,1.7-4.3,1.7c-1.8,0-3.2-0.5-4.3-1.6
		S118.8,106.6,118.8,104.7z M121.3,104.6c0,1.4,0.3,2.4,0.9,3.1c0.6,0.7,1.4,1.1,2.4,1.1c1,0,1.8-0.4,2.4-1.1
		c0.6-0.7,0.9-1.8,0.9-3.2c0-1.4-0.3-2.4-0.9-3.1c-0.6-0.7-1.4-1-2.4-1c-1,0-1.8,0.3-2.4,1C121.6,102.1,121.3,103.2,121.3,104.6z"/>
	<path class="st0" d="M132.4,110.6V98.5h5.1c1.3,0,2.2,0.1,2.8,0.3c0.6,0.2,1.1,0.6,1.4,1.2c0.4,0.6,0.5,1.2,0.5,1.9
		c0,0.9-0.3,1.7-0.8,2.2s-1.3,1-2.4,1.1c0.5,0.3,1,0.6,1.3,1c0.3,0.4,0.8,1,1.4,2l1.5,2.4h-2.9l-1.8-2.6c-0.6-0.9-1.1-1.5-1.3-1.8
		s-0.5-0.4-0.7-0.5c-0.3-0.1-0.7-0.1-1.2-0.1h-0.5v5H132.4z M134.9,103.7h1.8c1.2,0,1.9,0,2.2-0.1c0.3-0.1,0.5-0.3,0.7-0.5
		c0.2-0.2,0.2-0.5,0.2-0.9c0-0.4-0.1-0.7-0.3-1c-0.2-0.2-0.5-0.4-0.9-0.5c-0.2,0-0.8,0-1.8,0h-1.9V103.7z"/>
	<path class="st0" d="M155.5,110.6h-2.7l-1.1-2.7H147l-1,2.7h-2.6l4.7-12.1h2.6L155.5,110.6z M151,105.9l-1.7-4.5l-1.6,4.5H151z"/>
	<path class="st0" d="M164.6,106.2l2.4,0.8c-0.4,1.3-1,2.3-1.8,2.9c-0.8,0.6-1.9,1-3.2,1c-1.6,0-2.9-0.5-4-1.6s-1.5-2.6-1.5-4.5
		c0-2,0.5-3.6,1.6-4.7s2.4-1.7,4.1-1.7c1.5,0,2.7,0.4,3.6,1.3c0.6,0.5,1,1.3,1.2,2.2l-2.4,0.6c-0.1-0.6-0.4-1.1-0.9-1.5
		c-0.5-0.4-1-0.5-1.7-0.5c-0.9,0-1.6,0.3-2.2,1s-0.8,1.7-0.8,3.1c0,1.5,0.3,2.6,0.8,3.3c0.5,0.6,1.3,1,2.1,1c0.6,0,1.2-0.2,1.7-0.6
		C164,107.7,164.4,107.1,164.6,106.2z"/>
	<path class="st0" d="M169,110.6V98.5h2.4v12.1H169z"/>
	<path class="st0" d="M173.2,104.7c0-1.2,0.2-2.3,0.6-3.1c0.3-0.6,0.6-1.2,1.1-1.7s1-0.9,1.6-1.1c0.8-0.3,1.6-0.5,2.6-0.5
		c1.8,0,3.2,0.6,4.3,1.7s1.6,2.6,1.6,4.6c0,2-0.5,3.5-1.6,4.6c-1.1,1.1-2.5,1.7-4.3,1.7c-1.8,0-3.2-0.5-4.3-1.6
		C173.8,108.1,173.2,106.6,173.2,104.7z M175.7,104.6c0,1.4,0.3,2.4,0.9,3.1c0.6,0.7,1.4,1.1,2.4,1.1s1.8-0.4,2.4-1.1
		c0.6-0.7,0.9-1.8,0.9-3.2c0-1.4-0.3-2.4-0.9-3.1c-0.6-0.7-1.4-1-2.4-1s-1.8,0.3-2.4,1C176,102.1,175.7,103.2,175.7,104.6z
		 M177.6,97.9l1.1-2.5h2.6l-2.3,2.5H177.6z"/>
	<path class="st0" d="M186.9,110.6V98.5h2.4l4.9,8.1v-8.1h2.3v12.1H194l-4.9-7.9v7.9H186.9z"/>
</g>
<path class="st7" d="M128.3,167l8-4.6l-8-4.6l-8,4.6L128.3,167z M128.3,173.1l5.5-3.2v-4.2l-5.5,3.2l-5.5-3.2v4.2L128.3,173.1z
	 M105.9,151.4h34c0.8,0,1.5,0.3,2.1,0.9c0.6,0.6,0.9,1.3,0.9,2.1v26c0,0.8-0.3,1.5-0.9,2.1s-1.3,0.9-2.1,0.9h-17v-3h17v-26h-34v8.8
	h-3v-8.8c0-0.8,0.3-1.5,0.9-2.1C104.4,151.7,105.1,151.4,105.9,151.4z M102.9,183.4h5c0-1.4-0.5-2.7-1.4-3.7s-2.2-1.5-3.6-1.5V183.4
	z M110.9,183.4h3c0-3.1-1.1-5.7-3.2-7.9c-2.1-2.2-4.7-3.3-7.8-3.3v3c2.2,0,4.1,0.8,5.7,2.4C110.1,179.2,110.9,181.1,110.9,183.4z
	 M102.9,166.2v3c2,0,3.8,0.4,5.5,1.1c1.7,0.7,3.2,1.8,4.4,3c1.2,1.3,2.2,2.8,3,4.5c0.7,1.7,1.1,3.6,1.1,5.5h3c0-2.4-0.4-4.6-1.3-6.7
	c-0.9-2.1-2.1-3.9-3.6-5.5c-1.5-1.6-3.3-2.8-5.4-3.7C107.4,166.7,105.2,166.2,102.9,166.2z"/>
<path class="st6" d="M206.1,418.5H44.1c-13.1,0-23.8-10.7-23.8-23.8V44.1C20.3,31,31,20.3,44.1,20.3h161.9
	c13.1,0,23.8,10.7,23.8,23.8v350.5C229.9,407.8,219.2,418.5,206.1,418.5z"/>
<circle class="st7" cx="125.1" cy="50.4" r="14.8"/>
<g>
	<path class="st0" d="M120,54.6l3-0.3c0.1,0.7,0.3,1.2,0.8,1.6c0.4,0.4,0.9,0.6,1.4,0.6c0.6,0,1.2-0.3,1.6-0.8
		c0.4-0.5,0.6-1.3,0.6-2.3c0-1-0.2-1.7-0.6-2.1c-0.4-0.5-1-0.7-1.7-0.7c-0.9,0-1.6,0.4-2.3,1.1l-2.4-0.4l1.5-8.1h7.9V46h-5.6
		l-0.5,2.6c0.7-0.3,1.3-0.5,2-0.5c1.3,0,2.4,0.5,3.4,1.4s1.4,2.2,1.4,3.7c0,1.3-0.4,2.4-1.1,3.4c-1,1.4-2.4,2.1-4.2,2.1
		c-1.4,0-2.6-0.4-3.5-1.2S120.2,55.9,120,54.6z"/>
</g>
<g id="Capa_1-2_00000162349383153367102090000004170188549332681117_">
	<path class="st5" d="M121.1,382c1.1,0.9,2.3,0.1,3.5,0.5c-0.2,0.4-0.4,0.7-0.7,0.9c-1.1,1.1-2.4,1.4-3.9,1.4
		c-0.2,0-0.4-0.3-0.4-0.4c0-0.5-0.3-0.5-0.6-0.6c-0.7-0.2-1.4-0.3-2-0.6c-0.8-0.5-1.7-0.6-2.6-0.6c-0.4,0-0.8,0-1.2,0
		c0.1-0.6,0.1-1.2,0.2-1.7c0.1-0.6,0-1.1-0.2-1.7c-0.3-0.8-0.4-1.6-0.4-2.4c0-0.6-0.1-1-0.9-0.8c0.1-0.6,0.2-1,0.3-1.5
		c0.3-1.3,1.2-2.2,2.2-2.9c0.2-0.1,0.5-0.1,0.7-0.1c0,0.2,0,0.4,0,0.6c0,0.6-0.1,1.2-0.2,1.8c-0.1,0.4-0.1,0.8-0.4,1.1
		c-0.6,0.9,0.2,3.2,1.2,3.4c0.1,0,0.3,0,0.4-0.1c2.5-2,5-4,7.5-6c-0.3-0.3-0.6-0.6-0.9-0.9c-0.5,0.3-0.9,1-1.6,0.4
		c-0.5-0.5,0-1,0.4-1.4c-0.4-0.4-0.6-0.7-1.3-0.6c-1.1,0.2-2.1-0.6-2.3-1.7c-0.2-0.9,0.4-1.8,1.3-2c1.2-0.4,2.7,0.7,2.6,2
		c-0.1,0.8,0.4,1,0.8,1.3c0.4-0.3,0.9-0.9,1.4-0.3c0.4,0.4,0.2,0.9-0.2,1.3c1.3,1.2,0.9,1.2,2.3-0.1c-0.3-0.4-0.6-0.9-0.1-1.3
		c0.5-0.5,1,0,1.4,0.4c0.4-0.4,0.9-0.5,0.8-1.3c-0.1-1,0.9-2,1.9-2c1-0.1,1.8,0.5,2,1.5c0.2,1.2-0.9,2.5-2.3,2.3
		c-0.6-0.1-0.9,0.1-1.3,0.6c0.3,0.4,0.9,0.9,0.3,1.5c-0.6,0.6-1-0.1-1.5-0.4c-0.3,0.3-0.7,0.6-1.1,1c1.3,1,2.5,2,3.7,3
		c1.2,1,2.5,2,3.7,3c0.5,0.4,0.8,0.3,1.2-0.1c0.7-0.7,0.9-1.6,0.9-2.6c0-0.1,0-0.2-0.1-0.2c-0.7-0.6-0.5-1.4-0.6-2.1
		c0-0.4-0.1-0.7-0.1-1.1c0-0.2,0-0.4,0-0.7c0.2,0,0.5,0,0.7,0.2c1,0.7,1.8,1.6,2.2,2.8c0.1,0.5,0.2,1,0.3,1.5
		c-0.9,0.3-0.8,0.3-0.9,1.1c-0.1,0.9-0.5,1.8-0.6,2.7c-0.1,0.7,0,1.4,0.1,2c0,0.3,0.1,0.6,0.1,0.9c-0.8,0-1.5,0-2.2,0
		c-0.4,0-0.8,0.1-1.1,0.3c-0.8,0.5-1.7,0.9-2.6,0.9c-0.4,0-0.5,0.1-0.5,0.5c0,0.2-0.3,0.5-0.4,0.5c-1.5,0-3-0.3-4-1.5
		c-0.2-0.2-0.3-0.5-0.5-0.8c1.1-0.5,2.4,0.3,3.4-0.5c0.6,0.8,1.2,0.5,1.9,0.2c0.5-0.2,0.9-0.5,1.3-0.9c0.6-0.5,0.6-0.8,0-1.3
		c-1.3-1.2-2.7-2.4-4-3.6c-1.1-1-2.1-2-3.2-3c-1.8,1.7-3.6,3.3-5.4,5c-0.6,0.5-1.2,1.1-1.8,1.6c-0.5,0.5-0.5,0.8,0,1.2
		c0.5,0.4,1.1,0.8,1.7,1.1C120.1,382.6,120.8,382.9,121.1,382L121.1,382z M130.4,368.6c-0.1,0.1-0.2,0.2-0.3,0.3
		c0.8-0.2,1.2-0.6,1.1-1.1c-0.1-0.5-0.4-0.7-0.8-0.8c-0.5-0.1-0.9,0.3-1.1,1.1c0.1-0.1,0.2-0.2,0.4-0.4
		C129.9,368,130.1,368.3,130.4,368.6L130.4,368.6z M120,369c0.3-0.3,0.6-0.6,0.9-0.9c-0.3-0.7-0.6-1-1.1-0.9
		c-0.4,0.1-0.7,0.3-0.7,0.8C118.9,368.4,119.2,368.7,120,369L120,369z"/>
</g>
<g>
	<path class="st5" d="M42.5,223.7v-9.2h1.9v7.7H49v1.6H42.5z"/>
	<path class="st5" d="M49.9,220.3c0-0.6,0.1-1.2,0.4-1.7s0.7-1,1.2-1.3c0.5-0.3,1.1-0.4,1.8-0.4c1,0,1.9,0.3,2.5,1
		c0.7,0.7,1,1.5,1,2.5c0,1-0.3,1.9-1,2.5c-0.7,0.7-1.5,1-2.5,1c-0.6,0-1.2-0.1-1.8-0.4c-0.6-0.3-1-0.7-1.3-1.2
		C50.1,221.7,49.9,221,49.9,220.3z M51.8,220.4c0,0.7,0.2,1.2,0.5,1.5s0.7,0.5,1.2,0.5c0.5,0,0.9-0.2,1.2-0.5
		c0.3-0.4,0.5-0.9,0.5-1.5c0-0.7-0.2-1.2-0.5-1.5c-0.3-0.4-0.7-0.5-1.2-0.5c-0.5,0-0.9,0.2-1.2,0.5S51.8,219.7,51.8,220.4z"/>
	<path class="st5" d="M57.7,221.8l1.8-0.3c0.1,0.3,0.2,0.6,0.5,0.8c0.2,0.2,0.6,0.3,1,0.3c0.5,0,0.8-0.1,1-0.3
		c0.2-0.1,0.2-0.3,0.2-0.5c0-0.1,0-0.2-0.1-0.3c-0.1-0.1-0.3-0.2-0.6-0.2c-1.4-0.3-2.4-0.6-2.7-0.9c-0.5-0.4-0.8-0.9-0.8-1.5
		c0-0.6,0.2-1.1,0.7-1.5c0.5-0.4,1.2-0.6,2.1-0.6c0.9,0,1.6,0.2,2.1,0.5c0.4,0.3,0.8,0.7,0.9,1.3l-1.7,0.3c-0.1-0.3-0.2-0.5-0.4-0.6
		s-0.5-0.2-0.9-0.2c-0.5,0-0.8,0.1-1,0.2c-0.1,0.1-0.2,0.2-0.2,0.4c0,0.1,0.1,0.2,0.2,0.3c0.2,0.1,0.7,0.3,1.7,0.5s1.6,0.5,2,0.8
		c0.4,0.3,0.6,0.8,0.6,1.3c0,0.6-0.3,1.1-0.8,1.6c-0.5,0.4-1.3,0.7-2.3,0.7c-0.9,0-1.6-0.2-2.2-0.6
		C58.2,222.9,57.8,222.4,57.7,221.8z"/>
	<path class="st5" d="M71.2,217h1.7v1c0.2-0.3,0.5-0.6,0.9-0.8s0.8-0.3,1.2-0.3c0.8,0,1.4,0.3,2,0.9s0.8,1.5,0.8,2.6
		c0,1.1-0.3,2-0.8,2.6c-0.6,0.6-1.2,0.9-2,0.9c-0.4,0-0.7-0.1-1-0.2c-0.3-0.1-0.6-0.4-1-0.8v3.4h-1.8V217z M72.9,220.2
		c0,0.8,0.2,1.3,0.5,1.7c0.3,0.4,0.7,0.5,1.1,0.5c0.4,0,0.8-0.2,1-0.5c0.3-0.3,0.4-0.9,0.4-1.6c0-0.7-0.1-1.2-0.4-1.6
		c-0.3-0.3-0.6-0.5-1.1-0.5c-0.4,0-0.8,0.2-1.1,0.5C73.1,219.1,72.9,219.6,72.9,220.2z"/>
	<path class="st5" d="M78.7,220.3c0-0.6,0.1-1.2,0.4-1.7s0.7-1,1.2-1.3c0.5-0.3,1.1-0.4,1.8-0.4c1,0,1.9,0.3,2.5,1
		c0.7,0.7,1,1.5,1,2.5c0,1-0.3,1.9-1,2.5c-0.7,0.7-1.5,1-2.5,1c-0.6,0-1.2-0.1-1.8-0.4c-0.6-0.3-1-0.7-1.3-1.2
		C78.9,221.7,78.7,221,78.7,220.3z M80.6,220.4c0,0.7,0.2,1.2,0.5,1.5s0.7,0.5,1.2,0.5c0.5,0,0.9-0.2,1.2-0.5
		c0.3-0.4,0.5-0.9,0.5-1.5c0-0.7-0.2-1.2-0.5-1.5c-0.3-0.4-0.7-0.5-1.2-0.5c-0.5,0-0.9,0.2-1.2,0.5S80.6,219.7,80.6,220.4z"/>
	<path class="st5" d="M86.5,221.8l1.8-0.3c0.1,0.3,0.2,0.6,0.5,0.8c0.2,0.2,0.6,0.3,1,0.3c0.5,0,0.8-0.1,1-0.3
		c0.2-0.1,0.2-0.3,0.2-0.5c0-0.1,0-0.2-0.1-0.3c-0.1-0.1-0.3-0.2-0.6-0.2c-1.4-0.3-2.4-0.6-2.7-0.9c-0.5-0.4-0.8-0.9-0.8-1.5
		c0-0.6,0.2-1.1,0.7-1.5c0.5-0.4,1.2-0.6,2.1-0.6c0.9,0,1.6,0.2,2.1,0.5c0.4,0.3,0.8,0.7,0.9,1.3l-1.7,0.3c-0.1-0.3-0.2-0.5-0.4-0.6
		c-0.2-0.1-0.5-0.2-0.9-0.2c-0.5,0-0.8,0.1-1,0.2c-0.1,0.1-0.2,0.2-0.2,0.4c0,0.1,0.1,0.2,0.2,0.3c0.2,0.1,0.7,0.3,1.7,0.5
		c1,0.2,1.6,0.5,2,0.8c0.4,0.3,0.6,0.8,0.6,1.3c0,0.6-0.3,1.1-0.8,1.6c-0.5,0.4-1.3,0.7-2.3,0.7c-0.9,0-1.6-0.2-2.2-0.6
		C87,222.9,86.6,222.4,86.5,221.8z"/>
	<path class="st5" d="M97.4,217v1.4h-1.2v2.7c0,0.6,0,0.9,0,1s0.1,0.2,0.2,0.2c0.1,0.1,0.2,0.1,0.3,0.1c0.2,0,0.4-0.1,0.7-0.2
		l0.2,1.4c-0.4,0.2-0.9,0.3-1.4,0.3c-0.3,0-0.6-0.1-0.9-0.2c-0.3-0.1-0.4-0.2-0.6-0.4c-0.1-0.2-0.2-0.4-0.2-0.7
		c0-0.2-0.1-0.6-0.1-1.3v-2.9h-0.8V217h0.8v-1.3l1.8-1v2.4H97.4z"/>
	<path class="st5" d="M103.1,223.7v-1c-0.2,0.4-0.6,0.6-1,0.9c-0.4,0.2-0.8,0.3-1.3,0.3c-0.5,0-0.9-0.1-1.2-0.3
		c-0.4-0.2-0.6-0.5-0.8-0.8c-0.2-0.4-0.2-0.9-0.2-1.5V217h1.8v3.1c0,0.9,0,1.5,0.1,1.7c0.1,0.2,0.2,0.4,0.4,0.5
		c0.2,0.1,0.4,0.2,0.7,0.2c0.3,0,0.6-0.1,0.8-0.3c0.2-0.2,0.4-0.4,0.5-0.6c0.1-0.2,0.1-0.9,0.1-1.8V217h1.8v6.7H103.1z"/>
	<path class="st5" d="M106.6,223.7v-9.3h1.8v9.3H106.6z"/>
	<path class="st5" d="M111.5,219l-1.6-0.3c0.2-0.7,0.5-1.1,0.9-1.4s1.1-0.5,2-0.5c0.8,0,1.4,0.1,1.8,0.3c0.4,0.2,0.7,0.4,0.8,0.7
		c0.2,0.3,0.2,0.8,0.2,1.6l0,2.1c0,0.6,0,1,0.1,1.3c0.1,0.3,0.2,0.6,0.3,0.9h-1.8c0-0.1-0.1-0.3-0.2-0.5c0-0.1-0.1-0.2-0.1-0.2
		c-0.3,0.3-0.6,0.5-1,0.7c-0.3,0.1-0.7,0.2-1.1,0.2c-0.7,0-1.2-0.2-1.6-0.6c-0.4-0.4-0.6-0.9-0.6-1.4c0-0.4,0.1-0.7,0.3-1
		c0.2-0.3,0.4-0.5,0.8-0.7c0.3-0.2,0.8-0.3,1.4-0.4c0.8-0.2,1.4-0.3,1.7-0.4v-0.2c0-0.3-0.1-0.6-0.3-0.7c-0.2-0.1-0.5-0.2-1-0.2
		c-0.3,0-0.6,0.1-0.7,0.2C111.8,218.5,111.7,218.7,111.5,219z M113.9,220.5c-0.2,0.1-0.6,0.2-1.1,0.3c-0.5,0.1-0.8,0.2-1,0.3
		c-0.2,0.2-0.3,0.4-0.3,0.6c0,0.2,0.1,0.5,0.3,0.6c0.2,0.2,0.4,0.3,0.7,0.3c0.3,0,0.6-0.1,0.9-0.3c0.2-0.2,0.4-0.4,0.4-0.6
		c0-0.2,0.1-0.4,0.1-0.9V220.5z"/>
	<path class="st5" d="M123.6,223.7h-1.8v-3.4c0-0.7,0-1.2-0.1-1.4c-0.1-0.2-0.2-0.4-0.4-0.5c-0.2-0.1-0.4-0.2-0.6-0.2
		c-0.3,0-0.6,0.1-0.8,0.3c-0.2,0.2-0.4,0.4-0.5,0.7s-0.1,0.8-0.1,1.5v3.1h-1.8V217h1.7v1c0.6-0.8,1.3-1.1,2.2-1.1
		c0.4,0,0.8,0.1,1.1,0.2c0.3,0.1,0.6,0.3,0.7,0.5c0.2,0.2,0.3,0.5,0.3,0.7s0.1,0.7,0.1,1.2V223.7z"/>
	<path class="st5" d="M128.5,217v1.4h-1.2v2.7c0,0.6,0,0.9,0,1s0.1,0.2,0.2,0.2c0.1,0.1,0.2,0.1,0.3,0.1c0.2,0,0.4-0.1,0.7-0.2
		l0.2,1.4c-0.4,0.2-0.9,0.3-1.4,0.3c-0.3,0-0.6-0.1-0.9-0.2c-0.3-0.1-0.4-0.2-0.6-0.4c-0.1-0.2-0.2-0.4-0.2-0.7
		c0-0.2-0.1-0.6-0.1-1.3v-2.9h-0.8V217h0.8v-1.3l1.8-1v2.4H128.5z"/>
	<path class="st5" d="M133.6,221.6l1.8,0.3c-0.2,0.7-0.6,1.1-1.1,1.5s-1.1,0.5-1.9,0.5c-1.2,0-2-0.4-2.6-1.1
		c-0.4-0.6-0.7-1.4-0.7-2.3c0-1.1,0.3-2,0.9-2.6c0.6-0.6,1.3-0.9,2.2-0.9c1,0,1.8,0.3,2.4,1c0.6,0.7,0.9,1.7,0.8,3H131
		c0,0.5,0.2,0.9,0.4,1.2c0.3,0.3,0.6,0.4,1,0.4c0.3,0,0.5-0.1,0.7-0.2S133.5,221.9,133.6,221.6z M133.7,219.8c0-0.5-0.1-0.9-0.4-1.2
		c-0.3-0.3-0.6-0.4-0.9-0.4c-0.4,0-0.7,0.1-1,0.4s-0.4,0.7-0.4,1.2H133.7z"/>
	<path class="st5" d="M136.3,221.8l1.8-0.3c0.1,0.3,0.2,0.6,0.5,0.8c0.2,0.2,0.6,0.3,1,0.3c0.5,0,0.8-0.1,1-0.3
		c0.2-0.1,0.2-0.3,0.2-0.5c0-0.1,0-0.2-0.1-0.3c-0.1-0.1-0.3-0.2-0.6-0.2c-1.4-0.3-2.4-0.6-2.7-0.9c-0.5-0.4-0.8-0.9-0.8-1.5
		c0-0.6,0.2-1.1,0.7-1.5s1.2-0.6,2.1-0.6c0.9,0,1.6,0.2,2.1,0.5s0.8,0.7,0.9,1.3l-1.7,0.3c-0.1-0.3-0.2-0.5-0.4-0.6
		s-0.5-0.2-0.9-0.2c-0.5,0-0.8,0.1-1,0.2c-0.1,0.1-0.2,0.2-0.2,0.4c0,0.1,0.1,0.2,0.2,0.3c0.2,0.1,0.7,0.3,1.7,0.5s1.6,0.5,2,0.8
		c0.4,0.3,0.6,0.8,0.6,1.3c0,0.6-0.3,1.1-0.8,1.6s-1.3,0.7-2.3,0.7c-0.9,0-1.6-0.2-2.2-0.6C136.8,222.9,136.5,222.4,136.3,221.8z"/>
	<path class="st5" d="M149.2,221.8l1.8-0.3c0.1,0.3,0.2,0.6,0.5,0.8c0.2,0.2,0.6,0.3,1,0.3c0.5,0,0.8-0.1,1-0.3
		c0.2-0.1,0.2-0.3,0.2-0.5c0-0.1,0-0.2-0.1-0.3c-0.1-0.1-0.3-0.2-0.6-0.2c-1.4-0.3-2.4-0.6-2.7-0.9c-0.5-0.4-0.8-0.9-0.8-1.5
		c0-0.6,0.2-1.1,0.7-1.5s1.2-0.6,2.1-0.6c0.9,0,1.6,0.2,2.1,0.5s0.8,0.7,0.9,1.3l-1.7,0.3c-0.1-0.3-0.2-0.5-0.4-0.6
		s-0.5-0.2-0.9-0.2c-0.5,0-0.8,0.1-1,0.2c-0.1,0.1-0.2,0.2-0.2,0.4c0,0.1,0.1,0.2,0.2,0.3c0.2,0.1,0.7,0.3,1.7,0.5s1.6,0.5,2,0.8
		c0.4,0.3,0.6,0.8,0.6,1.3c0,0.6-0.3,1.1-0.8,1.6s-1.3,0.7-2.3,0.7c-0.9,0-1.6-0.2-2.2-0.6C149.8,222.9,149.4,222.4,149.2,221.8z"/>
	<path class="st5" d="M161,221.6l1.8,0.3c-0.2,0.7-0.6,1.1-1.1,1.5s-1.1,0.5-1.9,0.5c-1.2,0-2-0.4-2.6-1.1c-0.4-0.6-0.7-1.4-0.7-2.3
		c0-1.1,0.3-2,0.9-2.6c0.6-0.6,1.3-0.9,2.2-0.9c1,0,1.8,0.3,2.4,1c0.6,0.7,0.9,1.7,0.8,3h-4.5c0,0.5,0.2,0.9,0.4,1.2
		c0.3,0.3,0.6,0.4,1,0.4c0.3,0,0.5-0.1,0.7-0.2S160.9,221.9,161,221.6z M161.1,219.8c0-0.5-0.1-0.9-0.4-1.2
		c-0.3-0.3-0.6-0.4-0.9-0.4c-0.4,0-0.7,0.1-1,0.4s-0.4,0.7-0.4,1.2H161.1z"/>
	<path class="st5" d="M164.3,223.7v-9.3h1.8v9.3H164.3z"/>
	<path class="st5" d="M171.8,221.6l1.8,0.3c-0.2,0.7-0.6,1.1-1.1,1.5s-1.1,0.5-1.9,0.5c-1.2,0-2-0.4-2.6-1.1
		c-0.4-0.6-0.7-1.4-0.7-2.3c0-1.1,0.3-2,0.9-2.6c0.6-0.6,1.3-0.9,2.2-0.9c1,0,1.8,0.3,2.4,1c0.6,0.7,0.9,1.7,0.8,3h-4.5
		c0,0.5,0.2,0.9,0.4,1.2c0.3,0.3,0.6,0.4,1,0.4c0.3,0,0.5-0.1,0.7-0.2S171.7,221.9,171.8,221.6z M171.9,219.8c0-0.5-0.1-0.9-0.4-1.2
		c-0.3-0.3-0.6-0.4-0.9-0.4c-0.4,0-0.7,0.1-1,0.4s-0.4,0.7-0.4,1.2H171.9z"/>
	<path class="st5" d="M181,219l-1.8,0.3c-0.1-0.4-0.2-0.6-0.4-0.8c-0.2-0.2-0.5-0.3-0.8-0.3c-0.4,0-0.8,0.2-1.1,0.5
		c-0.3,0.3-0.4,0.8-0.4,1.5c0,0.8,0.1,1.4,0.4,1.7s0.6,0.5,1.1,0.5c0.3,0,0.6-0.1,0.8-0.3c0.2-0.2,0.4-0.5,0.5-1l1.8,0.3
		c-0.2,0.8-0.5,1.4-1,1.8c-0.5,0.4-1.2,0.6-2.1,0.6c-1,0-1.8-0.3-2.4-0.9s-0.9-1.5-0.9-2.6c0-1.1,0.3-2,0.9-2.6
		c0.6-0.6,1.4-0.9,2.4-0.9c0.8,0,1.5,0.2,2,0.5C180.5,217.7,180.8,218.3,181,219z"/>
	<path class="st5" d="M188.3,219l-1.8,0.3c-0.1-0.4-0.2-0.6-0.4-0.8c-0.2-0.2-0.5-0.3-0.8-0.3c-0.4,0-0.8,0.2-1.1,0.5
		c-0.3,0.3-0.4,0.8-0.4,1.5c0,0.8,0.1,1.4,0.4,1.7s0.6,0.5,1.1,0.5c0.3,0,0.6-0.1,0.8-0.3c0.2-0.2,0.4-0.5,0.5-1l1.8,0.3
		c-0.2,0.8-0.5,1.4-1,1.8c-0.5,0.4-1.2,0.6-2.1,0.6c-1,0-1.8-0.3-2.4-0.9s-0.9-1.5-0.9-2.6c0-1.1,0.3-2,0.9-2.6
		c0.6-0.6,1.4-0.9,2.4-0.9c0.8,0,1.5,0.2,2,0.5C187.7,217.7,188.1,218.3,188.3,219z"/>
	<path class="st5" d="M189.6,216.1v-1.7h1.8v1.7H189.6z M189.6,223.7V217h1.8v6.7H189.6z"/>
	<path class="st5" d="M192.8,220.3c0-0.6,0.1-1.2,0.4-1.7c0.3-0.6,0.7-1,1.2-1.3s1.1-0.4,1.8-0.4c1,0,1.9,0.3,2.5,1
		c0.7,0.7,1,1.5,1,2.5c0,1-0.3,1.9-1,2.5s-1.5,1-2.5,1c-0.6,0-1.2-0.1-1.8-0.4s-1-0.7-1.3-1.2C193,221.7,192.8,221,192.8,220.3z
		 M194.7,220.4c0,0.7,0.2,1.2,0.5,1.5c0.3,0.4,0.7,0.5,1.2,0.5s0.9-0.2,1.2-0.5s0.5-0.9,0.5-1.5c0-0.7-0.2-1.2-0.5-1.5
		s-0.7-0.5-1.2-0.5s-0.9,0.2-1.2,0.5C194.8,219.2,194.7,219.7,194.7,220.4z"/>
	<path class="st5" d="M207.3,223.7h-1.8v-3.4c0-0.7,0-1.2-0.1-1.4c-0.1-0.2-0.2-0.4-0.4-0.5c-0.2-0.1-0.4-0.2-0.6-0.2
		c-0.3,0-0.6,0.1-0.8,0.3c-0.2,0.2-0.4,0.4-0.5,0.7s-0.1,0.8-0.1,1.5v3.1h-1.8V217h1.7v1c0.6-0.8,1.3-1.1,2.2-1.1
		c0.4,0,0.8,0.1,1.1,0.2c0.3,0.1,0.6,0.3,0.7,0.5s0.3,0.5,0.3,0.7s0.1,0.7,0.1,1.2V223.7z"/>
	<path class="st5" d="M210.5,219l-1.6-0.3c0.2-0.7,0.5-1.1,0.9-1.4s1.1-0.5,2-0.5c0.8,0,1.4,0.1,1.8,0.3c0.4,0.2,0.7,0.4,0.8,0.7
		c0.2,0.3,0.2,0.8,0.2,1.6l0,2.1c0,0.6,0,1,0.1,1.3c0.1,0.3,0.2,0.6,0.3,0.9h-1.8c0-0.1-0.1-0.3-0.2-0.5c0-0.1-0.1-0.2-0.1-0.2
		c-0.3,0.3-0.6,0.5-1,0.7c-0.3,0.1-0.7,0.2-1.1,0.2c-0.7,0-1.2-0.2-1.6-0.6c-0.4-0.4-0.6-0.9-0.6-1.4c0-0.4,0.1-0.7,0.3-1
		c0.2-0.3,0.4-0.5,0.8-0.7c0.3-0.2,0.8-0.3,1.4-0.4c0.8-0.2,1.4-0.3,1.7-0.4v-0.2c0-0.3-0.1-0.6-0.3-0.7c-0.2-0.1-0.5-0.2-1-0.2
		c-0.3,0-0.6,0.1-0.7,0.2C210.7,218.5,210.6,218.7,210.5,219z M212.8,220.5c-0.2,0.1-0.6,0.2-1.1,0.3c-0.5,0.1-0.8,0.2-1,0.3
		c-0.2,0.2-0.3,0.4-0.3,0.6c0,0.2,0.1,0.5,0.3,0.6c0.2,0.2,0.4,0.3,0.7,0.3c0.3,0,0.6-0.1,0.9-0.3c0.2-0.2,0.4-0.4,0.4-0.6
		c0-0.2,0.1-0.4,0.1-0.9V220.5z"/>
	<path class="st5" d="M216.2,221.2v-1.8h3.5v1.8H216.2z"/>
	<path class="st5" d="M48.6,239.3h-1.7v-1c-0.3,0.4-0.6,0.7-1,0.9c-0.4,0.2-0.8,0.3-1.1,0.3c-0.8,0-1.4-0.3-2-0.9
		c-0.6-0.6-0.8-1.5-0.8-2.6c0-1.1,0.3-2,0.8-2.6c0.5-0.6,1.2-0.9,2-0.9c0.8,0,1.4,0.3,2,0.9V230h1.8V239.3z M43.8,235.8
		c0,0.7,0.1,1.2,0.3,1.6c0.3,0.5,0.7,0.7,1.2,0.7c0.4,0,0.8-0.2,1-0.5c0.3-0.3,0.4-0.9,0.4-1.6c0-0.8-0.1-1.3-0.4-1.7
		s-0.6-0.5-1.1-0.5c-0.4,0-0.8,0.2-1.1,0.5C44,234.6,43.8,235.1,43.8,235.8z"/>
	<path class="st5" d="M49.9,235.9c0-0.6,0.1-1.2,0.4-1.7c0.3-0.6,0.7-1,1.2-1.3c0.5-0.3,1.1-0.4,1.8-0.4c1,0,1.9,0.3,2.5,1
		c0.7,0.7,1,1.5,1,2.5c0,1-0.3,1.9-1,2.5c-0.7,0.7-1.5,1-2.5,1c-0.6,0-1.2-0.1-1.8-0.4c-0.6-0.3-1-0.7-1.3-1.2
		C50.1,237.3,49.9,236.6,49.9,235.9z M51.8,236c0,0.7,0.2,1.2,0.5,1.5s0.7,0.5,1.2,0.5c0.5,0,0.9-0.2,1.2-0.5
		c0.3-0.4,0.5-0.9,0.5-1.5c0-0.7-0.2-1.2-0.5-1.5c-0.3-0.4-0.7-0.5-1.2-0.5c-0.5,0-0.9,0.2-1.2,0.5S51.8,235.3,51.8,236z"/>
	<path class="st5" d="M57.7,237.4l1.8-0.3c0.1,0.3,0.2,0.6,0.5,0.8c0.2,0.2,0.6,0.3,1,0.3c0.5,0,0.8-0.1,1-0.3
		c0.2-0.1,0.2-0.3,0.2-0.5c0-0.1,0-0.2-0.1-0.3c-0.1-0.1-0.3-0.2-0.6-0.2c-1.4-0.3-2.4-0.6-2.7-0.9c-0.5-0.4-0.8-0.9-0.8-1.5
		c0-0.6,0.2-1.1,0.7-1.5c0.5-0.4,1.2-0.6,2.1-0.6c0.9,0,1.6,0.2,2.1,0.5c0.4,0.3,0.8,0.7,0.9,1.3l-1.7,0.3c-0.1-0.3-0.2-0.5-0.4-0.6
		c-0.2-0.1-0.5-0.2-0.9-0.2c-0.5,0-0.8,0.1-1,0.2c-0.1,0.1-0.2,0.2-0.2,0.4c0,0.1,0.1,0.2,0.2,0.3c0.2,0.1,0.7,0.3,1.7,0.5
		s1.6,0.5,2,0.8c0.4,0.3,0.6,0.8,0.6,1.3c0,0.6-0.3,1.1-0.8,1.6c-0.5,0.4-1.3,0.7-2.3,0.7c-0.9,0-1.6-0.2-2.2-0.6
		C58.2,238.5,57.8,238,57.7,237.4z"/>
	<path class="st5" d="M75,237.4l1.8-0.3c0.1,0.3,0.2,0.6,0.5,0.8c0.2,0.2,0.6,0.3,1,0.3c0.5,0,0.8-0.1,1-0.3
		c0.2-0.1,0.2-0.3,0.2-0.5c0-0.1,0-0.2-0.1-0.3c-0.1-0.1-0.3-0.2-0.6-0.2c-1.4-0.3-2.4-0.6-2.7-0.9c-0.5-0.4-0.8-0.9-0.8-1.5
		c0-0.6,0.2-1.1,0.7-1.5c0.5-0.4,1.2-0.6,2.1-0.6c0.9,0,1.6,0.2,2.1,0.5c0.4,0.3,0.8,0.7,0.9,1.3l-1.7,0.3c-0.1-0.3-0.2-0.5-0.4-0.6
		c-0.2-0.1-0.5-0.2-0.9-0.2c-0.5,0-0.8,0.1-1,0.2c-0.1,0.1-0.2,0.2-0.2,0.4c0,0.1,0.1,0.2,0.2,0.3c0.2,0.1,0.7,0.3,1.7,0.5
		s1.6,0.5,2,0.8c0.4,0.3,0.6,0.8,0.6,1.3c0,0.6-0.3,1.1-0.8,1.6c-0.5,0.4-1.3,0.7-2.3,0.7c-0.9,0-1.6-0.2-2.2-0.6
		C75.5,238.5,75.1,238,75,237.4z"/>
	<path class="st5" d="M86.7,237.2l1.8,0.3c-0.2,0.7-0.6,1.1-1.1,1.5s-1.1,0.5-1.9,0.5c-1.2,0-2-0.4-2.6-1.1
		c-0.4-0.6-0.7-1.4-0.7-2.3c0-1.1,0.3-2,0.9-2.6s1.3-0.9,2.2-0.9c1,0,1.8,0.3,2.4,1c0.6,0.7,0.9,1.7,0.8,3h-4.5
		c0,0.5,0.2,0.9,0.4,1.2c0.3,0.3,0.6,0.4,1,0.4c0.3,0,0.5-0.1,0.7-0.2S86.6,237.5,86.7,237.2z M86.8,235.4c0-0.5-0.1-0.9-0.4-1.2
		s-0.6-0.4-0.9-0.4c-0.4,0-0.7,0.1-1,0.4s-0.4,0.7-0.4,1.2H86.8z"/>
	<path class="st5" d="M91.8,239.3H90v-6.7h1.7v1c0.3-0.5,0.5-0.8,0.8-0.9s0.5-0.2,0.8-0.2c0.4,0,0.8,0.1,1.2,0.3l-0.6,1.6
		c-0.3-0.2-0.6-0.3-0.8-0.3c-0.2,0-0.5,0.1-0.6,0.2c-0.2,0.1-0.3,0.4-0.4,0.7c-0.1,0.4-0.1,1.1-0.1,2.3V239.3z"/>
	<path class="st5" d="M96.4,234.6l-1.6-0.3c0.2-0.7,0.5-1.1,0.9-1.4s1.1-0.5,2-0.5c0.8,0,1.4,0.1,1.8,0.3c0.4,0.2,0.7,0.4,0.8,0.7
		c0.2,0.3,0.2,0.8,0.2,1.6l0,2.1c0,0.6,0,1,0.1,1.3c0.1,0.3,0.2,0.6,0.3,0.9h-1.8c0-0.1-0.1-0.3-0.2-0.5c0-0.1-0.1-0.2-0.1-0.2
		c-0.3,0.3-0.6,0.5-1,0.7c-0.3,0.1-0.7,0.2-1.1,0.2c-0.7,0-1.2-0.2-1.6-0.6c-0.4-0.4-0.6-0.9-0.6-1.4c0-0.4,0.1-0.7,0.3-1
		c0.2-0.3,0.4-0.5,0.8-0.7c0.3-0.2,0.8-0.3,1.4-0.4c0.8-0.2,1.4-0.3,1.7-0.4v-0.2c0-0.3-0.1-0.6-0.3-0.7c-0.2-0.1-0.5-0.2-1-0.2
		c-0.3,0-0.6,0.1-0.7,0.2S96.5,234.3,96.4,234.6z M98.8,236.1c-0.2,0.1-0.6,0.2-1.1,0.3c-0.5,0.1-0.8,0.2-1,0.3
		c-0.2,0.2-0.3,0.4-0.3,0.6c0,0.2,0.1,0.5,0.3,0.6c0.2,0.2,0.4,0.3,0.7,0.3c0.3,0,0.6-0.1,0.9-0.3c0.2-0.2,0.4-0.4,0.4-0.6
		c0-0.2,0.1-0.4,0.1-0.9V236.1z M96.9,231.8l0.9-1.9h2l-1.7,1.9H96.9z"/>
	<path class="st5" d="M108.5,239.3h-1.8v-3.4c0-0.7,0-1.2-0.1-1.4s-0.2-0.4-0.4-0.5c-0.2-0.1-0.4-0.2-0.6-0.2
		c-0.3,0-0.6,0.1-0.8,0.3c-0.2,0.2-0.4,0.4-0.5,0.7c-0.1,0.3-0.1,0.8-0.1,1.5v3.1h-1.8v-6.7h1.7v1c0.6-0.8,1.3-1.1,2.2-1.1
		c0.4,0,0.8,0.1,1.1,0.2c0.3,0.1,0.6,0.3,0.7,0.5c0.2,0.2,0.3,0.5,0.3,0.8c0.1,0.3,0.1,0.7,0.1,1.2V239.3z"/>
	<path class="st5" d="M126.5,239.3h-1.8v-3.4c0-0.7,0-1.2-0.1-1.4s-0.2-0.4-0.4-0.5c-0.2-0.1-0.4-0.2-0.6-0.2
		c-0.3,0-0.6,0.1-0.8,0.3c-0.2,0.2-0.4,0.4-0.5,0.7c-0.1,0.3-0.1,0.8-0.1,1.5v3.1h-1.8v-6.7h1.7v1c0.6-0.8,1.3-1.1,2.2-1.1
		c0.4,0,0.8,0.1,1.1,0.2c0.3,0.1,0.6,0.3,0.7,0.5c0.2,0.2,0.3,0.5,0.3,0.8c0.1,0.3,0.1,0.7,0.1,1.2V239.3z"/>
	<path class="st5" d="M127.9,235.9c0-0.6,0.1-1.2,0.4-1.7c0.3-0.6,0.7-1,1.2-1.3c0.5-0.3,1.1-0.4,1.8-0.4c1,0,1.9,0.3,2.5,1
		c0.7,0.7,1,1.5,1,2.5c0,1-0.3,1.9-1,2.5c-0.7,0.7-1.5,1-2.5,1c-0.6,0-1.2-0.1-1.8-0.4c-0.6-0.3-1-0.7-1.3-1.2
		C128,237.3,127.9,236.6,127.9,235.9z M129.7,236c0,0.7,0.2,1.2,0.5,1.5s0.7,0.5,1.2,0.5c0.5,0,0.9-0.2,1.2-0.5
		c0.3-0.4,0.5-0.9,0.5-1.5c0-0.7-0.2-1.2-0.5-1.5c-0.3-0.4-0.7-0.5-1.2-0.5c-0.5,0-0.9,0.2-1.2,0.5S129.7,235.3,129.7,236z"/>
	<path class="st5" d="M139.3,232.6v1.4h-1.2v2.7c0,0.5,0,0.9,0,1s0.1,0.2,0.2,0.2c0.1,0.1,0.2,0.1,0.3,0.1c0.2,0,0.4-0.1,0.7-0.2
		l0.2,1.4c-0.4,0.2-0.9,0.3-1.4,0.3c-0.3,0-0.6-0.1-0.9-0.2c-0.3-0.1-0.4-0.2-0.6-0.4c-0.1-0.2-0.2-0.4-0.3-0.7
		c0-0.2-0.1-0.6-0.1-1.3V234h-0.8v-1.4h0.8v-1.3l1.8-1v2.4H139.3z"/>
	<path class="st5" d="M140.6,231.7V230h1.8v1.7H140.6z M140.6,239.3v-6.7h1.8v6.7H140.6z"/>
	<path class="st5" d="M143.4,232.6h1v-0.5c0-0.6,0.1-1,0.2-1.3c0.1-0.3,0.3-0.5,0.7-0.7c0.3-0.2,0.7-0.3,1.2-0.3
		c0.5,0,1,0.1,1.5,0.2l-0.2,1.2c-0.3-0.1-0.6-0.1-0.8-0.1c-0.3,0-0.4,0.1-0.6,0.2c-0.1,0.1-0.2,0.4-0.2,0.7v0.5h1.3v1.4h-1.3v5.3
		h-1.8V234h-1V232.6z"/>
	<path class="st5" d="M148.5,231.7V230h1.8v1.7H148.5z M148.5,239.3v-6.7h1.8v6.7H148.5z"/>
	<path class="st5" d="M158,234.6l-1.8,0.3c-0.1-0.4-0.2-0.6-0.4-0.8c-0.2-0.2-0.5-0.3-0.8-0.3c-0.4,0-0.8,0.2-1.1,0.5
		s-0.4,0.8-0.4,1.5c0,0.8,0.1,1.4,0.4,1.7s0.6,0.5,1.1,0.5c0.3,0,0.6-0.1,0.8-0.3c0.2-0.2,0.4-0.5,0.5-1l1.8,0.3
		c-0.2,0.8-0.5,1.4-1,1.8c-0.5,0.4-1.2,0.6-2.1,0.6c-1,0-1.8-0.3-2.4-0.9c-0.6-0.6-0.9-1.5-0.9-2.6c0-1.1,0.3-2,0.9-2.6
		s1.4-0.9,2.4-0.9c0.8,0,1.5,0.2,2,0.5S157.8,233.9,158,234.6z"/>
	<path class="st5" d="M160.7,234.6l-1.6-0.3c0.2-0.7,0.5-1.1,0.9-1.4s1.1-0.5,2-0.5c0.8,0,1.4,0.1,1.8,0.3s0.7,0.4,0.8,0.7
		c0.2,0.3,0.2,0.8,0.2,1.6l0,2.1c0,0.6,0,1,0.1,1.3c0.1,0.3,0.2,0.6,0.3,0.9h-1.8c0-0.1-0.1-0.3-0.2-0.5c0-0.1-0.1-0.2-0.1-0.2
		c-0.3,0.3-0.6,0.5-1,0.7c-0.3,0.1-0.7,0.2-1.1,0.2c-0.7,0-1.2-0.2-1.6-0.6c-0.4-0.4-0.6-0.9-0.6-1.4c0-0.4,0.1-0.7,0.3-1
		c0.2-0.3,0.4-0.5,0.8-0.7c0.3-0.2,0.8-0.3,1.4-0.4c0.8-0.2,1.4-0.3,1.7-0.4v-0.2c0-0.3-0.1-0.6-0.3-0.7c-0.2-0.1-0.5-0.2-1-0.2
		c-0.3,0-0.6,0.1-0.7,0.2S160.8,234.3,160.7,234.6z M163.1,236.1c-0.2,0.1-0.6,0.2-1.1,0.3c-0.5,0.1-0.8,0.2-1,0.3
		c-0.2,0.2-0.3,0.4-0.3,0.6c0,0.2,0.1,0.5,0.3,0.6c0.2,0.2,0.4,0.3,0.7,0.3c0.3,0,0.6-0.1,0.9-0.3c0.2-0.2,0.4-0.4,0.4-0.6
		c0-0.2,0.1-0.4,0.1-0.9V236.1z"/>
	<path class="st5" d="M172.7,239.3h-1.7v-1c-0.3,0.4-0.6,0.7-1,0.9c-0.4,0.2-0.8,0.3-1.1,0.3c-0.8,0-1.4-0.3-2-0.9
		c-0.6-0.6-0.8-1.5-0.8-2.6c0-1.1,0.3-2,0.8-2.6c0.5-0.6,1.2-0.9,2-0.9c0.8,0,1.4,0.3,2,0.9V230h1.8V239.3z M168,235.8
		c0,0.7,0.1,1.2,0.3,1.6c0.3,0.5,0.7,0.7,1.2,0.7c0.4,0,0.8-0.2,1-0.5c0.3-0.3,0.4-0.9,0.4-1.6c0-0.8-0.1-1.3-0.4-1.7
		s-0.6-0.5-1.1-0.5c-0.4,0-0.8,0.2-1.1,0.5C168.1,234.6,168,235.1,168,235.8z"/>
	<path class="st5" d="M174.1,235.9c0-0.6,0.1-1.2,0.4-1.7c0.3-0.6,0.7-1,1.2-1.3c0.5-0.3,1.1-0.4,1.8-0.4c1,0,1.9,0.3,2.5,1
		s1,1.5,1,2.5c0,1-0.3,1.9-1,2.5s-1.5,1-2.5,1c-0.6,0-1.2-0.1-1.8-0.4s-1-0.7-1.3-1.2C174.2,237.3,174.1,236.6,174.1,235.9z
		 M175.9,236c0,0.7,0.2,1.2,0.5,1.5c0.3,0.4,0.7,0.5,1.2,0.5s0.9-0.2,1.2-0.5s0.5-0.9,0.5-1.5c0-0.7-0.2-1.2-0.5-1.5
		s-0.7-0.5-1.2-0.5s-0.9,0.2-1.2,0.5C176.1,234.8,175.9,235.3,175.9,236z"/>
	<path class="st5" d="M181.8,237.4l1.8-0.3c0.1,0.3,0.2,0.6,0.5,0.8c0.2,0.2,0.6,0.3,1,0.3c0.5,0,0.8-0.1,1-0.3
		c0.2-0.1,0.2-0.3,0.2-0.5c0-0.1,0-0.2-0.1-0.3c-0.1-0.1-0.3-0.2-0.6-0.2c-1.4-0.3-2.4-0.6-2.7-0.9c-0.5-0.4-0.8-0.9-0.8-1.5
		c0-0.6,0.2-1.1,0.7-1.5s1.2-0.6,2.1-0.6c0.9,0,1.6,0.2,2.1,0.5c0.4,0.3,0.8,0.7,0.9,1.3l-1.7,0.3c-0.1-0.3-0.2-0.5-0.4-0.6
		c-0.2-0.1-0.5-0.2-0.9-0.2c-0.5,0-0.8,0.1-1,0.2c-0.1,0.1-0.2,0.2-0.2,0.4c0,0.1,0.1,0.2,0.2,0.3c0.2,0.1,0.7,0.3,1.7,0.5
		s1.6,0.5,2,0.8c0.4,0.3,0.6,0.8,0.6,1.3c0,0.6-0.3,1.1-0.8,1.6c-0.5,0.4-1.3,0.7-2.3,0.7c-0.9,0-1.6-0.2-2.2-0.6
		S182,238,181.8,237.4z"/>
	<path class="st5" d="M199.7,232.6h1.7v1c0.2-0.3,0.5-0.6,0.9-0.8c0.4-0.2,0.8-0.3,1.2-0.3c0.8,0,1.4,0.3,2,0.9
		c0.5,0.6,0.8,1.5,0.8,2.6c0,1.1-0.3,2-0.8,2.6c-0.5,0.6-1.2,0.9-2,0.9c-0.4,0-0.7-0.1-1-0.2c-0.3-0.1-0.6-0.4-1-0.8v3.4h-1.8V232.6
		z M201.5,235.8c0,0.8,0.2,1.3,0.5,1.7c0.3,0.4,0.7,0.5,1.1,0.5c0.4,0,0.8-0.2,1-0.5s0.4-0.9,0.4-1.6c0-0.7-0.1-1.2-0.4-1.6
		c-0.3-0.3-0.6-0.5-1.1-0.5c-0.4,0-0.8,0.2-1.1,0.5C201.6,234.7,201.5,235.2,201.5,235.8z"/>
	<path class="st5" d="M207.3,235.9c0-0.6,0.1-1.2,0.4-1.7c0.3-0.6,0.7-1,1.2-1.3c0.5-0.3,1.1-0.4,1.8-0.4c1,0,1.9,0.3,2.5,1
		s1,1.5,1,2.5c0,1-0.3,1.9-1,2.5s-1.5,1-2.5,1c-0.6,0-1.2-0.1-1.8-0.4s-1-0.7-1.3-1.2C207.4,237.3,207.3,236.6,207.3,235.9z
		 M209.1,236c0,0.7,0.2,1.2,0.5,1.5c0.3,0.4,0.7,0.5,1.2,0.5s0.9-0.2,1.2-0.5s0.5-0.9,0.5-1.5c0-0.7-0.2-1.2-0.5-1.5
		s-0.7-0.5-1.2-0.5s-0.9,0.2-1.2,0.5C209.3,234.8,209.1,235.3,209.1,236z"/>
	<path class="st5" d="M217.3,239.3h-1.8v-6.7h1.7v1c0.3-0.5,0.5-0.8,0.8-0.9s0.5-0.2,0.8-0.2c0.4,0,0.8,0.1,1.2,0.3l-0.6,1.6
		c-0.3-0.2-0.6-0.3-0.8-0.3c-0.2,0-0.5,0.1-0.6,0.2s-0.3,0.4-0.4,0.7s-0.1,1.1-0.1,2.3V239.3z"/>
	<path class="st5" d="M48.3,250.2l-1.8,0.3c-0.1-0.4-0.2-0.6-0.4-0.8c-0.2-0.2-0.5-0.3-0.8-0.3c-0.4,0-0.8,0.2-1.1,0.5
		s-0.4,0.8-0.4,1.5c0,0.8,0.1,1.4,0.4,1.7c0.3,0.3,0.6,0.5,1.1,0.5c0.3,0,0.6-0.1,0.8-0.3s0.4-0.5,0.5-1l1.8,0.3
		c-0.2,0.8-0.5,1.4-1,1.8c-0.5,0.4-1.2,0.6-2.1,0.6c-1,0-1.8-0.3-2.4-0.9c-0.6-0.6-0.9-1.5-0.9-2.6c0-1.1,0.3-2,0.9-2.6
		c0.6-0.6,1.4-0.9,2.4-0.9c0.8,0,1.5,0.2,2,0.5S48.1,249.5,48.3,250.2z"/>
	<path class="st5" d="M49.2,251.5c0-0.6,0.1-1.2,0.4-1.7c0.3-0.6,0.7-1,1.2-1.3c0.5-0.3,1.1-0.4,1.8-0.4c1,0,1.9,0.3,2.5,1
		c0.7,0.7,1,1.5,1,2.5c0,1-0.3,1.9-1,2.5c-0.7,0.7-1.5,1-2.5,1c-0.6,0-1.2-0.1-1.8-0.4c-0.6-0.3-1-0.7-1.3-1.2
		C49.4,252.9,49.2,252.2,49.2,251.5z M51.1,251.6c0,0.7,0.2,1.2,0.5,1.5s0.7,0.5,1.2,0.5c0.5,0,0.9-0.2,1.2-0.5
		c0.3-0.4,0.5-0.9,0.5-1.5c0-0.7-0.2-1.2-0.5-1.5c-0.3-0.4-0.7-0.5-1.2-0.5c-0.5,0-0.9,0.2-1.2,0.5S51.1,250.9,51.1,251.6z"/>
	<path class="st5" d="M59.3,254.9h-1.8v-6.7h1.7v1c0.3-0.5,0.5-0.8,0.8-0.9s0.5-0.2,0.8-0.2c0.4,0,0.8,0.1,1.2,0.3l-0.6,1.6
		c-0.3-0.2-0.6-0.3-0.8-0.3c-0.2,0-0.5,0.1-0.6,0.2c-0.2,0.1-0.3,0.4-0.4,0.7c-0.1,0.4-0.1,1.1-0.1,2.3V254.9z"/>
	<path class="st5" d="M64.3,254.9h-1.8v-6.7h1.7v1c0.3-0.5,0.5-0.8,0.8-0.9c0.2-0.1,0.5-0.2,0.8-0.2c0.4,0,0.8,0.1,1.2,0.3l-0.6,1.6
		c-0.3-0.2-0.6-0.3-0.8-0.3c-0.2,0-0.5,0.1-0.6,0.2c-0.2,0.1-0.3,0.4-0.4,0.7s-0.1,1.1-0.1,2.3V254.9z"/>
	<path class="st5" d="M71.6,252.8l1.8,0.3c-0.2,0.7-0.6,1.1-1.1,1.5c-0.5,0.3-1.1,0.5-1.9,0.5c-1.2,0-2-0.4-2.6-1.1
		c-0.4-0.6-0.7-1.4-0.7-2.3c0-1.1,0.3-2,0.9-2.6s1.3-0.9,2.2-0.9c1,0,1.8,0.3,2.4,1c0.6,0.7,0.9,1.7,0.8,3H69c0,0.5,0.2,0.9,0.4,1.2
		c0.3,0.3,0.6,0.4,1,0.4c0.3,0,0.5-0.1,0.7-0.2S71.5,253.1,71.6,252.8z M71.7,251c0-0.5-0.1-0.9-0.4-1.2s-0.6-0.4-0.9-0.4
		c-0.4,0-0.7,0.1-1,0.4S69,250.5,69,251H71.7z"/>
	<path class="st5" d="M74.5,251.5c0-0.6,0.1-1.2,0.4-1.7c0.3-0.6,0.7-1,1.2-1.3c0.5-0.3,1.1-0.4,1.8-0.4c1,0,1.9,0.3,2.5,1
		c0.7,0.7,1,1.5,1,2.5c0,1-0.3,1.9-1,2.5c-0.7,0.7-1.5,1-2.5,1c-0.6,0-1.2-0.1-1.8-0.4c-0.6-0.3-1-0.7-1.3-1.2
		C74.7,252.9,74.5,252.2,74.5,251.5z M76.3,251.6c0,0.7,0.2,1.2,0.5,1.5s0.7,0.5,1.2,0.5c0.5,0,0.9-0.2,1.2-0.5
		c0.3-0.4,0.5-0.9,0.5-1.5c0-0.7-0.2-1.2-0.5-1.5c-0.3-0.4-0.7-0.5-1.2-0.5c-0.5,0-0.9,0.2-1.2,0.5S76.3,250.9,76.3,251.6z"/>
	<path class="st5" d="M90.4,252.8l1.8,0.3c-0.2,0.7-0.6,1.1-1.1,1.5s-1.1,0.5-1.9,0.5c-1.2,0-2-0.4-2.6-1.1
		c-0.4-0.6-0.7-1.4-0.7-2.3c0-1.1,0.3-2,0.9-2.6s1.3-0.9,2.2-0.9c1,0,1.8,0.3,2.4,1c0.6,0.7,0.9,1.7,0.8,3h-4.5
		c0,0.5,0.2,0.9,0.4,1.2c0.3,0.3,0.6,0.4,1,0.4c0.3,0,0.5-0.1,0.7-0.2S90.3,253.1,90.4,252.8z M90.5,251c0-0.5-0.1-0.9-0.4-1.2
		s-0.6-0.4-0.9-0.4c-0.4,0-0.7,0.1-1,0.4s-0.4,0.7-0.4,1.2H90.5z"/>
	<path class="st5" d="M93.7,254.9v-9.3h1.8v9.3H93.7z"/>
	<path class="st5" d="M101.2,252.8l1.8,0.3c-0.2,0.7-0.6,1.1-1.1,1.5s-1.1,0.5-1.9,0.5c-1.2,0-2-0.4-2.6-1.1
		c-0.4-0.6-0.7-1.4-0.7-2.3c0-1.1,0.3-2,0.9-2.6s1.3-0.9,2.2-0.9c1,0,1.8,0.3,2.4,1c0.6,0.7,0.9,1.7,0.8,3h-4.5
		c0,0.5,0.2,0.9,0.4,1.2c0.3,0.3,0.6,0.4,1,0.4c0.3,0,0.5-0.1,0.7-0.2S101.1,253.1,101.2,252.8z M101.3,251c0-0.5-0.1-0.9-0.4-1.2
		s-0.6-0.4-0.9-0.4c-0.4,0-0.7,0.1-1,0.4s-0.4,0.7-0.4,1.2H101.3z"/>
	<path class="st5" d="M110.4,250.2l-1.8,0.3c-0.1-0.4-0.2-0.6-0.4-0.8c-0.2-0.2-0.5-0.3-0.8-0.3c-0.4,0-0.8,0.2-1.1,0.5
		s-0.4,0.8-0.4,1.5c0,0.8,0.1,1.4,0.4,1.7c0.3,0.3,0.6,0.5,1.1,0.5c0.3,0,0.6-0.1,0.8-0.3s0.4-0.5,0.5-1l1.8,0.3
		c-0.2,0.8-0.5,1.4-1,1.8c-0.5,0.4-1.2,0.6-2.1,0.6c-1,0-1.8-0.3-2.4-0.9c-0.6-0.6-0.9-1.5-0.9-2.6c0-1.1,0.3-2,0.9-2.6
		c0.6-0.6,1.4-0.9,2.4-0.9c0.8,0,1.5,0.2,2,0.5S110.2,249.5,110.4,250.2z"/>
	<path class="st5" d="M114.9,248.2v1.4h-1.2v2.7c0,0.5,0,0.9,0,1s0.1,0.2,0.2,0.2c0.1,0.1,0.2,0.1,0.3,0.1c0.2,0,0.4-0.1,0.7-0.2
		l0.2,1.4c-0.4,0.2-0.9,0.3-1.4,0.3c-0.3,0-0.6-0.1-0.9-0.2c-0.3-0.1-0.4-0.2-0.6-0.4c-0.1-0.2-0.2-0.4-0.2-0.7
		c0-0.2-0.1-0.6-0.1-1.3v-2.9H111v-1.4h0.8v-1.3l1.8-1v2.4H114.9z"/>
	<path class="st5" d="M117.8,254.9H116v-6.7h1.7v1c0.3-0.5,0.5-0.8,0.8-0.9c0.2-0.1,0.5-0.2,0.8-0.2c0.4,0,0.8,0.1,1.2,0.3l-0.6,1.6
		c-0.3-0.2-0.6-0.3-0.8-0.3c-0.2,0-0.5,0.1-0.6,0.2c-0.2,0.1-0.3,0.4-0.4,0.7s-0.1,1.1-0.1,2.3V254.9z"/>
	<path class="st5" d="M120.8,251.5c0-0.6,0.1-1.2,0.4-1.7c0.3-0.6,0.7-1,1.2-1.3c0.5-0.3,1.1-0.4,1.8-0.4c1,0,1.9,0.3,2.5,1
		c0.7,0.7,1,1.5,1,2.5c0,1-0.3,1.9-1,2.5s-1.5,1-2.5,1c-0.6,0-1.2-0.1-1.8-0.4s-1-0.7-1.3-1.2C120.9,252.9,120.8,252.2,120.8,251.5z
		 M122.6,251.6c0,0.7,0.2,1.2,0.5,1.5s0.7,0.5,1.2,0.5c0.5,0,0.9-0.2,1.2-0.5s0.5-0.9,0.5-1.5c0-0.7-0.2-1.2-0.5-1.5
		s-0.7-0.5-1.2-0.5c-0.5,0-0.9,0.2-1.2,0.5S122.6,250.9,122.6,251.6z M123.3,247.4l0.9-1.9h2l-1.7,1.9H123.3z"/>
	<path class="st5" d="M135.2,254.9h-1.8v-3.4c0-0.7,0-1.2-0.1-1.4s-0.2-0.4-0.4-0.5c-0.2-0.1-0.4-0.2-0.6-0.2
		c-0.3,0-0.6,0.1-0.8,0.3c-0.2,0.2-0.4,0.4-0.5,0.7s-0.1,0.8-0.1,1.5v3.1h-1.8v-6.7h1.7v1c0.6-0.8,1.3-1.1,2.2-1.1
		c0.4,0,0.8,0.1,1.1,0.2c0.3,0.1,0.6,0.3,0.7,0.5c0.2,0.2,0.3,0.5,0.3,0.8s0.1,0.7,0.1,1.2V254.9z"/>
	<path class="st5" d="M137.1,247.3v-1.7h1.8v1.7H137.1z M137.1,254.9v-6.7h1.8v6.7H137.1z"/>
	<path class="st5" d="M146.5,250.2l-1.8,0.3c-0.1-0.4-0.2-0.6-0.4-0.8c-0.2-0.2-0.5-0.3-0.8-0.3c-0.4,0-0.8,0.2-1.1,0.5
		s-0.4,0.8-0.4,1.5c0,0.8,0.1,1.4,0.4,1.7s0.6,0.5,1.1,0.5c0.3,0,0.6-0.1,0.8-0.3c0.2-0.2,0.4-0.5,0.5-1l1.8,0.3
		c-0.2,0.8-0.5,1.4-1,1.8c-0.5,0.4-1.2,0.6-2.1,0.6c-1,0-1.8-0.3-2.4-0.9c-0.6-0.6-0.9-1.5-0.9-2.6c0-1.1,0.3-2,0.9-2.6
		s1.4-0.9,2.4-0.9c0.8,0,1.5,0.2,2,0.5S146.3,249.5,146.5,250.2z"/>
	<path class="st5" d="M147.5,251.5c0-0.6,0.1-1.2,0.4-1.7c0.3-0.6,0.7-1,1.2-1.3c0.5-0.3,1.1-0.4,1.8-0.4c1,0,1.9,0.3,2.5,1
		s1,1.5,1,2.5c0,1-0.3,1.9-1,2.5s-1.5,1-2.5,1c-0.6,0-1.2-0.1-1.8-0.4s-1-0.7-1.3-1.2C147.6,252.9,147.5,252.2,147.5,251.5z
		 M149.3,251.6c0,0.7,0.2,1.2,0.5,1.5c0.3,0.4,0.7,0.5,1.2,0.5s0.9-0.2,1.2-0.5s0.5-0.9,0.5-1.5c0-0.7-0.2-1.2-0.5-1.5
		s-0.7-0.5-1.2-0.5s-0.9,0.2-1.2,0.5C149.5,250.4,149.3,250.9,149.3,251.6z"/>
	<path class="st5" d="M155.8,254.9v-1.8h1.8v1.8H155.8z"/>
</g>
<circle class="st5" cx="34.4" cy="219.6" r="1.8"/>
</svg>
