<?xml version="1.0" encoding="utf-8"?>
<!-- Generator: Adobe Illustrator 27.5.0, SVG Export Plug-In . SVG Version: 6.00 Build 0)  -->
<svg version="1.1" id="Capa_1" xmlns="http://www.w3.org/2000/svg" xmlns:xlink="http://www.w3.org/1999/xlink" x="0px" y="0px"
	 viewBox="0 0 250.2 438.8" style="enable-background:new 0 0 250.2 438.8;" xml:space="preserve">
<style type="text/css">
	.st0{fill:#FFFFFF;}
	.st1{fill:#914B96;}
	.st2{fill:#F89E41;}
	.st3{fill:#4BBCB6;}
	.st4{fill:#ED8242;}
	.st5{fill:#0B75A4;}
	.st6{fill:none;stroke:#0B75A4;stroke-width:2;stroke-miterlimit:10;}
	.st7{fill:#CC405E;}
	.st8{font-family:'Arial-BoldMT';}
	.st9{font-size:16.8884px;}
	.st10{font-size:21.7407px;}
	.st11{fill:none;}
	.st12{font-size:13px;}
	.st13{letter-spacing:2;}
	.st14{letter-spacing:6;}
</style>
<g>
	<image style="overflow:visible;" width="282" height="471" xlink:href="A1F7751B.png"  transform="matrix(1 0 0 1 -18 -14.17)">
	</image>
</g>
<path class="st0" d="M206.1,418.5H44.1c-13.1,0-23.8-10.7-23.8-23.8V44.1C20.3,31,31,20.3,44.1,20.3h161.9
	c13.1,0,23.8,10.7,23.8,23.8v350.5C229.9,407.8,219.2,418.5,206.1,418.5z"/>
<rect x="20.3" y="83.4" class="st7" width="209.5" height="42.4"/>
<text transform="matrix(1 0 0 1 52.389 110.6337)" class="st0 st8 st9">INCORPORACIÓN</text>
<path class="st7" d="M128.3,167l8-4.6l-8-4.6l-8,4.6L128.3,167z M128.3,173.1l5.5-3.2v-4.2l-5.5,3.2l-5.5-3.2v4.2L128.3,173.1z
	 M105.9,151.4h34c0.8,0,1.5,0.3,2.1,0.9c0.6,0.6,0.9,1.3,0.9,2.1v26c0,0.8-0.3,1.5-0.9,2.1s-1.3,0.9-2.1,0.9h-17v-3h17v-26h-34v8.8
	h-3v-8.8c0-0.8,0.3-1.5,0.9-2.1C104.4,151.7,105.1,151.4,105.9,151.4z M102.9,183.4h5c0-1.4-0.5-2.7-1.4-3.7s-2.2-1.5-3.6-1.5V183.4
	z M110.9,183.4h3c0-3.1-1.1-5.7-3.2-7.9c-2.1-2.2-4.7-3.3-7.8-3.3v3c2.2,0,4.1,0.8,5.7,2.4C110.1,179.2,110.9,181.1,110.9,183.4z
	 M102.9,166.2v3c2,0,3.8,0.4,5.5,1.1c1.7,0.7,3.2,1.8,4.4,3c1.2,1.3,2.2,2.8,3,4.5c0.7,1.7,1.1,3.6,1.1,5.5h3c0-2.4-0.4-4.6-1.3-6.7
	c-0.9-2.1-2.1-3.9-3.6-5.5c-1.5-1.6-3.3-2.8-5.4-3.7C107.4,166.7,105.2,166.2,102.9,166.2z"/>
<path class="st6" d="M206.1,418.5H44.1c-13.1,0-23.8-10.7-23.8-23.8V44.1C20.3,31,31,20.3,44.1,20.3h161.9
	c13.1,0,23.8,10.7,23.8,23.8v350.5C229.9,407.8,219.2,418.5,206.1,418.5z"/>
<circle class="st7" cx="125.1" cy="50.4" r="14.8"/>
<text transform="matrix(1 0 0 1 119.0596 58.5713)" class="st0 st8 st10">5</text>
<g id="Capa_1-2_00000162349383153367102090000004170188549332681117_">
	<path class="st5" d="M121.1,382c1.1,0.9,2.3,0.1,3.5,0.5c-0.2,0.4-0.4,0.7-0.7,0.9c-1.1,1.1-2.4,1.4-3.9,1.4
		c-0.2,0-0.4-0.3-0.4-0.4c0-0.5-0.3-0.5-0.6-0.6c-0.7-0.2-1.4-0.3-2-0.6c-0.8-0.5-1.7-0.6-2.6-0.6c-0.4,0-0.8,0-1.2,0
		c0.1-0.6,0.1-1.2,0.2-1.7c0.1-0.6,0-1.1-0.2-1.7c-0.3-0.8-0.4-1.6-0.4-2.4c0-0.6-0.1-1-0.9-0.8c0.1-0.6,0.2-1,0.3-1.5
		c0.3-1.3,1.2-2.2,2.2-2.9c0.2-0.1,0.5-0.1,0.7-0.1c0,0.2,0,0.4,0,0.6c0,0.6-0.1,1.2-0.2,1.8c-0.1,0.4-0.1,0.8-0.4,1.1
		c-0.6,0.9,0.2,3.2,1.2,3.4c0.1,0,0.3,0,0.4-0.1c2.5-2,5-4,7.5-6c-0.3-0.3-0.6-0.6-0.9-0.9c-0.5,0.3-0.9,1-1.6,0.4
		c-0.5-0.5,0-1,0.4-1.4c-0.4-0.4-0.6-0.7-1.3-0.6c-1.1,0.2-2.1-0.6-2.3-1.7c-0.2-0.9,0.4-1.8,1.3-2c1.2-0.4,2.7,0.7,2.6,2
		c-0.1,0.8,0.4,1,0.8,1.3c0.4-0.3,0.9-0.9,1.4-0.3c0.4,0.4,0.2,0.9-0.2,1.3c1.3,1.2,0.9,1.2,2.3-0.1c-0.3-0.4-0.6-0.9-0.1-1.3
		c0.5-0.5,1,0,1.4,0.4c0.4-0.4,0.9-0.5,0.8-1.3c-0.1-1,0.9-2,1.9-2c1-0.1,1.8,0.5,2,1.5c0.2,1.2-0.9,2.5-2.3,2.3
		c-0.6-0.1-0.9,0.1-1.3,0.6c0.3,0.4,0.9,0.9,0.3,1.5c-0.6,0.6-1-0.1-1.5-0.4c-0.3,0.3-0.7,0.6-1.1,1c1.3,1,2.5,2,3.7,3
		c1.2,1,2.5,2,3.7,3c0.5,0.4,0.8,0.3,1.2-0.1c0.7-0.7,0.9-1.6,0.9-2.6c0-0.1,0-0.2-0.1-0.2c-0.7-0.6-0.5-1.4-0.6-2.1
		c0-0.4-0.1-0.7-0.1-1.1c0-0.2,0-0.4,0-0.7c0.2,0,0.5,0,0.7,0.2c1,0.7,1.8,1.6,2.2,2.8c0.1,0.5,0.2,1,0.3,1.5
		c-0.9,0.3-0.8,0.3-0.9,1.1c-0.1,0.9-0.5,1.8-0.6,2.7c-0.1,0.7,0,1.4,0.1,2c0,0.3,0.1,0.6,0.1,0.9c-0.8,0-1.5,0-2.2,0
		c-0.4,0-0.8,0.1-1.1,0.3c-0.8,0.5-1.7,0.9-2.6,0.9c-0.4,0-0.5,0.1-0.5,0.5c0,0.2-0.3,0.5-0.4,0.5c-1.5,0-3-0.3-4-1.5
		c-0.2-0.2-0.3-0.5-0.5-0.8c1.1-0.5,2.4,0.3,3.4-0.5c0.6,0.8,1.2,0.5,1.9,0.2c0.5-0.2,0.9-0.5,1.3-0.9c0.6-0.5,0.6-0.8,0-1.3
		c-1.3-1.2-2.7-2.4-4-3.6c-1.1-1-2.1-2-3.2-3c-1.8,1.7-3.6,3.3-5.4,5c-0.6,0.5-1.2,1.1-1.8,1.6c-0.5,0.5-0.5,0.8,0,1.2
		c0.5,0.4,1.1,0.8,1.7,1.1C120.1,382.6,120.8,382.9,121.1,382L121.1,382z M130.4,368.6c-0.1,0.1-0.2,0.2-0.3,0.3
		c0.8-0.2,1.2-0.6,1.1-1.1c-0.1-0.5-0.4-0.7-0.8-0.8c-0.5-0.1-0.9,0.3-1.1,1.1c0.1-0.1,0.2-0.2,0.4-0.4
		C129.9,368,130.1,368.3,130.4,368.6L130.4,368.6z M120,369c0.3-0.3,0.6-0.6,0.9-0.9c-0.3-0.7-0.6-1-1.1-0.9
		c-0.4,0.1-0.7,0.3-0.7,0.8C118.9,368.4,119.2,368.7,120,369L120,369z"/>
</g>
<rect x="41.5" y="214.4" class="st11" width="178.3" height="79.7"/>
<text transform="matrix(1 0 0 1 41.4787 223.7227)"><tspan x="0" y="0" class="st5 st8 st12">Los</tspan><tspan x="23.1" y="0" class="st5 st8 st12 st13"> </tspan><tspan x="28.8" y="0" class="st5 st8 st12">postulantes</tspan><tspan x="101.8" y="0" class="st5 st8 st12 st13"> </tspan><tspan x="107.5" y="0" class="st5 st8 st12">selecciona</tspan><tspan x="173.9" y="0" class="st5 st8 st12">-</tspan><tspan x="0" y="15.6" class="st5 st8 st12">dos</tspan><tspan x="23.1" y="15.6" class="st5 st8 st12 st14"> </tspan><tspan x="33.2" y="15.6" class="st5 st8 st12">serán</tspan><tspan x="67.9" y="15.6" class="st5 st8 st12 st14"> </tspan><tspan x="77.9" y="15.6" class="st5 st8 st12">notificados</tspan><tspan x="147.3" y="15.6" class="st5 st8 st12 st14"> </tspan><tspan x="157.3" y="15.6" class="st5 st8 st12">por </tspan><tspan x="0" y="31.2" class="st5 st8 st12">correo electrónico.</tspan></text>
<circle class="st5" cx="34.4" cy="219.6" r="1.8"/>
</svg>
