<?xml version="1.0" encoding="utf-8"?>
<!-- Generator: Adobe Illustrator 27.5.0, SVG Export Plug-In . SVG Version: 6.00 Build 0)  -->
<svg version="1.1" id="Capa_1" xmlns="http://www.w3.org/2000/svg" xmlns:xlink="http://www.w3.org/1999/xlink" x="0px" y="0px"
	 viewBox="0 0 250.2 438.8" style="enable-background:new 0 0 250.2 438.8;" xml:space="preserve">
<style type="text/css">
	.st0{fill:#FFFFFF;}
	.st1{fill:#914B96;}
	.st2{fill:#F89E41;}
	.st3{fill:#4BBCB6;}
	.st4{fill:#ED8242;}
	.st5{fill:#0B75A4;}
	.st6{fill:none;stroke:#0B75A4;stroke-width:2;stroke-miterlimit:10;}
	.st7{fill:#CC405E;}
</style>
<g>
	<image style="overflow:visible;" width="282" height="471" xlink:href="6F67EADC.png"  transform="matrix(1 0 0 1 -18 -14.17)">
	</image>
</g>
<path class="st0" d="M206.1,418.5H44.1c-13.1,0-23.8-10.7-23.8-23.8V44.1C20.3,31,31,20.3,44.1,20.3h161.9
	c13.1,0,23.8,10.7,23.8,23.8v350.5C229.9,407.8,219.2,418.5,206.1,418.5z"/>
<rect x="20.3" y="83.4" class="st2" width="209.5" height="42.4"/>
<g>
	<path class="st0" d="M42.7,110.6V98.5h9v2h-6.5v2.7h6.1v2h-6.1v3.3h6.8v2H42.7z"/>
	<path class="st0" d="M56.6,110.6v-10h-3.6v-2h9.6v2h-3.6v10H56.6z"/>
	<path class="st0" d="M73.9,110.6h-2.7l-1.1-2.7h-4.8l-1,2.7h-2.6l4.7-12.1h2.6L73.9,110.6z M69.4,105.9l-1.7-4.5l-1.6,4.5H69.4z"/>
	<path class="st0" d="M75.2,110.6V98.5h3.9c1.5,0,2.5,0.1,2.9,0.2c0.7,0.2,1.3,0.6,1.7,1.2c0.5,0.6,0.7,1.4,0.7,2.4
		c0,0.7-0.1,1.4-0.4,1.9s-0.6,0.9-1,1.2c-0.4,0.3-0.8,0.5-1.3,0.6c-0.6,0.1-1.4,0.2-2.5,0.2h-1.6v4.6H75.2z M77.6,100.6v3.4H79
		c1,0,1.6-0.1,1.9-0.2s0.6-0.3,0.8-0.6c0.2-0.3,0.3-0.6,0.3-0.9c0-0.4-0.1-0.8-0.4-1.1c-0.3-0.3-0.6-0.5-1-0.5
		c-0.3-0.1-0.9-0.1-1.8-0.1H77.6z"/>
	<path class="st0" d="M96.1,110.6h-2.7l-1.1-2.7h-4.8l-1,2.7H84l4.7-12.1h2.6L96.1,110.6z M91.6,105.9l-1.7-4.5l-1.6,4.5H91.6z"/>
	<path class="st0" d="M101.5,110.6V98.5h3.9c1.5,0,2.5,0.1,2.9,0.2c0.7,0.2,1.3,0.6,1.7,1.2c0.5,0.6,0.7,1.4,0.7,2.4
		c0,0.7-0.1,1.4-0.4,1.9c-0.3,0.5-0.6,0.9-1,1.2c-0.4,0.3-0.8,0.5-1.3,0.6c-0.6,0.1-1.4,0.2-2.5,0.2h-1.6v4.6H101.5z M103.9,100.6
		v3.4h1.3c1,0,1.6-0.1,1.9-0.2s0.6-0.3,0.8-0.6c0.2-0.3,0.3-0.6,0.3-0.9c0-0.4-0.1-0.8-0.4-1.1c-0.3-0.3-0.6-0.5-1-0.5
		c-0.3-0.1-0.9-0.1-1.8-0.1H103.9z"/>
	<path class="st0" d="M112.7,110.6V98.5h5.1c1.3,0,2.2,0.1,2.8,0.3c0.6,0.2,1.1,0.6,1.4,1.2c0.4,0.6,0.5,1.2,0.5,1.9
		c0,0.9-0.3,1.7-0.8,2.2s-1.3,1-2.4,1.1c0.5,0.3,1,0.6,1.3,1c0.3,0.4,0.8,1,1.4,2l1.5,2.4h-2.9l-1.8-2.6c-0.6-0.9-1.1-1.5-1.3-1.8
		s-0.5-0.4-0.7-0.5c-0.3-0.1-0.7-0.1-1.2-0.1h-0.5v5H112.7z M115.2,103.7h1.8c1.2,0,1.9,0,2.2-0.1c0.3-0.1,0.5-0.3,0.7-0.5
		c0.2-0.2,0.2-0.5,0.2-0.9c0-0.4-0.1-0.7-0.3-1c-0.2-0.2-0.5-0.4-0.9-0.5c-0.2,0-0.8,0-1.8,0h-1.9V103.7z"/>
	<path class="st0" d="M124.9,110.6V98.5h9v2h-6.5v2.7h6.1v2h-6.1v3.3h6.8v2H124.9z"/>
	<path class="st0" d="M135.6,106.7l2.4-0.2c0.1,0.8,0.4,1.4,0.9,1.8c0.4,0.4,1,0.6,1.8,0.6c0.8,0,1.4-0.2,1.8-0.5
		c0.4-0.3,0.6-0.7,0.6-1.2c0-0.3-0.1-0.5-0.3-0.7c-0.2-0.2-0.5-0.4-0.9-0.5c-0.3-0.1-0.9-0.3-2-0.5c-1.3-0.3-2.2-0.7-2.8-1.2
		c-0.7-0.7-1.1-1.5-1.1-2.4c0-0.6,0.2-1.2,0.5-1.7c0.3-0.5,0.9-0.9,1.5-1.2c0.7-0.3,1.4-0.4,2.4-0.4c1.5,0,2.7,0.3,3.4,1
		c0.8,0.7,1.2,1.6,1.2,2.7l-2.4,0.1c-0.1-0.6-0.3-1.1-0.7-1.3s-0.9-0.4-1.5-0.4c-0.7,0-1.3,0.1-1.7,0.4c-0.3,0.2-0.4,0.4-0.4,0.8
		c0,0.3,0.1,0.5,0.4,0.7c0.3,0.3,1.1,0.5,2.2,0.8s2.1,0.6,2.6,0.9c0.6,0.3,1,0.7,1.3,1.2c0.3,0.5,0.5,1.2,0.5,1.9
		c0,0.7-0.2,1.3-0.6,1.9c-0.4,0.6-0.9,1.1-1.6,1.3c-0.7,0.3-1.6,0.4-2.6,0.4c-1.5,0-2.7-0.4-3.5-1.1
		C136.2,109.1,135.7,108.1,135.6,106.7z"/>
	<path class="st0" d="M147.4,110.6V98.5h9v2h-6.5v2.7h6.1v2h-6.1v3.3h6.8v2H147.4z"/>
	<path class="st0" d="M158.7,110.6V98.5h2.4l4.9,8.1v-8.1h2.3v12.1h-2.4l-4.9-7.9v7.9H158.7z"/>
	<path class="st0" d="M178.6,106.2l2.4,0.8c-0.4,1.3-1,2.3-1.8,2.9c-0.8,0.6-1.9,1-3.2,1c-1.6,0-2.9-0.5-4-1.6s-1.5-2.6-1.5-4.5
		c0-2,0.5-3.6,1.6-4.7s2.4-1.7,4.1-1.7c1.5,0,2.7,0.4,3.6,1.3c0.6,0.5,1,1.3,1.2,2.2l-2.4,0.6c-0.1-0.6-0.4-1.1-0.9-1.5
		c-0.5-0.4-1-0.5-1.7-0.5c-0.9,0-1.6,0.3-2.2,1s-0.8,1.7-0.8,3.1c0,1.5,0.3,2.6,0.8,3.3c0.5,0.6,1.3,1,2.1,1c0.6,0,1.2-0.2,1.7-0.6
		C178.1,107.7,178.4,107.1,178.6,106.2z"/>
	<path class="st0" d="M183,110.6V98.5h2.4v12.1H183z"/>
	<path class="st0" d="M198.7,110.6H196l-1.1-2.7h-4.8l-1,2.7h-2.6l4.7-12.1h2.6L198.7,110.6z M194.2,105.9l-1.7-4.5l-1.6,4.5H194.2z
		"/>
	<path class="st0" d="M200.1,110.6v-12h2.4v10h6.1v2H200.1z"/>
</g>
<path class="st2" d="M118.9,177.2c-1,0-1.8-0.4-2.5-1.1s-0.9-1.6-0.7-2.6l1.1-6.4c0.4-2,1.3-3.7,2.9-5c1.5-1.3,3.3-2,5.4-2
	c2.1,0,3.9,0.7,5.5,2s2.5,3,2.9,5l1.1,6.4c0.2,1,0,1.8-0.7,2.6c-0.6,0.8-1.5,1.1-2.5,1.1H118.9z M120.2,172.9h9.9l-0.9-5.1
	c-0.2-1-0.7-1.8-1.4-2.5s-1.6-1-2.6-1c-1,0-1.9,0.3-2.7,1c-0.8,0.6-1.2,1.5-1.4,2.5L120.2,172.9z M100.8,182.3c-1,0-1.8-0.1-2.5-0.6
	c-0.7-0.4-1.2-1.1-1.4-1.9c-0.1-0.4-0.1-0.8,0-1.1c0.1-0.4,0.2-0.7,0.3-1.1c0,0,0,0-0.1-0.3c0,0-0.2-0.5-0.6-1.5
	c-0.1-0.5,0-1,0.1-1.4s0.5-0.8,0.9-1.2l0.1-0.1c0.1-0.8,0.4-1.5,1-2s1.3-0.8,2.1-0.8c0,0,0.4,0.1,1.1,0.2l0.2-0.1
	c0.2-0.2,0.5-0.3,0.8-0.5s0.7-0.2,1-0.2c0.4,0,0.8,0.1,1.2,0.2c0.4,0.2,0.7,0.4,0.9,0.7c0,0,0.1,0,0.1,0c0,0,0.1,0,0.1,0
	c0.6,0,1.1,0.2,1.5,0.5s0.8,0.7,1,1.2c0.1,0.3,0.1,0.6,0.1,0.9c0,0.3-0.1,0.5-0.2,0.8c0,0.1,0,0.2,0.1,0.2c0.3,0.3,0.5,0.6,0.7,1
	c0.2,0.4,0.2,0.7,0.2,1.1c0,0.1-0.1,0.5-0.4,1.3c0,0.1,0,0.2,0,0.3c0,0.2,0.1,0.5,0.1,1c0,0.9-0.4,1.6-1.1,2.2c-0.7,0.6-1.6,1-2.6,1
	H100.8z M148.5,182.2c-1.4,0-2.6-0.5-3.5-1.5s-1.5-2.2-1.5-3.5c0-0.5,0.1-1,0.2-1.5c0.2-0.5,0.4-0.9,0.6-1.2l-1.8-1.6
	c-0.4-0.4-0.5-0.8-0.2-1.3c0.2-0.5,0.6-0.7,1.1-0.7h5c1.4,0,2.6,0.5,3.5,1.5c1,1,1.5,2.2,1.5,3.5v1.3c0,1.4-0.5,2.6-1.5,3.5
	C151.1,181.7,149.9,182.2,148.5,182.2z M90.9,194.3v-3.8c0-1.9,1-3.4,3-4.5c2-1.1,4.6-1.7,7.7-1.7c0.6,0,1.2,0,1.7,0
	c0.5,0,1,0.1,1.6,0.2c-0.4,0.8-0.7,1.6-0.9,2.5s-0.3,1.7-0.3,2.7v4.6H90.9z M108,194.3v-4.6c0-3.1,1.6-5.6,4.7-7.5
	c3.2-1.9,7.3-2.9,12.4-2.9c5.1,0,9.3,1,12.4,2.9c3.1,1.9,4.7,4.4,4.7,7.5v4.6H108z M148.6,184.3c3.2,0,5.8,0.6,7.8,1.7
	c1.9,1.1,2.9,2.6,2.9,4.5v3.8h-12.8v-4.6c0-1-0.1-1.8-0.2-2.7c-0.2-0.8-0.4-1.7-0.8-2.5c0.5-0.1,1-0.2,1.6-0.2
	C147.5,184.4,148.1,184.3,148.6,184.3z M125.1,183.6c-3.8,0-6.9,0.6-9.3,1.7c-2.4,1.1-3.6,2.6-3.6,4.4v0.4h25.7v-0.4
	c0-1.7-1.2-3.1-3.5-4.3C132.1,184.2,129,183.6,125.1,183.6z"/>
<path class="st6" d="M206.1,418.5H44.1c-13.1,0-23.8-10.7-23.8-23.8V44.1C20.3,31,31,20.3,44.1,20.3h161.9
	c13.1,0,23.8,10.7,23.8,23.8v350.5C229.9,407.8,219.2,418.5,206.1,418.5z"/>
<circle class="st2" cx="125.1" cy="50.4" r="14.8"/>
<g>
	<path class="st0" d="M119.9,54.4l2.9-0.4c0.1,0.7,0.3,1.3,0.7,1.7s0.9,0.6,1.5,0.6c0.6,0,1.1-0.2,1.6-0.7s0.6-1.1,0.6-1.9
		c0-0.8-0.2-1.3-0.6-1.8c-0.4-0.4-0.9-0.7-1.5-0.7c-0.4,0-0.8,0.1-1.4,0.2l0.3-2.4c0.8,0,1.4-0.2,1.8-0.5c0.4-0.4,0.6-0.9,0.6-1.5
		c0-0.5-0.2-0.9-0.5-1.3c-0.3-0.3-0.7-0.5-1.2-0.5c-0.5,0-0.9,0.2-1.3,0.5s-0.6,0.9-0.7,1.5l-2.7-0.5c0.2-0.9,0.5-1.7,0.9-2.3
		c0.4-0.6,0.9-1,1.6-1.3c0.7-0.3,1.5-0.5,2.3-0.5c1.5,0,2.6,0.5,3.5,1.4c0.7,0.8,1.1,1.6,1.1,2.6c0,1.4-0.7,2.5-2.2,3.3
		c0.9,0.2,1.6,0.6,2.1,1.3s0.8,1.5,0.8,2.4c0,1.4-0.5,2.5-1.5,3.5c-1,1-2.2,1.4-3.7,1.4c-1.4,0-2.6-0.4-3.5-1.2
		C120.6,56.8,120,55.8,119.9,54.4z"/>
</g>
<g id="Capa_1-2_00000107571527286591769880000017216828423229550224_">
	<path class="st5" d="M121.1,382c1.1,0.9,2.3,0.1,3.5,0.5c-0.2,0.4-0.4,0.7-0.7,0.9c-1.1,1.1-2.4,1.4-3.9,1.4
		c-0.2,0-0.4-0.3-0.4-0.4c0-0.5-0.3-0.5-0.6-0.6c-0.7-0.2-1.4-0.3-2-0.6c-0.8-0.5-1.7-0.6-2.6-0.6c-0.4,0-0.8,0-1.2,0
		c0.1-0.6,0.1-1.2,0.2-1.7c0.1-0.6,0-1.1-0.2-1.7c-0.3-0.8-0.4-1.6-0.4-2.4c0-0.6-0.1-1-0.9-0.8c0.1-0.6,0.2-1,0.3-1.5
		c0.3-1.3,1.2-2.2,2.2-2.9c0.2-0.1,0.5-0.1,0.7-0.1c0,0.2,0,0.4,0,0.6c0,0.6-0.1,1.2-0.2,1.8c-0.1,0.4-0.1,0.8-0.4,1.1
		c-0.6,0.9,0.2,3.2,1.2,3.4c0.1,0,0.3,0,0.4-0.1c2.5-2,5-4,7.5-6c-0.3-0.3-0.6-0.6-0.9-0.9c-0.5,0.3-0.9,1-1.6,0.4
		c-0.5-0.5,0-1,0.4-1.4c-0.4-0.4-0.6-0.7-1.3-0.6c-1.1,0.2-2.1-0.6-2.3-1.7c-0.2-0.9,0.4-1.8,1.3-2c1.2-0.4,2.7,0.7,2.6,2
		c-0.1,0.8,0.4,1,0.8,1.3c0.4-0.3,0.9-0.9,1.4-0.3c0.4,0.4,0.2,0.9-0.2,1.3c1.3,1.2,0.9,1.2,2.3-0.1c-0.3-0.4-0.6-0.9-0.1-1.3
		c0.5-0.5,1,0,1.4,0.4c0.4-0.4,0.9-0.5,0.8-1.3c-0.1-1,0.9-2,1.9-2c1-0.1,1.8,0.5,2,1.5c0.2,1.2-0.9,2.5-2.3,2.3
		c-0.6-0.1-0.9,0.1-1.3,0.6c0.3,0.4,0.9,0.9,0.3,1.5c-0.6,0.6-1-0.1-1.5-0.4c-0.3,0.3-0.7,0.6-1.1,1c1.3,1,2.5,2,3.7,3
		c1.2,1,2.5,2,3.7,3c0.5,0.4,0.8,0.3,1.2-0.1c0.7-0.7,0.9-1.6,0.9-2.6c0-0.1,0-0.2-0.1-0.2c-0.7-0.6-0.5-1.4-0.6-2.1
		c0-0.4-0.1-0.7-0.1-1.1c0-0.2,0-0.4,0-0.7c0.2,0,0.5,0,0.7,0.2c1,0.7,1.8,1.6,2.2,2.8c0.1,0.5,0.2,1,0.3,1.5
		c-0.9,0.3-0.8,0.3-0.9,1.1c-0.1,0.9-0.5,1.8-0.6,2.7c-0.1,0.7,0,1.4,0.1,2c0,0.3,0.1,0.6,0.1,0.9c-0.8,0-1.5,0-2.2,0
		c-0.4,0-0.8,0.1-1.1,0.3c-0.8,0.5-1.7,0.9-2.6,0.9c-0.4,0-0.5,0.1-0.5,0.5c0,0.2-0.3,0.5-0.4,0.5c-1.5,0-3-0.3-4-1.5
		c-0.2-0.2-0.3-0.5-0.5-0.8c1.1-0.5,2.4,0.3,3.4-0.5c0.6,0.8,1.2,0.5,1.9,0.2c0.5-0.2,0.9-0.5,1.3-0.9c0.6-0.5,0.6-0.8,0-1.3
		c-1.3-1.2-2.7-2.4-4-3.6c-1.1-1-2.1-2-3.2-3c-1.8,1.7-3.6,3.3-5.4,5c-0.6,0.5-1.2,1.1-1.8,1.6c-0.5,0.5-0.5,0.8,0,1.2
		c0.5,0.4,1.1,0.8,1.7,1.1C120.1,382.6,120.8,382.9,121.1,382L121.1,382z M130.4,368.6c-0.1,0.1-0.2,0.2-0.3,0.3
		c0.8-0.2,1.2-0.6,1.1-1.1c-0.1-0.5-0.4-0.7-0.8-0.8c-0.5-0.1-0.9,0.3-1.1,1.1c0.1-0.1,0.2-0.2,0.4-0.4
		C129.9,368,130.1,368.3,130.4,368.6L130.4,368.6z M120,369c0.3-0.3,0.6-0.6,0.9-0.9c-0.3-0.7-0.6-1-1.1-0.9
		c-0.4,0.1-0.7,0.3-0.7,0.8C118.9,368.4,119.2,368.7,120,369L120,369z"/>
</g>
<g>
	<path class="st5" d="M46.8,258.4v-10.7H49v10.7H46.8z"/>
	<path class="st5" d="M58.1,258.4H56v-4c0-0.8,0-1.4-0.1-1.6c-0.1-0.2-0.2-0.4-0.4-0.6c-0.2-0.1-0.4-0.2-0.7-0.2
		c-0.4,0-0.7,0.1-1,0.3s-0.5,0.5-0.6,0.8c-0.1,0.3-0.2,0.9-0.2,1.8v3.5H51v-7.8h1.9v1.1c0.7-0.9,1.5-1.3,2.6-1.3
		c0.5,0,0.9,0.1,1.2,0.2c0.4,0.2,0.7,0.4,0.9,0.6c0.2,0.3,0.3,0.5,0.4,0.9c0.1,0.3,0.1,0.8,0.1,1.4V258.4z"/>
	<path class="st5" d="M63.7,250.6v1.6h-1.4v3.1c0,0.6,0,1,0,1.1c0,0.1,0.1,0.2,0.2,0.3c0.1,0.1,0.2,0.1,0.3,0.1
		c0.2,0,0.5-0.1,0.8-0.2l0.2,1.6c-0.5,0.2-1,0.3-1.6,0.3c-0.4,0-0.7-0.1-1-0.2c-0.3-0.1-0.5-0.3-0.7-0.5c-0.1-0.2-0.2-0.5-0.3-0.8
		c0-0.2-0.1-0.7-0.1-1.5v-3.4h-0.9v-1.6h0.9v-1.5l2.1-1.2v2.7H63.7z"/>
	<path class="st5" d="M69.7,255.9l2.1,0.3c-0.3,0.8-0.7,1.3-1.2,1.7c-0.6,0.4-1.3,0.6-2.1,0.6c-1.4,0-2.4-0.4-3-1.3
		c-0.5-0.7-0.8-1.6-0.8-2.7c0-1.3,0.3-2.3,1-3c0.7-0.7,1.5-1.1,2.6-1.1c1.2,0,2.1,0.4,2.7,1.1c0.7,0.8,1,1.9,1,3.5h-5.2
		c0,0.6,0.2,1.1,0.5,1.4c0.3,0.3,0.7,0.5,1.2,0.5c0.3,0,0.6-0.1,0.8-0.3S69.6,256.3,69.7,255.9z M69.8,253.8c0-0.6-0.2-1-0.5-1.4
		c-0.3-0.3-0.6-0.5-1.1-0.5c-0.4,0-0.8,0.2-1.1,0.5s-0.4,0.8-0.4,1.3H69.8z"/>
	<path class="st5" d="M73.5,258.4v-10.7h2.1v10.7H73.5z"/>
	<path class="st5" d="M82.2,255.9l2.1,0.3c-0.3,0.8-0.7,1.3-1.2,1.7c-0.6,0.4-1.3,0.6-2.1,0.6c-1.4,0-2.4-0.4-3-1.3
		c-0.5-0.7-0.8-1.6-0.8-2.7c0-1.3,0.3-2.3,1-3c0.7-0.7,1.5-1.1,2.6-1.1c1.2,0,2.1,0.4,2.7,1.1c0.7,0.8,1,1.9,1,3.5h-5.2
		c0,0.6,0.2,1.1,0.5,1.4c0.3,0.3,0.7,0.5,1.2,0.5c0.3,0,0.6-0.1,0.8-0.3S82.1,256.3,82.2,255.9z M82.3,253.8c0-0.6-0.2-1-0.5-1.4
		c-0.3-0.3-0.6-0.5-1.1-0.5c-0.4,0-0.8,0.2-1.1,0.5s-0.4,0.8-0.4,1.3H82.3z"/>
	<path class="st5" d="M92.8,252.9l-2,0.4c-0.1-0.4-0.2-0.7-0.5-0.9c-0.2-0.2-0.6-0.3-0.9-0.3c-0.5,0-0.9,0.2-1.2,0.5
		c-0.3,0.4-0.5,0.9-0.5,1.8c0,0.9,0.2,1.6,0.5,2c0.3,0.4,0.7,0.6,1.2,0.6c0.4,0,0.7-0.1,1-0.3c0.2-0.2,0.4-0.6,0.5-1.1l2,0.3
		c-0.2,0.9-0.6,1.6-1.2,2.1s-1.4,0.7-2.4,0.7c-1.1,0-2-0.4-2.7-1.1c-0.7-0.7-1-1.7-1-3c0-1.3,0.3-2.3,1-3c0.7-0.7,1.6-1.1,2.8-1.1
		c0.9,0,1.7,0.2,2.3,0.6C92.2,251.5,92.6,252.1,92.8,252.9z"/>
	<path class="st5" d="M97.9,250.6v1.6h-1.4v3.1c0,0.6,0,1,0,1.1c0,0.1,0.1,0.2,0.2,0.3c0.1,0.1,0.2,0.1,0.3,0.1
		c0.2,0,0.5-0.1,0.8-0.2l0.2,1.6c-0.5,0.2-1,0.3-1.6,0.3c-0.4,0-0.7-0.1-1-0.2c-0.3-0.1-0.5-0.3-0.7-0.5c-0.1-0.2-0.2-0.5-0.3-0.8
		c0-0.2-0.1-0.7-0.1-1.5v-3.4h-0.9v-1.6h0.9v-1.5l2.1-1.2v2.7H97.9z"/>
	<path class="st5" d="M104.5,258.4v-1.2c-0.3,0.4-0.7,0.7-1.1,1c-0.5,0.2-0.9,0.4-1.5,0.4c-0.5,0-1-0.1-1.4-0.3s-0.7-0.6-0.9-1
		s-0.3-1-0.3-1.7v-4.9h2.1v3.6c0,1.1,0,1.8,0.1,2c0.1,0.2,0.2,0.4,0.4,0.6c0.2,0.1,0.5,0.2,0.8,0.2c0.4,0,0.7-0.1,0.9-0.3
		c0.3-0.2,0.5-0.4,0.6-0.7c0.1-0.3,0.2-1,0.2-2.1v-3.3h2.1v7.8H104.5z"/>
	<path class="st5" d="M110.1,253l-1.9-0.3c0.2-0.8,0.6-1.3,1.1-1.7s1.3-0.5,2.3-0.5c0.9,0,1.6,0.1,2.1,0.3c0.4,0.2,0.8,0.5,0.9,0.8
		c0.2,0.3,0.3,0.9,0.3,1.8l0,2.4c0,0.7,0,1.2,0.1,1.5c0.1,0.3,0.2,0.7,0.4,1h-2c-0.1-0.1-0.1-0.3-0.2-0.6c0-0.1-0.1-0.2-0.1-0.2
		c-0.4,0.3-0.7,0.6-1.1,0.8s-0.8,0.3-1.3,0.3c-0.8,0-1.4-0.2-1.9-0.7c-0.5-0.4-0.7-1-0.7-1.6c0-0.4,0.1-0.8,0.3-1.2
		c0.2-0.3,0.5-0.6,0.9-0.8c0.4-0.2,0.9-0.3,1.6-0.5c1-0.2,1.6-0.3,2-0.5v-0.2c0-0.4-0.1-0.7-0.3-0.8c-0.2-0.2-0.6-0.3-1.1-0.3
		c-0.4,0-0.7,0.1-0.9,0.2C110.3,252.4,110.2,252.6,110.1,253z M112.8,254.7c-0.3,0.1-0.7,0.2-1.3,0.3s-0.9,0.2-1.1,0.4
		c-0.3,0.2-0.4,0.4-0.4,0.7c0,0.3,0.1,0.5,0.3,0.7s0.5,0.3,0.8,0.3c0.4,0,0.7-0.1,1.1-0.4c0.2-0.2,0.4-0.4,0.5-0.7
		c0.1-0.2,0.1-0.5,0.1-1V254.7z"/>
	<path class="st5" d="M116.9,258.4v-10.7h2.1v10.7H116.9z"/>
	<path class="st5" d="M46.9,276.4v-10.7h3.5c1.3,0,2.2,0.1,2.6,0.2c0.6,0.2,1.1,0.5,1.5,1.1c0.4,0.5,0.6,1.2,0.6,2.1
		c0,0.7-0.1,1.2-0.4,1.7s-0.5,0.8-0.9,1.1c-0.4,0.3-0.7,0.4-1.1,0.5c-0.5,0.1-1.3,0.2-2.2,0.2H49v4.1H46.9z M49,267.5v3h1.2
		c0.9,0,1.4-0.1,1.7-0.2c0.3-0.1,0.5-0.3,0.7-0.5c0.2-0.2,0.2-0.5,0.2-0.8c0-0.4-0.1-0.7-0.3-1s-0.5-0.4-0.9-0.5
		c-0.3,0-0.8-0.1-1.6-0.1H49z"/>
	<path class="st5" d="M56.1,274.2l2.1-0.3c0.1,0.4,0.3,0.7,0.5,0.9c0.3,0.2,0.6,0.3,1.1,0.3c0.5,0,0.9-0.1,1.2-0.3
		c0.2-0.1,0.3-0.3,0.3-0.5c0-0.2,0-0.3-0.1-0.4c-0.1-0.1-0.3-0.2-0.7-0.3c-1.7-0.4-2.7-0.7-3.2-1c-0.6-0.4-0.9-1-0.9-1.8
		c0-0.7,0.3-1.2,0.8-1.7s1.4-0.7,2.5-0.7c1.1,0,1.9,0.2,2.4,0.5s0.9,0.9,1.1,1.5l-1.9,0.4c-0.1-0.3-0.2-0.5-0.5-0.7
		c-0.2-0.2-0.6-0.2-1-0.2c-0.5,0-0.9,0.1-1.2,0.2c-0.2,0.1-0.2,0.2-0.2,0.4c0,0.1,0.1,0.3,0.2,0.4c0.2,0.1,0.8,0.3,1.9,0.6
		c1.1,0.2,1.9,0.6,2.3,0.9c0.4,0.4,0.6,0.9,0.6,1.5c0,0.7-0.3,1.3-0.9,1.8c-0.6,0.5-1.5,0.8-2.6,0.8c-1.1,0-1.9-0.2-2.5-0.6
		C56.7,275.5,56.3,274.9,56.1,274.2z"/>
	<path class="st5" d="M65.2,267.6v-1.9h2.1v1.9H65.2z M65.2,276.4v-7.8h2.1v7.8H65.2z"/>
	<path class="st5" d="M76.1,270.9l-2,0.4c-0.1-0.4-0.2-0.7-0.5-0.9c-0.2-0.2-0.6-0.3-0.9-0.3c-0.5,0-0.9,0.2-1.2,0.5
		c-0.3,0.4-0.5,0.9-0.5,1.8c0,0.9,0.2,1.6,0.5,2c0.3,0.4,0.7,0.6,1.2,0.6c0.4,0,0.7-0.1,1-0.3c0.2-0.2,0.4-0.6,0.5-1.1l2,0.3
		c-0.2,0.9-0.6,1.6-1.2,2.1c-0.6,0.5-1.4,0.7-2.4,0.7c-1.1,0-2-0.4-2.7-1.1c-0.7-0.7-1-1.7-1-3c0-1.3,0.3-2.3,1-3
		c0.7-0.7,1.6-1.1,2.8-1.1c0.9,0,1.7,0.2,2.3,0.6C75.5,269.5,75.9,270.1,76.1,270.9z"/>
	<path class="st5" d="M77.2,272.4c0-0.7,0.2-1.3,0.5-2c0.3-0.6,0.8-1.1,1.4-1.5c0.6-0.3,1.3-0.5,2.1-0.5c1.2,0,2.1,0.4,2.9,1.1
		c0.8,0.8,1.1,1.7,1.1,2.9c0,1.2-0.4,2.2-1.1,2.9c-0.8,0.8-1.7,1.2-2.9,1.2c-0.7,0-1.4-0.2-2-0.5c-0.6-0.3-1.1-0.8-1.5-1.4
		C77.4,274,77.2,273.3,77.2,272.4z M79.3,272.5c0,0.8,0.2,1.4,0.5,1.8s0.8,0.6,1.4,0.6s1-0.2,1.4-0.6c0.4-0.4,0.5-1,0.5-1.8
		c0-0.8-0.2-1.3-0.5-1.8c-0.4-0.4-0.8-0.6-1.4-0.6s-1,0.2-1.4,0.6S79.3,271.7,79.3,272.5z"/>
	<path class="st5" d="M90.4,268.6v1.6H89v3.1c0,0.6,0,1,0,1.1c0,0.1,0.1,0.2,0.2,0.3c0.1,0.1,0.2,0.1,0.3,0.1c0.2,0,0.5-0.1,0.8-0.2
		l0.2,1.6c-0.5,0.2-1,0.3-1.6,0.3c-0.4,0-0.7-0.1-1-0.2c-0.3-0.1-0.5-0.3-0.7-0.5c-0.1-0.2-0.2-0.5-0.3-0.8c0-0.2-0.1-0.7-0.1-1.4
		v-3.4H86v-1.6H87v-1.5l2.1-1.2v2.7H90.4z"/>
	<path class="st5" d="M96.4,273.9l2.1,0.3c-0.3,0.8-0.7,1.3-1.2,1.7c-0.6,0.4-1.3,0.6-2.1,0.6c-1.4,0-2.4-0.4-3-1.3
		c-0.5-0.7-0.8-1.6-0.8-2.7c0-1.3,0.3-2.3,1-3c0.7-0.7,1.5-1.1,2.6-1.1c1.2,0,2.1,0.4,2.7,1.1c0.7,0.8,1,1.9,1,3.5h-5.2
		c0,0.6,0.2,1.1,0.5,1.4c0.3,0.3,0.7,0.5,1.2,0.5c0.3,0,0.6-0.1,0.8-0.3S96.2,274.3,96.4,273.9z M96.5,271.8c0-0.6-0.2-1-0.5-1.4
		c-0.3-0.3-0.6-0.5-1.1-0.5c-0.4,0-0.8,0.2-1.1,0.5s-0.4,0.8-0.4,1.3H96.5z M93.8,267.7l1-2.2h2.3l-2,2.2H93.8z"/>
	<path class="st5" d="M107,270.9l-2,0.4c-0.1-0.4-0.2-0.7-0.5-0.9c-0.2-0.2-0.6-0.3-0.9-0.3c-0.5,0-0.9,0.2-1.2,0.5
		c-0.3,0.4-0.5,0.9-0.5,1.8c0,0.9,0.2,1.6,0.5,2c0.3,0.4,0.7,0.6,1.2,0.6c0.4,0,0.7-0.1,1-0.3c0.2-0.2,0.4-0.6,0.5-1.1l2,0.3
		c-0.2,0.9-0.6,1.6-1.2,2.1c-0.6,0.5-1.4,0.7-2.4,0.7c-1.1,0-2-0.4-2.7-1.1c-0.7-0.7-1-1.7-1-3c0-1.3,0.3-2.3,1-3
		c0.7-0.7,1.6-1.1,2.8-1.1c0.9,0,1.7,0.2,2.3,0.6C106.3,269.5,106.7,270.1,107,270.9z"/>
	<path class="st5" d="M115.6,276.4h-2.1v-4c0-0.8,0-1.4-0.1-1.6c-0.1-0.2-0.2-0.4-0.4-0.6c-0.2-0.1-0.4-0.2-0.7-0.2
		c-0.4,0-0.7,0.1-1,0.3s-0.5,0.5-0.6,0.8c-0.1,0.3-0.2,0.9-0.2,1.8v3.5h-2.1v-7.8h1.9v1.1c0.7-0.9,1.5-1.3,2.6-1.3
		c0.5,0,0.9,0.1,1.2,0.2c0.4,0.2,0.7,0.4,0.9,0.6c0.2,0.3,0.3,0.5,0.4,0.9c0.1,0.3,0.1,0.8,0.1,1.4V276.4z"/>
	<path class="st5" d="M117.7,267.6v-1.9h2.1v1.9H117.7z M117.7,276.4v-7.8h2.1v7.8H117.7z"/>
	<path class="st5" d="M128.7,270.9l-2,0.4c-0.1-0.4-0.2-0.7-0.5-0.9c-0.2-0.2-0.6-0.3-0.9-0.3c-0.5,0-0.9,0.2-1.2,0.5
		c-0.3,0.4-0.5,0.9-0.5,1.8c0,0.9,0.2,1.6,0.5,2c0.3,0.4,0.7,0.6,1.2,0.6c0.4,0,0.7-0.1,1-0.3c0.2-0.2,0.4-0.6,0.5-1.1l2,0.3
		c-0.2,0.9-0.6,1.6-1.2,2.1c-0.6,0.5-1.4,0.7-2.4,0.7c-1.1,0-2-0.4-2.7-1.1c-0.7-0.7-1-1.7-1-3c0-1.3,0.3-2.3,1-3
		c0.7-0.7,1.6-1.1,2.8-1.1c0.9,0,1.7,0.2,2.3,0.6C128,269.5,128.4,270.1,128.7,270.9z"/>
	<path class="st5" d="M129.7,272.4c0-0.7,0.2-1.3,0.5-2c0.3-0.6,0.8-1.1,1.4-1.5c0.6-0.3,1.3-0.5,2.1-0.5c1.2,0,2.1,0.4,2.9,1.1
		c0.8,0.8,1.1,1.7,1.1,2.9c0,1.2-0.4,2.2-1.1,2.9c-0.8,0.8-1.7,1.2-2.9,1.2c-0.7,0-1.4-0.2-2-0.5c-0.6-0.3-1.1-0.8-1.5-1.4
		C129.9,274,129.7,273.3,129.7,272.4z M131.8,272.5c0,0.8,0.2,1.4,0.5,1.8s0.8,0.6,1.4,0.6s1-0.2,1.4-0.6c0.4-0.4,0.5-1,0.5-1.8
		c0-0.8-0.2-1.3-0.5-1.8c-0.4-0.4-0.8-0.6-1.4-0.6s-1,0.2-1.4,0.6S131.8,271.7,131.8,272.5z"/>
	<path class="st5" d="M46.9,294.4v-10.7h8v1.8H49v2.4h5.4v1.8H49v2.9h6v1.8H46.9z"/>
	<path class="st5" d="M63.9,294.4h-2.1v-4c0-0.8,0-1.4-0.1-1.6c-0.1-0.2-0.2-0.4-0.4-0.6c-0.2-0.1-0.4-0.2-0.7-0.2
		c-0.4,0-0.7,0.1-1,0.3s-0.5,0.5-0.6,0.8c-0.1,0.3-0.2,0.9-0.2,1.8v3.5h-2.1v-7.8h1.9v1.1c0.7-0.9,1.5-1.3,2.6-1.3
		c0.5,0,0.9,0.1,1.2,0.2c0.4,0.2,0.7,0.4,0.9,0.6c0.2,0.3,0.3,0.5,0.4,0.9c0.1,0.3,0.1,0.8,0.1,1.4V294.4z"/>
	<path class="st5" d="M69.6,286.6v1.6h-1.4v3.1c0,0.6,0,1,0,1.1c0,0.1,0.1,0.2,0.2,0.3c0.1,0.1,0.2,0.1,0.3,0.1
		c0.2,0,0.5-0.1,0.8-0.2l0.2,1.6c-0.5,0.2-1,0.3-1.6,0.3c-0.4,0-0.7-0.1-1-0.2c-0.3-0.1-0.5-0.3-0.7-0.5c-0.1-0.2-0.2-0.5-0.3-0.8
		c0-0.2-0.1-0.7-0.1-1.4v-3.4h-0.9v-1.6h0.9v-1.5l2.1-1.2v2.7H69.6z"/>
	<path class="st5" d="M73,294.4h-2.1v-7.8h1.9v1.1c0.3-0.5,0.6-0.9,0.9-1c0.3-0.2,0.6-0.2,0.9-0.2c0.5,0,0.9,0.1,1.4,0.4l-0.6,1.8
		c-0.3-0.2-0.7-0.3-1-0.3c-0.3,0-0.5,0.1-0.7,0.2c-0.2,0.2-0.4,0.4-0.5,0.9c-0.1,0.4-0.2,1.3-0.2,2.6V294.4z"/>
	<path class="st5" d="M81.3,291.9l2.1,0.3c-0.3,0.8-0.7,1.3-1.2,1.7c-0.6,0.4-1.3,0.6-2.1,0.6c-1.4,0-2.4-0.4-3-1.3
		c-0.5-0.7-0.8-1.6-0.8-2.7c0-1.3,0.3-2.3,1-3c0.7-0.7,1.5-1.1,2.6-1.1c1.2,0,2.1,0.4,2.7,1.1c0.7,0.8,1,1.9,1,3.5h-5.2
		c0,0.6,0.2,1.1,0.5,1.4c0.3,0.3,0.7,0.5,1.2,0.5c0.3,0,0.6-0.1,0.8-0.3S81.2,292.3,81.3,291.9z M81.5,289.8c0-0.6-0.2-1-0.5-1.4
		c-0.3-0.3-0.6-0.5-1.1-0.5c-0.4,0-0.8,0.2-1.1,0.5s-0.4,0.8-0.4,1.3H81.5z"/>
	<path class="st5" d="M87.3,294.4l-3.1-7.8h2.2l1.5,4l0.4,1.3c0.1-0.3,0.2-0.6,0.2-0.7c0.1-0.2,0.1-0.4,0.2-0.7l1.5-4h2.1l-3.1,7.8
		H87.3z"/>
	<path class="st5" d="M93.5,285.6v-1.9h2.1v1.9H93.5z M93.5,294.4v-7.8h2.1v7.8H93.5z"/>
	<path class="st5" d="M97,292.2l2.1-0.3c0.1,0.4,0.3,0.7,0.5,0.9c0.3,0.2,0.6,0.3,1.1,0.3c0.5,0,0.9-0.1,1.2-0.3
		c0.2-0.1,0.3-0.3,0.3-0.5c0-0.2,0-0.3-0.1-0.4c-0.1-0.1-0.3-0.2-0.7-0.3c-1.7-0.4-2.7-0.7-3.2-1c-0.6-0.4-0.9-1-0.9-1.8
		c0-0.7,0.3-1.2,0.8-1.7s1.4-0.7,2.5-0.7c1.1,0,1.9,0.2,2.4,0.5s0.9,0.9,1.1,1.5l-1.9,0.4c-0.1-0.3-0.2-0.5-0.5-0.7
		c-0.2-0.2-0.6-0.2-1-0.2c-0.5,0-0.9,0.1-1.2,0.2c-0.2,0.1-0.2,0.2-0.2,0.4c0,0.1,0.1,0.3,0.2,0.4c0.2,0.1,0.8,0.3,1.9,0.6
		c1.1,0.2,1.9,0.6,2.3,0.9c0.4,0.4,0.6,0.9,0.6,1.5c0,0.7-0.3,1.3-0.9,1.8c-0.6,0.5-1.5,0.8-2.6,0.8c-1.1,0-1.9-0.2-2.5-0.6
		C97.6,293.5,97.2,292.9,97,292.2z"/>
	<path class="st5" d="M109.6,286.6v1.6h-1.4v3.1c0,0.6,0,1,0,1.1c0,0.1,0.1,0.2,0.2,0.3c0.1,0.1,0.2,0.1,0.3,0.1
		c0.2,0,0.5-0.1,0.8-0.2l0.2,1.6c-0.5,0.2-1,0.3-1.6,0.3c-0.4,0-0.7-0.1-1-0.2c-0.3-0.1-0.5-0.3-0.7-0.5c-0.1-0.2-0.2-0.5-0.3-0.8
		c0-0.2-0.1-0.7-0.1-1.4v-3.4h-0.9v-1.6h0.9v-1.5l2.1-1.2v2.7H109.6z"/>
	<path class="st5" d="M112.6,289l-1.9-0.3c0.2-0.8,0.6-1.3,1.1-1.7s1.3-0.5,2.3-0.5c0.9,0,1.6,0.1,2.1,0.3c0.4,0.2,0.8,0.5,0.9,0.8
		c0.2,0.3,0.3,0.9,0.3,1.8l0,2.4c0,0.7,0,1.2,0.1,1.5c0.1,0.3,0.2,0.7,0.4,1h-2c-0.1-0.1-0.1-0.3-0.2-0.6c0-0.1-0.1-0.2-0.1-0.2
		c-0.4,0.3-0.7,0.6-1.1,0.8c-0.4,0.2-0.8,0.3-1.3,0.3c-0.8,0-1.4-0.2-1.9-0.7c-0.5-0.4-0.7-1-0.7-1.6c0-0.4,0.1-0.8,0.3-1.2
		c0.2-0.3,0.5-0.6,0.9-0.8c0.4-0.2,0.9-0.3,1.6-0.5c1-0.2,1.6-0.3,2-0.5v-0.2c0-0.4-0.1-0.7-0.3-0.8c-0.2-0.2-0.6-0.3-1.1-0.3
		c-0.4,0-0.7,0.1-0.9,0.2C112.9,288.4,112.7,288.6,112.6,289z M115.3,290.7c-0.3,0.1-0.7,0.2-1.3,0.3s-0.9,0.2-1.1,0.4
		c-0.3,0.2-0.4,0.4-0.4,0.7c0,0.3,0.1,0.5,0.3,0.7c0.2,0.2,0.5,0.3,0.8,0.3c0.4,0,0.7-0.1,1.1-0.4c0.2-0.2,0.4-0.4,0.5-0.7
		c0.1-0.2,0.1-0.5,0.1-1V290.7z"/>
	<path class="st5" d="M123.5,286.6h1.9v1.1c0.2-0.4,0.6-0.7,1-1s0.9-0.4,1.4-0.4c0.9,0,1.7,0.4,2.3,1.1c0.6,0.7,0.9,1.7,0.9,3
		c0,1.3-0.3,2.3-1,3c-0.6,0.7-1.4,1.1-2.3,1.1c-0.4,0-0.8-0.1-1.2-0.3c-0.3-0.2-0.7-0.5-1.1-0.9v3.9h-2.1V286.6z M125.5,290.4
		c0,0.9,0.2,1.5,0.5,1.9c0.3,0.4,0.8,0.6,1.3,0.6c0.5,0,0.9-0.2,1.2-0.6c0.3-0.4,0.5-1,0.5-1.9c0-0.8-0.2-1.4-0.5-1.8
		c-0.3-0.4-0.7-0.6-1.2-0.6c-0.5,0-0.9,0.2-1.3,0.6C125.7,289,125.5,289.6,125.5,290.4z"/>
	<path class="st5" d="M132,292.2l2.1-0.3c0.1,0.4,0.3,0.7,0.5,0.9c0.3,0.2,0.6,0.3,1.1,0.3c0.5,0,0.9-0.1,1.2-0.3
		c0.2-0.1,0.3-0.3,0.3-0.5c0-0.2,0-0.3-0.1-0.4c-0.1-0.1-0.3-0.2-0.7-0.3c-1.7-0.4-2.7-0.7-3.2-1c-0.6-0.4-0.9-1-0.9-1.8
		c0-0.7,0.3-1.2,0.8-1.7s1.4-0.7,2.5-0.7c1.1,0,1.9,0.2,2.4,0.5s0.9,0.9,1.1,1.5l-1.9,0.4c-0.1-0.3-0.2-0.5-0.5-0.7
		c-0.2-0.2-0.6-0.2-1-0.2c-0.5,0-0.9,0.1-1.2,0.2c-0.2,0.1-0.2,0.2-0.2,0.4c0,0.1,0.1,0.3,0.2,0.4c0.2,0.1,0.8,0.3,1.9,0.6
		c1.1,0.2,1.9,0.6,2.3,0.9c0.4,0.4,0.6,0.9,0.6,1.5c0,0.7-0.3,1.3-0.9,1.8c-0.6,0.5-1.5,0.8-2.6,0.8c-1.1,0-1.9-0.2-2.5-0.6
		C132.6,293.5,132.2,292.9,132,292.2z"/>
	<path class="st5" d="M141,285.6v-1.9h2.1v1.9H141z M141,294.4v-7.8h2.1v7.8H141z"/>
	<path class="st5" d="M152,288.9l-2,0.4c-0.1-0.4-0.2-0.7-0.5-0.9c-0.2-0.2-0.6-0.3-0.9-0.3c-0.5,0-0.9,0.2-1.2,0.5
		c-0.3,0.4-0.5,0.9-0.5,1.8c0,0.9,0.2,1.6,0.5,2c0.3,0.4,0.7,0.6,1.2,0.6c0.4,0,0.7-0.1,1-0.3c0.2-0.2,0.4-0.6,0.5-1.1l2,0.3
		c-0.2,0.9-0.6,1.6-1.2,2.1c-0.6,0.5-1.4,0.7-2.4,0.7c-1.1,0-2-0.4-2.7-1.1c-0.7-0.7-1-1.7-1-3c0-1.3,0.3-2.3,1-3
		c0.7-0.7,1.6-1.1,2.8-1.1c0.9,0,1.7,0.2,2.3,0.6C151.3,287.5,151.7,288.1,152,288.9z"/>
	<path class="st5" d="M153.1,290.4c0-0.7,0.2-1.3,0.5-2c0.3-0.6,0.8-1.1,1.4-1.5c0.6-0.3,1.3-0.5,2.1-0.5c1.2,0,2.1,0.4,2.9,1.1
		c0.8,0.8,1.1,1.7,1.1,2.9c0,1.2-0.4,2.2-1.1,2.9c-0.8,0.8-1.7,1.2-2.9,1.2c-0.7,0-1.4-0.2-2-0.5c-0.6-0.3-1.1-0.8-1.5-1.4
		C153.2,292,153.1,291.3,153.1,290.4z M155.2,290.5c0,0.8,0.2,1.4,0.5,1.8c0.4,0.4,0.8,0.6,1.4,0.6s1-0.2,1.4-0.6
		c0.4-0.4,0.5-1,0.5-1.8c0-0.8-0.2-1.3-0.5-1.8c-0.4-0.4-0.8-0.6-1.4-0.6s-1,0.2-1.4,0.6C155.4,289.1,155.2,289.7,155.2,290.5z"/>
	<path class="st5" d="M162.7,294.4v-10.7h2.1v10.7H162.7z"/>
	<path class="st5" d="M166.4,290.4c0-0.7,0.2-1.3,0.5-2c0.3-0.6,0.8-1.1,1.4-1.5c0.6-0.3,1.3-0.5,2.1-0.5c1.2,0,2.1,0.4,2.9,1.1
		c0.8,0.8,1.1,1.7,1.1,2.9c0,1.2-0.4,2.2-1.1,2.9c-0.8,0.8-1.7,1.2-2.9,1.2c-0.7,0-1.4-0.2-2-0.5c-0.6-0.3-1.1-0.8-1.5-1.4
		C166.6,292,166.4,291.3,166.4,290.4z M168.5,290.5c0,0.8,0.2,1.4,0.5,1.8c0.4,0.4,0.8,0.6,1.4,0.6s1-0.2,1.4-0.6
		c0.4-0.4,0.5-1,0.5-1.8c0-0.8-0.2-1.3-0.5-1.8c-0.4-0.4-0.8-0.6-1.4-0.6s-1,0.2-1.4,0.6C168.7,289.1,168.5,289.7,168.5,290.5z
		 M169.4,285.7l1-2.2h2.3l-2,2.2H169.4z"/>
	<path class="st5" d="M175.9,294.9l2.4,0.3c0,0.3,0.1,0.5,0.3,0.6c0.2,0.1,0.5,0.2,0.9,0.2c0.5,0,0.9-0.1,1.2-0.2
		c0.2-0.1,0.3-0.3,0.4-0.5c0.1-0.2,0.1-0.5,0.1-0.9v-1.1c-0.6,0.8-1.4,1.3-2.3,1.3c-1,0-1.9-0.4-2.5-1.3c-0.5-0.7-0.7-1.6-0.7-2.6
		c0-1.3,0.3-2.3,0.9-3c0.6-0.7,1.4-1,2.3-1c1,0,1.8,0.4,2.4,1.3v-1.1h1.9v7c0,0.9-0.1,1.6-0.2,2.1c-0.2,0.5-0.4,0.8-0.6,1.1
		s-0.6,0.5-1.1,0.6c-0.5,0.1-1,0.2-1.7,0.2c-1.3,0-2.3-0.2-2.8-0.7c-0.6-0.5-0.8-1-0.8-1.7C175.8,295.1,175.8,295,175.9,294.9z
		 M177.7,290.3c0,0.8,0.2,1.4,0.5,1.8c0.3,0.4,0.7,0.6,1.2,0.6c0.5,0,0.9-0.2,1.3-0.6c0.3-0.4,0.5-1,0.5-1.7c0-0.8-0.2-1.4-0.5-1.8
		s-0.8-0.6-1.3-0.6c-0.5,0-0.9,0.2-1.2,0.6C177.9,289,177.7,289.6,177.7,290.3z"/>
	<path class="st5" d="M185.2,285.6v-1.9h2.1v1.9H185.2z M185.2,294.4v-7.8h2.1v7.8H185.2z"/>
	<path class="st5" d="M196.2,288.9l-2,0.4c-0.1-0.4-0.2-0.7-0.5-0.9c-0.2-0.2-0.6-0.3-0.9-0.3c-0.5,0-0.9,0.2-1.2,0.5
		c-0.3,0.4-0.5,0.9-0.5,1.8c0,0.9,0.2,1.6,0.5,2c0.3,0.4,0.7,0.6,1.2,0.6c0.4,0,0.7-0.1,1-0.3c0.2-0.2,0.4-0.6,0.5-1.1l2,0.3
		c-0.2,0.9-0.6,1.6-1.2,2.1c-0.6,0.5-1.4,0.7-2.4,0.7c-1.1,0-2-0.4-2.7-1.1c-0.7-0.7-1-1.7-1-3c0-1.3,0.3-2.3,1-3
		c0.7-0.7,1.6-1.1,2.8-1.1c0.9,0,1.7,0.2,2.3,0.6C195.5,287.5,195.9,288.1,196.2,288.9z"/>
	<path class="st5" d="M199.3,289l-1.9-0.3c0.2-0.8,0.6-1.3,1.1-1.7s1.3-0.5,2.3-0.5c0.9,0,1.6,0.1,2.1,0.3c0.4,0.2,0.8,0.5,0.9,0.8
		c0.2,0.3,0.3,0.9,0.3,1.8l0,2.4c0,0.7,0,1.2,0.1,1.5c0.1,0.3,0.2,0.7,0.4,1h-2c-0.1-0.1-0.1-0.3-0.2-0.6c0-0.1-0.1-0.2-0.1-0.2
		c-0.4,0.3-0.7,0.6-1.1,0.8c-0.4,0.2-0.8,0.3-1.3,0.3c-0.8,0-1.4-0.2-1.9-0.7c-0.5-0.4-0.7-1-0.7-1.6c0-0.4,0.1-0.8,0.3-1.2
		c0.2-0.3,0.5-0.6,0.9-0.8c0.4-0.2,0.9-0.3,1.6-0.5c1-0.2,1.6-0.3,2-0.5v-0.2c0-0.4-0.1-0.7-0.3-0.8c-0.2-0.2-0.6-0.3-1.1-0.3
		c-0.4,0-0.7,0.1-0.9,0.2C199.5,288.4,199.4,288.6,199.3,289z M202,290.7c-0.3,0.1-0.7,0.2-1.3,0.3s-0.9,0.2-1.1,0.4
		c-0.3,0.2-0.4,0.4-0.4,0.7c0,0.3,0.1,0.5,0.3,0.7c0.2,0.2,0.5,0.3,0.8,0.3c0.4,0,0.7-0.1,1.1-0.4c0.2-0.2,0.4-0.4,0.5-0.7
		c0.1-0.2,0.1-0.5,0.1-1V290.7z"/>
	<path class="st5" d="M46.8,312.4v-10.7h3.2L52,309l1.9-7.3h3.3v10.7h-2v-8.5l-2.1,8.5H51l-2.1-8.5v8.5H46.8z"/>
	<path class="st5" d="M63.8,309.9l2.1,0.3c-0.3,0.8-0.7,1.3-1.2,1.7c-0.6,0.4-1.3,0.6-2.1,0.6c-1.4,0-2.4-0.4-3-1.3
		c-0.5-0.7-0.8-1.6-0.8-2.7c0-1.3,0.3-2.3,1-3c0.7-0.7,1.5-1.1,2.6-1.1c1.2,0,2.1,0.4,2.7,1.1c0.7,0.8,1,1.9,1,3.5h-5.2
		c0,0.6,0.2,1.1,0.5,1.4c0.3,0.3,0.7,0.5,1.2,0.5c0.3,0,0.6-0.1,0.8-0.3S63.7,310.3,63.8,309.9z M64,307.8c0-0.6-0.2-1-0.5-1.4
		c-0.3-0.3-0.6-0.5-1.1-0.5c-0.4,0-0.8,0.2-1.1,0.5s-0.4,0.8-0.4,1.3H64z M61.3,303.7l1-2.2h2.3l-2,2.2H61.3z"/>
	<path class="st5" d="M74.8,312.4h-1.9v-1.1c-0.3,0.4-0.7,0.8-1.1,1c-0.4,0.2-0.9,0.3-1.3,0.3c-0.9,0-1.7-0.4-2.3-1.1
		c-0.6-0.7-1-1.7-1-3c0-1.3,0.3-2.3,0.9-3c0.6-0.7,1.4-1,2.4-1c0.9,0,1.6,0.4,2.3,1.1v-3.9h2.1V312.4z M69.3,308.3
		c0,0.8,0.1,1.4,0.3,1.8c0.3,0.5,0.8,0.8,1.4,0.8c0.5,0,0.9-0.2,1.2-0.6c0.3-0.4,0.5-1,0.5-1.8c0-0.9-0.2-1.5-0.5-1.9
		c-0.3-0.4-0.7-0.6-1.2-0.6c-0.5,0-0.9,0.2-1.2,0.6C69.5,307,69.3,307.6,69.3,308.3z"/>
	<path class="st5" d="M76.8,303.6v-1.9h2.1v1.9H76.8z M76.8,312.4v-7.8h2.1v7.8H76.8z"/>
	<path class="st5" d="M87.8,306.9l-2,0.4c-0.1-0.4-0.2-0.7-0.5-0.9c-0.2-0.2-0.6-0.3-0.9-0.3c-0.5,0-0.9,0.2-1.2,0.5
		c-0.3,0.4-0.5,0.9-0.5,1.8c0,0.9,0.2,1.6,0.5,2c0.3,0.4,0.7,0.6,1.2,0.6c0.4,0,0.7-0.1,1-0.3c0.2-0.2,0.4-0.6,0.5-1.1l2,0.3
		c-0.2,0.9-0.6,1.6-1.2,2.1c-0.6,0.5-1.4,0.7-2.4,0.7c-1.1,0-2-0.4-2.7-1.1c-0.7-0.7-1-1.7-1-3c0-1.3,0.3-2.3,1-3
		c0.7-0.7,1.6-1.1,2.8-1.1c0.9,0,1.7,0.2,2.3,0.6C87.1,305.5,87.5,306.1,87.8,306.9z"/>
	<path class="st5" d="M88.9,308.4c0-0.7,0.2-1.3,0.5-2c0.3-0.6,0.8-1.1,1.4-1.5c0.6-0.3,1.3-0.5,2.1-0.5c1.2,0,2.1,0.4,2.9,1.1
		c0.8,0.8,1.1,1.7,1.1,2.9c0,1.2-0.4,2.2-1.1,2.9c-0.8,0.8-1.7,1.2-2.9,1.2c-0.7,0-1.4-0.2-2-0.5c-0.6-0.3-1.1-0.8-1.5-1.4
		C89,310,88.9,309.3,88.9,308.4z M91,308.5c0,0.8,0.2,1.4,0.5,1.8s0.8,0.6,1.4,0.6s1-0.2,1.4-0.6c0.4-0.4,0.5-1,0.5-1.8
		c0-0.8-0.2-1.3-0.5-1.8c-0.4-0.4-0.8-0.6-1.4-0.6s-1,0.2-1.4,0.6S91,307.7,91,308.5z"/>
	<path class="st5" d="M46.9,330.4v-10.7h3.5c1.3,0,2.2,0.1,2.6,0.2c0.6,0.2,1.1,0.5,1.5,1.1c0.4,0.5,0.6,1.2,0.6,2.1
		c0,0.7-0.1,1.2-0.4,1.7s-0.5,0.8-0.9,1.1c-0.4,0.3-0.7,0.4-1.1,0.5c-0.5,0.1-1.3,0.2-2.2,0.2H49v4.1H46.9z M49,321.5v3h1.2
		c0.9,0,1.4-0.1,1.7-0.2c0.3-0.1,0.5-0.3,0.7-0.5c0.2-0.2,0.2-0.5,0.2-0.8c0-0.4-0.1-0.7-0.3-1s-0.5-0.4-0.9-0.5
		c-0.3,0-0.8-0.1-1.6-0.1H49z"/>
	<path class="st5" d="M58.8,330.4h-2.1v-7.8h1.9v1.1c0.3-0.5,0.6-0.9,0.9-1c0.3-0.2,0.6-0.2,0.9-0.2c0.5,0,0.9,0.1,1.4,0.4l-0.6,1.8
		c-0.3-0.2-0.7-0.3-1-0.3c-0.3,0-0.5,0.1-0.7,0.2c-0.2,0.2-0.4,0.4-0.5,0.9c-0.1,0.4-0.2,1.3-0.2,2.6V330.4z"/>
	<path class="st5" d="M67.8,330.4v-1.2c-0.3,0.4-0.7,0.7-1.1,1c-0.5,0.2-0.9,0.4-1.5,0.4c-0.5,0-1-0.1-1.4-0.3
		c-0.4-0.2-0.7-0.6-0.9-1s-0.3-1-0.3-1.7v-4.9h2.1v3.6c0,1.1,0,1.8,0.1,2c0.1,0.2,0.2,0.4,0.4,0.6c0.2,0.1,0.5,0.2,0.8,0.2
		c0.4,0,0.7-0.1,0.9-0.3c0.3-0.2,0.5-0.4,0.6-0.7c0.1-0.3,0.2-1,0.2-2.1v-3.3h2.1v7.8H67.8z"/>
	<path class="st5" d="M76.3,327.9l2.1,0.3c-0.3,0.8-0.7,1.3-1.2,1.7c-0.6,0.4-1.3,0.6-2.1,0.6c-1.4,0-2.4-0.4-3-1.3
		c-0.5-0.7-0.8-1.6-0.8-2.7c0-1.3,0.3-2.3,1-3c0.7-0.7,1.5-1.1,2.6-1.1c1.2,0,2.1,0.4,2.7,1.1c0.7,0.8,1,1.9,1,3.5h-5.2
		c0,0.6,0.2,1.1,0.5,1.4c0.3,0.3,0.7,0.5,1.2,0.5c0.3,0,0.6-0.1,0.8-0.3S76.2,328.3,76.3,327.9z M76.5,325.8c0-0.6-0.2-1-0.5-1.4
		c-0.3-0.3-0.6-0.5-1.1-0.5c-0.4,0-0.8,0.2-1.1,0.5s-0.4,0.8-0.4,1.3H76.5z"/>
	<path class="st5" d="M80.1,330.4v-10.7h2.1v3.9c0.6-0.7,1.4-1.1,2.3-1.1c0.9,0,1.7,0.3,2.4,1c0.6,0.7,0.9,1.7,0.9,3
		c0,1.3-0.3,2.4-0.9,3.1c-0.6,0.7-1.4,1.1-2.3,1.1c-0.4,0-0.9-0.1-1.3-0.3c-0.4-0.2-0.8-0.6-1.1-1v1.1H80.1z M82.1,326.3
		c0,0.8,0.1,1.4,0.4,1.8c0.4,0.5,0.8,0.8,1.4,0.8c0.5,0,0.8-0.2,1.2-0.6c0.3-0.4,0.5-1,0.5-1.8c0-0.9-0.2-1.5-0.5-1.9
		c-0.3-0.4-0.7-0.6-1.2-0.6c-0.5,0-0.9,0.2-1.2,0.6C82.3,325,82.1,325.6,82.1,326.3z"/>
	<path class="st5" d="M90.9,325l-1.9-0.3c0.2-0.8,0.6-1.3,1.1-1.7s1.3-0.5,2.3-0.5c0.9,0,1.6,0.1,2.1,0.3c0.4,0.2,0.8,0.5,0.9,0.8
		c0.2,0.3,0.3,0.9,0.3,1.8l0,2.4c0,0.7,0,1.2,0.1,1.5c0.1,0.3,0.2,0.7,0.4,1h-2c-0.1-0.1-0.1-0.3-0.2-0.6c0-0.1-0.1-0.2-0.1-0.2
		c-0.4,0.3-0.7,0.6-1.1,0.8c-0.4,0.2-0.8,0.3-1.3,0.3c-0.8,0-1.4-0.2-1.9-0.7c-0.5-0.4-0.7-1-0.7-1.6c0-0.4,0.1-0.8,0.3-1.2
		c0.2-0.3,0.5-0.6,0.9-0.8c0.4-0.2,0.9-0.3,1.6-0.5c1-0.2,1.6-0.3,2-0.5v-0.2c0-0.4-0.1-0.7-0.3-0.8c-0.2-0.2-0.6-0.3-1.1-0.3
		c-0.4,0-0.7,0.1-0.9,0.2C91.2,324.4,91,324.6,90.9,325z M93.6,326.7c-0.3,0.1-0.7,0.2-1.3,0.3s-0.9,0.2-1.1,0.4
		c-0.3,0.2-0.4,0.4-0.4,0.7c0,0.3,0.1,0.5,0.3,0.7c0.2,0.2,0.5,0.3,0.8,0.3c0.4,0,0.7-0.1,1.1-0.4c0.2-0.2,0.4-0.4,0.5-0.7
		c0.1-0.2,0.1-0.5,0.1-1V326.7z"/>
	<path class="st5" d="M101,322.6h1.1V322c0-0.7,0.1-1.1,0.2-1.5c0.1-0.3,0.4-0.6,0.8-0.8c0.4-0.2,0.8-0.3,1.4-0.3
		c0.6,0,1.2,0.1,1.7,0.3l-0.3,1.4c-0.3-0.1-0.6-0.1-0.9-0.1c-0.3,0-0.5,0.1-0.6,0.2c-0.1,0.1-0.2,0.4-0.2,0.8v0.5h1.5v1.6h-1.5v6.2
		h-2.1v-6.2H101V322.6z"/>
	<path class="st5" d="M106.7,321.7l1-2.2h2.3l-2,2.2H106.7z M106.9,330.4v-7.8h2.1v7.8H106.9z"/>
	<path class="st5" d="M110.3,328.2l2.1-0.3c0.1,0.4,0.3,0.7,0.5,0.9c0.3,0.2,0.6,0.3,1.1,0.3c0.5,0,0.9-0.1,1.2-0.3
		c0.2-0.1,0.3-0.3,0.3-0.5c0-0.2,0-0.3-0.1-0.4c-0.1-0.1-0.3-0.2-0.7-0.3c-1.7-0.4-2.7-0.7-3.2-1c-0.6-0.4-0.9-1-0.9-1.8
		c0-0.7,0.3-1.2,0.8-1.7s1.4-0.7,2.5-0.7c1.1,0,1.9,0.2,2.4,0.5s0.9,0.9,1.1,1.5l-1.9,0.4c-0.1-0.3-0.2-0.5-0.5-0.7
		c-0.2-0.2-0.6-0.2-1-0.2c-0.5,0-0.9,0.1-1.2,0.2c-0.2,0.1-0.2,0.2-0.2,0.4c0,0.1,0.1,0.3,0.2,0.4c0.2,0.1,0.8,0.3,1.9,0.6
		c1.1,0.2,1.9,0.6,2.3,0.9c0.4,0.4,0.6,0.9,0.6,1.5c0,0.7-0.3,1.3-0.9,1.8c-0.6,0.5-1.5,0.8-2.6,0.8c-1.1,0-1.9-0.2-2.5-0.6
		C110.9,329.5,110.5,328.9,110.3,328.2z"/>
	<path class="st5" d="M119.4,321.6v-1.9h2.1v1.9H119.4z M119.4,330.4v-7.8h2.1v7.8H119.4z"/>
	<path class="st5" d="M130.3,324.9l-2,0.4c-0.1-0.4-0.2-0.7-0.5-0.9c-0.2-0.2-0.6-0.3-0.9-0.3c-0.5,0-0.9,0.2-1.2,0.5
		c-0.3,0.4-0.5,0.9-0.5,1.8c0,0.9,0.2,1.6,0.5,2c0.3,0.4,0.7,0.6,1.2,0.6c0.4,0,0.7-0.1,1-0.3c0.2-0.2,0.4-0.6,0.5-1.1l2,0.3
		c-0.2,0.9-0.6,1.6-1.2,2.1c-0.6,0.5-1.4,0.7-2.4,0.7c-1.1,0-2-0.4-2.7-1.1c-0.7-0.7-1-1.7-1-3c0-1.3,0.3-2.3,1-3
		c0.7-0.7,1.6-1.1,2.8-1.1c0.9,0,1.7,0.2,2.3,0.6C129.7,323.5,130.1,324.1,130.3,324.9z"/>
	<path class="st5" d="M133.4,325l-1.9-0.3c0.2-0.8,0.6-1.3,1.1-1.7s1.3-0.5,2.3-0.5c0.9,0,1.6,0.1,2.1,0.3c0.4,0.2,0.8,0.5,0.9,0.8
		c0.2,0.3,0.3,0.9,0.3,1.8l0,2.4c0,0.7,0,1.2,0.1,1.5c0.1,0.3,0.2,0.7,0.4,1h-2c-0.1-0.1-0.1-0.3-0.2-0.6c0-0.1-0.1-0.2-0.1-0.2
		c-0.4,0.3-0.7,0.6-1.1,0.8c-0.4,0.2-0.8,0.3-1.3,0.3c-0.8,0-1.4-0.2-1.9-0.7c-0.5-0.4-0.7-1-0.7-1.6c0-0.4,0.1-0.8,0.3-1.2
		c0.2-0.3,0.5-0.6,0.9-0.8c0.4-0.2,0.9-0.3,1.6-0.5c1-0.2,1.6-0.3,2-0.5v-0.2c0-0.4-0.1-0.7-0.3-0.8c-0.2-0.2-0.6-0.3-1.1-0.3
		c-0.4,0-0.7,0.1-0.9,0.2C133.7,324.4,133.5,324.6,133.4,325z M136.2,326.7c-0.3,0.1-0.7,0.2-1.3,0.3s-0.9,0.2-1.1,0.4
		c-0.3,0.2-0.4,0.4-0.4,0.7c0,0.3,0.1,0.5,0.3,0.7c0.2,0.2,0.5,0.3,0.8,0.3c0.4,0,0.7-0.1,1.1-0.4c0.2-0.2,0.4-0.4,0.5-0.7
		c0.1-0.2,0.1-0.5,0.1-1V326.7z"/>
	<path class="st5" d="M46.9,348.4v-10.7h8v1.8H49v2.4h5.4v1.8H49v2.9h6v1.8H46.9z"/>
	<path class="st5" d="M63.9,348.4h-2.1v-4c0-0.8,0-1.4-0.1-1.6c-0.1-0.2-0.2-0.4-0.4-0.6c-0.2-0.1-0.4-0.2-0.7-0.2
		c-0.4,0-0.7,0.1-1,0.3s-0.5,0.5-0.6,0.8c-0.1,0.3-0.2,0.9-0.2,1.8v3.5h-2.1v-7.8h1.9v1.1c0.7-0.9,1.5-1.3,2.6-1.3
		c0.5,0,0.9,0.1,1.2,0.2c0.4,0.2,0.7,0.4,0.9,0.6c0.2,0.3,0.3,0.5,0.4,0.9c0.1,0.3,0.1,0.8,0.1,1.4V348.4z"/>
	<path class="st5" d="M69.6,340.6v1.6h-1.4v3.1c0,0.6,0,1,0,1.1c0,0.1,0.1,0.2,0.2,0.3c0.1,0.1,0.2,0.1,0.3,0.1
		c0.2,0,0.5-0.1,0.8-0.2l0.2,1.6c-0.5,0.2-1,0.3-1.6,0.3c-0.4,0-0.7-0.1-1-0.2c-0.3-0.1-0.5-0.3-0.7-0.5c-0.1-0.2-0.2-0.5-0.3-0.8
		c0-0.2-0.1-0.7-0.1-1.4v-3.4h-0.9v-1.6h0.9v-1.5l2.1-1.2v2.7H69.6z"/>
	<path class="st5" d="M73,348.4h-2.1v-7.8h1.9v1.1c0.3-0.5,0.6-0.9,0.9-1c0.3-0.2,0.6-0.2,0.9-0.2c0.5,0,0.9,0.1,1.4,0.4l-0.6,1.8
		c-0.3-0.2-0.7-0.3-1-0.3c-0.3,0-0.5,0.1-0.7,0.2c-0.2,0.2-0.4,0.4-0.5,0.9c-0.1,0.4-0.2,1.3-0.2,2.6V348.4z"/>
	<path class="st5" d="M81.3,345.9l2.1,0.3c-0.3,0.8-0.7,1.3-1.2,1.7c-0.6,0.4-1.3,0.6-2.1,0.6c-1.4,0-2.4-0.4-3-1.3
		c-0.5-0.7-0.8-1.6-0.8-2.7c0-1.3,0.3-2.3,1-3c0.7-0.7,1.5-1.1,2.6-1.1c1.2,0,2.1,0.4,2.7,1.1c0.7,0.8,1,1.9,1,3.5h-5.2
		c0,0.6,0.2,1.1,0.5,1.4c0.3,0.3,0.7,0.5,1.2,0.5c0.3,0,0.6-0.1,0.8-0.3S81.2,346.3,81.3,345.9z M81.5,343.8c0-0.6-0.2-1-0.5-1.4
		c-0.3-0.3-0.6-0.5-1.1-0.5c-0.4,0-0.8,0.2-1.1,0.5s-0.4,0.8-0.4,1.3H81.5z"/>
	<path class="st5" d="M87.3,348.4l-3.1-7.8h2.2l1.5,4l0.4,1.3c0.1-0.3,0.2-0.6,0.2-0.7c0.1-0.2,0.1-0.4,0.2-0.7l1.5-4h2.1l-3.1,7.8
		H87.3z"/>
	<path class="st5" d="M93.5,339.6v-1.9h2.1v1.9H93.5z M93.5,348.4v-7.8h2.1v7.8H93.5z"/>
	<path class="st5" d="M97,346.2l2.1-0.3c0.1,0.4,0.3,0.7,0.5,0.9c0.3,0.2,0.6,0.3,1.1,0.3c0.5,0,0.9-0.1,1.2-0.3
		c0.2-0.1,0.3-0.3,0.3-0.5c0-0.2,0-0.3-0.1-0.4c-0.1-0.1-0.3-0.2-0.7-0.3c-1.7-0.4-2.7-0.7-3.2-1c-0.6-0.4-0.9-1-0.9-1.8
		c0-0.7,0.3-1.2,0.8-1.7s1.4-0.7,2.5-0.7c1.1,0,1.9,0.2,2.4,0.5s0.9,0.9,1.1,1.5l-1.9,0.4c-0.1-0.3-0.2-0.5-0.5-0.7
		c-0.2-0.2-0.6-0.2-1-0.2c-0.5,0-0.9,0.1-1.2,0.2c-0.2,0.1-0.2,0.2-0.2,0.4c0,0.1,0.1,0.3,0.2,0.4c0.2,0.1,0.8,0.3,1.9,0.6
		c1.1,0.2,1.9,0.6,2.3,0.9c0.4,0.4,0.6,0.9,0.6,1.5c0,0.7-0.3,1.3-0.9,1.8c-0.6,0.5-1.5,0.8-2.6,0.8c-1.1,0-1.9-0.2-2.5-0.6
		C97.6,347.5,97.2,346.9,97,346.2z"/>
	<path class="st5" d="M109.6,340.6v1.6h-1.4v3.1c0,0.6,0,1,0,1.1c0,0.1,0.1,0.2,0.2,0.3c0.1,0.1,0.2,0.1,0.3,0.1
		c0.2,0,0.5-0.1,0.8-0.2l0.2,1.6c-0.5,0.2-1,0.3-1.6,0.3c-0.4,0-0.7-0.1-1-0.2c-0.3-0.1-0.5-0.3-0.7-0.5c-0.1-0.2-0.2-0.5-0.3-0.8
		c0-0.2-0.1-0.7-0.1-1.4v-3.4h-0.9v-1.6h0.9v-1.5l2.1-1.2v2.7H109.6z"/>
	<path class="st5" d="M112.6,343l-1.9-0.3c0.2-0.8,0.6-1.3,1.1-1.7s1.3-0.5,2.3-0.5c0.9,0,1.6,0.1,2.1,0.3c0.4,0.2,0.8,0.5,0.9,0.8
		c0.2,0.3,0.3,0.9,0.3,1.8l0,2.4c0,0.7,0,1.2,0.1,1.5c0.1,0.3,0.2,0.7,0.4,1h-2c-0.1-0.1-0.1-0.3-0.2-0.6c0-0.1-0.1-0.2-0.1-0.2
		c-0.4,0.3-0.7,0.6-1.1,0.8c-0.4,0.2-0.8,0.3-1.3,0.3c-0.8,0-1.4-0.2-1.9-0.7c-0.5-0.4-0.7-1-0.7-1.6c0-0.4,0.1-0.8,0.3-1.2
		c0.2-0.3,0.5-0.6,0.9-0.8c0.4-0.2,0.9-0.3,1.6-0.5c1-0.2,1.6-0.3,2-0.5v-0.2c0-0.4-0.1-0.7-0.3-0.8c-0.2-0.2-0.6-0.3-1.1-0.3
		c-0.4,0-0.7,0.1-0.9,0.2C112.9,342.4,112.7,342.6,112.6,343z M115.3,344.7c-0.3,0.1-0.7,0.2-1.3,0.3s-0.9,0.2-1.1,0.4
		c-0.3,0.2-0.4,0.4-0.4,0.7c0,0.3,0.1,0.5,0.3,0.7c0.2,0.2,0.5,0.3,0.8,0.3c0.4,0,0.7-0.1,1.1-0.4c0.2-0.2,0.4-0.4,0.5-0.7
		c0.1-0.2,0.1-0.5,0.1-1V344.7z"/>
	<path class="st5" d="M123.5,340.6h1.9v1.1c0.2-0.4,0.6-0.7,1-1s0.9-0.4,1.4-0.4c0.9,0,1.7,0.4,2.3,1.1c0.6,0.7,0.9,1.7,0.9,3
		c0,1.3-0.3,2.3-1,3c-0.6,0.7-1.4,1.1-2.3,1.1c-0.4,0-0.8-0.1-1.2-0.3c-0.3-0.2-0.7-0.5-1.1-0.9v3.9h-2.1V340.6z M125.5,344.4
		c0,0.9,0.2,1.5,0.5,1.9c0.3,0.4,0.8,0.6,1.3,0.6c0.5,0,0.9-0.2,1.2-0.6c0.3-0.4,0.5-1,0.5-1.9c0-0.8-0.2-1.4-0.5-1.8
		c-0.3-0.4-0.7-0.6-1.2-0.6c-0.5,0-0.9,0.2-1.3,0.6C125.7,343,125.5,343.6,125.5,344.4z"/>
	<path class="st5" d="M137.2,345.9l2.1,0.3c-0.3,0.8-0.7,1.3-1.2,1.7c-0.6,0.4-1.3,0.6-2.1,0.6c-1.4,0-2.4-0.4-3-1.3
		c-0.5-0.7-0.8-1.6-0.8-2.7c0-1.3,0.3-2.3,1-3c0.7-0.7,1.5-1.1,2.6-1.1c1.2,0,2.1,0.4,2.7,1.1c0.7,0.8,1,1.9,1,3.5h-5.2
		c0,0.6,0.2,1.1,0.5,1.4c0.3,0.3,0.7,0.5,1.2,0.5c0.3,0,0.6-0.1,0.8-0.3S137.1,346.3,137.2,345.9z M137.3,343.8c0-0.6-0.2-1-0.5-1.4
		c-0.3-0.3-0.6-0.5-1.1-0.5c-0.4,0-0.8,0.2-1.1,0.5s-0.4,0.8-0.4,1.3H137.3z"/>
	<path class="st5" d="M143,348.4H141v-7.8h1.9v1.1c0.3-0.5,0.6-0.9,0.9-1c0.3-0.2,0.6-0.2,0.9-0.2c0.5,0,0.9,0.1,1.4,0.4l-0.6,1.8
		c-0.3-0.2-0.7-0.3-1-0.3c-0.3,0-0.5,0.1-0.7,0.2c-0.2,0.2-0.4,0.4-0.5,0.9s-0.2,1.3-0.2,2.6V348.4z"/>
	<path class="st5" d="M146.2,346.2l2.1-0.3c0.1,0.4,0.3,0.7,0.5,0.9c0.3,0.2,0.6,0.3,1.1,0.3c0.5,0,0.9-0.1,1.2-0.3
		c0.2-0.1,0.3-0.3,0.3-0.5c0-0.2,0-0.3-0.1-0.4c-0.1-0.1-0.3-0.2-0.7-0.3c-1.7-0.4-2.7-0.7-3.2-1c-0.6-0.4-0.9-1-0.9-1.8
		c0-0.7,0.3-1.2,0.8-1.7s1.4-0.7,2.5-0.7c1.1,0,1.9,0.2,2.4,0.5s0.9,0.9,1.1,1.5l-1.9,0.4c-0.1-0.3-0.2-0.5-0.5-0.7
		c-0.2-0.2-0.6-0.2-1-0.2c-0.5,0-0.9,0.1-1.2,0.2c-0.2,0.1-0.2,0.2-0.2,0.4c0,0.1,0.1,0.3,0.2,0.4c0.2,0.1,0.8,0.3,1.9,0.6
		c1.1,0.2,1.9,0.6,2.3,0.9c0.4,0.4,0.6,0.9,0.6,1.5c0,0.7-0.3,1.3-0.9,1.8c-0.6,0.5-1.5,0.8-2.6,0.8c-1.1,0-1.9-0.2-2.5-0.6
		C146.7,347.5,146.3,346.9,146.2,346.2z"/>
	<path class="st5" d="M154.7,344.4c0-0.7,0.2-1.3,0.5-2c0.3-0.6,0.8-1.1,1.4-1.5c0.6-0.3,1.3-0.5,2.1-0.5c1.2,0,2.1,0.4,2.9,1.1
		c0.8,0.8,1.1,1.7,1.1,2.9c0,1.2-0.4,2.2-1.1,2.9c-0.8,0.8-1.7,1.2-2.9,1.2c-0.7,0-1.4-0.2-2-0.5c-0.6-0.3-1.1-0.8-1.5-1.4
		C154.9,346,154.7,345.3,154.7,344.4z M156.9,344.5c0,0.8,0.2,1.4,0.5,1.8c0.4,0.4,0.8,0.6,1.4,0.6s1-0.2,1.4-0.6
		c0.4-0.4,0.5-1,0.5-1.8c0-0.8-0.2-1.3-0.5-1.8c-0.4-0.4-0.8-0.6-1.4-0.6s-1,0.2-1.4,0.6C157,343.1,156.9,343.7,156.9,344.5z"/>
	<path class="st5" d="M171.5,348.4h-2.1v-4c0-0.8,0-1.4-0.1-1.6c-0.1-0.2-0.2-0.4-0.4-0.6c-0.2-0.1-0.4-0.2-0.7-0.2
		c-0.4,0-0.7,0.1-1,0.3s-0.5,0.5-0.6,0.8c-0.1,0.3-0.2,0.9-0.2,1.8v3.5h-2.1v-7.8h1.9v1.1c0.7-0.9,1.5-1.3,2.6-1.3
		c0.5,0,0.9,0.1,1.2,0.2c0.4,0.2,0.7,0.4,0.9,0.6c0.2,0.3,0.3,0.5,0.4,0.9c0.1,0.3,0.1,0.8,0.1,1.4V348.4z"/>
	<path class="st5" d="M175.1,343l-1.9-0.3c0.2-0.8,0.6-1.3,1.1-1.7s1.3-0.5,2.3-0.5c0.9,0,1.6,0.1,2.1,0.3c0.4,0.2,0.8,0.5,0.9,0.8
		c0.2,0.3,0.3,0.9,0.3,1.8l0,2.4c0,0.7,0,1.2,0.1,1.5c0.1,0.3,0.2,0.7,0.4,1h-2c-0.1-0.1-0.1-0.3-0.2-0.6c0-0.1-0.1-0.2-0.1-0.2
		c-0.4,0.3-0.7,0.6-1.1,0.8c-0.4,0.2-0.8,0.3-1.3,0.3c-0.8,0-1.4-0.2-1.9-0.7c-0.5-0.4-0.7-1-0.7-1.6c0-0.4,0.1-0.8,0.3-1.2
		c0.2-0.3,0.5-0.6,0.9-0.8c0.4-0.2,0.9-0.3,1.6-0.5c1-0.2,1.6-0.3,2-0.5v-0.2c0-0.4-0.1-0.7-0.3-0.8c-0.2-0.2-0.6-0.3-1.1-0.3
		c-0.4,0-0.7,0.1-0.9,0.2C175.4,342.4,175.2,342.6,175.1,343z M177.8,344.7c-0.3,0.1-0.7,0.2-1.3,0.3s-0.9,0.2-1.1,0.4
		c-0.3,0.2-0.4,0.4-0.4,0.7c0,0.3,0.1,0.5,0.3,0.7c0.2,0.2,0.5,0.3,0.8,0.3c0.4,0,0.7-0.1,1.1-0.4c0.2-0.2,0.4-0.4,0.5-0.7
		c0.1-0.2,0.1-0.5,0.1-1V344.7z"/>
	<path class="st5" d="M181.9,348.4v-10.7h2.1v10.7H181.9z"/>
</g>
<circle class="st5" cx="34.2" cy="253.9" r="1.8"/>
<circle class="st5" cx="34.2" cy="272.5" r="1.8"/>
<circle class="st5" cx="34.2" cy="289.2" r="1.8"/>
<circle class="st5" cx="34.2" cy="307.8" r="1.8"/>
<circle class="st5" cx="34.2" cy="325.4" r="1.8"/>
<circle class="st5" cx="34.2" cy="343.1" r="1.8"/>
<g>
	<path class="st5" d="M46.9,236.3v-10.7h4.6c1.1,0,2,0.1,2.5,0.3c0.5,0.2,0.9,0.5,1.2,1c0.3,0.5,0.5,1.1,0.5,1.7
		c0,0.8-0.2,1.5-0.7,2c-0.5,0.5-1.2,0.9-2.1,1c0.5,0.3,0.9,0.6,1.2,0.9c0.3,0.3,0.7,0.9,1.2,1.7l1.3,2.1h-2.6l-1.6-2.3
		c-0.6-0.8-0.9-1.4-1.1-1.6c-0.2-0.2-0.4-0.4-0.7-0.4c-0.2-0.1-0.6-0.1-1.1-0.1H49v4.5H46.9z M49,230.1h1.6c1,0,1.7,0,1.9-0.1
		s0.5-0.2,0.6-0.5s0.2-0.5,0.2-0.8c0-0.4-0.1-0.7-0.3-0.9c-0.2-0.2-0.5-0.4-0.8-0.4c-0.2,0-0.7,0-1.6,0H49V230.1z"/>
	<path class="st5" d="M62.2,233.8l2.1,0.3c-0.3,0.8-0.7,1.3-1.2,1.7c-0.6,0.4-1.3,0.6-2.1,0.6c-1.4,0-2.4-0.4-3-1.3
		c-0.5-0.7-0.8-1.6-0.8-2.7c0-1.3,0.3-2.3,1-3c0.7-0.7,1.5-1.1,2.6-1.1c1.2,0,2.1,0.4,2.7,1.1c0.7,0.8,1,1.9,1,3.5h-5.2
		c0,0.6,0.2,1.1,0.5,1.4c0.3,0.3,0.7,0.5,1.2,0.5c0.3,0,0.6-0.1,0.8-0.3S62.1,234.2,62.2,233.8z M62.3,231.7c0-0.6-0.2-1-0.5-1.4
		c-0.3-0.3-0.6-0.5-1.1-0.5c-0.5,0-0.8,0.2-1.1,0.5s-0.4,0.8-0.4,1.3H62.3z"/>
	<path class="st5" d="M73.1,236.3H71v-4c0-0.8,0-1.4-0.1-1.6c-0.1-0.2-0.2-0.4-0.4-0.6c-0.2-0.1-0.4-0.2-0.7-0.2
		c-0.4,0-0.7,0.1-1,0.3s-0.5,0.5-0.6,0.8c-0.1,0.3-0.2,0.9-0.2,1.8v3.5H66v-7.8h1.9v1.1c0.7-0.9,1.5-1.3,2.6-1.3
		c0.5,0,0.9,0.1,1.2,0.2c0.4,0.2,0.7,0.4,0.9,0.6c0.2,0.3,0.3,0.5,0.4,0.9c0.1,0.3,0.1,0.8,0.1,1.4V236.3z"/>
	<path class="st5" d="M82.3,236.3h-1.9v-1.1c-0.3,0.4-0.7,0.8-1.1,1c-0.4,0.2-0.9,0.3-1.3,0.3c-0.9,0-1.7-0.4-2.3-1.1
		c-0.6-0.7-1-1.7-1-3c0-1.3,0.3-2.3,0.9-3c0.6-0.7,1.4-1,2.4-1c0.9,0,1.6,0.4,2.3,1.1v-3.9h2.1V236.3z M76.8,232.2
		c0,0.8,0.1,1.4,0.3,1.8c0.3,0.5,0.8,0.8,1.4,0.8c0.5,0,0.9-0.2,1.2-0.6c0.3-0.4,0.5-1,0.5-1.8c0-0.9-0.2-1.5-0.5-1.9
		c-0.3-0.4-0.7-0.6-1.2-0.6c-0.5,0-0.9,0.2-1.2,0.6C77,230.9,76.8,231.4,76.8,232.2z"/>
	<path class="st5" d="M84.3,227.4v-1.9h2.1v1.9H84.3z M84.3,236.3v-7.8h2.1v7.8H84.3z"/>
	<path class="st5" d="M90.5,236.3h-2.1v-7.8h1.9v1.1c0.3-0.5,0.6-0.9,0.9-1c0.3-0.2,0.6-0.2,0.9-0.2c0.5,0,0.9,0.1,1.4,0.4l-0.6,1.8
		c-0.3-0.2-0.7-0.3-1-0.3c-0.3,0-0.5,0.1-0.7,0.2c-0.2,0.2-0.4,0.4-0.5,0.9c-0.1,0.4-0.2,1.3-0.2,2.6V236.3z"/>
	<path class="st5" d="M103,233.8l2.1,0.3c-0.3,0.8-0.7,1.3-1.2,1.7c-0.6,0.4-1.3,0.6-2.1,0.6c-1.4,0-2.4-0.4-3-1.3
		c-0.5-0.7-0.8-1.6-0.8-2.7c0-1.3,0.3-2.3,1-3c0.7-0.7,1.5-1.1,2.6-1.1c1.2,0,2.1,0.4,2.7,1.1c0.7,0.8,1,1.9,1,3.5H100
		c0,0.6,0.2,1.1,0.5,1.4c0.3,0.3,0.7,0.5,1.2,0.5c0.3,0,0.6-0.1,0.8-0.3S102.9,234.2,103,233.8z M103.1,231.7c0-0.6-0.2-1-0.5-1.4
		c-0.3-0.3-0.6-0.5-1.1-0.5c-0.5,0-0.8,0.2-1.1,0.5s-0.4,0.8-0.4,1.3H103.1z"/>
	<path class="st5" d="M105.9,236.3l2.8-4l-2.7-3.8h2.5l1.4,2.1l1.5-2.1h2.4l-2.6,3.7l2.9,4.1h-2.5l-1.6-2.4l-1.6,2.4H105.9z"/>
	<path class="st5" d="M116.7,230.9l-1.9-0.3c0.2-0.8,0.6-1.3,1.1-1.7s1.3-0.5,2.3-0.5c0.9,0,1.6,0.1,2.1,0.3
		c0.4,0.2,0.8,0.5,0.9,0.8c0.2,0.3,0.3,0.9,0.3,1.8l0,2.4c0,0.7,0,1.2,0.1,1.5c0.1,0.3,0.2,0.7,0.4,1h-2c-0.1-0.1-0.1-0.3-0.2-0.6
		c0-0.1-0.1-0.2-0.1-0.2c-0.4,0.3-0.7,0.6-1.1,0.8c-0.4,0.2-0.8,0.3-1.3,0.3c-0.8,0-1.4-0.2-1.9-0.7c-0.5-0.4-0.7-1-0.7-1.6
		c0-0.4,0.1-0.8,0.3-1.2c0.2-0.3,0.5-0.6,0.9-0.8c0.4-0.2,0.9-0.3,1.6-0.5c1-0.2,1.6-0.3,2-0.5V231c0-0.4-0.1-0.7-0.3-0.8
		c-0.2-0.2-0.6-0.3-1.1-0.3c-0.4,0-0.7,0.1-0.9,0.2C117,230.2,116.9,230.5,116.7,230.9z M119.5,232.5c-0.3,0.1-0.7,0.2-1.3,0.3
		s-0.9,0.2-1.1,0.4c-0.3,0.2-0.4,0.4-0.4,0.7c0,0.3,0.1,0.5,0.3,0.7s0.5,0.3,0.8,0.3c0.4,0,0.7-0.1,1.1-0.4c0.2-0.2,0.4-0.4,0.5-0.7
		c0.1-0.2,0.1-0.5,0.1-1V232.5z M117.3,227.5l1-2.2h2.3l-2,2.2H117.3z"/>
	<path class="st5" d="M123.4,228.5h1.9v1.1c0.7-0.8,1.5-1.2,2.4-1.2c0.5,0,0.9,0.1,1.3,0.3c0.4,0.2,0.7,0.5,0.9,0.9
		c0.3-0.4,0.7-0.7,1.1-0.9c0.4-0.2,0.8-0.3,1.3-0.3c0.6,0,1.1,0.1,1.5,0.3c0.4,0.2,0.7,0.6,0.9,1c0.1,0.3,0.2,0.9,0.2,1.6v5h-2.1
		v-4.4c0-0.8-0.1-1.3-0.2-1.5c-0.2-0.3-0.5-0.4-0.9-0.4c-0.3,0-0.6,0.1-0.8,0.3s-0.4,0.4-0.5,0.8c-0.1,0.3-0.2,0.9-0.2,1.6v3.7h-2.1
		V232c0-0.8,0-1.2-0.1-1.5c-0.1-0.2-0.2-0.4-0.3-0.5c-0.2-0.1-0.4-0.2-0.6-0.2c-0.3,0-0.6,0.1-0.9,0.3s-0.4,0.4-0.5,0.7
		c-0.1,0.3-0.2,0.9-0.2,1.6v3.8h-2.1V228.5z"/>
	<path class="st5" d="M141.4,233.8l2.1,0.3c-0.3,0.8-0.7,1.3-1.2,1.7c-0.6,0.4-1.3,0.6-2.1,0.6c-1.4,0-2.4-0.4-3-1.3
		c-0.5-0.7-0.8-1.6-0.8-2.7c0-1.3,0.3-2.3,1-3c0.7-0.7,1.5-1.1,2.6-1.1c1.2,0,2.1,0.4,2.7,1.1c0.7,0.8,1,1.9,1,3.5h-5.2
		c0,0.6,0.2,1.1,0.5,1.4c0.3,0.3,0.7,0.5,1.2,0.5c0.3,0,0.6-0.1,0.8-0.3S141.3,234.2,141.4,233.8z M141.5,231.7c0-0.6-0.2-1-0.5-1.4
		c-0.3-0.3-0.6-0.5-1.1-0.5c-0.5,0-0.8,0.2-1.1,0.5s-0.4,0.8-0.4,1.3H141.5z"/>
	<path class="st5" d="M152.3,236.3h-2.1v-4c0-0.8,0-1.4-0.1-1.6c-0.1-0.2-0.2-0.4-0.4-0.6c-0.2-0.1-0.4-0.2-0.7-0.2
		c-0.4,0-0.7,0.1-1,0.3s-0.5,0.5-0.6,0.8c-0.1,0.3-0.2,0.9-0.2,1.8v3.5h-2.1v-7.8h1.9v1.1c0.7-0.9,1.5-1.3,2.6-1.3
		c0.5,0,0.9,0.1,1.2,0.2c0.4,0.2,0.7,0.4,0.9,0.6c0.2,0.3,0.3,0.5,0.4,0.9c0.1,0.3,0.1,0.8,0.1,1.4V236.3z"/>
	<path class="st5" d="M158.9,233.8l2.1,0.3c-0.3,0.8-0.7,1.3-1.2,1.7c-0.6,0.4-1.3,0.6-2.1,0.6c-1.4,0-2.4-0.4-3-1.3
		c-0.5-0.7-0.8-1.6-0.8-2.7c0-1.3,0.3-2.3,1-3c0.7-0.7,1.5-1.1,2.6-1.1c1.2,0,2.1,0.4,2.7,1.1c0.7,0.8,1,1.9,1,3.5h-5.2
		c0,0.6,0.2,1.1,0.5,1.4c0.3,0.3,0.7,0.5,1.2,0.5c0.3,0,0.6-0.1,0.8-0.3S158.8,234.2,158.9,233.8z M159,231.7c0-0.6-0.2-1-0.5-1.4
		c-0.3-0.3-0.6-0.5-1.1-0.5c-0.5,0-0.8,0.2-1.1,0.5s-0.4,0.8-0.4,1.3H159z"/>
	<path class="st5" d="M162,234l2.1-0.3c0.1,0.4,0.3,0.7,0.5,0.9c0.3,0.2,0.6,0.3,1.1,0.3c0.5,0,0.9-0.1,1.2-0.3
		c0.2-0.1,0.3-0.3,0.3-0.5c0-0.2,0-0.3-0.1-0.4c-0.1-0.1-0.3-0.2-0.7-0.3c-1.7-0.4-2.7-0.7-3.2-1c-0.6-0.4-0.9-1-0.9-1.8
		c0-0.7,0.3-1.2,0.8-1.7s1.4-0.7,2.5-0.7c1.1,0,1.9,0.2,2.4,0.5s0.9,0.9,1.1,1.5l-1.9,0.4c-0.1-0.3-0.2-0.5-0.5-0.7
		c-0.2-0.2-0.6-0.2-1-0.2c-0.5,0-0.9,0.1-1.2,0.2c-0.2,0.1-0.2,0.2-0.2,0.4c0,0.1,0.1,0.3,0.2,0.4c0.2,0.1,0.8,0.3,1.9,0.6
		c1.1,0.2,1.9,0.6,2.3,0.9c0.4,0.4,0.6,0.9,0.6,1.5c0,0.7-0.3,1.3-0.9,1.8s-1.5,0.8-2.6,0.8c-1.1,0-1.9-0.2-2.5-0.6
		C162.6,235.4,162.2,234.8,162,234z"/>
	<path class="st5" d="M171.5,230.5v-2.1h2.1v2.1H171.5z M171.5,236.3v-2.1h2.1v2.1H171.5z"/>
</g>
</svg>
