<?xml version="1.0" encoding="utf-8"?>
<!-- Generator: Adobe Illustrator 27.5.0, SVG Export Plug-In . SVG Version: 6.00 Build 0)  -->
<svg version="1.1" id="Capa_1" xmlns="http://www.w3.org/2000/svg" xmlns:xlink="http://www.w3.org/1999/xlink" x="0px" y="0px"
	 viewBox="0 0 250.2 438.8" style="enable-background:new 0 0 250.2 438.8;" xml:space="preserve">
<style type="text/css">
	.st0{fill:#FFFFFF;}
	.st1{fill:#914B96;}
	.st2{fill:#F89E41;}
	.st3{fill:#4BBCB6;}
	.st4{fill:#ED8242;}
	.st5{fill:#0B75A4;}
	.st6{fill:none;stroke:#0B75A4;stroke-width:2;stroke-miterlimit:10;}
	.st7{fill:#CC405E;}
</style>
<g>
	<image style="overflow:visible;" width="282" height="471" xlink:href="B5599695.png"  transform="matrix(1 0 0 1 -18 -14.17)">
	</image>
</g>
<path class="st0" d="M206.1,418.5H44.1c-13.1,0-23.8-10.7-23.8-23.8V44.1C20.3,31,31,20.3,44.1,20.3h161.9
	c13.1,0,23.8,10.7,23.8,23.8v350.5C229.9,407.8,219.2,418.5,206.1,418.5z"/>
<rect x="20.3" y="83.4" class="st4" width="209.5" height="42.4"/>
<g>
	<path class="st0" d="M60.5,110.6V98.5h9v2h-6.5v2.7H69v2h-6.1v3.3h6.8v2H60.5z"/>
	<path class="st0" d="M74.5,110.6v-10h-3.6v-2h9.6v2h-3.6v10H74.5z"/>
	<path class="st0" d="M91.7,110.6h-2.7l-1.1-2.7h-4.8l-1,2.7h-2.6l4.7-12.1h2.6L91.7,110.6z M87.2,105.9l-1.7-4.5l-1.6,4.5H87.2z"/>
	<path class="st0" d="M93,110.6V98.5h3.9c1.5,0,2.5,0.1,2.9,0.2c0.7,0.2,1.3,0.6,1.7,1.2c0.5,0.6,0.7,1.4,0.7,2.4
		c0,0.7-0.1,1.4-0.4,1.9s-0.6,0.9-1,1.2s-0.8,0.5-1.3,0.6c-0.6,0.1-1.4,0.2-2.5,0.2h-1.6v4.6H93z M95.5,100.6v3.4h1.3
		c1,0,1.6-0.1,1.9-0.2s0.6-0.3,0.8-0.6c0.2-0.3,0.3-0.6,0.3-0.9c0-0.4-0.1-0.8-0.4-1.1c-0.3-0.3-0.6-0.5-1-0.5
		c-0.3-0.1-0.9-0.1-1.8-0.1H95.5z"/>
	<path class="st0" d="M113.9,110.6h-2.7l-1.1-2.7h-4.8l-1,2.7h-2.6l4.7-12.1h2.6L113.9,110.6z M109.4,105.9l-1.7-4.5l-1.6,4.5H109.4
		z"/>
	<path class="st0" d="M122.4,110.6l-4.3-12.1h2.6l3.1,8.9l3-8.9h2.6l-4.3,12.1H122.4z"/>
	<path class="st0" d="M130.5,110.6V98.5h2.4v12.1H130.5z"/>
	<path class="st0" d="M135.3,110.6V98.5h5.1c1.3,0,2.2,0.1,2.8,0.3c0.6,0.2,1.1,0.6,1.4,1.2c0.4,0.6,0.5,1.2,0.5,1.9
		c0,0.9-0.3,1.7-0.8,2.2s-1.3,1-2.4,1.1c0.5,0.3,1,0.6,1.3,1c0.3,0.4,0.8,1,1.4,2l1.5,2.4h-2.9l-1.8-2.6c-0.6-0.9-1.1-1.5-1.3-1.8
		c-0.2-0.2-0.5-0.4-0.7-0.5c-0.3-0.1-0.7-0.1-1.2-0.1h-0.5v5H135.3z M137.7,103.7h1.8c1.2,0,1.9,0,2.2-0.1c0.3-0.1,0.5-0.3,0.7-0.5
		c0.2-0.2,0.2-0.5,0.2-0.9c0-0.4-0.1-0.7-0.3-1c-0.2-0.2-0.5-0.4-0.9-0.5c-0.2,0-0.8,0-1.8,0h-1.9V103.7z"/>
	<path class="st0" d="M150.2,110.6v-10h-3.6v-2h9.6v2h-3.6v10H150.2z"/>
	<path class="st0" d="M157.7,98.5h2.4v6.5c0,1,0,1.7,0.1,2c0.1,0.5,0.4,0.9,0.7,1.2c0.4,0.3,0.9,0.4,1.6,0.4c0.7,0,1.2-0.1,1.6-0.4
		s0.6-0.6,0.6-1c0.1-0.4,0.1-1.1,0.1-2.1v-6.7h2.4v6.3c0,1.5-0.1,2.5-0.2,3.1s-0.4,1.1-0.7,1.5c-0.4,0.4-0.8,0.7-1.4,1
		s-1.4,0.4-2.3,0.4c-1.2,0-2-0.1-2.6-0.4s-1.1-0.6-1.4-1c-0.3-0.4-0.6-0.9-0.7-1.3c-0.2-0.7-0.2-1.7-0.2-3.1V98.5z"/>
	<path class="st0" d="M180.9,110.6h-2.7l-1.1-2.7h-4.8l-1,2.7h-2.6l4.7-12.1h2.6L180.9,110.6z M176.4,105.9l-1.7-4.5l-1.6,4.5H176.4
		z"/>
	<path class="st0" d="M182.2,110.6v-12h2.4v10h6.1v2H182.2z"/>
</g>
<g>
	<g>
		<path class="st4" d="M110.1,184.3h30c1.3,0,2.3-1,2.3-2.3v-20.9c0-1.3-1-2.3-2.3-2.3l0,0h-30c-1.3,0-2.3,1-2.3,2.3V182
			C107.8,183.3,108.9,184.3,110.1,184.3z M109.8,161.1c0-0.2,0.1-0.3,0.3-0.3h30c0.2,0,0.3,0.2,0.3,0.3v18.8h-30.6V161.1z"/>
		<path class="st4" d="M144.8,190.6l-3.6-3.4c-0.3-0.3-0.7-0.4-1.1-0.5h-30.1c-0.4,0-0.8,0.2-1.1,0.5l-3.6,3.4c-0.7,0.8-0.9,2-0.5,3
			c0.2,0.7,0.9,1.2,1.6,1.2h37.3c0.7,0,1.4-0.5,1.6-1.2C145.8,192.6,145.6,191.4,144.8,190.6z"/>
	</g>
</g>
<path class="st6" d="M206.1,418.5H44.1c-13.1,0-23.8-10.7-23.8-23.8V44.1C20.3,31,31,20.3,44.1,20.3h161.9
	c13.1,0,23.8,10.7,23.8,23.8v350.5C229.9,407.8,219.2,418.5,206.1,418.5z"/>
<circle class="st4" cx="125.1" cy="50.4" r="14.8"/>
<g>
	<path class="st0" d="M130.1,55.8v2.8h-10.5c0.1-1,0.5-2,1-3c0.6-0.9,1.7-2.2,3.4-3.7c1.3-1.3,2.2-2.1,2.5-2.5
		c0.4-0.6,0.6-1.2,0.6-1.8c0-0.7-0.2-1.2-0.5-1.5s-0.9-0.5-1.5-0.5c-0.6,0-1.1,0.2-1.5,0.6c-0.4,0.4-0.6,1-0.6,1.9l-3-0.3
		c0.2-1.6,0.7-2.8,1.7-3.5s2.1-1.1,3.5-1.1c1.5,0,2.7,0.4,3.6,1.2c0.9,0.8,1.3,1.9,1.3,3.1c0,0.7-0.1,1.4-0.4,2
		c-0.3,0.6-0.6,1.3-1.2,2c-0.4,0.5-1,1.1-2,2c-0.9,0.9-1.5,1.4-1.8,1.7s-0.5,0.6-0.6,0.8H130.1z"/>
</g>
<g>
	<path class="st5" d="M39.7,244.2v-10.7h4.6c1.1,0,2,0.1,2.5,0.3c0.5,0.2,0.9,0.5,1.2,1s0.5,1.1,0.5,1.7c0,0.8-0.2,1.5-0.7,2
		c-0.5,0.5-1.2,0.9-2.1,1c0.5,0.3,0.9,0.6,1.2,0.9c0.3,0.3,0.7,0.9,1.2,1.7l1.3,2.1h-2.6l-1.6-2.3c-0.6-0.8-0.9-1.4-1.1-1.6
		c-0.2-0.2-0.4-0.4-0.7-0.4c-0.2-0.1-0.6-0.1-1.1-0.1h-0.4v4.5H39.7z M41.8,238h1.6c1,0,1.7,0,1.9-0.1s0.5-0.2,0.6-0.5
		s0.2-0.5,0.2-0.8c0-0.4-0.1-0.7-0.3-0.9c-0.2-0.2-0.5-0.4-0.8-0.4c-0.2,0-0.7,0-1.6,0h-1.7V238z"/>
	<path class="st5" d="M55,241.7L57,242c-0.3,0.8-0.7,1.3-1.2,1.7c-0.6,0.4-1.3,0.6-2.1,0.6c-1.4,0-2.4-0.4-3-1.3
		c-0.5-0.7-0.8-1.6-0.8-2.7c0-1.3,0.3-2.3,1-3c0.7-0.7,1.5-1.1,2.6-1.1c1.2,0,2.1,0.4,2.7,1.1c0.7,0.8,1,1.9,1,3.5H52
		c0,0.6,0.2,1.1,0.5,1.4c0.3,0.3,0.7,0.5,1.2,0.5c0.3,0,0.6-0.1,0.8-0.3S54.9,242.1,55,241.7z M55.1,239.6c0-0.6-0.2-1-0.5-1.4
		c-0.3-0.3-0.6-0.5-1.1-0.5c-0.4,0-0.8,0.2-1.1,0.5S52,239,52,239.6H55.1z"/>
	<path class="st5" d="M60.4,238.8l-1.9-0.3c0.2-0.8,0.6-1.3,1.1-1.7s1.3-0.5,2.3-0.5c0.9,0,1.6,0.1,2.1,0.3c0.4,0.2,0.8,0.5,0.9,0.8
		c0.2,0.3,0.3,0.9,0.3,1.8l0,2.4c0,0.7,0,1.2,0.1,1.5c0.1,0.3,0.2,0.7,0.4,1h-2c-0.1-0.1-0.1-0.3-0.2-0.6c0-0.1-0.1-0.2-0.1-0.2
		c-0.4,0.3-0.7,0.6-1.1,0.8s-0.8,0.3-1.3,0.3c-0.8,0-1.4-0.2-1.9-0.7c-0.5-0.4-0.7-1-0.7-1.6c0-0.4,0.1-0.8,0.3-1.2
		c0.2-0.3,0.5-0.6,0.9-0.8c0.4-0.2,0.9-0.3,1.6-0.5c1-0.2,1.6-0.3,2-0.5v-0.2c0-0.4-0.1-0.7-0.3-0.8c-0.2-0.2-0.6-0.3-1.1-0.3
		c-0.4,0-0.7,0.1-0.9,0.2C60.7,238.1,60.5,238.4,60.4,238.8z M63.1,240.4c-0.3,0.1-0.7,0.2-1.3,0.3s-0.9,0.2-1.1,0.4
		c-0.3,0.2-0.4,0.4-0.4,0.7c0,0.3,0.1,0.5,0.3,0.7s0.5,0.3,0.8,0.3c0.4,0,0.7-0.1,1.1-0.4c0.2-0.2,0.4-0.4,0.5-0.7
		c0.1-0.2,0.1-0.5,0.1-1V240.4z"/>
	<path class="st5" d="M67.2,244.2v-10.7h2.1v10.7H67.2z"/>
	<path class="st5" d="M71.3,235.3v-1.9h2.1v1.9H71.3z M71.3,244.2v-7.8h2.1v7.8H71.3z"/>
	<path class="st5" d="M74.7,244.2v-1.6l2.9-3.3c0.5-0.5,0.8-0.9,1.1-1.2c-0.2,0-0.6,0-0.9,0l-2.7,0v-1.7h6.4v1.5l-3,3.4l-1,1.1
		c0.6,0,0.9-0.1,1.1-0.1h3.2v1.8H74.7z"/>
	<path class="st5" d="M84.5,238.8l-1.9-0.3c0.2-0.8,0.6-1.3,1.1-1.7s1.3-0.5,2.3-0.5c0.9,0,1.6,0.1,2.1,0.3c0.4,0.2,0.8,0.5,0.9,0.8
		c0.2,0.3,0.3,0.9,0.3,1.8l0,2.4c0,0.7,0,1.2,0.1,1.5c0.1,0.3,0.2,0.7,0.4,1h-2c-0.1-0.1-0.1-0.3-0.2-0.6c0-0.1-0.1-0.2-0.1-0.2
		c-0.4,0.3-0.7,0.6-1.1,0.8s-0.8,0.3-1.3,0.3c-0.8,0-1.4-0.2-1.9-0.7c-0.5-0.4-0.7-1-0.7-1.6c0-0.4,0.1-0.8,0.3-1.2
		c0.2-0.3,0.5-0.6,0.9-0.8c0.4-0.2,0.9-0.3,1.6-0.5c1-0.2,1.6-0.3,2-0.5v-0.2c0-0.4-0.1-0.7-0.3-0.8c-0.2-0.2-0.6-0.3-1.1-0.3
		c-0.4,0-0.7,0.1-0.9,0.2C84.8,238.1,84.7,238.4,84.5,238.8z M87.3,240.4c-0.3,0.1-0.7,0.2-1.3,0.3s-0.9,0.2-1.1,0.4
		c-0.3,0.2-0.4,0.4-0.4,0.7c0,0.3,0.1,0.5,0.3,0.7s0.5,0.3,0.8,0.3c0.4,0,0.7-0.1,1.1-0.4c0.2-0.2,0.4-0.4,0.5-0.7
		c0.1-0.2,0.1-0.5,0.1-1V240.4z"/>
	<path class="st5" d="M93.3,244.2h-2.1v-7.8h1.9v1.1c0.3-0.5,0.6-0.9,0.9-1c0.3-0.2,0.6-0.2,0.9-0.2c0.5,0,0.9,0.1,1.4,0.4l-0.6,1.8
		c-0.3-0.2-0.7-0.3-1-0.3c-0.3,0-0.5,0.1-0.7,0.2c-0.2,0.2-0.4,0.4-0.5,0.9c-0.1,0.4-0.2,1.3-0.2,2.6V244.2z"/>
	<path class="st5" d="M105.9,241.7l2.1,0.3c-0.3,0.8-0.7,1.3-1.2,1.7c-0.6,0.4-1.3,0.6-2.1,0.6c-1.4,0-2.4-0.4-3-1.3
		c-0.5-0.7-0.8-1.6-0.8-2.7c0-1.3,0.3-2.3,1-3c0.7-0.7,1.5-1.1,2.6-1.1c1.2,0,2.1,0.4,2.7,1.1c0.7,0.8,1,1.9,1,3.5h-5.2
		c0,0.6,0.2,1.1,0.5,1.4c0.3,0.3,0.7,0.5,1.2,0.5c0.3,0,0.6-0.1,0.8-0.3S105.7,242.1,105.9,241.7z M106,239.6c0-0.6-0.2-1-0.5-1.4
		c-0.3-0.3-0.6-0.5-1.1-0.5c-0.4,0-0.8,0.2-1.1,0.5s-0.4,0.8-0.4,1.3H106z"/>
	<path class="st5" d="M109.7,244.2v-10.7h2.1v10.7H109.7z"/>
	<path class="st5" d="M124.8,238.7l-2,0.4c-0.1-0.4-0.2-0.7-0.5-0.9c-0.2-0.2-0.6-0.3-0.9-0.3c-0.5,0-0.9,0.2-1.2,0.5
		c-0.3,0.4-0.5,0.9-0.5,1.8c0,0.9,0.2,1.6,0.5,2c0.3,0.4,0.7,0.6,1.2,0.6c0.4,0,0.7-0.1,1-0.3c0.2-0.2,0.4-0.6,0.5-1.1l2,0.3
		c-0.2,0.9-0.6,1.6-1.2,2.1s-1.4,0.7-2.4,0.7c-1.1,0-2-0.4-2.7-1.1c-0.7-0.7-1-1.7-1-3c0-1.3,0.3-2.3,1-3c0.7-0.7,1.6-1.1,2.8-1.1
		c0.9,0,1.7,0.2,2.3,0.6C124.2,237.2,124.6,237.8,124.8,238.7z"/>
	<path class="st5" d="M131.5,244.2V243c-0.3,0.4-0.7,0.7-1.1,1c-0.5,0.2-0.9,0.4-1.5,0.4c-0.5,0-1-0.1-1.4-0.3s-0.7-0.6-0.9-1
		s-0.3-1-0.3-1.7v-4.9h2.1v3.6c0,1.1,0,1.8,0.1,2c0.1,0.2,0.2,0.4,0.4,0.6c0.2,0.1,0.5,0.2,0.8,0.2c0.4,0,0.7-0.1,0.9-0.3
		c0.3-0.2,0.5-0.4,0.6-0.7c0.1-0.3,0.2-1,0.2-2.1v-3.3h2.1v7.8H131.5z"/>
	<path class="st5" d="M137.5,244.2h-2.1v-7.8h1.9v1.1c0.3-0.5,0.6-0.9,0.9-1c0.3-0.2,0.6-0.2,0.9-0.2c0.5,0,0.9,0.1,1.4,0.4
		l-0.6,1.8c-0.3-0.2-0.7-0.3-1-0.3c-0.3,0-0.5,0.1-0.7,0.2c-0.2,0.2-0.4,0.4-0.5,0.9c-0.1,0.4-0.2,1.3-0.2,2.6V244.2z"/>
	<path class="st5" d="M140.6,241.9l2.1-0.3c0.1,0.4,0.3,0.7,0.5,0.9c0.3,0.2,0.6,0.3,1.1,0.3c0.5,0,0.9-0.1,1.2-0.3
		c0.2-0.1,0.3-0.3,0.3-0.5c0-0.2,0-0.3-0.1-0.4c-0.1-0.1-0.3-0.2-0.7-0.3c-1.7-0.4-2.7-0.7-3.2-1c-0.6-0.4-0.9-1-0.9-1.8
		c0-0.7,0.3-1.2,0.8-1.7s1.4-0.7,2.5-0.7c1.1,0,1.9,0.2,2.4,0.5s0.9,0.9,1.1,1.5l-1.9,0.4c-0.1-0.3-0.2-0.5-0.5-0.7
		c-0.2-0.2-0.6-0.2-1-0.2c-0.5,0-0.9,0.1-1.2,0.2c-0.2,0.1-0.2,0.2-0.2,0.4c0,0.1,0.1,0.3,0.2,0.4c0.2,0.1,0.8,0.3,1.9,0.6
		c1.1,0.2,1.9,0.6,2.3,0.9c0.4,0.4,0.6,0.9,0.6,1.5c0,0.7-0.3,1.3-0.9,1.8s-1.5,0.8-2.6,0.8c-1.1,0-1.9-0.2-2.5-0.6
		C141.2,243.3,140.8,242.7,140.6,241.9z"/>
	<path class="st5" d="M149.2,240.2c0-0.7,0.2-1.3,0.5-2c0.3-0.6,0.8-1.1,1.4-1.5c0.6-0.3,1.3-0.5,2.1-0.5c1.2,0,2.1,0.4,2.9,1.1
		c0.8,0.8,1.1,1.7,1.1,2.9c0,1.2-0.4,2.2-1.1,2.9c-0.8,0.8-1.7,1.2-2.9,1.2c-0.7,0-1.4-0.2-2-0.5c-0.6-0.3-1.1-0.8-1.5-1.4
		C149.4,241.8,149.2,241,149.2,240.2z M151.3,240.3c0,0.8,0.2,1.4,0.5,1.8c0.4,0.4,0.8,0.6,1.4,0.6s1-0.2,1.4-0.6
		c0.4-0.4,0.5-1,0.5-1.8c0-0.8-0.2-1.3-0.5-1.8c-0.4-0.4-0.8-0.6-1.4-0.6s-1,0.2-1.4,0.6C151.5,238.9,151.3,239.5,151.3,240.3z"/>
	<path class="st5" d="M170.2,244.2h-1.9V243c-0.3,0.4-0.7,0.8-1.1,1c-0.4,0.2-0.9,0.3-1.3,0.3c-0.9,0-1.7-0.4-2.3-1.1
		c-0.6-0.7-1-1.7-1-3c0-1.3,0.3-2.3,0.9-3c0.6-0.7,1.4-1,2.4-1c0.9,0,1.6,0.4,2.3,1.1v-3.9h2.1V244.2z M164.7,240.1
		c0,0.8,0.1,1.4,0.3,1.8c0.3,0.5,0.8,0.8,1.4,0.8c0.5,0,0.9-0.2,1.2-0.6c0.3-0.4,0.5-1,0.5-1.8c0-0.9-0.2-1.5-0.5-1.9
		c-0.3-0.4-0.7-0.6-1.2-0.6c-0.5,0-0.9,0.2-1.2,0.6C164.9,238.7,164.7,239.3,164.7,240.1z"/>
	<path class="st5" d="M176.7,241.7l2.1,0.3c-0.3,0.8-0.7,1.3-1.2,1.7c-0.6,0.4-1.3,0.6-2.1,0.6c-1.4,0-2.4-0.4-3-1.3
		c-0.5-0.7-0.8-1.6-0.8-2.7c0-1.3,0.3-2.3,1-3c0.7-0.7,1.5-1.1,2.6-1.1c1.2,0,2.1,0.4,2.7,1.1c0.7,0.8,1,1.9,1,3.5h-5.2
		c0,0.6,0.2,1.1,0.5,1.4c0.3,0.3,0.7,0.5,1.2,0.5c0.3,0,0.6-0.1,0.8-0.3S176.6,242.1,176.7,241.7z M176.8,239.6c0-0.6-0.2-1-0.5-1.4
		c-0.3-0.3-0.6-0.5-1.1-0.5c-0.5,0-0.8,0.2-1.1,0.5s-0.4,0.8-0.4,1.3H176.8z"/>
	<path class="st5" d="M46.7,262.2h-2.1v-4c0-0.8,0-1.4-0.1-1.6c-0.1-0.2-0.2-0.4-0.4-0.6c-0.2-0.1-0.4-0.2-0.7-0.2
		c-0.4,0-0.7,0.1-1,0.3s-0.5,0.5-0.6,0.8c-0.1,0.3-0.2,0.9-0.2,1.8v3.5h-2.1v-7.8h1.9v1.1c0.7-0.9,1.5-1.3,2.6-1.3
		c0.5,0,0.9,0.1,1.2,0.2c0.4,0.2,0.7,0.4,0.9,0.6c0.2,0.3,0.3,0.5,0.4,0.9c0.1,0.3,0.1,0.8,0.1,1.4V262.2z"/>
	<path class="st5" d="M48.8,253.3v-1.9h2.1v1.9H48.8z M48.8,262.2v-7.8h2.1v7.8H48.8z"/>
	<path class="st5" d="M55.1,262.2l-3.1-7.8h2.2l1.5,4l0.4,1.3c0.1-0.3,0.2-0.6,0.2-0.7c0.1-0.2,0.1-0.4,0.2-0.7l1.5-4h2.1l-3.1,7.8
		H55.1z"/>
	<path class="st5" d="M65.8,259.7l2.1,0.3c-0.3,0.8-0.7,1.3-1.2,1.7c-0.6,0.4-1.3,0.6-2.1,0.6c-1.4,0-2.4-0.4-3-1.3
		c-0.5-0.7-0.8-1.6-0.8-2.7c0-1.3,0.3-2.3,1-3c0.7-0.7,1.5-1.1,2.6-1.1c1.2,0,2.1,0.4,2.7,1.1c0.7,0.8,1,1.9,1,3.5h-5.2
		c0,0.6,0.2,1.1,0.5,1.4c0.3,0.3,0.7,0.5,1.2,0.5c0.3,0,0.6-0.1,0.8-0.3S65.7,260.1,65.8,259.7z M65.9,257.6c0-0.6-0.2-1-0.5-1.4
		c-0.3-0.3-0.6-0.5-1.1-0.5c-0.4,0-0.8,0.2-1.1,0.5s-0.4,0.8-0.4,1.3H65.9z"/>
	<path class="st5" d="M69.7,262.2v-10.7h2.1v10.7H69.7z"/>
	<path class="st5" d="M75.4,256.8l-1.9-0.3c0.2-0.8,0.6-1.3,1.1-1.7s1.3-0.5,2.3-0.5c0.9,0,1.6,0.1,2.1,0.3c0.4,0.2,0.8,0.5,0.9,0.8
		c0.2,0.3,0.3,0.9,0.3,1.8l0,2.4c0,0.7,0,1.2,0.1,1.5c0.1,0.3,0.2,0.7,0.4,1h-2c-0.1-0.1-0.1-0.3-0.2-0.6c0-0.1-0.1-0.2-0.1-0.2
		c-0.4,0.3-0.7,0.6-1.1,0.8c-0.4,0.2-0.8,0.3-1.3,0.3c-0.8,0-1.4-0.2-1.9-0.7c-0.5-0.4-0.7-1-0.7-1.6c0-0.4,0.1-0.8,0.3-1.2
		c0.2-0.3,0.5-0.6,0.9-0.8c0.4-0.2,0.9-0.3,1.6-0.5c1-0.2,1.6-0.3,2-0.5v-0.2c0-0.4-0.1-0.7-0.3-0.8c-0.2-0.2-0.6-0.3-1.1-0.3
		c-0.4,0-0.7,0.1-0.9,0.2C75.7,256.1,75.5,256.4,75.4,256.8z M78.1,258.4c-0.3,0.1-0.7,0.2-1.3,0.3s-0.9,0.2-1.1,0.4
		c-0.3,0.2-0.4,0.4-0.4,0.7c0,0.3,0.1,0.5,0.3,0.7c0.2,0.2,0.5,0.3,0.8,0.3c0.4,0,0.7-0.1,1.1-0.4c0.2-0.2,0.4-0.4,0.5-0.7
		c0.1-0.2,0.1-0.5,0.1-1V258.4z"/>
	<path class="st5" d="M89,256.7l-2,0.4c-0.1-0.4-0.2-0.7-0.5-0.9c-0.2-0.2-0.6-0.3-0.9-0.3c-0.5,0-0.9,0.2-1.2,0.5
		c-0.3,0.4-0.5,0.9-0.5,1.8c0,0.9,0.2,1.6,0.5,2c0.3,0.4,0.7,0.6,1.2,0.6c0.4,0,0.7-0.1,1-0.3c0.2-0.2,0.4-0.6,0.5-1.1l2,0.3
		c-0.2,0.9-0.6,1.6-1.2,2.1c-0.6,0.5-1.4,0.7-2.4,0.7c-1.1,0-2-0.4-2.7-1.1c-0.7-0.7-1-1.7-1-3c0-1.3,0.3-2.3,1-3
		c0.7-0.7,1.6-1.1,2.8-1.1c0.9,0,1.7,0.2,2.3,0.6C88.3,255.2,88.7,255.8,89,256.7z"/>
	<path class="st5" d="M90.5,253.3v-1.9h2.1v1.9H90.5z M90.5,262.2v-7.8h2.1v7.8H90.5z"/>
	<path class="st5" d="M94.2,258.2c0-0.7,0.2-1.3,0.5-2c0.3-0.6,0.8-1.1,1.4-1.5c0.6-0.3,1.3-0.5,2.1-0.5c1.2,0,2.1,0.4,2.9,1.1
		c0.8,0.8,1.1,1.7,1.1,2.9c0,1.2-0.4,2.2-1.1,2.9c-0.8,0.8-1.7,1.2-2.9,1.2c-0.7,0-1.4-0.2-2-0.5c-0.6-0.3-1.1-0.8-1.5-1.4
		C94.4,259.8,94.2,259,94.2,258.2z M96.3,258.3c0,0.8,0.2,1.4,0.5,1.8s0.8,0.6,1.4,0.6s1-0.2,1.4-0.6c0.4-0.4,0.5-1,0.5-1.8
		c0-0.8-0.2-1.3-0.5-1.8c-0.4-0.4-0.8-0.6-1.4-0.6s-1,0.2-1.4,0.6S96.3,257.5,96.3,258.3z M97.2,253.4l1-2.2h2.3l-2,2.2H97.2z"/>
	<path class="st5" d="M110.9,262.2h-2.1v-4c0-0.8,0-1.4-0.1-1.6c-0.1-0.2-0.2-0.4-0.4-0.6c-0.2-0.1-0.4-0.2-0.7-0.2
		c-0.4,0-0.7,0.1-1,0.3s-0.5,0.5-0.6,0.8c-0.1,0.3-0.2,0.9-0.2,1.8v3.5h-2.1v-7.8h1.9v1.1c0.7-0.9,1.5-1.3,2.6-1.3
		c0.5,0,0.9,0.1,1.2,0.2c0.4,0.2,0.7,0.4,0.9,0.6c0.2,0.3,0.3,0.5,0.4,0.9c0.1,0.3,0.1,0.8,0.1,1.4V262.2z"/>
	<path class="st5" d="M116.7,258.2c0-0.7,0.2-1.3,0.5-2c0.3-0.6,0.8-1.1,1.4-1.5c0.6-0.3,1.3-0.5,2.1-0.5c1.2,0,2.1,0.4,2.9,1.1
		c0.8,0.8,1.1,1.7,1.1,2.9c0,1.2-0.4,2.2-1.1,2.9c-0.8,0.8-1.7,1.2-2.9,1.2c-0.7,0-1.4-0.2-2-0.5c-0.6-0.3-1.1-0.8-1.5-1.4
		C116.9,259.8,116.7,259,116.7,258.2z M118.8,258.3c0,0.8,0.2,1.4,0.5,1.8s0.8,0.6,1.4,0.6s1-0.2,1.4-0.6c0.4-0.4,0.5-1,0.5-1.8
		c0-0.8-0.2-1.3-0.5-1.8c-0.4-0.4-0.8-0.6-1.4-0.6s-1,0.2-1.4,0.6S118.8,257.5,118.8,258.3z"/>
	<path class="st5" d="M126.3,262.2v-10.7h2.1v3.9c0.6-0.7,1.4-1.1,2.3-1.1c0.9,0,1.7,0.3,2.4,1c0.6,0.7,0.9,1.7,0.9,3
		c0,1.3-0.3,2.4-0.9,3.1c-0.6,0.7-1.4,1.1-2.3,1.1c-0.4,0-0.9-0.1-1.3-0.3c-0.4-0.2-0.8-0.6-1.1-1v1.1H126.3z M128.3,258.1
		c0,0.8,0.1,1.4,0.4,1.8c0.4,0.5,0.8,0.8,1.4,0.8c0.5,0,0.8-0.2,1.2-0.6c0.3-0.4,0.5-1,0.5-1.8c0-0.9-0.2-1.5-0.5-1.9
		c-0.3-0.4-0.7-0.6-1.2-0.6c-0.5,0-0.9,0.2-1.2,0.6C128.5,256.7,128.3,257.3,128.3,258.1z"/>
	<path class="st5" d="M135.5,262.2v-10.7h2.1v10.7H135.5z"/>
	<path class="st5" d="M139.7,253.3v-1.9h2.1v1.9H139.7z M139.7,262.2v-7.8h2.1v7.8H139.7z"/>
	<path class="st5" d="M143.7,262.7l2.4,0.3c0,0.3,0.1,0.5,0.3,0.6c0.2,0.1,0.5,0.2,0.9,0.2c0.5,0,0.9-0.1,1.2-0.2
		c0.2-0.1,0.3-0.3,0.4-0.5c0.1-0.2,0.1-0.5,0.1-0.9v-1.1c-0.6,0.8-1.4,1.3-2.3,1.3c-1,0-1.9-0.4-2.5-1.3c-0.5-0.7-0.7-1.6-0.7-2.6
		c0-1.3,0.3-2.3,0.9-3c0.6-0.7,1.4-1,2.3-1c1,0,1.8,0.4,2.4,1.3v-1.1h1.9v7c0,0.9-0.1,1.6-0.2,2.1c-0.2,0.5-0.4,0.8-0.6,1.1
		s-0.6,0.5-1.1,0.6c-0.5,0.1-1,0.2-1.7,0.2c-1.3,0-2.3-0.2-2.8-0.7c-0.6-0.5-0.8-1-0.8-1.7C143.6,262.8,143.6,262.8,143.7,262.7z
		 M145.5,258.1c0,0.8,0.2,1.4,0.5,1.8c0.3,0.4,0.7,0.6,1.2,0.6c0.5,0,0.9-0.2,1.3-0.6c0.3-0.4,0.5-1,0.5-1.7c0-0.8-0.2-1.4-0.5-1.8
		s-0.8-0.6-1.3-0.6c-0.5,0-0.9,0.2-1.2,0.6C145.7,256.7,145.5,257.3,145.5,258.1z"/>
	<path class="st5" d="M154.5,256.8l-1.9-0.3c0.2-0.8,0.6-1.3,1.1-1.7s1.3-0.5,2.3-0.5c0.9,0,1.6,0.1,2.1,0.3
		c0.4,0.2,0.8,0.5,0.9,0.8c0.2,0.3,0.3,0.9,0.3,1.8l0,2.4c0,0.7,0,1.2,0.1,1.5c0.1,0.3,0.2,0.7,0.4,1h-2c-0.1-0.1-0.1-0.3-0.2-0.6
		c0-0.1-0.1-0.2-0.1-0.2c-0.4,0.3-0.7,0.6-1.1,0.8c-0.4,0.2-0.8,0.3-1.3,0.3c-0.8,0-1.4-0.2-1.9-0.7c-0.5-0.4-0.7-1-0.7-1.6
		c0-0.4,0.1-0.8,0.3-1.2c0.2-0.3,0.5-0.6,0.9-0.8c0.4-0.2,0.9-0.3,1.6-0.5c1-0.2,1.6-0.3,2-0.5v-0.2c0-0.4-0.1-0.7-0.3-0.8
		c-0.2-0.2-0.6-0.3-1.1-0.3c-0.4,0-0.7,0.1-0.9,0.2C154.8,256.1,154.7,256.4,154.5,256.8z M157.3,258.4c-0.3,0.1-0.7,0.2-1.3,0.3
		s-0.9,0.2-1.1,0.4c-0.3,0.2-0.4,0.4-0.4,0.7c0,0.3,0.1,0.5,0.3,0.7c0.2,0.2,0.5,0.3,0.8,0.3c0.4,0,0.7-0.1,1.1-0.4
		c0.2-0.2,0.4-0.4,0.5-0.7c0.1-0.2,0.1-0.5,0.1-1V258.4z"/>
	<path class="st5" d="M164.9,254.4v1.6h-1.4v3.1c0,0.6,0,1,0,1.1c0,0.1,0.1,0.2,0.2,0.3c0.1,0.1,0.2,0.1,0.3,0.1
		c0.2,0,0.5-0.1,0.8-0.2l0.2,1.6c-0.5,0.2-1,0.3-1.6,0.3c-0.4,0-0.7-0.1-1-0.2c-0.3-0.1-0.5-0.3-0.7-0.5c-0.1-0.2-0.2-0.5-0.3-0.8
		c0-0.2-0.1-0.7-0.1-1.4V256h-0.9v-1.6h0.9v-1.5l2.1-1.2v2.7H164.9z"/>
	<path class="st5" d="M165.9,258.2c0-0.7,0.2-1.3,0.5-2c0.3-0.6,0.8-1.1,1.4-1.5c0.6-0.3,1.3-0.5,2.1-0.5c1.2,0,2.1,0.4,2.9,1.1
		c0.8,0.8,1.1,1.7,1.1,2.9c0,1.2-0.4,2.2-1.1,2.9c-0.8,0.8-1.7,1.2-2.9,1.2c-0.7,0-1.4-0.2-2-0.5c-0.6-0.3-1.1-0.8-1.5-1.4
		C166,259.8,165.9,259,165.9,258.2z M168,258.3c0,0.8,0.2,1.4,0.5,1.8c0.4,0.4,0.8,0.6,1.4,0.6s1-0.2,1.4-0.6c0.4-0.4,0.5-1,0.5-1.8
		c0-0.8-0.2-1.3-0.5-1.8c-0.4-0.4-0.8-0.6-1.4-0.6s-1,0.2-1.4,0.6C168.2,256.9,168,257.5,168,258.3z"/>
	<path class="st5" d="M177.5,262.2h-2.1v-7.8h1.9v1.1c0.3-0.5,0.6-0.9,0.9-1c0.3-0.2,0.6-0.2,0.9-0.2c0.5,0,0.9,0.1,1.4,0.4
		l-0.6,1.8c-0.3-0.2-0.7-0.3-1-0.3c-0.3,0-0.5,0.1-0.7,0.2c-0.2,0.2-0.4,0.4-0.5,0.9c-0.1,0.4-0.2,1.3-0.2,2.6V262.2z"/>
	<path class="st5" d="M181.3,253.3v-1.9h2.1v1.9H181.3z M181.3,262.2v-7.8h2.1v7.8H181.3z"/>
	<path class="st5" d="M185,258.2c0-0.7,0.2-1.3,0.5-2c0.3-0.6,0.8-1.1,1.4-1.5c0.6-0.3,1.3-0.5,2.1-0.5c1.2,0,2.1,0.4,2.9,1.1
		c0.8,0.8,1.1,1.7,1.1,2.9c0,1.2-0.4,2.2-1.1,2.9c-0.8,0.8-1.7,1.2-2.9,1.2c-0.7,0-1.4-0.2-2-0.5c-0.6-0.3-1.1-0.8-1.5-1.4
		C185.2,259.8,185,259,185,258.2z M187.1,258.3c0,0.8,0.2,1.4,0.5,1.8c0.4,0.4,0.8,0.6,1.4,0.6s1-0.2,1.4-0.6c0.4-0.4,0.5-1,0.5-1.8
		c0-0.8-0.2-1.3-0.5-1.8c-0.4-0.4-0.8-0.6-1.4-0.6s-1,0.2-1.4,0.6C187.3,256.9,187.1,257.5,187.1,258.3z"/>
	<path class="st5" d="M194.7,262.2v-2.1h2.1v2.1H194.7z"/>
	<path class="st5" d="M46.5,294.2l2.1,0.7c-0.3,1.2-0.9,2-1.6,2.6c-0.8,0.6-1.7,0.9-2.9,0.9c-1.4,0-2.6-0.5-3.5-1.5
		c-0.9-1-1.4-2.3-1.4-4c0-1.8,0.5-3.2,1.4-4.2c0.9-1,2.1-1.5,3.6-1.5c1.3,0,2.4,0.4,3.2,1.2c0.5,0.5,0.9,1.1,1.1,2l-2.1,0.5
		c-0.1-0.6-0.4-1-0.8-1.3c-0.4-0.3-0.9-0.5-1.5-0.5c-0.8,0-1.4,0.3-1.9,0.9c-0.5,0.6-0.7,1.5-0.7,2.8c0,1.4,0.2,2.3,0.7,2.9
		s1.1,0.9,1.9,0.9c0.6,0,1.1-0.2,1.5-0.5C46.1,295.6,46.4,295,46.5,294.2z"/>
	<path class="st5" d="M50,294.2c0-0.7,0.2-1.3,0.5-2c0.3-0.6,0.8-1.1,1.4-1.5c0.6-0.3,1.3-0.5,2.1-0.5c1.2,0,2.1,0.4,2.9,1.1
		c0.8,0.8,1.1,1.7,1.1,2.9c0,1.2-0.4,2.2-1.1,2.9c-0.8,0.8-1.7,1.2-2.9,1.2c-0.7,0-1.4-0.2-2-0.5c-0.6-0.3-1.1-0.8-1.5-1.4
		C50.2,295.8,50,295,50,294.2z M52.1,294.3c0,0.8,0.2,1.4,0.5,1.8s0.8,0.6,1.4,0.6s1-0.2,1.4-0.6c0.4-0.4,0.5-1,0.5-1.8
		c0-0.8-0.2-1.3-0.5-1.8c-0.4-0.4-0.8-0.6-1.4-0.6s-1,0.2-1.4,0.6S52.1,293.5,52.1,294.3z"/>
	<path class="st5" d="M59.5,290.4h1.9v1.1c0.7-0.8,1.5-1.2,2.4-1.2c0.5,0,0.9,0.1,1.3,0.3s0.7,0.5,0.9,0.9c0.3-0.4,0.7-0.7,1.1-0.9
		s0.8-0.3,1.3-0.3c0.6,0,1.1,0.1,1.5,0.3c0.4,0.2,0.7,0.6,0.9,1c0.1,0.3,0.2,0.9,0.2,1.6v5h-2.1v-4.4c0-0.8-0.1-1.3-0.2-1.5
		c-0.2-0.3-0.5-0.4-0.9-0.4c-0.3,0-0.6,0.1-0.8,0.3s-0.4,0.4-0.5,0.8c-0.1,0.3-0.2,0.9-0.2,1.6v3.7h-2.1v-4.3c0-0.8,0-1.2-0.1-1.5
		s-0.2-0.4-0.3-0.5c-0.2-0.1-0.4-0.2-0.6-0.2c-0.3,0-0.6,0.1-0.9,0.3s-0.4,0.4-0.5,0.7c-0.1,0.3-0.2,0.9-0.2,1.6v3.8h-2.1V290.4z"/>
	<path class="st5" d="M72.9,290.4h1.9v1.1c0.2-0.4,0.6-0.7,1-1s0.9-0.4,1.4-0.4c0.9,0,1.7,0.4,2.3,1.1c0.6,0.7,0.9,1.7,0.9,3
		c0,1.3-0.3,2.3-1,3c-0.6,0.7-1.4,1.1-2.3,1.1c-0.4,0-0.8-0.1-1.2-0.3c-0.3-0.2-0.7-0.5-1.1-0.9v3.9h-2.1V290.4z M75,294.1
		c0,0.9,0.2,1.5,0.5,1.9c0.3,0.4,0.8,0.6,1.3,0.6c0.5,0,0.9-0.2,1.2-0.6c0.3-0.4,0.5-1,0.5-1.9c0-0.8-0.2-1.4-0.5-1.8
		c-0.3-0.4-0.7-0.6-1.2-0.6c-0.5,0-0.9,0.2-1.3,0.6C75.1,292.8,75,293.4,75,294.1z"/>
	<path class="st5" d="M82.2,298.2v-10.7h2.1v10.7H82.2z"/>
	<path class="st5" d="M90.8,295.7l2.1,0.3c-0.3,0.8-0.7,1.3-1.2,1.7c-0.6,0.4-1.3,0.6-2.1,0.6c-1.4,0-2.4-0.4-3-1.3
		c-0.5-0.7-0.8-1.6-0.8-2.7c0-1.3,0.3-2.3,1-3c0.7-0.7,1.5-1.1,2.6-1.1c1.2,0,2.1,0.4,2.7,1.1c0.7,0.8,1,1.9,1,3.5h-5.2
		c0,0.6,0.2,1.1,0.5,1.4c0.3,0.3,0.7,0.5,1.2,0.5c0.3,0,0.6-0.1,0.8-0.3S90.7,296.1,90.8,295.7z M90.9,293.6c0-0.6-0.2-1-0.5-1.4
		c-0.3-0.3-0.6-0.5-1.1-0.5c-0.4,0-0.8,0.2-1.1,0.5s-0.4,0.8-0.4,1.3H90.9z"/>
	<path class="st5" d="M98.2,290.4v1.6h-1.4v3.1c0,0.6,0,1,0,1.1c0,0.1,0.1,0.2,0.2,0.3c0.1,0.1,0.2,0.1,0.3,0.1
		c0.2,0,0.5-0.1,0.8-0.2l0.2,1.6c-0.5,0.2-1,0.3-1.6,0.3c-0.4,0-0.7-0.1-1-0.2c-0.3-0.1-0.5-0.3-0.7-0.5c-0.1-0.2-0.2-0.5-0.3-0.8
		c0-0.2-0.1-0.7-0.1-1.4V292h-0.9v-1.6h0.9v-1.5l2.1-1.2v2.7H98.2z"/>
	<path class="st5" d="M101.2,292.8l-1.9-0.3c0.2-0.8,0.6-1.3,1.1-1.7s1.3-0.5,2.3-0.5c0.9,0,1.6,0.1,2.1,0.3
		c0.4,0.2,0.8,0.5,0.9,0.8c0.2,0.3,0.3,0.9,0.3,1.8l0,2.4c0,0.7,0,1.2,0.1,1.5c0.1,0.3,0.2,0.7,0.4,1h-2c-0.1-0.1-0.1-0.3-0.2-0.6
		c0-0.1-0.1-0.2-0.1-0.2c-0.4,0.3-0.7,0.6-1.1,0.8c-0.4,0.2-0.8,0.3-1.3,0.3c-0.8,0-1.4-0.2-1.9-0.7c-0.5-0.4-0.7-1-0.7-1.6
		c0-0.4,0.1-0.8,0.3-1.2c0.2-0.3,0.5-0.6,0.9-0.8c0.4-0.2,0.9-0.3,1.6-0.5c1-0.2,1.6-0.3,2-0.5v-0.2c0-0.4-0.1-0.7-0.3-0.8
		c-0.2-0.2-0.6-0.3-1.1-0.3c-0.4,0-0.7,0.1-0.9,0.2C101.5,292.1,101.3,292.4,101.2,292.8z M103.9,294.4c-0.3,0.1-0.7,0.2-1.3,0.3
		s-0.9,0.2-1.1,0.4c-0.3,0.2-0.4,0.4-0.4,0.7c0,0.3,0.1,0.5,0.3,0.7c0.2,0.2,0.5,0.3,0.8,0.3c0.4,0,0.7-0.1,1.1-0.4
		c0.2-0.2,0.4-0.4,0.5-0.7c0.1-0.2,0.1-0.5,0.1-1V294.4z"/>
	<path class="st5" d="M110,298.2h-2.1v-7.8h1.9v1.1c0.3-0.5,0.6-0.9,0.9-1c0.3-0.2,0.6-0.2,0.9-0.2c0.5,0,0.9,0.1,1.4,0.4l-0.6,1.8
		c-0.3-0.2-0.7-0.3-1-0.3c-0.3,0-0.5,0.1-0.7,0.2c-0.2,0.2-0.4,0.4-0.5,0.9c-0.1,0.4-0.2,1.3-0.2,2.6V298.2z"/>
	<path class="st5" d="M118,298.2v-10.7h2.1v10.7H118z"/>
	<path class="st5" d="M123.7,292.8l-1.9-0.3c0.2-0.8,0.6-1.3,1.1-1.7s1.3-0.5,2.3-0.5c0.9,0,1.6,0.1,2.1,0.3
		c0.4,0.2,0.8,0.5,0.9,0.8c0.2,0.3,0.3,0.9,0.3,1.8l0,2.4c0,0.7,0,1.2,0.1,1.5c0.1,0.3,0.2,0.7,0.4,1h-2c-0.1-0.1-0.1-0.3-0.2-0.6
		c0-0.1-0.1-0.2-0.1-0.2c-0.4,0.3-0.7,0.6-1.1,0.8c-0.4,0.2-0.8,0.3-1.3,0.3c-0.8,0-1.4-0.2-1.9-0.7c-0.5-0.4-0.7-1-0.7-1.6
		c0-0.4,0.1-0.8,0.3-1.2c0.2-0.3,0.5-0.6,0.9-0.8c0.4-0.2,0.9-0.3,1.6-0.5c1-0.2,1.6-0.3,2-0.5v-0.2c0-0.4-0.1-0.7-0.3-0.8
		c-0.2-0.2-0.6-0.3-1.1-0.3c-0.4,0-0.7,0.1-0.9,0.2C124,292.1,123.8,292.4,123.7,292.8z M126.5,294.4c-0.3,0.1-0.7,0.2-1.3,0.3
		s-0.9,0.2-1.1,0.4c-0.3,0.2-0.4,0.4-0.4,0.7c0,0.3,0.1,0.5,0.3,0.7c0.2,0.2,0.5,0.3,0.8,0.3c0.4,0,0.7-0.1,1.1-0.4
		c0.2-0.2,0.4-0.4,0.5-0.7c0.1-0.2,0.1-0.5,0.1-1V294.4z"/>
	<path class="st5" d="M139.2,295.7l2.1,0.3c-0.3,0.8-0.7,1.3-1.2,1.7c-0.6,0.4-1.3,0.6-2.1,0.6c-1.4,0-2.4-0.4-3-1.3
		c-0.5-0.7-0.8-1.6-0.8-2.7c0-1.3,0.3-2.3,1-3c0.7-0.7,1.5-1.1,2.6-1.1c1.2,0,2.1,0.4,2.7,1.1c0.7,0.8,1,1.9,1,3.5h-5.2
		c0,0.6,0.2,1.1,0.5,1.4c0.3,0.3,0.7,0.5,1.2,0.5c0.3,0,0.6-0.1,0.8-0.3C138.9,296.4,139.1,296.1,139.2,295.7z M139.3,293.6
		c0-0.6-0.2-1-0.5-1.4c-0.3-0.3-0.7-0.5-1.1-0.5c-0.5,0-0.8,0.2-1.1,0.5s-0.4,0.8-0.4,1.3H139.3z"/>
	<path class="st5" d="M145.2,298.2l-3.1-7.8h2.2l1.5,4l0.4,1.3c0.1-0.3,0.2-0.6,0.2-0.7c0.1-0.2,0.1-0.4,0.2-0.7l1.5-4h2.1l-3.1,7.8
		H145.2z"/>
	<path class="st5" d="M152.9,292.8l-1.9-0.3c0.2-0.8,0.6-1.3,1.1-1.7s1.3-0.5,2.3-0.5c0.9,0,1.6,0.1,2.1,0.3
		c0.4,0.2,0.8,0.5,0.9,0.8c0.2,0.3,0.3,0.9,0.3,1.8l0,2.4c0,0.7,0,1.2,0.1,1.5c0.1,0.3,0.2,0.7,0.4,1h-2c-0.1-0.1-0.1-0.3-0.2-0.6
		c0-0.1-0.1-0.2-0.1-0.2c-0.4,0.3-0.7,0.6-1.1,0.8c-0.4,0.2-0.8,0.3-1.3,0.3c-0.8,0-1.4-0.2-1.9-0.7c-0.5-0.4-0.7-1-0.7-1.6
		c0-0.4,0.1-0.8,0.3-1.2c0.2-0.3,0.5-0.6,0.9-0.8c0.4-0.2,0.9-0.3,1.6-0.5c1-0.2,1.6-0.3,2-0.5v-0.2c0-0.4-0.1-0.7-0.3-0.8
		c-0.2-0.2-0.6-0.3-1.1-0.3c-0.4,0-0.7,0.1-0.9,0.2C153.2,292.1,153,292.4,152.9,292.8z M155.7,294.4c-0.3,0.1-0.7,0.2-1.3,0.3
		s-0.9,0.2-1.1,0.4c-0.3,0.2-0.4,0.4-0.4,0.7c0,0.3,0.1,0.5,0.3,0.7c0.2,0.2,0.5,0.3,0.8,0.3c0.4,0,0.7-0.1,1.1-0.4
		c0.2-0.2,0.4-0.4,0.5-0.7c0.1-0.2,0.1-0.5,0.1-1V294.4z"/>
	<path class="st5" d="M159.7,298.2v-10.7h2.1v10.7H159.7z"/>
	<path class="st5" d="M169,298.2V297c-0.3,0.4-0.7,0.7-1.1,1c-0.5,0.2-0.9,0.4-1.5,0.4c-0.5,0-1-0.1-1.4-0.3c-0.4-0.2-0.7-0.6-0.9-1
		s-0.3-1-0.3-1.7v-4.9h2.1v3.6c0,1.1,0,1.8,0.1,2c0.1,0.2,0.2,0.4,0.4,0.6c0.2,0.1,0.5,0.2,0.8,0.2c0.4,0,0.7-0.1,0.9-0.3
		c0.3-0.2,0.5-0.4,0.6-0.7c0.1-0.3,0.2-1,0.2-2.1v-3.3h2.1v7.8H169z"/>
	<path class="st5" d="M174.6,292.8l-1.9-0.3c0.2-0.8,0.6-1.3,1.1-1.7s1.3-0.5,2.3-0.5c0.9,0,1.6,0.1,2.1,0.3
		c0.4,0.2,0.8,0.5,0.9,0.8c0.2,0.3,0.3,0.9,0.3,1.8l0,2.4c0,0.7,0,1.2,0.1,1.5c0.1,0.3,0.2,0.7,0.4,1h-2c-0.1-0.1-0.1-0.3-0.2-0.6
		c0-0.1-0.1-0.2-0.1-0.2c-0.4,0.3-0.7,0.6-1.1,0.8c-0.4,0.2-0.8,0.3-1.3,0.3c-0.8,0-1.4-0.2-1.9-0.7c-0.5-0.4-0.7-1-0.7-1.6
		c0-0.4,0.1-0.8,0.3-1.2c0.2-0.3,0.5-0.6,0.9-0.8c0.4-0.2,0.9-0.3,1.6-0.5c1-0.2,1.6-0.3,2-0.5v-0.2c0-0.4-0.1-0.7-0.3-0.8
		c-0.2-0.2-0.6-0.3-1.1-0.3c-0.4,0-0.7,0.1-0.9,0.2C174.9,292.1,174.7,292.4,174.6,292.8z M177.3,294.4c-0.3,0.1-0.7,0.2-1.3,0.3
		s-0.9,0.2-1.1,0.4c-0.3,0.2-0.4,0.4-0.4,0.7c0,0.3,0.1,0.5,0.3,0.7c0.2,0.2,0.5,0.3,0.8,0.3c0.4,0,0.7-0.1,1.1-0.4
		c0.2-0.2,0.4-0.4,0.5-0.7c0.1-0.2,0.1-0.5,0.1-1V294.4z"/>
	<path class="st5" d="M188.2,292.7l-2,0.4c-0.1-0.4-0.2-0.7-0.5-0.9c-0.2-0.2-0.6-0.3-0.9-0.3c-0.5,0-0.9,0.2-1.2,0.5
		c-0.3,0.4-0.5,0.9-0.5,1.8c0,0.9,0.2,1.6,0.5,2c0.3,0.4,0.7,0.6,1.2,0.6c0.4,0,0.7-0.1,1-0.3c0.2-0.2,0.4-0.6,0.5-1.1l2,0.3
		c-0.2,0.9-0.6,1.6-1.2,2.1c-0.6,0.5-1.4,0.7-2.4,0.7c-1.1,0-2-0.4-2.7-1.1c-0.7-0.7-1-1.7-1-3c0-1.3,0.3-2.3,1-3
		c0.7-0.7,1.6-1.1,2.8-1.1c0.9,0,1.7,0.2,2.3,0.6C187.5,291.2,187.9,291.8,188.2,292.7z"/>
	<path class="st5" d="M189.7,289.3v-1.9h2.1v1.9H189.7z M189.7,298.2v-7.8h2.1v7.8H189.7z"/>
	<path class="st5" d="M193.4,294.2c0-0.7,0.2-1.3,0.5-2c0.3-0.6,0.8-1.1,1.4-1.5c0.6-0.3,1.3-0.5,2.1-0.5c1.2,0,2.1,0.4,2.9,1.1
		c0.8,0.8,1.1,1.7,1.1,2.9c0,1.2-0.4,2.2-1.1,2.9c-0.8,0.8-1.7,1.2-2.9,1.2c-0.7,0-1.4-0.2-2-0.5c-0.6-0.3-1.1-0.8-1.5-1.4
		C193.6,295.8,193.4,295,193.4,294.2z M195.5,294.3c0,0.8,0.2,1.4,0.5,1.8c0.4,0.4,0.8,0.6,1.4,0.6s1-0.2,1.4-0.6
		c0.4-0.4,0.5-1,0.5-1.8c0-0.8-0.2-1.3-0.5-1.8c-0.4-0.4-0.8-0.6-1.4-0.6s-1,0.2-1.4,0.6C195.7,292.9,195.5,293.5,195.5,294.3z
		 M196.4,289.4l1-2.2h2.3l-2,2.2H196.4z"/>
	<path class="st5" d="M210.1,298.2h-2.1v-4c0-0.8,0-1.4-0.1-1.6c-0.1-0.2-0.2-0.4-0.4-0.6c-0.2-0.1-0.4-0.2-0.7-0.2
		c-0.4,0-0.7,0.1-1,0.3s-0.5,0.5-0.6,0.8c-0.1,0.3-0.2,0.9-0.2,1.8v3.5H203v-7.8h1.9v1.1c0.7-0.9,1.5-1.3,2.6-1.3
		c0.5,0,0.9,0.1,1.2,0.2c0.4,0.2,0.7,0.4,0.9,0.6c0.2,0.3,0.3,0.5,0.4,0.9c0.1,0.3,0.1,0.8,0.1,1.4V298.2z"/>
	<path class="st5" d="M39.6,308.4h1.9v1.1c0.2-0.4,0.6-0.7,1-1s0.9-0.4,1.4-0.4c0.9,0,1.7,0.4,2.3,1.1c0.6,0.7,0.9,1.7,0.9,3
		c0,1.3-0.3,2.3-1,3c-0.6,0.7-1.4,1.1-2.3,1.1c-0.4,0-0.8-0.1-1.2-0.3c-0.3-0.2-0.7-0.5-1.1-0.9v3.9h-2.1V308.4z M41.6,312.1
		c0,0.9,0.2,1.5,0.5,1.9c0.3,0.4,0.8,0.6,1.3,0.6c0.5,0,0.9-0.2,1.2-0.6c0.3-0.4,0.5-1,0.5-1.9c0-0.8-0.2-1.4-0.5-1.8
		c-0.3-0.4-0.7-0.6-1.2-0.6c-0.5,0-0.9,0.2-1.3,0.6C41.8,310.8,41.6,311.4,41.6,312.1z"/>
	<path class="st5" d="M48.1,313.9l2.1-0.3c0.1,0.4,0.3,0.7,0.5,0.9c0.3,0.2,0.6,0.3,1.1,0.3c0.5,0,0.9-0.1,1.2-0.3
		c0.2-0.1,0.3-0.3,0.3-0.5c0-0.2,0-0.3-0.1-0.4c-0.1-0.1-0.3-0.2-0.7-0.3c-1.7-0.4-2.7-0.7-3.2-1c-0.6-0.4-0.9-1-0.9-1.8
		c0-0.7,0.3-1.2,0.8-1.7s1.4-0.7,2.5-0.7c1.1,0,1.9,0.2,2.4,0.5s0.9,0.9,1.1,1.5l-1.9,0.4c-0.1-0.3-0.2-0.5-0.5-0.7
		c-0.2-0.2-0.6-0.2-1-0.2c-0.5,0-0.9,0.1-1.2,0.2c-0.2,0.1-0.2,0.2-0.2,0.4c0,0.1,0.1,0.3,0.2,0.4c0.2,0.1,0.8,0.3,1.9,0.6
		c1.1,0.2,1.9,0.6,2.3,0.9c0.4,0.4,0.6,0.9,0.6,1.5c0,0.7-0.3,1.3-0.9,1.8c-0.6,0.5-1.5,0.8-2.6,0.8c-1.1,0-1.9-0.2-2.5-0.6
		C48.7,315.3,48.3,314.7,48.1,313.9z"/>
	<path class="st5" d="M57.2,307.3v-1.9h2.1v1.9H57.2z M57.2,316.2v-7.8h2.1v7.8H57.2z"/>
	<path class="st5" d="M68.1,310.7l-2,0.4c-0.1-0.4-0.2-0.7-0.5-0.9c-0.2-0.2-0.6-0.3-0.9-0.3c-0.5,0-0.9,0.2-1.2,0.5
		c-0.3,0.4-0.5,0.9-0.5,1.8c0,0.9,0.2,1.6,0.5,2c0.3,0.4,0.7,0.6,1.2,0.6c0.4,0,0.7-0.1,1-0.3c0.2-0.2,0.4-0.6,0.5-1.1l2,0.3
		c-0.2,0.9-0.6,1.6-1.2,2.1c-0.6,0.5-1.4,0.7-2.4,0.7c-1.1,0-2-0.4-2.7-1.1c-0.7-0.7-1-1.7-1-3c0-1.3,0.3-2.3,1-3
		c0.7-0.7,1.6-1.1,2.8-1.1c0.9,0,1.7,0.2,2.3,0.6C67.5,309.2,67.9,309.8,68.1,310.7z"/>
	<path class="st5" d="M69.2,312.2c0-0.7,0.2-1.3,0.5-2c0.3-0.6,0.8-1.1,1.4-1.5c0.6-0.3,1.3-0.5,2.1-0.5c1.2,0,2.1,0.4,2.9,1.1
		c0.8,0.8,1.1,1.7,1.1,2.9c0,1.2-0.4,2.2-1.1,2.9c-0.8,0.8-1.7,1.2-2.9,1.2c-0.7,0-1.4-0.2-2-0.5c-0.6-0.3-1.1-0.8-1.5-1.4
		C69.4,313.8,69.2,313,69.2,312.2z M71.3,312.3c0,0.8,0.2,1.4,0.5,1.8s0.8,0.6,1.4,0.6s1-0.2,1.4-0.6c0.4-0.4,0.5-1,0.5-1.8
		c0-0.8-0.2-1.3-0.5-1.8c-0.4-0.4-0.8-0.6-1.4-0.6s-1,0.2-1.4,0.6S71.3,311.5,71.3,312.3z"/>
	<path class="st5" d="M78.8,316.2v-10.7h2.1v10.7H78.8z"/>
	<path class="st5" d="M82.5,312.2c0-0.7,0.2-1.3,0.5-2c0.3-0.6,0.8-1.1,1.4-1.5c0.6-0.3,1.3-0.5,2.1-0.5c1.2,0,2.1,0.4,2.9,1.1
		c0.8,0.8,1.1,1.7,1.1,2.9c0,1.2-0.4,2.2-1.1,2.9c-0.8,0.8-1.7,1.2-2.9,1.2c-0.7,0-1.4-0.2-2-0.5c-0.6-0.3-1.1-0.8-1.5-1.4
		C82.7,313.8,82.5,313,82.5,312.2z M84.6,312.3c0,0.8,0.2,1.4,0.5,1.8s0.8,0.6,1.4,0.6s1-0.2,1.4-0.6c0.4-0.4,0.5-1,0.5-1.8
		c0-0.8-0.2-1.3-0.5-1.8c-0.4-0.4-0.8-0.6-1.4-0.6s-1,0.2-1.4,0.6S84.6,311.5,84.6,312.3z M85.5,307.4l1-2.2h2.3l-2,2.2H85.5z"/>
	<path class="st5" d="M92,316.7l2.4,0.3c0,0.3,0.1,0.5,0.3,0.6c0.2,0.1,0.5,0.2,0.9,0.2c0.5,0,0.9-0.1,1.2-0.2
		c0.2-0.1,0.3-0.3,0.4-0.5c0.1-0.2,0.1-0.5,0.1-0.9v-1.1c-0.6,0.8-1.4,1.3-2.3,1.3c-1,0-1.9-0.4-2.5-1.3c-0.5-0.7-0.7-1.6-0.7-2.6
		c0-1.3,0.3-2.3,0.9-3c0.6-0.7,1.4-1,2.3-1c1,0,1.8,0.4,2.4,1.3v-1.1h1.9v7c0,0.9-0.1,1.6-0.2,2.1s-0.4,0.8-0.6,1.1
		s-0.6,0.5-1.1,0.6c-0.5,0.1-1,0.2-1.7,0.2c-1.3,0-2.3-0.2-2.8-0.7c-0.6-0.5-0.8-1-0.8-1.7C92,316.8,92,316.8,92,316.7z M93.8,312.1
		c0,0.8,0.2,1.4,0.5,1.8c0.3,0.4,0.7,0.6,1.2,0.6c0.5,0,0.9-0.2,1.3-0.6c0.3-0.4,0.5-1,0.5-1.7c0-0.8-0.2-1.4-0.5-1.8
		s-0.8-0.6-1.3-0.6c-0.5,0-0.9,0.2-1.2,0.6C94,310.7,93.8,311.3,93.8,312.1z"/>
	<path class="st5" d="M101.3,307.3v-1.9h2.1v1.9H101.3z M101.3,316.2v-7.8h2.1v7.8H101.3z"/>
	<path class="st5" d="M112.3,310.7l-2,0.4c-0.1-0.4-0.2-0.7-0.5-0.9c-0.2-0.2-0.6-0.3-0.9-0.3c-0.5,0-0.9,0.2-1.2,0.5
		c-0.3,0.4-0.5,0.9-0.5,1.8c0,0.9,0.2,1.6,0.5,2c0.3,0.4,0.7,0.6,1.2,0.6c0.4,0,0.7-0.1,1-0.3c0.2-0.2,0.4-0.6,0.5-1.1l2,0.3
		c-0.2,0.9-0.6,1.6-1.2,2.1c-0.6,0.5-1.4,0.7-2.4,0.7c-1.1,0-2-0.4-2.7-1.1c-0.7-0.7-1-1.7-1-3c0-1.3,0.3-2.3,1-3
		c0.7-0.7,1.6-1.1,2.8-1.1c0.9,0,1.7,0.2,2.3,0.6C111.6,309.2,112,309.8,112.3,310.7z"/>
	<path class="st5" d="M115.4,310.8l-1.9-0.3c0.2-0.8,0.6-1.3,1.1-1.7s1.3-0.5,2.3-0.5c0.9,0,1.6,0.1,2.1,0.3
		c0.4,0.2,0.8,0.5,0.9,0.8c0.2,0.3,0.3,0.9,0.3,1.8l0,2.4c0,0.7,0,1.2,0.1,1.5c0.1,0.3,0.2,0.7,0.4,1h-2c-0.1-0.1-0.1-0.3-0.2-0.6
		c0-0.1-0.1-0.2-0.1-0.2c-0.4,0.3-0.7,0.6-1.1,0.8c-0.4,0.2-0.8,0.3-1.3,0.3c-0.8,0-1.4-0.2-1.9-0.7c-0.5-0.4-0.7-1-0.7-1.6
		c0-0.4,0.1-0.8,0.3-1.2c0.2-0.3,0.5-0.6,0.9-0.8c0.4-0.2,0.9-0.3,1.6-0.5c1-0.2,1.6-0.3,2-0.5v-0.2c0-0.4-0.1-0.7-0.3-0.8
		c-0.2-0.2-0.6-0.3-1.1-0.3c-0.4,0-0.7,0.1-0.9,0.2C115.7,310.1,115.5,310.4,115.4,310.8z M118.1,312.4c-0.3,0.1-0.7,0.2-1.3,0.3
		s-0.9,0.2-1.1,0.4c-0.3,0.2-0.4,0.4-0.4,0.7c0,0.3,0.1,0.5,0.3,0.7c0.2,0.2,0.5,0.3,0.8,0.3c0.4,0,0.7-0.1,1.1-0.4
		c0.2-0.2,0.4-0.4,0.5-0.7c0.1-0.2,0.1-0.5,0.1-1V312.4z"/>
	<path class="st5" d="M133.5,316.2h-1.9V315c-0.3,0.4-0.7,0.8-1.1,1c-0.4,0.2-0.9,0.3-1.3,0.3c-0.9,0-1.7-0.4-2.3-1.1
		c-0.6-0.7-1-1.7-1-3c0-1.3,0.3-2.3,0.9-3c0.6-0.7,1.4-1,2.4-1c0.9,0,1.6,0.4,2.3,1.1v-3.9h2.1V316.2z M128,312.1
		c0,0.8,0.1,1.4,0.3,1.8c0.3,0.5,0.8,0.8,1.4,0.8c0.5,0,0.9-0.2,1.2-0.6c0.3-0.4,0.5-1,0.5-1.8c0-0.9-0.2-1.5-0.5-1.9
		c-0.3-0.4-0.7-0.6-1.2-0.6c-0.5,0-0.9,0.2-1.2,0.6C128.2,310.7,128,311.3,128,312.1z"/>
	<path class="st5" d="M140,313.7l2.1,0.3c-0.3,0.8-0.7,1.3-1.2,1.7c-0.6,0.4-1.3,0.6-2.1,0.6c-1.4,0-2.4-0.4-3-1.3
		c-0.5-0.7-0.8-1.6-0.8-2.7c0-1.3,0.3-2.3,1-3c0.7-0.7,1.5-1.1,2.6-1.1c1.2,0,2.1,0.4,2.7,1.1c0.7,0.8,1,1.9,1,3.5H137
		c0,0.6,0.2,1.1,0.5,1.4c0.3,0.3,0.7,0.5,1.2,0.5c0.3,0,0.6-0.1,0.8-0.3S139.9,314.1,140,313.7z M140.1,311.6c0-0.6-0.2-1-0.5-1.4
		c-0.3-0.3-0.6-0.5-1.1-0.5c-0.5,0-0.8,0.2-1.1,0.5s-0.4,0.8-0.4,1.3H140.1z"/>
	<path class="st5" d="M157.2,316.2h-2.4l-0.9-2.4h-4.3l-0.9,2.4h-2.3l4.2-10.7h2.3L157.2,316.2z M153.2,311.9l-1.5-4l-1.5,4H153.2z"
		/>
	<path class="st5" d="M158.2,308.4h1.9v1.1c0.2-0.4,0.6-0.7,1-1c0.4-0.2,0.9-0.4,1.4-0.4c0.9,0,1.7,0.4,2.3,1.1
		c0.6,0.7,0.9,1.7,0.9,3c0,1.3-0.3,2.3-1,3c-0.6,0.7-1.4,1.1-2.3,1.1c-0.4,0-0.8-0.1-1.2-0.3c-0.3-0.2-0.7-0.5-1.1-0.9v3.9h-2.1
		V308.4z M160.3,312.1c0,0.9,0.2,1.5,0.5,1.9c0.3,0.4,0.8,0.6,1.3,0.6c0.5,0,0.9-0.2,1.2-0.6c0.3-0.4,0.5-1,0.5-1.9
		c0-0.8-0.2-1.4-0.5-1.8c-0.3-0.4-0.7-0.6-1.2-0.6c-0.5,0-0.9,0.2-1.3,0.6C160.4,310.8,160.3,311.4,160.3,312.1z"/>
	<path class="st5" d="M171,308.4v1.6h-1.4v3.1c0,0.6,0,1,0,1.1c0,0.1,0.1,0.2,0.2,0.3c0.1,0.1,0.2,0.1,0.3,0.1
		c0.2,0,0.5-0.1,0.8-0.2l0.2,1.6c-0.5,0.2-1,0.3-1.6,0.3c-0.4,0-0.7-0.1-1-0.2c-0.3-0.1-0.5-0.3-0.7-0.5c-0.1-0.2-0.2-0.5-0.3-0.8
		c0-0.2-0.1-0.7-0.1-1.4V310h-0.9v-1.6h0.9v-1.5l2.1-1.2v2.7H171z"/>
	<path class="st5" d="M172.5,307.3v-1.9h2.1v1.9H172.5z M172.5,316.2v-7.8h2.1v7.8H172.5z"/>
	<path class="st5" d="M180.2,308.4v1.6h-1.4v3.1c0,0.6,0,1,0,1.1c0,0.1,0.1,0.2,0.2,0.3c0.1,0.1,0.2,0.1,0.3,0.1
		c0.2,0,0.5-0.1,0.8-0.2l0.2,1.6c-0.5,0.2-1,0.3-1.6,0.3c-0.4,0-0.7-0.1-1-0.2c-0.3-0.1-0.5-0.3-0.7-0.5c-0.1-0.2-0.2-0.5-0.3-0.8
		c0-0.2-0.1-0.7-0.1-1.4V310h-0.9v-1.6h0.9v-1.5l2.1-1.2v2.7H180.2z"/>
	<path class="st5" d="M186.7,316.2V315c-0.3,0.4-0.7,0.7-1.1,1c-0.5,0.2-0.9,0.4-1.5,0.4c-0.5,0-1-0.1-1.4-0.3
		c-0.4-0.2-0.7-0.6-0.9-1s-0.3-1-0.3-1.7v-4.9h2.1v3.6c0,1.1,0,1.8,0.1,2c0.1,0.2,0.2,0.4,0.4,0.6c0.2,0.1,0.5,0.2,0.8,0.2
		c0.4,0,0.7-0.1,0.9-0.3c0.3-0.2,0.5-0.4,0.6-0.7c0.1-0.3,0.2-1,0.2-2.1v-3.3h2.1v7.8H186.7z"/>
	<path class="st5" d="M197.9,316.2H196V315c-0.3,0.4-0.7,0.8-1.1,1c-0.4,0.2-0.9,0.3-1.3,0.3c-0.9,0-1.7-0.4-2.3-1.1
		c-0.6-0.7-1-1.7-1-3c0-1.3,0.3-2.3,0.9-3c0.6-0.7,1.4-1,2.4-1c0.9,0,1.6,0.4,2.3,1.1v-3.9h2.1V316.2z M192.4,312.1
		c0,0.8,0.1,1.4,0.3,1.8c0.3,0.5,0.8,0.8,1.4,0.8c0.5,0,0.9-0.2,1.2-0.6c0.3-0.4,0.5-1,0.5-1.8c0-0.9-0.2-1.5-0.5-1.9
		c-0.3-0.4-0.7-0.6-1.2-0.6c-0.5,0-0.9,0.2-1.2,0.6C192.6,310.7,192.4,311.3,192.4,312.1z"/>
	<path class="st5" d="M204.4,313.7l2.1,0.3c-0.3,0.8-0.7,1.3-1.2,1.7c-0.6,0.4-1.3,0.6-2.1,0.6c-1.4,0-2.4-0.4-3-1.3
		c-0.5-0.7-0.8-1.6-0.8-2.7c0-1.3,0.3-2.3,1-3c0.7-0.7,1.5-1.1,2.6-1.1c1.2,0,2.1,0.4,2.7,1.1c0.7,0.8,1,1.9,1,3.5h-5.2
		c0,0.6,0.2,1.1,0.5,1.4c0.3,0.3,0.7,0.5,1.2,0.5c0.3,0,0.6-0.1,0.8-0.3S204.3,314.1,204.4,313.7z M204.6,311.6c0-0.6-0.2-1-0.5-1.4
		c-0.3-0.3-0.6-0.5-1.1-0.5c-0.5,0-0.8,0.2-1.1,0.5s-0.4,0.8-0.4,1.3H204.6z"/>
	<path class="st5" d="M207.6,313.9l2.1-0.3c0.1,0.4,0.3,0.7,0.5,0.9c0.3,0.2,0.6,0.3,1.1,0.3c0.5,0,0.9-0.1,1.2-0.3
		c0.2-0.1,0.3-0.3,0.3-0.5c0-0.2,0-0.3-0.1-0.4c-0.1-0.1-0.3-0.2-0.7-0.3c-1.7-0.4-2.7-0.7-3.2-1c-0.6-0.4-0.9-1-0.9-1.8
		c0-0.7,0.3-1.2,0.8-1.7s1.4-0.7,2.5-0.7c1.1,0,1.9,0.2,2.4,0.5s0.9,0.9,1.1,1.5l-1.9,0.4c-0.1-0.3-0.2-0.5-0.5-0.7
		c-0.2-0.2-0.6-0.2-1-0.2c-0.5,0-0.9,0.1-1.2,0.2c-0.2,0.1-0.2,0.2-0.2,0.4c0,0.1,0.1,0.3,0.2,0.4c0.2,0.1,0.8,0.3,1.9,0.6
		c1.1,0.2,1.9,0.6,2.3,0.9c0.4,0.4,0.6,0.9,0.6,1.5c0,0.7-0.3,1.3-0.9,1.8c-0.6,0.5-1.5,0.8-2.6,0.8c-1.1,0-1.9-0.2-2.5-0.6
		C208.2,315.3,207.7,314.7,207.6,313.9z"/>
	<path class="st5" d="M39.6,334.2v-10.7h2.2v10.7H39.6z"/>
	<path class="st5" d="M50.9,334.2h-2.1v-4c0-0.8,0-1.4-0.1-1.6c-0.1-0.2-0.2-0.4-0.4-0.6c-0.2-0.1-0.4-0.2-0.7-0.2
		c-0.4,0-0.7,0.1-1,0.3s-0.5,0.5-0.6,0.8c-0.1,0.3-0.2,0.9-0.2,1.8v3.5h-2.1v-7.8h1.9v1.1c0.7-0.9,1.5-1.3,2.6-1.3
		c0.5,0,0.9,0.1,1.2,0.2c0.4,0.2,0.7,0.4,0.9,0.6c0.2,0.3,0.3,0.5,0.4,0.9c0.1,0.3,0.1,0.8,0.1,1.4V334.2z"/>
	<path class="st5" d="M56.6,326.4v1.6h-1.4v3.1c0,0.6,0,1,0,1.1c0,0.1,0.1,0.2,0.2,0.3c0.1,0.1,0.2,0.1,0.3,0.1
		c0.2,0,0.5-0.1,0.8-0.2l0.2,1.6c-0.5,0.2-1,0.3-1.6,0.3c-0.4,0-0.7-0.1-1-0.2c-0.3-0.1-0.5-0.3-0.7-0.5c-0.1-0.2-0.2-0.5-0.3-0.8
		c0-0.2-0.1-0.7-0.1-1.4V328h-0.9v-1.6h0.9v-1.5l2.1-1.2v2.7H56.6z"/>
	<path class="st5" d="M62.5,331.7l2.1,0.3c-0.3,0.8-0.7,1.3-1.2,1.7c-0.6,0.4-1.3,0.6-2.1,0.6c-1.4,0-2.4-0.4-3-1.3
		c-0.5-0.7-0.8-1.6-0.8-2.7c0-1.3,0.3-2.3,1-3c0.7-0.7,1.5-1.1,2.6-1.1c1.2,0,2.1,0.4,2.7,1.1c0.7,0.8,1,1.9,1,3.5h-5.2
		c0,0.6,0.2,1.1,0.5,1.4c0.3,0.3,0.7,0.5,1.2,0.5c0.3,0,0.6-0.1,0.8-0.3S62.4,332.1,62.5,331.7z M62.6,329.6c0-0.6-0.2-1-0.5-1.4
		c-0.3-0.3-0.6-0.5-1.1-0.5c-0.4,0-0.8,0.2-1.1,0.5s-0.4,0.8-0.4,1.3H62.6z"/>
	<path class="st5" d="M66.3,334.2v-10.7h2.1v10.7H66.3z"/>
	<path class="st5" d="M75,331.7L77,332c-0.3,0.8-0.7,1.3-1.2,1.7c-0.6,0.4-1.3,0.6-2.1,0.6c-1.4,0-2.4-0.4-3-1.3
		c-0.5-0.7-0.8-1.6-0.8-2.7c0-1.3,0.3-2.3,1-3c0.7-0.7,1.5-1.1,2.6-1.1c1.2,0,2.1,0.4,2.7,1.1c0.7,0.8,1,1.9,1,3.5H72
		c0,0.6,0.2,1.1,0.5,1.4c0.3,0.3,0.7,0.5,1.2,0.5c0.3,0,0.6-0.1,0.8-0.3S74.9,332.1,75,331.7z M75.1,329.6c0-0.6-0.2-1-0.5-1.4
		c-0.3-0.3-0.6-0.5-1.1-0.5c-0.4,0-0.8,0.2-1.1,0.5S72,329,72,329.6H75.1z"/>
	<path class="st5" d="M85.6,328.7l-2,0.4c-0.1-0.4-0.2-0.7-0.5-0.9c-0.2-0.2-0.6-0.3-0.9-0.3c-0.5,0-0.9,0.2-1.2,0.5
		c-0.3,0.4-0.5,0.9-0.5,1.8c0,0.9,0.2,1.6,0.5,2c0.3,0.4,0.7,0.6,1.2,0.6c0.4,0,0.7-0.1,1-0.3c0.2-0.2,0.4-0.6,0.5-1.1l2,0.3
		c-0.2,0.9-0.6,1.6-1.2,2.1c-0.6,0.5-1.4,0.7-2.4,0.7c-1.1,0-2-0.4-2.7-1.1c-0.7-0.7-1-1.7-1-3c0-1.3,0.3-2.3,1-3
		c0.7-0.7,1.6-1.1,2.8-1.1c0.9,0,1.7,0.2,2.3,0.6C85,327.2,85.4,327.8,85.6,328.7z"/>
	<path class="st5" d="M90.7,326.4v1.6h-1.4v3.1c0,0.6,0,1,0,1.1c0,0.1,0.1,0.2,0.2,0.3c0.1,0.1,0.2,0.1,0.3,0.1
		c0.2,0,0.5-0.1,0.8-0.2l0.2,1.6c-0.5,0.2-1,0.3-1.6,0.3c-0.4,0-0.7-0.1-1-0.2c-0.3-0.1-0.5-0.3-0.7-0.5c-0.1-0.2-0.2-0.5-0.3-0.8
		c0-0.2-0.1-0.7-0.1-1.4V328h-0.9v-1.6h0.9v-1.5l2.1-1.2v2.7H90.7z"/>
	<path class="st5" d="M97.3,334.2V333c-0.3,0.4-0.7,0.7-1.1,1c-0.5,0.2-0.9,0.4-1.5,0.4c-0.5,0-1-0.1-1.4-0.3
		c-0.4-0.2-0.7-0.6-0.9-1s-0.3-1-0.3-1.7v-4.9h2.1v3.6c0,1.1,0,1.8,0.1,2c0.1,0.2,0.2,0.4,0.4,0.6c0.2,0.1,0.5,0.2,0.8,0.2
		c0.4,0,0.7-0.1,0.9-0.3c0.3-0.2,0.5-0.4,0.6-0.7c0.1-0.3,0.2-1,0.2-2.1v-3.3h2.1v7.8H97.3z"/>
	<path class="st5" d="M102.9,328.8l-1.9-0.3c0.2-0.8,0.6-1.3,1.1-1.7s1.3-0.5,2.3-0.5c0.9,0,1.6,0.1,2.1,0.3
		c0.4,0.2,0.8,0.5,0.9,0.8c0.2,0.3,0.3,0.9,0.3,1.8l0,2.4c0,0.7,0,1.2,0.1,1.5c0.1,0.3,0.2,0.7,0.4,1h-2c-0.1-0.1-0.1-0.3-0.2-0.6
		c0-0.1-0.1-0.2-0.1-0.2c-0.4,0.3-0.7,0.6-1.1,0.8c-0.4,0.2-0.8,0.3-1.3,0.3c-0.8,0-1.4-0.2-1.9-0.7c-0.5-0.4-0.7-1-0.7-1.6
		c0-0.4,0.1-0.8,0.3-1.2c0.2-0.3,0.5-0.6,0.9-0.8c0.4-0.2,0.9-0.3,1.6-0.5c1-0.2,1.6-0.3,2-0.5v-0.2c0-0.4-0.1-0.7-0.3-0.8
		c-0.2-0.2-0.6-0.3-1.1-0.3c-0.4,0-0.7,0.1-0.9,0.2C103.2,328.1,103,328.4,102.9,328.8z M105.6,330.4c-0.3,0.1-0.7,0.2-1.3,0.3
		s-0.9,0.2-1.1,0.4c-0.3,0.2-0.4,0.4-0.4,0.7c0,0.3,0.1,0.5,0.3,0.7c0.2,0.2,0.5,0.3,0.8,0.3c0.4,0,0.7-0.1,1.1-0.4
		c0.2-0.2,0.4-0.4,0.5-0.7c0.1-0.2,0.1-0.5,0.1-1V330.4z"/>
	<path class="st5" d="M109.7,334.2v-10.7h2.1v10.7H109.7z"/>
	<path class="st5" d="M118.3,331.7l2.1,0.3c-0.3,0.8-0.7,1.3-1.2,1.7c-0.6,0.4-1.3,0.6-2.1,0.6c-1.4,0-2.4-0.4-3-1.3
		c-0.5-0.7-0.8-1.6-0.8-2.7c0-1.3,0.3-2.3,1-3c0.7-0.7,1.5-1.1,2.6-1.1c1.2,0,2.1,0.4,2.7,1.1c0.7,0.8,1,1.9,1,3.5h-5.2
		c0,0.6,0.2,1.1,0.5,1.4c0.3,0.3,0.7,0.5,1.2,0.5c0.3,0,0.6-0.1,0.8-0.3S118.2,332.1,118.3,331.7z M118.5,329.6c0-0.6-0.2-1-0.5-1.4
		c-0.3-0.3-0.6-0.5-1.1-0.5c-0.4,0-0.8,0.2-1.1,0.5s-0.4,0.8-0.4,1.3H118.5z"/>
	<path class="st5" d="M121.5,331.9l2.1-0.3c0.1,0.4,0.3,0.7,0.5,0.9c0.3,0.2,0.6,0.3,1.1,0.3c0.5,0,0.9-0.1,1.2-0.3
		c0.2-0.1,0.3-0.3,0.3-0.5c0-0.2,0-0.3-0.1-0.4c-0.1-0.1-0.3-0.2-0.7-0.3c-1.7-0.4-2.7-0.7-3.2-1c-0.6-0.4-0.9-1-0.9-1.8
		c0-0.7,0.3-1.2,0.8-1.7s1.4-0.7,2.5-0.7c1.1,0,1.9,0.2,2.4,0.5s0.9,0.9,1.1,1.5l-1.9,0.4c-0.1-0.3-0.2-0.5-0.5-0.7
		c-0.2-0.2-0.6-0.2-1-0.2c-0.5,0-0.9,0.1-1.2,0.2c-0.2,0.1-0.2,0.2-0.2,0.4c0,0.1,0.1,0.3,0.2,0.4c0.2,0.1,0.8,0.3,1.9,0.6
		c1.1,0.2,1.9,0.6,2.3,0.9c0.4,0.4,0.6,0.9,0.6,1.5c0,0.7-0.3,1.3-0.9,1.8c-0.6,0.5-1.5,0.8-2.6,0.8c-1.1,0-1.9-0.2-2.5-0.6
		C122.1,333.3,121.7,332.7,121.5,331.9z"/>
	<path class="st5" d="M130.5,334.2v-2.1h2.1v2.1H130.5z"/>
</g>
<g id="Capa_1-2_00000125569997936050136840000016562530603642538419_">
	<path class="st5" d="M121.1,382c1.1,0.9,2.3,0.1,3.5,0.5c-0.2,0.4-0.4,0.7-0.7,0.9c-1.1,1.1-2.4,1.4-3.9,1.4
		c-0.2,0-0.4-0.3-0.4-0.4c0-0.5-0.3-0.5-0.6-0.6c-0.7-0.2-1.4-0.3-2-0.6c-0.8-0.5-1.7-0.6-2.6-0.6c-0.4,0-0.8,0-1.2,0
		c0.1-0.6,0.1-1.2,0.2-1.7c0.1-0.6,0-1.1-0.2-1.7c-0.3-0.8-0.4-1.6-0.4-2.4c0-0.6-0.1-1-0.9-0.8c0.1-0.6,0.2-1,0.3-1.5
		c0.3-1.3,1.2-2.2,2.2-2.9c0.2-0.1,0.5-0.1,0.7-0.1c0,0.2,0,0.4,0,0.6c0,0.6-0.1,1.2-0.2,1.8c-0.1,0.4-0.1,0.8-0.4,1.1
		c-0.6,0.9,0.2,3.2,1.2,3.4c0.1,0,0.3,0,0.4-0.1c2.5-2,5-4,7.5-6c-0.3-0.3-0.6-0.6-0.9-0.9c-0.5,0.3-0.9,1-1.6,0.4
		c-0.5-0.5,0-1,0.4-1.4c-0.4-0.4-0.6-0.7-1.3-0.6c-1.1,0.2-2.1-0.6-2.3-1.7c-0.2-0.9,0.4-1.8,1.3-2c1.2-0.4,2.7,0.7,2.6,2
		c-0.1,0.8,0.4,1,0.8,1.3c0.4-0.3,0.9-0.9,1.4-0.3c0.4,0.4,0.2,0.9-0.2,1.3c1.3,1.2,0.9,1.2,2.3-0.1c-0.3-0.4-0.6-0.9-0.1-1.3
		c0.5-0.5,1,0,1.4,0.4c0.4-0.4,0.9-0.5,0.8-1.3c-0.1-1,0.9-2,1.9-2c1-0.1,1.8,0.5,2,1.5c0.2,1.2-0.9,2.5-2.3,2.3
		c-0.6-0.1-0.9,0.1-1.3,0.6c0.3,0.4,0.9,0.9,0.3,1.5c-0.6,0.6-1-0.1-1.5-0.4c-0.3,0.3-0.7,0.6-1.1,1c1.3,1,2.5,2,3.7,3
		c1.2,1,2.5,2,3.7,3c0.5,0.4,0.8,0.3,1.2-0.1c0.7-0.7,0.9-1.6,0.9-2.6c0-0.1,0-0.2-0.1-0.2c-0.7-0.6-0.5-1.4-0.6-2.1
		c0-0.4-0.1-0.7-0.1-1.1c0-0.2,0-0.4,0-0.7c0.2,0,0.5,0,0.7,0.2c1,0.7,1.8,1.6,2.2,2.8c0.1,0.5,0.2,1,0.3,1.5
		c-0.9,0.3-0.8,0.3-0.9,1.1c-0.1,0.9-0.5,1.8-0.6,2.7c-0.1,0.7,0,1.4,0.1,2c0,0.3,0.1,0.6,0.1,0.9c-0.8,0-1.5,0-2.2,0
		c-0.4,0-0.8,0.1-1.1,0.3c-0.8,0.5-1.7,0.9-2.6,0.9c-0.4,0-0.5,0.1-0.5,0.5c0,0.2-0.3,0.5-0.4,0.5c-1.5,0-3-0.3-4-1.5
		c-0.2-0.2-0.3-0.5-0.5-0.8c1.1-0.5,2.4,0.3,3.4-0.5c0.6,0.8,1.2,0.5,1.9,0.2c0.5-0.2,0.9-0.5,1.3-0.9c0.6-0.5,0.6-0.8,0-1.3
		c-1.3-1.2-2.7-2.4-4-3.6c-1.1-1-2.1-2-3.2-3c-1.8,1.7-3.6,3.3-5.4,5c-0.6,0.5-1.2,1.1-1.8,1.6c-0.5,0.5-0.5,0.8,0,1.2
		c0.5,0.4,1.1,0.8,1.7,1.1C120.1,382.6,120.8,382.9,121.1,382L121.1,382z M130.4,368.6c-0.1,0.1-0.2,0.2-0.3,0.3
		c0.8-0.2,1.2-0.6,1.1-1.1c-0.1-0.5-0.4-0.7-0.8-0.8c-0.5-0.1-0.9,0.3-1.1,1.1c0.1-0.1,0.2-0.2,0.4-0.4
		C129.9,368,130.1,368.3,130.4,368.6L130.4,368.6z M120,369c0.3-0.3,0.6-0.6,0.9-0.9c-0.3-0.7-0.6-1-1.1-0.9
		c-0.4,0.1-0.7,0.3-0.7,0.8C118.9,368.4,119.2,368.7,120,369L120,369z"/>
</g>
<circle class="st5" cx="30.8" cy="238.6" r="1.8"/>
<circle class="st5" cx="30.8" cy="292.6" r="1.8"/>
</svg>
