<?xml version="1.0" encoding="utf-8"?>
<!-- Generator: Adobe Illustrator 27.5.0, SVG Export Plug-In . SVG Version: 6.00 Build 0)  -->
<svg version="1.1" id="Capa_1" xmlns="http://www.w3.org/2000/svg" xmlns:xlink="http://www.w3.org/1999/xlink" x="0px" y="0px"
	 viewBox="0 0 250.2 438.8" style="enable-background:new 0 0 250.2 438.8;" xml:space="preserve">
<style type="text/css">
	.st0{fill:#FFFFFF;}
	.st1{fill:#914B96;}
	.st2{fill:#F89E41;}
	.st3{fill:#4BBCB6;}
	.st4{fill:#ED8242;}
	.st5{fill:#0B75A4;}
	.st6{fill:none;stroke:#0B75A4;stroke-width:2;stroke-miterlimit:10;}
	.st7{fill:#CC405E;}
</style>
<g>
	<image style="overflow:visible;" width="282" height="471" xlink:href="29763F27.png"  transform="matrix(1 0 0 1 -18 -14.17)">
	</image>
</g>
<path class="st0" d="M206.1,418.5H44.1c-13.1,0-23.8-10.7-23.8-23.8V44.1C20.3,31,31,20.3,44.1,20.3h161.9
	c13.1,0,23.8,10.7,23.8,23.8v350.5C229.9,407.8,219.2,418.5,206.1,418.5z"/>
<rect x="20.3" y="83.4" class="st1" width="209.5" height="42.4"/>
<g>
	<path class="st0" d="M30,111.3v-11.2h8.3v1.9h-6.1v2.5h5.6v1.9h-5.6v3.1h6.3v1.9H30z"/>
	<path class="st0" d="M40.5,111.3v-11.2h2.2l4.6,7.5v-7.5h2.1v11.2h-2.3l-4.5-7.3v7.3H40.5z"/>
	<path class="st0" d="M54.3,111.3V102H51v-1.9h8.9v1.9h-3.3v9.3H54.3z"/>
	<path class="st0" d="M61.4,111.3v-11.2h4.8c1.2,0,2.1,0.1,2.6,0.3c0.5,0.2,1,0.6,1.3,1.1c0.3,0.5,0.5,1.1,0.5,1.8
		c0,0.8-0.2,1.5-0.7,2.1c-0.5,0.5-1.2,0.9-2.2,1c0.5,0.3,0.9,0.6,1.2,0.9c0.3,0.3,0.8,1,1.3,1.8l1.4,2.2h-2.7l-1.6-2.4
		c-0.6-0.9-1-1.4-1.2-1.7s-0.4-0.4-0.7-0.5s-0.6-0.1-1.1-0.1h-0.5v4.7H61.4z M63.7,104.9h1.7c1.1,0,1.8,0,2-0.1
		c0.3-0.1,0.5-0.3,0.6-0.5s0.2-0.5,0.2-0.8c0-0.4-0.1-0.7-0.3-0.9c-0.2-0.2-0.5-0.4-0.9-0.4c-0.2,0-0.7,0-1.7,0h-1.8V104.9z"/>
	<path class="st0" d="M72.7,111.3v-11.2h8.3v1.9H75v2.5h5.6v1.9H75v3.1h6.3v1.9H72.7z"/>
	<path class="st0" d="M86.1,111.3l-4-11.2h2.5l2.8,8.3l2.8-8.3h2.4l-4,11.2H86.1z"/>
	<path class="st0" d="M93.6,111.3v-11.2h2.3v11.2H93.6z"/>
	<path class="st0" d="M97.5,107.7l2.2-0.2c0.1,0.7,0.4,1.3,0.8,1.6c0.4,0.3,1,0.5,1.6,0.5c0.7,0,1.3-0.2,1.7-0.5
		c0.4-0.3,0.6-0.7,0.6-1.1c0-0.3-0.1-0.5-0.2-0.7s-0.4-0.3-0.8-0.5c-0.3-0.1-0.9-0.3-1.8-0.5c-1.2-0.3-2.1-0.7-2.6-1.1
		c-0.7-0.6-1-1.4-1-2.3c0-0.6,0.2-1.1,0.5-1.6c0.3-0.5,0.8-0.9,1.4-1.1c0.6-0.3,1.3-0.4,2.2-0.4c1.4,0,2.5,0.3,3.2,0.9
		c0.7,0.6,1.1,1.4,1.1,2.5l-2.3,0.1c-0.1-0.6-0.3-1-0.6-1.2s-0.8-0.4-1.4-0.4c-0.7,0-1.2,0.1-1.5,0.4c-0.2,0.2-0.4,0.4-0.4,0.7
		c0,0.3,0.1,0.5,0.3,0.7c0.3,0.2,1,0.5,2.1,0.8c1.1,0.3,1.9,0.5,2.4,0.8c0.5,0.3,0.9,0.7,1.2,1.1c0.3,0.5,0.4,1.1,0.4,1.8
		c0,0.6-0.2,1.2-0.5,1.8c-0.4,0.6-0.9,1-1.5,1.3s-1.5,0.4-2.4,0.4c-1.4,0-2.5-0.3-3.3-1C98.1,109.9,97.6,108.9,97.5,107.7z"/>
	<path class="st0" d="M111.1,111.3V102h-3.3v-1.9h8.9v1.9h-3.3v9.3H111.1z"/>
	<path class="st0" d="M127.1,111.3h-2.5l-1-2.6h-4.5l-0.9,2.6h-2.4l4.4-11.2h2.4L127.1,111.3z M122.9,106.9l-1.5-4.2l-1.5,4.2H122.9
		z"/>
	<path class="st0" d="M141.6,111.3h-2.5l-1-2.6h-4.5l-0.9,2.6h-2.4l4.4-11.2h2.4L141.6,111.3z M137.4,106.9l-1.5-4.2l-1.5,4.2H137.4
		z"/>
	<path class="st0" d="M142.8,111.3v-11.2h3.4l2,7.7l2-7.7h3.4v11.2h-2.1v-8.8l-2.2,8.8h-2.2l-2.2-8.8v8.8H142.8z"/>
	<path class="st0" d="M155.9,100.1h4.5c0.9,0,1.6,0,2,0.1c0.4,0.1,0.8,0.2,1.2,0.5c0.3,0.2,0.6,0.5,0.9,0.9c0.2,0.4,0.3,0.8,0.3,1.3
		c0,0.5-0.1,1-0.4,1.4c-0.3,0.4-0.7,0.8-1.2,1c0.7,0.2,1.2,0.5,1.6,1s0.6,1,0.6,1.7c0,0.5-0.1,1-0.4,1.5c-0.2,0.5-0.6,0.9-1,1.2
		c-0.4,0.3-0.9,0.5-1.5,0.5c-0.4,0-1.3,0.1-2.7,0.1h-3.8V100.1z M158.2,102v2.6h1.5c0.9,0,1.4,0,1.6,0c0.4,0,0.7-0.2,0.9-0.4
		c0.2-0.2,0.3-0.5,0.3-0.9c0-0.3-0.1-0.6-0.3-0.8s-0.5-0.3-0.9-0.4c-0.2,0-0.9,0-1.9,0H158.2z M158.2,106.4v3h2.1
		c0.8,0,1.3,0,1.6-0.1c0.3-0.1,0.6-0.2,0.8-0.4c0.2-0.2,0.3-0.6,0.3-1c0-0.3-0.1-0.6-0.2-0.9c-0.2-0.2-0.4-0.4-0.7-0.5s-1-0.2-2-0.2
		H158.2z"/>
	<path class="st0" d="M167.2,111.3v-11.2h2.3v11.2H167.2z"/>
	<path class="st0" d="M171.6,111.3v-11.2h8.3v1.9h-6.1v2.5h5.6v1.9h-5.6v3.1h6.3v1.9H171.6z"/>
	<path class="st0" d="M182.1,111.3v-11.2h2.2l4.6,7.5v-7.5h2.1v11.2h-2.3l-4.5-7.3v7.3H182.1z"/>
	<path class="st0" d="M196,111.3V102h-3.3v-1.9h8.9v1.9h-3.3v9.3H196z"/>
	<path class="st0" d="M212,111.3h-2.5l-1-2.6h-4.5l-0.9,2.6h-2.4l4.4-11.2h2.4L212,111.3z M207.8,106.9l-1.5-4.2l-1.5,4.2H207.8z"/>
	<path class="st0" d="M213.3,111.3v-11.1h2.3v9.3h5.6v1.9H213.3z"/>
</g>
<g>
	<g>
		<path class="st1" d="M87.5,188.1c-0.7,0-1.3-0.2-1.7-0.7c-0.5-0.5-0.7-1.1-0.7-1.7s0.2-1.3,0.7-1.7c0.5-0.5,1.1-0.7,1.7-0.7
			c0.7,0,1.3,0.2,1.7,0.7c0.5,0.5,0.7,1.1,0.7,1.7s-0.2,1.3-0.7,1.7C88.7,187.9,88.1,188.1,87.5,188.1z M82.5,193.2v-0.4
			c0-0.5,0.1-0.9,0.4-1.3c0.3-0.4,0.6-0.7,1-0.9c0.5-0.2,1.1-0.4,1.7-0.5c0.6-0.1,1.2-0.2,1.8-0.2c0.6,0,1.2,0.1,1.8,0.2
			c0.6,0.1,1.1,0.3,1.7,0.5c0.4,0.2,0.8,0.5,1,0.9c0.3,0.4,0.4,0.8,0.4,1.3v0.4H82.5z"/>
	</g>
</g>
<path class="st6" d="M206.1,418.5H44.1c-13.1,0-23.8-10.7-23.8-23.8V44.1C20.3,31,31,20.3,44.1,20.3h161.9
	c13.1,0,23.8,10.7,23.8,23.8v350.5C229.9,407.8,219.2,418.5,206.1,418.5z"/>
<circle class="st1" cx="125.1" cy="50.4" r="14.8"/>
<g>
	<path class="st0" d="M125.8,58.6v-3.1h-6.4v-2.6l6.8-9.9h2.5v9.9h1.9v2.6h-1.9v3.1H125.8z M125.8,52.8v-5.3l-3.6,5.3H125.8z"/>
</g>
<g id="Capa_1-2_00000096756516933952572430000001821205775949846693_">
	<path class="st5" d="M121.1,382c1.1,0.9,2.3,0.1,3.5,0.5c-0.2,0.4-0.4,0.7-0.7,0.9c-1.1,1.1-2.4,1.4-3.9,1.4
		c-0.2,0-0.4-0.3-0.4-0.4c0-0.5-0.3-0.5-0.6-0.6c-0.7-0.2-1.4-0.3-2-0.6c-0.8-0.5-1.7-0.6-2.6-0.6c-0.4,0-0.8,0-1.2,0
		c0.1-0.6,0.1-1.2,0.2-1.7c0.1-0.6,0-1.1-0.2-1.7c-0.3-0.8-0.4-1.6-0.4-2.4c0-0.6-0.1-1-0.9-0.8c0.1-0.6,0.2-1,0.3-1.5
		c0.3-1.3,1.2-2.2,2.2-2.9c0.2-0.1,0.5-0.1,0.7-0.1c0,0.2,0,0.4,0,0.6c0,0.6-0.1,1.2-0.2,1.8c-0.1,0.4-0.1,0.8-0.4,1.1
		c-0.6,0.9,0.2,3.2,1.2,3.4c0.1,0,0.3,0,0.4-0.1c2.5-2,5-4,7.5-6c-0.3-0.3-0.6-0.6-0.9-0.9c-0.5,0.3-0.9,1-1.6,0.4
		c-0.5-0.5,0-1,0.4-1.4c-0.4-0.4-0.6-0.7-1.3-0.6c-1.1,0.2-2.1-0.6-2.3-1.7c-0.2-0.9,0.4-1.8,1.3-2c1.2-0.4,2.7,0.7,2.6,2
		c-0.1,0.8,0.4,1,0.8,1.3c0.4-0.3,0.9-0.9,1.4-0.3c0.4,0.4,0.2,0.9-0.2,1.3c1.3,1.2,0.9,1.2,2.3-0.1c-0.3-0.4-0.6-0.9-0.1-1.3
		c0.5-0.5,1,0,1.4,0.4c0.4-0.4,0.9-0.5,0.8-1.3c-0.1-1,0.9-2,1.9-2c1-0.1,1.8,0.5,2,1.5c0.2,1.2-0.9,2.5-2.3,2.3
		c-0.6-0.1-0.9,0.1-1.3,0.6c0.3,0.4,0.9,0.9,0.3,1.5c-0.6,0.6-1-0.1-1.5-0.4c-0.3,0.3-0.7,0.6-1.1,1c1.3,1,2.5,2,3.7,3
		c1.2,1,2.5,2,3.7,3c0.5,0.4,0.8,0.3,1.2-0.1c0.7-0.7,0.9-1.6,0.9-2.6c0-0.1,0-0.2-0.1-0.2c-0.7-0.6-0.5-1.4-0.6-2.1
		c0-0.4-0.1-0.7-0.1-1.1c0-0.2,0-0.4,0-0.7c0.2,0,0.5,0,0.7,0.2c1,0.7,1.8,1.6,2.2,2.8c0.1,0.5,0.2,1,0.3,1.5
		c-0.9,0.3-0.8,0.3-0.9,1.1c-0.1,0.9-0.5,1.8-0.6,2.7c-0.1,0.7,0,1.4,0.1,2c0,0.3,0.1,0.6,0.1,0.9c-0.8,0-1.5,0-2.2,0
		c-0.4,0-0.8,0.1-1.1,0.3c-0.8,0.5-1.7,0.9-2.6,0.9c-0.4,0-0.5,0.1-0.5,0.5c0,0.2-0.3,0.5-0.4,0.5c-1.5,0-3-0.3-4-1.5
		c-0.2-0.2-0.3-0.5-0.5-0.8c1.1-0.5,2.4,0.3,3.4-0.5c0.6,0.8,1.2,0.5,1.9,0.2c0.5-0.2,0.9-0.5,1.3-0.9c0.6-0.5,0.6-0.8,0-1.3
		c-1.3-1.2-2.7-2.4-4-3.6c-1.1-1-2.1-2-3.2-3c-1.8,1.7-3.6,3.3-5.4,5c-0.6,0.5-1.2,1.1-1.8,1.6c-0.5,0.5-0.5,0.8,0,1.2
		c0.5,0.4,1.1,0.8,1.7,1.1C120.1,382.6,120.8,382.9,121.1,382L121.1,382z M130.4,368.6c-0.1,0.1-0.2,0.2-0.3,0.3
		c0.8-0.2,1.2-0.6,1.1-1.1c-0.1-0.5-0.4-0.7-0.8-0.8c-0.5-0.1-0.9,0.3-1.1,1.1c0.1-0.1,0.2-0.2,0.4-0.4
		C129.9,368,130.1,368.3,130.4,368.6L130.4,368.6z M120,369c0.3-0.3,0.6-0.6,0.9-0.9c-0.3-0.7-0.6-1-1.1-0.9
		c-0.4,0.1-0.7,0.3-0.7,0.8C118.9,368.4,119.2,368.7,120,369L120,369z"/>
</g>
<g>
	<g>
		<path class="st1" d="M123.5,168.5h-5.2c-0.4,0-0.7,0.3-0.7,0.7v2.5l1.3,1v-2.8h3.9v2.8l1.3-1v-2.5
			C124.3,168.8,124,168.5,123.5,168.5C123.6,168.5,123.6,168.5,123.5,168.5z"/>
		<path class="st1" d="M111.5,163.9l9.5-6.9l9.5,6.9v3.2l1.3-1v-2.6c0-0.2-0.1-0.4-0.3-0.5l-10.1-7.3c-0.2-0.2-0.6-0.2-0.8,0
			l-10.1,7.3c-0.2,0.1-0.3,0.3-0.3,0.5v2.6l1.3,1V163.9z"/>
		<path class="st1" d="M108.7,162.3l12.2-8.9l12.2,8.9c0.3,0.3,0.7,0.3,1,0.1c0.3-0.3,0.3-0.7,0.1-1c-0.1-0.1-0.1-0.1-0.2-0.2
			l-12.7-9.2c-0.3-0.2-0.6-0.2-0.9,0l-12.7,9.2c-0.4,0.2-0.5,0.6-0.3,1s0.6,0.5,1,0.3C108.6,162.4,108.6,162.3,108.7,162.3
			L108.7,162.3z"/>
		<path class="st1" d="M107.1,171.2c-0.2-0.2-0.6-0.2-0.8,0l-10.1,7.3c-0.2,0.1-0.3,0.3-0.3,0.5v14.7c0,0.4,0.3,0.7,0.7,0.7h0h20.3
			c0.4,0,0.7-0.3,0.7-0.7l0,0v-14.7c0-0.2-0.1-0.4-0.3-0.5L107.1,171.2z M108.7,193.1h-3.9v-7.8h3.9L108.7,193.1z M116.2,193.1H110
			v-8.4c0-0.4-0.3-0.7-0.7-0.7c0,0,0,0,0,0h-5.3c-0.4,0-0.7,0.3-0.7,0.7l0,0v8.4h-6.2v-13.7l9.5-6.9l9.5,6.9L116.2,193.1z"/>
		<path class="st1" d="M119.8,176.6l-12.7-9.2c-0.3-0.2-0.6-0.2-0.9,0l-12.7,9.2c-0.3,0.3-0.2,0.8,0.1,1c0.2,0.2,0.5,0.2,0.8,0.1
			l12.3-8.8l12.2,8.9c0.4,0.2,0.8,0,1-0.3C120.1,177.2,120.1,176.8,119.8,176.6L119.8,176.6z"/>
		<path class="st1" d="M135.5,171.2c-0.2-0.2-0.6-0.2-0.8,0l-10.1,7.3c-0.2,0.1-0.3,0.3-0.3,0.5v14.7c0,0.4,0.3,0.7,0.7,0.7h0h20.3
			c0.4,0,0.7-0.3,0.7-0.7l0,0v-14.7c0-0.2-0.1-0.4-0.3-0.5L135.5,171.2z M137.1,193.1h-3.9v-7.8h3.9V193.1z M144.6,193.1h-6.2v-8.4
			c0-0.4-0.3-0.7-0.7-0.7h0h-5.3c-0.4,0-0.7,0.3-0.7,0.7l0,0v8.4h-6.2v-13.7l9.5-6.9l9.5,6.9L144.6,193.1z"/>
		<path class="st1" d="M148.2,176.6l-12.7-9.2c-0.3-0.2-0.6-0.2-0.9,0l-12.7,9.2c-0.3,0.3-0.2,0.8,0.1,1c0.2,0.2,0.5,0.2,0.8,0.1
			l12.2-8.9l12.2,8.9c0.4,0.2,0.8,0,1-0.3C148.5,177.1,148.4,176.8,148.2,176.6L148.2,176.6z"/>
	</g>
</g>
<g>
	<g>
		<path class="st1" d="M154.3,188.1c-0.7,0-1.3-0.2-1.7-0.7c-0.5-0.5-0.7-1.1-0.7-1.7s0.2-1.3,0.7-1.7c0.5-0.5,1.1-0.7,1.7-0.7
			s1.3,0.2,1.7,0.7c0.5,0.5,0.7,1.1,0.7,1.7s-0.2,1.3-0.7,1.7C155.5,187.9,155,188.1,154.3,188.1z"/>
		<path class="st1" d="M149.4,193.2v-0.4c0-0.5,0.1-0.9,0.4-1.3c0.3-0.4,0.6-0.7,1-0.9c0.5-0.2,1.1-0.4,1.7-0.5s1.2-0.2,1.8-0.2
			s1.2,0.1,1.8,0.2s1.1,0.3,1.7,0.5c0.4,0.2,0.8,0.5,1,0.9c0.3,0.4,0.4,0.8,0.4,1.3v0.4H149.4z"/>
	</g>
</g>
<g>
	<path class="st5" d="M44.8,236.8L41,226.1h2.4L46,234l2.6-7.9H51l-3.8,10.7H44.8z"/>
	<path class="st5" d="M51.8,228v-1.9h2.1v1.9H51.8z M51.8,236.8V229h2.1v7.8H51.8z"/>
	<path class="st5" d="M55.2,234.6l2.1-0.3c0.1,0.4,0.3,0.7,0.5,0.9c0.3,0.2,0.6,0.3,1.1,0.3c0.5,0,0.9-0.1,1.2-0.3
		c0.2-0.1,0.3-0.3,0.3-0.5c0-0.2,0-0.3-0.1-0.4c-0.1-0.1-0.3-0.2-0.7-0.3c-1.7-0.4-2.7-0.7-3.2-1c-0.6-0.4-0.9-1-0.9-1.8
		c0-0.7,0.3-1.2,0.8-1.7s1.4-0.7,2.5-0.7c1.1,0,1.9,0.2,2.4,0.5s0.9,0.9,1.1,1.5l-1.9,0.4c-0.1-0.3-0.2-0.5-0.5-0.7
		c-0.2-0.2-0.6-0.2-1-0.2c-0.5,0-0.9,0.1-1.2,0.2c-0.2,0.1-0.2,0.2-0.2,0.4c0,0.1,0.1,0.3,0.2,0.4c0.2,0.1,0.8,0.3,1.9,0.6
		c1.1,0.2,1.9,0.6,2.3,0.9c0.4,0.4,0.6,0.9,0.6,1.5c0,0.7-0.3,1.3-0.9,1.8S60.1,237,59,237c-1.1,0-1.9-0.2-2.5-0.6
		S55.4,235.3,55.2,234.6z"/>
	<path class="st5" d="M64.3,228v-1.9h2.1v1.9H64.3z M64.3,236.8V229h2.1v7.8H64.3z"/>
	<path class="st5" d="M72,229v1.6h-1.4v3.1c0,0.6,0,1,0,1.1c0,0.1,0.1,0.2,0.2,0.3c0.1,0.1,0.2,0.1,0.3,0.1c0.2,0,0.5-0.1,0.8-0.2
		l0.2,1.6c-0.5,0.2-1,0.3-1.6,0.3c-0.4,0-0.7-0.1-1-0.2c-0.3-0.1-0.5-0.3-0.7-0.5c-0.1-0.2-0.2-0.5-0.3-0.8c0-0.2-0.1-0.7-0.1-1.5
		v-3.4h-0.9V229h0.9v-1.5l2.1-1.2v2.7H72z"/>
	<path class="st5" d="M75,231.4l-1.9-0.3c0.2-0.8,0.6-1.3,1.1-1.7s1.3-0.5,2.3-0.5c0.9,0,1.6,0.1,2.1,0.3c0.4,0.2,0.8,0.5,0.9,0.8
		c0.2,0.3,0.3,0.9,0.3,1.8l0,2.4c0,0.7,0,1.2,0.1,1.5c0.1,0.3,0.2,0.7,0.4,1h-2c-0.1-0.1-0.1-0.3-0.2-0.6c0-0.1-0.1-0.2-0.1-0.2
		c-0.4,0.3-0.7,0.6-1.1,0.8S76,237,75.5,237c-0.8,0-1.4-0.2-1.9-0.7c-0.5-0.4-0.7-1-0.7-1.6c0-0.4,0.1-0.8,0.3-1.2
		c0.2-0.3,0.5-0.6,0.9-0.8c0.4-0.2,0.9-0.3,1.6-0.5c1-0.2,1.6-0.3,2-0.5v-0.2c0-0.4-0.1-0.7-0.3-0.8c-0.2-0.2-0.6-0.3-1.1-0.3
		c-0.4,0-0.7,0.1-0.9,0.2C75.3,230.8,75.1,231,75,231.4z M77.8,233.1c-0.3,0.1-0.7,0.2-1.3,0.3s-0.9,0.2-1.1,0.4
		c-0.3,0.2-0.4,0.4-0.4,0.7c0,0.3,0.1,0.5,0.3,0.7s0.5,0.3,0.8,0.3c0.4,0,0.7-0.1,1.1-0.4c0.2-0.2,0.4-0.4,0.5-0.7
		c0.1-0.2,0.1-0.5,0.1-1V233.1z"/>
	<path class="st5" d="M87.5,231.4l-1.9-0.3c0.2-0.8,0.6-1.3,1.1-1.7s1.3-0.5,2.3-0.5c0.9,0,1.6,0.1,2.1,0.3c0.4,0.2,0.8,0.5,0.9,0.8
		c0.2,0.3,0.3,0.9,0.3,1.8l0,2.4c0,0.7,0,1.2,0.1,1.5c0.1,0.3,0.2,0.7,0.4,1h-2c-0.1-0.1-0.1-0.3-0.2-0.6c0-0.1-0.1-0.2-0.1-0.2
		c-0.4,0.3-0.7,0.6-1.1,0.8S88.5,237,88,237c-0.8,0-1.4-0.2-1.9-0.7c-0.5-0.4-0.7-1-0.7-1.6c0-0.4,0.1-0.8,0.3-1.2
		c0.2-0.3,0.5-0.6,0.9-0.8c0.4-0.2,0.9-0.3,1.6-0.5c1-0.2,1.6-0.3,2-0.5v-0.2c0-0.4-0.1-0.7-0.3-0.8c-0.2-0.2-0.6-0.3-1.1-0.3
		c-0.4,0-0.7,0.1-0.9,0.2C87.8,230.8,87.6,231,87.5,231.4z M90.3,233.1c-0.3,0.1-0.7,0.2-1.3,0.3s-0.9,0.2-1.1,0.4
		c-0.3,0.2-0.4,0.4-0.4,0.7c0,0.3,0.1,0.5,0.3,0.7s0.5,0.3,0.8,0.3c0.4,0,0.7-0.1,1.1-0.4c0.2-0.2,0.4-0.4,0.5-0.7
		c0.1-0.2,0.1-0.5,0.1-1V233.1z"/>
	<path class="st5" d="M94.3,236.8v-10.7h2.1v10.7H94.3z"/>
	<path class="st5" d="M109.8,236.8h-1.9v-1.1c-0.3,0.4-0.7,0.8-1.1,1s-0.9,0.3-1.3,0.3c-0.9,0-1.7-0.4-2.3-1.1c-0.6-0.7-1-1.7-1-3
		c0-1.3,0.3-2.3,0.9-3c0.6-0.7,1.4-1,2.4-1c0.9,0,1.6,0.4,2.3,1.1v-3.9h2.1V236.8z M104.3,232.7c0,0.8,0.1,1.4,0.3,1.8
		c0.3,0.5,0.8,0.8,1.4,0.8c0.5,0,0.9-0.2,1.2-0.6c0.3-0.4,0.5-1,0.5-1.8c0-0.9-0.2-1.5-0.5-1.9c-0.3-0.4-0.7-0.6-1.2-0.6
		c-0.5,0-0.9,0.2-1.2,0.6C104.5,231.4,104.3,232,104.3,232.7z"/>
	<path class="st5" d="M111.3,232.8c0-0.7,0.2-1.3,0.5-2c0.3-0.6,0.8-1.1,1.4-1.5c0.6-0.3,1.3-0.5,2.1-0.5c1.2,0,2.1,0.4,2.9,1.1
		c0.8,0.8,1.1,1.7,1.1,2.9c0,1.2-0.4,2.2-1.1,2.9c-0.8,0.8-1.7,1.2-2.9,1.2c-0.7,0-1.4-0.2-2-0.5c-0.6-0.3-1.1-0.8-1.5-1.4
		C111.5,234.5,111.3,233.7,111.3,232.8z M113.5,232.9c0,0.8,0.2,1.4,0.5,1.8c0.4,0.4,0.8,0.6,1.4,0.6s1-0.2,1.4-0.6
		c0.4-0.4,0.5-1,0.5-1.8c0-0.8-0.2-1.3-0.5-1.8c-0.4-0.4-0.8-0.6-1.4-0.6s-1,0.2-1.4,0.6C113.6,231.5,113.5,232.1,113.5,232.9z"/>
	<path class="st5" d="M120.8,229h1.9v1.1c0.7-0.8,1.5-1.2,2.4-1.2c0.5,0,0.9,0.1,1.3,0.3s0.7,0.5,0.9,0.9c0.3-0.4,0.7-0.7,1.1-0.9
		s0.8-0.3,1.3-0.3c0.6,0,1.1,0.1,1.5,0.3c0.4,0.2,0.7,0.6,0.9,1c0.1,0.3,0.2,0.9,0.2,1.6v5h-2.1v-4.4c0-0.8-0.1-1.3-0.2-1.5
		c-0.2-0.3-0.5-0.4-0.9-0.4c-0.3,0-0.6,0.1-0.8,0.3s-0.4,0.4-0.5,0.8c-0.1,0.3-0.2,0.9-0.2,1.6v3.7h-2.1v-4.3c0-0.8,0-1.2-0.1-1.5
		s-0.2-0.4-0.3-0.5c-0.2-0.1-0.4-0.2-0.6-0.2c-0.3,0-0.6,0.1-0.9,0.3s-0.4,0.4-0.5,0.7s-0.2,0.9-0.2,1.6v3.8h-2.1V229z"/>
	<path class="st5" d="M134.3,228v-1.9h2.1v1.9H134.3z M134.3,236.8V229h2.1v7.8H134.3z"/>
	<path class="st5" d="M145.3,231.3l-2,0.4c-0.1-0.4-0.2-0.7-0.5-0.9c-0.2-0.2-0.6-0.3-0.9-0.3c-0.5,0-0.9,0.2-1.2,0.5
		c-0.3,0.4-0.5,0.9-0.5,1.8c0,0.9,0.2,1.6,0.5,2c0.3,0.4,0.7,0.6,1.2,0.6c0.4,0,0.7-0.1,1-0.3c0.2-0.2,0.4-0.6,0.5-1.1l2,0.3
		c-0.2,0.9-0.6,1.6-1.2,2.1s-1.4,0.7-2.4,0.7c-1.1,0-2-0.4-2.7-1.1c-0.7-0.7-1-1.7-1-3c0-1.3,0.3-2.3,1-3c0.7-0.7,1.6-1.1,2.8-1.1
		c0.9,0,1.7,0.2,2.3,0.6C144.6,229.9,145,230.5,145.3,231.3z"/>
	<path class="st5" d="M146.8,228v-1.9h2.1v1.9H146.8z M146.8,236.8V229h2.1v7.8H146.8z"/>
	<path class="st5" d="M151,236.8v-10.7h2.1v10.7H151z"/>
	<path class="st5" d="M155.2,228v-1.9h2.1v1.9H155.2z M155.2,236.8V229h2.1v7.8H155.2z"/>
	<path class="st5" d="M158.9,232.8c0-0.7,0.2-1.3,0.5-2c0.3-0.6,0.8-1.1,1.4-1.5c0.6-0.3,1.3-0.5,2.1-0.5c1.2,0,2.1,0.4,2.9,1.1
		c0.8,0.8,1.1,1.7,1.1,2.9c0,1.2-0.4,2.2-1.1,2.9c-0.8,0.8-1.7,1.2-2.9,1.2c-0.7,0-1.4-0.2-2-0.5c-0.6-0.3-1.1-0.8-1.5-1.4
		C159,234.5,158.9,233.7,158.9,232.8z M161,232.9c0,0.8,0.2,1.4,0.5,1.8c0.4,0.4,0.8,0.6,1.4,0.6s1-0.2,1.4-0.6
		c0.4-0.4,0.5-1,0.5-1.8c0-0.8-0.2-1.3-0.5-1.8c-0.4-0.4-0.8-0.6-1.4-0.6s-1,0.2-1.4,0.6C161.1,231.5,161,232.1,161,232.9z"/>
	<path class="st5" d="M179.8,236.8h-1.9v-1.1c-0.3,0.4-0.7,0.8-1.1,1c-0.4,0.2-0.9,0.3-1.3,0.3c-0.9,0-1.7-0.4-2.3-1.1
		c-0.6-0.7-1-1.7-1-3c0-1.3,0.3-2.3,0.9-3c0.6-0.7,1.4-1,2.4-1c0.9,0,1.6,0.4,2.3,1.1v-3.9h2.1V236.8z M174.3,232.7
		c0,0.8,0.1,1.4,0.3,1.8c0.3,0.5,0.8,0.8,1.4,0.8c0.5,0,0.9-0.2,1.2-0.6c0.3-0.4,0.5-1,0.5-1.8c0-0.9-0.2-1.5-0.5-1.9
		c-0.3-0.4-0.7-0.6-1.2-0.6c-0.5,0-0.9,0.2-1.2,0.6C174.5,231.4,174.3,232,174.3,232.7z"/>
	<path class="st5" d="M186.3,234.3l2.1,0.3c-0.3,0.8-0.7,1.3-1.2,1.7c-0.6,0.4-1.3,0.6-2.1,0.6c-1.4,0-2.4-0.4-3-1.3
		c-0.5-0.7-0.8-1.6-0.8-2.7c0-1.3,0.3-2.3,1-3c0.7-0.7,1.5-1.1,2.6-1.1c1.2,0,2.1,0.4,2.7,1.1c0.7,0.8,1,1.9,1,3.5h-5.2
		c0,0.6,0.2,1.1,0.5,1.4c0.3,0.3,0.7,0.5,1.2,0.5c0.3,0,0.6-0.1,0.8-0.3S186.2,234.7,186.3,234.3z M186.4,232.2c0-0.6-0.2-1-0.5-1.4
		c-0.3-0.3-0.6-0.5-1.1-0.5c-0.5,0-0.8,0.2-1.1,0.5s-0.4,0.8-0.4,1.3H186.4z"/>
	<path class="st5" d="M42.1,254.8v-10.7h2.1v10.7H42.1z"/>
	<path class="st5" d="M45.8,250.8c0-0.7,0.2-1.3,0.5-2c0.3-0.6,0.8-1.1,1.4-1.5c0.6-0.3,1.3-0.5,2.1-0.5c1.2,0,2.1,0.4,2.9,1.1
		c0.8,0.8,1.1,1.7,1.1,2.9c0,1.2-0.4,2.2-1.1,2.9c-0.8,0.8-1.7,1.2-2.9,1.2c-0.7,0-1.4-0.2-2-0.5c-0.6-0.3-1.1-0.8-1.5-1.4
		C45.9,252.5,45.8,251.7,45.8,250.8z M47.9,250.9c0,0.8,0.2,1.4,0.5,1.8s0.8,0.6,1.4,0.6s1-0.2,1.4-0.6s0.5-1,0.5-1.8
		c0-0.8-0.2-1.3-0.5-1.8s-0.8-0.6-1.4-0.6s-1,0.2-1.4,0.6S47.9,250.1,47.9,250.9z"/>
	<path class="st5" d="M54.7,252.6l2.1-0.3c0.1,0.4,0.3,0.7,0.5,0.9c0.3,0.2,0.6,0.3,1.1,0.3c0.5,0,0.9-0.1,1.2-0.3
		c0.2-0.1,0.3-0.3,0.3-0.5c0-0.2,0-0.3-0.1-0.4c-0.1-0.1-0.3-0.2-0.7-0.3c-1.7-0.4-2.7-0.7-3.2-1c-0.6-0.4-0.9-1-0.9-1.8
		c0-0.7,0.3-1.2,0.8-1.7s1.4-0.7,2.5-0.7c1.1,0,1.9,0.2,2.4,0.5s0.9,0.9,1.1,1.5l-1.9,0.4c-0.1-0.3-0.2-0.5-0.5-0.7
		c-0.2-0.2-0.6-0.2-1-0.2c-0.5,0-0.9,0.1-1.2,0.2c-0.2,0.1-0.2,0.2-0.2,0.4c0,0.1,0.1,0.3,0.2,0.4c0.2,0.1,0.8,0.3,1.9,0.6
		c1.1,0.2,1.9,0.6,2.3,0.9c0.4,0.4,0.6,0.9,0.6,1.5c0,0.7-0.3,1.3-0.9,1.8c-0.6,0.5-1.5,0.8-2.6,0.8c-1.1,0-1.9-0.2-2.5-0.6
		S54.9,253.3,54.7,252.6z"/>
	<path class="st5" d="M67.8,247h1.9v1.1c0.2-0.4,0.6-0.7,1-1c0.4-0.2,0.9-0.4,1.4-0.4c0.9,0,1.7,0.4,2.3,1.1c0.6,0.7,0.9,1.7,0.9,3
		c0,1.3-0.3,2.3-1,3c-0.6,0.7-1.4,1.1-2.3,1.1c-0.4,0-0.8-0.1-1.2-0.3c-0.3-0.2-0.7-0.5-1.1-0.9v3.9h-2.1V247z M69.9,250.8
		c0,0.9,0.2,1.5,0.5,1.9c0.3,0.4,0.8,0.6,1.3,0.6c0.5,0,0.9-0.2,1.2-0.6c0.3-0.4,0.5-1,0.5-1.9c0-0.8-0.2-1.4-0.5-1.8
		c-0.3-0.4-0.7-0.6-1.2-0.6c-0.5,0-0.9,0.2-1.3,0.6C70,249.4,69.9,250,69.9,250.8z"/>
	<path class="st5" d="M76.6,250.8c0-0.7,0.2-1.3,0.5-2c0.3-0.6,0.8-1.1,1.4-1.5c0.6-0.3,1.3-0.5,2.1-0.5c1.2,0,2.1,0.4,2.9,1.1
		c0.8,0.8,1.1,1.7,1.1,2.9c0,1.2-0.4,2.2-1.1,2.9c-0.8,0.8-1.7,1.2-2.9,1.2c-0.7,0-1.4-0.2-2-0.5s-1.1-0.8-1.5-1.4
		C76.8,252.5,76.6,251.7,76.6,250.8z M78.7,250.9c0,0.8,0.2,1.4,0.5,1.8s0.8,0.6,1.4,0.6s1-0.2,1.4-0.6c0.4-0.4,0.5-1,0.5-1.8
		c0-0.8-0.2-1.3-0.5-1.8c-0.4-0.4-0.8-0.6-1.4-0.6s-1,0.2-1.4,0.6S78.7,250.1,78.7,250.9z"/>
	<path class="st5" d="M85.5,252.6l2.1-0.3c0.1,0.4,0.3,0.7,0.5,0.9c0.3,0.2,0.6,0.3,1.1,0.3c0.5,0,0.9-0.1,1.2-0.3
		c0.2-0.1,0.3-0.3,0.3-0.5c0-0.2,0-0.3-0.1-0.4c-0.1-0.1-0.3-0.2-0.7-0.3c-1.7-0.4-2.7-0.7-3.2-1c-0.6-0.4-0.9-1-0.9-1.8
		c0-0.7,0.3-1.2,0.8-1.7s1.4-0.7,2.5-0.7c1.1,0,1.9,0.2,2.4,0.5s0.9,0.9,1.1,1.5l-1.9,0.4c-0.1-0.3-0.2-0.5-0.5-0.7
		c-0.2-0.2-0.6-0.2-1-0.2c-0.5,0-0.9,0.1-1.2,0.2c-0.2,0.1-0.2,0.2-0.2,0.4c0,0.1,0.1,0.3,0.2,0.4c0.2,0.1,0.8,0.3,1.9,0.6
		c1.1,0.2,1.9,0.6,2.3,0.9c0.4,0.4,0.6,0.9,0.6,1.5c0,0.7-0.3,1.3-0.9,1.8c-0.6,0.5-1.5,0.8-2.6,0.8c-1.1,0-1.9-0.2-2.5-0.6
		S85.7,253.3,85.5,252.6z"/>
	<path class="st5" d="M98.1,247v1.6h-1.4v3.1c0,0.6,0,1,0,1.1c0,0.1,0.1,0.2,0.2,0.3c0.1,0.1,0.2,0.1,0.3,0.1c0.2,0,0.5-0.1,0.8-0.2
		l0.2,1.6c-0.5,0.2-1,0.3-1.6,0.3c-0.4,0-0.7-0.1-1-0.2c-0.3-0.1-0.5-0.3-0.7-0.5c-0.1-0.2-0.2-0.5-0.3-0.8c0-0.2-0.1-0.7-0.1-1.4
		v-3.4h-0.9V247h0.9v-1.5l2.1-1.2v2.7H98.1z"/>
	<path class="st5" d="M104.7,254.8v-1.2c-0.3,0.4-0.7,0.7-1.1,1c-0.5,0.2-0.9,0.4-1.5,0.4c-0.5,0-1-0.1-1.4-0.3
		c-0.4-0.2-0.7-0.6-0.9-1s-0.3-1-0.3-1.7V247h2.1v3.6c0,1.1,0,1.8,0.1,2c0.1,0.2,0.2,0.4,0.4,0.6c0.2,0.1,0.5,0.2,0.8,0.2
		c0.4,0,0.7-0.1,0.9-0.3c0.3-0.2,0.5-0.4,0.6-0.7c0.1-0.3,0.2-1,0.2-2.1V247h2.1v7.8H104.7z"/>
	<path class="st5" d="M108.7,254.8v-10.7h2.1v10.7H108.7z"/>
	<path class="st5" d="M114.4,249.4l-1.9-0.3c0.2-0.8,0.6-1.3,1.1-1.7c0.5-0.4,1.3-0.5,2.3-0.5c0.9,0,1.6,0.1,2.1,0.3
		c0.4,0.2,0.8,0.5,0.9,0.8c0.2,0.3,0.3,0.9,0.3,1.8l0,2.4c0,0.7,0,1.2,0.1,1.5c0.1,0.3,0.2,0.7,0.4,1h-2c-0.1-0.1-0.1-0.3-0.2-0.6
		c0-0.1-0.1-0.2-0.1-0.2c-0.4,0.3-0.7,0.6-1.1,0.8c-0.4,0.2-0.8,0.3-1.3,0.3c-0.8,0-1.4-0.2-1.9-0.7c-0.5-0.4-0.7-1-0.7-1.6
		c0-0.4,0.1-0.8,0.3-1.2c0.2-0.3,0.5-0.6,0.9-0.8c0.4-0.2,0.9-0.3,1.6-0.5c1-0.2,1.6-0.3,2-0.5v-0.2c0-0.4-0.1-0.7-0.3-0.8
		c-0.2-0.2-0.6-0.3-1.1-0.3c-0.4,0-0.7,0.1-0.9,0.2C114.7,248.8,114.6,249,114.4,249.4z M117.2,251.1c-0.3,0.1-0.7,0.2-1.3,0.3
		c-0.6,0.1-0.9,0.2-1.1,0.4c-0.3,0.2-0.4,0.4-0.4,0.7c0,0.3,0.1,0.5,0.3,0.7c0.2,0.2,0.5,0.3,0.8,0.3c0.4,0,0.7-0.1,1.1-0.4
		c0.2-0.2,0.4-0.4,0.5-0.7c0.1-0.2,0.1-0.5,0.1-1V251.1z"/>
	<path class="st5" d="M128.3,254.8h-2.1v-4c0-0.8,0-1.4-0.1-1.6c-0.1-0.2-0.2-0.4-0.4-0.6c-0.2-0.1-0.4-0.2-0.7-0.2
		c-0.4,0-0.7,0.1-1,0.3s-0.5,0.5-0.6,0.8s-0.2,0.9-0.2,1.8v3.5h-2.1V247h1.9v1.1c0.7-0.9,1.5-1.3,2.6-1.3c0.5,0,0.9,0.1,1.2,0.2
		c0.4,0.2,0.7,0.4,0.9,0.6c0.2,0.3,0.3,0.5,0.4,0.9s0.1,0.8,0.1,1.4V254.8z"/>
	<path class="st5" d="M134,247v1.6h-1.4v3.1c0,0.6,0,1,0,1.1c0,0.1,0.1,0.2,0.2,0.3c0.1,0.1,0.2,0.1,0.3,0.1c0.2,0,0.5-0.1,0.8-0.2
		l0.2,1.6c-0.5,0.2-1,0.3-1.6,0.3c-0.4,0-0.7-0.1-1-0.2c-0.3-0.1-0.5-0.3-0.7-0.5c-0.1-0.2-0.2-0.5-0.3-0.8c0-0.2-0.1-0.7-0.1-1.4
		v-3.4h-0.9V247h0.9v-1.5l2.1-1.2v2.7H134z"/>
	<path class="st5" d="M139.9,252.3l2.1,0.3c-0.3,0.8-0.7,1.3-1.2,1.7c-0.6,0.4-1.3,0.6-2.1,0.6c-1.4,0-2.4-0.4-3-1.3
		c-0.5-0.7-0.8-1.6-0.8-2.7c0-1.3,0.3-2.3,1-3c0.7-0.7,1.5-1.1,2.6-1.1c1.2,0,2.1,0.4,2.7,1.1c0.7,0.8,1,1.9,1,3.5h-5.2
		c0,0.6,0.2,1.1,0.5,1.4c0.3,0.3,0.7,0.5,1.2,0.5c0.3,0,0.6-0.1,0.8-0.3C139.6,253,139.8,252.7,139.9,252.3z M140,250.2
		c0-0.6-0.2-1-0.5-1.4c-0.3-0.3-0.7-0.5-1.1-0.5c-0.5,0-0.8,0.2-1.1,0.5s-0.4,0.8-0.4,1.3H140z"/>
	<path class="st5" d="M143,252.6l2.1-0.3c0.1,0.4,0.3,0.7,0.5,0.9c0.3,0.2,0.6,0.3,1.1,0.3c0.5,0,0.9-0.1,1.2-0.3
		c0.2-0.1,0.3-0.3,0.3-0.5c0-0.2,0-0.3-0.1-0.4c-0.1-0.1-0.3-0.2-0.7-0.3c-1.7-0.4-2.7-0.7-3.2-1c-0.6-0.4-0.9-1-0.9-1.8
		c0-0.7,0.3-1.2,0.8-1.7s1.4-0.7,2.5-0.7c1.1,0,1.9,0.2,2.4,0.5s0.9,0.9,1.1,1.5l-1.9,0.4c-0.1-0.3-0.2-0.5-0.5-0.7
		c-0.2-0.2-0.6-0.2-1-0.2c-0.5,0-0.9,0.1-1.2,0.2c-0.2,0.1-0.2,0.2-0.2,0.4c0,0.1,0.1,0.3,0.2,0.4c0.2,0.1,0.8,0.3,1.9,0.6
		c1.1,0.2,1.9,0.6,2.3,0.9c0.4,0.4,0.6,0.9,0.6,1.5c0,0.7-0.3,1.3-0.9,1.8c-0.6,0.5-1.5,0.8-2.6,0.8c-1.1,0-1.9-0.2-2.5-0.6
		C143.6,253.9,143.2,253.3,143,252.6z"/>
	<path class="st5" d="M41.3,270.6l2.1-0.3c0.1,0.4,0.3,0.7,0.5,0.9c0.3,0.2,0.6,0.3,1.1,0.3c0.5,0,0.9-0.1,1.2-0.3
		c0.2-0.1,0.3-0.3,0.3-0.5c0-0.2,0-0.3-0.1-0.4c-0.1-0.1-0.3-0.2-0.7-0.3c-1.7-0.4-2.7-0.7-3.2-1c-0.6-0.4-0.9-1-0.9-1.8
		c0-0.7,0.3-1.2,0.8-1.7s1.4-0.7,2.5-0.7c1.1,0,1.9,0.2,2.4,0.5s0.9,0.9,1.1,1.5l-1.9,0.4c-0.1-0.3-0.2-0.5-0.5-0.7
		c-0.2-0.2-0.6-0.2-1-0.2c-0.5,0-0.9,0.1-1.2,0.2c-0.2,0.1-0.2,0.2-0.2,0.4c0,0.1,0.1,0.3,0.2,0.4c0.2,0.1,0.8,0.3,1.9,0.6
		c1.1,0.2,1.9,0.6,2.3,0.9c0.4,0.4,0.6,0.9,0.6,1.5c0,0.7-0.3,1.3-0.9,1.8c-0.6,0.5-1.5,0.8-2.6,0.8c-1.1,0-1.9-0.2-2.5-0.6
		S41.5,271.3,41.3,270.6z"/>
	<path class="st5" d="M54.9,270.3l2.1,0.3c-0.3,0.8-0.7,1.3-1.2,1.7c-0.6,0.4-1.3,0.6-2.1,0.6c-1.4,0-2.4-0.4-3-1.3
		c-0.5-0.7-0.8-1.6-0.8-2.7c0-1.3,0.3-2.3,1-3c0.7-0.7,1.5-1.1,2.6-1.1c1.2,0,2.1,0.4,2.7,1.1c0.7,0.8,1,1.9,1,3.5h-5.2
		c0,0.6,0.2,1.1,0.5,1.4c0.3,0.3,0.7,0.5,1.2,0.5c0.3,0,0.6-0.1,0.8-0.3C54.6,271,54.8,270.7,54.9,270.3z M55,268.2
		c0-0.6-0.2-1-0.5-1.4c-0.3-0.3-0.6-0.5-1.1-0.5c-0.4,0-0.8,0.2-1.1,0.5s-0.4,0.8-0.4,1.3H55z"/>
	<path class="st5" d="M58.7,272.8v-10.7h2.1v10.7H58.7z"/>
	<path class="st5" d="M67.4,270.3l2.1,0.3c-0.3,0.8-0.7,1.3-1.2,1.7c-0.6,0.4-1.3,0.6-2.1,0.6c-1.4,0-2.4-0.4-3-1.3
		c-0.5-0.7-0.8-1.6-0.8-2.7c0-1.3,0.3-2.3,1-3c0.7-0.7,1.5-1.1,2.6-1.1c1.2,0,2.1,0.4,2.7,1.1c0.7,0.8,1,1.9,1,3.5h-5.2
		c0,0.6,0.2,1.1,0.5,1.4c0.3,0.3,0.7,0.5,1.2,0.5c0.3,0,0.6-0.1,0.8-0.3C67.1,271,67.3,270.7,67.4,270.3z M67.5,268.2
		c0-0.6-0.2-1-0.5-1.4c-0.3-0.3-0.6-0.5-1.1-0.5c-0.4,0-0.8,0.2-1.1,0.5s-0.4,0.8-0.4,1.3H67.5z"/>
	<path class="st5" d="M78,267.3l-2,0.4c-0.1-0.4-0.2-0.7-0.5-0.9c-0.2-0.2-0.6-0.3-0.9-0.3c-0.5,0-0.9,0.2-1.2,0.5
		c-0.3,0.4-0.5,0.9-0.5,1.8c0,0.9,0.2,1.6,0.5,2s0.7,0.6,1.2,0.6c0.4,0,0.7-0.1,1-0.3c0.2-0.2,0.4-0.6,0.5-1.1l2,0.3
		c-0.2,0.9-0.6,1.6-1.2,2.1c-0.6,0.5-1.4,0.7-2.4,0.7c-1.1,0-2-0.4-2.7-1.1c-0.7-0.7-1-1.7-1-3c0-1.3,0.3-2.3,1-3
		c0.7-0.7,1.6-1.1,2.8-1.1c0.9,0,1.7,0.2,2.3,0.6C77.4,265.9,77.8,266.5,78,267.3z"/>
	<path class="st5" d="M86.4,267.3l-2,0.4c-0.1-0.4-0.2-0.7-0.5-0.9c-0.2-0.2-0.6-0.3-0.9-0.3c-0.5,0-0.9,0.2-1.2,0.5
		c-0.3,0.4-0.5,0.9-0.5,1.8c0,0.9,0.2,1.6,0.5,2c0.3,0.4,0.7,0.6,1.2,0.6c0.4,0,0.7-0.1,1-0.3c0.2-0.2,0.4-0.6,0.5-1.1l2,0.3
		c-0.2,0.9-0.6,1.6-1.2,2.1c-0.6,0.5-1.4,0.7-2.4,0.7c-1.1,0-2-0.4-2.7-1.1c-0.7-0.7-1-1.7-1-3c0-1.3,0.3-2.3,1-3
		c0.7-0.7,1.6-1.1,2.8-1.1c0.9,0,1.7,0.2,2.3,0.6C85.7,265.9,86.1,266.5,86.4,267.3z"/>
	<path class="st5" d="M87.9,264v-1.9H90v1.9H87.9z M87.9,272.8V265H90v7.8H87.9z"/>
	<path class="st5" d="M91.6,268.8c0-0.7,0.2-1.3,0.5-2c0.3-0.6,0.8-1.1,1.4-1.5c0.6-0.3,1.3-0.5,2.1-0.5c1.2,0,2.1,0.4,2.9,1.1
		c0.8,0.8,1.1,1.7,1.1,2.9c0,1.2-0.4,2.2-1.1,2.9c-0.8,0.8-1.7,1.2-2.9,1.2c-0.7,0-1.4-0.2-2-0.5c-0.6-0.3-1.1-0.8-1.5-1.4
		C91.8,270.5,91.6,269.7,91.6,268.8z M93.7,268.9c0,0.8,0.2,1.4,0.5,1.8s0.8,0.6,1.4,0.6s1-0.2,1.4-0.6s0.5-1,0.5-1.8
		c0-0.8-0.2-1.3-0.5-1.8s-0.8-0.6-1.4-0.6s-1,0.2-1.4,0.6S93.7,268.1,93.7,268.9z"/>
	<path class="st5" d="M108.3,272.8h-2.1v-4c0-0.8,0-1.4-0.1-1.6c-0.1-0.2-0.2-0.4-0.4-0.6c-0.2-0.1-0.4-0.2-0.7-0.2
		c-0.4,0-0.7,0.1-1,0.3s-0.5,0.5-0.6,0.8s-0.2,0.9-0.2,1.8v3.5h-2.1V265h1.9v1.1c0.7-0.9,1.5-1.3,2.6-1.3c0.5,0,0.9,0.1,1.2,0.2
		c0.4,0.2,0.7,0.4,0.9,0.6c0.2,0.3,0.3,0.5,0.4,0.9s0.1,0.8,0.1,1.4V272.8z"/>
	<path class="st5" d="M112,267.4l-1.9-0.3c0.2-0.8,0.6-1.3,1.1-1.7c0.5-0.4,1.3-0.5,2.3-0.5c0.9,0,1.6,0.1,2.1,0.3
		c0.4,0.2,0.8,0.5,0.9,0.8c0.2,0.3,0.3,0.9,0.3,1.8l0,2.4c0,0.7,0,1.2,0.1,1.5c0.1,0.3,0.2,0.7,0.4,1h-2c-0.1-0.1-0.1-0.3-0.2-0.6
		c0-0.1-0.1-0.2-0.1-0.2c-0.4,0.3-0.7,0.6-1.1,0.8c-0.4,0.2-0.8,0.3-1.3,0.3c-0.8,0-1.4-0.2-1.9-0.7c-0.5-0.4-0.7-1-0.7-1.6
		c0-0.4,0.1-0.8,0.3-1.2c0.2-0.3,0.5-0.6,0.9-0.8c0.4-0.2,0.9-0.3,1.6-0.5c1-0.2,1.6-0.3,2-0.5v-0.2c0-0.4-0.1-0.7-0.3-0.8
		c-0.2-0.2-0.6-0.3-1.1-0.3c-0.4,0-0.7,0.1-0.9,0.2C112.3,266.8,112.1,267,112,267.4z M114.7,269.1c-0.3,0.1-0.7,0.2-1.3,0.3
		c-0.6,0.1-0.9,0.2-1.1,0.4c-0.3,0.2-0.4,0.4-0.4,0.7c0,0.3,0.1,0.5,0.3,0.7c0.2,0.2,0.5,0.3,0.8,0.3c0.4,0,0.7-0.1,1.1-0.4
		c0.2-0.2,0.4-0.4,0.5-0.7c0.1-0.2,0.1-0.5,0.1-1V269.1z"/>
	<path class="st5" d="M125.9,272.8H124v-1.1c-0.3,0.4-0.7,0.8-1.1,1c-0.4,0.2-0.9,0.3-1.3,0.3c-0.9,0-1.7-0.4-2.3-1.1
		c-0.6-0.7-1-1.7-1-3c0-1.3,0.3-2.3,0.9-3c0.6-0.7,1.4-1,2.4-1c0.9,0,1.6,0.4,2.3,1.1v-3.9h2.1V272.8z M120.4,268.7
		c0,0.8,0.1,1.4,0.3,1.8c0.3,0.5,0.8,0.8,1.4,0.8c0.5,0,0.9-0.2,1.2-0.6c0.3-0.4,0.5-1,0.5-1.8c0-0.9-0.2-1.5-0.5-1.9
		c-0.3-0.4-0.7-0.6-1.2-0.6c-0.5,0-0.9,0.2-1.2,0.6C120.6,267.4,120.4,268,120.4,268.7z"/>
	<path class="st5" d="M127.5,268.8c0-0.7,0.2-1.3,0.5-2c0.3-0.6,0.8-1.1,1.4-1.5c0.6-0.3,1.3-0.5,2.1-0.5c1.2,0,2.1,0.4,2.9,1.1
		c0.8,0.8,1.1,1.7,1.1,2.9c0,1.2-0.4,2.2-1.1,2.9c-0.8,0.8-1.7,1.2-2.9,1.2c-0.7,0-1.4-0.2-2-0.5c-0.6-0.3-1.1-0.8-1.5-1.4
		C127.6,270.5,127.5,269.7,127.5,268.8z M129.6,268.9c0,0.8,0.2,1.4,0.5,1.8s0.8,0.6,1.4,0.6s1-0.2,1.4-0.6s0.5-1,0.5-1.8
		c0-0.8-0.2-1.3-0.5-1.8s-0.8-0.6-1.4-0.6s-1,0.2-1.4,0.6S129.6,268.1,129.6,268.9z"/>
	<path class="st5" d="M136.4,270.6l2.1-0.3c0.1,0.4,0.3,0.7,0.5,0.9c0.3,0.2,0.6,0.3,1.1,0.3c0.5,0,0.9-0.1,1.2-0.3
		c0.2-0.1,0.3-0.3,0.3-0.5c0-0.2,0-0.3-0.1-0.4c-0.1-0.1-0.3-0.2-0.7-0.3c-1.7-0.4-2.7-0.7-3.2-1c-0.6-0.4-0.9-1-0.9-1.8
		c0-0.7,0.3-1.2,0.8-1.7s1.4-0.7,2.5-0.7c1.1,0,1.9,0.2,2.4,0.5s0.9,0.9,1.1,1.5l-1.9,0.4c-0.1-0.3-0.2-0.5-0.5-0.7
		c-0.2-0.2-0.6-0.2-1-0.2c-0.5,0-0.9,0.1-1.2,0.2c-0.2,0.1-0.2,0.2-0.2,0.4c0,0.1,0.1,0.3,0.2,0.4c0.2,0.1,0.8,0.3,1.9,0.6
		c1.1,0.2,1.9,0.6,2.3,0.9c0.4,0.4,0.6,0.9,0.6,1.5c0,0.7-0.3,1.3-0.9,1.8c-0.6,0.5-1.5,0.8-2.6,0.8c-1.1,0-1.9-0.2-2.5-0.6
		C137,271.9,136.6,271.3,136.4,270.6z"/>
	<path class="st5" d="M145.4,272.8v-2.1h2.1v2.1H145.4z"/>
	<path class="st5" d="M48.9,304.9l2.1,0.7c-0.3,1.2-0.9,2-1.6,2.6c-0.8,0.6-1.7,0.9-2.9,0.9c-1.4,0-2.6-0.5-3.5-1.5
		c-0.9-1-1.4-2.3-1.4-4c0-1.8,0.5-3.2,1.4-4.2c0.9-1,2.1-1.5,3.6-1.5c1.3,0,2.4,0.4,3.2,1.2c0.5,0.5,0.9,1.1,1.1,2l-2.1,0.5
		c-0.1-0.6-0.4-1-0.8-1.3c-0.4-0.3-0.9-0.5-1.5-0.5c-0.8,0-1.4,0.3-1.9,0.9c-0.5,0.6-0.7,1.5-0.7,2.8c0,1.4,0.2,2.3,0.7,2.9
		s1.1,0.9,1.9,0.9c0.6,0,1.1-0.2,1.5-0.5C48.5,306.2,48.8,305.6,48.9,304.9z"/>
	<path class="st5" d="M52.4,304.8c0-0.7,0.2-1.3,0.5-2c0.3-0.6,0.8-1.1,1.4-1.5c0.6-0.3,1.3-0.5,2.1-0.5c1.2,0,2.1,0.4,2.9,1.1
		c0.8,0.8,1.1,1.7,1.1,2.9c0,1.2-0.4,2.2-1.1,2.9c-0.8,0.8-1.7,1.2-2.9,1.2c-0.7,0-1.4-0.2-2-0.5s-1.1-0.8-1.5-1.4
		C52.6,306.5,52.4,305.7,52.4,304.8z M54.5,304.9c0,0.8,0.2,1.4,0.5,1.8s0.8,0.6,1.4,0.6s1-0.2,1.4-0.6c0.4-0.4,0.5-1,0.5-1.8
		c0-0.8-0.2-1.3-0.5-1.8c-0.4-0.4-0.8-0.6-1.4-0.6s-1,0.2-1.4,0.6S54.5,304.1,54.5,304.9z"/>
	<path class="st5" d="M69.1,308.8h-2.1v-4c0-0.8,0-1.4-0.1-1.6c-0.1-0.2-0.2-0.4-0.4-0.6c-0.2-0.1-0.4-0.2-0.7-0.2
		c-0.4,0-0.7,0.1-1,0.3s-0.5,0.5-0.6,0.8s-0.2,0.9-0.2,1.8v3.5H62V301H64v1.1c0.7-0.9,1.5-1.3,2.6-1.3c0.5,0,0.9,0.1,1.2,0.2
		c0.4,0.2,0.7,0.4,0.9,0.6c0.2,0.3,0.3,0.5,0.4,0.9s0.1,0.8,0.1,1.4V308.8z"/>
	<path class="st5" d="M70.7,304.8c0-0.7,0.2-1.3,0.5-2c0.3-0.6,0.8-1.1,1.4-1.5c0.6-0.3,1.3-0.5,2.1-0.5c1.2,0,2.1,0.4,2.9,1.1
		c0.8,0.8,1.1,1.7,1.1,2.9c0,1.2-0.4,2.2-1.1,2.9c-0.8,0.8-1.7,1.2-2.9,1.2c-0.7,0-1.4-0.2-2-0.5c-0.6-0.3-1.1-0.8-1.5-1.4
		C70.9,306.5,70.7,305.7,70.7,304.8z M72.9,304.9c0,0.8,0.2,1.4,0.5,1.8s0.8,0.6,1.4,0.6s1-0.2,1.4-0.6s0.5-1,0.5-1.8
		c0-0.8-0.2-1.3-0.5-1.8s-0.8-0.6-1.4-0.6s-1,0.2-1.4,0.6S72.9,304.1,72.9,304.9z"/>
	<path class="st5" d="M87.2,303.3l-2,0.4c-0.1-0.4-0.2-0.7-0.5-0.9c-0.2-0.2-0.6-0.3-0.9-0.3c-0.5,0-0.9,0.2-1.2,0.5
		c-0.3,0.4-0.5,0.9-0.5,1.8c0,0.9,0.2,1.6,0.5,2s0.7,0.6,1.2,0.6c0.4,0,0.7-0.1,1-0.3c0.2-0.2,0.4-0.6,0.5-1.1l2,0.3
		c-0.2,0.9-0.6,1.6-1.2,2.1c-0.6,0.5-1.4,0.7-2.4,0.7c-1.1,0-2-0.4-2.7-1.1c-0.7-0.7-1-1.7-1-3c0-1.3,0.3-2.3,1-3
		c0.7-0.7,1.6-1.1,2.8-1.1c0.9,0,1.7,0.2,2.3,0.6C86.5,301.9,86.9,302.5,87.2,303.3z"/>
	<path class="st5" d="M93.2,306.3l2.1,0.3c-0.3,0.8-0.7,1.3-1.2,1.7c-0.6,0.4-1.3,0.6-2.1,0.6c-1.4,0-2.4-0.4-3-1.3
		c-0.5-0.7-0.8-1.6-0.8-2.7c0-1.3,0.3-2.3,1-3c0.7-0.7,1.5-1.1,2.6-1.1c1.2,0,2.1,0.4,2.7,1.1c0.7,0.8,1,1.9,1,3.5h-5.2
		c0,0.6,0.2,1.1,0.5,1.4c0.3,0.3,0.7,0.5,1.2,0.5c0.3,0,0.6-0.1,0.8-0.3C93,307,93.1,306.7,93.2,306.3z M93.3,304.2
		c0-0.6-0.2-1-0.5-1.4c-0.3-0.3-0.6-0.5-1.1-0.5c-0.4,0-0.8,0.2-1.1,0.5s-0.4,0.8-0.4,1.3H93.3z"/>
	<path class="st5" d="M99,308.8H97V301h1.9v1.1c0.3-0.5,0.6-0.9,0.9-1c0.3-0.2,0.6-0.2,0.9-0.2c0.5,0,0.9,0.1,1.4,0.4l-0.6,1.8
		c-0.3-0.2-0.7-0.3-1-0.3c-0.3,0-0.5,0.1-0.7,0.2c-0.2,0.2-0.4,0.4-0.5,0.9s-0.2,1.3-0.2,2.6V308.8z"/>
	<path class="st5" d="M107.1,308.8v-10.7h2.1v10.7H107.1z"/>
	<path class="st5" d="M112.8,303.4l-1.9-0.3c0.2-0.8,0.6-1.3,1.1-1.7c0.5-0.4,1.3-0.5,2.3-0.5c0.9,0,1.6,0.1,2.1,0.3
		c0.4,0.2,0.8,0.5,0.9,0.8c0.2,0.3,0.3,0.9,0.3,1.8l0,2.4c0,0.7,0,1.2,0.1,1.5c0.1,0.3,0.2,0.7,0.4,1h-2c-0.1-0.1-0.1-0.3-0.2-0.6
		c0-0.1-0.1-0.2-0.1-0.2c-0.4,0.3-0.7,0.6-1.1,0.8c-0.4,0.2-0.8,0.3-1.3,0.3c-0.8,0-1.4-0.2-1.9-0.7c-0.5-0.4-0.7-1-0.7-1.6
		c0-0.4,0.1-0.8,0.3-1.2c0.2-0.3,0.5-0.6,0.9-0.8c0.4-0.2,0.9-0.3,1.6-0.5c1-0.2,1.6-0.3,2-0.5v-0.2c0-0.4-0.1-0.7-0.3-0.8
		c-0.2-0.2-0.6-0.3-1.1-0.3c-0.4,0-0.7,0.1-0.9,0.2C113.1,302.8,112.9,303,112.8,303.4z M115.5,305.1c-0.3,0.1-0.7,0.2-1.3,0.3
		c-0.6,0.1-0.9,0.2-1.1,0.4c-0.3,0.2-0.4,0.4-0.4,0.7c0,0.3,0.1,0.5,0.3,0.7c0.2,0.2,0.5,0.3,0.8,0.3c0.4,0,0.7-0.1,1.1-0.4
		c0.2-0.2,0.4-0.4,0.5-0.7c0.1-0.2,0.1-0.5,0.1-1V305.1z"/>
	<path class="st5" d="M123,306.6l2.1-0.3c0.1,0.4,0.3,0.7,0.5,0.9c0.3,0.2,0.6,0.3,1.1,0.3c0.5,0,0.9-0.1,1.2-0.3
		c0.2-0.1,0.3-0.3,0.3-0.5c0-0.2,0-0.3-0.1-0.4c-0.1-0.1-0.3-0.2-0.7-0.3c-1.7-0.4-2.7-0.7-3.2-1c-0.6-0.4-0.9-1-0.9-1.8
		c0-0.7,0.3-1.2,0.8-1.7c0.5-0.5,1.4-0.7,2.5-0.7c1.1,0,1.9,0.2,2.4,0.5s0.9,0.9,1.1,1.5l-1.9,0.4c-0.1-0.3-0.2-0.5-0.5-0.7
		c-0.2-0.2-0.6-0.2-1-0.2c-0.5,0-0.9,0.1-1.2,0.2c-0.2,0.1-0.2,0.2-0.2,0.4c0,0.1,0.1,0.3,0.2,0.4c0.2,0.1,0.8,0.3,1.9,0.6
		c1.1,0.2,1.9,0.6,2.3,0.9c0.4,0.4,0.6,0.9,0.6,1.5c0,0.7-0.3,1.3-0.9,1.8c-0.6,0.5-1.5,0.8-2.6,0.8c-1.1,0-1.9-0.2-2.5-0.6
		C123.6,307.9,123.2,307.3,123,306.6z"/>
	<path class="st5" d="M132.1,300v-1.9h2.1v1.9H132.1z M132.1,308.8V301h2.1v7.8H132.1z"/>
	<path class="st5" d="M139.8,301v1.6h-1.4v3.1c0,0.6,0,1,0,1.1c0,0.1,0.1,0.2,0.2,0.3s0.2,0.1,0.3,0.1c0.2,0,0.5-0.1,0.8-0.2
		l0.2,1.6c-0.5,0.2-1,0.3-1.6,0.3c-0.4,0-0.7-0.1-1-0.2c-0.3-0.1-0.5-0.3-0.7-0.5c-0.1-0.2-0.2-0.5-0.3-0.8c0-0.2-0.1-0.7-0.1-1.4
		v-3.4h-0.9V301h0.9v-1.5l2.1-1.2v2.7H139.8z"/>
	<path class="st5" d="M146.4,308.8v-1.2c-0.3,0.4-0.7,0.7-1.1,1c-0.5,0.2-0.9,0.4-1.5,0.4c-0.5,0-1-0.1-1.4-0.3
		c-0.4-0.2-0.7-0.6-0.9-1s-0.3-1-0.3-1.7V301h2.1v3.6c0,1.1,0,1.8,0.1,2c0.1,0.2,0.2,0.4,0.4,0.6c0.2,0.1,0.5,0.2,0.8,0.2
		c0.4,0,0.7-0.1,0.9-0.3c0.3-0.2,0.5-0.4,0.6-0.7c0.1-0.3,0.2-1,0.2-2.1V301h2.1v7.8H146.4z"/>
	<path class="st5" d="M152,303.4l-1.9-0.3c0.2-0.8,0.6-1.3,1.1-1.7s1.3-0.5,2.3-0.5c0.9,0,1.6,0.1,2.1,0.3c0.4,0.2,0.8,0.5,0.9,0.8
		c0.2,0.3,0.3,0.9,0.3,1.8l0,2.4c0,0.7,0,1.2,0.1,1.5c0.1,0.3,0.2,0.7,0.4,1h-2c-0.1-0.1-0.1-0.3-0.2-0.6c0-0.1-0.1-0.2-0.1-0.2
		c-0.4,0.3-0.7,0.6-1.1,0.8c-0.4,0.2-0.8,0.3-1.3,0.3c-0.8,0-1.4-0.2-1.9-0.7c-0.5-0.4-0.7-1-0.7-1.6c0-0.4,0.1-0.8,0.3-1.2
		c0.2-0.3,0.5-0.6,0.9-0.8c0.4-0.2,0.9-0.3,1.6-0.5c1-0.2,1.6-0.3,2-0.5v-0.2c0-0.4-0.1-0.7-0.3-0.8c-0.2-0.2-0.6-0.3-1.1-0.3
		c-0.4,0-0.7,0.1-0.9,0.2C152.3,302.8,152.1,303,152,303.4z M154.7,305.1c-0.3,0.1-0.7,0.2-1.3,0.3s-0.9,0.2-1.1,0.4
		c-0.3,0.2-0.4,0.4-0.4,0.7c0,0.3,0.1,0.5,0.3,0.7c0.2,0.2,0.5,0.3,0.8,0.3c0.4,0,0.7-0.1,1.1-0.4c0.2-0.2,0.4-0.4,0.5-0.7
		c0.1-0.2,0.1-0.5,0.1-1V305.1z"/>
	<path class="st5" d="M165.5,303.3l-2,0.4c-0.1-0.4-0.2-0.7-0.5-0.9c-0.2-0.2-0.6-0.3-0.9-0.3c-0.5,0-0.9,0.2-1.2,0.5
		c-0.3,0.4-0.5,0.9-0.5,1.8c0,0.9,0.2,1.6,0.5,2c0.3,0.4,0.7,0.6,1.2,0.6c0.4,0,0.7-0.1,1-0.3c0.2-0.2,0.4-0.6,0.5-1.1l2,0.3
		c-0.2,0.9-0.6,1.6-1.2,2.1c-0.6,0.5-1.4,0.7-2.4,0.7c-1.1,0-2-0.4-2.7-1.1c-0.7-0.7-1-1.7-1-3c0-1.3,0.3-2.3,1-3
		c0.7-0.7,1.6-1.1,2.8-1.1c0.9,0,1.7,0.2,2.3,0.6C164.9,301.9,165.3,302.5,165.5,303.3z"/>
	<path class="st5" d="M167.1,300v-1.9h2.1v1.9H167.1z M167.1,308.8V301h2.1v7.8H167.1z"/>
	<path class="st5" d="M170.8,304.8c0-0.7,0.2-1.3,0.5-2c0.3-0.6,0.8-1.1,1.4-1.5c0.6-0.3,1.3-0.5,2.1-0.5c1.2,0,2.1,0.4,2.9,1.1
		c0.8,0.8,1.1,1.7,1.1,2.9c0,1.2-0.4,2.2-1.1,2.9c-0.8,0.8-1.7,1.2-2.9,1.2c-0.7,0-1.4-0.2-2-0.5c-0.6-0.3-1.1-0.8-1.5-1.4
		C171,306.5,170.8,305.7,170.8,304.8z M172.9,304.9c0,0.8,0.2,1.4,0.5,1.8c0.4,0.4,0.8,0.6,1.4,0.6s1-0.2,1.4-0.6
		c0.4-0.4,0.5-1,0.5-1.8c0-0.8-0.2-1.3-0.5-1.8c-0.4-0.4-0.8-0.6-1.4-0.6s-1,0.2-1.4,0.6C173.1,303.5,172.9,304.1,172.9,304.9z
		 M173.8,300.1l1-2.2h2.3l-2,2.2H173.8z"/>
	<path class="st5" d="M187.5,308.8h-2.1v-4c0-0.8,0-1.4-0.1-1.6c-0.1-0.2-0.2-0.4-0.4-0.6c-0.2-0.1-0.4-0.2-0.7-0.2
		c-0.4,0-0.7,0.1-1,0.3s-0.5,0.5-0.6,0.8c-0.1,0.3-0.2,0.9-0.2,1.8v3.5h-2.1V301h1.9v1.1c0.7-0.9,1.5-1.3,2.6-1.3
		c0.5,0,0.9,0.1,1.2,0.2c0.4,0.2,0.7,0.4,0.9,0.6c0.2,0.3,0.3,0.5,0.4,0.9c0.1,0.3,0.1,0.8,0.1,1.4V308.8z"/>
	<path class="st5" d="M41.3,324.6l2.1-0.3c0.1,0.4,0.3,0.7,0.5,0.9c0.3,0.2,0.6,0.3,1.1,0.3c0.5,0,0.9-0.1,1.2-0.3
		c0.2-0.1,0.3-0.3,0.3-0.5c0-0.2,0-0.3-0.1-0.4c-0.1-0.1-0.3-0.2-0.7-0.3c-1.7-0.4-2.7-0.7-3.2-1c-0.6-0.4-0.9-1-0.9-1.8
		c0-0.7,0.3-1.2,0.8-1.7s1.4-0.7,2.5-0.7c1.1,0,1.9,0.2,2.4,0.5s0.9,0.9,1.1,1.5l-1.9,0.4c-0.1-0.3-0.2-0.5-0.5-0.7
		c-0.2-0.2-0.6-0.2-1-0.2c-0.5,0-0.9,0.1-1.2,0.2c-0.2,0.1-0.2,0.2-0.2,0.4c0,0.1,0.1,0.3,0.2,0.4c0.2,0.1,0.8,0.3,1.9,0.6
		c1.1,0.2,1.9,0.6,2.3,0.9c0.4,0.4,0.6,0.9,0.6,1.5c0,0.7-0.3,1.3-0.9,1.8c-0.6,0.5-1.5,0.8-2.6,0.8c-1.1,0-1.9-0.2-2.5-0.6
		S41.5,325.3,41.3,324.6z"/>
	<path class="st5" d="M49.9,322.8c0-0.7,0.2-1.3,0.5-2c0.3-0.6,0.8-1.1,1.4-1.5c0.6-0.3,1.3-0.5,2.1-0.5c1.2,0,2.1,0.4,2.9,1.1
		c0.8,0.8,1.1,1.7,1.1,2.9c0,1.2-0.4,2.2-1.1,2.9c-0.8,0.8-1.7,1.2-2.9,1.2c-0.7,0-1.4-0.2-2-0.5s-1.1-0.8-1.5-1.4
		C50.1,324.5,49.9,323.7,49.9,322.8z M52,322.9c0,0.8,0.2,1.4,0.5,1.8s0.8,0.6,1.4,0.6s1-0.2,1.4-0.6c0.4-0.4,0.5-1,0.5-1.8
		c0-0.8-0.2-1.3-0.5-1.8c-0.4-0.4-0.8-0.6-1.4-0.6s-1,0.2-1.4,0.6S52,322.1,52,322.9z"/>
	<path class="st5" d="M66.4,321.3l-2,0.4c-0.1-0.4-0.2-0.7-0.5-0.9c-0.2-0.2-0.6-0.3-0.9-0.3c-0.5,0-0.9,0.2-1.2,0.5
		c-0.3,0.4-0.5,0.9-0.5,1.8c0,0.9,0.2,1.6,0.5,2s0.7,0.6,1.2,0.6c0.4,0,0.7-0.1,1-0.3c0.2-0.2,0.4-0.6,0.5-1.1l2,0.3
		c-0.2,0.9-0.6,1.6-1.2,2.1c-0.6,0.5-1.4,0.7-2.4,0.7c-1.1,0-2-0.4-2.7-1.1c-0.7-0.7-1-1.7-1-3c0-1.3,0.3-2.3,1-3
		c0.7-0.7,1.6-1.1,2.8-1.1c0.9,0,1.7,0.2,2.3,0.6C65.7,319.9,66.1,320.5,66.4,321.3z"/>
	<path class="st5" d="M67.9,318v-1.9H70v1.9H67.9z M67.9,326.8V319H70v7.8H67.9z"/>
	<path class="st5" d="M71.6,322.8c0-0.7,0.2-1.3,0.5-2c0.3-0.6,0.8-1.1,1.4-1.5c0.6-0.3,1.3-0.5,2.1-0.5c1.2,0,2.1,0.4,2.9,1.1
		c0.8,0.8,1.1,1.7,1.1,2.9c0,1.2-0.4,2.2-1.1,2.9c-0.8,0.8-1.7,1.2-2.9,1.2c-0.7,0-1.4-0.2-2-0.5c-0.6-0.3-1.1-0.8-1.5-1.4
		C71.8,324.5,71.6,323.7,71.6,322.8z M73.7,322.9c0,0.8,0.2,1.4,0.5,1.8c0.4,0.4,0.8,0.6,1.4,0.6s1-0.2,1.4-0.6
		c0.4-0.4,0.5-1,0.5-1.8c0-0.8-0.2-1.3-0.5-1.8c-0.4-0.4-0.8-0.6-1.4-0.6s-1,0.2-1.4,0.6C73.9,321.5,73.7,322.1,73.7,322.9z"/>
	<path class="st5" d="M86.9,321.4l-1.9-0.3c0.2-0.8,0.6-1.3,1.1-1.7s1.3-0.5,2.3-0.5c0.9,0,1.6,0.1,2.1,0.3c0.4,0.2,0.8,0.5,0.9,0.8
		c0.2,0.3,0.3,0.9,0.3,1.8l0,2.4c0,0.7,0,1.2,0.1,1.5c0.1,0.3,0.2,0.7,0.4,1h-2c-0.1-0.1-0.1-0.3-0.2-0.6c0-0.1-0.1-0.2-0.1-0.2
		c-0.4,0.3-0.7,0.6-1.1,0.8c-0.4,0.2-0.8,0.3-1.3,0.3c-0.8,0-1.4-0.2-1.9-0.7c-0.5-0.4-0.7-1-0.7-1.6c0-0.4,0.1-0.8,0.3-1.2
		c0.2-0.3,0.5-0.6,0.9-0.8c0.4-0.2,0.9-0.3,1.6-0.5c1-0.2,1.6-0.3,2-0.5v-0.2c0-0.4-0.1-0.7-0.3-0.8c-0.2-0.2-0.6-0.3-1.1-0.3
		c-0.4,0-0.7,0.1-0.9,0.2C87.2,320.8,87.1,321,86.9,321.4z M89.7,323.1c-0.3,0.1-0.7,0.2-1.3,0.3s-0.9,0.2-1.1,0.4
		c-0.3,0.2-0.4,0.4-0.4,0.7c0,0.3,0.1,0.5,0.3,0.7c0.2,0.2,0.5,0.3,0.8,0.3c0.4,0,0.7-0.1,1.1-0.4c0.2-0.2,0.4-0.4,0.5-0.7
		c0.1-0.2,0.1-0.5,0.1-1V323.1z"/>
	<path class="st5" d="M93.6,319h1.9v1.1c0.7-0.8,1.5-1.2,2.4-1.2c0.5,0,0.9,0.1,1.3,0.3s0.7,0.5,0.9,0.9c0.3-0.4,0.7-0.7,1.1-0.9
		s0.8-0.3,1.3-0.3c0.6,0,1.1,0.1,1.4,0.3c0.4,0.2,0.7,0.6,0.9,1c0.1,0.3,0.2,0.9,0.2,1.6v5H103v-4.4c0-0.8-0.1-1.3-0.2-1.5
		c-0.2-0.3-0.5-0.4-0.9-0.4c-0.3,0-0.6,0.1-0.8,0.3s-0.4,0.4-0.5,0.8c-0.1,0.3-0.2,0.9-0.2,1.6v3.7h-2.1v-4.3c0-0.8,0-1.2-0.1-1.5
		s-0.2-0.4-0.3-0.5c-0.2-0.1-0.4-0.2-0.6-0.2c-0.3,0-0.6,0.1-0.9,0.3s-0.4,0.4-0.5,0.7c-0.1,0.3-0.2,0.9-0.2,1.6v3.8h-2.1V319z"/>
	<path class="st5" d="M107,326.8v-10.7h2.1v3.9c0.6-0.7,1.4-1.1,2.3-1.1c0.9,0,1.7,0.3,2.4,1c0.6,0.7,0.9,1.7,0.9,3
		c0,1.3-0.3,2.4-0.9,3.1c-0.6,0.7-1.4,1.1-2.3,1.1c-0.4,0-0.9-0.1-1.3-0.3c-0.4-0.2-0.8-0.6-1.1-1v1.1H107z M109,322.7
		c0,0.8,0.1,1.4,0.4,1.8c0.4,0.5,0.8,0.8,1.4,0.8c0.5,0,0.8-0.2,1.2-0.6c0.3-0.4,0.5-1,0.5-1.8c0-0.9-0.2-1.5-0.5-1.9
		c-0.3-0.4-0.7-0.6-1.2-0.6c-0.5,0-0.9,0.2-1.2,0.6C109.2,321.4,109,322,109,322.7z"/>
	<path class="st5" d="M116.3,318v-1.9h2.1v1.9H116.3z M116.3,326.8V319h2.1v7.8H116.3z"/>
	<path class="st5" d="M124.9,324.3l2.1,0.3c-0.3,0.8-0.7,1.3-1.2,1.7c-0.6,0.4-1.3,0.6-2.1,0.6c-1.4,0-2.4-0.4-3-1.3
		c-0.5-0.7-0.8-1.6-0.8-2.7c0-1.3,0.3-2.3,1-3c0.7-0.7,1.5-1.1,2.6-1.1c1.2,0,2.1,0.4,2.7,1.1c0.7,0.8,1,1.9,1,3.5h-5.2
		c0,0.6,0.2,1.1,0.5,1.4c0.3,0.3,0.7,0.5,1.2,0.5c0.3,0,0.6-0.1,0.8-0.3S124.8,324.7,124.9,324.3z M125,322.2c0-0.6-0.2-1-0.5-1.4
		c-0.3-0.3-0.7-0.5-1.1-0.5c-0.4,0-0.8,0.2-1.1,0.5s-0.4,0.8-0.4,1.3H125z"/>
	<path class="st5" d="M135.8,326.8h-2.1v-4c0-0.8,0-1.4-0.1-1.6c-0.1-0.2-0.2-0.4-0.4-0.6s-0.4-0.2-0.7-0.2c-0.4,0-0.7,0.1-1,0.3
		s-0.5,0.5-0.6,0.8c-0.1,0.3-0.2,0.9-0.2,1.8v3.5h-2.1V319h1.9v1.1c0.7-0.9,1.5-1.3,2.6-1.3c0.5,0,0.9,0.1,1.2,0.2
		c0.4,0.2,0.7,0.4,0.9,0.6s0.3,0.5,0.4,0.9c0.1,0.3,0.1,0.8,0.1,1.4V326.8z"/>
	<path class="st5" d="M141.5,319v1.6h-1.4v3.1c0,0.6,0,1,0,1.1c0,0.1,0.1,0.2,0.2,0.3c0.1,0.1,0.2,0.1,0.3,0.1
		c0.2,0,0.5-0.1,0.8-0.2l0.2,1.6c-0.5,0.2-1,0.3-1.6,0.3c-0.4,0-0.7-0.1-1-0.2c-0.3-0.1-0.5-0.3-0.7-0.5c-0.1-0.2-0.2-0.5-0.3-0.8
		c0-0.2-0.1-0.7-0.1-1.4v-3.4h-0.9V319h0.9v-1.5l2.1-1.2v2.7H141.5z"/>
	<path class="st5" d="M144.5,321.4l-1.9-0.3c0.2-0.8,0.6-1.3,1.1-1.7s1.3-0.5,2.3-0.5c0.9,0,1.6,0.1,2.1,0.3
		c0.4,0.2,0.8,0.5,0.9,0.8c0.2,0.3,0.3,0.9,0.3,1.8l0,2.4c0,0.7,0,1.2,0.1,1.5c0.1,0.3,0.2,0.7,0.4,1h-2c-0.1-0.1-0.1-0.3-0.2-0.6
		c0-0.1-0.1-0.2-0.1-0.2c-0.4,0.3-0.7,0.6-1.1,0.8c-0.4,0.2-0.8,0.3-1.3,0.3c-0.8,0-1.4-0.2-1.9-0.7c-0.5-0.4-0.7-1-0.7-1.6
		c0-0.4,0.1-0.8,0.3-1.2c0.2-0.3,0.5-0.6,0.9-0.8c0.4-0.2,0.9-0.3,1.6-0.5c1-0.2,1.6-0.3,2-0.5v-0.2c0-0.4-0.1-0.7-0.3-0.8
		c-0.2-0.2-0.6-0.3-1.1-0.3c-0.4,0-0.7,0.1-0.9,0.2C144.8,320.8,144.6,321,144.5,321.4z M147.2,323.1c-0.3,0.1-0.7,0.2-1.3,0.3
		s-0.9,0.2-1.1,0.4c-0.3,0.2-0.4,0.4-0.4,0.7c0,0.3,0.1,0.5,0.3,0.7c0.2,0.2,0.5,0.3,0.8,0.3c0.4,0,0.7-0.1,1.1-0.4
		c0.2-0.2,0.4-0.4,0.5-0.7c0.1-0.2,0.1-0.5,0.1-1V323.1z"/>
	<path class="st5" d="M151.3,326.8v-10.7h2.1v10.7H151.3z"/>
	<path class="st5" d="M155.4,326.8v-2.1h2.1v2.1H155.4z"/>
</g>
<circle class="st5" cx="34.4" cy="231.4" r="1.8"/>
<circle class="st5" cx="34.4" cy="303.6" r="1.8"/>
</svg>
