<?xml version="1.0" encoding="utf-8"?>
<!-- Generator: Adobe Illustrator 27.5.0, SVG Export Plug-In . SVG Version: 6.00 Build 0)  -->
<svg version="1.1" id="Capa_1" xmlns="http://www.w3.org/2000/svg" xmlns:xlink="http://www.w3.org/1999/xlink" x="0px" y="0px"
	 viewBox="0 0 250.2 438.8" style="enable-background:new 0 0 250.2 438.8;" xml:space="preserve">
<style type="text/css">
	.st0{fill:#FFFFFF;}
	.st1{fill:#914B96;}
	.st2{fill:#F89E41;}
	.st3{fill:#4BBCB6;}
	.st4{fill:#ED8242;}
	.st5{fill:#0B75A4;}
	.st6{fill:none;stroke:#0B75A4;stroke-width:2;stroke-miterlimit:10;}
	.st7{fill:#CC405E;}
</style>
<g>
	<image style="overflow:visible;" width="282" height="471" xlink:href="FB4B424A.png"  transform="matrix(1 0 0 1 -18 -14.17)">
	</image>
</g>
<path class="st0" d="M206.1,418.5H44.1c-13.1,0-23.8-10.7-23.8-23.8V44.1C20.3,31,31,20.3,44.1,20.3h161.9
	c13.1,0,23.8,10.7,23.8,23.8v350.5C229.9,407.8,219.2,418.5,206.1,418.5z"/>
<rect x="20.3" y="83.4" class="st3" width="209.5" height="42.4"/>
<g>
	<g>
		<path class="st3" d="M136.8,183.7c0.5,0,1,0.1,1.5,0.2v-5.1l0,0v-13.6h-6.8c-0.6,0-1-0.4-1-1v-7.6H112c-2.2,0-4,1.8-4,4v28.4
			c0,2.2,1.8,4,4,4h17.6c-1-4,1.5-8.1,5.5-9.1C135.6,183.8,136.2,183.8,136.8,183.7L136.8,183.7z M115.2,169.7h16
			c0.5,0,0.9,0.4,0.9,0.9s-0.4,0.9-0.9,0.9h-16c-0.5,0-0.9-0.4-0.9-0.9S114.7,169.7,115.2,169.7z M115.2,173.5h16
			c0.5,0,0.9,0.4,0.9,0.9c0,0.5-0.4,0.9-0.9,0.9h-16c-0.5,0-0.9-0.4-0.9-0.9C114.3,173.9,114.7,173.5,115.2,173.5z M115.2,177.3h16
			c0.5,0,0.9,0.4,0.9,0.9s-0.4,0.9-0.9,0.9h-16c-0.5,0-0.9-0.4-0.9-0.9S114.7,177.3,115.2,177.3z M115.2,182.8
			c-0.5,0-0.9-0.4-0.9-0.9s0.4-0.9,0.9-0.9h16c0.5,0,0.9,0.4,0.9,0.9s-0.4,0.9-0.9,0.9H115.2z"/>
		<path class="st3" d="M138,163.3l-5.5-5.8v5.8H138z"/>
		<path class="st3" d="M136.8,185.6c-3.1,0-5.6,2.5-5.7,5.6c0,3.1,2.5,5.6,5.6,5.7c3.1,0,5.6-2.5,5.7-5.6c0,0,0,0,0,0
			C142.5,188.2,139.9,185.7,136.8,185.6z M136.5,194.8L136.5,194.8l-3.3-4.1l1.2-1l2.1,2.1l3.8-3.4l1,1.1L136.5,194.8z"/>
	</g>
</g>
<circle class="st3" cx="125.1" cy="50.4" r="14.8"/>
<g>
	<path class="st0" d="M127.6,58.6h-3V47.3c-1.1,1-2.4,1.8-3.9,2.3v-2.7c0.8-0.3,1.6-0.7,2.5-1.4s1.5-1.5,1.9-2.5h2.4V58.6z"/>
</g>
<g>
	<path class="st0" d="M36.7,110.6V98.5h2.4v12.1H36.7z"/>
	<path class="st0" d="M41.4,110.6V98.5h2.4l4.9,8.1v-8.1H51v12.1h-2.4l-4.9-7.9v7.9H41.4z"/>
	<path class="st0" d="M53,106.7l2.4-0.2c0.1,0.8,0.4,1.4,0.9,1.8c0.4,0.4,1,0.6,1.8,0.6c0.8,0,1.4-0.2,1.8-0.5
		c0.4-0.3,0.6-0.7,0.6-1.2c0-0.3-0.1-0.5-0.3-0.7c-0.2-0.2-0.5-0.4-0.9-0.5c-0.3-0.1-0.9-0.3-2-0.5c-1.3-0.3-2.2-0.7-2.8-1.2
		c-0.7-0.7-1.1-1.5-1.1-2.4c0-0.6,0.2-1.2,0.5-1.7c0.3-0.5,0.9-0.9,1.5-1.2c0.7-0.3,1.4-0.4,2.4-0.4c1.5,0,2.7,0.3,3.4,1
		c0.8,0.7,1.2,1.6,1.2,2.7l-2.4,0.1c-0.1-0.6-0.3-1.1-0.7-1.3s-0.9-0.4-1.5-0.4c-0.7,0-1.3,0.1-1.7,0.4c-0.3,0.2-0.4,0.4-0.4,0.8
		c0,0.3,0.1,0.5,0.4,0.7c0.3,0.3,1.1,0.5,2.2,0.8s2.1,0.6,2.6,0.9c0.6,0.3,1,0.7,1.3,1.2c0.3,0.5,0.5,1.2,0.5,1.9
		c0,0.7-0.2,1.3-0.6,1.9c-0.4,0.6-0.9,1.1-1.6,1.3c-0.7,0.3-1.6,0.4-2.6,0.4c-1.5,0-2.7-0.4-3.5-1.1C53.6,109.1,53.2,108.1,53,106.7
		z"/>
	<path class="st0" d="M72.6,106.2l2.4,0.8c-0.4,1.3-1,2.3-1.8,2.9c-0.8,0.6-1.9,1-3.2,1c-1.6,0-2.9-0.5-4-1.6s-1.6-2.6-1.6-4.5
		c0-2,0.5-3.6,1.6-4.7s2.4-1.7,4.1-1.7c1.5,0,2.7,0.4,3.6,1.3c0.5,0.5,1,1.3,1.2,2.2l-2.4,0.6c-0.1-0.6-0.4-1.1-0.9-1.5
		c-0.5-0.4-1-0.5-1.7-0.5c-0.9,0-1.6,0.3-2.2,1s-0.8,1.7-0.8,3.1c0,1.5,0.3,2.6,0.8,3.3c0.5,0.6,1.3,1,2.1,1c0.6,0,1.2-0.2,1.7-0.6
		C72.1,107.7,72.4,107.1,72.6,106.2z"/>
	<path class="st0" d="M77.1,110.6V98.5h5.1c1.3,0,2.2,0.1,2.8,0.3s1.1,0.6,1.4,1.2c0.4,0.6,0.5,1.2,0.5,1.9c0,0.9-0.3,1.7-0.8,2.2
		s-1.3,1-2.4,1.1c0.5,0.3,1,0.6,1.3,1c0.3,0.4,0.8,1,1.4,2l1.5,2.4H85l-1.8-2.6c-0.6-0.9-1.1-1.5-1.3-1.8s-0.5-0.4-0.7-0.5
		s-0.7-0.1-1.2-0.1h-0.5v5H77.1z M79.5,103.7h1.8c1.2,0,1.9,0,2.2-0.1c0.3-0.1,0.5-0.3,0.7-0.5c0.2-0.2,0.2-0.5,0.2-0.9
		c0-0.4-0.1-0.7-0.3-1c-0.2-0.2-0.5-0.4-0.9-0.5c-0.2,0-0.8,0-1.8,0h-1.9V103.7z"/>
	<path class="st0" d="M89.2,110.6V98.5h2.4v12.1H89.2z"/>
	<path class="st0" d="M94,110.6V98.5h3.9c1.5,0,2.5,0.1,2.9,0.2c0.7,0.2,1.3,0.6,1.7,1.2s0.7,1.4,0.7,2.4c0,0.7-0.1,1.4-0.4,1.9
		c-0.3,0.5-0.6,0.9-1,1.2s-0.8,0.5-1.3,0.6c-0.6,0.1-1.4,0.2-2.5,0.2h-1.6v4.6H94z M96.4,100.6v3.4h1.3c1,0,1.6-0.1,1.9-0.2
		s0.6-0.3,0.8-0.6c0.2-0.3,0.3-0.6,0.3-0.9c0-0.4-0.1-0.8-0.4-1.1c-0.3-0.3-0.6-0.5-1-0.5c-0.3-0.1-0.9-0.1-1.8-0.1H96.4z"/>
	<path class="st0" d="M113,106.2l2.4,0.8c-0.4,1.3-1,2.3-1.8,2.9c-0.8,0.6-1.9,1-3.2,1c-1.6,0-2.9-0.5-4-1.6s-1.6-2.6-1.6-4.5
		c0-2,0.5-3.6,1.6-4.7s2.4-1.7,4.1-1.7c1.5,0,2.7,0.4,3.6,1.3c0.5,0.5,1,1.3,1.2,2.2l-2.4,0.6c-0.1-0.6-0.4-1.1-0.9-1.5
		c-0.5-0.4-1-0.5-1.7-0.5c-0.9,0-1.6,0.3-2.2,1s-0.8,1.7-0.8,3.1c0,1.5,0.3,2.6,0.8,3.3c0.5,0.6,1.3,1,2.1,1c0.6,0,1.2-0.2,1.7-0.6
		C112.4,107.7,112.8,107.1,113,106.2z"/>
	<path class="st0" d="M117.3,110.6V98.5h2.4v12.1H117.3z"/>
	<path class="st0" d="M121.6,104.7c0-1.2,0.2-2.3,0.6-3.1c0.3-0.6,0.6-1.2,1.1-1.7s1-0.9,1.6-1.1c0.8-0.3,1.6-0.5,2.6-0.5
		c1.8,0,3.2,0.6,4.3,1.7c1.1,1.1,1.6,2.6,1.6,4.6c0,2-0.5,3.5-1.6,4.6c-1.1,1.1-2.5,1.7-4.3,1.7c-1.8,0-3.2-0.5-4.3-1.6
		C122.2,108.1,121.6,106.6,121.6,104.7z M124.1,104.6c0,1.4,0.3,2.4,0.9,3.1c0.6,0.7,1.4,1.1,2.4,1.1s1.8-0.4,2.4-1.1
		c0.6-0.7,0.9-1.8,0.9-3.2c0-1.4-0.3-2.4-0.9-3.1c-0.6-0.7-1.4-1-2.4-1s-1.8,0.3-2.4,1C124.4,102.1,124.1,103.2,124.1,104.6z
		 M126,97.9l1.1-2.5h2.6l-2.3,2.5H126z"/>
	<path class="st0" d="M135.3,110.6V98.5h2.4l4.9,8.1v-8.1h2.3v12.1h-2.4l-4.9-7.9v7.9H135.3z"/>
	<path class="st0" d="M151.6,104.7c0-1.2,0.2-2.3,0.6-3.1c0.3-0.6,0.7-1.2,1.1-1.7s1-0.9,1.6-1.1c0.8-0.3,1.6-0.5,2.6-0.5
		c1.8,0,3.2,0.6,4.3,1.7s1.6,2.6,1.6,4.6c0,2-0.5,3.5-1.6,4.6c-1.1,1.1-2.5,1.7-4.3,1.7c-1.8,0-3.2-0.5-4.3-1.6
		C152.2,108.1,151.6,106.6,151.6,104.7z M154.2,104.6c0,1.4,0.3,2.4,0.9,3.1c0.6,0.7,1.4,1.1,2.4,1.1c1,0,1.8-0.4,2.4-1.1
		c0.6-0.7,0.9-1.8,0.9-3.2c0-1.4-0.3-2.4-0.9-3.1c-0.6-0.7-1.4-1-2.4-1s-1.8,0.3-2.4,1C154.5,102.1,154.2,103.2,154.2,104.6z"/>
	<path class="st0" d="M165.3,110.6V98.5h2.4l4.9,8.1v-8.1h2.3v12.1h-2.4l-4.9-7.9v7.9H165.3z"/>
	<path class="st0" d="M177.5,110.6v-12h2.4v10h6.1v2H177.5z"/>
	<path class="st0" d="M187.7,110.6V98.5h2.4v12.1H187.7z"/>
	<path class="st0" d="M192.5,110.6V98.5h2.4l4.9,8.1v-8.1h2.3v12.1h-2.4l-4.9-7.9v7.9H192.5z"/>
	<path class="st0" d="M204.7,110.6V98.5h9v2h-6.5v2.7h6.1v2h-6.1v3.3h6.8v2H204.7z"/>
</g>
<g id="Capa_1-2">
	<path class="st5" d="M121.1,382c1.1,0.9,2.3,0.1,3.5,0.5c-0.2,0.4-0.4,0.7-0.7,0.9c-1.1,1.1-2.4,1.4-3.9,1.4
		c-0.2,0-0.4-0.3-0.4-0.4c0-0.5-0.3-0.5-0.6-0.6c-0.7-0.2-1.4-0.3-2-0.6c-0.8-0.5-1.7-0.6-2.6-0.6c-0.4,0-0.8,0-1.2,0
		c0.1-0.6,0.1-1.2,0.2-1.7c0.1-0.6,0-1.1-0.2-1.7c-0.3-0.8-0.4-1.6-0.4-2.4c0-0.6-0.1-1-0.9-0.8c0.1-0.6,0.2-1,0.3-1.5
		c0.3-1.3,1.2-2.2,2.2-2.9c0.2-0.1,0.5-0.1,0.7-0.1c0,0.2,0,0.4,0,0.6c0,0.6-0.1,1.2-0.2,1.8c-0.1,0.4-0.1,0.8-0.4,1.1
		c-0.6,0.9,0.2,3.2,1.2,3.4c0.1,0,0.3,0,0.4-0.1c2.5-2,5-4,7.5-6c-0.3-0.3-0.6-0.6-0.9-0.9c-0.5,0.3-0.9,1-1.6,0.4
		c-0.5-0.5,0-1,0.4-1.4c-0.4-0.4-0.6-0.7-1.3-0.6c-1.1,0.2-2.1-0.6-2.3-1.7c-0.2-0.9,0.4-1.8,1.3-2c1.2-0.4,2.7,0.7,2.6,2
		c-0.1,0.8,0.4,1,0.8,1.3c0.4-0.3,0.9-0.9,1.4-0.3c0.4,0.4,0.2,0.9-0.2,1.3c1.3,1.2,0.9,1.2,2.3-0.1c-0.3-0.4-0.6-0.9-0.1-1.3
		c0.5-0.5,1,0,1.4,0.4c0.4-0.4,0.9-0.5,0.8-1.3c-0.1-1,0.9-2,1.9-2c1-0.1,1.8,0.5,2,1.5c0.2,1.2-0.9,2.5-2.3,2.3
		c-0.6-0.1-0.9,0.1-1.3,0.6c0.3,0.4,0.9,0.9,0.3,1.5c-0.6,0.6-1-0.1-1.5-0.4c-0.3,0.3-0.7,0.6-1.1,1c1.3,1,2.5,2,3.7,3
		c1.2,1,2.5,2,3.7,3c0.5,0.4,0.8,0.3,1.2-0.1c0.7-0.7,0.9-1.6,0.9-2.6c0-0.1,0-0.2-0.1-0.2c-0.7-0.6-0.5-1.4-0.6-2.1
		c0-0.4-0.1-0.7-0.1-1.1c0-0.2,0-0.4,0-0.7c0.2,0,0.5,0,0.7,0.2c1,0.7,1.8,1.6,2.2,2.8c0.1,0.5,0.2,1,0.3,1.5
		c-0.9,0.3-0.8,0.3-0.9,1.1c-0.1,0.9-0.5,1.8-0.6,2.7c-0.1,0.7,0,1.4,0.1,2c0,0.3,0.1,0.6,0.1,0.9c-0.8,0-1.5,0-2.2,0
		c-0.4,0-0.8,0.1-1.1,0.3c-0.8,0.5-1.7,0.9-2.6,0.9c-0.4,0-0.5,0.1-0.5,0.5c0,0.2-0.3,0.5-0.4,0.5c-1.5,0-3-0.3-4-1.5
		c-0.2-0.2-0.3-0.5-0.5-0.8c1.1-0.5,2.4,0.3,3.4-0.5c0.6,0.8,1.2,0.5,1.9,0.2c0.5-0.2,0.9-0.5,1.3-0.9c0.6-0.5,0.6-0.8,0-1.3
		c-1.3-1.2-2.7-2.4-4-3.6c-1.1-1-2.1-2-3.2-3c-1.8,1.7-3.6,3.3-5.4,5c-0.6,0.5-1.2,1.1-1.8,1.6c-0.5,0.5-0.5,0.8,0,1.2
		c0.5,0.4,1.1,0.8,1.7,1.1C120.1,382.6,120.8,382.9,121.1,382L121.1,382z M130.4,368.6c-0.1,0.1-0.2,0.2-0.3,0.3
		c0.8-0.2,1.2-0.6,1.1-1.1c-0.1-0.5-0.4-0.7-0.8-0.8c-0.5-0.1-0.9,0.3-1.1,1.1c0.1-0.1,0.2-0.2,0.4-0.4
		C129.9,368,130.1,368.3,130.4,368.6L130.4,368.6z M120,369c0.3-0.3,0.6-0.6,0.9-0.9c-0.3-0.7-0.6-1-1.1-0.9
		c-0.4,0.1-0.7,0.3-0.7,0.8C118.9,368.4,119.2,368.7,120,369L120,369z"/>
</g>
<path class="st6" d="M206.1,418.5H44.1c-13.1,0-23.8-10.7-23.8-23.8V44.1C20.3,31,31,20.3,44.1,20.3h161.9
	c13.1,0,23.8,10.7,23.8,23.8v350.5C229.9,407.8,219.2,418.5,206.1,418.5z"/>
<g>
	<g>
		<path class="st5" d="M46.7,240.2l2.1,0.7c-0.3,1.2-0.9,2-1.6,2.6c-0.8,0.6-1.7,0.9-2.9,0.9c-1.4,0-2.6-0.5-3.5-1.5
			c-0.9-1-1.4-2.3-1.4-4c0-1.8,0.5-3.2,1.4-4.2c0.9-1,2.1-1.5,3.6-1.5c1.3,0,2.4,0.4,3.2,1.2c0.5,0.5,0.9,1.1,1.1,2l-2.1,0.5
			c-0.1-0.6-0.4-1-0.8-1.3c-0.4-0.3-0.9-0.5-1.5-0.5c-0.8,0-1.4,0.3-1.9,0.9s-0.7,1.5-0.7,2.8c0,1.4,0.2,2.3,0.7,2.9
			s1.1,0.9,1.9,0.9c0.6,0,1.1-0.2,1.5-0.5S46.5,241,46.7,240.2z"/>
		<path class="st5" d="M50.1,240.2c0-0.7,0.2-1.3,0.5-2s0.8-1.1,1.4-1.5c0.6-0.3,1.3-0.5,2.1-0.5c1.2,0,2.1,0.4,2.9,1.1
			c0.8,0.8,1.1,1.7,1.1,2.9c0,1.2-0.4,2.2-1.1,2.9c-0.8,0.8-1.7,1.2-2.9,1.2c-0.7,0-1.4-0.2-2-0.5c-0.6-0.3-1.1-0.8-1.5-1.4
			C50.3,241.8,50.1,241,50.1,240.2z M52.2,240.3c0,0.8,0.2,1.4,0.5,1.8s0.8,0.6,1.4,0.6s1-0.2,1.4-0.6c0.4-0.4,0.5-1,0.5-1.8
			c0-0.8-0.2-1.3-0.5-1.8c-0.4-0.4-0.8-0.6-1.4-0.6s-1,0.2-1.4,0.6S52.2,239.5,52.2,240.3z"/>
		<path class="st5" d="M59.6,236.4h1.9v1.1c0.7-0.8,1.5-1.2,2.4-1.2c0.5,0,0.9,0.1,1.3,0.3s0.7,0.5,0.9,0.9c0.3-0.4,0.7-0.7,1.1-0.9
			s0.8-0.3,1.3-0.3c0.6,0,1.1,0.1,1.5,0.3c0.4,0.2,0.7,0.6,0.9,1c0.1,0.3,0.2,0.9,0.2,1.6v5H69v-4.4c0-0.8-0.1-1.3-0.2-1.5
			c-0.2-0.3-0.5-0.4-0.9-0.4c-0.3,0-0.6,0.1-0.8,0.3s-0.4,0.4-0.5,0.8c-0.1,0.3-0.2,0.9-0.2,1.6v3.7h-2.1v-4.3c0-0.8,0-1.2-0.1-1.5
			s-0.2-0.4-0.3-0.5c-0.2-0.1-0.4-0.2-0.6-0.2c-0.3,0-0.6,0.1-0.9,0.3s-0.4,0.4-0.5,0.7c-0.1,0.3-0.2,0.9-0.2,1.6v3.8h-2.1V236.4z"
			/>
		<path class="st5" d="M73.1,236.4H75v1.1c0.2-0.4,0.6-0.7,1-1s0.9-0.4,1.4-0.4c0.9,0,1.7,0.4,2.3,1.1s0.9,1.7,0.9,3
			c0,1.3-0.3,2.3-1,3c-0.6,0.7-1.4,1.1-2.3,1.1c-0.4,0-0.8-0.1-1.2-0.3c-0.3-0.2-0.7-0.5-1.1-0.9v3.9h-2.1V236.4z M75.1,240.1
			c0,0.9,0.2,1.5,0.5,1.9c0.3,0.4,0.8,0.6,1.3,0.6c0.5,0,0.9-0.2,1.2-0.6c0.3-0.4,0.5-1,0.5-1.9c0-0.8-0.2-1.4-0.5-1.8
			s-0.7-0.6-1.2-0.6c-0.5,0-0.9,0.2-1.3,0.6C75.3,238.8,75.1,239.4,75.1,240.1z"/>
		<path class="st5" d="M82.3,244.2v-10.7h2.1v10.7H82.3z"/>
		<path class="st5" d="M90.9,241.7L93,242c-0.3,0.8-0.7,1.3-1.2,1.7c-0.6,0.4-1.3,0.6-2.1,0.6c-1.4,0-2.4-0.4-3-1.3
			c-0.5-0.7-0.8-1.6-0.8-2.7c0-1.3,0.3-2.3,1-3c0.7-0.7,1.5-1.1,2.6-1.1c1.2,0,2.1,0.4,2.7,1.1c0.7,0.8,1,1.9,1,3.5H88
			c0,0.6,0.2,1.1,0.5,1.4c0.3,0.3,0.7,0.5,1.2,0.5c0.3,0,0.6-0.1,0.8-0.3S90.8,242.1,90.9,241.7z M91.1,239.6c0-0.6-0.2-1-0.5-1.4
			c-0.3-0.3-0.6-0.5-1.1-0.5c-0.4,0-0.8,0.2-1.1,0.5S88,239,88,239.6H91.1z"/>
		<path class="st5" d="M98.4,236.4v1.6h-1.4v3.1c0,0.6,0,1,0,1.1c0,0.1,0.1,0.2,0.2,0.3c0.1,0.1,0.2,0.1,0.3,0.1
			c0.2,0,0.5-0.1,0.8-0.2l0.2,1.6c-0.5,0.2-1,0.3-1.6,0.3c-0.4,0-0.7-0.1-1-0.2c-0.3-0.1-0.5-0.3-0.7-0.5c-0.1-0.2-0.2-0.5-0.3-0.8
			c0-0.2-0.1-0.7-0.1-1.5V238h-0.9v-1.6h0.9v-1.5l2.1-1.2v2.7H98.4z"/>
		<path class="st5" d="M101.3,238.8l-1.9-0.3c0.2-0.8,0.6-1.3,1.1-1.7s1.3-0.5,2.3-0.5c0.9,0,1.6,0.1,2.1,0.3
			c0.4,0.2,0.8,0.5,0.9,0.8c0.2,0.3,0.3,0.9,0.3,1.8l0,2.4c0,0.7,0,1.2,0.1,1.5c0.1,0.3,0.2,0.7,0.4,1h-2c-0.1-0.1-0.1-0.3-0.2-0.6
			c0-0.1-0.1-0.2-0.1-0.2c-0.4,0.3-0.7,0.6-1.1,0.8s-0.8,0.3-1.3,0.3c-0.8,0-1.4-0.2-1.9-0.7c-0.5-0.4-0.7-1-0.7-1.6
			c0-0.4,0.1-0.8,0.3-1.2c0.2-0.3,0.5-0.6,0.9-0.8c0.4-0.2,0.9-0.3,1.6-0.5c1-0.2,1.6-0.3,2-0.5v-0.2c0-0.4-0.1-0.7-0.3-0.8
			c-0.2-0.2-0.6-0.3-1.1-0.3c-0.4,0-0.7,0.1-0.9,0.2C101.6,238.1,101.4,238.4,101.3,238.8z M104.1,240.4c-0.3,0.1-0.7,0.2-1.3,0.3
			s-0.9,0.2-1.1,0.4c-0.3,0.2-0.4,0.4-0.4,0.7c0,0.3,0.1,0.5,0.3,0.7s0.5,0.3,0.8,0.3c0.4,0,0.7-0.1,1.1-0.4
			c0.2-0.2,0.4-0.4,0.5-0.7c0.1-0.2,0.1-0.5,0.1-1V240.4z"/>
		<path class="st5" d="M110.1,244.2H108v-7.8h1.9v1.1c0.3-0.5,0.6-0.9,0.9-1c0.3-0.2,0.6-0.2,0.9-0.2c0.5,0,0.9,0.1,1.4,0.4
			l-0.6,1.8c-0.3-0.2-0.7-0.3-1-0.3c-0.3,0-0.5,0.1-0.7,0.2c-0.2,0.2-0.4,0.4-0.5,0.9s-0.2,1.3-0.2,2.6V244.2z"/>
		<path class="st5" d="M122.6,241.7l2.1,0.3c-0.3,0.8-0.7,1.3-1.2,1.7c-0.6,0.4-1.3,0.6-2.1,0.6c-1.4,0-2.4-0.4-3-1.3
			c-0.5-0.7-0.8-1.6-0.8-2.7c0-1.3,0.3-2.3,1-3c0.7-0.7,1.5-1.1,2.6-1.1c1.2,0,2.1,0.4,2.7,1.1c0.7,0.8,1,1.9,1,3.5h-5.2
			c0,0.6,0.2,1.1,0.5,1.4c0.3,0.3,0.7,0.5,1.2,0.5c0.3,0,0.6-0.1,0.8-0.3S122.5,242.1,122.6,241.7z M122.8,239.6
			c0-0.6-0.2-1-0.5-1.4c-0.3-0.3-0.6-0.5-1.1-0.5c-0.4,0-0.8,0.2-1.1,0.5s-0.4,0.8-0.4,1.3H122.8z"/>
		<path class="st5" d="M126.5,244.2v-10.7h2.1v10.7H126.5z"/>
		<path class="st5" d="M133.9,236.4h1.1v-0.6c0-0.7,0.1-1.1,0.2-1.5c0.1-0.3,0.4-0.6,0.8-0.8c0.4-0.2,0.8-0.3,1.4-0.3
			c0.6,0,1.2,0.1,1.7,0.3l-0.3,1.4c-0.3-0.1-0.6-0.1-0.9-0.1c-0.3,0-0.5,0.1-0.6,0.2c-0.1,0.1-0.2,0.4-0.2,0.8v0.5h1.5v1.6h-1.5v6.2
			H135V238h-1.1V236.4z"/>
		<path class="st5" d="M139.3,240.2c0-0.7,0.2-1.3,0.5-2c0.3-0.6,0.8-1.1,1.4-1.5c0.6-0.3,1.3-0.5,2.1-0.5c1.2,0,2.1,0.4,2.9,1.1
			c0.8,0.8,1.1,1.7,1.1,2.9c0,1.2-0.4,2.2-1.1,2.9c-0.8,0.8-1.7,1.2-2.9,1.2c-0.7,0-1.4-0.2-2-0.5c-0.6-0.3-1.1-0.8-1.5-1.4
			C139.5,241.8,139.3,241,139.3,240.2z M141.4,240.3c0,0.8,0.2,1.4,0.5,1.8c0.4,0.4,0.8,0.6,1.4,0.6s1-0.2,1.4-0.6
			c0.4-0.4,0.5-1,0.5-1.8c0-0.8-0.2-1.3-0.5-1.8c-0.4-0.4-0.8-0.6-1.4-0.6s-1,0.2-1.4,0.6C141.6,238.9,141.4,239.5,141.4,240.3z"/>
		<path class="st5" d="M150.9,244.2h-2.1v-7.8h1.9v1.1c0.3-0.5,0.6-0.9,0.9-1c0.3-0.2,0.6-0.2,0.9-0.2c0.5,0,0.9,0.1,1.4,0.4
			l-0.6,1.8c-0.3-0.2-0.7-0.3-1-0.3c-0.3,0-0.5,0.1-0.7,0.2c-0.2,0.2-0.4,0.4-0.5,0.9c-0.1,0.4-0.2,1.3-0.2,2.6V244.2z"/>
		<path class="st5" d="M154.6,236.4h1.9v1.1c0.7-0.8,1.5-1.2,2.4-1.2c0.5,0,0.9,0.1,1.3,0.3c0.4,0.2,0.7,0.5,0.9,0.9
			c0.3-0.4,0.7-0.7,1.1-0.9c0.4-0.2,0.8-0.3,1.3-0.3c0.6,0,1.1,0.1,1.5,0.3c0.4,0.2,0.7,0.6,0.9,1c0.1,0.3,0.2,0.9,0.2,1.6v5H164
			v-4.4c0-0.8-0.1-1.3-0.2-1.5c-0.2-0.3-0.5-0.4-0.9-0.4c-0.3,0-0.6,0.1-0.8,0.3s-0.4,0.4-0.5,0.8c-0.1,0.3-0.2,0.9-0.2,1.6v3.7
			h-2.1v-4.3c0-0.8,0-1.2-0.1-1.5c-0.1-0.2-0.2-0.4-0.3-0.5c-0.2-0.1-0.4-0.2-0.6-0.2c-0.3,0-0.6,0.1-0.9,0.3s-0.4,0.4-0.5,0.7
			c-0.1,0.3-0.2,0.9-0.2,1.6v3.8h-2.1V236.4z"/>
		<path class="st5" d="M173.3,244.2V243c-0.3,0.4-0.7,0.7-1.1,1c-0.5,0.2-0.9,0.4-1.5,0.4c-0.5,0-1-0.1-1.4-0.3s-0.7-0.6-0.9-1
			s-0.3-1-0.3-1.7v-4.9h2.1v3.6c0,1.1,0,1.8,0.1,2c0.1,0.2,0.2,0.4,0.4,0.6c0.2,0.1,0.5,0.2,0.8,0.2c0.4,0,0.7-0.1,0.9-0.3
			c0.3-0.2,0.5-0.4,0.6-0.7c0.1-0.3,0.2-1,0.2-2.1v-3.3h2.1v7.8H173.3z"/>
		<path class="st5" d="M177.3,244.2v-10.7h2.1v10.7H177.3z"/>
		<path class="st5" d="M183,238.8l-1.9-0.3c0.2-0.8,0.6-1.3,1.1-1.7s1.3-0.5,2.3-0.5c0.9,0,1.6,0.1,2.1,0.3c0.4,0.2,0.8,0.5,0.9,0.8
			c0.2,0.3,0.3,0.9,0.3,1.8l0,2.4c0,0.7,0,1.2,0.1,1.5c0.1,0.3,0.2,0.7,0.4,1h-2c-0.1-0.1-0.1-0.3-0.2-0.6c0-0.1-0.1-0.2-0.1-0.2
			c-0.4,0.3-0.7,0.6-1.1,0.8c-0.4,0.2-0.8,0.3-1.3,0.3c-0.8,0-1.4-0.2-1.9-0.7c-0.5-0.4-0.7-1-0.7-1.6c0-0.4,0.1-0.8,0.3-1.2
			c0.2-0.3,0.5-0.6,0.9-0.8c0.4-0.2,0.9-0.3,1.6-0.5c1-0.2,1.6-0.3,2-0.5v-0.2c0-0.4-0.1-0.7-0.3-0.8c-0.2-0.2-0.6-0.3-1.1-0.3
			c-0.4,0-0.7,0.1-0.9,0.2C183.3,238.1,183.1,238.4,183,238.8z M185.8,240.4c-0.3,0.1-0.7,0.2-1.3,0.3s-0.9,0.2-1.1,0.4
			c-0.3,0.2-0.4,0.4-0.4,0.7c0,0.3,0.1,0.5,0.3,0.7s0.5,0.3,0.8,0.3c0.4,0,0.7-0.1,1.1-0.4c0.2-0.2,0.4-0.4,0.5-0.7
			c0.1-0.2,0.1-0.5,0.1-1V240.4z"/>
		<path class="st5" d="M191.8,244.2h-2.1v-7.8h1.9v1.1c0.3-0.5,0.6-0.9,0.9-1c0.3-0.2,0.6-0.2,0.9-0.2c0.5,0,0.9,0.1,1.4,0.4
			l-0.6,1.8c-0.3-0.2-0.7-0.3-1-0.3c-0.3,0-0.5,0.1-0.7,0.2c-0.2,0.2-0.4,0.4-0.5,0.9c-0.1,0.4-0.2,1.3-0.2,2.6V244.2z"/>
		<path class="st5" d="M195.6,235.3v-1.9h2.1v1.9H195.6z M195.6,244.2v-7.8h2.1v7.8H195.6z"/>
		<path class="st5" d="M199.3,240.2c0-0.7,0.2-1.3,0.5-2c0.3-0.6,0.8-1.1,1.4-1.5c0.6-0.3,1.3-0.5,2.1-0.5c1.2,0,2.1,0.4,2.9,1.1
			c0.8,0.8,1.1,1.7,1.1,2.9c0,1.2-0.4,2.2-1.1,2.9c-0.8,0.8-1.7,1.2-2.9,1.2c-0.7,0-1.4-0.2-2-0.5c-0.6-0.3-1.1-0.8-1.5-1.4
			C199.5,241.8,199.3,241,199.3,240.2z M201.5,240.3c0,0.8,0.2,1.4,0.5,1.8c0.4,0.4,0.8,0.6,1.4,0.6s1-0.2,1.4-0.6
			c0.4-0.4,0.5-1,0.5-1.8c0-0.8-0.2-1.3-0.5-1.8c-0.4-0.4-0.8-0.6-1.4-0.6s-1,0.2-1.4,0.6C201.6,238.9,201.5,239.5,201.5,240.3z"/>
		<path class="st5" d="M46.9,262.2H45V261c-0.3,0.4-0.7,0.8-1.1,1c-0.4,0.2-0.9,0.3-1.3,0.3c-0.9,0-1.7-0.4-2.3-1.1
			c-0.6-0.7-1-1.7-1-3c0-1.3,0.3-2.3,0.9-3c0.6-0.7,1.4-1,2.4-1c0.9,0,1.6,0.4,2.3,1.1v-3.9h2.1V262.2z M41.4,258.1
			c0,0.8,0.1,1.4,0.3,1.8c0.3,0.5,0.8,0.8,1.4,0.8c0.5,0,0.9-0.2,1.2-0.6c0.3-0.4,0.5-1,0.5-1.8c0-0.9-0.2-1.5-0.5-1.9
			c-0.3-0.4-0.7-0.6-1.2-0.6c-0.5,0-0.9,0.2-1.2,0.6C41.6,256.7,41.4,257.3,41.4,258.1z"/>
		<path class="st5" d="M53.4,259.7l2.1,0.3c-0.3,0.8-0.7,1.3-1.2,1.7c-0.6,0.4-1.3,0.6-2.1,0.6c-1.4,0-2.4-0.4-3-1.3
			c-0.5-0.7-0.8-1.6-0.8-2.7c0-1.3,0.3-2.3,1-3c0.7-0.7,1.5-1.1,2.6-1.1c1.2,0,2.1,0.4,2.7,1.1c0.7,0.8,1,1.9,1,3.5h-5.2
			c0,0.6,0.2,1.1,0.5,1.4c0.3,0.3,0.7,0.5,1.2,0.5c0.3,0,0.6-0.1,0.8-0.3S53.3,260.1,53.4,259.7z M53.6,257.6c0-0.6-0.2-1-0.5-1.4
			c-0.3-0.3-0.6-0.5-1.1-0.5c-0.4,0-0.8,0.2-1.1,0.5s-0.4,0.8-0.4,1.3H53.6z"/>
		<path class="st5" d="M61.5,253.3v-1.9h2.1v1.9H61.5z M61.5,262.2v-7.8h2.1v7.8H61.5z"/>
		<path class="st5" d="M72.7,262.2h-2.1v-4c0-0.8,0-1.4-0.1-1.6c-0.1-0.2-0.2-0.4-0.4-0.6c-0.2-0.1-0.4-0.2-0.7-0.2
			c-0.4,0-0.7,0.1-1,0.3s-0.5,0.5-0.6,0.8s-0.2,0.9-0.2,1.8v3.5h-2.1v-7.8h1.9v1.1c0.7-0.9,1.5-1.3,2.6-1.3c0.5,0,0.9,0.1,1.2,0.2
			c0.4,0.2,0.7,0.4,0.9,0.6c0.2,0.3,0.3,0.5,0.4,0.9s0.1,0.8,0.1,1.4V262.2z"/>
		<path class="st5" d="M74.1,259.9l2.1-0.3c0.1,0.4,0.3,0.7,0.5,0.9c0.3,0.2,0.6,0.3,1.1,0.3c0.5,0,0.9-0.1,1.2-0.3
			c0.2-0.1,0.3-0.3,0.3-0.5c0-0.2,0-0.3-0.1-0.4c-0.1-0.1-0.3-0.2-0.7-0.3c-1.7-0.4-2.7-0.7-3.2-1c-0.6-0.4-0.9-1-0.9-1.8
			c0-0.7,0.3-1.2,0.8-1.7s1.4-0.7,2.5-0.7c1.1,0,1.9,0.2,2.4,0.5s0.9,0.9,1.1,1.5l-1.9,0.4c-0.1-0.3-0.2-0.5-0.5-0.7
			c-0.2-0.2-0.6-0.2-1-0.2c-0.5,0-0.9,0.1-1.2,0.2c-0.2,0.1-0.2,0.2-0.2,0.4c0,0.1,0.1,0.3,0.2,0.4c0.2,0.1,0.8,0.3,1.9,0.6
			c1.1,0.2,1.9,0.6,2.3,0.9c0.4,0.4,0.6,0.9,0.6,1.5c0,0.7-0.3,1.3-0.9,1.8c-0.6,0.5-1.5,0.8-2.6,0.8c-1.1,0-1.9-0.2-2.5-0.6
			S74.2,260.7,74.1,259.9z"/>
		<path class="st5" d="M89.9,256.7l-2,0.4c-0.1-0.4-0.2-0.7-0.5-0.9c-0.2-0.2-0.6-0.3-0.9-0.3c-0.5,0-0.9,0.2-1.2,0.5
			c-0.3,0.4-0.5,0.9-0.5,1.8c0,0.9,0.2,1.6,0.5,2s0.7,0.6,1.2,0.6c0.4,0,0.7-0.1,1-0.3c0.2-0.2,0.4-0.6,0.5-1.1l2,0.3
			c-0.2,0.9-0.6,1.6-1.2,2.1c-0.6,0.5-1.4,0.7-2.4,0.7c-1.1,0-2-0.4-2.7-1.1c-0.7-0.7-1-1.7-1-3c0-1.3,0.3-2.3,1-3
			c0.7-0.7,1.6-1.1,2.8-1.1c0.9,0,1.7,0.2,2.3,0.6C89.3,255.2,89.7,255.8,89.9,256.7z"/>
		<path class="st5" d="M93.4,262.2h-2.1v-7.8h1.9v1.1c0.3-0.5,0.6-0.9,0.9-1c0.3-0.2,0.6-0.2,0.9-0.2c0.5,0,0.9,0.1,1.4,0.4
			l-0.6,1.8c-0.3-0.2-0.7-0.3-1-0.3c-0.3,0-0.5,0.1-0.7,0.2c-0.2,0.2-0.4,0.4-0.5,0.9s-0.2,1.3-0.2,2.6V262.2z"/>
		<path class="st5" d="M97.3,253.3v-1.9h2.1v1.9H97.3z M97.3,262.2v-7.8h2.1v7.8H97.3z"/>
		<path class="st5" d="M101.4,254.4h1.9v1.1c0.2-0.4,0.6-0.7,1-1s0.9-0.4,1.4-0.4c0.9,0,1.7,0.4,2.3,1.1c0.6,0.7,0.9,1.7,0.9,3
			c0,1.3-0.3,2.3-1,3c-0.6,0.7-1.4,1.1-2.3,1.1c-0.4,0-0.8-0.1-1.2-0.3c-0.3-0.2-0.7-0.5-1.1-0.9v3.9h-2.1V254.4z M103.5,258.1
			c0,0.9,0.2,1.5,0.5,1.9c0.3,0.4,0.8,0.6,1.3,0.6c0.5,0,0.9-0.2,1.2-0.6c0.3-0.4,0.5-1,0.5-1.9c0-0.8-0.2-1.4-0.5-1.8
			c-0.3-0.4-0.7-0.6-1.2-0.6c-0.5,0-0.9,0.2-1.3,0.6C103.6,256.8,103.5,257.4,103.5,258.1z"/>
		<path class="st5" d="M117.4,256.7l-2,0.4c-0.1-0.4-0.2-0.7-0.5-0.9c-0.2-0.2-0.6-0.3-0.9-0.3c-0.5,0-0.9,0.2-1.2,0.5
			c-0.3,0.4-0.5,0.9-0.5,1.8c0,0.9,0.2,1.6,0.5,2s0.7,0.6,1.2,0.6c0.4,0,0.7-0.1,1-0.3c0.2-0.2,0.4-0.6,0.5-1.1l2,0.3
			c-0.2,0.9-0.6,1.6-1.2,2.1c-0.6,0.5-1.4,0.7-2.4,0.7c-1.1,0-2-0.4-2.7-1.1c-0.7-0.7-1-1.7-1-3c0-1.3,0.3-2.3,1-3
			c0.7-0.7,1.6-1.1,2.8-1.1c0.9,0,1.7,0.2,2.3,0.6C116.8,255.2,117.2,255.8,117.4,256.7z"/>
		<path class="st5" d="M119,253.3v-1.9h2.1v1.9H119z M119,262.2v-7.8h2.1v7.8H119z"/>
		<path class="st5" d="M122.7,258.2c0-0.7,0.2-1.3,0.5-2c0.3-0.6,0.8-1.1,1.4-1.5c0.6-0.3,1.3-0.5,2.1-0.5c1.2,0,2.1,0.4,2.9,1.1
			c0.8,0.8,1.1,1.7,1.1,2.9c0,1.2-0.4,2.2-1.1,2.9c-0.8,0.8-1.7,1.2-2.9,1.2c-0.7,0-1.4-0.2-2-0.5c-0.6-0.3-1.1-0.8-1.5-1.4
			C122.8,259.8,122.7,259,122.7,258.2z M124.8,258.3c0,0.8,0.2,1.4,0.5,1.8s0.8,0.6,1.4,0.6s1-0.2,1.4-0.6c0.4-0.4,0.5-1,0.5-1.8
			c0-0.8-0.2-1.3-0.5-1.8c-0.4-0.4-0.8-0.6-1.4-0.6s-1,0.2-1.4,0.6S124.8,257.5,124.8,258.3z M125.6,253.4l1-2.2h2.3l-2,2.2H125.6z"
			/>
		<path class="st5" d="M139.4,262.2h-2.1v-4c0-0.8,0-1.4-0.1-1.6c-0.1-0.2-0.2-0.4-0.4-0.6c-0.2-0.1-0.4-0.2-0.7-0.2
			c-0.4,0-0.7,0.1-1,0.3s-0.5,0.5-0.6,0.8c-0.1,0.3-0.2,0.9-0.2,1.8v3.5h-2.1v-7.8h1.9v1.1c0.7-0.9,1.5-1.3,2.6-1.3
			c0.5,0,0.9,0.1,1.2,0.2c0.4,0.2,0.7,0.4,0.9,0.6c0.2,0.3,0.3,0.5,0.4,0.9s0.1,0.8,0.1,1.4V262.2z"/>
		<path class="st5" d="M145.2,258.2c0-0.7,0.2-1.3,0.5-2c0.3-0.6,0.8-1.1,1.4-1.5c0.6-0.3,1.3-0.5,2.1-0.5c1.2,0,2.1,0.4,2.9,1.1
			c0.8,0.8,1.1,1.7,1.1,2.9c0,1.2-0.4,2.2-1.1,2.9c-0.8,0.8-1.7,1.2-2.9,1.2c-0.7,0-1.4-0.2-2-0.5c-0.6-0.3-1.1-0.8-1.5-1.4
			C145.3,259.8,145.2,259,145.2,258.2z M147.3,258.3c0,0.8,0.2,1.4,0.5,1.8c0.4,0.4,0.8,0.6,1.4,0.6s1-0.2,1.4-0.6
			c0.4-0.4,0.5-1,0.5-1.8c0-0.8-0.2-1.3-0.5-1.8c-0.4-0.4-0.8-0.6-1.4-0.6s-1,0.2-1.4,0.6C147.5,256.9,147.3,257.5,147.3,258.3z"/>
		<path class="st5" d="M161.9,262.2h-2.1v-4c0-0.8,0-1.4-0.1-1.6c-0.1-0.2-0.2-0.4-0.4-0.6c-0.2-0.1-0.4-0.2-0.7-0.2
			c-0.4,0-0.7,0.1-1,0.3s-0.5,0.5-0.6,0.8c-0.1,0.3-0.2,0.9-0.2,1.8v3.5h-2.1v-7.8h1.9v1.1c0.7-0.9,1.5-1.3,2.6-1.3
			c0.5,0,0.9,0.1,1.2,0.2c0.4,0.2,0.7,0.4,0.9,0.6c0.2,0.3,0.3,0.5,0.4,0.9c0.1,0.3,0.1,0.8,0.1,1.4V262.2z"/>
		<path class="st5" d="M164,262.2v-10.7h2.1v10.7H164z"/>
		<path class="st5" d="M168.1,253.3v-1.9h2.1v1.9H168.1z M168.1,262.2v-7.8h2.1v7.8H168.1z"/>
		<path class="st5" d="M179.4,262.2h-2.1v-4c0-0.8,0-1.4-0.1-1.6c-0.1-0.2-0.2-0.4-0.4-0.6c-0.2-0.1-0.4-0.2-0.7-0.2
			c-0.4,0-0.7,0.1-1,0.3s-0.5,0.5-0.6,0.8c-0.1,0.3-0.2,0.9-0.2,1.8v3.5h-2.1v-7.8h1.9v1.1c0.7-0.9,1.5-1.3,2.6-1.3
			c0.5,0,0.9,0.1,1.2,0.2c0.4,0.2,0.7,0.4,0.9,0.6c0.2,0.3,0.3,0.5,0.4,0.9c0.1,0.3,0.1,0.8,0.1,1.4V262.2z"/>
		<path class="st5" d="M186,259.7l2.1,0.3c-0.3,0.8-0.7,1.3-1.2,1.7c-0.6,0.4-1.3,0.6-2.1,0.6c-1.4,0-2.4-0.4-3-1.3
			c-0.5-0.7-0.8-1.6-0.8-2.7c0-1.3,0.3-2.3,1-3c0.7-0.7,1.5-1.1,2.6-1.1c1.2,0,2.1,0.4,2.7,1.1c0.7,0.8,1,1.9,1,3.5H183
			c0,0.6,0.2,1.1,0.5,1.4c0.3,0.3,0.7,0.5,1.2,0.5c0.3,0,0.6-0.1,0.8-0.3S185.9,260.1,186,259.7z M186.1,257.6c0-0.6-0.2-1-0.5-1.4
			c-0.3-0.3-0.6-0.5-1.1-0.5c-0.5,0-0.8,0.2-1.1,0.5s-0.4,0.8-0.4,1.3H186.1z"/>
		<path class="st5" d="M189.8,262.2v-2.1h2.1v2.1H189.8z"/>
		<path class="st5" d="M46.7,294.2l2.1,0.7c-0.3,1.2-0.9,2-1.6,2.6c-0.8,0.6-1.7,0.9-2.9,0.9c-1.4,0-2.6-0.5-3.5-1.5
			c-0.9-1-1.4-2.3-1.4-4c0-1.8,0.5-3.2,1.4-4.2c0.9-1,2.1-1.5,3.6-1.5c1.3,0,2.4,0.4,3.2,1.2c0.5,0.5,0.9,1.1,1.1,2l-2.1,0.5
			c-0.1-0.6-0.4-1-0.8-1.3c-0.4-0.3-0.9-0.5-1.5-0.5c-0.8,0-1.4,0.3-1.9,0.9c-0.5,0.6-0.7,1.5-0.7,2.8c0,1.4,0.2,2.3,0.7,2.9
			s1.1,0.9,1.9,0.9c0.6,0,1.1-0.2,1.5-0.5C46.2,295.6,46.5,295,46.7,294.2z"/>
		<path class="st5" d="M52.2,292.8l-1.9-0.3c0.2-0.8,0.6-1.3,1.1-1.7s1.3-0.5,2.3-0.5c0.9,0,1.6,0.1,2.1,0.3
			c0.4,0.2,0.8,0.5,0.9,0.8c0.2,0.3,0.3,0.9,0.3,1.8l0,2.4c0,0.7,0,1.2,0.1,1.5c0.1,0.3,0.2,0.7,0.4,1h-2c-0.1-0.1-0.1-0.3-0.2-0.6
			c0-0.1-0.1-0.2-0.1-0.2c-0.4,0.3-0.7,0.6-1.1,0.8c-0.4,0.2-0.8,0.3-1.3,0.3c-0.8,0-1.4-0.2-1.9-0.7c-0.5-0.4-0.7-1-0.7-1.6
			c0-0.4,0.1-0.8,0.3-1.2c0.2-0.3,0.5-0.6,0.9-0.8c0.4-0.2,0.9-0.3,1.6-0.5c1-0.2,1.6-0.3,2-0.5v-0.2c0-0.4-0.1-0.7-0.3-0.8
			c-0.2-0.2-0.6-0.3-1.1-0.3c-0.4,0-0.7,0.1-0.9,0.2C52.4,292.1,52.3,292.4,52.2,292.8z M54.9,294.4c-0.3,0.1-0.7,0.2-1.3,0.3
			s-0.9,0.2-1.1,0.4c-0.3,0.2-0.4,0.4-0.4,0.7c0,0.3,0.1,0.5,0.3,0.7c0.2,0.2,0.5,0.3,0.8,0.3c0.4,0,0.7-0.1,1.1-0.4
			c0.2-0.2,0.4-0.4,0.5-0.7c0.1-0.2,0.1-0.5,0.1-1V294.4z"/>
		<path class="st5" d="M60.9,298.2h-2.1v-7.8h1.9v1.1c0.3-0.5,0.6-0.9,0.9-1c0.3-0.2,0.6-0.2,0.9-0.2c0.5,0,0.9,0.1,1.4,0.4
			l-0.6,1.8c-0.3-0.2-0.7-0.3-1-0.3c-0.3,0-0.5,0.1-0.7,0.2c-0.2,0.2-0.4,0.4-0.5,0.9s-0.2,1.3-0.2,2.6V298.2z"/>
		<path class="st5" d="M64.6,298.7L67,299c0,0.3,0.1,0.5,0.3,0.6c0.2,0.1,0.5,0.2,0.9,0.2c0.5,0,0.9-0.1,1.2-0.2
			c0.2-0.1,0.3-0.3,0.4-0.5c0.1-0.2,0.1-0.5,0.1-0.9v-1.1c-0.6,0.8-1.4,1.3-2.3,1.3c-1,0-1.9-0.4-2.5-1.3c-0.5-0.7-0.7-1.6-0.7-2.6
			c0-1.3,0.3-2.3,0.9-3c0.6-0.7,1.4-1,2.3-1c1,0,1.8,0.4,2.4,1.3v-1.1h1.9v7c0,0.9-0.1,1.6-0.2,2.1s-0.4,0.8-0.6,1.1
			s-0.6,0.5-1.1,0.6c-0.5,0.1-1,0.2-1.7,0.2c-1.3,0-2.3-0.2-2.8-0.7c-0.6-0.5-0.8-1-0.8-1.7C64.6,298.8,64.6,298.8,64.6,298.7z
			 M66.4,294.1c0,0.8,0.2,1.4,0.5,1.8c0.3,0.4,0.7,0.6,1.2,0.6c0.5,0,0.9-0.2,1.3-0.6c0.3-0.4,0.5-1,0.5-1.7c0-0.8-0.2-1.4-0.5-1.8
			s-0.8-0.6-1.3-0.6c-0.5,0-0.9,0.2-1.2,0.6C66.6,292.7,66.4,293.3,66.4,294.1z"/>
		<path class="st5" d="M75.5,292.8l-1.9-0.3c0.2-0.8,0.6-1.3,1.1-1.7s1.3-0.5,2.3-0.5c0.9,0,1.6,0.1,2.1,0.3
			c0.4,0.2,0.8,0.5,0.9,0.8c0.2,0.3,0.3,0.9,0.3,1.8l0,2.4c0,0.7,0,1.2,0.1,1.5c0.1,0.3,0.2,0.7,0.4,1h-2c-0.1-0.1-0.1-0.3-0.2-0.6
			c0-0.1-0.1-0.2-0.1-0.2c-0.4,0.3-0.7,0.6-1.1,0.8c-0.4,0.2-0.8,0.3-1.3,0.3c-0.8,0-1.4-0.2-1.9-0.7c-0.5-0.4-0.7-1-0.7-1.6
			c0-0.4,0.1-0.8,0.3-1.2c0.2-0.3,0.5-0.6,0.9-0.8c0.4-0.2,0.9-0.3,1.6-0.5c1-0.2,1.6-0.3,2-0.5v-0.2c0-0.4-0.1-0.7-0.3-0.8
			c-0.2-0.2-0.6-0.3-1.1-0.3c-0.4,0-0.7,0.1-0.9,0.2C75.8,292.1,75.6,292.4,75.5,292.8z M78.2,294.4c-0.3,0.1-0.7,0.2-1.3,0.3
			s-0.9,0.2-1.1,0.4c-0.3,0.2-0.4,0.4-0.4,0.7c0,0.3,0.1,0.5,0.3,0.7c0.2,0.2,0.5,0.3,0.8,0.3c0.4,0,0.7-0.1,1.1-0.4
			c0.2-0.2,0.4-0.4,0.5-0.7c0.1-0.2,0.1-0.5,0.1-1V294.4z"/>
		<path class="st5" d="M84.3,298.2h-2.1v-7.8h1.9v1.1c0.3-0.5,0.6-0.9,0.9-1c0.3-0.2,0.6-0.2,0.9-0.2c0.5,0,0.9,0.1,1.4,0.4
			l-0.6,1.8c-0.3-0.2-0.7-0.3-1-0.3c-0.3,0-0.5,0.1-0.7,0.2c-0.2,0.2-0.4,0.4-0.5,0.9s-0.2,1.3-0.2,2.6V298.2z"/>
		<path class="st5" d="M92.3,298.2v-10.7h2.1v10.7H92.3z"/>
		<path class="st5" d="M98,292.8l-1.9-0.3c0.2-0.8,0.6-1.3,1.1-1.7s1.3-0.5,2.3-0.5c0.9,0,1.6,0.1,2.1,0.3c0.4,0.2,0.8,0.5,0.9,0.8
			c0.2,0.3,0.3,0.9,0.3,1.8l0,2.4c0,0.7,0,1.2,0.1,1.5c0.1,0.3,0.2,0.7,0.4,1h-2c-0.1-0.1-0.1-0.3-0.2-0.6c0-0.1-0.1-0.2-0.1-0.2
			c-0.4,0.3-0.7,0.6-1.1,0.8c-0.4,0.2-0.8,0.3-1.3,0.3c-0.8,0-1.4-0.2-1.9-0.7c-0.5-0.4-0.7-1-0.7-1.6c0-0.4,0.1-0.8,0.3-1.2
			c0.2-0.3,0.5-0.6,0.9-0.8c0.4-0.2,0.9-0.3,1.6-0.5c1-0.2,1.6-0.3,2-0.5v-0.2c0-0.4-0.1-0.7-0.3-0.8c-0.2-0.2-0.6-0.3-1.1-0.3
			c-0.4,0-0.7,0.1-0.9,0.2C98.3,292.1,98.1,292.4,98,292.8z M100.8,294.4c-0.3,0.1-0.7,0.2-1.3,0.3s-0.9,0.2-1.1,0.4
			c-0.3,0.2-0.4,0.4-0.4,0.7c0,0.3,0.1,0.5,0.3,0.7c0.2,0.2,0.5,0.3,0.8,0.3c0.4,0,0.7-0.1,1.1-0.4c0.2-0.2,0.4-0.4,0.5-0.7
			c0.1-0.2,0.1-0.5,0.1-1V294.4z"/>
		<path class="st5" d="M116.1,298.2h-1.9V297c-0.3,0.4-0.7,0.8-1.1,1c-0.4,0.2-0.9,0.3-1.3,0.3c-0.9,0-1.7-0.4-2.3-1.1
			c-0.6-0.7-1-1.7-1-3c0-1.3,0.3-2.3,0.9-3c0.6-0.7,1.4-1,2.4-1c0.9,0,1.6,0.4,2.3,1.1v-3.9h2.1V298.2z M110.6,294.1
			c0,0.8,0.1,1.4,0.3,1.8c0.3,0.5,0.8,0.8,1.4,0.8c0.5,0,0.9-0.2,1.2-0.6c0.3-0.4,0.5-1,0.5-1.8c0-0.9-0.2-1.5-0.5-1.9
			c-0.3-0.4-0.7-0.6-1.2-0.6c-0.5,0-0.9,0.2-1.2,0.6C110.8,292.7,110.6,293.3,110.6,294.1z"/>
		<path class="st5" d="M117.7,294.2c0-0.7,0.2-1.3,0.5-2c0.3-0.6,0.8-1.1,1.4-1.5c0.6-0.3,1.3-0.5,2.1-0.5c1.2,0,2.1,0.4,2.9,1.1
			c0.8,0.8,1.1,1.7,1.1,2.9c0,1.2-0.4,2.2-1.1,2.9c-0.8,0.8-1.7,1.2-2.9,1.2c-0.7,0-1.4-0.2-2-0.5c-0.6-0.3-1.1-0.8-1.5-1.4
			C117.8,295.8,117.7,295,117.7,294.2z M119.8,294.3c0,0.8,0.2,1.4,0.5,1.8s0.8,0.6,1.4,0.6s1-0.2,1.4-0.6c0.4-0.4,0.5-1,0.5-1.8
			c0-0.8-0.2-1.3-0.5-1.8c-0.4-0.4-0.8-0.6-1.4-0.6s-1,0.2-1.4,0.6S119.8,293.5,119.8,294.3z"/>
		<path class="st5" d="M134.1,292.7l-2,0.4c-0.1-0.4-0.2-0.7-0.5-0.9c-0.2-0.2-0.6-0.3-0.9-0.3c-0.5,0-0.9,0.2-1.2,0.5
			c-0.3,0.4-0.5,0.9-0.5,1.8c0,0.9,0.2,1.6,0.5,2c0.3,0.4,0.7,0.6,1.2,0.6c0.4,0,0.7-0.1,1-0.3c0.2-0.2,0.4-0.6,0.5-1.1l2,0.3
			c-0.2,0.9-0.6,1.6-1.2,2.1c-0.6,0.5-1.4,0.7-2.4,0.7c-1.1,0-2-0.4-2.7-1.1c-0.7-0.7-1-1.7-1-3c0-1.3,0.3-2.3,1-3
			c0.7-0.7,1.6-1.1,2.8-1.1c0.9,0,1.7,0.2,2.3,0.6C133.4,291.2,133.8,291.8,134.1,292.7z"/>
		<path class="st5" d="M140.8,298.2V297c-0.3,0.4-0.7,0.7-1.1,1c-0.5,0.2-0.9,0.4-1.5,0.4c-0.5,0-1-0.1-1.4-0.3
			c-0.4-0.2-0.7-0.6-0.9-1s-0.3-1-0.3-1.7v-4.9h2.1v3.6c0,1.1,0,1.8,0.1,2c0.1,0.2,0.2,0.4,0.4,0.6c0.2,0.1,0.5,0.2,0.8,0.2
			c0.4,0,0.7-0.1,0.9-0.3c0.3-0.2,0.5-0.4,0.6-0.7c0.1-0.3,0.2-1,0.2-2.1v-3.3h2.1v7.8H140.8z"/>
		<path class="st5" d="M144.7,290.4h1.9v1.1c0.7-0.8,1.5-1.2,2.4-1.2c0.5,0,0.9,0.1,1.3,0.3c0.4,0.2,0.7,0.5,0.9,0.9
			c0.3-0.4,0.7-0.7,1.1-0.9c0.4-0.2,0.8-0.3,1.3-0.3c0.6,0,1.1,0.1,1.5,0.3c0.4,0.2,0.7,0.6,0.9,1c0.1,0.3,0.2,0.9,0.2,1.6v5H154
			v-4.4c0-0.8-0.1-1.3-0.2-1.5c-0.2-0.3-0.5-0.4-0.9-0.4c-0.3,0-0.6,0.1-0.8,0.3s-0.4,0.4-0.5,0.8c-0.1,0.3-0.2,0.9-0.2,1.6v3.7
			h-2.1v-4.3c0-0.8,0-1.2-0.1-1.5c-0.1-0.2-0.2-0.4-0.3-0.5c-0.2-0.1-0.4-0.2-0.6-0.2c-0.3,0-0.6,0.1-0.9,0.3s-0.4,0.4-0.5,0.7
			c-0.1,0.3-0.2,0.9-0.2,1.6v3.8h-2.1V290.4z"/>
		<path class="st5" d="M162.7,295.7l2.1,0.3c-0.3,0.8-0.7,1.3-1.2,1.7c-0.6,0.4-1.3,0.6-2.1,0.6c-1.4,0-2.4-0.4-3-1.3
			c-0.5-0.7-0.8-1.6-0.8-2.7c0-1.3,0.3-2.3,1-3c0.7-0.7,1.5-1.1,2.6-1.1c1.2,0,2.1,0.4,2.7,1.1c0.7,0.8,1,1.9,1,3.5h-5.2
			c0,0.6,0.2,1.1,0.5,1.4c0.3,0.3,0.7,0.5,1.2,0.5c0.3,0,0.6-0.1,0.8-0.3S162.5,296.1,162.7,295.7z M162.8,293.6
			c0-0.6-0.2-1-0.5-1.4c-0.3-0.3-0.6-0.5-1.1-0.5c-0.5,0-0.8,0.2-1.1,0.5s-0.4,0.8-0.4,1.3H162.8z"/>
		<path class="st5" d="M173.6,298.2h-2.1v-4c0-0.8,0-1.4-0.1-1.6c-0.1-0.2-0.2-0.4-0.4-0.6c-0.2-0.1-0.4-0.2-0.7-0.2
			c-0.4,0-0.7,0.1-1,0.3s-0.5,0.5-0.6,0.8c-0.1,0.3-0.2,0.9-0.2,1.8v3.5h-2.1v-7.8h1.9v1.1c0.7-0.9,1.5-1.3,2.6-1.3
			c0.5,0,0.9,0.1,1.2,0.2c0.4,0.2,0.7,0.4,0.9,0.6c0.2,0.3,0.3,0.5,0.4,0.9c0.1,0.3,0.1,0.8,0.1,1.4V298.2z"/>
		<path class="st5" d="M179.2,290.4v1.6h-1.4v3.1c0,0.6,0,1,0,1.1c0,0.1,0.1,0.2,0.2,0.3c0.1,0.1,0.2,0.1,0.3,0.1
			c0.2,0,0.5-0.1,0.8-0.2l0.2,1.6c-0.5,0.2-1,0.3-1.6,0.3c-0.4,0-0.7-0.1-1-0.2c-0.3-0.1-0.5-0.3-0.7-0.5c-0.1-0.2-0.2-0.5-0.3-0.8
			c0-0.2-0.1-0.7-0.1-1.4V292h-0.9v-1.6h0.9v-1.5l2.1-1.2v2.7H179.2z"/>
		<path class="st5" d="M182.2,292.8l-1.9-0.3c0.2-0.8,0.6-1.3,1.1-1.7s1.3-0.5,2.3-0.5c0.9,0,1.6,0.1,2.1,0.3
			c0.4,0.2,0.8,0.5,0.9,0.8c0.2,0.3,0.3,0.9,0.3,1.8l0,2.4c0,0.7,0,1.2,0.1,1.5c0.1,0.3,0.2,0.7,0.4,1h-2c-0.1-0.1-0.1-0.3-0.2-0.6
			c0-0.1-0.1-0.2-0.1-0.2c-0.4,0.3-0.7,0.6-1.1,0.8c-0.4,0.2-0.8,0.3-1.3,0.3c-0.8,0-1.4-0.2-1.9-0.7c-0.5-0.4-0.7-1-0.7-1.6
			c0-0.4,0.1-0.8,0.3-1.2c0.2-0.3,0.5-0.6,0.9-0.8c0.4-0.2,0.9-0.3,1.6-0.5c1-0.2,1.6-0.3,2-0.5v-0.2c0-0.4-0.1-0.7-0.3-0.8
			c-0.2-0.2-0.6-0.3-1.1-0.3c-0.4,0-0.7,0.1-0.9,0.2C182.5,292.1,182.3,292.4,182.2,292.8z M184.9,294.4c-0.3,0.1-0.7,0.2-1.3,0.3
			s-0.9,0.2-1.1,0.4c-0.3,0.2-0.4,0.4-0.4,0.7c0,0.3,0.1,0.5,0.3,0.7c0.2,0.2,0.5,0.3,0.8,0.3c0.4,0,0.7-0.1,1.1-0.4
			c0.2-0.2,0.4-0.4,0.5-0.7c0.1-0.2,0.1-0.5,0.1-1V294.4z"/>
		<path class="st5" d="M195.8,292.7l-2,0.4c-0.1-0.4-0.2-0.7-0.5-0.9c-0.2-0.2-0.6-0.3-0.9-0.3c-0.5,0-0.9,0.2-1.2,0.5
			c-0.3,0.4-0.5,0.9-0.5,1.8c0,0.9,0.2,1.6,0.5,2c0.3,0.4,0.7,0.6,1.2,0.6c0.4,0,0.7-0.1,1-0.3c0.2-0.2,0.4-0.6,0.5-1.1l2,0.3
			c-0.2,0.9-0.6,1.6-1.2,2.1c-0.6,0.5-1.4,0.7-2.4,0.7c-1.1,0-2-0.4-2.7-1.1c-0.7-0.7-1-1.7-1-3c0-1.3,0.3-2.3,1-3
			c0.7-0.7,1.6-1.1,2.8-1.1c0.9,0,1.7,0.2,2.3,0.6C195.1,291.2,195.5,291.8,195.8,292.7z"/>
		<path class="st5" d="M197.3,289.3v-1.9h2.1v1.9H197.3z M197.3,298.2v-7.8h2.1v7.8H197.3z"/>
		<path class="st5" d="M201,294.2c0-0.7,0.2-1.3,0.5-2c0.3-0.6,0.8-1.1,1.4-1.5c0.6-0.3,1.3-0.5,2.1-0.5c1.2,0,2.1,0.4,2.9,1.1
			c0.8,0.8,1.1,1.7,1.1,2.9c0,1.2-0.4,2.2-1.1,2.9c-0.8,0.8-1.7,1.2-2.9,1.2c-0.7,0-1.4-0.2-2-0.5c-0.6-0.3-1.1-0.8-1.5-1.4
			C201.2,295.8,201,295,201,294.2z M203.1,294.3c0,0.8,0.2,1.4,0.5,1.8c0.4,0.4,0.8,0.6,1.4,0.6s1-0.2,1.4-0.6
			c0.4-0.4,0.5-1,0.5-1.8c0-0.8-0.2-1.3-0.5-1.8c-0.4-0.4-0.8-0.6-1.4-0.6s-1,0.2-1.4,0.6C203.3,292.9,203.1,293.5,203.1,294.3z
			 M204,289.4l1-2.2h2.3l-2,2.2H204z"/>
		<path class="st5" d="M217.7,298.2h-2.1v-4c0-0.8,0-1.4-0.1-1.6c-0.1-0.2-0.2-0.4-0.4-0.6c-0.2-0.1-0.4-0.2-0.7-0.2
			c-0.4,0-0.7,0.1-1,0.3s-0.5,0.5-0.6,0.8c-0.1,0.3-0.2,0.9-0.2,1.8v3.5h-2.1v-7.8h1.9v1.1c0.7-0.9,1.5-1.3,2.6-1.3
			c0.5,0,0.9,0.1,1.2,0.2c0.4,0.2,0.7,0.4,0.9,0.6c0.2,0.3,0.3,0.5,0.4,0.9c0.1,0.3,0.1,0.8,0.1,1.4V298.2z"/>
		<path class="st5" d="M219.8,298.2v-2.1h2.1v2.1H219.8z"/>
	</g>
</g>
<circle class="st5" cx="32" cy="292.8" r="1.8"/>
<circle class="st5" cx="32" cy="238.6" r="1.8"/>
</svg>
