<?xml version="1.0" encoding="utf-8"?>
<!-- Generator: Adobe Illustrator 27.2.0, SVG Export Plug-In . SVG Version: 6.00 Build 0)  -->
<svg version="1.1" id="Capa_1" xmlns="http://www.w3.org/2000/svg" xmlns:xlink="http://www.w3.org/1999/xlink" x="0px" y="0px"
	 viewBox="0 0 250.2 438.8" style="enable-background:new 0 0 250.2 438.8;" xml:space="preserve">
<style type="text/css">
	.st0{fill:#FFFFFF;}
	.st1{fill:#BD8ABE;}
	.st2{fill:#F89E41;}
	.st3{fill:#4BBCB6;}
	.st4{fill:#ED8242;}
	.st5{font-family:'Arial-BoldMT';}
	.st6{font-size:21.7407px;}
	.st7{font-size:16.8884px;}
	.st8{fill:#0B75A4;}
	.st9{fill:none;stroke:#0B75A4;stroke-width:2;stroke-miterlimit:10;}
	.st10{fill:none;}
	.st11{font-size:15px;}
	.st12{fill:#CC405E;}
</style>
<g>
	<image style="overflow:visible;" width="282" height="471" xlink:href="C9A82BF3.png"  transform="matrix(1 0 0 1 -18 -14.17)">
	</image>
</g>
<path class="st0" d="M206.1,418.5H44.1c-13.1,0-23.8-10.7-23.8-23.8V44.1C20.3,31,31,20.3,44.1,20.3h161.9
	c13.1,0,23.8,10.7,23.8,23.8v350.5C229.9,407.8,219.2,418.5,206.1,418.5z"/>
<rect x="20.3" y="83.4" class="st3" width="209.5" height="42.4"/>
<g>
	<g>
		<path class="st3" d="M136.8,183.7c0.5,0,1,0.1,1.5,0.2v-5.1l0,0v-13.6h-6.8c-0.6,0-1-0.4-1-1v-7.6H112c-2.2,0-4,1.8-4,4v28.4
			c0,2.2,1.8,4,4,4h17.6c-1-4,1.5-8.1,5.5-9.1C135.6,183.8,136.2,183.8,136.8,183.7L136.8,183.7z M115.2,169.7h16
			c0.5,0,0.9,0.4,0.9,0.9s-0.4,0.9-0.9,0.9h-16c-0.5,0-0.9-0.4-0.9-0.9S114.7,169.7,115.2,169.7z M115.2,173.5h16
			c0.5,0,0.9,0.4,0.9,0.9c0,0.5-0.4,0.9-0.9,0.9h-16c-0.5,0-0.9-0.4-0.9-0.9C114.3,173.9,114.7,173.5,115.2,173.5z M115.2,177.3h16
			c0.5,0,0.9,0.4,0.9,0.9s-0.4,0.9-0.9,0.9h-16c-0.5,0-0.9-0.4-0.9-0.9S114.7,177.3,115.2,177.3z M115.2,182.8
			c-0.5,0-0.9-0.4-0.9-0.9s0.4-0.9,0.9-0.9h16c0.5,0,0.9,0.4,0.9,0.9s-0.4,0.9-0.9,0.9H115.2z"/>
		<path class="st3" d="M138,163.3l-5.5-5.8v5.8H138z"/>
		<path class="st3" d="M136.8,185.6c-3.1,0-5.6,2.5-5.7,5.6c0,3.1,2.5,5.6,5.6,5.7c3.1,0,5.6-2.5,5.7-5.6c0,0,0,0,0,0
			C142.5,188.2,139.9,185.7,136.8,185.6z M136.5,194.8L136.5,194.8l-3.3-4.1l1.2-1l2.1,2.1l3.8-3.4l1,1.1L136.5,194.8z"/>
	</g>
</g>
<circle class="st3" cx="125.1" cy="50.4" r="14.8"/>
<text transform="matrix(1 0 0 1 119.0596 58.5713)" class="st0 st5 st6">1</text>
<text transform="matrix(1 0 0 1 35.4971 110.6337)" class="st0 st5 st7">INSCRIPCIÓN ONLINE</text>
<g id="Capa_1-2">
	<path class="st8" d="M121.1,382c1.1,0.9,2.3,0.1,3.5,0.5c-0.2,0.4-0.4,0.7-0.7,0.9c-1.1,1.1-2.4,1.4-3.9,1.4
		c-0.2,0-0.4-0.3-0.4-0.4c0-0.5-0.3-0.5-0.6-0.6c-0.7-0.2-1.4-0.3-2-0.6c-0.8-0.5-1.7-0.6-2.6-0.6c-0.4,0-0.8,0-1.2,0
		c0.1-0.6,0.1-1.2,0.2-1.7c0.1-0.6,0-1.1-0.2-1.7c-0.3-0.8-0.4-1.6-0.4-2.4c0-0.6-0.1-1-0.9-0.8c0.1-0.6,0.2-1,0.3-1.5
		c0.3-1.3,1.2-2.2,2.2-2.9c0.2-0.1,0.5-0.1,0.7-0.1c0,0.2,0,0.4,0,0.6c0,0.6-0.1,1.2-0.2,1.8c-0.1,0.4-0.1,0.8-0.4,1.1
		c-0.6,0.9,0.2,3.2,1.2,3.4c0.1,0,0.3,0,0.4-0.1c2.5-2,5-4,7.5-6c-0.3-0.3-0.6-0.6-0.9-0.9c-0.5,0.3-0.9,1-1.6,0.4
		c-0.5-0.5,0-1,0.4-1.4c-0.4-0.4-0.6-0.7-1.3-0.6c-1.1,0.2-2.1-0.6-2.3-1.7c-0.2-0.9,0.4-1.8,1.3-2c1.2-0.4,2.7,0.7,2.6,2
		c-0.1,0.8,0.4,1,0.8,1.3c0.4-0.3,0.9-0.9,1.4-0.3c0.4,0.4,0.2,0.9-0.2,1.3c1.3,1.2,0.9,1.2,2.3-0.1c-0.3-0.4-0.6-0.9-0.1-1.3
		c0.5-0.5,1,0,1.4,0.4c0.4-0.4,0.9-0.5,0.8-1.3c-0.1-1,0.9-2,1.9-2c1-0.1,1.8,0.5,2,1.5c0.2,1.2-0.9,2.5-2.3,2.3
		c-0.6-0.1-0.9,0.1-1.3,0.6c0.3,0.4,0.9,0.9,0.3,1.5c-0.6,0.6-1-0.1-1.5-0.4c-0.3,0.3-0.7,0.6-1.1,1c1.3,1,2.5,2,3.7,3
		c1.2,1,2.5,2,3.7,3c0.5,0.4,0.8,0.3,1.2-0.1c0.7-0.7,0.9-1.6,0.9-2.6c0-0.1,0-0.2-0.1-0.2c-0.7-0.6-0.5-1.4-0.6-2.1
		c0-0.4-0.1-0.7-0.1-1.1c0-0.2,0-0.4,0-0.7c0.2,0,0.5,0,0.7,0.2c1,0.7,1.8,1.6,2.2,2.8c0.1,0.5,0.2,1,0.3,1.5
		c-0.9,0.3-0.8,0.3-0.9,1.1c-0.1,0.9-0.5,1.8-0.6,2.7c-0.1,0.7,0,1.4,0.1,2c0,0.3,0.1,0.6,0.1,0.9c-0.8,0-1.5,0-2.2,0
		c-0.4,0-0.8,0.1-1.1,0.3c-0.8,0.5-1.7,0.9-2.6,0.9c-0.4,0-0.5,0.1-0.5,0.5c0,0.2-0.3,0.5-0.4,0.5c-1.5,0-3-0.3-4-1.5
		c-0.2-0.2-0.3-0.5-0.5-0.8c1.1-0.5,2.4,0.3,3.4-0.5c0.6,0.8,1.2,0.5,1.9,0.2c0.5-0.2,0.9-0.5,1.3-0.9c0.6-0.5,0.6-0.8,0-1.3
		c-1.3-1.2-2.7-2.4-4-3.6c-1.1-1-2.1-2-3.2-3c-1.8,1.7-3.6,3.3-5.4,5c-0.6,0.5-1.2,1.1-1.8,1.6c-0.5,0.5-0.5,0.8,0,1.2
		c0.5,0.4,1.1,0.8,1.7,1.1C120.1,382.6,120.8,382.9,121.1,382L121.1,382z M130.4,368.6c-0.1,0.1-0.2,0.2-0.3,0.3
		c0.8-0.2,1.2-0.6,1.1-1.1c-0.1-0.5-0.4-0.7-0.8-0.8c-0.5-0.1-0.9,0.3-1.1,1.1c0.1-0.1,0.2-0.2,0.4-0.4
		C129.9,368,130.1,368.3,130.4,368.6L130.4,368.6z M120,369c0.3-0.3,0.6-0.6,0.9-0.9c-0.3-0.7-0.6-1-1.1-0.9
		c-0.4,0.1-0.7,0.3-0.7,0.8C118.9,368.4,119.2,368.7,120,369L120,369z"/>
</g>
<path class="st9" d="M206.1,418.5H44.1c-13.1,0-23.8-10.7-23.8-23.8V44.1C20.3,31,31,20.3,44.1,20.3h161.9
	c13.1,0,23.8,10.7,23.8,23.8v350.5C229.9,407.8,219.2,418.5,206.1,418.5z"/>
<g>
	<rect x="38.7" y="233.4" class="st10" width="191" height="96.8"/>
	<text transform="matrix(1 0 0 1 38.7053 244.1548)"><tspan x="0" y="0" class="st8 st5 st11">Completar el formulario</tspan><tspan x="0" y="18" class="st8 st5 st11">de inscripción online.</tspan><tspan x="0" y="54" class="st8 st5 st11">Cargar la documentación.</tspan></text>
</g>
<circle class="st8" cx="32" cy="292.8" r="1.8"/>
<circle class="st8" cx="32" cy="238.6" r="1.8"/>
</svg>
