<?xml version="1.0" encoding="utf-8"?>
<!-- Generator: Adobe Illustrator 27.2.0, SVG Export Plug-In . SVG Version: 6.00 Build 0)  -->
<svg version="1.1" id="Capa_1" xmlns="http://www.w3.org/2000/svg" xmlns:xlink="http://www.w3.org/1999/xlink" x="0px" y="0px"
	 viewBox="0 0 423.4 242.4" style="enable-background:new 0 0 423.4 242.4;" xml:space="preserve">
<style type="text/css">
	.st0{fill:#0B75A4;stroke:#FFFFFF;stroke-width:2;stroke-miterlimit:10;}
	.st1{fill:#FFFFFF;}
</style>
<g>
	
		<image style="overflow:visible;" width="2272" height="1487" xlink:href="A71EEA0F.png"  transform="matrix(0.24 0 0 0.24 -60.8012 -57.263)">
	</image>
</g>
<path class="st0" d="M410.8,40.2v161.9c0,13.1-10.7,23.8-23.8,23.8H36.5c-13.1,0-23.8-10.7-23.8-23.8V40.2
	c0-13.1,10.7-23.8,23.8-23.8H387C400.1,16.4,410.8,27.1,410.8,40.2z"/>
<g>
	<g>
		<path class="st1" d="M125.2,83.7v-10h7.4v1.7h-5.4v2.2h5v1.7h-5V82h5.6v1.7H125.2z"/>
		<path class="st1" d="M133.9,81.7l1.9-0.3c0.1,0.4,0.2,0.7,0.5,0.9s0.6,0.3,1.1,0.3c0.5,0,0.9-0.1,1.1-0.3c0.2-0.1,0.3-0.3,0.3-0.5
			c0-0.1,0-0.3-0.1-0.4c-0.1-0.1-0.3-0.2-0.6-0.3c-1.5-0.3-2.5-0.7-2.9-0.9c-0.6-0.4-0.9-0.9-0.9-1.6c0-0.6,0.2-1.2,0.7-1.6
			s1.3-0.6,2.3-0.6c1,0,1.7,0.2,2.2,0.5s0.8,0.8,1,1.4l-1.8,0.3c-0.1-0.3-0.2-0.5-0.4-0.6s-0.5-0.2-0.9-0.2c-0.5,0-0.9,0.1-1.1,0.2
			c-0.1,0.1-0.2,0.2-0.2,0.4c0,0.1,0.1,0.3,0.2,0.3c0.2,0.1,0.8,0.3,1.8,0.5s1.7,0.5,2.1,0.9c0.4,0.3,0.6,0.8,0.6,1.4
			c0,0.7-0.3,1.2-0.8,1.7s-1.4,0.7-2.5,0.7c-1,0-1.8-0.2-2.3-0.6S134,82.4,133.9,81.7z"/>
		<path class="st1" d="M145.7,76.5V78h-1.3v2.9c0,0.6,0,0.9,0,1s0.1,0.2,0.2,0.2s0.2,0.1,0.3,0.1c0.2,0,0.4-0.1,0.8-0.2l0.2,1.5
			c-0.4,0.2-1,0.3-1.5,0.3c-0.3,0-0.7-0.1-0.9-0.2s-0.5-0.3-0.6-0.5s-0.2-0.4-0.3-0.7c0-0.2-0.1-0.7-0.1-1.4V78h-0.9v-1.5h0.9V75
			l1.9-1.1v2.6H145.7z"/>
		<path class="st1" d="M148.4,78.7l-1.7-0.3c0.2-0.7,0.5-1.2,1-1.6s1.2-0.5,2.1-0.5c0.9,0,1.5,0.1,1.9,0.3s0.7,0.5,0.9,0.8
			s0.3,0.9,0.3,1.7l0,2.2c0,0.6,0,1.1,0.1,1.4s0.2,0.6,0.3,1h-1.9c-0.1-0.1-0.1-0.3-0.2-0.6c0-0.1-0.1-0.2-0.1-0.2
			c-0.3,0.3-0.7,0.6-1.1,0.7s-0.8,0.2-1.2,0.2c-0.7,0-1.3-0.2-1.8-0.6s-0.6-0.9-0.6-1.5c0-0.4,0.1-0.8,0.3-1.1s0.5-0.6,0.8-0.7
			s0.9-0.3,1.5-0.4c0.9-0.2,1.5-0.3,1.9-0.5v-0.2c0-0.4-0.1-0.6-0.3-0.8s-0.5-0.2-1-0.2c-0.3,0-0.6,0.1-0.8,0.2
			S148.6,78.4,148.4,78.7z M151,80.3c-0.2,0.1-0.6,0.2-1.2,0.3s-0.9,0.2-1,0.3c-0.3,0.2-0.4,0.4-0.4,0.7c0,0.3,0.1,0.5,0.3,0.7
			s0.5,0.3,0.8,0.3c0.3,0,0.7-0.1,1-0.3c0.2-0.2,0.4-0.4,0.5-0.6c0.1-0.2,0.1-0.5,0.1-0.9V80.3z"/>
		<path class="st1" d="M154.6,76.5h1.8v1c0.6-0.8,1.4-1.2,2.3-1.2c0.5,0,0.9,0.1,1.2,0.3s0.6,0.5,0.8,0.9c0.3-0.4,0.7-0.7,1-0.9
			s0.8-0.3,1.2-0.3c0.5,0,1,0.1,1.4,0.3s0.6,0.5,0.8,1c0.1,0.3,0.2,0.8,0.2,1.5v4.6h-1.9v-4.1c0-0.7-0.1-1.2-0.2-1.4
			c-0.2-0.3-0.5-0.4-0.8-0.4c-0.3,0-0.5,0.1-0.8,0.2s-0.4,0.4-0.5,0.7s-0.2,0.8-0.2,1.5v3.5H159v-4c0-0.7,0-1.2-0.1-1.4
			s-0.2-0.4-0.3-0.5s-0.3-0.2-0.6-0.2c-0.3,0-0.6,0.1-0.8,0.2s-0.4,0.4-0.5,0.7s-0.2,0.8-0.2,1.5v3.5h-1.9V76.5z"/>
		<path class="st1" d="M166.8,80c0-0.6,0.2-1.3,0.5-1.9s0.8-1.1,1.3-1.4s1.2-0.5,1.9-0.5c1.1,0,2,0.4,2.7,1.1s1.1,1.6,1.1,2.7
			c0,1.1-0.4,2-1.1,2.7s-1.6,1.1-2.7,1.1c-0.7,0-1.3-0.2-1.9-0.5s-1.1-0.7-1.4-1.3S166.8,80.8,166.8,80z M168.8,80.1
			c0,0.7,0.2,1.3,0.5,1.7s0.8,0.6,1.3,0.6s0.9-0.2,1.3-0.6s0.5-0.9,0.5-1.7c0-0.7-0.2-1.3-0.5-1.6s-0.8-0.6-1.3-0.6
			s-0.9,0.2-1.3,0.6S168.8,79.4,168.8,80.1z"/>
		<path class="st1" d="M175.1,81.7l1.9-0.3c0.1,0.4,0.2,0.7,0.5,0.9s0.6,0.3,1.1,0.3c0.5,0,0.9-0.1,1.1-0.3c0.2-0.1,0.3-0.3,0.3-0.5
			c0-0.1,0-0.3-0.1-0.4c-0.1-0.1-0.3-0.2-0.6-0.3c-1.5-0.3-2.5-0.7-2.9-0.9c-0.6-0.4-0.9-0.9-0.9-1.6c0-0.6,0.2-1.2,0.7-1.6
			s1.3-0.6,2.3-0.6c1,0,1.7,0.2,2.2,0.5s0.8,0.8,1,1.4l-1.8,0.3c-0.1-0.3-0.2-0.5-0.4-0.6s-0.5-0.2-0.9-0.2c-0.5,0-0.9,0.1-1.1,0.2
			c-0.1,0.1-0.2,0.2-0.2,0.4c0,0.1,0.1,0.3,0.2,0.3c0.2,0.1,0.8,0.3,1.8,0.5s1.7,0.5,2.1,0.9c0.4,0.3,0.6,0.8,0.6,1.4
			c0,0.7-0.3,1.2-0.8,1.7s-1.4,0.7-2.5,0.7c-1,0-1.8-0.2-2.3-0.6S175.3,82.4,175.1,81.7z"/>
		<path class="st1" d="M190.8,76.5V78h-1.3v2.9c0,0.6,0,0.9,0,1s0.1,0.2,0.2,0.2s0.2,0.1,0.3,0.1c0.2,0,0.4-0.1,0.8-0.2l0.2,1.5
			c-0.4,0.2-1,0.3-1.5,0.3c-0.3,0-0.7-0.1-0.9-0.2s-0.5-0.3-0.6-0.5s-0.2-0.4-0.3-0.7c0-0.2-0.1-0.7-0.1-1.4V78h-0.9v-1.5h0.9V75
			l1.9-1.1v2.6H190.8z"/>
		<path class="st1" d="M194,83.7H192v-7.3h1.8v1c0.3-0.5,0.6-0.8,0.8-1s0.5-0.2,0.8-0.2c0.4,0,0.9,0.1,1.3,0.4l-0.6,1.7
			c-0.3-0.2-0.6-0.3-0.9-0.3c-0.3,0-0.5,0.1-0.7,0.2s-0.3,0.4-0.4,0.8s-0.2,1.2-0.2,2.4V83.7z"/>
		<path class="st1" d="M199,78.7l-1.7-0.3c0.2-0.7,0.5-1.2,1-1.6s1.2-0.5,2.1-0.5c0.9,0,1.5,0.1,1.9,0.3s0.7,0.5,0.9,0.8
			s0.3,0.9,0.3,1.7l0,2.2c0,0.6,0,1.1,0.1,1.4s0.2,0.6,0.3,1H202c-0.1-0.1-0.1-0.3-0.2-0.6c0-0.1-0.1-0.2-0.1-0.2
			c-0.3,0.3-0.7,0.6-1.1,0.7s-0.8,0.2-1.2,0.2c-0.7,0-1.3-0.2-1.8-0.6s-0.6-0.9-0.6-1.5c0-0.4,0.1-0.8,0.3-1.1s0.5-0.6,0.8-0.7
			s0.9-0.3,1.5-0.4c0.9-0.2,1.5-0.3,1.9-0.5v-0.2c0-0.4-0.1-0.6-0.3-0.8s-0.5-0.2-1-0.2c-0.3,0-0.6,0.1-0.8,0.2S199.1,78.4,199,78.7
			z M201.6,80.3c-0.2,0.1-0.6,0.2-1.2,0.3s-0.9,0.2-1,0.3c-0.3,0.2-0.4,0.4-0.4,0.7c0,0.3,0.1,0.5,0.3,0.7s0.5,0.3,0.8,0.3
			c0.3,0,0.7-0.1,1-0.3c0.2-0.2,0.4-0.4,0.5-0.6c0.1-0.2,0.1-0.5,0.1-0.9V80.3z"/>
		<path class="st1" d="M205.3,83.7v-10h1.9v3.6c0.6-0.7,1.3-1,2.1-1c0.9,0,1.6,0.3,2.2,1s0.9,1.6,0.9,2.8c0,1.2-0.3,2.2-0.9,2.9
			s-1.3,1-2.1,1c-0.4,0-0.8-0.1-1.2-0.3s-0.8-0.5-1-0.9v1.1H205.3z M207.2,79.9c0,0.8,0.1,1.3,0.4,1.7c0.3,0.5,0.8,0.8,1.3,0.8
			c0.4,0,0.8-0.2,1.1-0.5s0.4-0.9,0.4-1.7c0-0.8-0.2-1.4-0.5-1.8s-0.7-0.6-1.2-0.6c-0.5,0-0.8,0.2-1.1,0.5S207.2,79.2,207.2,79.9z"
			/>
		<path class="st1" d="M215.3,78.7l-1.7-0.3c0.2-0.7,0.5-1.2,1-1.6s1.2-0.5,2.1-0.5c0.9,0,1.5,0.1,1.9,0.3c0.4,0.2,0.7,0.5,0.9,0.8
			c0.2,0.3,0.3,0.9,0.3,1.7l0,2.2c0,0.6,0,1.1,0.1,1.4c0.1,0.3,0.2,0.6,0.3,1h-1.9c-0.1-0.1-0.1-0.3-0.2-0.6c0-0.1-0.1-0.2-0.1-0.2
			c-0.3,0.3-0.7,0.6-1.1,0.7c-0.4,0.2-0.8,0.2-1.2,0.2c-0.7,0-1.3-0.2-1.8-0.6s-0.6-0.9-0.6-1.5c0-0.4,0.1-0.8,0.3-1.1
			c0.2-0.3,0.5-0.6,0.8-0.7s0.9-0.3,1.5-0.4c0.9-0.2,1.5-0.3,1.9-0.5v-0.2c0-0.4-0.1-0.6-0.3-0.8c-0.2-0.2-0.5-0.2-1-0.2
			c-0.3,0-0.6,0.1-0.8,0.2S215.5,78.4,215.3,78.7z M217.9,80.3c-0.2,0.1-0.6,0.2-1.2,0.3s-0.9,0.2-1,0.3c-0.2,0.2-0.4,0.4-0.4,0.7
			c0,0.3,0.1,0.5,0.3,0.7c0.2,0.2,0.5,0.3,0.8,0.3c0.3,0,0.7-0.1,1-0.3c0.2-0.2,0.4-0.4,0.5-0.6c0-0.2,0.1-0.5,0.1-0.9V80.3z"/>
		<path class="st1" d="M223.6,76.5v7c0,0.9-0.1,1.6-0.2,2c-0.1,0.4-0.4,0.7-0.7,0.9c-0.3,0.2-0.8,0.3-1.3,0.3c-0.2,0-0.4,0-0.6-0.1
			c-0.2,0-0.5-0.1-0.7-0.2l0.3-1.6c0.1,0,0.2,0,0.3,0c0.1,0,0.2,0,0.2,0c0.2,0,0.4,0,0.5-0.1c0.1-0.1,0.2-0.2,0.2-0.3
			s0.1-0.5,0.1-1.1v-6.9H223.6z M221.7,75.5v-1.8h1.9v1.8H221.7z"/>
		<path class="st1" d="M227,78.7l-1.7-0.3c0.2-0.7,0.5-1.2,1-1.6s1.2-0.5,2.1-0.5c0.9,0,1.5,0.1,1.9,0.3s0.7,0.5,0.9,0.8
			c0.2,0.3,0.3,0.9,0.3,1.7l0,2.2c0,0.6,0,1.1,0.1,1.4c0.1,0.3,0.2,0.6,0.3,1H230c0-0.1-0.1-0.3-0.2-0.6c0-0.1-0.1-0.2-0.1-0.2
			c-0.3,0.3-0.7,0.6-1.1,0.7s-0.8,0.2-1.2,0.2c-0.7,0-1.3-0.2-1.8-0.6c-0.4-0.4-0.6-0.9-0.6-1.5c0-0.4,0.1-0.8,0.3-1.1
			s0.5-0.6,0.8-0.7c0.4-0.2,0.9-0.3,1.5-0.4c0.9-0.2,1.5-0.3,1.9-0.5v-0.2c0-0.4-0.1-0.6-0.3-0.8s-0.5-0.2-1-0.2
			c-0.3,0-0.6,0.1-0.8,0.2S227.1,78.4,227,78.7z M229.6,80.3c-0.2,0.1-0.6,0.2-1.2,0.3s-0.9,0.2-1,0.3c-0.3,0.2-0.4,0.4-0.4,0.7
			c0,0.3,0.1,0.5,0.3,0.7s0.5,0.3,0.8,0.3c0.3,0,0.7-0.1,1-0.3c0.2-0.2,0.4-0.4,0.5-0.6c0-0.2,0.1-0.5,0.1-0.9V80.3z"/>
		<path class="st1" d="M240,83.7h-1.9V80c0-0.8,0-1.3-0.1-1.5s-0.2-0.4-0.4-0.5c-0.2-0.1-0.4-0.2-0.7-0.2c-0.3,0-0.6,0.1-0.9,0.3
			s-0.4,0.4-0.5,0.7c-0.1,0.3-0.1,0.9-0.1,1.7v3.3h-1.9v-7.3h1.8v1.1c0.6-0.8,1.4-1.2,2.4-1.2c0.4,0,0.8,0.1,1.2,0.2
			s0.6,0.3,0.8,0.6c0.2,0.2,0.3,0.5,0.4,0.8c0.1,0.3,0.1,0.7,0.1,1.3V83.7z"/>
		<path class="st1" d="M248.6,83.7h-1.8v-1.1c-0.3,0.4-0.6,0.7-1,0.9c-0.4,0.2-0.8,0.3-1.2,0.3c-0.8,0-1.5-0.3-2.1-1
			c-0.6-0.7-0.9-1.6-0.9-2.8c0-1.2,0.3-2.2,0.9-2.8s1.3-1,2.2-1c0.8,0,1.5,0.3,2.1,1v-3.6h1.9V83.7z M243.5,79.9
			c0,0.8,0.1,1.3,0.3,1.7c0.3,0.5,0.7,0.8,1.3,0.8c0.4,0,0.8-0.2,1.1-0.6s0.5-0.9,0.5-1.7c0-0.8-0.2-1.4-0.5-1.8s-0.7-0.6-1.2-0.6
			c-0.5,0-0.8,0.2-1.1,0.5C243.6,78.7,243.5,79.2,243.5,79.9z"/>
		<path class="st1" d="M250,80c0-0.6,0.2-1.3,0.5-1.9s0.8-1.1,1.3-1.4c0.6-0.3,1.2-0.5,1.9-0.5c1.1,0,2,0.4,2.7,1.1s1.1,1.6,1.1,2.7
			c0,1.1-0.4,2-1.1,2.7c-0.7,0.7-1.6,1.1-2.7,1.1c-0.7,0-1.3-0.2-1.9-0.5c-0.6-0.3-1.1-0.7-1.4-1.3S250,80.8,250,80z M252,80.1
			c0,0.7,0.2,1.3,0.5,1.7s0.8,0.6,1.3,0.6s0.9-0.2,1.3-0.6c0.3-0.4,0.5-0.9,0.5-1.7c0-0.7-0.2-1.3-0.5-1.6c-0.3-0.4-0.8-0.6-1.3-0.6
			s-0.9,0.2-1.3,0.6S252,79.4,252,80.1z"/>
		<path class="st1" d="M267.1,81.4l1.9,0.3c-0.2,0.7-0.6,1.2-1.2,1.6c-0.5,0.4-1.2,0.6-2,0.6c-1.3,0-2.2-0.4-2.8-1.2
			c-0.5-0.7-0.7-1.5-0.7-2.5c0-1.2,0.3-2.1,0.9-2.8s1.4-1,2.4-1c1.1,0,1.9,0.4,2.6,1.1s0.9,1.8,0.9,3.3h-4.8c0,0.6,0.2,1,0.5,1.3
			s0.7,0.5,1.1,0.5c0.3,0,0.6-0.1,0.8-0.2S267,81.8,267.1,81.4z M267.2,79.5c0-0.6-0.2-1-0.4-1.3s-0.6-0.4-1-0.4
			c-0.4,0-0.8,0.2-1,0.5s-0.4,0.7-0.4,1.2H267.2z"/>
		<path class="st1" d="M277.3,83.7h-1.9V80c0-0.8,0-1.3-0.1-1.5s-0.2-0.4-0.4-0.5c-0.2-0.1-0.4-0.2-0.7-0.2c-0.3,0-0.6,0.1-0.9,0.3
			s-0.4,0.4-0.5,0.7c-0.1,0.3-0.1,0.9-0.1,1.7v3.3h-1.9v-7.3h1.8v1.1c0.6-0.8,1.4-1.2,2.4-1.2c0.4,0,0.8,0.1,1.2,0.2
			s0.6,0.3,0.8,0.6c0.2,0.2,0.3,0.5,0.4,0.8c0.1,0.3,0.1,0.7,0.1,1.3V83.7z"/>
		<path class="st1" d="M287.9,83.7v-1.1c-0.3,0.4-0.6,0.7-1,0.9c-0.4,0.2-0.9,0.3-1.4,0.3c-0.5,0-0.9-0.1-1.3-0.3s-0.7-0.5-0.8-0.9
			s-0.3-0.9-0.3-1.6v-4.6h1.9v3.3c0,1,0,1.6,0.1,1.9c0.1,0.2,0.2,0.4,0.4,0.5s0.4,0.2,0.7,0.2c0.3,0,0.6-0.1,0.9-0.3
			s0.4-0.4,0.5-0.7s0.1-0.9,0.1-2v-3.1h1.9v7.3H287.9z"/>
		<path class="st1" d="M298.3,83.7h-1.9V80c0-0.8,0-1.3-0.1-1.5s-0.2-0.4-0.4-0.5c-0.2-0.1-0.4-0.2-0.7-0.2c-0.3,0-0.6,0.1-0.9,0.3
			s-0.4,0.4-0.5,0.7c-0.1,0.3-0.1,0.9-0.1,1.7v3.3h-1.9v-7.3h1.8v1.1c0.6-0.8,1.4-1.2,2.4-1.2c0.4,0,0.8,0.1,1.2,0.2
			s0.6,0.3,0.8,0.6c0.2,0.2,0.3,0.5,0.4,0.8c0.1,0.3,0.1,0.7,0.1,1.3V83.7z"/>
		<path class="st1" d="M87.8,97.7h-1.9V94c0-0.8,0-1.3-0.1-1.5s-0.2-0.4-0.4-0.5s-0.4-0.2-0.7-0.2c-0.3,0-0.6,0.1-0.9,0.3
			s-0.4,0.4-0.5,0.7s-0.1,0.9-0.1,1.7v3.3h-1.9v-7.3H83v1.1c0.6-0.8,1.4-1.2,2.4-1.2c0.4,0,0.8,0.1,1.2,0.2s0.6,0.3,0.8,0.6
			s0.3,0.5,0.4,0.8s0.1,0.7,0.1,1.3V97.7z"/>
		<path class="st1" d="M94.6,97.7v-1.1c-0.3,0.4-0.6,0.7-1,0.9s-0.9,0.3-1.4,0.3c-0.5,0-0.9-0.1-1.3-0.3s-0.7-0.5-0.8-0.9
			s-0.3-0.9-0.3-1.6v-4.6h1.9v3.3c0,1,0,1.6,0.1,1.9s0.2,0.4,0.4,0.5s0.4,0.2,0.7,0.2c0.3,0,0.6-0.1,0.9-0.3s0.4-0.4,0.5-0.7
			s0.1-0.9,0.1-2v-3.1h1.9v7.3H94.6z"/>
		<path class="st1" d="M102.5,95.4l1.9,0.3c-0.2,0.7-0.6,1.2-1.2,1.6s-1.2,0.6-2,0.6c-1.3,0-2.2-0.4-2.8-1.2
			c-0.5-0.7-0.7-1.5-0.7-2.5c0-1.2,0.3-2.1,0.9-2.8s1.4-1,2.4-1c1.1,0,1.9,0.4,2.6,1.1s0.9,1.8,0.9,3.3h-4.8c0,0.6,0.2,1,0.5,1.3
			s0.7,0.5,1.1,0.5c0.3,0,0.6-0.1,0.8-0.2S102.4,95.8,102.5,95.4z M102.7,93.5c0-0.6-0.2-1-0.4-1.3s-0.6-0.4-1-0.4
			c-0.4,0-0.8,0.2-1,0.5s-0.4,0.7-0.4,1.2H102.7z"/>
		<path class="st1" d="M108.1,97.7l-2.9-7.3h2l1.4,3.7l0.4,1.2c0.1-0.3,0.2-0.5,0.2-0.6c0.1-0.2,0.1-0.4,0.2-0.6l1.4-3.7h2l-2.9,7.3
			H108.1z"/>
		<path class="st1" d="M113.5,94c0-0.6,0.2-1.3,0.5-1.9s0.8-1.1,1.3-1.4s1.2-0.5,1.9-0.5c1.1,0,2,0.4,2.7,1.1s1.1,1.6,1.1,2.7
			c0,1.1-0.4,2-1.1,2.7s-1.6,1.1-2.7,1.1c-0.7,0-1.3-0.2-1.9-0.5s-1.1-0.7-1.4-1.3S113.5,94.8,113.5,94z M115.4,94.1
			c0,0.7,0.2,1.3,0.5,1.7s0.8,0.6,1.3,0.6s0.9-0.2,1.3-0.6s0.5-0.9,0.5-1.7c0-0.7-0.2-1.3-0.5-1.6s-0.8-0.6-1.3-0.6
			s-0.9,0.2-1.3,0.6S115.4,93.4,115.4,94.1z"/>
		<path class="st1" d="M126.3,90.5h1.8v1.1c0.2-0.4,0.5-0.7,0.9-0.9s0.8-0.3,1.3-0.3c0.8,0,1.6,0.3,2.1,1s0.9,1.6,0.9,2.8
			c0,1.2-0.3,2.2-0.9,2.8s-1.3,1-2.2,1c-0.4,0-0.8-0.1-1.1-0.2s-0.7-0.4-1-0.8v3.7h-1.9V90.5z M128.2,94c0,0.8,0.2,1.4,0.5,1.8
			s0.7,0.6,1.2,0.6c0.4,0,0.8-0.2,1.1-0.5s0.4-0.9,0.4-1.8c0-0.8-0.2-1.3-0.5-1.7s-0.7-0.6-1.1-0.6c-0.5,0-0.9,0.2-1.2,0.5
			S128.2,93.3,128.2,94z"/>
		<path class="st1" d="M136.7,97.7h-1.9v-7.3h1.8v1c0.3-0.5,0.6-0.8,0.8-1s0.5-0.2,0.8-0.2c0.4,0,0.9,0.1,1.3,0.4l-0.6,1.7
			c-0.3-0.2-0.6-0.3-0.9-0.3c-0.3,0-0.5,0.1-0.7,0.2s-0.3,0.4-0.4,0.8s-0.2,1.2-0.2,2.4V97.7z"/>
		<path class="st1" d="M139.9,94c0-0.6,0.2-1.3,0.5-1.9s0.8-1.1,1.3-1.4s1.2-0.5,1.9-0.5c1.1,0,2,0.4,2.7,1.1s1.1,1.6,1.1,2.7
			c0,1.1-0.4,2-1.1,2.7s-1.6,1.1-2.7,1.1c-0.7,0-1.3-0.2-1.9-0.5s-1.1-0.7-1.4-1.3S139.9,94.8,139.9,94z M141.9,94.1
			c0,0.7,0.2,1.3,0.5,1.7s0.8,0.6,1.3,0.6s0.9-0.2,1.3-0.6s0.5-0.9,0.5-1.7c0-0.7-0.2-1.3-0.5-1.6s-0.8-0.6-1.3-0.6
			s-0.9,0.2-1.3,0.6S141.9,93.4,141.9,94.1z"/>
		<path class="st1" d="M155.2,92.6l-1.9,0.3c-0.1-0.4-0.2-0.7-0.4-0.9s-0.5-0.3-0.9-0.3c-0.5,0-0.9,0.2-1.1,0.5s-0.4,0.9-0.4,1.7
			c0,0.9,0.1,1.5,0.4,1.8s0.7,0.5,1.2,0.5c0.4,0,0.7-0.1,0.9-0.3s0.4-0.6,0.5-1.1l1.9,0.3c-0.2,0.9-0.6,1.5-1.1,2s-1.3,0.7-2.2,0.7
			c-1.1,0-1.9-0.3-2.5-1s-0.9-1.6-0.9-2.8c0-1.2,0.3-2.1,1-2.8s1.5-1,2.6-1c0.9,0,1.6,0.2,2.1,0.6S155,91.8,155.2,92.6z"/>
		<path class="st1" d="M160.9,95.4l1.9,0.3c-0.2,0.7-0.6,1.2-1.2,1.6s-1.2,0.6-2,0.6c-1.3,0-2.2-0.4-2.8-1.2
			c-0.5-0.7-0.7-1.5-0.7-2.5c0-1.2,0.3-2.1,0.9-2.8s1.4-1,2.4-1c1.1,0,1.9,0.4,2.6,1.1s0.9,1.8,0.9,3.3h-4.8c0,0.6,0.2,1,0.5,1.3
			s0.7,0.5,1.1,0.5c0.3,0,0.6-0.1,0.8-0.2S160.8,95.8,160.9,95.4z M161,93.5c0-0.6-0.2-1-0.4-1.3s-0.6-0.4-1-0.4
			c-0.4,0-0.8,0.2-1,0.5s-0.4,0.7-0.4,1.2H161z"/>
		<path class="st1" d="M163.8,95.7l1.9-0.3c0.1,0.4,0.2,0.7,0.5,0.9s0.6,0.3,1.1,0.3c0.5,0,0.9-0.1,1.1-0.3c0.2-0.1,0.3-0.3,0.3-0.5
			c0-0.1,0-0.3-0.1-0.4c-0.1-0.1-0.3-0.2-0.6-0.3c-1.5-0.3-2.5-0.7-2.9-0.9c-0.6-0.4-0.9-0.9-0.9-1.6c0-0.6,0.2-1.2,0.7-1.6
			s1.3-0.6,2.3-0.6c1,0,1.7,0.2,2.2,0.5s0.8,0.8,1,1.4l-1.8,0.3c-0.1-0.3-0.2-0.5-0.4-0.6s-0.5-0.2-0.9-0.2c-0.5,0-0.9,0.1-1.1,0.2
			c-0.1,0.1-0.2,0.2-0.2,0.4c0,0.1,0.1,0.3,0.2,0.3c0.2,0.1,0.8,0.3,1.8,0.5s1.7,0.5,2.1,0.9c0.4,0.3,0.6,0.8,0.6,1.4
			c0,0.7-0.3,1.2-0.8,1.7s-1.4,0.7-2.5,0.7c-1,0-1.8-0.2-2.3-0.6S164,96.4,163.8,95.7z"/>
		<path class="st1" d="M171.8,94c0-0.6,0.2-1.3,0.5-1.9s0.8-1.1,1.3-1.4s1.2-0.5,1.9-0.5c1.1,0,2,0.4,2.7,1.1s1.1,1.6,1.1,2.7
			c0,1.1-0.4,2-1.1,2.7s-1.6,1.1-2.7,1.1c-0.7,0-1.3-0.2-1.9-0.5s-1.1-0.7-1.4-1.3S171.8,94.8,171.8,94z M173.8,94.1
			c0,0.7,0.2,1.3,0.5,1.7s0.8,0.6,1.3,0.6s0.9-0.2,1.3-0.6s0.5-0.9,0.5-1.7c0-0.7-0.2-1.3-0.5-1.6s-0.8-0.6-1.3-0.6
			s-0.9,0.2-1.3,0.6S173.8,93.4,173.8,94.1z"/>
		<path class="st1" d="M191.4,97.7h-1.8v-1.1c-0.3,0.4-0.6,0.7-1,0.9s-0.8,0.3-1.2,0.3c-0.8,0-1.5-0.3-2.1-1s-0.9-1.6-0.9-2.8
			c0-1.2,0.3-2.2,0.9-2.8s1.3-1,2.2-1c0.8,0,1.5,0.3,2.1,1v-3.6h1.9V97.7z M186.2,93.9c0,0.8,0.1,1.3,0.3,1.7
			c0.3,0.5,0.7,0.8,1.3,0.8c0.4,0,0.8-0.2,1.1-0.6s0.5-0.9,0.5-1.7c0-0.8-0.2-1.4-0.5-1.8s-0.7-0.6-1.2-0.6c-0.5,0-0.8,0.2-1.1,0.5
			S186.2,93.2,186.2,93.9z"/>
		<path class="st1" d="M197.5,95.4l1.9,0.3c-0.2,0.7-0.6,1.2-1.2,1.6s-1.2,0.6-2,0.6c-1.3,0-2.2-0.4-2.8-1.2
			c-0.5-0.7-0.7-1.5-0.7-2.5c0-1.2,0.3-2.1,0.9-2.8s1.4-1,2.4-1c1.1,0,1.9,0.4,2.6,1.1s0.9,1.8,0.9,3.3h-4.8c0,0.6,0.2,1,0.5,1.3
			s0.7,0.5,1.1,0.5c0.3,0,0.6-0.1,0.8-0.2S197.4,95.8,197.5,95.4z M197.6,93.5c0-0.6-0.2-1-0.4-1.3s-0.6-0.4-1-0.4
			c-0.4,0-0.8,0.2-1,0.5s-0.4,0.7-0.4,1.2H197.6z"/>
		<path class="st1" d="M204.9,89.5v-1.8h1.9v1.8H204.9z M204.9,97.7v-7.3h1.9v7.3H204.9z"/>
		<path class="st1" d="M215.4,97.7h-1.9V94c0-0.8,0-1.3-0.1-1.5s-0.2-0.4-0.4-0.5s-0.4-0.2-0.7-0.2c-0.3,0-0.6,0.1-0.9,0.3
			s-0.4,0.4-0.5,0.7s-0.1,0.9-0.1,1.7v3.3h-1.9v-7.3h1.8v1.1c0.6-0.8,1.4-1.2,2.4-1.2c0.4,0,0.8,0.1,1.2,0.2
			c0.4,0.2,0.6,0.3,0.8,0.6s0.3,0.5,0.4,0.8c0.1,0.3,0.1,0.7,0.1,1.3V97.7z"/>
		<path class="st1" d="M217.2,98.2l2.2,0.3c0,0.3,0.1,0.4,0.3,0.5c0.2,0.1,0.5,0.2,0.9,0.2c0.5,0,0.9-0.1,1.1-0.2
			c0.2-0.1,0.3-0.3,0.4-0.5c0.1-0.2,0.1-0.5,0.1-0.9v-1.1c-0.6,0.8-1.3,1.2-2.2,1.2c-1,0-1.7-0.4-2.3-1.2c-0.4-0.7-0.7-1.5-0.7-2.4
			c0-1.2,0.3-2.1,0.9-2.8c0.6-0.6,1.3-1,2.2-1c0.9,0,1.6,0.4,2.2,1.2v-1h1.8V97c0,0.9-0.1,1.5-0.2,1.9s-0.3,0.8-0.6,1
			s-0.6,0.4-1,0.6c-0.4,0.1-1,0.2-1.6,0.2c-1.2,0-2.1-0.2-2.6-0.6s-0.8-1-0.8-1.6C217.2,98.4,217.2,98.3,217.2,98.2z M218.9,94
			c0,0.8,0.1,1.3,0.4,1.7c0.3,0.4,0.7,0.5,1.1,0.5c0.5,0,0.9-0.2,1.2-0.6s0.5-0.9,0.5-1.6c0-0.8-0.2-1.3-0.5-1.7s-0.7-0.5-1.2-0.5
			c-0.5,0-0.8,0.2-1.1,0.5C219.1,92.7,218.9,93.2,218.9,94z"/>
		<path class="st1" d="M227.8,97.7h-1.9v-7.3h1.8v1c0.3-0.5,0.6-0.8,0.8-1c0.2-0.2,0.5-0.2,0.8-0.2c0.4,0,0.9,0.1,1.3,0.4l-0.6,1.7
			c-0.3-0.2-0.6-0.3-0.9-0.3c-0.3,0-0.5,0.1-0.7,0.2s-0.3,0.4-0.4,0.8c-0.1,0.4-0.2,1.2-0.2,2.4V97.7z"/>
		<path class="st1" d="M235.6,95.4l1.9,0.3c-0.2,0.7-0.6,1.2-1.2,1.6c-0.5,0.4-1.2,0.6-2,0.6c-1.3,0-2.2-0.4-2.8-1.2
			c-0.5-0.7-0.7-1.5-0.7-2.5c0-1.2,0.3-2.1,0.9-2.8s1.4-1,2.4-1c1.1,0,1.9,0.4,2.6,1.1s0.9,1.8,0.9,3.3h-4.8c0,0.6,0.2,1,0.5,1.3
			s0.7,0.5,1.1,0.5c0.3,0,0.6-0.1,0.8-0.2S235.5,95.8,235.6,95.4z M235.7,93.5c0-0.6-0.2-1-0.4-1.3s-0.6-0.4-1-0.4
			c-0.4,0-0.8,0.2-1,0.5s-0.4,0.7-0.4,1.2H235.7z"/>
		<path class="st1" d="M238.5,95.7l1.9-0.3c0.1,0.4,0.2,0.7,0.5,0.9s0.6,0.3,1.1,0.3c0.5,0,0.9-0.1,1.1-0.3c0.2-0.1,0.3-0.3,0.3-0.5
			c0-0.1,0-0.3-0.1-0.4c-0.1-0.1-0.3-0.2-0.6-0.3c-1.5-0.3-2.5-0.7-2.9-0.9c-0.6-0.4-0.9-0.9-0.9-1.6c0-0.6,0.2-1.2,0.7-1.6
			s1.3-0.6,2.3-0.6c1,0,1.7,0.2,2.2,0.5s0.8,0.8,1,1.4l-1.8,0.3c-0.1-0.3-0.2-0.5-0.4-0.6c-0.2-0.2-0.5-0.2-0.9-0.2
			c-0.5,0-0.9,0.1-1.1,0.2c-0.1,0.1-0.2,0.2-0.2,0.4c0,0.1,0.1,0.3,0.2,0.3c0.2,0.1,0.8,0.3,1.8,0.5c1,0.2,1.7,0.5,2.1,0.9
			c0.4,0.3,0.6,0.8,0.6,1.4c0,0.7-0.3,1.2-0.8,1.7s-1.4,0.7-2.5,0.7c-1,0-1.8-0.2-2.3-0.6C239,96.9,238.7,96.4,238.5,95.7z"/>
		<path class="st1" d="M246.5,94c0-0.6,0.2-1.3,0.5-1.9s0.8-1.1,1.3-1.4c0.6-0.3,1.2-0.5,1.9-0.5c1.1,0,2,0.4,2.7,1.1
			s1.1,1.6,1.1,2.7c0,1.1-0.4,2-1.1,2.7c-0.7,0.7-1.6,1.1-2.7,1.1c-0.7,0-1.3-0.2-1.9-0.5c-0.6-0.3-1.1-0.7-1.4-1.3
			S246.5,94.8,246.5,94z M248.5,94.1c0,0.7,0.2,1.3,0.5,1.7s0.8,0.6,1.3,0.6s0.9-0.2,1.3-0.6c0.3-0.4,0.5-0.9,0.5-1.7
			c0-0.7-0.2-1.3-0.5-1.6c-0.3-0.4-0.8-0.6-1.3-0.6s-0.9,0.2-1.3,0.6S248.5,93.4,248.5,94.1z"/>
		<path class="st1" d="M260.8,92.7l-1.7-0.3c0.2-0.7,0.5-1.2,1-1.6s1.2-0.5,2.1-0.5c0.9,0,1.5,0.1,1.9,0.3s0.7,0.5,0.9,0.8
			c0.2,0.3,0.3,0.9,0.3,1.7l0,2.2c0,0.6,0,1.1,0.1,1.4c0.1,0.3,0.2,0.6,0.3,1h-1.9c0-0.1-0.1-0.3-0.2-0.6c0-0.1-0.1-0.2-0.1-0.2
			c-0.3,0.3-0.7,0.6-1.1,0.7s-0.8,0.2-1.2,0.2c-0.7,0-1.3-0.2-1.8-0.6c-0.4-0.4-0.6-0.9-0.6-1.5c0-0.4,0.1-0.8,0.3-1.1
			s0.5-0.6,0.8-0.7c0.4-0.2,0.9-0.3,1.5-0.4c0.9-0.2,1.5-0.3,1.9-0.5v-0.2c0-0.4-0.1-0.6-0.3-0.8s-0.5-0.2-1-0.2
			c-0.3,0-0.6,0.1-0.8,0.2S260.9,92.4,260.8,92.7z M263.4,94.3c-0.2,0.1-0.6,0.2-1.2,0.3s-0.9,0.2-1,0.3c-0.3,0.2-0.4,0.4-0.4,0.7
			c0,0.3,0.1,0.5,0.3,0.7s0.5,0.3,0.8,0.3c0.3,0,0.7-0.1,1-0.3c0.2-0.2,0.4-0.4,0.5-0.6c0-0.2,0.1-0.5,0.1-0.9V94.3z"/>
		<path class="st1" d="M271.1,97.7v-10h3.2c1.2,0,2,0.1,2.4,0.2c0.6,0.2,1.1,0.5,1.4,1s0.6,1.2,0.6,2c0,0.6-0.1,1.1-0.3,1.6
			s-0.5,0.7-0.9,1c-0.3,0.2-0.7,0.4-1,0.5c-0.5,0.1-1.2,0.1-2.1,0.1h-1.3v3.8H271.1z M273.1,89.4v2.8h1.1c0.8,0,1.3-0.1,1.6-0.2
			s0.5-0.3,0.6-0.5c0.2-0.2,0.2-0.5,0.2-0.8c0-0.4-0.1-0.7-0.3-0.9s-0.5-0.4-0.8-0.4c-0.2,0-0.7-0.1-1.5-0.1H273.1z"/>
		<path class="st1" d="M282.2,97.7h-1.9v-7.3h1.8v1c0.3-0.5,0.6-0.8,0.8-1c0.2-0.2,0.5-0.2,0.8-0.2c0.4,0,0.9,0.1,1.3,0.4l-0.6,1.7
			c-0.3-0.2-0.6-0.3-0.9-0.3c-0.3,0-0.5,0.1-0.7,0.2s-0.3,0.4-0.4,0.8c-0.1,0.4-0.2,1.2-0.2,2.4V97.7z"/>
		<path class="st1" d="M290.1,95.4l1.9,0.3c-0.2,0.7-0.6,1.2-1.2,1.6c-0.5,0.4-1.2,0.6-2,0.6c-1.3,0-2.2-0.4-2.8-1.2
			c-0.5-0.7-0.7-1.5-0.7-2.5c0-1.2,0.3-2.1,0.9-2.8s1.4-1,2.4-1c1.1,0,1.9,0.4,2.6,1.1s0.9,1.8,0.9,3.3h-4.8c0,0.6,0.2,1,0.5,1.3
			s0.7,0.5,1.1,0.5c0.3,0,0.6-0.1,0.8-0.2S290,95.8,290.1,95.4z M290.2,93.5c0-0.6-0.2-1-0.4-1.3s-0.6-0.4-1-0.4
			c-0.4,0-0.8,0.2-1,0.5s-0.4,0.7-0.4,1.2H290.2z"/>
		<path class="st1" d="M292.8,90.5h1.1v-0.5c0-0.6,0.1-1.1,0.2-1.4c0.1-0.3,0.4-0.5,0.7-0.7c0.3-0.2,0.8-0.3,1.3-0.3
			c0.5,0,1.1,0.1,1.6,0.2l-0.3,1.3c-0.3-0.1-0.6-0.1-0.9-0.1c-0.3,0-0.5,0.1-0.6,0.2c-0.1,0.1-0.2,0.4-0.2,0.7v0.5h1.4V92h-1.4v5.7
			h-1.9V92h-1.1V90.5z"/>
		<path class="st1" d="M302.5,95.4l1.9,0.3c-0.2,0.7-0.6,1.2-1.2,1.6c-0.5,0.4-1.2,0.6-2,0.6c-1.3,0-2.2-0.4-2.8-1.2
			c-0.5-0.7-0.7-1.5-0.7-2.5c0-1.2,0.3-2.1,0.9-2.8s1.4-1,2.4-1c1.1,0,1.9,0.4,2.6,1.1s0.9,1.8,0.9,3.3h-4.8c0,0.6,0.2,1,0.5,1.3
			s0.7,0.5,1.1,0.5c0.3,0,0.6-0.1,0.8-0.2S302.4,95.8,302.5,95.4z M302.6,93.5c0-0.6-0.2-1-0.4-1.3s-0.6-0.4-1-0.4
			c-0.4,0-0.8,0.2-1,0.5s-0.4,0.7-0.4,1.2H302.6z"/>
		<path class="st1" d="M312.4,92.6l-1.9,0.3c-0.1-0.4-0.2-0.7-0.4-0.9c-0.2-0.2-0.5-0.3-0.9-0.3c-0.5,0-0.9,0.2-1.1,0.5
			c-0.3,0.3-0.4,0.9-0.4,1.7c0,0.9,0.1,1.5,0.4,1.8c0.3,0.4,0.7,0.5,1.2,0.5c0.4,0,0.7-0.1,0.9-0.3s0.4-0.6,0.5-1.1l1.9,0.3
			c-0.2,0.9-0.6,1.5-1.1,2s-1.3,0.7-2.2,0.7c-1.1,0-1.9-0.3-2.5-1c-0.6-0.7-0.9-1.6-0.9-2.8c0-1.2,0.3-2.1,1-2.8s1.5-1,2.6-1
			c0.9,0,1.6,0.2,2.1,0.6C311.8,91.3,312.2,91.8,312.4,92.6z"/>
		<path class="st1" d="M317.2,90.5V92h-1.3v2.9c0,0.6,0,0.9,0,1c0,0.1,0.1,0.2,0.2,0.2c0.1,0.1,0.2,0.1,0.3,0.1
			c0.2,0,0.4-0.1,0.8-0.2l0.2,1.5c-0.4,0.2-1,0.3-1.5,0.3c-0.3,0-0.7-0.1-0.9-0.2s-0.5-0.3-0.6-0.5c-0.1-0.2-0.2-0.4-0.3-0.7
			c0-0.2-0.1-0.7-0.1-1.4V92h-0.9v-1.5h0.9V89l1.9-1.1v2.6H317.2z"/>
		<path class="st1" d="M323.3,97.7v-1.1c-0.3,0.4-0.6,0.7-1,0.9c-0.4,0.2-0.9,0.3-1.4,0.3c-0.5,0-0.9-0.1-1.3-0.3s-0.7-0.5-0.8-0.9
			s-0.3-0.9-0.3-1.6v-4.6h1.9v3.3c0,1,0,1.6,0.1,1.9c0.1,0.2,0.2,0.4,0.4,0.5s0.4,0.2,0.7,0.2c0.3,0,0.6-0.1,0.9-0.3
			s0.4-0.4,0.5-0.7s0.1-0.9,0.1-2v-3.1h1.9v7.3H323.3z"/>
		<path class="st1" d="M328.9,97.7H327v-7.3h1.8v1c0.3-0.5,0.6-0.8,0.8-1c0.2-0.2,0.5-0.2,0.8-0.2c0.4,0,0.9,0.1,1.3,0.4l-0.6,1.7
			c-0.3-0.2-0.6-0.3-0.9-0.3c-0.3,0-0.5,0.1-0.7,0.2s-0.3,0.4-0.4,0.8c-0.1,0.4-0.2,1.2-0.2,2.4V97.7z"/>
		<path class="st1" d="M334,92.7l-1.7-0.3c0.2-0.7,0.5-1.2,1-1.6s1.2-0.5,2.1-0.5c0.9,0,1.5,0.1,1.9,0.3s0.7,0.5,0.9,0.8
			c0.2,0.3,0.3,0.9,0.3,1.7l0,2.2c0,0.6,0,1.1,0.1,1.4c0.1,0.3,0.2,0.6,0.3,1h-1.9c0-0.1-0.1-0.3-0.2-0.6c0-0.1-0.1-0.2-0.1-0.2
			c-0.3,0.3-0.7,0.6-1.1,0.7s-0.8,0.2-1.2,0.2c-0.7,0-1.3-0.2-1.8-0.6c-0.4-0.4-0.6-0.9-0.6-1.5c0-0.4,0.1-0.8,0.3-1.1
			s0.5-0.6,0.8-0.7c0.4-0.2,0.9-0.3,1.5-0.4c0.9-0.2,1.5-0.3,1.9-0.5v-0.2c0-0.4-0.1-0.6-0.3-0.8s-0.5-0.2-1-0.2
			c-0.3,0-0.6,0.1-0.8,0.2S334.1,92.4,334,92.7z M336.5,94.3c-0.2,0.1-0.6,0.2-1.2,0.3s-0.9,0.2-1,0.3c-0.3,0.2-0.4,0.4-0.4,0.7
			c0,0.3,0.1,0.5,0.3,0.7s0.5,0.3,0.8,0.3c0.3,0,0.7-0.1,1-0.3c0.2-0.2,0.4-0.4,0.5-0.6c0-0.2,0.1-0.5,0.1-0.9V94.3z"/>
		<path class="st1" d="M340.3,97.7v-1.9h1.9v1.9H340.3z"/>
		<path class="st1" d="M57.1,125.7v-10h3.2c1.2,0,2,0.1,2.4,0.2c0.6,0.2,1.1,0.5,1.4,1s0.6,1.2,0.6,2c0,0.6-0.1,1.1-0.3,1.6
			s-0.5,0.7-0.9,1s-0.7,0.4-1,0.5c-0.5,0.1-1.2,0.1-2.1,0.1h-1.3v3.8H57.1z M59.1,117.4v2.8h1.1c0.8,0,1.3-0.1,1.6-0.2
			s0.5-0.3,0.6-0.5s0.2-0.5,0.2-0.8c0-0.4-0.1-0.7-0.3-0.9s-0.5-0.4-0.8-0.4c-0.2,0-0.7-0.1-1.5-0.1H59.1z"/>
		<path class="st1" d="M68.3,125.7h-1.9v-7.3h1.8v1c0.3-0.5,0.6-0.8,0.8-1s0.5-0.2,0.8-0.2c0.4,0,0.9,0.1,1.3,0.4l-0.6,1.7
			c-0.3-0.2-0.6-0.3-0.9-0.3c-0.3,0-0.5,0.1-0.7,0.2s-0.3,0.4-0.4,0.8s-0.2,1.2-0.2,2.4V125.7z"/>
		<path class="st1" d="M71.4,122c0-0.6,0.2-1.3,0.5-1.9s0.8-1.1,1.3-1.4s1.2-0.5,1.9-0.5c1.1,0,2,0.4,2.7,1.1s1.1,1.6,1.1,2.7
			c0,1.1-0.4,2-1.1,2.7c-0.7,0.7-1.6,1.1-2.7,1.1c-0.7,0-1.3-0.2-1.9-0.5s-1.1-0.7-1.4-1.3S71.4,122.8,71.4,122z M73.4,122.1
			c0,0.7,0.2,1.3,0.5,1.7s0.8,0.6,1.3,0.6s0.9-0.2,1.3-0.6s0.5-0.9,0.5-1.7c0-0.7-0.2-1.3-0.5-1.6s-0.8-0.6-1.3-0.6
			s-0.9,0.2-1.3,0.6S73.4,121.4,73.4,122.1z M74.2,117.6l0.9-2h2.2l-1.9,2H74.2z"/>
		<path class="st1" d="M79.5,125.7l2.6-3.7l-2.5-3.5H82l1.3,2l1.4-2h2.3l-2.5,3.4l2.7,3.8h-2.4l-1.5-2.2l-1.5,2.2H79.5z"/>
		<path class="st1" d="M88.2,117.5v-1.8h1.9v1.8H88.2z M88.2,125.7v-7.3h1.9v7.3H88.2z"/>
		<path class="st1" d="M92,118.5h1.8v1c0.6-0.8,1.4-1.2,2.3-1.2c0.5,0,0.9,0.1,1.2,0.3s0.6,0.5,0.8,0.9c0.3-0.4,0.7-0.7,1-0.9
			s0.8-0.3,1.2-0.3c0.5,0,1,0.1,1.4,0.3s0.6,0.5,0.8,1c0.1,0.3,0.2,0.8,0.2,1.5v4.6h-1.9v-4.1c0-0.7-0.1-1.2-0.2-1.4
			c-0.2-0.3-0.5-0.4-0.8-0.4c-0.3,0-0.5,0.1-0.8,0.2s-0.4,0.4-0.5,0.7s-0.2,0.8-0.2,1.5v3.5h-1.9v-4c0-0.7,0-1.2-0.1-1.4
			s-0.2-0.4-0.3-0.5s-0.3-0.2-0.6-0.2c-0.3,0-0.6,0.1-0.8,0.2s-0.4,0.4-0.5,0.7s-0.2,0.8-0.2,1.5v3.5H92V118.5z"/>
		<path class="st1" d="M106,120.7l-1.7-0.3c0.2-0.7,0.5-1.2,1-1.6s1.2-0.5,2.1-0.5c0.9,0,1.5,0.1,1.9,0.3s0.7,0.5,0.9,0.8
			s0.3,0.9,0.3,1.7l0,2.2c0,0.6,0,1.1,0.1,1.4c0.1,0.3,0.2,0.6,0.3,1H109c-0.1-0.1-0.1-0.3-0.2-0.6c0-0.1-0.1-0.2-0.1-0.2
			c-0.3,0.3-0.7,0.6-1.1,0.7c-0.4,0.2-0.8,0.2-1.2,0.2c-0.7,0-1.3-0.2-1.8-0.6c-0.4-0.4-0.6-0.9-0.6-1.5c0-0.4,0.1-0.8,0.3-1.1
			s0.5-0.6,0.8-0.7s0.9-0.3,1.5-0.4c0.9-0.2,1.5-0.3,1.9-0.5v-0.2c0-0.4-0.1-0.6-0.3-0.8s-0.5-0.2-1-0.2c-0.3,0-0.6,0.1-0.8,0.2
			S106.1,120.4,106,120.7z M108.6,122.3c-0.2,0.1-0.6,0.2-1.2,0.3c-0.5,0.1-0.9,0.2-1,0.3c-0.3,0.2-0.4,0.4-0.4,0.7
			c0,0.3,0.1,0.5,0.3,0.7c0.2,0.2,0.5,0.3,0.8,0.3c0.3,0,0.7-0.1,1-0.3c0.2-0.2,0.4-0.4,0.5-0.6c0.1-0.2,0.1-0.5,0.1-0.9V122.3z"/>
		<path class="st1" d="M112.2,118.5h1.8v1c0.6-0.8,1.4-1.2,2.3-1.2c0.5,0,0.9,0.1,1.2,0.3s0.6,0.5,0.8,0.9c0.3-0.4,0.7-0.7,1-0.9
			s0.8-0.3,1.2-0.3c0.5,0,1,0.1,1.4,0.3s0.6,0.5,0.8,1c0.1,0.3,0.2,0.8,0.2,1.5v4.6H121v-4.1c0-0.7-0.1-1.2-0.2-1.4
			c-0.2-0.3-0.5-0.4-0.8-0.4c-0.3,0-0.5,0.1-0.8,0.2s-0.4,0.4-0.5,0.7s-0.2,0.8-0.2,1.5v3.5h-1.9v-4c0-0.7,0-1.2-0.1-1.4
			s-0.2-0.4-0.3-0.5s-0.3-0.2-0.6-0.2c-0.3,0-0.6,0.1-0.8,0.2s-0.4,0.4-0.5,0.7s-0.2,0.8-0.2,1.5v3.5h-1.9V118.5z"/>
		<path class="st1" d="M129,123.4l1.9,0.3c-0.2,0.7-0.6,1.2-1.2,1.6c-0.5,0.4-1.2,0.5-2,0.5c-1.3,0-2.2-0.4-2.8-1.2
			c-0.5-0.7-0.7-1.5-0.7-2.5c0-1.2,0.3-2.1,0.9-2.8s1.4-1,2.4-1c1.1,0,1.9,0.4,2.6,1.1s0.9,1.8,0.9,3.3h-4.8c0,0.6,0.2,1,0.5,1.3
			c0.3,0.3,0.7,0.5,1.1,0.5c0.3,0,0.6-0.1,0.8-0.2S128.9,123.8,129,123.4z M129.1,121.5c0-0.6-0.2-1-0.4-1.3s-0.6-0.4-1-0.4
			c-0.4,0-0.8,0.2-1,0.5s-0.4,0.7-0.4,1.2H129.1z"/>
		<path class="st1" d="M139.2,125.7h-1.9V122c0-0.8,0-1.3-0.1-1.5s-0.2-0.4-0.4-0.5s-0.4-0.2-0.7-0.2c-0.3,0-0.6,0.1-0.9,0.3
			s-0.4,0.4-0.5,0.7s-0.1,0.9-0.1,1.7v3.3h-1.9v-7.3h1.8v1.1c0.6-0.8,1.4-1.2,2.4-1.2c0.4,0,0.8,0.1,1.2,0.2s0.6,0.3,0.8,0.6
			s0.3,0.5,0.4,0.8s0.1,0.7,0.1,1.3V125.7z"/>
		<path class="st1" d="M144.5,118.5v1.5h-1.3v2.9c0,0.6,0,0.9,0,1c0,0.1,0.1,0.2,0.2,0.2c0.1,0.1,0.2,0.1,0.3,0.1
			c0.2,0,0.4-0.1,0.8-0.2l0.2,1.5c-0.4,0.2-1,0.3-1.5,0.3c-0.3,0-0.7-0.1-0.9-0.2s-0.5-0.3-0.6-0.5s-0.2-0.4-0.3-0.7
			c0-0.2-0.1-0.7-0.1-1.4V120h-0.9v-1.5h0.9V117l1.9-1.1v2.6H144.5z"/>
		<path class="st1" d="M150,123.4l1.9,0.3c-0.2,0.7-0.6,1.2-1.2,1.6c-0.5,0.4-1.2,0.5-2,0.5c-1.3,0-2.2-0.4-2.8-1.2
			c-0.5-0.7-0.7-1.5-0.7-2.5c0-1.2,0.3-2.1,0.9-2.8s1.4-1,2.4-1c1.1,0,1.9,0.4,2.6,1.1s0.9,1.8,0.9,3.3h-4.8c0,0.6,0.2,1,0.5,1.3
			c0.3,0.3,0.7,0.5,1.1,0.5c0.3,0,0.6-0.1,0.8-0.2S149.9,123.8,150,123.4z M150.1,121.5c0-0.6-0.2-1-0.4-1.3s-0.6-0.4-1-0.4
			c-0.4,0-0.8,0.2-1,0.5s-0.4,0.7-0.4,1.2H150.1z"/>
		<path class="st1" d="M158.9,120.7l-1.7-0.3c0.2-0.7,0.5-1.2,1-1.6s1.2-0.5,2.1-0.5c0.9,0,1.5,0.1,1.9,0.3s0.7,0.5,0.9,0.8
			s0.3,0.9,0.3,1.7l0,2.2c0,0.6,0,1.1,0.1,1.4c0.1,0.3,0.2,0.6,0.3,1h-1.9c-0.1-0.1-0.1-0.3-0.2-0.6c0-0.1-0.1-0.2-0.1-0.2
			c-0.3,0.3-0.7,0.6-1.1,0.7c-0.4,0.2-0.8,0.2-1.2,0.2c-0.7,0-1.3-0.2-1.8-0.6c-0.4-0.4-0.6-0.9-0.6-1.5c0-0.4,0.1-0.8,0.3-1.1
			s0.5-0.6,0.8-0.7s0.9-0.3,1.5-0.4c0.9-0.2,1.5-0.3,1.9-0.5v-0.2c0-0.4-0.1-0.6-0.3-0.8s-0.5-0.2-1-0.2c-0.3,0-0.6,0.1-0.8,0.2
			S159,120.4,158.9,120.7z M161.5,122.3c-0.2,0.1-0.6,0.2-1.2,0.3c-0.5,0.1-0.9,0.2-1,0.3c-0.3,0.2-0.4,0.4-0.4,0.7
			c0,0.3,0.1,0.5,0.3,0.7c0.2,0.2,0.5,0.3,0.8,0.3c0.3,0,0.7-0.1,1-0.3c0.2-0.2,0.4-0.4,0.5-0.6c0.1-0.2,0.1-0.5,0.1-0.9V122.3z"/>
		<path class="st1" d="M165.2,125.7v-10h1.9v3.6c0.6-0.7,1.3-1,2.1-1c0.9,0,1.6,0.3,2.2,1s0.9,1.6,0.9,2.8c0,1.2-0.3,2.2-0.9,2.9
			s-1.3,1-2.1,1c-0.4,0-0.8-0.1-1.2-0.3c-0.4-0.2-0.8-0.5-1-0.9v1.1H165.2z M167.1,121.9c0,0.8,0.1,1.3,0.4,1.7
			c0.3,0.5,0.8,0.8,1.3,0.8c0.4,0,0.8-0.2,1.1-0.5s0.4-0.9,0.4-1.7c0-0.8-0.2-1.4-0.5-1.8s-0.7-0.6-1.2-0.6c-0.5,0-0.8,0.2-1.1,0.5
			S167.1,121.2,167.1,121.9z"/>
		<path class="st1" d="M175.7,125.7h-1.9v-7.3h1.8v1c0.3-0.5,0.6-0.8,0.8-1s0.5-0.2,0.8-0.2c0.4,0,0.9,0.1,1.3,0.4l-0.6,1.7
			c-0.3-0.2-0.6-0.3-0.9-0.3c-0.3,0-0.5,0.1-0.7,0.2s-0.3,0.4-0.4,0.8s-0.2,1.2-0.2,2.4V125.7z"/>
		<path class="st1" d="M179.3,117.5v-1.8h1.9v1.8H179.3z M179.3,125.7v-7.3h1.9v7.3H179.3z"/>
		<path class="st1" d="M185,125.7h-1.9v-7.3h1.8v1c0.3-0.5,0.6-0.8,0.8-1s0.5-0.2,0.8-0.2c0.4,0,0.9,0.1,1.3,0.4l-0.6,1.7
			c-0.3-0.2-0.6-0.3-0.9-0.3c-0.3,0-0.5,0.1-0.7,0.2s-0.3,0.4-0.4,0.8s-0.2,1.2-0.2,2.4V125.7z"/>
		<path class="st1" d="M192.8,123.4l1.9,0.3c-0.2,0.7-0.6,1.2-1.2,1.6c-0.5,0.4-1.2,0.5-2,0.5c-1.3,0-2.2-0.4-2.8-1.2
			c-0.5-0.7-0.7-1.5-0.7-2.5c0-1.2,0.3-2.1,0.9-2.8s1.4-1,2.4-1c1.1,0,1.9,0.4,2.6,1.1s0.9,1.8,0.9,3.3H190c0,0.6,0.2,1,0.5,1.3
			c0.3,0.3,0.7,0.5,1.1,0.5c0.3,0,0.6-0.1,0.8-0.2S192.7,123.8,192.8,123.4z M192.9,121.5c0-0.6-0.2-1-0.4-1.3s-0.6-0.4-1-0.4
			c-0.4,0-0.8,0.2-1,0.5s-0.4,0.7-0.4,1.2H192.9z"/>
		<path class="st1" d="M196.2,118.5h1.8v1c0.6-0.8,1.4-1.2,2.3-1.2c0.5,0,0.9,0.1,1.2,0.3s0.6,0.5,0.8,0.9c0.3-0.4,0.7-0.7,1-0.9
			s0.8-0.3,1.2-0.3c0.5,0,1,0.1,1.4,0.3s0.6,0.5,0.8,1c0.1,0.3,0.2,0.8,0.2,1.5v4.6H205v-4.1c0-0.7-0.1-1.2-0.2-1.4
			c-0.2-0.3-0.5-0.4-0.8-0.4c-0.3,0-0.5,0.1-0.8,0.2s-0.4,0.4-0.5,0.7s-0.2,0.8-0.2,1.5v3.5h-1.9v-4c0-0.7,0-1.2-0.1-1.4
			s-0.2-0.4-0.3-0.5s-0.3-0.2-0.6-0.2c-0.3,0-0.6,0.1-0.8,0.2s-0.4,0.4-0.5,0.7s-0.2,0.8-0.2,1.5v3.5h-1.9V118.5z"/>
		<path class="st1" d="M208.4,122c0-0.6,0.2-1.3,0.5-1.9s0.8-1.1,1.3-1.4s1.2-0.5,1.9-0.5c1.1,0,2,0.4,2.7,1.1
			c0.7,0.7,1.1,1.6,1.1,2.7c0,1.1-0.4,2-1.1,2.7c-0.7,0.7-1.6,1.1-2.7,1.1c-0.7,0-1.3-0.2-1.9-0.5s-1.1-0.7-1.4-1.3
			S208.4,122.8,208.4,122z M210.4,122.1c0,0.7,0.2,1.3,0.5,1.7s0.8,0.6,1.3,0.6c0.5,0,0.9-0.2,1.3-0.6c0.3-0.4,0.5-0.9,0.5-1.7
			c0-0.7-0.2-1.3-0.5-1.6c-0.3-0.4-0.8-0.6-1.3-0.6c-0.5,0-0.9,0.2-1.3,0.6S210.4,121.4,210.4,122.1z"/>
		<path class="st1" d="M216.7,123.7l1.9-0.3c0.1,0.4,0.2,0.7,0.5,0.9c0.3,0.2,0.6,0.3,1.1,0.3c0.5,0,0.9-0.1,1.1-0.3
			c0.2-0.1,0.3-0.3,0.3-0.5c0-0.1,0-0.3-0.1-0.4c-0.1-0.1-0.3-0.2-0.6-0.3c-1.5-0.3-2.5-0.7-2.9-0.9c-0.6-0.4-0.9-0.9-0.9-1.6
			c0-0.6,0.2-1.2,0.7-1.6s1.3-0.6,2.3-0.6c1,0,1.7,0.2,2.2,0.5s0.8,0.8,1,1.4l-1.8,0.3c-0.1-0.3-0.2-0.5-0.4-0.6
			c-0.2-0.2-0.5-0.2-0.9-0.2c-0.5,0-0.9,0.1-1.1,0.2c-0.1,0.1-0.2,0.2-0.2,0.4c0,0.1,0.1,0.3,0.2,0.3c0.2,0.1,0.8,0.3,1.8,0.5
			c1,0.2,1.7,0.5,2.1,0.9c0.4,0.3,0.6,0.8,0.6,1.4c0,0.7-0.3,1.2-0.8,1.7s-1.4,0.7-2.5,0.7c-1,0-1.8-0.2-2.3-0.6
			C217.3,124.9,216.9,124.4,216.7,123.7z"/>
		<path class="st1" d="M229.1,117.5v-1.8h1.9v1.8H229.1z M229.1,125.7v-7.3h1.9v7.3H229.1z"/>
		<path class="st1" d="M239.6,125.7h-1.9V122c0-0.8,0-1.3-0.1-1.5s-0.2-0.4-0.4-0.5c-0.2-0.1-0.4-0.2-0.7-0.2
			c-0.3,0-0.6,0.1-0.9,0.3s-0.4,0.4-0.5,0.7c-0.1,0.3-0.1,0.9-0.1,1.7v3.3h-1.9v-7.3h1.8v1.1c0.6-0.8,1.4-1.2,2.4-1.2
			c0.4,0,0.8,0.1,1.2,0.2s0.6,0.3,0.8,0.6c0.2,0.2,0.3,0.5,0.4,0.8c0.1,0.3,0.1,0.7,0.1,1.3V125.7z"/>
		<path class="st1" d="M240.8,123.7l1.9-0.3c0.1,0.4,0.2,0.7,0.5,0.9c0.3,0.2,0.6,0.3,1.1,0.3c0.5,0,0.9-0.1,1.1-0.3
			c0.2-0.1,0.3-0.3,0.3-0.5c0-0.1,0-0.3-0.1-0.4c-0.1-0.1-0.3-0.2-0.6-0.3c-1.5-0.3-2.5-0.7-2.9-0.9c-0.6-0.4-0.9-0.9-0.9-1.6
			c0-0.6,0.2-1.2,0.7-1.6s1.3-0.6,2.3-0.6c1,0,1.7,0.2,2.2,0.5s0.8,0.8,1,1.4l-1.8,0.3c-0.1-0.3-0.2-0.5-0.4-0.6
			c-0.2-0.2-0.5-0.2-0.9-0.2c-0.5,0-0.9,0.1-1.1,0.2c-0.1,0.1-0.2,0.2-0.2,0.4c0,0.1,0.1,0.3,0.2,0.3c0.2,0.1,0.8,0.3,1.8,0.5
			c1,0.2,1.7,0.5,2.1,0.9c0.4,0.3,0.6,0.8,0.6,1.4c0,0.7-0.3,1.2-0.8,1.7s-1.4,0.7-2.5,0.7c-1,0-1.8-0.2-2.3-0.6
			C241.4,124.9,241,124.4,240.8,123.7z"/>
		<path class="st1" d="M255.6,120.6l-1.9,0.3c-0.1-0.4-0.2-0.7-0.4-0.9c-0.2-0.2-0.5-0.3-0.9-0.3c-0.5,0-0.9,0.2-1.1,0.5
			c-0.3,0.3-0.4,0.9-0.4,1.7c0,0.9,0.1,1.5,0.4,1.8c0.3,0.4,0.7,0.5,1.2,0.5c0.4,0,0.7-0.1,0.9-0.3c0.2-0.2,0.4-0.6,0.5-1.1l1.9,0.3
			c-0.2,0.9-0.6,1.5-1.1,2c-0.6,0.4-1.3,0.7-2.2,0.7c-1.1,0-1.9-0.3-2.5-1c-0.6-0.7-0.9-1.6-0.9-2.8c0-1.2,0.3-2.1,1-2.8
			s1.5-1,2.6-1c0.9,0,1.6,0.2,2.1,0.6C255,119.3,255.4,119.8,255.6,120.6z"/>
		<path class="st1" d="M258.9,125.7H257v-7.3h1.8v1c0.3-0.5,0.6-0.8,0.8-1c0.2-0.2,0.5-0.2,0.8-0.2c0.4,0,0.9,0.1,1.3,0.4l-0.6,1.7
			c-0.3-0.2-0.6-0.3-0.9-0.3c-0.3,0-0.5,0.1-0.7,0.2s-0.3,0.4-0.4,0.8c-0.1,0.4-0.2,1.2-0.2,2.4V125.7z"/>
		<path class="st1" d="M262.5,117.5v-1.8h1.9v1.8H262.5z M262.5,125.7v-7.3h1.9v7.3H262.5z"/>
		<path class="st1" d="M266.4,118.5h1.8v1.1c0.2-0.4,0.5-0.7,0.9-0.9s0.8-0.3,1.3-0.3c0.8,0,1.6,0.3,2.1,1s0.9,1.6,0.9,2.8
			c0,1.2-0.3,2.2-0.9,2.8c-0.6,0.7-1.3,1-2.2,1c-0.4,0-0.8-0.1-1.1-0.2c-0.3-0.2-0.7-0.4-1-0.8v3.7h-1.9V118.5z M268.3,122
			c0,0.8,0.2,1.4,0.5,1.8s0.7,0.6,1.2,0.6c0.4,0,0.8-0.2,1.1-0.5c0.3-0.4,0.4-0.9,0.4-1.8c0-0.8-0.2-1.3-0.5-1.7s-0.7-0.6-1.1-0.6
			c-0.5,0-0.9,0.2-1.2,0.5S268.3,121.3,268.3,122z"/>
		<path class="st1" d="M281.3,120.6l-1.9,0.3c-0.1-0.4-0.2-0.7-0.4-0.9c-0.2-0.2-0.5-0.3-0.9-0.3c-0.5,0-0.9,0.2-1.1,0.5
			c-0.3,0.3-0.4,0.9-0.4,1.7c0,0.9,0.1,1.5,0.4,1.8c0.3,0.4,0.7,0.5,1.2,0.5c0.4,0,0.7-0.1,0.9-0.3c0.2-0.2,0.4-0.6,0.5-1.1l1.9,0.3
			c-0.2,0.9-0.6,1.5-1.1,2c-0.6,0.4-1.3,0.7-2.2,0.7c-1.1,0-1.9-0.3-2.5-1c-0.6-0.7-0.9-1.6-0.9-2.8c0-1.2,0.3-2.1,1-2.8
			s1.5-1,2.6-1c0.9,0,1.6,0.2,2.1,0.6C280.7,119.3,281.1,119.8,281.3,120.6z"/>
		<path class="st1" d="M282.8,117.5v-1.8h1.9v1.8H282.8z M282.8,125.7v-7.3h1.9v7.3H282.8z"/>
		<path class="st1" d="M286.2,122c0-0.6,0.2-1.3,0.5-1.9s0.8-1.1,1.3-1.4c0.6-0.3,1.2-0.5,1.9-0.5c1.1,0,2,0.4,2.7,1.1
			s1.1,1.6,1.1,2.7c0,1.1-0.4,2-1.1,2.7c-0.7,0.7-1.6,1.1-2.7,1.1c-0.7,0-1.3-0.2-1.9-0.5c-0.6-0.3-1.1-0.7-1.4-1.3
			S286.2,122.8,286.2,122z M288.2,122.1c0,0.7,0.2,1.3,0.5,1.7s0.8,0.6,1.3,0.6s0.9-0.2,1.3-0.6c0.3-0.4,0.5-0.9,0.5-1.7
			c0-0.7-0.2-1.3-0.5-1.6c-0.3-0.4-0.8-0.6-1.3-0.6s-0.9,0.2-1.3,0.6S288.2,121.4,288.2,122.1z"/>
		<path class="st1" d="M301.8,125.7h-1.9V122c0-0.8,0-1.3-0.1-1.5s-0.2-0.4-0.4-0.5c-0.2-0.1-0.4-0.2-0.7-0.2
			c-0.3,0-0.6,0.1-0.9,0.3s-0.4,0.4-0.5,0.7c-0.1,0.3-0.1,0.9-0.1,1.7v3.3h-1.9v-7.3h1.8v1.1c0.6-0.8,1.4-1.2,2.4-1.2
			c0.4,0,0.8,0.1,1.2,0.2s0.6,0.3,0.8,0.6c0.2,0.2,0.3,0.5,0.4,0.8c0.1,0.3,0.1,0.7,0.1,1.3V125.7z"/>
		<path class="st1" d="M308,123.4l1.9,0.3c-0.2,0.7-0.6,1.2-1.2,1.6c-0.5,0.4-1.2,0.5-2,0.5c-1.3,0-2.2-0.4-2.8-1.2
			c-0.5-0.7-0.7-1.5-0.7-2.5c0-1.2,0.3-2.1,0.9-2.8s1.4-1,2.4-1c1.1,0,1.9,0.4,2.6,1.1s0.9,1.8,0.9,3.3h-4.8c0,0.6,0.2,1,0.5,1.3
			c0.3,0.3,0.7,0.5,1.1,0.5c0.3,0,0.6-0.1,0.8-0.2S307.8,123.8,308,123.4z M308.1,121.5c0-0.6-0.2-1-0.4-1.3s-0.6-0.4-1-0.4
			c-0.4,0-0.8,0.2-1,0.5s-0.4,0.7-0.4,1.2H308.1z"/>
		<path class="st1" d="M310.9,123.7l1.9-0.3c0.1,0.4,0.2,0.7,0.5,0.9c0.3,0.2,0.6,0.3,1.1,0.3c0.5,0,0.9-0.1,1.1-0.3
			c0.2-0.1,0.3-0.3,0.3-0.5c0-0.1,0-0.3-0.1-0.4c-0.1-0.1-0.3-0.2-0.6-0.3c-1.5-0.3-2.5-0.7-2.9-0.9c-0.6-0.4-0.9-0.9-0.9-1.6
			c0-0.6,0.2-1.2,0.7-1.6s1.3-0.6,2.3-0.6c1,0,1.7,0.2,2.2,0.5s0.8,0.8,1,1.4l-1.8,0.3c-0.1-0.3-0.2-0.5-0.4-0.6
			c-0.2-0.2-0.5-0.2-0.9-0.2c-0.5,0-0.9,0.1-1.1,0.2c-0.1,0.1-0.2,0.2-0.2,0.4c0,0.1,0.1,0.3,0.2,0.3c0.2,0.1,0.8,0.3,1.8,0.5
			c1,0.2,1.7,0.5,2.1,0.9c0.4,0.3,0.6,0.8,0.6,1.4c0,0.7-0.3,1.2-0.8,1.7s-1.4,0.7-2.5,0.7c-1,0-1.8-0.2-2.3-0.6
			C311.4,124.9,311,124.4,310.9,123.7z"/>
		<path class="st1" d="M323.2,118.5h1.8v1.1c0.2-0.4,0.5-0.7,0.9-0.9s0.8-0.3,1.3-0.3c0.8,0,1.6,0.3,2.1,1s0.9,1.6,0.9,2.8
			c0,1.2-0.3,2.2-0.9,2.8c-0.6,0.7-1.3,1-2.2,1c-0.4,0-0.8-0.1-1.1-0.2c-0.3-0.2-0.7-0.4-1-0.8v3.7h-1.9V118.5z M325.1,122
			c0,0.8,0.2,1.4,0.5,1.8s0.7,0.6,1.2,0.6c0.4,0,0.8-0.2,1.1-0.5c0.3-0.4,0.4-0.9,0.4-1.8c0-0.8-0.2-1.3-0.5-1.7s-0.7-0.6-1.1-0.6
			c-0.5,0-0.9,0.2-1.2,0.5S325.1,121.3,325.1,122z"/>
		<path class="st1" d="M333.2,120.7l-1.7-0.3c0.2-0.7,0.5-1.2,1-1.6s1.2-0.5,2.1-0.5c0.9,0,1.5,0.1,1.9,0.3s0.7,0.5,0.9,0.8
			c0.2,0.3,0.3,0.9,0.3,1.7l0,2.2c0,0.6,0,1.1,0.1,1.4c0.1,0.3,0.2,0.6,0.3,1h-1.9c0-0.1-0.1-0.3-0.2-0.6c0-0.1-0.1-0.2-0.1-0.2
			c-0.3,0.3-0.7,0.6-1.1,0.7c-0.4,0.2-0.8,0.2-1.2,0.2c-0.7,0-1.3-0.2-1.8-0.6c-0.4-0.4-0.6-0.9-0.6-1.5c0-0.4,0.1-0.8,0.3-1.1
			s0.5-0.6,0.8-0.7c0.4-0.2,0.9-0.3,1.5-0.4c0.9-0.2,1.5-0.3,1.9-0.5v-0.2c0-0.4-0.1-0.6-0.3-0.8s-0.5-0.2-1-0.2
			c-0.3,0-0.6,0.1-0.8,0.2S333.3,120.4,333.2,120.7z M335.8,122.3c-0.2,0.1-0.6,0.2-1.2,0.3c-0.5,0.1-0.9,0.2-1,0.3
			c-0.3,0.2-0.4,0.4-0.4,0.7c0,0.3,0.1,0.5,0.3,0.7c0.2,0.2,0.5,0.3,0.8,0.3c0.3,0,0.7-0.1,1-0.3c0.2-0.2,0.4-0.4,0.5-0.6
			c0-0.2,0.1-0.5,0.1-0.9V122.3z"/>
		<path class="st1" d="M341.4,125.7h-1.9v-7.3h1.8v1c0.3-0.5,0.6-0.8,0.8-1c0.2-0.2,0.5-0.2,0.8-0.2c0.4,0,0.9,0.1,1.3,0.4l-0.6,1.7
			c-0.3-0.2-0.6-0.3-0.9-0.3c-0.3,0-0.5,0.1-0.7,0.2s-0.3,0.4-0.4,0.8c-0.1,0.4-0.2,1.2-0.2,2.4V125.7z"/>
		<path class="st1" d="M346.4,120.7l-1.7-0.3c0.2-0.7,0.5-1.2,1-1.6s1.2-0.5,2.1-0.5c0.9,0,1.5,0.1,1.9,0.3s0.7,0.5,0.9,0.8
			c0.2,0.3,0.3,0.9,0.3,1.7l0,2.2c0,0.6,0,1.1,0.1,1.4c0.1,0.3,0.2,0.6,0.3,1h-1.9c0-0.1-0.1-0.3-0.2-0.6c0-0.1-0.1-0.2-0.1-0.2
			c-0.3,0.3-0.7,0.6-1.1,0.7c-0.4,0.2-0.8,0.2-1.2,0.2c-0.7,0-1.3-0.2-1.8-0.6c-0.4-0.4-0.6-0.9-0.6-1.5c0-0.4,0.1-0.8,0.3-1.1
			s0.5-0.6,0.8-0.7c0.4-0.2,0.9-0.3,1.5-0.4c0.9-0.2,1.5-0.3,1.9-0.5v-0.2c0-0.4-0.1-0.6-0.3-0.8s-0.5-0.2-1-0.2
			c-0.3,0-0.6,0.1-0.8,0.2S346.5,120.4,346.4,120.7z M349,122.3c-0.2,0.1-0.6,0.2-1.2,0.3c-0.5,0.1-0.9,0.2-1,0.3
			c-0.3,0.2-0.4,0.4-0.4,0.7c0,0.3,0.1,0.5,0.3,0.7c0.2,0.2,0.5,0.3,0.8,0.3c0.3,0,0.7-0.1,1-0.3c0.2-0.2,0.4-0.4,0.5-0.6
			c0-0.2,0.1-0.5,0.1-0.9V122.3z"/>
		<path class="st1" d="M356.7,125.7v-10h1.9v10H356.7z"/>
		<path class="st1" d="M362,120.7l-1.7-0.3c0.2-0.7,0.5-1.2,1-1.6s1.2-0.5,2.1-0.5c0.9,0,1.5,0.1,1.9,0.3s0.7,0.5,0.9,0.8
			c0.2,0.3,0.3,0.9,0.3,1.7l0,2.2c0,0.6,0,1.1,0.1,1.4c0.1,0.3,0.2,0.6,0.3,1H365c0-0.1-0.1-0.3-0.2-0.6c0-0.1-0.1-0.2-0.1-0.2
			c-0.3,0.3-0.7,0.6-1.1,0.7c-0.4,0.2-0.8,0.2-1.2,0.2c-0.7,0-1.3-0.2-1.8-0.6c-0.4-0.4-0.6-0.9-0.6-1.5c0-0.4,0.1-0.8,0.3-1.1
			s0.5-0.6,0.8-0.7c0.4-0.2,0.9-0.3,1.5-0.4c0.9-0.2,1.5-0.3,1.9-0.5v-0.2c0-0.4-0.1-0.6-0.3-0.8s-0.5-0.2-1-0.2
			c-0.3,0-0.6,0.1-0.8,0.2S362.1,120.4,362,120.7z M364.6,122.3c-0.2,0.1-0.6,0.2-1.2,0.3c-0.5,0.1-0.9,0.2-1,0.3
			c-0.3,0.2-0.4,0.4-0.4,0.7c0,0.3,0.1,0.5,0.3,0.7c0.2,0.2,0.5,0.3,0.8,0.3c0.3,0,0.7-0.1,1-0.3c0.2-0.2,0.4-0.4,0.5-0.6
			c0-0.2,0.1-0.5,0.1-0.9V122.3z"/>
		<path class="st1" d="M59.4,139.7v-10h7.4v1.7h-5.4v2.2h5v1.7h-5v2.7h5.6v1.7H59.4z"/>
		<path class="st1" d="M68.1,137.7l1.9-0.3c0.1,0.4,0.2,0.7,0.5,0.9c0.3,0.2,0.6,0.3,1.1,0.3c0.5,0,0.9-0.1,1.1-0.3
			c0.2-0.1,0.3-0.3,0.3-0.5c0-0.1,0-0.3-0.1-0.4c-0.1-0.1-0.3-0.2-0.6-0.3c-1.5-0.3-2.5-0.7-2.9-0.9c-0.6-0.4-0.9-0.9-0.9-1.6
			c0-0.6,0.2-1.2,0.7-1.6c0.5-0.4,1.3-0.6,2.3-0.6c1,0,1.7,0.2,2.2,0.5c0.5,0.3,0.8,0.8,1,1.4l-1.8,0.3c-0.1-0.3-0.2-0.5-0.4-0.6
			s-0.5-0.2-0.9-0.2c-0.5,0-0.9,0.1-1.1,0.2c-0.1,0.1-0.2,0.2-0.2,0.4c0,0.1,0.1,0.3,0.2,0.3c0.2,0.1,0.8,0.3,1.8,0.5
			s1.7,0.5,2.1,0.9c0.4,0.3,0.6,0.8,0.6,1.4c0,0.7-0.3,1.2-0.8,1.7s-1.4,0.7-2.5,0.7c-1,0-1.8-0.2-2.3-0.6
			C68.7,138.9,68.3,138.4,68.1,137.7z"/>
		<path class="st1" d="M82.9,134.6L81,135c-0.1-0.4-0.2-0.7-0.4-0.9s-0.5-0.3-0.9-0.3c-0.5,0-0.9,0.2-1.1,0.5
			c-0.3,0.3-0.4,0.9-0.4,1.7c0,0.9,0.1,1.5,0.4,1.8s0.7,0.5,1.2,0.5c0.4,0,0.7-0.1,0.9-0.3c0.2-0.2,0.4-0.6,0.5-1.1l1.9,0.3
			c-0.2,0.9-0.6,1.5-1.1,2c-0.6,0.4-1.3,0.7-2.2,0.7c-1.1,0-1.9-0.3-2.5-1s-0.9-1.6-0.9-2.8c0-1.2,0.3-2.1,1-2.8
			c0.6-0.7,1.5-1,2.6-1c0.9,0,1.6,0.2,2.1,0.6C82.3,133.3,82.7,133.8,82.9,134.6z"/>
		<path class="st1" d="M89.1,139.7v-1.1c-0.3,0.4-0.6,0.7-1,0.9c-0.4,0.2-0.9,0.3-1.4,0.3c-0.5,0-0.9-0.1-1.3-0.3
			c-0.4-0.2-0.7-0.5-0.8-0.9c-0.2-0.4-0.3-0.9-0.3-1.6v-4.6h1.9v3.3c0,1,0,1.6,0.1,1.9c0.1,0.2,0.2,0.4,0.4,0.5
			c0.2,0.1,0.4,0.2,0.7,0.2c0.3,0,0.6-0.1,0.9-0.3c0.3-0.2,0.4-0.4,0.5-0.7s0.1-0.9,0.1-2v-3.1h1.9v7.3H89.1z"/>
		<path class="st1" d="M97.1,137.4l1.9,0.3c-0.2,0.7-0.6,1.2-1.2,1.6c-0.5,0.4-1.2,0.5-2,0.5c-1.3,0-2.2-0.4-2.8-1.2
			c-0.5-0.7-0.7-1.5-0.7-2.5c0-1.2,0.3-2.1,0.9-2.8c0.6-0.7,1.4-1,2.4-1c1.1,0,1.9,0.4,2.6,1.1c0.6,0.7,0.9,1.8,0.9,3.3h-4.8
			c0,0.6,0.2,1,0.5,1.3c0.3,0.3,0.7,0.5,1.1,0.5c0.3,0,0.6-0.1,0.8-0.2S97,137.8,97.1,137.4z M97.2,135.5c0-0.6-0.2-1-0.4-1.3
			c-0.3-0.3-0.6-0.4-1-0.4c-0.4,0-0.8,0.2-1,0.5c-0.3,0.3-0.4,0.7-0.4,1.2H97.2z"/>
		<path class="st1" d="M100.7,139.7v-10h1.9v10H100.7z"/>
		<path class="st1" d="M106,134.7l-1.7-0.3c0.2-0.7,0.5-1.2,1-1.6c0.5-0.3,1.2-0.5,2.1-0.5c0.9,0,1.5,0.1,1.9,0.3
			c0.4,0.2,0.7,0.5,0.9,0.8c0.2,0.3,0.3,0.9,0.3,1.7l0,2.2c0,0.6,0,1.1,0.1,1.4c0.1,0.3,0.2,0.6,0.3,1H109c-0.1-0.1-0.1-0.3-0.2-0.6
			c0-0.1-0.1-0.2-0.1-0.2c-0.3,0.3-0.7,0.6-1.1,0.7c-0.4,0.2-0.8,0.2-1.2,0.2c-0.7,0-1.3-0.2-1.8-0.6c-0.4-0.4-0.6-0.9-0.6-1.5
			c0-0.4,0.1-0.8,0.3-1.1s0.5-0.6,0.8-0.7s0.9-0.3,1.5-0.4c0.9-0.2,1.5-0.3,1.9-0.5v-0.2c0-0.4-0.1-0.6-0.3-0.8s-0.5-0.2-1-0.2
			c-0.3,0-0.6,0.1-0.8,0.2C106.3,134.1,106.1,134.4,106,134.7z M108.6,136.3c-0.2,0.1-0.6,0.2-1.2,0.3c-0.5,0.1-0.9,0.2-1,0.3
			c-0.3,0.2-0.4,0.4-0.4,0.7c0,0.3,0.1,0.5,0.3,0.7c0.2,0.2,0.5,0.3,0.8,0.3c0.3,0,0.7-0.1,1-0.3c0.2-0.2,0.4-0.4,0.5-0.6
			c0.1-0.2,0.1-0.5,0.1-0.9V136.3z"/>
		<path class="st1" d="M122.9,139.7h-1.8v-1.1c-0.3,0.4-0.6,0.7-1,0.9c-0.4,0.2-0.8,0.3-1.2,0.3c-0.8,0-1.5-0.3-2.1-1
			c-0.6-0.7-0.9-1.6-0.9-2.8c0-1.2,0.3-2.2,0.9-2.8c0.6-0.6,1.3-1,2.2-1c0.8,0,1.5,0.3,2.1,1v-3.6h1.9V139.7z M117.8,135.9
			c0,0.8,0.1,1.3,0.3,1.7c0.3,0.5,0.7,0.8,1.3,0.8c0.4,0,0.8-0.2,1.1-0.6s0.5-0.9,0.5-1.7c0-0.8-0.2-1.4-0.5-1.8
			c-0.3-0.4-0.7-0.6-1.2-0.6c-0.5,0-0.8,0.2-1.1,0.5S117.8,135.2,117.8,135.9z"/>
		<path class="st1" d="M129,137.4l1.9,0.3c-0.2,0.7-0.6,1.2-1.2,1.6c-0.5,0.4-1.2,0.5-2,0.5c-1.3,0-2.2-0.4-2.8-1.2
			c-0.5-0.7-0.7-1.5-0.7-2.5c0-1.2,0.3-2.1,0.9-2.8c0.6-0.7,1.4-1,2.4-1c1.1,0,1.9,0.4,2.6,1.1c0.6,0.7,0.9,1.8,0.9,3.3h-4.8
			c0,0.6,0.2,1,0.5,1.3c0.3,0.3,0.7,0.5,1.1,0.5c0.3,0,0.6-0.1,0.8-0.2S128.9,137.8,129,137.4z M129.1,135.5c0-0.6-0.2-1-0.4-1.3
			c-0.3-0.3-0.6-0.4-1-0.4c-0.4,0-0.8,0.2-1,0.5c-0.3,0.3-0.4,0.7-0.4,1.2H129.1z"/>
		<path class="st1" d="M142.9,136.1l2,0.6c-0.3,1.1-0.8,1.9-1.5,2.4c-0.7,0.5-1.6,0.8-2.7,0.8c-1.3,0-2.4-0.5-3.3-1.4
			s-1.3-2.2-1.3-3.7c0-1.7,0.4-3,1.3-3.9s2-1.4,3.4-1.4c1.2,0,2.2,0.4,3,1.1c0.5,0.4,0.8,1,1,1.8l-2,0.5c-0.1-0.5-0.4-0.9-0.7-1.2
			s-0.8-0.5-1.4-0.5c-0.7,0-1.3,0.3-1.8,0.8s-0.7,1.4-0.7,2.6c0,1.3,0.2,2.2,0.7,2.7c0.5,0.5,1,0.8,1.8,0.8c0.5,0,1-0.2,1.4-0.5
			S142.7,136.8,142.9,136.1z"/>
		<path class="st1" d="M148,134.7l-1.7-0.3c0.2-0.7,0.5-1.2,1-1.6c0.5-0.3,1.2-0.5,2.1-0.5c0.9,0,1.5,0.1,1.9,0.3
			c0.4,0.2,0.7,0.5,0.9,0.8c0.2,0.3,0.3,0.9,0.3,1.7l0,2.2c0,0.6,0,1.1,0.1,1.4c0.1,0.3,0.2,0.6,0.3,1H151c-0.1-0.1-0.1-0.3-0.2-0.6
			c0-0.1-0.1-0.2-0.1-0.2c-0.3,0.3-0.7,0.6-1.1,0.7c-0.4,0.2-0.8,0.2-1.2,0.2c-0.7,0-1.3-0.2-1.8-0.6c-0.4-0.4-0.6-0.9-0.6-1.5
			c0-0.4,0.1-0.8,0.3-1.1s0.5-0.6,0.8-0.7s0.9-0.3,1.5-0.4c0.9-0.2,1.5-0.3,1.9-0.5v-0.2c0-0.4-0.1-0.6-0.3-0.8s-0.5-0.2-1-0.2
			c-0.3,0-0.6,0.1-0.8,0.2C148.3,134.1,148.1,134.4,148,134.7z M150.6,136.3c-0.2,0.1-0.6,0.2-1.2,0.3c-0.5,0.1-0.9,0.2-1,0.3
			c-0.3,0.2-0.4,0.4-0.4,0.7c0,0.3,0.1,0.5,0.3,0.7c0.2,0.2,0.5,0.3,0.8,0.3c0.3,0,0.7-0.1,1-0.3c0.2-0.2,0.4-0.4,0.5-0.6
			c0.1-0.2,0.1-0.5,0.1-0.9V136.3z"/>
		<path class="st1" d="M161,139.7h-1.8v-1.1c-0.3,0.4-0.6,0.7-1,0.9c-0.4,0.2-0.8,0.3-1.2,0.3c-0.8,0-1.5-0.3-2.1-1
			c-0.6-0.7-0.9-1.6-0.9-2.8c0-1.2,0.3-2.2,0.9-2.8c0.6-0.6,1.3-1,2.2-1c0.8,0,1.5,0.3,2.1,1v-3.6h1.9V139.7z M155.9,135.9
			c0,0.8,0.1,1.3,0.3,1.7c0.3,0.5,0.7,0.8,1.3,0.8c0.4,0,0.8-0.2,1.1-0.6s0.5-0.9,0.5-1.7c0-0.8-0.2-1.4-0.5-1.8
			c-0.3-0.4-0.7-0.6-1.2-0.6c-0.5,0-0.8,0.2-1.1,0.5S155.9,135.2,155.9,135.9z"/>
		<path class="st1" d="M167.1,137.4l1.9,0.3c-0.2,0.7-0.6,1.2-1.2,1.6c-0.5,0.4-1.2,0.5-2,0.5c-1.3,0-2.2-0.4-2.8-1.2
			c-0.5-0.7-0.7-1.5-0.7-2.5c0-1.2,0.3-2.1,0.9-2.8c0.6-0.7,1.4-1,2.4-1c1.1,0,1.9,0.4,2.6,1.1c0.6,0.7,0.9,1.8,0.9,3.3h-4.8
			c0,0.6,0.2,1,0.5,1.3c0.3,0.3,0.7,0.5,1.1,0.5c0.3,0,0.6-0.1,0.8-0.2S167,137.8,167.1,137.4z M167.2,135.5c0-0.6-0.2-1-0.4-1.3
			c-0.3-0.3-0.6-0.4-1-0.4c-0.4,0-0.8,0.2-1,0.5c-0.3,0.3-0.4,0.7-0.4,1.2H167.2z"/>
		<path class="st1" d="M174,132.5v1.5h-1.3v2.9c0,0.6,0,0.9,0,1c0,0.1,0.1,0.2,0.2,0.2c0.1,0.1,0.2,0.1,0.3,0.1
			c0.2,0,0.4-0.1,0.8-0.2l0.2,1.5c-0.4,0.2-1,0.3-1.5,0.3c-0.3,0-0.7-0.1-0.9-0.2s-0.5-0.3-0.6-0.5s-0.2-0.4-0.3-0.7
			c0-0.2-0.1-0.7-0.1-1.4V134h-0.9v-1.5h0.9V131l1.9-1.1v2.6H174z"/>
		<path class="st1" d="M179.6,137.4l1.9,0.3c-0.2,0.7-0.6,1.2-1.2,1.6c-0.5,0.4-1.2,0.5-2,0.5c-1.3,0-2.2-0.4-2.8-1.2
			c-0.5-0.7-0.7-1.5-0.7-2.5c0-1.2,0.3-2.1,0.9-2.8c0.6-0.7,1.4-1,2.4-1c1.1,0,1.9,0.4,2.6,1.1c0.6,0.7,0.9,1.8,0.9,3.3h-4.8
			c0,0.6,0.2,1,0.5,1.3c0.3,0.3,0.7,0.5,1.1,0.5c0.3,0,0.6-0.1,0.8-0.2S179.5,137.8,179.6,137.4z M179.7,135.5c0-0.6-0.2-1-0.4-1.3
			c-0.3-0.3-0.6-0.4-1-0.4c-0.4,0-0.8,0.2-1,0.5c-0.3,0.3-0.4,0.7-0.4,1.2H179.7z"/>
		<path class="st1" d="M182.5,137.7l1.9-0.3c0.1,0.4,0.2,0.7,0.5,0.9c0.3,0.2,0.6,0.3,1.1,0.3c0.5,0,0.9-0.1,1.1-0.3
			c0.2-0.1,0.3-0.3,0.3-0.5c0-0.1,0-0.3-0.1-0.4c-0.1-0.1-0.3-0.2-0.6-0.3c-1.5-0.3-2.5-0.7-2.9-0.9c-0.6-0.4-0.9-0.9-0.9-1.6
			c0-0.6,0.2-1.2,0.7-1.6c0.5-0.4,1.3-0.6,2.3-0.6c1,0,1.7,0.2,2.2,0.5c0.5,0.3,0.8,0.8,1,1.4l-1.8,0.3c-0.1-0.3-0.2-0.5-0.4-0.6
			s-0.5-0.2-0.9-0.2c-0.5,0-0.9,0.1-1.1,0.2c-0.1,0.1-0.2,0.2-0.2,0.4c0,0.1,0.1,0.3,0.2,0.3c0.2,0.1,0.8,0.3,1.8,0.5
			s1.7,0.5,2.1,0.9c0.4,0.3,0.6,0.8,0.6,1.4c0,0.7-0.3,1.2-0.8,1.7s-1.4,0.7-2.5,0.7c-1,0-1.8-0.2-2.3-0.6
			C183,138.9,182.7,138.4,182.5,137.7z"/>
		<path class="st1" d="M193.9,132.5h2l1.7,5.2l1.7-5.2h2l-2.6,7l-0.5,1.3c-0.2,0.4-0.3,0.7-0.5,1c-0.2,0.2-0.3,0.4-0.5,0.5
			c-0.2,0.1-0.4,0.2-0.7,0.3c-0.3,0.1-0.6,0.1-1,0.1c-0.4,0-0.7,0-1.1-0.1l-0.2-1.5c0.3,0.1,0.6,0.1,0.8,0.1c0.4,0,0.8-0.1,1-0.4
			c0.2-0.3,0.4-0.6,0.5-1L193.9,132.5z"/>
		<path class="st1" d="M206.5,139.7v-10h7.4v1.7h-5.4v2.2h5v1.7h-5v2.7h5.6v1.7H206.5z"/>
		<path class="st1" d="M215.2,137.7l1.9-0.3c0.1,0.4,0.2,0.7,0.5,0.9c0.3,0.2,0.6,0.3,1.1,0.3c0.5,0,0.9-0.1,1.1-0.3
			c0.2-0.1,0.3-0.3,0.3-0.5c0-0.1,0-0.3-0.1-0.4c-0.1-0.1-0.3-0.2-0.6-0.3c-1.5-0.3-2.5-0.7-2.9-0.9c-0.6-0.4-0.9-0.9-0.9-1.6
			c0-0.6,0.2-1.2,0.7-1.6c0.5-0.4,1.3-0.6,2.3-0.6c1,0,1.7,0.2,2.2,0.5c0.5,0.3,0.8,0.8,1,1.4l-1.8,0.3c-0.1-0.3-0.2-0.5-0.4-0.6
			c-0.2-0.2-0.5-0.2-0.9-0.2c-0.5,0-0.9,0.1-1.1,0.2c-0.1,0.1-0.2,0.2-0.2,0.4c0,0.1,0.1,0.3,0.2,0.3c0.2,0.1,0.8,0.3,1.8,0.5
			c1,0.2,1.7,0.5,2.1,0.9c0.4,0.3,0.6,0.8,0.6,1.4c0,0.7-0.3,1.2-0.8,1.7s-1.4,0.7-2.5,0.7c-1,0-1.8-0.2-2.3-0.6
			C215.7,138.9,215.3,138.4,215.2,137.7z"/>
		<path class="st1" d="M230,134.6l-1.9,0.3c-0.1-0.4-0.2-0.7-0.4-0.9c-0.2-0.2-0.5-0.3-0.9-0.3c-0.5,0-0.9,0.2-1.1,0.5
			c-0.3,0.3-0.4,0.9-0.4,1.7c0,0.9,0.1,1.5,0.4,1.8c0.3,0.4,0.7,0.5,1.2,0.5c0.4,0,0.7-0.1,0.9-0.3c0.2-0.2,0.4-0.6,0.5-1.1l1.9,0.3
			c-0.2,0.9-0.6,1.5-1.1,2c-0.6,0.4-1.3,0.7-2.2,0.7c-1.1,0-1.9-0.3-2.5-1c-0.6-0.7-0.9-1.6-0.9-2.8c0-1.2,0.3-2.1,1-2.8
			c0.6-0.7,1.5-1,2.6-1c0.9,0,1.6,0.2,2.1,0.6C229.4,133.3,229.7,133.8,230,134.6z"/>
		<path class="st1" d="M236.2,139.7v-1.1c-0.3,0.4-0.6,0.7-1,0.9c-0.4,0.2-0.9,0.3-1.4,0.3c-0.5,0-0.9-0.1-1.3-0.3
			c-0.4-0.2-0.7-0.5-0.8-0.9c-0.2-0.4-0.3-0.9-0.3-1.6v-4.6h1.9v3.3c0,1,0,1.6,0.1,1.9c0.1,0.2,0.2,0.4,0.4,0.5
			c0.2,0.1,0.4,0.2,0.7,0.2c0.3,0,0.6-0.1,0.9-0.3c0.3-0.2,0.4-0.4,0.5-0.7s0.1-0.9,0.1-2v-3.1h1.9v7.3H236.2z"/>
		<path class="st1" d="M244.2,137.4l1.9,0.3c-0.2,0.7-0.6,1.2-1.2,1.6c-0.5,0.4-1.2,0.5-2,0.5c-1.3,0-2.2-0.4-2.8-1.2
			c-0.5-0.7-0.7-1.5-0.7-2.5c0-1.2,0.3-2.1,0.9-2.8c0.6-0.7,1.4-1,2.4-1c1.1,0,1.9,0.4,2.6,1.1c0.6,0.7,0.9,1.8,0.9,3.3h-4.8
			c0,0.6,0.2,1,0.5,1.3c0.3,0.3,0.7,0.5,1.1,0.5c0.3,0,0.6-0.1,0.8-0.2S244.1,137.8,244.2,137.4z M244.3,135.5c0-0.6-0.2-1-0.4-1.3
			c-0.3-0.3-0.6-0.4-1-0.4c-0.4,0-0.8,0.2-1,0.5c-0.3,0.3-0.4,0.7-0.4,1.2H244.3z"/>
		<path class="st1" d="M247.8,139.7v-10h1.9v10H247.8z"/>
		<path class="st1" d="M253.1,134.7l-1.7-0.3c0.2-0.7,0.5-1.2,1-1.6c0.5-0.3,1.2-0.5,2.1-0.5c0.9,0,1.5,0.1,1.9,0.3
			c0.4,0.2,0.7,0.5,0.9,0.8c0.2,0.3,0.3,0.9,0.3,1.7l0,2.2c0,0.6,0,1.1,0.1,1.4c0.1,0.3,0.2,0.6,0.3,1h-1.9c0-0.1-0.1-0.3-0.2-0.6
			c0-0.1-0.1-0.2-0.1-0.2c-0.3,0.3-0.7,0.6-1.1,0.7c-0.4,0.2-0.8,0.2-1.2,0.2c-0.7,0-1.3-0.2-1.8-0.6c-0.4-0.4-0.6-0.9-0.6-1.5
			c0-0.4,0.1-0.8,0.3-1.1s0.5-0.6,0.8-0.7c0.4-0.2,0.9-0.3,1.5-0.4c0.9-0.2,1.5-0.3,1.9-0.5v-0.2c0-0.4-0.1-0.6-0.3-0.8
			s-0.5-0.2-1-0.2c-0.3,0-0.6,0.1-0.8,0.2C253.4,134.1,253.2,134.4,253.1,134.7z M255.7,136.3c-0.2,0.1-0.6,0.2-1.2,0.3
			c-0.5,0.1-0.9,0.2-1,0.3c-0.3,0.2-0.4,0.4-0.4,0.7c0,0.3,0.1,0.5,0.3,0.7c0.2,0.2,0.5,0.3,0.8,0.3c0.3,0,0.7-0.1,1-0.3
			c0.2-0.2,0.4-0.4,0.5-0.6c0-0.2,0.1-0.5,0.1-0.9V136.3z"/>
		<path class="st1" d="M270,139.7h-1.8v-1.1c-0.3,0.4-0.6,0.7-1,0.9c-0.4,0.2-0.8,0.3-1.2,0.3c-0.8,0-1.5-0.3-2.1-1
			c-0.6-0.7-0.9-1.6-0.9-2.8c0-1.2,0.3-2.2,0.9-2.8c0.6-0.6,1.3-1,2.2-1c0.8,0,1.5,0.3,2.1,1v-3.6h1.9V139.7z M264.9,135.9
			c0,0.8,0.1,1.3,0.3,1.7c0.3,0.5,0.7,0.8,1.3,0.8c0.4,0,0.8-0.2,1.1-0.6s0.5-0.9,0.5-1.7c0-0.8-0.2-1.4-0.5-1.8
			c-0.3-0.4-0.7-0.6-1.2-0.6c-0.5,0-0.8,0.2-1.1,0.5C265,134.7,264.9,135.2,264.9,135.9z"/>
		<path class="st1" d="M276.1,137.4l1.9,0.3c-0.2,0.7-0.6,1.2-1.2,1.6c-0.5,0.4-1.2,0.5-2,0.5c-1.3,0-2.2-0.4-2.8-1.2
			c-0.5-0.7-0.7-1.5-0.7-2.5c0-1.2,0.3-2.1,0.9-2.8c0.6-0.7,1.4-1,2.4-1c1.1,0,1.9,0.4,2.6,1.1c0.6,0.7,0.9,1.8,0.9,3.3h-4.8
			c0,0.6,0.2,1,0.5,1.3c0.3,0.3,0.7,0.5,1.1,0.5c0.3,0,0.6-0.1,0.8-0.2S276,137.8,276.1,137.4z M276.2,135.5c0-0.6-0.2-1-0.4-1.3
			c-0.3-0.3-0.6-0.4-1-0.4c-0.4,0-0.8,0.2-1,0.5c-0.3,0.3-0.4,0.7-0.4,1.2H276.2z"/>
		<path class="st1" d="M283.1,136.5l2-0.2c0.1,0.7,0.4,1.1,0.7,1.5c0.4,0.3,0.9,0.5,1.5,0.5c0.7,0,1.1-0.1,1.5-0.4
			c0.3-0.3,0.5-0.6,0.5-1c0-0.2-0.1-0.4-0.2-0.6c-0.1-0.2-0.4-0.3-0.7-0.4c-0.2-0.1-0.8-0.2-1.6-0.4c-1.1-0.3-1.8-0.6-2.3-1
			c-0.6-0.6-0.9-1.2-0.9-2c0-0.5,0.1-1,0.4-1.4c0.3-0.4,0.7-0.8,1.2-1c0.5-0.2,1.2-0.3,2-0.3c1.3,0,2.2,0.3,2.8,0.8
			c0.6,0.6,1,1.3,1,2.2l-2,0.1c-0.1-0.5-0.3-0.9-0.6-1.1c-0.3-0.2-0.7-0.3-1.3-0.3c-0.6,0-1,0.1-1.4,0.4c-0.2,0.2-0.3,0.4-0.3,0.6
			c0,0.2,0.1,0.4,0.3,0.6c0.3,0.2,0.9,0.4,1.9,0.7s1.7,0.5,2.2,0.7c0.5,0.2,0.8,0.6,1.1,1c0.3,0.4,0.4,1,0.4,1.6
			c0,0.6-0.2,1.1-0.5,1.6c-0.3,0.5-0.8,0.9-1.4,1.1c-0.6,0.2-1.3,0.4-2.2,0.4c-1.3,0-2.2-0.3-2.9-0.9
			C283.6,138.5,283.2,137.6,283.1,136.5z"/>
		<path class="st1" d="M297.7,139.7v-1.1c-0.3,0.4-0.6,0.7-1,0.9c-0.4,0.2-0.9,0.3-1.4,0.3c-0.5,0-0.9-0.1-1.3-0.3
			c-0.4-0.2-0.7-0.5-0.8-0.9c-0.2-0.4-0.3-0.9-0.3-1.6v-4.6h1.9v3.3c0,1,0,1.6,0.1,1.9c0.1,0.2,0.2,0.4,0.4,0.5
			c0.2,0.1,0.4,0.2,0.7,0.2c0.3,0,0.6-0.1,0.9-0.3c0.3-0.2,0.4-0.4,0.5-0.7s0.1-0.9,0.1-2v-3.1h1.9v7.3H297.7z"/>
		<path class="st1" d="M301.4,139.7v-10h1.9v3.6c0.6-0.7,1.3-1,2.1-1c0.9,0,1.6,0.3,2.2,1c0.6,0.6,0.9,1.6,0.9,2.8
			c0,1.2-0.3,2.2-0.9,2.9c-0.6,0.7-1.3,1-2.2,1c-0.4,0-0.8-0.1-1.2-0.3c-0.4-0.2-0.8-0.5-1-0.9v1.1H301.4z M303.3,135.9
			c0,0.8,0.1,1.3,0.4,1.7c0.3,0.5,0.8,0.8,1.3,0.8c0.4,0,0.8-0.2,1.1-0.5c0.3-0.4,0.4-0.9,0.4-1.7c0-0.8-0.2-1.4-0.5-1.8
			c-0.3-0.4-0.7-0.6-1.2-0.6c-0.5,0-0.8,0.2-1.1,0.5C303.4,134.7,303.3,135.2,303.3,135.9z"/>
		<path class="st1" d="M309.5,136c0-0.6,0.2-1.3,0.5-1.9c0.3-0.6,0.8-1.1,1.3-1.4c0.6-0.3,1.2-0.5,1.9-0.5c1.1,0,2,0.4,2.7,1.1
			c0.7,0.7,1.1,1.6,1.1,2.7c0,1.1-0.4,2-1.1,2.7c-0.7,0.7-1.6,1.1-2.7,1.1c-0.7,0-1.3-0.2-1.9-0.5c-0.6-0.3-1.1-0.7-1.4-1.3
			S309.5,136.8,309.5,136z M311.5,136.1c0,0.7,0.2,1.3,0.5,1.7s0.8,0.6,1.3,0.6s0.9-0.2,1.3-0.6c0.3-0.4,0.5-0.9,0.5-1.7
			c0-0.7-0.2-1.3-0.5-1.6c-0.3-0.4-0.8-0.6-1.3-0.6s-0.9,0.2-1.3,0.6S311.5,135.4,311.5,136.1z"/>
		<path class="st1" d="M317.7,132.5h1.1v-0.5c0-0.6,0.1-1.1,0.2-1.4c0.1-0.3,0.4-0.5,0.7-0.7c0.3-0.2,0.8-0.3,1.3-0.3
			c0.5,0,1.1,0.1,1.6,0.2l-0.3,1.3c-0.3-0.1-0.6-0.1-0.9-0.1c-0.3,0-0.5,0.1-0.6,0.2c-0.1,0.1-0.2,0.4-0.2,0.7v0.5h1.4v1.5h-1.4v5.7
			h-1.9V134h-1.1V132.5z"/>
		<path class="st1" d="M323.2,131.5v-1.8h1.9v1.8H323.2z M323.2,139.7v-7.3h1.9v7.3H323.2z"/>
		<path class="st1" d="M333.4,134.6l-1.9,0.3c-0.1-0.4-0.2-0.7-0.4-0.9c-0.2-0.2-0.5-0.3-0.9-0.3c-0.5,0-0.9,0.2-1.1,0.5
			c-0.3,0.3-0.4,0.9-0.4,1.7c0,0.9,0.1,1.5,0.4,1.8c0.3,0.4,0.7,0.5,1.2,0.5c0.4,0,0.7-0.1,0.9-0.3c0.2-0.2,0.4-0.6,0.5-1.1l1.9,0.3
			c-0.2,0.9-0.6,1.5-1.1,2c-0.6,0.4-1.3,0.7-2.2,0.7c-1.1,0-1.9-0.3-2.5-1c-0.6-0.7-0.9-1.6-0.9-2.8c0-1.2,0.3-2.1,1-2.8
			c0.6-0.7,1.5-1,2.6-1c0.9,0,1.6,0.2,2.1,0.6C332.8,133.3,333.2,133.8,333.4,134.6z"/>
		<path class="st1" d="M334.9,131.5v-1.8h1.9v1.8H334.9z M334.9,139.7v-7.3h1.9v7.3H334.9z"/>
		<path class="st1" d="M340.2,134.7l-1.7-0.3c0.2-0.7,0.5-1.2,1-1.6c0.5-0.3,1.2-0.5,2.1-0.5c0.9,0,1.5,0.1,1.9,0.3
			c0.4,0.2,0.7,0.5,0.9,0.8c0.2,0.3,0.3,0.9,0.3,1.7l0,2.2c0,0.6,0,1.1,0.1,1.4c0.1,0.3,0.2,0.6,0.3,1h-1.9c0-0.1-0.1-0.3-0.2-0.6
			c0-0.1-0.1-0.2-0.1-0.2c-0.3,0.3-0.7,0.6-1.1,0.7c-0.4,0.2-0.8,0.2-1.2,0.2c-0.7,0-1.3-0.2-1.8-0.6c-0.4-0.4-0.6-0.9-0.6-1.5
			c0-0.4,0.1-0.8,0.3-1.1s0.5-0.6,0.8-0.7c0.4-0.2,0.9-0.3,1.5-0.4c0.9-0.2,1.5-0.3,1.9-0.5v-0.2c0-0.4-0.1-0.6-0.3-0.8
			s-0.5-0.2-1-0.2c-0.3,0-0.6,0.1-0.8,0.2C340.5,134.1,340.3,134.4,340.2,134.7z M342.8,136.3c-0.2,0.1-0.6,0.2-1.2,0.3
			c-0.5,0.1-0.9,0.2-1,0.3c-0.3,0.2-0.4,0.4-0.4,0.7c0,0.3,0.1,0.5,0.3,0.7c0.2,0.2,0.5,0.3,0.8,0.3c0.3,0,0.7-0.1,1-0.3
			c0.2-0.2,0.4-0.4,0.5-0.6c0-0.2,0.1-0.5,0.1-0.9V136.3z"/>
		<path class="st1" d="M346.6,139.7v-10h1.9v10H346.6z"/>
		<path class="st1" d="M354.7,137.4l1.9,0.3c-0.2,0.7-0.6,1.2-1.2,1.6c-0.5,0.4-1.2,0.5-2,0.5c-1.3,0-2.2-0.4-2.8-1.2
			c-0.5-0.7-0.7-1.5-0.7-2.5c0-1.2,0.3-2.1,0.9-2.8c0.6-0.7,1.4-1,2.4-1c1.1,0,1.9,0.4,2.6,1.1c0.6,0.7,0.9,1.8,0.9,3.3h-4.8
			c0,0.6,0.2,1,0.5,1.3c0.3,0.3,0.7,0.5,1.1,0.5c0.3,0,0.6-0.1,0.8-0.2S354.5,137.8,354.7,137.4z M354.8,135.5c0-0.6-0.2-1-0.4-1.3
			c-0.3-0.3-0.6-0.4-1-0.4c-0.4,0-0.8,0.2-1,0.5c-0.3,0.3-0.4,0.7-0.4,1.2H354.8z"/>
		<path class="st1" d="M357.6,137.7l1.9-0.3c0.1,0.4,0.2,0.7,0.5,0.9c0.3,0.2,0.6,0.3,1.1,0.3c0.5,0,0.9-0.1,1.1-0.3
			c0.2-0.1,0.3-0.3,0.3-0.5c0-0.1,0-0.3-0.1-0.4c-0.1-0.1-0.3-0.2-0.6-0.3c-1.5-0.3-2.5-0.7-2.9-0.9c-0.6-0.4-0.9-0.9-0.9-1.6
			c0-0.6,0.2-1.2,0.7-1.6c0.5-0.4,1.3-0.6,2.3-0.6c1,0,1.7,0.2,2.2,0.5c0.5,0.3,0.8,0.8,1,1.4l-1.8,0.3c-0.1-0.3-0.2-0.5-0.4-0.6
			c-0.2-0.2-0.5-0.2-0.9-0.2c-0.5,0-0.9,0.1-1.1,0.2c-0.1,0.1-0.2,0.2-0.2,0.4c0,0.1,0.1,0.3,0.2,0.3c0.2,0.1,0.8,0.3,1.8,0.5
			c1,0.2,1.7,0.5,2.1,0.9c0.4,0.3,0.6,0.8,0.6,1.4c0,0.7-0.3,1.2-0.8,1.7s-1.4,0.7-2.5,0.7c-1,0-1.8-0.2-2.3-0.6
			C358.1,138.9,357.7,138.4,357.6,137.7z"/>
		<path class="st1" d="M147.6,164.1l2,0.6c-0.3,1.1-0.8,1.9-1.5,2.4c-0.7,0.5-1.6,0.8-2.7,0.8c-1.3,0-2.4-0.5-3.3-1.4
			c-0.9-0.9-1.3-2.2-1.3-3.7c0-1.7,0.4-3,1.3-3.9c0.9-0.9,2-1.4,3.4-1.4c1.2,0,2.2,0.4,3,1.1c0.5,0.4,0.8,1,1,1.8l-2,0.5
			c-0.1-0.5-0.4-0.9-0.7-1.2s-0.8-0.5-1.4-0.5c-0.7,0-1.3,0.3-1.8,0.8s-0.7,1.4-0.7,2.6c0,1.3,0.2,2.2,0.7,2.7s1,0.8,1.8,0.8
			c0.5,0,1-0.2,1.4-0.5S147.4,164.8,147.6,164.1z"/>
		<path class="st1" d="M151.2,167.7v-10h2v10H151.2z"/>
		<path class="st1" d="M161.6,164.1l2,0.6c-0.3,1.1-0.8,1.9-1.5,2.4c-0.7,0.5-1.6,0.8-2.7,0.8c-1.3,0-2.4-0.5-3.3-1.4
			c-0.9-0.9-1.3-2.2-1.3-3.7c0-1.7,0.4-3,1.3-3.9c0.9-0.9,2-1.4,3.4-1.4c1.2,0,2.2,0.4,3,1.1c0.5,0.4,0.8,1,1,1.8l-2,0.5
			c-0.1-0.5-0.4-0.9-0.7-1.2s-0.8-0.5-1.4-0.5c-0.7,0-1.3,0.3-1.8,0.8s-0.7,1.4-0.7,2.6c0,1.3,0.2,2.2,0.7,2.7s1,0.8,1.8,0.8
			c0.5,0,1-0.2,1.4-0.5S161.4,164.8,161.6,164.1z"/>
		<path class="st1" d="M165.3,167.7v-9.9h2v8.3h5v1.7H165.3z"/>
		<path class="st1" d="M173.4,162.8c0-1,0.2-1.9,0.5-2.6c0.2-0.5,0.5-1,0.9-1.4s0.8-0.7,1.3-0.9c0.6-0.3,1.3-0.4,2.2-0.4
			c1.5,0,2.7,0.5,3.5,1.4s1.3,2.2,1.3,3.8c0,1.6-0.4,2.9-1.3,3.8c-0.9,0.9-2.1,1.4-3.5,1.4c-1.5,0-2.7-0.5-3.6-1.4
			C173.9,165.6,173.4,164.4,173.4,162.8z M175.5,162.7c0,1.1,0.3,2,0.8,2.6c0.5,0.6,1.2,0.9,2,0.9s1.5-0.3,2-0.9
			c0.5-0.6,0.8-1.5,0.8-2.6c0-1.1-0.3-2-0.8-2.6s-1.2-0.8-2-0.8s-1.5,0.3-2,0.9C175.8,160.7,175.5,161.6,175.5,162.7z"/>
		<path class="st1" d="M188.7,167.7v-9.9h2v8.3h5v1.7H188.7z"/>
		<path class="st1" d="M197.2,167.7v-10h7.4v1.7h-5.4v2.2h5v1.7h-5v2.7h5.6v1.7H197.2z"/>
		<path class="st1" d="M212.9,164.1l2,0.6c-0.3,1.1-0.8,1.9-1.5,2.4c-0.7,0.5-1.6,0.8-2.7,0.8c-1.3,0-2.4-0.5-3.3-1.4
			c-0.9-0.9-1.3-2.2-1.3-3.7c0-1.7,0.4-3,1.3-3.9c0.9-0.9,2-1.4,3.4-1.4c1.2,0,2.2,0.4,3,1.1c0.5,0.4,0.8,1,1,1.8l-2,0.5
			c-0.1-0.5-0.4-0.9-0.7-1.2s-0.8-0.5-1.4-0.5c-0.7,0-1.3,0.3-1.8,0.8s-0.7,1.4-0.7,2.6c0,1.3,0.2,2.2,0.7,2.7s1,0.8,1.8,0.8
			c0.5,0,1-0.2,1.4-0.5S212.7,164.8,212.9,164.1z"/>
		<path class="st1" d="M218.9,167.7v-8.3h-3v-1.7h8v1.7h-3v8.3H218.9z"/>
		<path class="st1" d="M225.1,167.7v-10h2v10H225.1z"/>
		<path class="st1" d="M231.6,167.7l-3.6-10h2.2l2.5,7.4l2.5-7.4h2.1l-3.6,10H231.6z"/>
		<path class="st1" d="M238,162.8c0-1,0.2-1.9,0.5-2.6c0.2-0.5,0.5-1,0.9-1.4c0.4-0.4,0.8-0.7,1.3-0.9c0.6-0.3,1.3-0.4,2.2-0.4
			c1.5,0,2.7,0.5,3.5,1.4c0.9,0.9,1.3,2.2,1.3,3.8c0,1.6-0.4,2.9-1.3,3.8c-0.9,0.9-2.1,1.4-3.5,1.4c-1.5,0-2.7-0.5-3.6-1.4
			C238.4,165.6,238,164.4,238,162.8z M240.1,162.7c0,1.1,0.3,2,0.8,2.6c0.5,0.6,1.2,0.9,2,0.9s1.5-0.3,2-0.9
			c0.5-0.6,0.8-1.5,0.8-2.6c0-1.1-0.3-2-0.8-2.6c-0.5-0.6-1.2-0.8-2-0.8s-1.5,0.3-2,0.9C240.3,160.7,240.1,161.6,240.1,162.7z"/>
		<path class="st1" d="M259.2,166v1.8h-6.7c0.1-0.7,0.3-1.3,0.7-1.9c0.4-0.6,1.1-1.4,2.2-2.4c0.9-0.8,1.4-1.4,1.6-1.6
			c0.3-0.4,0.4-0.8,0.4-1.2c0-0.4-0.1-0.8-0.3-1c-0.2-0.2-0.5-0.3-1-0.3c-0.4,0-0.7,0.1-1,0.4s-0.4,0.6-0.4,1.2l-1.9-0.2
			c0.1-1.1,0.5-1.8,1.1-2.3s1.4-0.7,2.3-0.7c1,0,1.8,0.3,2.3,0.8s0.8,1.2,0.8,2c0,0.5-0.1,0.9-0.2,1.3c-0.2,0.4-0.4,0.8-0.8,1.3
			c-0.2,0.3-0.7,0.7-1.3,1.3s-1,0.9-1.2,1.1c-0.2,0.2-0.3,0.4-0.4,0.5H259.2z"/>
		<path class="st1" d="M263.8,157.7c1,0,1.7,0.3,2.3,1c0.7,0.8,1,2.2,1,4.1c0,1.9-0.3,3.3-1,4.1c-0.5,0.7-1.3,1-2.3,1
			c-1,0-1.8-0.4-2.4-1.1c-0.6-0.8-0.9-2.1-0.9-4c0-1.9,0.3-3.2,1-4.1C262.1,158,262.8,157.7,263.8,157.7z M263.8,159.3
			c-0.2,0-0.4,0.1-0.6,0.2c-0.2,0.1-0.3,0.4-0.4,0.8c-0.1,0.5-0.2,1.3-0.2,2.5s0.1,2,0.2,2.4c0.1,0.4,0.3,0.7,0.4,0.9
			c0.2,0.1,0.4,0.2,0.6,0.2s0.4-0.1,0.6-0.2c0.2-0.1,0.3-0.4,0.4-0.8c0.1-0.5,0.2-1.3,0.2-2.5s-0.1-2-0.2-2.4
			c-0.1-0.4-0.3-0.7-0.4-0.9C264.2,159.3,264,159.3,263.8,159.3z"/>
		<path class="st1" d="M274.8,166v1.8h-6.7c0.1-0.7,0.3-1.3,0.7-1.9c0.4-0.6,1.1-1.4,2.2-2.4c0.9-0.8,1.4-1.4,1.6-1.6
			c0.3-0.4,0.4-0.8,0.4-1.2c0-0.4-0.1-0.8-0.3-1c-0.2-0.2-0.5-0.3-1-0.3c-0.4,0-0.7,0.1-1,0.4s-0.4,0.6-0.4,1.2l-1.9-0.2
			c0.1-1.1,0.5-1.8,1.1-2.3s1.4-0.7,2.3-0.7c1,0,1.8,0.3,2.3,0.8s0.8,1.2,0.8,2c0,0.5-0.1,0.9-0.2,1.3c-0.2,0.4-0.4,0.8-0.8,1.3
			c-0.2,0.3-0.7,0.7-1.3,1.3s-1,0.9-1.2,1.1c-0.2,0.2-0.3,0.4-0.4,0.5H274.8z"/>
		<path class="st1" d="M279.9,167.7v-2h-4.1V164l4.3-6.4h1.6v6.4h1.2v1.7h-1.2v2H279.9z M279.9,164v-3.4l-2.3,3.4H279.9z"/>
		<path class="st1" d="M163.4,191.1l0.5,5.1v2.4h-2.1v-2.4l0.5-5.1H163.4z M163.8,188.5v1.9h-1.9v-1.9H163.8z"/>
		<path class="st1" d="M168.4,195.7v-8.3h-3v-1.7h8v1.7h-3v8.3H168.4z"/>
		<path class="st1" d="M177.9,193.4l1.9,0.3c-0.2,0.7-0.6,1.2-1.2,1.6c-0.5,0.4-1.2,0.6-2,0.6c-1.3,0-2.2-0.4-2.8-1.2
			c-0.5-0.7-0.7-1.5-0.7-2.5c0-1.2,0.3-2.1,0.9-2.8c0.6-0.7,1.4-1,2.4-1c1.1,0,1.9,0.4,2.6,1.1c0.6,0.7,0.9,1.8,0.9,3.3h-4.8
			c0,0.6,0.2,1,0.5,1.3c0.3,0.3,0.7,0.5,1.1,0.5c0.3,0,0.6-0.1,0.8-0.2S177.8,193.8,177.9,193.4z M178,191.5c0-0.6-0.2-1-0.4-1.3
			c-0.3-0.3-0.6-0.4-1-0.4c-0.4,0-0.8,0.2-1,0.5s-0.4,0.7-0.4,1.2H178z"/>
		<path class="st1" d="M189.6,193.4l1.9,0.3c-0.2,0.7-0.6,1.2-1.2,1.6c-0.5,0.4-1.2,0.6-2,0.6c-1.3,0-2.2-0.4-2.8-1.2
			c-0.5-0.7-0.7-1.5-0.7-2.5c0-1.2,0.3-2.1,0.9-2.8c0.6-0.7,1.4-1,2.4-1c1.1,0,1.9,0.4,2.6,1.1c0.6,0.7,0.9,1.8,0.9,3.3h-4.8
			c0,0.6,0.2,1,0.5,1.3c0.3,0.3,0.7,0.5,1.1,0.5c0.3,0,0.6-0.1,0.8-0.2S189.5,193.8,189.6,193.4z M189.7,191.5c0-0.6-0.2-1-0.4-1.3
			c-0.3-0.3-0.6-0.4-1-0.4c-0.4,0-0.8,0.2-1,0.5s-0.4,0.7-0.4,1.2H189.7z"/>
		<path class="st1" d="M192.5,193.7l1.9-0.3c0.1,0.4,0.2,0.7,0.5,0.9c0.3,0.2,0.6,0.3,1.1,0.3c0.5,0,0.9-0.1,1.1-0.3
			c0.2-0.1,0.3-0.3,0.3-0.5c0-0.1,0-0.3-0.1-0.4c-0.1-0.1-0.3-0.2-0.6-0.3c-1.5-0.3-2.5-0.7-2.9-0.9c-0.6-0.4-0.9-0.9-0.9-1.6
			c0-0.6,0.2-1.2,0.7-1.6s1.3-0.6,2.3-0.6c1,0,1.7,0.2,2.2,0.5s0.8,0.8,1,1.4l-1.8,0.3c-0.1-0.3-0.2-0.5-0.4-0.6s-0.5-0.2-0.9-0.2
			c-0.5,0-0.9,0.1-1.1,0.2c-0.1,0.1-0.2,0.2-0.2,0.4c0,0.1,0.1,0.3,0.2,0.3c0.2,0.1,0.8,0.3,1.8,0.5s1.7,0.5,2.1,0.9
			c0.4,0.3,0.6,0.8,0.6,1.4c0,0.7-0.3,1.2-0.8,1.7s-1.4,0.7-2.5,0.7c-1,0-1.8-0.2-2.3-0.6S192.6,194.4,192.5,193.7z"/>
		<path class="st1" d="M200.9,188.5h1.8v1.1c0.2-0.4,0.5-0.7,0.9-0.9s0.8-0.3,1.3-0.3c0.8,0,1.6,0.3,2.1,1s0.9,1.6,0.9,2.8
			c0,1.2-0.3,2.2-0.9,2.8c-0.6,0.7-1.3,1-2.2,1c-0.4,0-0.8-0.1-1.1-0.2s-0.7-0.4-1-0.8v3.7h-1.9V188.5z M202.8,192
			c0,0.8,0.2,1.4,0.5,1.8c0.3,0.4,0.7,0.6,1.2,0.6c0.4,0,0.8-0.2,1.1-0.5c0.3-0.4,0.4-0.9,0.4-1.8c0-0.8-0.2-1.3-0.5-1.7
			s-0.7-0.6-1.1-0.6c-0.5,0-0.9,0.2-1.2,0.5C202.9,190.7,202.8,191.3,202.8,192z"/>
		<path class="st1" d="M213.7,193.4l1.9,0.3c-0.2,0.7-0.6,1.2-1.2,1.6c-0.5,0.4-1.2,0.6-2,0.6c-1.3,0-2.2-0.4-2.8-1.2
			c-0.5-0.7-0.7-1.5-0.7-2.5c0-1.2,0.3-2.1,0.9-2.8c0.6-0.7,1.4-1,2.4-1c1.1,0,1.9,0.4,2.6,1.1c0.6,0.7,0.9,1.8,0.9,3.3h-4.8
			c0,0.6,0.2,1,0.5,1.3c0.3,0.3,0.7,0.5,1.1,0.5c0.3,0,0.6-0.1,0.8-0.2S213.6,193.8,213.7,193.4z M213.8,191.5c0-0.6-0.2-1-0.4-1.3
			c-0.3-0.3-0.6-0.4-1-0.4c-0.4,0-0.8,0.2-1,0.5s-0.4,0.7-0.4,1.2H213.8z"/>
		<path class="st1" d="M219.1,195.7h-1.9v-7.3h1.8v1c0.3-0.5,0.6-0.8,0.8-1c0.2-0.2,0.5-0.2,0.8-0.2c0.4,0,0.9,0.1,1.3,0.4l-0.6,1.7
			c-0.3-0.2-0.6-0.3-0.9-0.3c-0.3,0-0.5,0.1-0.7,0.2c-0.2,0.1-0.3,0.4-0.4,0.8c-0.1,0.4-0.2,1.2-0.2,2.4V195.7z"/>
		<path class="st1" d="M224.2,190.7l-1.7-0.3c0.2-0.7,0.5-1.2,1-1.6s1.2-0.5,2.1-0.5c0.9,0,1.5,0.1,1.9,0.3c0.4,0.2,0.7,0.5,0.9,0.8
			c0.2,0.3,0.3,0.9,0.3,1.7l0,2.2c0,0.6,0,1.1,0.1,1.4c0.1,0.3,0.2,0.6,0.3,1h-1.9c0-0.1-0.1-0.3-0.2-0.6c0-0.1-0.1-0.2-0.1-0.2
			c-0.3,0.3-0.7,0.6-1.1,0.7s-0.8,0.2-1.2,0.2c-0.7,0-1.3-0.2-1.8-0.6c-0.4-0.4-0.6-0.9-0.6-1.5c0-0.4,0.1-0.8,0.3-1.1
			c0.2-0.3,0.5-0.6,0.8-0.7c0.4-0.2,0.9-0.3,1.5-0.4c0.9-0.2,1.5-0.3,1.9-0.5v-0.2c0-0.4-0.1-0.6-0.3-0.8c-0.2-0.2-0.5-0.2-1-0.2
			c-0.3,0-0.6,0.1-0.8,0.2C224.4,190.1,224.3,190.4,224.2,190.7z M226.7,192.3c-0.2,0.1-0.6,0.2-1.2,0.3s-0.9,0.2-1,0.3
			c-0.3,0.2-0.4,0.4-0.4,0.7c0,0.3,0.1,0.5,0.3,0.7s0.5,0.3,0.8,0.3c0.3,0,0.7-0.1,1-0.3c0.2-0.2,0.4-0.4,0.5-0.6
			c0-0.2,0.1-0.5,0.1-0.9V192.3z"/>
		<path class="st1" d="M230.4,188.5h1.8v1c0.6-0.8,1.4-1.2,2.3-1.2c0.5,0,0.9,0.1,1.2,0.3s0.6,0.5,0.8,0.9c0.3-0.4,0.7-0.7,1-0.9
			s0.8-0.3,1.2-0.3c0.5,0,1,0.1,1.4,0.3c0.4,0.2,0.6,0.5,0.8,1c0.1,0.3,0.2,0.8,0.2,1.5v4.6h-1.9v-4.1c0-0.7-0.1-1.2-0.2-1.4
			c-0.2-0.3-0.5-0.4-0.8-0.4c-0.3,0-0.5,0.1-0.8,0.2s-0.4,0.4-0.5,0.7c-0.1,0.3-0.2,0.8-0.2,1.5v3.5h-1.9v-4c0-0.7,0-1.2-0.1-1.4
			s-0.2-0.4-0.3-0.5c-0.1-0.1-0.3-0.2-0.6-0.2c-0.3,0-0.6,0.1-0.8,0.2s-0.4,0.4-0.5,0.7c-0.1,0.3-0.2,0.8-0.2,1.5v3.5h-1.9V188.5z"
			/>
		<path class="st1" d="M242.5,192c0-0.6,0.2-1.3,0.5-1.9s0.8-1.1,1.3-1.4c0.6-0.3,1.2-0.5,1.9-0.5c1.1,0,2,0.4,2.7,1.1
			c0.7,0.7,1.1,1.6,1.1,2.7c0,1.1-0.4,2-1.1,2.7c-0.7,0.7-1.6,1.1-2.7,1.1c-0.7,0-1.3-0.2-1.9-0.5c-0.6-0.3-1.1-0.7-1.4-1.3
			C242.7,193.5,242.5,192.8,242.5,192z M244.5,192.1c0,0.7,0.2,1.3,0.5,1.7s0.8,0.6,1.3,0.6s0.9-0.2,1.3-0.6
			c0.3-0.4,0.5-0.9,0.5-1.7c0-0.7-0.2-1.3-0.5-1.6c-0.3-0.4-0.8-0.6-1.3-0.6s-0.9,0.2-1.3,0.6S244.5,191.4,244.5,192.1z"/>
		<path class="st1" d="M250.8,193.7l1.9-0.3c0.1,0.4,0.2,0.7,0.5,0.9c0.3,0.2,0.6,0.3,1.1,0.3c0.5,0,0.9-0.1,1.1-0.3
			c0.2-0.1,0.3-0.3,0.3-0.5c0-0.1,0-0.3-0.1-0.4c-0.1-0.1-0.3-0.2-0.6-0.3c-1.5-0.3-2.5-0.7-2.9-0.9c-0.6-0.4-0.9-0.9-0.9-1.6
			c0-0.6,0.2-1.2,0.7-1.6s1.3-0.6,2.3-0.6c1,0,1.7,0.2,2.2,0.5s0.8,0.8,1,1.4l-1.8,0.3c-0.1-0.3-0.2-0.5-0.4-0.6
			c-0.2-0.2-0.5-0.2-0.9-0.2c-0.5,0-0.9,0.1-1.1,0.2c-0.1,0.1-0.2,0.2-0.2,0.4c0,0.1,0.1,0.3,0.2,0.3c0.2,0.1,0.8,0.3,1.8,0.5
			c1,0.2,1.7,0.5,2.1,0.9c0.4,0.3,0.6,0.8,0.6,1.4c0,0.7-0.3,1.2-0.8,1.7s-1.4,0.7-2.5,0.7c-1,0-1.8-0.2-2.3-0.6
			C251.4,194.9,251,194.4,250.8,193.7z"/>
		<path class="st1" d="M260,193.2l-0.5-5.1v-2.4h2.1v2.4l-0.5,5.1H260z M259.6,195.7v-1.9h1.9v1.9H259.6z"/>
	</g>
</g>
<g id="Capa_1-2_00000162349383153367102090000004170188549332681117_">
	<path class="st1" d="M207.8,54.5c1.1,0.9,2.2,0.1,3.4,0.5c-0.2,0.3-0.4,0.7-0.7,0.9c-1.1,1-2.4,1.4-3.8,1.4c-0.2,0-0.4-0.3-0.4-0.4
		c0-0.5-0.3-0.5-0.6-0.5c-0.7-0.2-1.4-0.3-2-0.6c-0.8-0.5-1.6-0.5-2.5-0.6c-0.4,0-0.8,0-1.2,0c0.1-0.6,0.1-1.1,0.2-1.7
		c0.1-0.6,0-1.1-0.2-1.7c-0.3-0.7-0.4-1.5-0.4-2.3c0-0.6-0.1-1-0.9-0.8c0.1-0.5,0.2-1,0.3-1.4c0.3-1.2,1.2-2.1,2.2-2.9
		c0.2-0.1,0.5-0.1,0.7-0.1c0,0.2,0,0.4,0,0.6c0,0.6-0.1,1.2-0.2,1.8c-0.1,0.4-0.1,0.8-0.4,1.1c-0.6,0.9,0.2,3.1,1.2,3.3
		c0.1,0,0.3,0,0.4-0.1c2.4-1.9,4.9-3.9,7.4-5.9c-0.3-0.3-0.6-0.6-0.9-0.8c-0.5,0.3-0.9,1-1.5,0.3c-0.5-0.5,0-0.9,0.4-1.4
		c-0.4-0.4-0.6-0.7-1.3-0.6c-1.1,0.2-2-0.6-2.2-1.7c-0.2-0.8,0.4-1.7,1.3-2c1.2-0.3,2.6,0.6,2.5,1.9c-0.1,0.8,0.4,0.9,0.8,1.3
		c0.4-0.3,0.8-0.8,1.4-0.3c0.4,0.4,0.2,0.9-0.2,1.3c1.2,1.1,0.9,1.1,2.3-0.1c-0.3-0.4-0.6-0.9-0.1-1.3c0.5-0.5,0.9,0,1.4,0.4
		c0.4-0.4,0.9-0.5,0.8-1.3c-0.1-1,0.8-1.9,1.9-2c1-0.1,1.7,0.5,1.9,1.5c0.2,1.2-0.9,2.5-2.2,2.3c-0.6-0.1-0.9,0.1-1.3,0.6
		c0.3,0.4,0.9,0.9,0.3,1.4c-0.6,0.6-1-0.1-1.5-0.4c-0.3,0.3-0.7,0.6-1,1c1.2,1,2.4,2,3.6,2.9c1.2,1,2.4,1.9,3.6,2.9
		c0.5,0.4,0.8,0.3,1.2-0.1c0.7-0.7,0.9-1.6,0.9-2.5c0-0.1,0-0.2-0.1-0.2c-0.7-0.6-0.5-1.3-0.6-2.1c0-0.4-0.1-0.7-0.1-1.1
		c0-0.2,0-0.4,0-0.6c0.2,0,0.5,0,0.7,0.2c1,0.7,1.8,1.6,2.1,2.7c0.1,0.5,0.2,1,0.3,1.4c-0.9,0.3-0.8,0.3-0.9,1.1
		c-0.1,0.9-0.5,1.7-0.6,2.6c-0.1,0.7,0,1.3,0.1,2c0,0.3,0.1,0.5,0.1,0.9c-0.8,0-1.5,0-2.1,0c-0.4,0-0.7,0.1-1.1,0.3
		c-0.8,0.5-1.6,0.8-2.6,0.9c-0.3,0-0.5,0.1-0.5,0.5c0,0.2-0.3,0.5-0.4,0.5c-1.5,0-2.9-0.3-4-1.5c-0.2-0.2-0.3-0.5-0.5-0.8
		c1.1-0.5,2.3,0.3,3.3-0.5c0.5,0.8,1.2,0.5,1.8,0.2c0.5-0.2,0.9-0.5,1.3-0.9c0.6-0.5,0.6-0.8,0-1.3c-1.3-1.2-2.6-2.4-3.9-3.6
		c-1-1-2.1-1.9-3.2-2.9c-1.8,1.6-3.5,3.2-5.3,4.9c-0.6,0.5-1.2,1.1-1.7,1.6c-0.5,0.4-0.5,0.8,0,1.1c0.5,0.4,1.1,0.8,1.7,1
		C206.9,55.1,207.5,55.3,207.8,54.5L207.8,54.5z M216.9,41.3c-0.1,0.1-0.2,0.2-0.3,0.3c0.8-0.2,1.1-0.6,1.1-1
		c-0.1-0.5-0.3-0.7-0.8-0.8c-0.5-0.1-0.9,0.3-1.1,1c0.1-0.1,0.2-0.2,0.4-0.4C216.4,40.8,216.6,41.1,216.9,41.3L216.9,41.3z
		 M206.7,41.7c0.3-0.3,0.6-0.6,0.9-0.9c-0.2-0.7-0.6-1-1.1-0.9c-0.4,0.1-0.7,0.3-0.7,0.8C205.7,41.2,205.9,41.4,206.7,41.7
		L206.7,41.7z"/>
</g>
</svg>
