<?xml version="1.0" encoding="utf-8"?>
<!-- Generator: Adobe Illustrator 26.0.3, SVG Export Plug-In . SVG Version: 6.00 Build 0)  -->
<svg version="1.1" id="Capa_1" xmlns="http://www.w3.org/2000/svg" xmlns:xlink="http://www.w3.org/1999/xlink" x="0px" y="0px"
	 viewBox="0 0 50 50" style="enable-background:new 0 0 50 50;" xml:space="preserve">
<style type="text/css">
	.st0{fill:#FFFFFF;}
	.st1{fill:url(#SVGID_1_);}
	.st2{fill:none;stroke:#FFFFFF;stroke-width:2;stroke-miterlimit:10;}
</style>
<g>
	<path class="st0" d="M42.9,12.1c-0.7-2.7-2.9-4.7-5.7-5.1c-0.1,0-0.1,0-0.2-0.1c-8,0-16.1,0-24.1,0C12.5,7,12,7,11.6,7.2
		c-2.8,1-4.7,3.5-4.7,6.5c0,3,0,6,0,9c0,4.5,0,9,0,13.5c0,2.9,1.4,5,4,6.3c0.9,0.4,1.8,0.6,2.8,0.6c7.5,0,15.1,0,22.6,0
		c3.5,0,6.3-2.5,6.8-5.9c0-0.1,0-0.1,0.1-0.2c0-8,0-16.1,0-24.1C43.1,12.7,43,12.4,42.9,12.1z"/>
	<linearGradient id="SVGID_1_" gradientUnits="userSpaceOnUse" x1="15.4693" y1="34.9031" x2="34.5386" y2="15.121">
		<stop  offset="8.100558e-02" style="stop-color:#FFDC55"/>
		<stop  offset="0.4218" style="stop-color:#D63E8F"/>
		<stop  offset="0.7318" style="stop-color:#8C4DB6"/>
		<stop  offset="0.9804" style="stop-color:#5061C7"/>
	</linearGradient>
	<path class="st1" d="M35.3,17.6c-0.4-1.6-1.7-2.7-3.3-2.9c0,0-0.1,0-0.1,0c-4.6,0-9.2,0-13.8,0c-0.3,0.1-0.5,0.1-0.8,0.2
		c-1.6,0.5-2.7,2-2.7,3.7c0,1.7,0,3.4,0,5.1c0,2.6,0,5.2,0,7.7c0,1.7,0.8,2.9,2.3,3.6c0.5,0.2,1,0.3,1.6,0.3c4.3,0,8.6,0,12.9,0
		c2,0,3.6-1.4,3.9-3.4c0,0,0-0.1,0-0.1c0-4.6,0-9.2,0-13.8C35.3,17.9,35.3,17.8,35.3,17.6z"/>
	<circle class="st2" cx="25" cy="25" r="4.5"/>
	<circle class="st0" cx="30.6" cy="19.2" r="1.6"/>
</g>
</svg>
