<?xml version="1.0" encoding="utf-8"?>
<!-- Generator: Adobe Illustrator 26.0.3, SVG Export Plug-In . SVG Version: 6.00 Build 0)  -->
<svg version="1.1" id="Capa_1" xmlns="http://www.w3.org/2000/svg" xmlns:xlink="http://www.w3.org/1999/xlink" x="0px" y="0px"
	 viewBox="0 0 50 50" style="enable-background:new 0 0 50 50;" xml:space="preserve">
<style type="text/css">
	.st0{fill:#FFFFFF;}
</style>
<g>
	<path class="st0" d="M15.7,7.6c6.2,0,12.4,0,18.7,0c0.1,0,0.2,0.1,0.3,0.1c3.9,0.6,6.6,2.7,8,6.4c0.3,0.7,0.3,1.5,0.5,2.3
		c0,6.2,0,12.4,0,18.7c0,0.1,0,0.2-0.1,0.3c-0.5,4.7-4.5,8.4-9.3,8.5c-5.8,0-11.7,0-17.5,0c-0.9,0-1.9-0.2-2.7-0.5
		c-4-1.3-6.6-4.9-6.6-9.1c0-5.6,0-11.3,0-17c0-0.4,0-0.7,0.1-1.1c0.4-3.8,3.1-7.1,6.7-8.1C14.3,7.9,15,7.8,15.7,7.6z M36.7,25.8
		c0-1.8,0-3.5,0-5.3c0-3.7-2.8-6.5-6.5-6.5c-3.5,0-7,0-10.5,0c-3.7,0-6.5,2.8-6.5,6.5c0,3.5,0,7,0,10.5c0,3.7,2.8,6.5,6.5,6.5
		c3.5,0,7,0,10.5,0c3.7,0,6.5-2.8,6.5-6.5C36.7,29.2,36.7,27.5,36.7,25.8z"/>
	<path class="st0" d="M34.6,25.7c0,1.8,0,3.5,0,5.3c0,2.5-1.9,4.3-4.4,4.3c-3.5,0-7,0-10.5,0c-2.5,0-4.3-1.9-4.3-4.3
		c0-3.5,0-7,0-10.6c0-2.5,1.9-4.3,4.3-4.3c3.5,0,7,0,10.6,0c2.5,0,4.3,1.9,4.3,4.3C34.6,22.2,34.6,24,34.6,25.7z M25,31
		c2.9,0,5.3-2.4,5.3-5.3c0-2.9-2.4-5.3-5.3-5.3c-2.9,0-5.3,2.4-5.3,5.3C19.7,28.6,22.1,31,25,31z M31.1,20.7c0.6,0,1.1-0.5,1.1-1
		c0-0.6-0.5-1.1-1-1.1c-0.6,0-1.1,0.5-1.1,1C30,20.2,30.5,20.7,31.1,20.7z"/>
	<path class="st0" d="M28.2,25.8c0,1.8-1.5,3.2-3.2,3.2c-1.7,0-3.2-1.5-3.1-3.2c0-1.8,1.5-3.2,3.2-3.2C26.8,22.6,28.2,24,28.2,25.8z
		"/>
</g>
</svg>
