<?xml version="1.0" encoding="utf-8"?>
<!-- Generator: Adobe Illustrator 27.0.1, SVG Export Plug-In . SVG Version: 6.00 Build 0)  -->
<svg version="1.1" id="Capa_1" xmlns="http://www.w3.org/2000/svg" xmlns:xlink="http://www.w3.org/1999/xlink" x="0px" y="0px"
	 viewBox="0 0 612.71 163.6" style="enable-background:new 0 0 612.71 163.6;" xml:space="preserve">
<style type="text/css">
	.st0{fill:#FFFFFF;}
</style>
<g>
	<path class="st0" d="M178.23-70.17v6.35h-4.51v-18.7h7.46c1.43,0,2.7,0.26,3.79,0.79c1.1,0.53,1.95,1.28,2.56,2.25
		c0.6,0.97,0.91,2.07,0.91,3.31c0,1.82-0.65,3.28-1.96,4.37c-1.31,1.09-3.1,1.64-5.38,1.64H178.23z M178.23-73.65h2.95
		c0.87,0,1.54-0.22,2-0.66c0.46-0.44,0.69-1.05,0.69-1.85c0-0.87-0.24-1.57-0.71-2.09c-0.47-0.52-1.11-0.79-1.93-0.8h-3.01V-73.65z"
		/>
	<path class="st0" d="M197.8-70.44h-2.44v6.61h-4.51v-18.7h7.36c2.22,0,3.95,0.49,5.2,1.48c1.25,0.98,1.88,2.37,1.88,4.17
		c0,1.3-0.26,2.38-0.79,3.23c-0.53,0.85-1.35,1.55-2.47,2.08l3.9,7.55v0.19h-4.83L197.8-70.44z M195.35-73.91h2.85
		c0.86,0,1.5-0.23,1.93-0.68c0.43-0.45,0.65-1.08,0.65-1.89c0-0.81-0.22-1.44-0.65-1.9s-1.08-0.69-1.93-0.69h-2.85V-73.91z"/>
	<path class="st0" d="M219.61-71.76h-7.09v4.47h8.37v3.47h-12.88v-18.7h12.91v3.48h-8.4v3.94h7.09V-71.76z"/>
	<path class="st0" d="M234.5-71.28h-7.27v7.45h-4.51v-18.7h12.51v3.48h-8v4.3h7.27V-71.28z"/>
	<path class="st0" d="M248.71-71.76h-7.09v4.47h8.37v3.47h-12.88v-18.7h12.91v3.48h-8.4v3.94h7.09V-71.76z"/>
	<path class="st0" d="M266.96-70.16c-0.06,1.3-0.41,2.45-1.05,3.45c-0.64,1-1.54,1.77-2.7,2.32c-1.16,0.55-2.49,0.82-3.97,0.82
		c-2.46,0-4.39-0.8-5.81-2.4s-2.12-3.86-2.12-6.78v-0.92c0-1.83,0.32-3.44,0.96-4.81c0.64-1.37,1.56-2.44,2.75-3.19
		c1.2-0.75,2.59-1.12,4.16-1.12c2.27,0,4.09,0.6,5.47,1.79c1.38,1.19,2.16,2.84,2.35,4.94h-4.5c-0.03-1.14-0.32-1.96-0.86-2.45
		c-0.54-0.5-1.36-0.74-2.47-0.74c-1.12,0-1.94,0.42-2.47,1.26c-0.52,0.84-0.8,2.18-0.82,4.02v1.32c0,2,0.25,3.42,0.75,4.28
		c0.5,0.86,1.36,1.28,2.59,1.28c1.04,0,1.83-0.24,2.38-0.73c0.55-0.49,0.84-1.26,0.87-2.32H266.96z"/>
	<path class="st0" d="M283.4-79.05h-5.61v15.22h-4.51v-15.22h-5.51v-3.48h15.63V-79.05z"/>
	<path class="st0" d="M299.97-82.53v12.24c0,1.39-0.3,2.59-0.89,3.6c-0.59,1.02-1.44,1.79-2.54,2.32c-1.1,0.53-2.41,0.8-3.92,0.8
		c-2.28,0-4.07-0.59-5.38-1.77c-1.31-1.18-1.98-2.8-2-4.85v-12.33h4.53v12.42c0.05,2.05,1,3.07,2.85,3.07
		c0.93,0,1.64-0.26,2.12-0.77c0.48-0.51,0.72-1.35,0.72-2.5v-12.21H299.97z"/>
	<path class="st0" d="M309.73-70.44h-2.44v6.61h-4.51v-18.7h7.36c2.22,0,3.95,0.49,5.2,1.48c1.25,0.98,1.88,2.37,1.88,4.17
		c0,1.3-0.26,2.38-0.79,3.23c-0.53,0.85-1.35,1.55-2.47,2.08l3.9,7.55v0.19h-4.83L309.73-70.44z M307.29-73.91h2.85
		c0.86,0,1.5-0.23,1.93-0.68c0.43-0.45,0.65-1.08,0.65-1.89c0-0.81-0.22-1.44-0.65-1.9s-1.08-0.69-1.93-0.69h-2.85V-73.91z"/>
	<path class="st0" d="M330.56-67.32h-6.18l-1.08,3.49h-4.82l6.86-18.7h4.24l6.91,18.7h-4.84L330.56-67.32z M325.47-70.8h4.02
		l-2.02-6.49L325.47-70.8z"/>
	<path class="st0" d="M360.03-63.83h-4.48l-6.63-11.64v11.64h-4.51v-18.7h4.51l6.61,11.64v-11.64h4.5V-63.83z"/>
	<path class="st0" d="M373.73-67.32h-6.18l-1.08,3.49h-4.82l6.86-18.7h4.24l6.91,18.7h-4.84L373.73-67.32z M368.63-70.8h4.02
		l-2.02-6.49L368.63-70.8z"/>
	<path class="st0" d="M387.3-68.91l3.73-13.61h5.03l-6.29,18.7h-4.93l-6.24-18.7h5L387.3-68.91z"/>
	<path class="st0" d="M407.08-67.32h-6.18l-1.08,3.49H395l6.86-18.7h4.24l6.91,18.7h-4.84L407.08-67.32z M401.98-70.8H406
		l-2.02-6.49L401.98-70.8z"/>
	<path class="st0" d="M418.88-67.29h7.85v3.47h-12.36v-18.7h4.51V-67.29z"/>
	<path class="st0" d="M445.8-67.32h-6.18l-1.08,3.49h-4.82l6.86-18.7h4.24l6.91,18.7h-4.84L445.8-67.32z M440.7-70.8h4.02
		l-2.02-6.49L440.7-70.8z"/>
	<path class="st0" d="M460.04-70.44h-2.44v6.61h-4.51v-18.7h7.36c2.22,0,3.95,0.49,5.2,1.48c1.25,0.98,1.88,2.37,1.88,4.17
		c0,1.3-0.26,2.38-0.79,3.23c-0.53,0.85-1.35,1.55-2.47,2.08l3.9,7.55v0.19h-4.83L460.04-70.44z M457.6-73.91h2.85
		c0.86,0,1.5-0.23,1.93-0.68c0.43-0.45,0.65-1.08,0.65-1.89c0-0.81-0.22-1.44-0.65-1.9s-1.08-0.69-1.93-0.69h-2.85V-73.91z"/>
	<path class="st0" d="M485.57-66.14c-0.69,0.77-1.71,1.39-3.04,1.86c-1.34,0.47-2.8,0.71-4.39,0.71c-2.45,0-4.41-0.75-5.87-2.25
		c-1.46-1.5-2.25-3.58-2.35-6.26l-0.01-1.62c0-1.84,0.32-3.45,0.98-4.82c0.65-1.37,1.58-2.43,2.79-3.17
		c1.21-0.74,2.61-1.11,4.21-1.11c2.33,0,4.14,0.53,5.43,1.6c1.29,1.07,2.04,2.66,2.25,4.77h-4.34c-0.15-1.04-0.49-1.79-1-2.23
		c-0.51-0.44-1.24-0.67-2.18-0.67c-1.13,0-2,0.48-2.62,1.44c-0.62,0.96-0.93,2.33-0.94,4.11v1.13c0,1.87,0.32,3.27,0.96,4.21
		c0.64,0.94,1.64,1.41,3.01,1.41c1.17,0,2.05-0.26,2.62-0.78v-2.9h-3.13v-3.1h7.64V-66.14z"/>
	<path class="st0" d="M499.78-71.76h-7.09v4.47h8.37v3.47h-12.88v-18.7h12.91v3.48h-8.4v3.94h7.09V-71.76z"/>
	<path class="st0" d="M518.52-63.83h-4.48l-6.63-11.64v11.64h-4.51v-18.7h4.51l6.61,11.64v-11.64h4.5V-63.83z"/>
	<path class="st0" d="M535.68-79.05h-5.61v15.22h-4.51v-15.22h-5.51v-3.48h15.63V-79.05z"/>
	<path class="st0" d="M542.39-63.83h-4.49v-18.7h4.49V-63.83z"/>
	<path class="st0" d="M561.14-63.83h-4.48l-6.63-11.64v11.64h-4.51v-18.7h4.51l6.61,11.64v-11.64h4.5V-63.83z"/>
	<path class="st0" d="M574.84-67.32h-6.18l-1.08,3.49h-4.82l6.86-18.7h4.24l6.91,18.7h-4.84L574.84-67.32z M569.74-70.8h4.02
		l-2.02-6.49L569.74-70.8z"/>
	<path class="st0" d="M184.35-35.75h-6.18l-1.08,3.49h-4.82l6.86-18.7h4.24l6.91,18.7h-4.84L184.35-35.75z M179.25-39.23h4.02
		l-2.02-6.49L179.25-39.23z"/>
	<path class="st0" d="M213.3-50.96v12.24c0,1.39-0.3,2.59-0.89,3.6c-0.59,1.02-1.44,1.79-2.54,2.32c-1.1,0.53-2.41,0.8-3.92,0.8
		c-2.28,0-4.07-0.59-5.38-1.77c-1.31-1.18-1.98-2.8-2-4.85v-12.33h4.53v12.42c0.05,2.05,1,3.07,2.85,3.07
		c0.93,0,1.64-0.26,2.12-0.77c0.48-0.51,0.72-1.35,0.72-2.5v-12.21H213.3z"/>
	<path class="st0" d="M238-47.48h-5.61v15.22h-4.51v-15.22h-5.51v-3.48H238V-47.48z"/>
	<path class="st0" d="M262.59-41.23c0,1.82-0.34,3.44-1.02,4.84c-0.68,1.4-1.64,2.49-2.88,3.24c-1.25,0.76-2.67,1.14-4.26,1.14
		s-3.01-0.36-4.24-1.1s-2.19-1.78-2.88-3.14c-0.69-1.36-1.05-2.92-1.09-4.69v-1.05c0-1.83,0.34-3.45,1.01-4.85
		c0.67-1.4,1.64-2.48,2.89-3.24c1.25-0.76,2.68-1.14,4.28-1.14c1.58,0,3,0.38,4.24,1.13c1.24,0.75,2.21,1.83,2.9,3.22
		c0.69,1.39,1.04,2.99,1.05,4.79V-41.23z M258-42.01c0-1.86-0.31-3.27-0.93-4.23c-0.62-0.96-1.51-1.45-2.67-1.45
		c-2.26,0-3.45,1.7-3.58,5.09l-0.01,1.37c0,1.83,0.3,3.24,0.91,4.23c0.61,0.98,1.51,1.48,2.71,1.48c1.14,0,2.02-0.48,2.63-1.45
		c0.62-0.97,0.93-2.36,0.94-4.17V-42.01z"/>
	<path class="st0" d="M279.07-38.87h-2.44v6.61h-4.51v-18.7h7.36c2.22,0,3.95,0.49,5.2,1.48c1.25,0.98,1.88,2.37,1.88,4.17
		c0,1.3-0.26,2.38-0.79,3.23c-0.53,0.85-1.35,1.55-2.47,2.08l3.9,7.55v0.19h-4.83L279.07-38.87z M276.63-42.34h2.85
		c0.86,0,1.5-0.23,1.93-0.68c0.43-0.45,0.65-1.08,0.65-1.89c0-0.81-0.22-1.44-0.65-1.9c-0.44-0.46-1.08-0.69-1.93-0.69h-2.85V-42.34
		z"/>
	<path class="st0" d="M301.29-32.26h-4.49v-18.7h4.49V-32.26z"/>
	<path class="st0" d="M311.63-32.26v-18.7h6.02c1.65,0,3.14,0.37,4.46,1.12c1.32,0.75,2.35,1.81,3.09,3.17
		c0.74,1.37,1.12,2.9,1.12,4.59v0.86c0,1.71-0.36,3.25-1.09,4.6c-0.72,1.36-1.74,2.42-3.06,3.19c-1.31,0.77-2.78,1.15-4.4,1.16
		H311.63z M316.14-47.48v11.75h1.57c1.29,0,2.29-0.46,2.98-1.38c0.69-0.92,1.04-2.29,1.04-4.1v-0.81c0-1.81-0.35-3.17-1.04-4.08
		s-1.7-1.37-3.03-1.37H316.14z"/>
	<path class="st0" d="M346.2-35.75h-6.18l-1.08,3.49h-4.82l6.86-18.7h4.24l6.91,18.7h-4.84L346.2-35.75z M341.1-39.23h4.02
		l-2.02-6.49L341.1-39.23z"/>
	<path class="st0" d="M360.7-32.26v-18.7h6.02c1.65,0,3.14,0.37,4.46,1.12c1.32,0.75,2.35,1.81,3.09,3.17
		c0.74,1.37,1.12,2.9,1.12,4.59v0.86c0,1.71-0.36,3.25-1.09,4.6c-0.72,1.36-1.74,2.42-3.06,3.19c-1.31,0.77-2.78,1.15-4.4,1.16
		H360.7z M365.21-47.48v11.75h1.57c1.29,0,2.29-0.46,2.98-1.38c0.69-0.92,1.04-2.29,1.04-4.1v-0.81c0-1.81-0.35-3.17-1.04-4.08
		s-1.7-1.37-3.03-1.37H365.21z"/>
	<path class="st0" d="M404.59-50.96l4.17,13.01l4.16-13.01h5.93v18.7h-4.52v-4.37l0.44-8.94l-4.52,13.31h-2.98l-4.53-13.32
		l0.44,8.95v4.37h-4.51v-18.7H404.59z"/>
	<path class="st0" d="M439.78-35.75h-6.18l-1.08,3.49h-4.82l6.86-18.7h4.24l6.91,18.7h-4.84L439.78-35.75z M434.69-39.23h4.02
		l-2.02-6.49L434.69-39.23z"/>
	<path class="st0" d="M461.24-38.87h-2.44v6.61h-4.51v-18.7h7.36c2.22,0,3.95,0.49,5.2,1.48c1.25,0.98,1.88,2.37,1.88,4.17
		c0,1.3-0.26,2.38-0.79,3.23c-0.53,0.85-1.35,1.55-2.47,2.08l3.9,7.55v0.19h-4.83L461.24-38.87z M458.8-42.34h2.85
		c0.86,0,1.5-0.23,1.93-0.68c0.43-0.45,0.65-1.08,0.65-1.89c0-0.81-0.22-1.44-0.65-1.9c-0.44-0.46-1.08-0.69-1.93-0.69h-2.85V-42.34
		z"/>
	<path class="st0" d="M483.46-32.26h-4.49v-18.7h4.49V-32.26z M481.75-55.97h4.57l-3.57,4.03l-3.53-0.01L481.75-55.97z"/>
	<path class="st0" d="M508.11-47.48h-5.61v15.22h-4.51v-15.22h-5.51v-3.48h15.63V-47.48z"/>
	<path class="st0" d="M522.02-32.26h-4.49v-18.7h4.49V-32.26z"/>
	<path class="st0" d="M538.28-50.96l4.17,13.01l4.16-13.01h5.93v18.7h-4.52v-4.37l0.44-8.94l-4.52,13.31h-2.98l-4.53-13.32
		l0.44,8.95v4.37h-4.51v-18.7H538.28z"/>
	<path class="st0" d="M573.48-35.75h-6.18l-1.08,3.49h-4.82l6.86-18.7h4.24l6.91,18.7h-4.84L573.48-35.75z M568.38-39.23h4.02
		l-2.02-6.49L568.38-39.23z"/>
</g>
<path class="st0" d="M71.2-30.66c4.38,3.75,9.31,0.49,14.14,2.23c-0.99,1.44-1.67,2.86-2.73,3.88c-4.46,4.31-9.98,5.89-16.05,5.65
	c-0.64-0.03-1.74-1.13-1.75-1.75c-0.03-1.93-1.18-1.95-2.58-2.27c-2.82-0.64-5.88-1.05-8.27-2.51c-3.36-2.05-6.87-2.29-10.51-2.46
	c-1.56-0.07-3.14-0.01-5-0.01c0.25-2.51,0.27-4.76,0.73-6.91c0.54-2.47,0.12-4.6-0.71-6.99c-1.08-3.1-1.59-6.48-1.82-9.77
	c-0.16-2.35-0.33-4.02-3.84-3.36c0.44-2.26,0.69-4.19,1.21-6.05c1.42-5.14,4.8-8.91,8.99-11.98c0.72-0.53,1.95-0.36,2.95-0.52
	c0.02,0.85,0.11,1.7,0.06,2.55c-0.17,2.49-0.26,4.99-0.64,7.45c-0.24,1.59-0.6,3.34-1.48,4.62c-2.5,3.63,0.73,12.91,5.09,13.94
	c0.53,0.13,1.33-0.15,1.79-0.52c10.18-8.12,20.33-16.27,30.76-24.63c-1.32-1.22-2.51-2.32-3.8-3.51c-1.96,1.21-3.81,4.2-6.33,1.44
	c-2-2.19,0.07-3.95,1.64-5.68c-1.46-1.61-2.61-2.93-5.35-2.4c-4.39,0.85-8.42-2.55-9.32-7.16c-0.7-3.53,1.67-7.22,5.31-8.26
	c5.05-1.45,10.84,2.67,10.46,8.06c-0.23,3.19,1.65,3.93,3.41,5.37c1.77-1.37,3.52-3.48,5.69-1.43c1.78,1.68,0.79,3.66-0.67,5.23
	c5.16,4.7,3.58,4.73,9.53-0.37c-1.26-1.66-2.63-3.64-0.62-5.41c2.23-1.97,3.94,0.21,5.7,1.5c1.65-1.49,3.78-2.11,3.31-5.37
	c-0.59-4.08,3.52-7.97,7.74-8.34c3.99-0.35,7.3,2.24,8.05,6.27c0.94,5.07-3.88,10.23-9.29,9.42c-2.57-0.38-3.88,0.57-5.25,2.38
	c1.22,1.81,3.8,3.62,1.27,5.95c-2.49,2.3-4.15-0.46-6.12-1.76c-1.41,1.32-2.79,2.6-4.36,4.07c5.18,4.15,10.18,8.15,15.18,12.16
	c5.08,4.08,10.21,8.09,15.22,12.27c1.9,1.59,3.39,1.3,5.01-0.25c3.01-2.88,3.72-6.59,3.84-10.51c0.01-0.32-0.02-0.78-0.22-0.95
	c-2.84-2.33-2.19-5.54-2.29-8.59c-0.05-1.49-0.45-2.96-0.56-4.46c-0.07-0.89,0.12-1.8,0.2-2.7c0.92,0.2,2.03,0.14,2.74,0.64
	c4.12,2.9,7.32,6.59,8.88,11.47c0.62,1.94,0.91,4,1.35,5.97c-3.61,1.07-3.33,1.11-3.83,4.61c-0.52,3.67-1.94,7.22-2.44,10.9
	c-0.37,2.72,0.09,5.56,0.23,8.34c0.06,1.14,0.25,2.27,0.43,3.81c-3.18,0-6.08-0.15-8.96,0.06c-1.51,0.11-3.12,0.57-4.42,1.33
	c-3.37,1.96-6.83,3.5-10.78,3.58c-1.44,0.03-2.02,0.48-2.22,1.99c-0.1,0.78-1.15,2.05-1.77,2.06c-6.28,0.03-12.09-1.43-16.55-6.24
	c-0.82-0.88-1.38-1.99-2.23-3.23c4.67-2.2,9.76,1.37,13.93-2.14c2.25,3.32,5.08,2.08,7.72,0.79c1.93-0.94,3.72-2.22,5.41-3.56
	c2.55-2.02,2.53-3.18,0.09-5.43c-5.4-4.98-10.85-9.93-16.27-14.89c-4.36-3.99-8.72-7.99-13.17-12.07
	C79.59-58.3,72.27-51.6,64.95-44.9c-2.4,2.2-4.83,4.38-7.17,6.64c-1.92,1.85-1.95,3.14,0.18,4.75c2.18,1.64,4.49,3.21,6.96,4.33
	C67.06-28.2,69.64-27.18,71.2-30.66z M108.96-85.57c-0.36,0.36-0.73,0.73-1.09,1.09c3.32-0.94,4.75-2.3,4.47-4.37
	c-0.25-1.88-1.43-2.96-3.26-3.23c-2.05-0.3-3.75,1.38-4.53,4.32c0.49-0.49,0.98-0.98,1.48-1.47
	C107.01-88.01,107.98-86.79,108.96-85.57z M66.5-84.05c1.23-1.3,2.38-2.5,3.55-3.74c-1.03-2.79-2.58-4.12-4.62-3.8
	c-1.79,0.28-2.77,1.43-3.04,3.15C62.06-86.34,63.24-85.16,66.5-84.05z"/>
<g>
	<path class="st0" d="M146.88,112.68c5.12,4.38,10.89,0.57,16.54,2.61c-1.16,1.68-1.96,3.34-3.19,4.54
		c-5.22,5.04-11.67,6.88-18.76,6.6c-0.74-0.03-2.03-1.32-2.05-2.05c-0.04-2.26-1.38-2.28-3.02-2.65c-3.29-0.75-6.88-1.23-9.67-2.94
		c-3.93-2.4-8.03-2.67-12.29-2.87c-1.83-0.09-3.67-0.01-5.84-0.01c0.29-2.94,0.31-5.57,0.86-8.08c0.63-2.89,0.14-5.38-0.84-8.17
		c-1.26-3.63-1.86-7.57-2.13-11.42c-0.19-2.75-0.38-4.69-4.49-3.93c0.52-2.64,0.81-4.9,1.41-7.08c1.66-6.02,5.62-10.42,10.51-14.01
		c0.84-0.62,2.28-0.42,3.45-0.6c0.03,0.99,0.13,1.99,0.07,2.98c-0.19,2.91-0.31,5.83-0.75,8.71c-0.28,1.86-0.7,3.9-1.73,5.4
		c-2.93,4.24,0.85,15.09,5.95,16.3c0.63,0.15,1.56-0.18,2.1-0.6c11.91-9.49,23.78-19.02,35.96-28.8c-1.55-1.43-2.94-2.72-4.44-4.1
		c-2.29,1.42-4.46,4.91-7.41,1.68c-2.34-2.56,0.09-4.61,1.92-6.64c-1.71-1.89-3.05-3.43-6.25-2.81c-5.14,0.99-9.84-2.98-10.9-8.37
		c-0.81-4.12,1.96-8.44,6.2-9.66c5.9-1.7,12.68,3.12,12.23,9.43c-0.27,3.72,1.92,4.59,3.99,6.28c2.07-1.6,4.12-4.07,6.66-1.67
		c2.08,1.97,0.92,4.28-0.78,6.11c6.04,5.5,4.19,5.54,11.14-0.43c-1.48-1.94-3.08-4.25-0.72-6.33c2.61-2.3,4.6,0.24,6.67,1.75
		c1.93-1.75,4.42-2.47,3.87-6.28c-0.69-4.77,4.12-9.32,9.05-9.75c4.66-0.41,8.54,2.61,9.41,7.34c1.1,5.93-4.53,11.96-10.86,11.02
		c-3.01-0.45-4.54,0.66-6.14,2.78c1.43,2.12,4.44,4.23,1.49,6.95c-2.92,2.69-4.85-0.54-7.16-2.06c-1.65,1.54-3.26,3.04-5.1,4.75
		c6.06,4.85,11.9,9.54,17.75,14.22c5.94,4.77,11.94,9.46,17.79,14.34c2.23,1.86,3.96,1.53,5.86-0.29c3.52-3.37,4.35-7.7,4.49-12.29
		c0.01-0.37-0.02-0.91-0.25-1.11c-3.32-2.72-2.56-6.48-2.68-10.05c-0.06-1.74-0.52-3.47-0.65-5.21c-0.08-1.04,0.14-2.1,0.23-3.15
		c1.08,0.23,2.37,0.16,3.2,0.74c4.82,3.39,8.56,7.71,10.39,13.41c0.73,2.27,1.07,4.67,1.57,6.98c-4.23,1.26-3.89,1.3-4.47,5.39
		c-0.61,4.3-2.27,8.45-2.85,12.74c-0.43,3.18,0.1,6.5,0.27,9.75c0.07,1.33,0.3,2.65,0.51,4.46c-3.72,0-7.11-0.17-10.48,0.07
		c-1.76,0.13-3.65,0.67-5.17,1.56c-3.94,2.29-7.99,4.09-12.61,4.18c-1.69,0.03-2.37,0.56-2.6,2.32c-0.12,0.91-1.34,2.4-2.07,2.4
		c-7.34,0.04-14.13-1.68-19.35-7.3c-0.95-1.03-1.62-2.33-2.61-3.78c5.46-2.57,11.41,1.61,16.29-2.5c2.63,3.89,5.94,2.43,9.02,0.92
		c2.25-1.1,4.35-2.6,6.33-4.17c2.98-2.36,2.96-3.72,0.1-6.35c-6.32-5.83-12.68-11.61-19.02-17.41c-5.1-4.67-10.2-9.34-15.4-14.12
		c-8.75,8-17.31,15.84-25.87,23.68c-2.81,2.57-5.65,5.12-8.39,7.76c-2.25,2.17-2.28,3.67,0.22,5.55c2.55,1.92,5.25,3.75,8.14,5.07
		C142.04,115.56,145.05,116.75,146.88,112.68z M191.03,48.48c-0.43,0.43-0.85,0.85-1.28,1.28c3.88-1.1,5.55-2.69,5.23-5.11
		c-0.3-2.19-1.68-3.46-3.81-3.77c-2.39-0.35-4.38,1.61-5.29,5.05c0.58-0.57,1.15-1.15,1.73-1.72
		C188.75,45.63,189.89,47.05,191.03,48.48z M141.38,50.26c1.44-1.52,2.78-2.93,4.15-4.38c-1.21-3.27-3.01-4.81-5.4-4.45
		c-2.09,0.32-3.23,1.68-3.56,3.69C136.19,47.58,137.58,48.96,141.38,50.26z"/>
	<g>
		<path class="st0" d="M271.52,65.32v9.59h-6.81V46.65h11.28c2.16,0,4.07,0.4,5.74,1.19s2.95,1.93,3.86,3.4
			c0.91,1.47,1.37,3.13,1.37,5c0,2.76-0.99,4.96-2.96,6.61c-1.97,1.65-4.68,2.48-8.12,2.48H271.52z M271.52,60.06h4.46
			c1.32,0,2.33-0.33,3.02-0.99s1.04-1.59,1.04-2.79c0-1.32-0.36-2.38-1.07-3.16s-1.68-1.19-2.91-1.2h-4.54V60.06z"/>
		<path class="st0" d="M301.09,64.91h-3.69v10h-6.81V46.65h11.12c3.35,0,5.97,0.74,7.86,2.23c1.89,1.49,2.83,3.59,2.83,6.3
			c0,1.97-0.4,3.59-1.19,4.89s-2.04,2.34-3.74,3.14l5.9,11.41v0.29h-7.3L301.09,64.91z M297.4,59.67h4.31
			c1.29,0,2.27-0.34,2.92-1.02c0.65-0.68,0.98-1.63,0.98-2.85s-0.33-2.18-0.99-2.87c-0.66-0.69-1.63-1.04-2.91-1.04h-4.31V59.67z"/>
		<path class="st0" d="M334.05,62.91h-10.72v6.75h12.66v5.24h-19.47V46.65h19.51v5.26h-12.7v5.96h10.72V62.91z"/>
		<path class="st0" d="M356.57,63.65h-10.99v11.26h-6.81V46.65h18.91v5.26h-12.09v6.5h10.99V63.65z"/>
		<path class="st0" d="M378.04,62.91h-10.72v6.75h12.66v5.24h-19.47V46.65h19.51v5.26h-12.7v5.96h10.72V62.91z"/>
		<path class="st0" d="M405.62,65.34c-0.09,1.97-0.62,3.71-1.59,5.21c-0.97,1.51-2.33,2.68-4.09,3.5c-1.75,0.83-3.76,1.24-6.01,1.24
			c-3.71,0-6.64-1.21-8.77-3.63c-2.13-2.42-3.2-5.84-3.2-10.25v-1.4c0-2.77,0.48-5.19,1.45-7.27s2.35-3.68,4.16-4.81
			c1.81-1.13,3.91-1.7,6.29-1.7c3.43,0,6.19,0.9,8.27,2.71s3.27,4.29,3.55,7.46h-6.79c-0.05-1.72-0.49-2.96-1.3-3.71
			c-0.82-0.75-2.06-1.13-3.73-1.13c-1.7,0-2.94,0.63-3.73,1.9c-0.79,1.27-1.2,3.29-1.24,6.08v2c0,3.02,0.38,5.17,1.14,6.46
			c0.76,1.29,2.06,1.94,3.91,1.94c1.57,0,2.76-0.37,3.59-1.11c0.83-0.74,1.27-1.91,1.32-3.51H405.62z"/>
		<path class="st0" d="M430.47,51.91h-8.48v23h-6.81v-23h-8.33v-5.26h23.62V51.91z"/>
		<path class="st0" d="M455.51,46.65v18.5c0,2.1-0.45,3.91-1.34,5.44c-0.89,1.53-2.17,2.7-3.84,3.5c-1.67,0.8-3.64,1.2-5.92,1.2
			c-3.44,0-6.15-0.89-8.13-2.68c-1.98-1.79-2.99-4.23-3.03-7.34V46.65h6.85v18.77c0.08,3.09,1.51,4.64,4.31,4.64
			c1.41,0,2.48-0.39,3.2-1.17s1.09-2.04,1.09-3.79V46.65H455.51z"/>
		<path class="st0" d="M470.26,64.91h-3.69v10h-6.81V46.65h11.12c3.35,0,5.97,0.74,7.86,2.23c1.89,1.49,2.83,3.59,2.83,6.3
			c0,1.97-0.4,3.59-1.19,4.89s-2.04,2.34-3.74,3.14l5.9,11.41v0.29h-7.3L470.26,64.91z M466.57,59.67h4.31
			c1.29,0,2.27-0.34,2.92-1.02c0.65-0.68,0.98-1.63,0.98-2.85s-0.33-2.18-0.99-2.87c-0.66-0.69-1.63-1.04-2.91-1.04h-4.31V59.67z"/>
		<path class="st0" d="M501.75,69.63h-9.34l-1.63,5.28h-7.28l10.37-28.26h6.41l10.44,28.26h-7.32L501.75,69.63z M494.04,64.37h6.08
			l-3.05-9.8L494.04,64.37z"/>
		<path class="st0" d="M280.28,101.8h-4.66l-6.89-12.1v12.1h-4.69V82.36h4.69l6.88,12.1v-12.1h4.67V101.8z"/>
		<path class="st0" d="M294.52,98.17h-6.42l-1.12,3.63h-5.01l7.13-19.44h4.41l7.18,19.44h-5.03L294.52,98.17z M289.22,94.55h4.18
			l-2.1-6.74L289.22,94.55z"/>
		<path class="st0" d="M308.62,96.51l3.87-14.15h5.23l-6.54,19.44h-5.13l-6.49-19.44h5.19L308.62,96.51z"/>
		<path class="st0" d="M329.18,98.17h-6.42l-1.12,3.63h-5.01l7.13-19.44h4.41l7.18,19.44h-5.03L329.18,98.17z M323.88,94.55h4.18
			l-2.1-6.74L323.88,94.55z"/>
		<path class="st0" d="M341.45,98.2h8.16v3.6h-12.84V82.36h4.69V98.2z"/>
		<path class="st0" d="M369.44,98.17h-6.42l-1.12,3.63h-5.01l7.13-19.44h4.41l7.18,19.44h-5.03L369.44,98.17z M364.14,94.55h4.18
			l-2.1-6.74L364.14,94.55z"/>
		<path class="st0" d="M384.24,94.92h-2.54v6.88h-4.69V82.36h7.65c2.31,0,4.11,0.51,5.41,1.53c1.3,1.02,1.95,2.47,1.95,4.33
			c0,1.35-0.27,2.47-0.82,3.36c-0.55,0.89-1.4,1.61-2.57,2.16l4.06,7.85v0.2h-5.02L384.24,94.92z M381.71,91.32h2.96
			c0.89,0,1.56-0.23,2.01-0.7c0.45-0.47,0.67-1.12,0.67-1.96s-0.23-1.5-0.68-1.97s-1.12-0.72-2-0.72h-2.96V91.32z"/>
		<path class="st0" d="M410.77,99.4c-0.72,0.8-1.78,1.45-3.16,1.94c-1.39,0.49-2.91,0.73-4.57,0.73c-2.54,0-4.58-0.78-6.1-2.34
			c-1.52-1.56-2.34-3.72-2.44-6.5l-0.01-1.68c0-1.91,0.34-3.58,1.01-5.01s1.64-2.53,2.9-3.3c1.26-0.77,2.72-1.15,4.37-1.15
			c2.42,0,4.3,0.55,5.64,1.66c1.34,1.11,2.12,2.76,2.34,4.96h-4.51c-0.16-1.08-0.51-1.86-1.04-2.32s-1.29-0.69-2.27-0.69
			c-1.17,0-2.08,0.5-2.72,1.5s-0.97,2.42-0.97,4.27v1.17c0,1.94,0.33,3.4,1,4.37c0.66,0.97,1.71,1.46,3.13,1.46
			c1.22,0,2.13-0.27,2.72-0.81v-3.02h-3.26v-3.22h7.94V99.4z"/>
		<path class="st0" d="M425.55,93.55h-7.37v4.65h8.71v3.6h-13.39V82.36h13.42v3.62h-8.73v4.1h7.37V93.55z"/>
		<path class="st0" d="M445.03,101.8h-4.66l-6.89-12.1v12.1h-4.69V82.36h4.69l6.88,12.1v-12.1h4.67V101.8z"/>
		<path class="st0" d="M462.87,85.98h-5.83v15.82h-4.69V85.98h-5.73v-3.62h16.25V85.98z"/>
		<path class="st0" d="M469.84,101.8h-4.67V82.36h4.67V101.8z"/>
		<path class="st0" d="M489.33,101.8h-4.66l-6.89-12.1v12.1h-4.69V82.36h4.69l6.88,12.1v-12.1h4.67V101.8z"/>
		<path class="st0" d="M503.57,98.17h-6.42l-1.12,3.63h-5.01l7.13-19.44h4.41l7.18,19.44h-5.03L503.57,98.17z M498.27,94.55h4.18
			l-2.1-6.74L498.27,94.55z"/>
		<path class="st0" d="M273.02,122.68h-6.12l-1.28,3.68h-2.85l5.97-15.79h2.46l5.98,15.79h-2.86L273.02,122.68z M267.68,120.46h4.58
			l-2.29-6.55L267.68,120.46z"/>
		<path class="st0" d="M291,110.56v10.55c0,1.68-0.54,3.01-1.61,3.99c-1.07,0.98-2.5,1.47-4.29,1.47c-1.81,0-3.24-0.48-4.31-1.45
			c-1.06-0.96-1.59-2.3-1.59-4.02v-10.54h2.73v10.57c0,1.06,0.27,1.86,0.8,2.42s1.32,0.83,2.36,0.83c2.11,0,3.17-1.11,3.17-3.34
			v-10.48H291z"/>
		<path class="st0" d="M306.01,112.77h-4.92v13.58h-2.72v-13.58h-4.88v-2.21h12.53V112.77z"/>
		<path class="st0" d="M321.05,118.87c0,1.55-0.27,2.91-0.8,4.07s-1.3,2.06-2.29,2.69c-0.99,0.63-2.14,0.94-3.43,0.94
			c-1.28,0-2.42-0.31-3.42-0.94c-1-0.62-1.78-1.52-2.32-2.67s-0.82-2.49-0.83-4v-0.89c0-1.54,0.27-2.9,0.82-4.08
			c0.55-1.18,1.32-2.08,2.31-2.71c0.99-0.63,2.13-0.94,3.42-0.94s2.43,0.31,3.42,0.93c0.99,0.62,1.76,1.51,2.3,2.67
			c0.54,1.16,0.82,2.51,0.82,4.05V118.87z M318.3,118.05c0-1.75-0.33-3.09-0.99-4.02c-0.66-0.93-1.6-1.4-2.82-1.4
			c-1.19,0-2.11,0.46-2.78,1.39c-0.67,0.93-1.01,2.24-1.03,3.94v0.91c0,1.74,0.34,3.08,1.01,4.02c0.68,0.95,1.61,1.42,2.81,1.42
			c1.22,0,2.15-0.46,2.8-1.39s0.98-2.28,0.98-4.06V118.05z"/>
		<path class="st0" d="M330.25,120.28h-3.06v6.07h-2.74v-15.79H330c1.82,0,3.23,0.41,4.22,1.23c0.99,0.82,1.49,2,1.49,3.55
			c0,1.06-0.25,1.94-0.76,2.65s-1.22,1.26-2.13,1.64l3.55,6.58v0.14h-2.94L330.25,120.28z M327.19,118.07h2.82
			c0.93,0,1.65-0.23,2.17-0.7s0.78-1.1,0.78-1.91c0-0.85-0.24-1.5-0.72-1.96c-0.48-0.46-1.2-0.7-2.15-0.72h-2.9V118.07z"/>
		<path class="st0" d="M341.87,126.36h-2.73v-15.79h2.73V126.36z"/>
		<path class="st0" d="M345.91,126.36v-15.79h4.66c1.4,0,2.63,0.31,3.72,0.93s1.92,1.5,2.51,2.65c0.59,1.14,0.89,2.45,0.89,3.93
			v0.79c0,1.5-0.3,2.81-0.89,3.95c-0.6,1.13-1.45,2.01-2.55,2.62c-1.1,0.61-2.37,0.92-3.79,0.92H345.91z M348.66,112.77v11.39h1.79
			c1.44,0,2.54-0.45,3.31-1.35c0.77-0.9,1.16-2.19,1.18-3.88v-0.88c0-1.71-0.37-3.02-1.12-3.93c-0.75-0.9-1.83-1.36-3.24-1.36
			H348.66z"/>
		<path class="st0" d="M369.71,122.68h-6.12l-1.28,3.68h-2.85l5.97-15.79h2.46l5.98,15.79H371L369.71,122.68z M364.36,120.46h4.58
			l-2.29-6.55L364.36,120.46z"/>
		<path class="st0" d="M376.32,126.36v-15.79h4.66c1.4,0,2.63,0.31,3.72,0.93s1.92,1.5,2.51,2.65c0.59,1.14,0.89,2.45,0.89,3.93
			v0.79c0,1.5-0.3,2.81-0.89,3.95c-0.6,1.13-1.45,2.01-2.55,2.62c-1.1,0.61-2.37,0.92-3.79,0.92H376.32z M379.06,112.77v11.39h1.79
			c1.44,0,2.54-0.45,3.31-1.35c0.77-0.9,1.16-2.19,1.18-3.88v-0.88c0-1.71-0.37-3.02-1.12-3.93c-0.75-0.9-1.83-1.36-3.24-1.36
			H379.06z"/>
		<path class="st0" d="M401.26,110.56l4.56,12.11l4.54-12.11h3.55v15.79h-2.73v-5.21l0.27-6.96l-4.67,12.17h-1.96l-4.65-12.16
			l0.27,6.95v5.21h-2.73v-15.79H401.26z"/>
		<path class="st0" d="M426.85,122.68h-6.12l-1.28,3.68h-2.85l5.97-15.79h2.46l5.98,15.79h-2.86L426.85,122.68z M421.5,120.46h4.58
			l-2.29-6.55L421.5,120.46z"/>
		<path class="st0" d="M439.26,120.28h-3.06v6.07h-2.74v-15.79h5.55c1.82,0,3.23,0.41,4.22,1.23c0.99,0.82,1.49,2,1.49,3.55
			c0,1.06-0.25,1.94-0.76,2.65s-1.22,1.26-2.13,1.64l3.55,6.58v0.14h-2.94L439.26,120.28z M436.21,118.07h2.82
			c0.93,0,1.65-0.23,2.17-0.7s0.78-1.1,0.78-1.91c0-0.85-0.24-1.5-0.72-1.96c-0.48-0.46-1.2-0.7-2.15-0.72h-2.9V118.07z"/>
		<path class="st0" d="M450.89,126.36h-2.73v-15.79h2.73V126.36z M450.29,106.25h3l-3,3.29l-2.12-0.01L450.29,106.25z"/>
		<path class="st0" d="M466.02,112.77h-4.92v13.58h-2.72v-13.58h-4.88v-2.21h12.53V112.77z"/>
		<path class="st0" d="M471.66,126.36h-2.73v-15.79h2.73V126.36z"/>
		<path class="st0" d="M479.26,110.56l4.56,12.11l4.54-12.11h3.55v15.79h-2.73v-5.21l0.27-6.96l-4.67,12.17h-1.96l-4.65-12.16
			l0.27,6.95v5.21h-2.73v-15.79H479.26z"/>
		<path class="st0" d="M504.85,122.68h-6.12l-1.28,3.68h-2.85l5.97-15.79h2.46l5.98,15.79h-2.86L504.85,122.68z M499.5,120.46h4.58
			l-2.29-6.55L499.5,120.46z"/>
	</g>
</g>
</svg>
