<?xml version="1.0" encoding="utf-8"?>
<!-- Generator: Adobe Illustrator 26.0.3, SVG Export Plug-In . SVG Version: 6.00 Build 0)  -->
<svg version="1.1" id="Capa_1" xmlns="http://www.w3.org/2000/svg" xmlns:xlink="http://www.w3.org/1999/xlink" x="0px" y="0px"
	 viewBox="0 0 500 500" style="enable-background:new 0 0 500 500;" xml:space="preserve">
<style type="text/css">
	.st0{fill:#FFFFFF;}
</style>
<path class="st0" d="M206.9,321.2c11.7,10,24.8,1.3,37.7,6c-2.6,3.8-4.5,7.6-7.3,10.3c-11.9,11.5-26.6,15.7-42.8,15
	c-1.7-0.1-4.6-3-4.7-4.7c-0.1-5.1-3.1-5.2-6.9-6c-7.5-1.7-15.7-2.8-22-6.7c-9-5.5-18.3-6.1-28-6.5c-4.2-0.2-8.4,0-13.3,0
	c0.7-6.7,0.7-12.7,2-18.4c1.4-6.6,0.3-12.3-1.9-18.6c-2.9-8.3-4.2-17.3-4.8-26c-0.4-6.3-0.9-10.7-10.2-9c1.2-6,1.8-11.2,3.2-16.1
	c3.8-13.7,12.8-23.7,23.9-31.9c1.9-1.4,5.2-1,7.9-1.4c0.1,2.3,0.3,4.5,0.2,6.8c-0.4,6.6-0.7,13.3-1.7,19.8
	c-0.6,4.2-1.6,8.9-3.9,12.3c-6.7,9.7,1.9,34.4,13.6,37.1c1.4,0.3,3.6-0.4,4.8-1.4c27.1-21.6,54.2-43.3,81.9-65.6
	c-3.5-3.3-6.7-6.2-10.1-9.3c-5.2,3.2-10.2,11.2-16.9,3.8c-5.3-5.8,0.2-10.5,4.4-15.1c-3.9-4.3-7-7.8-14.2-6.4
	c-11.7,2.3-22.4-6.8-24.8-19.1c-1.9-9.4,4.5-19.2,14.1-22c13.5-3.9,28.9,7.1,27.9,21.5c-0.6,8.5,4.4,10.5,9.1,14.3
	c4.7-3.6,9.4-9.3,15.2-3.8c4.7,4.5,2.1,9.8-1.8,13.9c13.8,12.5,9.5,12.6,25.4-1c-3.4-4.4-7-9.7-1.6-14.4c5.9-5.2,10.5,0.6,15.2,4
	c4.4-4,10.1-5.6,8.8-14.3c-1.6-10.9,9.4-21.2,20.6-22.2c10.6-0.9,19.5,6,21.4,16.7c2.5,13.5-10.3,27.3-24.7,25.1
	c-6.9-1-10.3,1.5-14,6.3c3.2,4.8,10.1,9.6,3.4,15.8c-6.6,6.1-11-1.2-16.3-4.7c-3.8,3.5-7.4,6.9-11.6,10.8
	c13.8,11.1,27.1,21.7,40.4,32.4c13.5,10.9,27.2,21.6,40.5,32.7c5.1,4.2,9,3.5,13.3-0.7c8-7.7,9.9-17.6,10.2-28c0-0.9,0-2.1-0.6-2.5
	c-7.6-6.2-5.8-14.8-6.1-22.9c-0.1-4-1.2-7.9-1.5-11.9c-0.2-2.4,0.3-4.8,0.5-7.2c2.5,0.5,5.4,0.4,7.3,1.7c11,7.7,19.5,17.6,23.7,30.6
	c1.7,5.2,2.4,10.6,3.6,15.9c-9.6,2.9-8.9,3-10.2,12.3c-1.4,9.8-5.2,19.2-6.5,29c-1,7.2,0.2,14.8,0.6,22.2c0.2,3,0.7,6,1.2,10.2
	c-8.5,0-16.2-0.4-23.9,0.2c-4,0.3-8.3,1.5-11.8,3.5c-9,5.2-18.2,9.3-28.7,9.5c-3.8,0.1-5.4,1.3-5.9,5.3c-0.3,2.1-3.1,5.5-4.7,5.5
	c-16.7,0.1-32.2-3.8-44.1-16.6c-2.2-2.3-3.7-5.3-5.9-8.6c12.4-5.9,26,3.7,37.1-5.7c6,8.9,13.5,5.5,20.6,2.1
	c5.1-2.5,9.9-5.9,14.4-9.5c6.8-5.4,6.8-8.5,0.2-14.5c-14.4-13.3-28.9-26.4-43.3-39.7c-11.6-10.6-23.2-21.3-35.1-32.2
	c-19.9,18.2-39.4,36.1-59,54c-6.4,5.9-12.9,11.7-19.1,17.7c-5.1,4.9-5.2,8.4,0.5,12.6c5.8,4.4,12,8.6,18.5,11.5
	C195.9,327.8,202.8,330.5,206.9,321.2z M307.5,175c-1,1-1.9,1.9-2.9,2.9c8.8-2.5,12.7-6.1,11.9-11.6c-0.7-5-3.8-7.9-8.7-8.6
	c-5.5-0.8-10,3.7-12.1,11.5c1.3-1.3,2.6-2.6,3.9-3.9C302.4,168.5,305,171.7,307.5,175z M194.4,179c3.3-3.5,6.3-6.7,9.5-10
	c-2.8-7.4-6.9-11-12.3-10.1c-4.8,0.7-7.4,3.8-8.1,8.4C182.6,172.9,185.7,176,194.4,179z"/>
</svg>
