<?xml version="1.0" encoding="utf-8"?>
<!-- Generator: Adobe Illustrator 26.0.3, SVG Export Plug-In . SVG Version: 6.00 Build 0)  -->
<svg version="1.1" id="Capa_1" xmlns="http://www.w3.org/2000/svg" xmlns:xlink="http://www.w3.org/1999/xlink" x="0px" y="0px"
	 viewBox="0 0 16 16" style="enable-background:new 0 0 16 16;" xml:space="preserve">
<style type="text/css">
	.st0{fill:#FFFFFF;}
</style>
<path class="st0" d="M10,4.9l1,3.8C10.2,8.9,9.1,9,8,9S5.8,8.9,5.1,8.7l1-3.8C6.6,5,7.3,5,8,5S9.4,5,10,4.9z M9.7,3.9L9,0.9
	c-0.3-1-1.7-1-1.9,0l-0.8,3C6.8,4,7.4,4,8,4S9.2,4,9.7,3.9z M14.1,12.5c0.3,0.1,0.4,0.3,0.4,0.6c0,0.2-0.2,0.3-0.3,0.4l-6,2
	c-0.1,0-0.2,0-0.3,0l-6-2c-0.3-0.1-0.4-0.4-0.3-0.6c0.1-0.2,0.2-0.3,0.4-0.3l2.4-0.6l0.6-2.3C5.7,9.9,6.8,10,8,10s2.3-0.1,3.2-0.3
	l0.6,2.3C11.7,11.9,14.1,12.5,14.1,12.5z"/>
</svg>
