<?xml version="1.0" encoding="utf-8"?>
<!-- Generator: Adobe Illustrator 26.0.3, SVG Export Plug-In . SVG Version: 6.00 Build 0)  -->
<svg version="1.1" id="Layer_1" xmlns="http://www.w3.org/2000/svg" xmlns:xlink="http://www.w3.org/1999/xlink" x="0px" y="0px"
	 viewBox="0 0 50.5 50.5" style="enable-background:new 0 0 50.5 50.5;" xml:space="preserve">
<style type="text/css">
	.st0{fill:#A94442;}
</style>
<g>
	<path class="st0" d="M17.6,17h13.1c0.4,0,0.8-0.4,0.8-0.8c0-0.4-0.4-0.8-0.8-0.8H17.6c-0.4,0-0.8,0.4-0.8,0.8
		C16.8,16.6,17.1,17,17.6,17C17.6,17,17.6,17,17.6,17z"/>
	<path class="st0" d="M14.7,21.6h16c0.4,0,0.8-0.4,0.8-0.8c0-0.4-0.3-0.7-0.6-0.7c-0.1,0-0.1,0-0.2,0h-16c-0.4,0-0.8,0.3-0.8,0.8
		c0,0,0,0,0,0l0,0C13.9,21.2,14.2,21.6,14.7,21.6z"/>
	<path class="st0" d="M31.6,25.5c0-0.4-0.3-0.8-0.7-0.9c-0.1,0-0.1,0-0.2,0h-16c-0.4,0-0.8,0.3-0.8,0.7c0,0,0,0,0,0l0,0
		c0,0.4,0.4,0.8,0.8,0.8h16C31.1,26.2,31.5,25.9,31.6,25.5z"/>
	<path class="st0" d="M48.1,38.1l-8.8-14.8c-0.2-0.4-0.5-0.7-0.9-0.8v-11c0-2.2-1.8-4.1-4.1-4.1H15c-0.8,0-1.5,0.3-2,0.9l-5.2,5.5
		c-0.5,0.5-0.7,1.2-0.8,1.9L7,40.9c0,2.2,1.8,4,4.1,4h23.2c2.1,0,3.8-1.6,4-3.7h7.9c1.2,0,2.1-0.9,2.1-2.1
		C48.3,38.8,48.2,38.4,48.1,38.1L48.1,38.1z M13.1,10.8v3.4H9.9L13.1,10.8z M34.3,43.3H11.1c-1.3,0-2.4-1.1-2.4-2.4c0,0,0,0,0,0
		V16.1H14c0.5,0,0.9-0.4,0.9-0.9V9h19.4c1.3,0,2.4,1.1,2.4,2.4v11c-0.5,0.2-0.8,0.5-1.1,0.9l-8.1,14.8c-0.6,1-0.2,2.3,0.8,2.8
		c0.3,0.2,0.7,0.3,1,0.3h7.3C36.5,42.4,35.5,43.3,34.3,43.3z M46.7,39.4c-0.1,0.2-0.3,0.3-0.4,0.2H29.4c-0.2,0-0.3-0.1-0.4-0.2
		c-0.1-0.2-0.1-0.3,0-0.5l8.1-14.8c0.1-0.2,0.2-0.3,0.4-0.3l0,0c0.2,0,0.3,0.1,0.4,0.2l8.8,14.8C46.8,39,46.8,39.2,46.7,39.4z"/>
	<path class="st0" d="M38.3,27.9h-1.4c-0.3,0-0.6,0.3-0.6,0.6c0,0.1,0,0.1,0,0.1L37,34c0,0.4,0.3,0.7,0.7,0.7c0.4,0,0.7-0.3,0.7-0.7
		l0.6-5.4c0.1-0.3-0.1-0.6-0.4-0.7C38.4,27.9,38.4,27.9,38.3,27.9z"/>
	<path class="st0" d="M37.6,35.6c-0.7,0-1.2,0.5-1.2,1.2c0,0,0,0,0,0.1l0,0c0,0.7,0.6,1.2,1.2,1.2s1.2-0.6,1.2-1.2l0,0
		C38.9,36.2,38.3,35.6,37.6,35.6C37.7,35.6,37.6,35.6,37.6,35.6z"/>
</g>
</svg>
