<?xml version="1.0" encoding="utf-8"?>
<!-- Generator: Adobe Illustrator 26.0.3, SVG Export Plug-In . SVG Version: 6.00 Build 0)  -->
<svg version="1.1" id="Capa_1" xmlns="http://www.w3.org/2000/svg" xmlns:xlink="http://www.w3.org/1999/xlink" x="0px" y="0px"
	 viewBox="0 0 1000 1000" style="enable-background:new 0 0 1000 1000;" xml:space="preserve">
<style type="text/css">
	.st0{fill:#FFFFFF;}
	.st1{clip-path:url(#SVGID_00000120551320656444476200000013058458099229555853_);}
	.st2{opacity:0.2;}
	.st3{fill:#6993B5;}
	.st4{fill:#AFC5D7;}
	.st5{fill:#8E624F;}
	.st6{fill:#3B2B21;}
	.st7{fill:#553E31;}
	.st8{fill:#434041;}
	.st9{fill:none;stroke:#434041;stroke-miterlimit:10;}
	.st10{fill:#B58363;}
	.st11{fill:#7B4F40;}
	.st12{fill:#DAA17F;}
	.st13{fill:#1D1611;}
	.st14{fill:#D8946D;}
	.st15{fill:#E9AD89;}
	.st16{fill:#F4D2BB;}
	.st17{fill:#D7B69F;}
	.st18{fill:#FCDFC7;}
	.st19{fill:#B07F63;}
	.st20{fill:#A0725C;}
	.st21{fill:#37302D;}
	.st22{fill:#A07A61;}
	.st23{fill:#E8BC00;}
	.st24{fill:#DDBDA6;}
	.st25{clip-path:url(#SVGID_00000126290255840579238530000008462448061095789184_);}
	.st26{clip-path:url(#SVGID_00000126290255840579238530000008462448061095789184_);fill:#9B6E4E;}
	.st27{clip-path:url(#SVGID_00000134251032784319215590000007649785980320384917_);fill:#EF9195;}
	.st28{clip-path:url(#SVGID_00000134251032784319215590000007649785980320384917_);}
	.st29{clip-path:url(#SVGID_00000127023006296701176180000002145346690526888865_);fill:#CE5351;}
	.st30{clip-path:url(#SVGID_00000127023006296701176180000002145346690526888865_);fill:#E8695F;}
	.st31{clip-path:url(#SVGID_00000134251032784319215590000007649785980320384917_);fill:#FDFDFD;}
	.st32{clip-path:url(#SVGID_00000120551320656444476200000013058458099229555853_);fill:#0B75A4;}
	.st33{fill:#949494;}
	.st34{fill:#DEDBD9;}
	.st35{fill:#989898;}
	.st36{clip-path:url(#SVGID_00000069380188436148343490000005784175890869386394_);fill:#DDBDA6;}
	.st37{fill:#BA8A72;}
	.st38{fill:#915A3F;}
	.st39{clip-path:url(#SVGID_00000044889786089432875880000016790965143644230277_);fill:#915A3F;}
	.st40{clip-path:url(#SVGID_00000017501744996670676440000005868389202302033583_);fill:#915A3F;}
	.st41{opacity:0.7;fill:#DEDBD9;}
	.st42{opacity:0.7;}
	.st43{opacity:0.9;fill:#FFFFFF;}
	.st44{fill:#BA8A70;stroke:#BA8A70;stroke-miterlimit:10;}
	.st45{fill:#A07A61;stroke:#A07A61;stroke-miterlimit:10;}
</style>
<g>
	<circle class="st0" cx="500" cy="500" r="347.4"/>
	<g>
		<defs>
			<circle id="SVGID_1_" cx="500" cy="500" r="265.5"/>
		</defs>
		<clipPath id="SVGID_00000036239916714946018150000015083500847617408931_">
			<use xlink:href="#SVGID_1_"  style="overflow:visible;"/>
		</clipPath>
		<g style="clip-path:url(#SVGID_00000036239916714946018150000015083500847617408931_);">
			<path class="st2" d="M652,431.5c-2.1-4.3-4.9-8.7-8-12.3c0-0.1-0.1-0.1-0.2-0.2c8.9-3.2,23.2-10.2,24.9-22.2
				c0,0,1.9-13.3-15.2-4.8c0,0-6.8,3.2-23.6,6.7l-3.9-11l0,0l-4.9-13.8l0,0l-14.4-40.7c0,0-0.4-3.3-6.6-4.1c0,0-36.9-8.6-82.9-9.8
				c0,0,0,0,0,0c0,0,0,0,0,0c-46.1,1.2-82.9,9.8-82.9,9.8c-6.2,0.9-6.6,4.1-6.6,4.1l-3.3,9.4c0,0,0.1,0,0.1,0L413.3,374l0,0
				l-7.8,22.1l0,0l-1,2.8c-16.7-3.5-23.6-6.7-23.6-6.7c-17.1-8.6-15.2,4.8-15.2,4.8c1.5,11,13.6,17.8,22.5,21.3
				c-8.3,18.6-14.7,45.1-16.2,51.4c-14.3,16.7-27,35.2-30.5,51c0,0-1.3,9,0.1,22c2,20.5,10.6,52,42.4,73.9c0.2,0.1,0.4,0.3,0.6,0.4
				c0.7,0.5,1.5,1,2.3,1.5c0.4,0.3,0.8,0.5,1.3,0.8c0.6,0.4,1.1,0.7,1.7,1.1c0.6,0.4,1.3,0.8,1.9,1.1c0.4,0.2,0.8,0.5,1.2,0.7
				c0.8,0.5,1.7,0.9,2.5,1.4c0.2,0.1,0.5,0.2,0.7,0.4c1,0.5,2.1,1.1,3.1,1.6c0.1,0,0.2,0.1,0.3,0.1c8.6,4.1,18.4,7.7,29.6,10.4
				c0.2,0,0.4,0.1,0.6,0.1c1.4,0.3,2.7,0.6,4.1,0.9c0.5,0.1,1,0.2,1.6,0.3c1.1,0.2,2.1,0.4,3.2,0.6c0.3,0.1,0.5,0.1,0.8,0.2
				c-7.6,22.7-24.6,68.9-29.6,78.2c0,0-5.5,9.4,1.6,11.8l3.2,6.8l-9,26.2c0,0-5.2,9,6.5,10.2c0,0,62.9,32.5,162.4-0.8
				c0,0,2.6-0.4,4.5-2.4c1.3-0.4,2.5-0.8,3.8-1.2c0,0,5.4-0.9,6.4-6.1c5.9-0.6,14.5-2.6,25.2-7.9c5.2-2,11-4.8,17.3-8.8
				c0,0,2.3,0,0-9.5c0,0-12.7-73.3-23.6-116.2c1.7-0.7,3.4-1.7,5.2-2.9c4.6-3.1,8.8-6.8,12.3-11c5.1-6.1,9-13.2,11.3-20.9
				c1.5-5,0.6-6.6,6-7.8c4.6-1,9.1-2.1,13.4-4c5.6-2.5,10.9-6.4,13.8-11.8c2.8-5,3.4-11,3.7-16.7C675.8,505,668.8,466.1,652,431.5z
				 M439.5,638.1C439.5,638.1,439.5,638.1,439.5,638.1C439.5,638.1,439.5,638.1,439.5,638.1L439.5,638.1z"/>
			<g>
				<path class="st3" d="M430.2,570.8c7.7,0,15.5-0.1,23.2,0c7.4,0.1,12.4,4.6,12.3,10.8c-0.1,6.3-5,10.8-12.4,10.9
					c-15.7,0.1-31.3,0.1-47,0c-7.3-0.1-12.3-4.9-12.1-11.2c0.2-6.1,5.2-10.4,12.2-10.5C414.4,570.7,422.3,570.8,430.2,570.8z"/>
				<path class="st4" d="M501.9,634.4c-7.7,0-15.5,0-23.2,0c-7.1,0-11.4-3.6-11.7-9.5c-0.4-6.7,3.9-12,10.9-12.2
					c16.2-0.3,32.4-0.3,48.6,0c7.3,0.1,11.9,5.4,11.5,11.7c-0.3,5.8-5.5,9.9-12.7,9.9C517.4,634.4,509.7,634.4,501.9,634.4z"/>
				<path class="st3" d="M561.2,669.4c0,6.3-5,10.8-11.7,10.8c-6.3-0.1-11.3-4.8-11.4-10.7c-0.1-6.2,5-11,11.5-11
					C556.2,658.4,561.2,663.2,561.2,669.4z"/>
				<path class="st3" d="M444.7,612.5c6.6,0,11.7,4.8,11.6,10.9c-0.1,5.9-5,10.6-11.3,10.8c-6.6,0.1-11.8-4.6-11.8-10.7
					C433.1,617.2,438.1,612.6,444.7,612.5z"/>
				<path class="st3" d="M481.1,570.7c6.7,0,11.3,4.3,11.4,10.5c0.1,6.3-4.9,11.1-11.5,11.2c-6.4,0-11.7-5.1-11.6-11.2
					C469.5,575.3,474.6,570.7,481.1,570.7z"/>
				<path class="st4" d="M586.6,680.2c-6.7,0-11.6-4.6-11.6-10.9c0-6.2,5.1-10.9,11.7-10.9c6.1,0.1,11.4,5,11.5,10.7
					C598.3,675.3,593.2,680.1,586.6,680.2z"/>
				<path class="st5" d="M595.8,637.6l-160.6-13.5c-4.4,15-26.3,75.6-32.1,86.4c0,0-8.8,12.5-1.8,14.8l6.5,3.5l-8.9,25.9
					c0,0-5.1,8.9,6.4,10.1c0,0,62.2,32.1,160.6-0.8c0,0,7.7-1.3,6.2-9.5c0,0,17,2.8,42.1-12.9c0,0,2.3,0,0-9.4
					C614.3,732.2,605.2,679.5,595.8,637.6z"/>
				<path class="st6" d="M360.7,466.1c0.9,4.6,4.5,7.9,8.5,10.4c10.3,6.3,21.2,11.7,31.6,17.9c21.1,12.6,41.5,26.2,61.7,40
					c20.3,13.8,40.4,27.8,60.9,41.2c10.3,6.7,20.6,13.2,31.1,19.6c10.4,6.2,21,12.7,32,18c6,2.9,10.6,1,15.8-2.4
					c4.6-3.1,8.8-6.8,12.3-11c5.1-6.1,9-13.2,11.3-20.9c1.5-5,0.6-6.6,6-7.8c4.6-1,9.1-2.1,13.4-4c5.6-2.5,10.9-6.4,13.8-11.8
					c2.8-5,3.4-11,3.7-16.7c2-38.3-5.1-77.2-21.8-111.8c-2.1-4.3-4.9-8.7-8-12.3c-2.2-2.6-6.1-1.8-9.3-1.8c-4-0.1-8.1-0.1-12.1-0.2
					c-8.1-0.1-16.1-0.2-24.2-0.4c-32.5-0.5-65-1.2-97.4-2c-34.7-0.9-69.4-2-104.1-3.2c-0.6-0.7-1.5-1.1-2.7-1.1
					c-1.1,0-2,0.4-2.6,0.9c-0.1,0-0.1,0-0.2,0C369.4,427.1,360.7,466.1,360.7,466.1z"/>
				<path class="st7" d="M633.7,512.8c-3.5-25.6-9.5-51.3-21.2-74.7c-2.8-5.7-6-11.2-9.5-16.5c-3.4-5.2-7.2-11.1-11.9-15.4
					c-2.5-2.3-6.3-1.1-9.5-0.8c-4,0.4-8,0.8-12.1,1.2c-8,0.8-16.1,1.6-24.1,2.4c-20.5,2.1-41.1,4-61.6,6l19.2,165.1
					c10.2,5,20.5,10,30.9,14.6c11.1,5,22.4,10.2,34,14.1c6.3,2.1,10.7-0.2,15.4-4.3c4.2-3.6,8-7.7,11-12.3
					c5.9-8.8,9.1-18.7,9.6-28.9c9.6-3.1,19.8-7.1,26.3-14.8C638.7,538.4,635.3,524.6,633.7,512.8z"/>
				<ellipse class="st8" cx="464.4" cy="477.8" rx="2.9" ry="2.7"/>
				<ellipse class="st8" cx="545.6" cy="477.8" rx="2.9" ry="2.7"/>
				<path class="st9" d="M487.9,545.9c0,0,15.5,3,36.8-10.6"/>
				<path class="st9" d="M504.6,512.3c-2.8,2-6.8,1.4-8.9-1.2s-1.5-6.4,1.3-8.3"/>
				<g>
					<g>
						<path class="st10" d="M486.8,572.1c-66.1-1.2-69.1-26.2-69.1-26.2c-11.7-45.2,25.8-82.2,25.8-82.2l-33.7-47.3
							c0,0-70.2,58.7-79.3,99.4c0,0-14.2,99.4,101.6,118.2c0,0-17.4,59.9-24.8,73.9c0,0-8.9,12.6-1.8,15l6.6,3.6l-9,26.2
							c0,0-5.2,9,6.5,10.2c0,0,62.9,32.5,162.4-0.8c0,0,7.8-1.3,6.3-9.6c0,0,17.2,2.9,42.6-13.1c0,0,2.3,0,0-9.5
							c0,0-24-139-34.5-146.2c0,0-5.3-8.4-14.7-6.4l-19.3,2.4l-0.3-10.1L486.8,572.1z"/>
						<g>
							<path class="st11" d="M438,574.6l5.8,36.4c0,0,0.1,13.3,12.9,9.4c11.1-3.4,5.1,3.1,5.1,3.1l-5.8,11.1c0,0-3.3,4.1,2.8,9.6
								l61.6,63.9l-62.6-134.8l-19.8-4.1V574.6z"/>
							<path class="st5" d="M440.8,575.4l5.8,35.9c0,0,0.1,13.1,12.9,9.3c11.1-3.3,5.1,3.1,5.1,3.1l-5.8,10.9c0,0-3.3,4,2.8,9.5
								l61.6,63l-62.6-132.9l-19.8-4V575.4z"/>
							<path class="st11" d="M572.2,573.2l-5.8,35.9c0,0-0.1,13.1-12.9,9.3c-11.1-3.3-5.1,3.1-5.1,3.1l5.8,10.9c0,0,1.8,3.4-2.8,9.5
								l-33.4,53.1l-5.4-8.8L552.4,572l19.8-4V573.2z"/>
							<path class="st5" d="M569.5,573.2l-5.8,35.9c0,0-0.1,13.1-12.9,9.3c-11.1-3.3-5.1,3.1-5.1,3.1l5.8,10.9c0,0,1.8,3.4-2.8,9.5
								l-33.4,53.1l-5.4-8.8L549.7,572l19.8-4V573.2z"/>
							<g>
								<polygon class="st12" points="461.3,567.9 508.1,690.6 548.9,575.8 								"/>
								<g>
									<g>
										<g>
											<polygon class="st13" points="491.7,648.8 499.1,633.6 512.5,633.6 523.1,648.4 508.1,690.6 											"/>
											<path class="st13" d="M484.6,606.5l16.7,31.1c0,0,2.8,4,9.1,0l22-31.1l-26.1-11.9L484.6,606.5z"/>
											<path class="st6" d="M484.6,599.3l16.7,31.1c0,0,2.8,4,9.1,0l22-31.1l-26.1-11.9L484.6,599.3z"/>
										</g>
										<g>
											<path class="st14" d="M456.2,566.5l23.6,64.2c0,0,3.8,6.4,7.9,0l29.4-42.1L456.2,566.5z"/>
											<g>
												<path class="st14" d="M556.9,566.5l-23.6,64.2c0,0-3.8,6.4-7.9,0l-29.4-42.1L556.9,566.5z"/>
											</g>
										</g>
										<g>
											<path class="st15" d="M460.7,561.4l22,60.1c0,0,3.6,6,7.3,0l27.5-39.4L460.7,561.4z"/>
											<g>
												<path class="st15" d="M552.8,560.7l-22,60.1c0,0-3.6,6-7.3,0l-27.5-39.4L552.8,560.7z"/>
											</g>
										</g>
									</g>
								</g>
							</g>
						</g>
					</g>
					<path class="st16" d="M486.4,571.5l1,11.5l15.7,13.3c0,0,3.3,2.1,7.8,0l11.4-14.2l-1.3-11.5L486.4,571.5z"/>
					<path class="st17" d="M492,584.3c3.5,0.8,7.1,1.4,10.8,1.5c6.8,0.3,13.7-1.1,20.4-2.5c3.3-0.7,6.6-1.4,9.7-2.6
						c1.9-0.8,3.8-2,4-3.7c0.1-1.5-1.3-2.7-2.8-3.3c-1.8-0.8-3.9-1.2-6-1.5c-12.7-1.2-25.6,4.8-38.4,4.6c-1.1,0-2.2-0.1-3.3,0.2
						c-1.5,0.3-2.7,1.2-3.8,2.2c-1.6,1.4-0.6,1.7,1,2.5C486.1,583,489.1,583.7,492,584.3z"/>
				</g>
				<path class="st18" d="M610.7,496.1c-2.8-32.8-23.3-75.1-23.3-75.1l-74.1-2.4l0-0.4l-6.3,0.2l-6.3-0.2l0,0.4l-74.1,2.4
					c0,0-20.5,42.3-23.3,75.1c0,0-10.5,88,103.7,87.7C627.8,584.1,610.7,496.1,610.7,496.1z"/>
				<path class="st6" d="M557.7,408.8c-19.4-0.6-38.8-0.9-58.2-0.8c-9.3,0-18.6,0.1-28,0.3c-6.6,0.1-17.8-1.8-20,6.1
					c-0.6,2.2,0.1,3.9,1.4,5.1c-0.9,1.2-1.3,2.7-0.8,4.5c3.3,11.9,15.4,18.4,27.4,21.2c12.9,3,26.5,2.5,39.1-1.3
					c6.1,6.3,16.4,7.6,24.7,3.8c11.8-5.3,16.4-17.5,19.5-28.6c0.2-0.8,0.3-1.6,0.2-2.3C564.3,413.5,562.6,408.9,557.7,408.8z"/>
				<path class="st7" d="M559,401.5c-19.4-0.6-38.8-0.9-58.2-0.8c-9.3,0-18.6,0.1-28,0.3c-6.6,0.1-17.8-1.8-20,6.1
					c-0.6,2.2,0.1,3.9,1.4,5.1c-0.9,1.2-1.3,2.7-0.8,4.5c3.3,11.9,15.4,18.4,27.4,21.2c12.9,3,26.5,2.5,39.1-1.3
					c6.1,6.3,16.4,7.6,24.7,3.8c11.8-5.3,16.4-17.5,19.5-28.6c0.2-0.8,0.3-1.6,0.2-2.3C565.6,406.2,563.8,401.7,559,401.5z"/>
				<g>
					<g>
						<g>
							<path class="st10" d="M595.8,328.4c0,0-0.4-3.3-6.6-4.1c0,0-36.9-8.6-82.9-9.8c-46.1,1.2-82.9,9.8-82.9,9.8
								c-6.2,0.9-6.6,4.1-6.6,4.1l-23.5,66.3l54.4,14.7l58.6-4.9l58.6,4.9l54.4-14.7L595.8,328.4z"/>
						</g>
					</g>
					<path class="st19" d="M584.4,345.6c-8.3,1.3-16.9,2.6-24.9,5.1c-7.6,2.4-26.6,9.1-29.8-2.4c-0.1-0.2-0.1-0.3-0.2-0.5
						c-0.6,0-1.3,0-1.9,0c-1.2,0-2.5,0.2-3.7,0.3c-3.4,0.3-6.8,0.5-10.1,0.8c-8.2,0.8-16.4,2-24.6,3c-7.4,1-15,1.9-22.5,1.3
						c-3.8-0.3-7.7-1-11.2-2.5c-2.8-1.2-5.2-3.1-8.3-3.7c-12.2-2.4-25.6-0.4-37.8,3.2l-14.3,39.9c8.4-4,19.7-4.6,28.3-5.6
						c20.2-2.3,40.6-1.8,60.8-2.4c18.9-0.5,37.9-0.3,56.8-0.9c18-0.6,35.8-2.4,53.2-6.6c5.2-1.2,10.4-2.6,15.4-4.5l-9.5-26.5
						C595,344.1,589.6,344.8,584.4,345.6z"/>
					<path class="st20" d="M425.4,335.6c8.3-1,18-1.8,26.1,0.6c3,0.9,5.4,2.9,8.3,4c3.4,1.3,7.3,1.6,10.9,1.7
						c7.7,0.1,15.3-1.1,22.9-2c8.6-1.1,17.2-2.4,25.9-3c4.4-0.3,11.2-2.1,15,0.9c1.9,1.5,1.5,4.4,3.9,5.2c2.2,0.7,5,0.1,7.2-0.3
						c5.5-1.1,10.7-3.3,16.1-4.5c11.6-2.7,23.4-4.5,35.3-5.8l-1.4-4c0,0-0.4-3.3-6.6-4.1c0,0-36.9-8.6-82.9-9.8
						c-46.1,1.2-82.9,9.8-82.9,9.8c-6.2,0.9-6.6,4.1-6.6,4.1l-3.3,9.4C417.3,336.9,421.4,336.2,425.4,335.6z"/>
					<polygon points="402.3,369.2 393.3,394.7 447.7,409.4 506.3,404.6 564.9,409.4 619.3,394.7 610.2,369.2 					"/>
					<path class="st13" d="M439.4,379.7c16.3,0,32.6,0.2,48.8,2c16.1,1.8,32,6.5,48.2,7.4c17.1,0.9,34.1-1.6,51.1-3.8
						c9.2-1.2,18.4-1.9,27.6-2.3l-4.9-13.8H402.3l-5,14C411.1,380.2,425.3,379.7,439.4,379.7z"/>
					<path d="M580.7,393.4c-16.5,2.1-33.2,4.3-49.9,2.4c-16-1.8-31.5-5.9-47.6-7.5c-15.9-1.6-32-1.6-48-1.5
						c-13.8,0.1-27.5,0.9-40.8,4.4l-1.2,3.5l54.4,14.7l58.6-4.9l58.6,4.9l54.4-14.7l-1.6-4.6C605.3,390.7,593.1,391.8,580.7,393.4z"
						/>
					<ellipse class="st21" cx="508.9" cy="359.4" rx="34.7" ry="36.1"/>
					<path class="st13" d="M642.6,387.2c0,0-34,16-136.3,15.9C404,403.3,370,387.2,370,387.2c-17.1-8.6-15.2,4.8-15.2,4.8
						c2.4,17.6,31.9,24.4,31.9,24.4c20.9,5.9,98.7,8.7,119.6,8.9c20.8-0.2,98.6-3,119.6-8.9c0,0,29.5-6.8,31.9-24.4
						C657.8,392,659.6,378.7,642.6,387.2z"/>
				</g>
				<polyline class="st5" points="523.1,707.1 520.8,775.6 517.8,701.7 				"/>
				<ellipse class="st5" cx="507.1" cy="716.3" rx="6.2" ry="5.8"/>
				<ellipse class="st5" cx="507.4" cy="736.3" rx="6.2" ry="5.8"/>
				<polygon class="st5" points="569.5,676 581.6,753.8 575,755.3 				"/>
				<path class="st22" d="M530.6,484.8c0.6-3.6,1.8-7,3.9-10c3.2-4.8,8-6.5,13.7-4.7c6.8,2.1,10.9,6.9,14.2,12.6
					c0.2,0.4,0.1,0.9,0.2,1.7c-4.4-5.4-8.9-10.1-16.4-10.1C538.4,474.3,534.1,479.1,530.6,484.8z"/>
				<path class="st22" d="M455.2,484.8c2.2-4.8,4.5-9.4,9.2-12.4c4.1-2.6,7.9-2.1,11.1,1.5c3.3,3.7,4.8,8.2,6,12.9
					c-1.5-2.2-2.8-4.5-4.7-6.4c-4-4.1-7.6-4.8-12.9-2.2C460.5,479.8,457.9,482.4,455.2,484.8z"/>
				<path d="M502,369.6c1.8,1.4,3.8,0.2,5.7,0.8c-0.4,0.5-0.7,1.1-1.1,1.5c-1.8,1.6-4,2.2-6.5,2.1c-0.3,0-0.7-0.4-0.7-0.7
					c0-0.7-0.5-0.7-1-0.9c-1.1-0.2-2.4-0.4-3.3-1c-1.4-0.8-2.8-0.9-4.3-0.9c-0.6,0-1.3,0-2,0c0.1-1,0.1-1.8,0.3-2.6
					c0.2-0.9,0-1.7-0.3-2.7c-0.4-1.2-0.6-2.5-0.7-3.7c-0.1-0.9-0.1-1.5-1.6-1.3c0.2-0.9,0.3-1.6,0.5-2.3c0.6-2,1.9-3.4,3.6-4.6
					c0.3-0.2,0.8-0.1,1.2-0.2c0,0.3,0,0.6,0,1c-0.1,0.9-0.1,1.9-0.3,2.8c-0.1,0.6-0.2,1.3-0.6,1.8c-1,1.4,0.3,4.9,2.1,5.3
					c0.2,0,0.5-0.1,0.7-0.2c4.1-3.1,8.2-6.2,12.4-9.4c-0.5-0.5-1-0.9-1.5-1.3c-0.8,0.5-1.5,1.6-2.6,0.5c-0.8-0.8,0-1.5,0.7-2.2
					c-0.6-0.6-1.1-1.1-2.2-0.9c-1.8,0.3-3.4-1-3.8-2.7c-0.3-1.3,0.7-2.7,2.1-3.1c2-0.6,4.4,1,4.2,3.1c-0.1,1.2,0.7,1.5,1.4,2
					c0.7-0.5,1.4-1.3,2.3-0.5c0.7,0.6,0.3,1.4-0.3,2c2.1,1.8,1.5,1.8,3.9-0.1c-0.5-0.6-1.1-1.4-0.2-2.1c0.9-0.7,1.6,0.1,2.3,0.6
					c0.7-0.6,1.5-0.8,1.3-2c-0.2-1.5,1.4-3,3.1-3.2c1.6-0.1,3,0.8,3.3,2.4c0.4,1.9-1.6,3.9-3.8,3.6c-1-0.1-1.6,0.2-2.1,0.9
					c0.5,0.7,1.5,1.4,0.5,2.3c-1,0.9-1.7-0.2-2.5-0.7c-0.6,0.5-1.1,1-1.8,1.5c2.1,1.6,4.1,3.1,6.1,4.6c2.1,1.5,4.1,3.1,6.2,4.7
					c0.8,0.6,1.4,0.5,2-0.1c1.2-1.1,1.5-2.5,1.6-4c0-0.1,0-0.3-0.1-0.4c-1.1-0.9-0.9-2.1-0.9-3.3c0-0.6-0.2-1.1-0.2-1.7
					c0-0.3,0-0.7,0.1-1c0.4,0.1,0.8,0.1,1.1,0.2c1.7,1.1,3,2.5,3.6,4.4c0.3,0.7,0.4,1.5,0.5,2.3c-1.5,0.4-1.3,0.4-1.5,1.8
					c-0.2,1.4-0.8,2.7-1,4.1c-0.1,1,0,2.1,0.1,3.2c0,0.4,0.1,0.9,0.2,1.4c-1.3,0-2.5-0.1-3.6,0c-0.6,0-1.3,0.2-1.8,0.5
					c-1.4,0.7-2.8,1.3-4.4,1.4c-0.6,0-0.8,0.2-0.9,0.8c0,0.3-0.5,0.8-0.7,0.8c-2.5,0-4.9-0.5-6.7-2.4c-0.3-0.3-0.6-0.8-0.9-1.2
					c1.9-0.8,3.9,0.5,5.6-0.8c0.9,1.3,2.1,0.8,3.1,0.3c0.8-0.4,1.5-0.8,2.2-1.4c1-0.8,1-1.2,0-2.1c-2.2-1.9-4.4-3.8-6.6-5.7
					c-1.8-1.5-3.5-3-5.3-4.6c-3,2.6-6,5.1-9,7.7c-1,0.8-2,1.7-2.9,2.5c-0.8,0.7-0.8,1.2,0.1,1.8c0.9,0.6,1.8,1.2,2.8,1.6
					C500.3,370.5,501.4,370.9,502,369.6z M517.3,348.7c-0.1,0.1-0.3,0.3-0.4,0.4c1.3-0.4,1.9-0.9,1.8-1.7c-0.1-0.7-0.6-1.1-1.3-1.2
					c-0.8-0.1-1.5,0.5-1.8,1.6c0.2-0.2,0.4-0.4,0.6-0.6C516.5,347.8,516.9,348.3,517.3,348.7z M500.1,349.3c0.5-0.5,1-1,1.4-1.4
					c-0.4-1.1-1-1.6-1.9-1.4c-0.7,0.1-1.1,0.5-1.2,1.2C498.3,348.4,498.8,348.9,500.1,349.3z"/>
				<path class="st23" d="M501.1,368.7c1.8,1.4,3.8,0.2,5.7,0.8c-0.4,0.5-0.7,1.1-1.1,1.5c-1.8,1.6-4,2.2-6.5,2.1
					c-0.3,0-0.7-0.4-0.7-0.7c0-0.7-0.5-0.7-1-0.9c-1.1-0.2-2.4-0.4-3.3-1c-1.4-0.8-2.8-0.9-4.3-0.9c-0.6,0-1.3,0-2,0
					c0.1-1,0.1-1.8,0.3-2.6c0.2-0.9,0-1.7-0.3-2.7c-0.4-1.2-0.6-2.5-0.7-3.7c-0.1-0.9-0.1-1.5-1.6-1.3c0.2-0.9,0.3-1.6,0.5-2.3
					c0.6-2,1.9-3.4,3.6-4.6c0.3-0.2,0.8-0.1,1.2-0.2c0,0.3,0,0.6,0,1c-0.1,0.9-0.1,1.9-0.3,2.8c-0.1,0.6-0.2,1.3-0.6,1.8
					c-1,1.4,0.3,4.9,2.1,5.3c0.2,0,0.5-0.1,0.7-0.2c4.1-3.1,8.2-6.2,12.4-9.4c-0.5-0.5-1-0.9-1.5-1.3c-0.8,0.5-1.5,1.6-2.6,0.5
					c-0.8-0.8,0-1.5,0.7-2.2c-0.6-0.6-1.1-1.1-2.2-0.9c-1.8,0.3-3.4-1-3.8-2.7c-0.3-1.3,0.7-2.7,2.1-3.1c2-0.6,4.4,1,4.2,3.1
					c-0.1,1.2,0.7,1.5,1.4,2c0.7-0.5,1.4-1.3,2.3-0.5c0.7,0.6,0.3,1.4-0.3,2c2.1,1.8,1.5,1.8,3.9-0.1c-0.5-0.6-1.1-1.4-0.2-2.1
					c0.9-0.7,1.6,0.1,2.3,0.6c0.7-0.6,1.5-0.8,1.3-2c-0.2-1.5,1.4-3,3.1-3.2c1.6-0.1,3,0.8,3.3,2.4c0.4,1.9-1.6,3.9-3.8,3.6
					c-1-0.1-1.6,0.2-2.1,0.9c0.5,0.7,1.5,1.4,0.5,2.3c-1,0.9-1.7-0.2-2.5-0.7c-0.6,0.5-1.1,1-1.8,1.5c2.1,1.6,4.1,3.1,6.1,4.6
					c2.1,1.5,4.1,3.1,6.2,4.7c0.8,0.6,1.4,0.5,2-0.1c1.2-1.1,1.5-2.5,1.6-4c0-0.1,0-0.3-0.1-0.4c-1.1-0.9-0.9-2.1-0.9-3.3
					c0-0.6-0.2-1.1-0.2-1.7c0-0.3,0-0.7,0.1-1c0.4,0.1,0.8,0.1,1.1,0.2c1.7,1.1,3,2.5,3.6,4.4c0.3,0.7,0.4,1.5,0.5,2.3
					c-1.5,0.4-1.3,0.4-1.5,1.8c-0.2,1.4-0.8,2.7-1,4.1c-0.1,1,0,2.1,0.1,3.2c0,0.4,0.1,0.9,0.2,1.4c-1.3,0-2.5-0.1-3.6,0
					c-0.6,0-1.3,0.2-1.8,0.5c-1.4,0.7-2.8,1.3-4.4,1.4c-0.6,0-0.8,0.2-0.9,0.8c0,0.3-0.5,0.8-0.7,0.8c-2.5,0-4.9-0.5-6.7-2.4
					c-0.3-0.3-0.6-0.8-0.9-1.2c1.9-0.8,3.9,0.5,5.6-0.8c0.9,1.3,2.1,0.8,3.1,0.3c0.8-0.4,1.5-0.8,2.2-1.4c1-0.8,1-1.2,0-2.1
					c-2.2-1.9-4.4-3.8-6.6-5.7c-1.8-1.5-3.5-3-5.3-4.6c-3,2.6-6,5.1-9,7.7c-1,0.8-2,1.7-2.9,2.5c-0.8,0.7-0.8,1.2,0.1,1.8
					c0.9,0.6,1.8,1.2,2.8,1.6C499.4,369.6,500.4,370,501.1,368.7z M516.4,347.8c-0.1,0.1-0.3,0.3-0.4,0.4c1.3-0.4,1.9-0.9,1.8-1.7
					c-0.1-0.7-0.6-1.1-1.3-1.2c-0.8-0.1-1.5,0.5-1.8,1.6c0.2-0.2,0.4-0.4,0.6-0.6C515.6,346.9,516,347.4,516.4,347.8z M499.2,348.4
					c0.5-0.5,1-1,1.4-1.4c-0.4-1.1-1-1.6-1.9-1.4c-0.7,0.1-1.1,0.5-1.2,1.2C497.4,347.5,497.9,348,499.2,348.4z"/>
				<path class="st24" d="M448.3,427.5c0.9,1.6,1.5,3.4,1.5,5.2c0.1,3.5-2.1,6.2-4.6,8.5c-2.7,2.4-5.9,4.4-7.9,7.5
					c3,3.8,5.7,7.8,8.2,11.9c0.9,1.5,1.8,3.1,1.7,4.8c-0.2,5.5-5.4,9.7-8.3,14c-3.4,5-6.4,10.4-8.9,15.9
					c-7.9,17.3-13.5,39.2-6.4,57.7c1.2,3.1,3,6,2.3,9.4c-5.6-7.1-16.5-19.9-18.9-28.6c-3.3-11.7-1.1-24.4,3.3-35.8
					c4.3-11.4,10.7-21.9,15.9-32.9c1.6-3.4,3.2-7.6,1.2-10.9c-1.6-2.7-5.1-4-6-7c-0.8-2.9,1.5-5.8,4.1-7.4c2.6-1.6,5.6-2.5,7.8-4.6
					c2.2-2.1,3.2-6.1,0.8-8c-1.1-0.9-2.7-1.4-2.9-2.8c-0.1-0.6-0.1-1.9,0.6-1.8c3.4,0.5,12.2-0.5,15.1,3.2
					C447.5,426.2,448,426.8,448.3,427.5z"/>
				<path class="st18" d="M407,421l41-37.8c0,0,6-5.9,11.1-3.6c0,0,2,0.6-1.9,7.5l-9.1,16.6c0,0,0,0-5.9,9l-6.2,10.4l7.9,4.4
					c0,0,5.6,2.9,0.3,7.5l-17.3,13.6L407,421z"/>
				<g>
					<defs>
						<path id="SVGID_00000018237103310599262410000016046584043000192433_" d="M428.3,560.4c-7.7-7.2-10.5-13.2-10.5-13.2
							c-11-35.2,12-66,21.5-77.4c2.6-3.1,4.3-4.8,4.3-4.8l-3.2-4.5l-30.5-42.8c0,0-70.2,58.7-79.3,99.4c0,0-13.7,95.9,97.9,116.3
							L428.3,560.4z"/>
					</defs>
					<clipPath id="SVGID_00000142889714054022519500000008175613834484222637_">
						<use xlink:href="#SVGID_00000018237103310599262410000016046584043000192433_"  style="overflow:visible;"/>
					</clipPath>
					<g style="clip-path:url(#SVGID_00000142889714054022519500000008175613834484222637_);">
						<g>
							<path class="st10" d="M428.3,560.4c-7.7-7.2-10.5-13.2-10.5-13.2c-11-35.2,12-66,21.5-77.4c2.6-3.1,4.3-4.8,4.3-4.8l-3.2-4.5
								l-30.5-42.8c0,0-70.2,58.7-79.3,99.4c0,0-13.7,95.9,97.9,116.3L428.3,560.4z"/>
						</g>
					</g>
					<path style="clip-path:url(#SVGID_00000142889714054022519500000008175613834484222637_);fill:#9B6E4E;" d="M426.1,483
						c-3.5,6.2-7,12.3-9.7,18.9c-5.1,12.6-6.9,26.9-3,40s9.4,17.3,22.5,21c0.8,0.2,2.5,1.8,0.7,0.5c-2.5-1.8-5-3.4-7.3-5.3
						c-7.1-6.2-10.8-15.7-11.2-25.2c-0.5-9.4,1.9-18.8,5.1-27.7c5-13.8,12.2-26.8,21.1-38.5c0.9-1.2,1.9-2.5,1.7-4
						c-0.6-5.9-9.4,4.4-10.4,5.7C431.8,472.9,428.9,478,426.1,483z"/>
				</g>
				<g>
					<defs>
						<path id="SVGID_00000044893347358745544920000011171953924155107767_" d="M466.4,536.8c3.5,4.9,8,9.1,13.1,12.3
							c12.9,8.3,30,12,45.1,8.6c4.7-1.1,9.2-2.9,13.2-5.4c2.7-1.7,5.3-3.7,7.5-6c3.6-3.8,8-9,10.3-13.8c0.7-1.4,6.3-17,5.7-17.3
							c-4.1-1.9-6.7,6.1-50.9,12.3c-6.1,0.9-26.7,0.8-32.7-0.5c-2.5-0.6-5.8-1.3-8.3-1.9c-2.1-0.5-5-1.6-7.2-1.1
							c-2.7,0.6-1.3,3.3-0.4,4.9c1.5,2.5,2.8,5.1,4.5,7.6C466.3,536.6,466.4,536.7,466.4,536.8z"/>
					</defs>
					<clipPath id="SVGID_00000127765978485407723490000018406293797350810002_">
						<use xlink:href="#SVGID_00000044893347358745544920000011171953924155107767_"  style="overflow:visible;"/>
					</clipPath>
					<path style="clip-path:url(#SVGID_00000127765978485407723490000018406293797350810002_);fill:#EF9195;" d="M466.4,536.8
						c3.5,4.9,8,9.1,13.1,12.3c12.9,8.3,30,12,45.1,8.6c4.7-1.1,9.2-2.9,13.2-5.4c2.7-1.7,5.3-3.7,7.5-6c3.6-3.8,8-9,10.3-13.8
						c0.7-1.4,6.3-17,5.7-17.3c-4.1-1.9-6.7,6.1-50.9,12.3c-6.1,0.9-26.7,0.8-32.7-0.5c-2.5-0.6-5.8-1.3-8.3-1.9
						c-2.1-0.5-5-1.6-7.2-1.1c-2.7,0.6-1.3,3.3-0.4,4.9c1.5,2.5,2.8,5.1,4.5,7.6C466.3,536.6,466.4,536.7,466.4,536.8z"/>
					<g style="clip-path:url(#SVGID_00000127765978485407723490000018406293797350810002_);">
						<defs>
							<path id="SVGID_00000011746844859720179550000010554566836087898021_" d="M499.1,542.5c7.7,0.2,15.4-0.7,23-2.1
								c2.6-0.5,5.1-1.1,7.7-1.7c0.2,0.5,0.6,0.8,1.1,0.9c5.4,1.6,10.4,4.1,15.5,6.3c-3.3,4.3-7.7,7-12.4,9.2
								c-10.8,5.1-22,5.4-33.5,3.4c-4.1-0.7-8-1.8-11.8-3.2c-1-0.4-2.1-0.5-2.7-1.5C490,549.6,494.5,546,499.1,542.5z"/>
						</defs>
						<clipPath id="SVGID_00000005975876940327037980000010055516686970411148_">
							<use xlink:href="#SVGID_00000011746844859720179550000010554566836087898021_"  style="overflow:visible;"/>
						</clipPath>
						<path style="clip-path:url(#SVGID_00000005975876940327037980000010055516686970411148_);fill:#CE5351;" d="M498.9,542.9
							c7.7,0.2,15.4-0.7,23-2.1c2.6-0.5,5.1-1.1,7.7-1.7c0.2,0.5,0.6,0.8,1.1,0.9c5.4,1.6,10.4,4.1,15.5,6.3
							c-3.3,4.3-7.7,7-12.4,9.2c-10.8,5.1-22,5.4-33.5,3.4c-4.1-0.7-8-1.8-11.8-3.2c-1-0.4-2.1-0.5-2.7-1.5
							C489.8,550,494.3,546.4,498.9,542.9z"/>
						<path style="clip-path:url(#SVGID_00000005975876940327037980000010055516686970411148_);fill:#E8695F;" d="M501.4,542.7
							c7.7-0.1,15.4-1.3,22.9-3c2.6-0.6,5.1-1.3,7.7-2c0.2,0.5,0.6,0.8,1.1,0.9c5.4,1.4,10.5,3.6,15.7,5.7
							c-3.2,4.4-7.5,7.3-12.1,9.7c-10.6,5.5-21.8,6.3-33.4,4.8c-4.1-0.5-8-1.5-11.9-2.8c-1-0.3-2.1-0.4-2.7-1.4
							C492.6,550.2,497,546.4,501.4,542.7z"/>
					</g>
					<path style="clip-path:url(#SVGID_00000127765978485407723490000018406293797350810002_);fill:#FDFDFD;" d="M471,524.9
						c5,0.4,10,1.5,15.1,1.8c19.1,1.1,38.1-0.4,56.6-5.9c5.7-1.7,11.3-3.7,16.6-6.4c0.9-0.5,1.9-0.8,3.3-1.4c-0.2,2.7-1,4.9-1.9,7.1
						c-0.8,0.6-1.6,1.2-2.3,1.8c-5.5,4.9-11.6,8.9-18.1,12.3c-3.9,2-8.1,3.7-12.3,5c-1.5,0.4-2.9,0.8-4.4,1.1
						c-4.3,1-8.7,1.7-13.1,2.1c-4.2,0.4-8.7,1-12.9,0.6c-3.6-0.4-7.3-0.4-10.9-1c-5.3-0.9-10-2.8-12.9-7.7
						C472.3,531.7,471.7,528,471,524.9z"/>
				</g>
			</g>
		</g>
		
			<circle style="clip-path:url(#SVGID_00000036239916714946018150000015083500847617408931_);fill:#0B75A4;" cx="500" cy="500" r="265.5"/>
		<g style="clip-path:url(#SVGID_00000036239916714946018150000015083500847617408931_);">
			<g>
				<path class="st2" d="M623.3,710.5c-0.9-0.2,7-2.8,6.2-2.9c20.2-11.6,34.3-22.4,34.3-22.4c7.4-13.3-1.8-31.9-1.8-31.9l-11.1-38.2
					l-13.4-36l-13.1-28.5c-9.3-14.2-20.7-16.9-20.7-16.9c-0.1,0,0.1,0,0,0l0,0c55-16.6,59.4-54.9,59.9-76c22.1-8.7,18.4-28,17.3-32
					c-6.1-22.9-25.4-19.6-25.4-19.6c-1.6,0-3.2-8.3-3.4-9c1.7-0.6,5.1-1.7,6.9-3.1c1.5-1.3,2.3-3.7,2.3-5.6c0-2-0.5-6-1.3-7.9
					c-0.7-1.7-1.6-3.3-2.5-4.9c-0.5-0.9-1.1-1.7-1.6-2.6c-1.8-2.8-3.5-5.6-5.3-8.4c-0.8-1.3-1.8-2.6-2.5-3.9
					c-0.6-1.1-2.5-3.8-3.5-4.7l0.8-9.7c0-1.4,0.1-6.1,0-6.1v-1.4c0-1.1-0.1-2.1-0.3-3.1c0.1,0.1,0.2,0.1,0.3,0.1
					c1.7,0.1,8.2-3.2,13.5-6c1.5-0.8,2.8-1.5,4-2.2c1.6-0.9,2.8-1.6,3.1-1.8c7.9-5.2,13.2-12,14-19.5c0.3-2.6,0.7-5.7-0.2-8.5
					c-0.6-2-1.9-5.4-3.3-7.4c-2-3-3.1-4.4-5.6-7c-0.6-0.7-3.1-3.1-3.8-3.8c-3.8-3.8-10.9-10.3-15.3-13.5c-3.7-2.7-2.2-1.5-6.1-3.9
					c-1.2-0.7-2.3-1.5-3.5-2.2c-2.4-1.5-4.9-2.9-7.3-4.3c-0.9-0.5-1.9-1.1-2.8-1.6c-0.8-0.4-1.5-0.8-2.3-1.3
					c-2.1-1.1-4.1-2.3-6.2-3.4c-0.9-0.4-1.7-0.9-2.6-1.3c-0.9-0.4-1.8-0.9-2.6-1.3c-4.2-2.1-8.6-4.1-12.9-6c-1.3-0.6-2.7-1.1-4-1.7
					c-2-0.8-4.1-1.6-6.1-2.4c-2.1-0.8-4.1-1.5-6.2-2.2c-1-0.4-2.1-0.7-3.1-1c-13.6-4.3-27.7-7.2-42.3-7.8c-1.5-0.1-2.9-0.1-4.4-0.1
					c-2.7,0-5.3,0.1-7.9,0.2"/>
				<path class="st2" d="M636.4,717.5"/>
			</g>
			<g>
				<path class="st33" d="M620.5,709.1c-17-3.3-35.4-1.6-52.7-1.7c-18.3-0.1-36.6-0.3-54.9-0.4c-8.9-0.1-17.9-0.1-26.8-0.2
					c-8.4-0.1-18.7-1.7-26.8,0.7c-8.2,2.5-20.6,16.7-26.1,24.3c-1.9,1.8-3.7,3.9-5.7,7.3c-1.8,3.1-0.2,7.9,3.5,8.7
					c17,3.3,35.4,1.6,52.7,1.7c18.3,0.1,36.6,0.3,54.9,0.4c8.9,0.1,17.9,0.1,26.8,0.2c8.4,0.1,18.7,1.7,26.8-0.7
					c8.2-2.5,15.5-9.3,21-16.9c1.9-1.8,8.8-11.3,10.8-14.7C625.8,714.7,624.3,709.8,620.5,709.1z"/>
				<path class="st34" d="M621.9,706.9c-17-3.3-35.4-1.6-52.7-1.7c-18.3-0.1-36.6-0.3-54.9-0.4c-8.9-0.1-17.9-0.1-26.8-0.2
					c-8.4-0.1-18.7-1.7-26.8,0.7c-8.2,2.5-20.6,16.7-26.1,24.3c-1.9,1.8-3.7,3.9-5.7,7.3c-1.8,3.1-0.2,7.9,3.5,8.7
					c17,3.3,35.4,1.6,52.7,1.7c18.3,0.1,36.6,0.3,54.9,0.4c8.9,0.1,17.9,0.1,26.8,0.2c8.4,0.1,18.7,1.7,26.8-0.7
					c8.2-2.5,15.5-9.3,21-16.9c1.9-1.8,8.8-11.3,10.8-14.7C627.2,712.5,625.6,707.6,621.9,706.9z"/>
				<g>
					<path class="st24" d="M570.4,693.6c0,0-11.6,6.7-13,8.2c0,0-9.9,9.9-8.4,20c0,0,1.8,10.3,15.6,2.8c0,0,15.5,1.8,18.8-2.9
						l1.1-13.3L570.4,693.6z"/>
					<path class="st18" d="M570.3,692.5c0,0-11.6,6.7-13,8.2c0,0-9.9,9.9-8.4,20c0,0,1.8,10.3,15.6,2.8c0,0,15.5,1.8,18.8-2.9
						l1.1-13.3L570.3,692.5z"/>
				</g>
				<path class="st12" d="M571.3,688l-2,3.9c0,0-4.5,2-2.7,5.2l14.8,23.5c0,0,2.8,2.5,7.1,0l10.1-2.9L579.9,686L571.3,688z"/>
				<g>
					<g>
						<path class="st35" d="M362,723.8c-0.6,1.2-1.2,2.4-1.1,3.7c0.2,2.8,3.5,4.7,5.2,5.4c6.6,2.6,13.9,2.3,20.9,2.1
							c4.1-0.1,8.3-0.2,12.3-1.2c4-1.1,7.9-3.2,10.2-6.7c0.7-1.1,1.3-2.4,1.5-3.8c0.4-3.4-1.8-6.8-4.7-8.6c-2.9-1.9-6.4-2.6-9.8-3.1
							c-8.6-1.5-13-1.8-17.2-0.7c0,0-6.5,1.7-14.2,9C364.3,720.5,363,721.8,362,723.8z"/>
					</g>
					<g>
						<path class="st34" d="M360.9,721.8c-0.6,1.2-1.2,2.4-1.1,3.7c0.2,2.8,3.5,4.7,5.2,5.4c6.6,2.6,13.9,2.3,20.9,2.1
							c4.1-0.1,8.3-0.2,12.3-1.2c4-1.1,7.9-3.2,10.2-6.7c0.7-1.1,1.3-2.4,1.5-3.8c0.4-3.4-1.8-6.8-4.7-8.6c-2.9-1.9-6.4-2.6-9.8-3.1
							c-8.6-1.5-13-1.8-17.2-0.7c0,0-6.5,1.7-14.2,9C363.2,718.5,361.9,719.8,360.9,721.8z"/>
					</g>
					<g>
						<path class="st24" d="M377.5,698c-4.7,3.5-10.3,7.6-12.1,9.7c-1.8,2.1-2.2,3.3-2.5,4.4c-0.4,1.7-0.1,3.6,1.1,4.8
							c1.5,1.7,4.2,1.8,6.3,1.1c2.1-0.8,8.2-5.5,10.1-6.8c2.2-1.6,4.5-3,6.8-4.3c-0.1,1.5-0.1,3.2,0.9,4.4c0.8,1,2.2,1.4,3.5,1.6
							c3.3,0.5,6.8-0.1,9.8-1.5c0.2-0.1,0.5-0.2,0.6-0.4c0.1-0.3,0.1-0.6,0-0.9c-1.2-4.2-2.5-8.4-5-12c-0.9-1.3-2.1-2.6-3.6-3.2
							c-0.3-0.1-1.2-0.5-4.1-0.8c-2.8-0.2-4.2-0.3-5.6,0C382.3,694.3,381.8,694.8,377.5,698z"/>
						<g>
							<path class="st24" d="M376.3,695.9c-3.6,2.7-7.3,5.3-10.7,8.3c-2.7,2.3-4.9,5.3-5.2,8.9c-0.3,5,3.9,8.4,8.6,7.8
								c3.3-0.4,6.1-2.6,8.7-4.5c3.5-2.6,7-5.1,10.8-7.3c-1.3-0.7-2.5-1.4-3.8-2.2c-0.1,2.7,0.3,5.4,2.6,7.1
								c1.9,1.4,4.6,1.7,6.9,1.6c2.8,0,5.5-0.7,8-1.9c1.2-0.6,2.3-1.6,2.3-3.1c0-1.3-0.6-2.6-0.9-3.8c-1.5-4.8-3.4-10.3-7.6-13.4
								c-1.2-0.9-2.6-1.4-4.1-1.6c-2.2-0.3-4.5-0.6-6.7-0.5C381.6,691.5,379.2,693.7,376.3,695.9c-1.1,0.8-1.6,2.2-0.9,3.4
								c0.6,1.1,2.3,1.7,3.4,0.9c1.2-0.9,2.4-1.8,3.6-2.7c0.3-0.2,0.7-0.5,1-0.7c0.1-0.1,0.3-0.1,0.4-0.2c-0.2,0.1-0.5,0.2-0.1,0.1
								c0.3-0.1,0.6-0.2,0.9-0.2c-0.4,0.1,0.4,0,0.5,0c0.3,0,0.7,0,1,0c1.5,0,3.1,0.1,4.6,0.4c0.5,0.1,0.9,0.2,1.4,0.3
								c0.1,0,0.3,0.1,0.3,0.1c-0.2,0.1-0.8-0.5,0,0c1.4,0.9,2.4,2.2,3.2,3.6c0.9,1.6,1.6,3.2,2.2,4.9c0.3,0.8,0.6,1.7,0.8,2.5
								c0.1,0.4,0.3,0.8,0.4,1.3c0.1,0.3,0.2,0.6,0.2,0.8c0.1,0.6,0.2,0.6,0.1,0c0.2-0.4,0.4-0.7,0.6-1.1c-0.3,0.3-1.1,0.5-1.5,0.6
								c-0.7,0.2-1.4,0.4-2.1,0.6c-1.3,0.3-2.6,0.3-3.9,0.2c-0.8-0.1-2-0.1-2.6-0.7c-0.6-0.7-0.4-2.1-0.4-2.9
								c0.1-1.9-2.2-3.1-3.8-2.2c-3,1.8-5.9,3.7-8.7,5.7c-2.2,1.6-4.4,3.3-6.8,4.7c-0.2,0.1-0.5,0.2-0.7,0.4c-0.5,0.3,0.2,0-0.1,0.1
								c-0.7,0.2-1.4,0.4-2.2,0.3c-1.2-0.1-2-0.8-2.2-2c-0.1-0.6,0-1.2,0.2-1.8c0-0.1,0.2-0.6,0.1-0.3c0.1-0.4,0.3-0.7,0.5-1
								c0.7-1.2,1.7-2.1,2.7-3c3.1-2.8,6.6-5.2,9.9-7.7c1.1-0.8,1.6-2.2,0.9-3.4C379.1,695.7,377.4,695,376.3,695.9z"/>
						</g>
					</g>
					<g>
						<path class="st18" d="M377.5,696.7c-4.7,3.5-10.3,7.6-12.1,9.7c-1.8,2.1-2.2,3.3-2.5,4.4c-0.4,1.7-0.1,3.6,1.1,4.8
							c1.5,1.7,4.2,1.8,6.3,1.1c2.1-0.8,8.2-5.5,10.1-6.8c2.2-1.6,4.5-3,6.8-4.3c-0.1,1.5-0.1,3.2,0.9,4.4c0.8,1,2.2,1.4,3.5,1.6
							c3.3,0.5,6.8-0.1,9.8-1.5c0.2-0.1,0.5-0.2,0.6-0.4c0.1-0.3,0.1-0.6,0-0.9c-1.2-4.2-2.5-8.4-5-12c-0.9-1.3-2.1-2.6-3.6-3.2
							c-0.3-0.1-1.2-0.5-4.1-0.8c-2.8-0.2-4.2-0.3-5.6,0C382.3,693.1,381.8,693.5,377.5,696.7z"/>
						<g>
							<path class="st18" d="M376.3,694.6c-3.6,2.7-7.3,5.3-10.7,8.3c-2.7,2.3-4.9,5.3-5.2,8.9c-0.3,5,3.9,8.4,8.6,7.8
								c3.3-0.4,6.1-2.6,8.7-4.5c3.5-2.6,7-5.1,10.8-7.3c-1.3-0.7-2.5-1.4-3.8-2.2c-0.1,2.7,0.3,5.4,2.6,7.1
								c1.9,1.4,4.6,1.7,6.9,1.6c2.8,0,5.5-0.7,8-1.9c1.2-0.6,2.3-1.6,2.3-3.1c0-1.3-0.6-2.6-0.9-3.8c-1.5-4.8-3.4-10.3-7.6-13.4
								c-1.2-0.9-2.6-1.4-4.1-1.6c-2.2-0.3-4.5-0.6-6.7-0.5C381.6,690.2,379.2,692.4,376.3,694.6c-1.1,0.8-1.6,2.2-0.9,3.4
								c0.6,1.1,2.3,1.7,3.4,0.9c1.2-0.9,2.4-1.8,3.6-2.7c0.3-0.2,0.7-0.5,1-0.7c0.1-0.1,0.3-0.1,0.4-0.2c-0.2,0.1-0.5,0.2-0.1,0.1
								c0.3-0.1,0.6-0.2,0.9-0.2c-0.4,0.1,0.4,0,0.5,0c0.3,0,0.7,0,1,0c1.5,0,3.1,0.1,4.6,0.4c0.5,0.1,0.9,0.2,1.4,0.3
								c0.1,0,0.3,0.1,0.3,0.1c-0.2,0.1-0.8-0.5,0,0c1.4,0.9,2.4,2.2,3.2,3.6c0.9,1.6,1.6,3.2,2.2,4.9c0.3,0.8,0.6,1.7,0.8,2.5
								c0.1,0.4,0.3,0.8,0.4,1.3c0.1,0.3,0.2,0.6,0.2,0.8c0.1,0.6,0.2,0.6,0.1,0c0.2-0.4,0.4-0.7,0.6-1.1c-0.3,0.3-1.1,0.5-1.5,0.6
								c-0.7,0.2-1.4,0.4-2.1,0.6c-1.3,0.3-2.6,0.3-3.9,0.2c-0.8-0.1-2-0.1-2.6-0.7c-0.6-0.7-0.4-2.1-0.4-2.9
								c0.1-1.9-2.2-3.1-3.8-2.2c-3,1.8-5.9,3.7-8.7,5.7c-2.2,1.6-4.4,3.3-6.8,4.7c-0.2,0.1-0.5,0.2-0.7,0.4c-0.5,0.3,0.2,0-0.1,0.1
								c-0.7,0.2-1.4,0.4-2.2,0.3c-1.2-0.1-2-0.8-2.2-2c-0.1-0.6,0-1.2,0.2-1.8c0-0.1,0.2-0.6,0.1-0.3c0.1-0.4,0.3-0.7,0.5-1
								c0.7-1.2,1.7-2.1,2.7-3c3.1-2.8,6.6-5.2,9.9-7.7c1.1-0.8,1.6-2.2,0.9-3.4C379.1,694.4,377.4,693.8,376.3,694.6z"/>
						</g>
					</g>
				</g>
				<path class="st12" d="M387.1,685.1l-5.6,2.9c0,0-4.5,2-2.7,5.2l12.2,20.9c0,0,3.1,3.4,7.4,1l12.5-1.3l-18.7-31.7L387.1,685.1z"
					/>
				<path class="st5" d="M571.5,688.2c-3.2,4.5,0.6,7.6,0.6,7.6l10.1,19.6c5.5,11.8,16.9,2.7,16.9,2.7c29-14.8,52.3-34,52.3-34
					c6.9-13.3-1.7-31.9-1.7-31.9l-10.4-38.2l-12.5-36l-11.4-27.2c-8.1-9.7-19.7-15.4-19.7-15.4c-11.2-5.5-16.8-4.3-16.8-4.3
					l-8.5,38.4c-3.4,9-26.3,58-26.3,58l-42.6-99l-20.6,9.2c-11.3,1.7-15.3,19.5-15.3,19.5l-11.1,28.3c-5.2,15.2-14.2,53.1-14.2,53.1
					c-4.2,20.6-16,27.7-16,27.7l-35.1,17.6c-11,2.1-3.7,14.3-3.7,14.3l6.3,13c4.2,10.4,13.9,4.7,13.9,4.7l40.1-17.6
					c14-5.5,17.8-18,17.8-18c3.1-5.9,5.7-25,5.7-25l1.3,34.4l69.2-0.4h0"/>
				<path class="st10" d="M648.9,650.8l-10.4-38.2l-12.5-36l-11.4-27.2c-8.1-9.7-19.7-15.4-19.7-15.4c-11.2-5.5-16.8-4.3-16.8-4.3
					l-8.5,38.4c-3.4,9-26.3,58-26.3,58l-42.6-99l-20.6,9.2c-11.3,1.7-15.3,19.5-15.3,19.5l-11.1,28.3c-5.2,15.2-14.2,53.1-14.2,53.1
					c-4.2,20.6-16,27.7-16,27.7l-35.1,17.6c-11,2.1-3.7,14.3-3.7,14.3l6.3,13c4.2,10.4,13.9,4.7,13.9,4.7l40.1-17.6
					c14-5.5,17.8-18,17.8-18c3.1-5.9,5.7-25,5.7-25l1.3,34.4l69.2-0.4h0l2.9,0l0-0.1l29-0.9c-3.2,4.5,0.6,7.6,0.6,7.6l10.1,19.6
					c5.5,11.8,16.9,2.7,16.9,2.7c29-14.8,52.3-34,52.3-34C657.4,669.4,648.9,650.8,648.9,650.8z"/>
				<path class="st11" d="M595.1,530.8l-5.1,30.8c0,0-0.1,11.2-11.3,8c-9.7-2.9-4.4,2.7-4.4,2.7l5.1,9.4c0,0,1.5,2.9-2.4,8.2
					l-29.1,45.5l-4.7-7.6l34.7-97.9l17.2-3.5V530.8z"/>
				<path class="st11" d="M494.9,531.4l1.6,27c0,0-1,9.7,9,7.9c8.6-1.6,3.6,2.7,3.6,2.7l-5.2,7.6c0,0-2.8,2.7,1.3,7.3L547,635
					l-37.2-103l-14.5-4.5L494.9,531.4z"/>
				<path class="st5" d="M494.9,527.8l1.6,28.1c0,0-1,10.1,9.3,8.2c8.9-1.6,3.7,2.8,3.7,2.8l-5.4,7.9c0,0-2.9,2.8,1.4,7.5l42.8,53.5
					l-38-107.3l-15.1-4.7L494.9,527.8z"/>
				<g>
					<polygon class="st12" points="507.3,529.5 544.2,624.9 576.3,535.6 					"/>
					<g>
						<g>
							<g>
								<polygon class="st13" points="531.3,592.3 537.1,580.5 547.6,580.5 556,592 544.2,624.9 								"/>
								<path class="st13" d="M525.7,559.4l13.2,24.2c0,0,2.2,3.1,7.2,0l17.3-24.2l-20.5-9.2L525.7,559.4z"/>
								<path class="st6" d="M525.7,553.8l13.2,24.2c0,0,2.2,3.1,7.2,0l17.3-24.2l-20.5-9.2L525.7,553.8z"/>
							</g>
							<g>
								<path class="st14" d="M503.4,528.4l18.5,49.9c0,0,3,5,6.2,0l23.1-32.7L503.4,528.4z"/>
								<g>
									<path class="st14" d="M582.6,528.4L564,578.3c0,0-3,5-6.2,0l-23.1-32.7L582.6,528.4z"/>
								</g>
							</g>
							<g>
								<path class="st15" d="M506.9,524.4l17.3,46.7c0,0,2.8,4.7,5.8,0l21.6-30.6L506.9,524.4z"/>
								<g>
									<path class="st15" d="M579.3,523.9L562,570.6c0,0-2.8,4.7-5.8,0L534.6,540L579.3,523.9z"/>
								</g>
							</g>
						</g>
					</g>
				</g>
				<path class="st5" d="M593.8,530.8l-5,30.7c0,0-0.1,11.2-11.2,7.9c-9.6-2.8-4.4,2.6-4.4,2.6l5,9.4c0,0,1.5,2.9-2.4,8.1L547,635
					l-4.7-7.6l34.4-97.7l17.1-3.5V530.8z"/>
				<path class="st16" d="M527.3,531.2l0.8,8.9l12.4,10.3c0,0,2.6,1.7,6.2,0l9-11.1l-1-8.9L527.3,531.2z"/>
				<g>
					<g>
						<path class="st18" d="M673.8,434c0-11-8.9-19.9-19.9-19.9c-1.5,0-3,0.2-4.4,0.5c-7.6-30.3-21.7-59.3-21.7-59.3l-83.2-2.7
							l0-0.5l-7.1,0.2l-7.1-0.2l0,0.5l-83.2,2.7c0,0-14,28.9-21.7,59.2c-9.3,1.7-16.3,9.8-16.3,19.5c0,8.1,4.8,15,11.7,18.1
							c1.7,26.5,16.7,86.4,116.5,86.2c103.4,0.2,116.8-57.2,117.4-84.5C665.4,453.3,673.8,444.6,673.8,434z"/>
						<g>
							<defs>
								<path id="SVGID_00000041260400952564514720000011509877076705258665_" d="M673.8,434c0-11-8.9-19.9-19.9-19.9
									c-1.5,0-3,0.2-4.4,0.5c-7.6-30.3-21.7-59.3-21.7-59.3l-83.2-2.7l0-0.5l-7.1,0.2l-7.1-0.2l0,0.5l-83.2,2.7
									c0,0-14,28.9-21.7,59.2c-9.3,1.7-16.3,9.8-16.3,19.5c0,8.1,4.8,15,11.7,18.1c1.7,26.5,16.7,86.4,116.5,86.2
									c103.4,0.2,116.8-57.2,117.4-84.5C665.4,453.3,673.8,444.6,673.8,434z"/>
							</defs>
							<clipPath id="SVGID_00000155840631723810910260000011514889549126953626_">
								<use xlink:href="#SVGID_00000041260400952564514720000011509877076705258665_"  style="overflow:visible;"/>
							</clipPath>
							<path style="clip-path:url(#SVGID_00000155840631723810910260000011514889549126953626_);fill:#DDBDA6;" d="M438.7,394.2
								c-2.5,6.4-3.4,21.8-8.9,25.9c-1.9,1.4-6.7,3.5-8.4,5c-4.8,4.3-5.3,12.6-1.1,17.5c1.4,1.7,3.3,2.9,4.6,4.7
								c2.6,3.5,1.2,7.8,1.6,12.1c1.5,19.2,9.4,34.7,29.8,60.6c-2.3-0.5-15.4-7.8-16.7-9.7c-12.9-19.1-16.8-43-29.2-62.4
								c-3.1-4.8-6.7-9.3-8.5-14.7c-1.8-5.4-1.5-12,2.6-15.9c2.9-2.8,7.3-3.8,10.1-6.8c5.2-5.5,2.7-14.6,5.1-21.8
								c1.1-3.1,3-5.7,5-8.3c3-4,6-8,9-12c1.2-1.5,2.4-3.1,4.1-4c3.5-1.8,3.8-3.7,6.7-1.6c2.1,1.5,3.7,1.1,1.9,5.6
								C442.9,377.5,442.2,385.1,438.7,394.2z"/>
						</g>
						<g>
							<path class="st13" d="M424.5,377.5c-0.8,1.6-1.5,3.3-2.1,5c-0.6,1.9-1,4-0.9,6c0.1,1.9,0.2,4.2,1,6c1,2.4,3.5,3.5,6,3.7
								c1.8,0.1,3.5-0.2,5.2-0.6c1.8-0.4,3.7-0.8,5.1-1.9c1.9-1.4,2.6-3.5,2.9-5.7c0.5-2.7,1.3-5.2,2.2-7.7c2-5.2,4.6-10.1,6.2-15.4
								c0.6-1.9,1.1-3.9,1.3-5.9c0.1-0.8,0.1-1.6-0.1-2.3c-0.4-1-1.3-1.6-2.3-1.9c-3.6-1.1-8.2,0-11.7,0.8c-1,0.2-2,0.5-2.8,1.1
								c-1.1,0.9-1.6,2.3-2.2,3.5c-0.6,1.4-1.4,2.7-2.1,4.1c-1.5,2.9-3,5.8-4.4,8.6C425.4,375.7,425,376.6,424.5,377.5z"/>
							<path class="st13" d="M431.1,400.4c1.1-0.1,2.2-0.2,3.3-0.2c1.7-0.1,3.3-0.2,5-0.2c0.1,0,0.2,0,0.2,0c0.1,0,0.1,0.1,0.1,0.2
								c0.1,0.7-0.4,1.3-1,1.5c-0.4,0.2-0.9,0.2-1.4,0.3c-2.2,0.3-4.4,0.7-6.7,0.8c-2.3,0-4.4-0.6-6.6-1.2c-0.4-0.1-0.8-0.2-1.2-0.4
								c-0.4-0.2-0.7-0.5-0.9-0.9c-0.1-0.3-0.1-0.7,0.2-0.9c0.1-0.1,0.3-0.1,0.4-0.1c1.3,0.1,2.5,0.7,3.8,0.9
								c0.9,0.2,1.9,0.3,2.9,0.3C429.8,400.5,430.5,400.4,431.1,400.4z"/>
							<path class="st13" d="M430.1,406.9c0.2,0,0.4,0,0.6,0c2.4-0.1,4.9-0.3,7.3-0.5c0.2,0,0.4,0,0.5,0.1c0.6,0.4,0,1.3-0.4,1.6
								c-0.5,0.3-1.1,0.4-1.7,0.5c-2.5,0.3-5,0.6-7.4,0.6c-1.1,0-2.3-0.1-3.4-0.4c-1.1-0.3-2.2-0.7-3.3-1.1c-0.5-0.2-1-0.5-1.3-1
								c-0.1-0.2-0.2-0.5-0.1-0.8c0.1-0.2,0.4-0.2,0.6-0.2c0.6,0,1.2,0.2,1.8,0.4C425.5,406.8,427.8,407,430.1,406.9z"/>
							<path class="st13" d="M430.1,403.8c-2.4,0.1-4.8,0-7.1-0.9c-0.3-0.1-0.6-0.2-0.8-0.3c-0.1,0-0.2-0.1-0.3-0.1
								c-0.4,0.1,0,0.8,0.1,1c0.3,0.4,0.8,0.6,1.2,0.8c4,1.9,8.6,1.4,12.8,0.9c0.5-0.1,1.1-0.1,1.6-0.1c0.4,0,1.5-0.1,1.4-0.7
								c0-0.9-1.8-1.1-2.5-1.2c-0.8,0-1.7,0.1-2.5,0.2C432.8,403.6,431.5,403.7,430.1,403.8z"/>
						</g>
						<g>
							<path class="st13" d="M644.9,376.3c0.9,1.6,1.7,3.2,2.3,4.9c0.7,1.9,1.2,3.9,1.2,6c0,1.9,0,4.2-0.6,6c-0.9,2.4-3.3,3.7-5.8,4
								c-1.7,0.2-3.5,0-5.3-0.3c-1.8-0.3-3.7-0.6-5.2-1.7c-2-1.3-2.7-3.3-3.3-5.5c-0.6-2.6-1.6-5.1-2.7-7.6
								c-2.3-5.1-5.1-9.8-7.1-15.1c-0.7-1.9-1.3-3.9-1.6-5.9c-0.1-0.8-0.2-1.6,0-2.3c0.3-1,1.2-1.7,2.2-2.1
								c3.6-1.3,8.2-0.5,11.8,0.2c1,0.2,2,0.4,2.9,0.9c1.2,0.8,1.7,2.2,2.4,3.4c0.7,1.3,1.6,2.6,2.4,3.9c1.6,2.8,3.3,5.6,4.9,8.4
								C644,374.6,644.5,375.4,644.9,376.3z"/>
							<path class="st13" d="M639.6,399.5c-1.1,0-2.2-0.1-3.3-0.1c-1.7,0-3.3,0-5,0c-0.1,0-0.2,0-0.2,0.1c-0.1,0-0.1,0.1-0.1,0.2
								c-0.1,0.7,0.4,1.2,1.1,1.5c0.4,0.1,0.9,0.2,1.4,0.2c2.2,0.1,4.5,0.5,6.7,0.4c2.3-0.1,4.4-0.8,6.5-1.6
								c0.4-0.1,0.8-0.3,1.2-0.5s0.7-0.5,0.8-1c0.1-0.3,0.1-0.7-0.2-0.9c-0.1-0.1-0.3-0.1-0.4,0c-1.3,0.1-2.5,0.8-3.7,1.1
								c-0.9,0.2-1.9,0.4-2.8,0.4C640.9,399.5,640.3,399.6,639.6,399.5z"/>
							<path class="st13" d="M641,406c-0.2,0-0.4,0-0.6,0c-2.4,0-4.9-0.1-7.3-0.1c-0.2,0-0.4,0-0.5,0.1c-0.6,0.4,0.1,1.3,0.5,1.6
								c0.5,0.3,1.1,0.4,1.7,0.4c2.5,0.1,5,0.4,7.5,0.2c1.1-0.1,2.3-0.2,3.3-0.5c1.1-0.3,2.1-0.9,3.2-1.2c0.5-0.2,1-0.6,1.3-1.1
								c0.1-0.2,0.2-0.6,0-0.8c-0.1-0.2-0.4-0.2-0.6-0.2c-0.6,0-1.2,0.3-1.7,0.5C645.6,405.7,643.3,405.9,641,406z"/>
							<path class="st13" d="M640.8,402.9c2.4,0,4.8-0.3,7.1-1.3c0.3-0.1,0.5-0.2,0.8-0.4c0.1,0,0.2-0.1,0.3-0.1
								c0.4,0,0.1,0.8-0.1,1c-0.3,0.4-0.7,0.6-1.2,0.9c-3.9,2.1-8.5,1.8-12.8,1.6c-0.5,0-1.1,0-1.6,0c-0.4,0-1.5,0-1.5-0.7
								c0-0.9,1.7-1.2,2.4-1.3c0.8-0.1,1.7,0,2.5,0.1C638.1,402.8,639.5,402.9,640.8,402.9z"/>
						</g>
					</g>
					<g>
						<path d="M534,314.6c-58.3,0-100.2,0.8-100.2,22.6v23.3c0,13.3,19.8,22.6,100.2,22.6c80.4,0,100.2-9.3,100.2-22.6v-23.3
							C634.2,315.4,592.3,314.6,534,314.6z"/>
						<path class="st37" d="M662.8,290.4c-7.3-12-18.8-20.7-30.3-28.4c-1.1-0.7-2.2-1.5-3.3-2.2c-27.5-18.1-58.4-32.8-91.8-34.5
							c-21.8-1.1-43,5.4-62.8,14.1c-2.8,1.2-5.5,2.4-8.2,3.7c-13.5,6.4-26.5,14-38.4,23.1c-5.9,4.5-11.5,9.5-16.8,14.7
							c-5.1,5.1-10.1,10.9-11.6,18.2c-1.3,6.6,1.7,13.5,6.3,18.5c7.1,7.8,18.2,13.6,28.1,16.8c1.3-3.6,4.6-4.9,7.8-6
							c9.5-3.3,19.3-4.8,29.2-6.1c12.5-1.7,25-2.3,37.6-2.9c11.5-0.5,23-0.8,34.6-0.5c8.9,0.3,17.9,0.5,26.8,1
							c14.9,0.8,29.8,2.2,44.5,5.3c4.8,1,9.6,2.2,14.1,4.2c2.2,1,4,2.3,5.2,4.4c0.9,1.5,17.9-8.8,19.5-9.9
							C665.1,315.9,670.7,303.4,662.8,290.4z"/>
						<path class="st37" d="M539.3,399c-1.2,0-2.5,0-3.7,0c-19.4,0-39.4-0.2-57.9-3.8c-11.8-2.3-22.9-6.2-30.9-11.7
							c-4.4-3.1-7.5-6.7-9.5-10.5c-1.2-2.3-2.2-4.7-2.8-7.1c-0.3-1.2-0.5-2.5-0.6-3.7c0-0.4-0.4-1.4,0-1.8c0.4-0.4,0.2-0.2,0.8-0.2
							c1.8,0,3.9,0.6,5.7,0.8c2.3,0.3,4.7,0.6,7,0.8c1,0.1,1.9,0.2,2.9,0.3c6.5,0.6,13.1,1.1,19.7,1.5c13.1,0.9,26.4,1.5,39.6,1.8
							c26.5,0.7,53,0.3,79.4-1.2c8.8-0.5,17.6-1.1,26.3-1.9c4.2-0.4,8.3-1,12.5-1.6c1-0.1,5.2-1,6-0.7c0.7,0.3,0.3,2.6,0.3,3.2
							c0,4.3-1.5,8.6-4.4,12.6c-2.2,3.1-5.3,5.9-9,8.4c-6.9,4.6-16.6,7.7-26.6,9.8C576.6,397.9,557.8,398.9,539.3,399z"/>
						<path class="st23" d="M633.9,345.4c-6.9,1.9-13.8,3.4-20.9,4.6c-1.1,0.2-1.7,0.5-2.2,1.5c-1.5,3.2-5.9,4-8.7,1.5
							c-1.2-1.1-2.4-0.9-3.8-0.7c-22.1,3.1-44.3,4.5-66.7,4.4c-21-0.1-41.8-1.4-62.5-4.4c-1.5-0.2-2.5,0-3.7,1
							c-2.7,2.2-7,1.4-8.4-1.5c-0.5-1.1-1.2-1.5-2.6-1.7c-7-1.3-13.9-2.7-20.7-4.6c0-2.3,0-4.3,0-6.5c6.4,0.9,13.5,2,19.9,3
							c1.7,0.2,2.9,0.3,3.7-1.4c0.7-1.7,2.7-2.4,5-2.2c2.4,0.2,4.3,1.3,4.6,3.3c0.2,1.5,1,1.7,2.7,1.9c12.2,1,24.5,1.6,36.7,2
							c13.7,0.4,27.4,0.6,41.1,0.3c17-0.3,34.1-0.9,51.1-2.3c1.7-0.1,2.2-0.6,2.4-1.9c0.3-1.9,2-3,4.3-3.3c2.4-0.3,4.4,0.5,5.2,2.2
							c0.8,1.7,1.9,1.7,3.6,1.4c6.4-1,13.8-2.2,20.2-3.2c0.1,0,0,6.4,0,6.5C634.1,345.2,634,345.3,633.9,345.4z M536.1,353
							c7.7,0.1,17.6-0.3,27.6-0.9c11.8-0.7,23.5-1.9,35.2-3.5c0.8-0.1,1.9-0.2,1.8-1.2c-0.2-1.1-1.2-0.5-1.9-0.5
							c-6.7,0.4-13.4,0.9-20.1,1.3c-14.5,0.7-29,1.1-43.5,1c-16.5,0-33.1-0.2-49.5-1.3c-5.6-0.4-11.3-0.7-16.9-1
							c-0.6,0-1.5-0.5-1.6,0.5c-0.2,0.8,0.5,1,1.2,1.1c0.3,0.1,0.7,0.1,1,0.2C490.7,351.7,512.1,353,536.1,353z M616.7,345.6
							c-1.9-0.3-3.8-0.4-5.3,0.9C613.2,346.3,615,345.9,616.7,345.6z M456.1,346.5c0.1-0.2,0.2-0.4,0.3-0.5
							c-1.8-0.8-3.7-0.8-6.4-0.6C452.4,345.9,454.3,346.2,456.1,346.5z"/>
						<ellipse class="st38" cx="535.1" cy="279.6" rx="34" ry="35.4"/>
						<ellipse class="st21" cx="533.3" cy="278.7" rx="34" ry="35.4"/>
						<path d="M527.9,290.5c1.8,1.4,3.8,0.2,5.8,0.9c-0.4,0.6-0.7,1.1-1.1,1.5c-1.8,1.7-4.1,2.3-6.6,2.2c-0.3,0-0.7-0.4-0.7-0.7
							c0-0.7-0.5-0.8-1.1-0.9c-1.2-0.2-2.4-0.4-3.4-1c-1.4-0.8-2.8-0.9-4.3-0.9c-0.6,0-1.3,0-2,0c0.1-1,0.1-1.8,0.3-2.7
							c0.2-1,0-1.8-0.3-2.7c-0.4-1.2-0.7-2.5-0.7-3.8c-0.1-0.9-0.1-1.5-1.6-1.3c0.2-0.9,0.3-1.6,0.5-2.3c0.6-2,2-3.4,3.7-4.6
							c0.3-0.2,0.8-0.1,1.2-0.2c0,0.3,0,0.7,0,1c-0.1,1-0.1,1.9-0.3,2.9c-0.1,0.6-0.2,1.3-0.6,1.8c-1,1.4,0.3,5,2.1,5.4
							c0.2,0,0.5-0.1,0.7-0.2c4.2-3.1,8.3-6.3,12.6-9.5c-0.5-0.5-1-0.9-1.6-1.3c-0.8,0.5-1.6,1.6-2.6,0.6c-0.8-0.8,0-1.5,0.7-2.2
							c-0.6-0.6-1.1-1.1-2.2-0.9c-1.8,0.3-3.5-1-3.8-2.8c-0.3-1.4,0.7-2.8,2.2-3.2c2.1-0.6,4.4,1,4.3,3.1c-0.1,1.2,0.7,1.5,1.4,2.1
							c0.7-0.5,1.4-1.3,2.3-0.5c0.7,0.6,0.3,1.4-0.3,2c2.1,1.8,1.5,1.8,3.9-0.1c-0.5-0.6-1.1-1.4-0.3-2.1c0.9-0.8,1.6,0.1,2.3,0.6
							c0.7-0.6,1.5-0.8,1.4-2.1c-0.2-1.6,1.4-3.1,3.2-3.2c1.6-0.1,3,0.9,3.3,2.4c0.4,2-1.6,3.9-3.8,3.6c-1.1-0.1-1.6,0.2-2.2,0.9
							c0.5,0.7,1.6,1.4,0.5,2.3c-1,0.9-1.7-0.2-2.5-0.7c-0.6,0.5-1.1,1-1.8,1.6c2.1,1.6,4.2,3.1,6.2,4.7c2.1,1.6,4.2,3.1,6.2,4.7
							c0.8,0.6,1.4,0.5,2.1-0.1c1.2-1.1,1.5-2.5,1.6-4c0-0.1,0-0.3-0.1-0.4c-1.2-0.9-0.9-2.1-0.9-3.3c0-0.6-0.2-1.1-0.2-1.7
							c0-0.3,0-0.7,0.1-1c0.4,0.1,0.8,0.1,1.1,0.2c1.7,1.1,3,2.5,3.6,4.4c0.3,0.7,0.4,1.5,0.6,2.3c-1.5,0.4-1.4,0.4-1.6,1.8
							c-0.2,1.4-0.8,2.8-1,4.2c-0.2,1,0,2.1,0.1,3.2c0,0.4,0.1,0.9,0.2,1.5c-1.3,0-2.5-0.1-3.7,0c-0.6,0-1.3,0.2-1.8,0.5
							c-1.4,0.8-2.8,1.3-4.4,1.4c-0.6,0-0.8,0.2-0.9,0.8c0,0.3-0.5,0.8-0.7,0.8c-2.6,0-5-0.6-6.8-2.4c-0.3-0.3-0.6-0.8-0.9-1.2
							c1.9-0.8,4,0.5,5.7-0.8c0.9,1.3,2.1,0.8,3.2,0.3c0.8-0.4,1.5-0.9,2.2-1.4c1-0.8,1-1.2,0-2.1c-2.2-1.9-4.4-3.8-6.7-5.7
							c-1.8-1.5-3.6-3.1-5.4-4.6c-3.1,2.6-6.1,5.2-9.1,7.8c-1,0.8-2,1.7-2.9,2.6c-0.8,0.7-0.8,1.2,0.1,1.8c0.9,0.6,1.8,1.2,2.9,1.7
							C526.2,291.5,527.3,291.9,527.9,290.5z M543.4,269.4c-0.2,0.1-0.3,0.3-0.4,0.4c1.4-0.4,1.9-0.9,1.8-1.7
							c-0.1-0.7-0.6-1.1-1.3-1.2c-0.8-0.1-1.5,0.5-1.9,1.7c0.2-0.2,0.4-0.4,0.6-0.6C542.6,268.5,543,268.9,543.4,269.4z M526,270
							c0.5-0.5,1-1,1.5-1.4c-0.4-1.1-1.1-1.6-1.9-1.5c-0.7,0.1-1.1,0.6-1.2,1.2C524.1,269.1,524.6,269.6,526,270z"/>
						<path class="st23" d="M527,289.6c1.8,1.4,3.8,0.2,5.8,0.9c-0.4,0.6-0.7,1.1-1.1,1.5c-1.8,1.7-4.1,2.3-6.6,2.2
							c-0.3,0-0.7-0.4-0.7-0.7c0-0.7-0.5-0.8-1.1-0.9c-1.2-0.2-2.4-0.4-3.4-1c-1.4-0.8-2.8-0.9-4.3-0.9c-0.6,0-1.3,0-2,0
							c0.1-1,0.1-1.8,0.3-2.7c0.2-1,0-1.8-0.3-2.7c-0.4-1.2-0.7-2.5-0.7-3.8c-0.1-0.9-0.1-1.5-1.6-1.3c0.2-0.9,0.3-1.6,0.5-2.3
							c0.6-2,2-3.4,3.7-4.6c0.3-0.2,0.8-0.1,1.2-0.2c0,0.3,0,0.7,0,1c-0.1,1-0.1,1.9-0.3,2.9c-0.1,0.6-0.2,1.3-0.6,1.8
							c-1,1.4,0.3,5,2.1,5.4c0.2,0,0.5-0.1,0.7-0.2c4.2-3.1,8.3-6.3,12.6-9.5c-0.5-0.5-1-0.9-1.6-1.3c-0.8,0.5-1.6,1.6-2.6,0.6
							c-0.8-0.8,0-1.5,0.7-2.2c-0.6-0.6-1.1-1.1-2.2-0.9c-1.8,0.3-3.5-1-3.8-2.8c-0.3-1.4,0.7-2.8,2.2-3.2c2.1-0.6,4.4,1,4.3,3.1
							c-0.1,1.2,0.7,1.5,1.4,2.1c0.7-0.5,1.4-1.3,2.3-0.5c0.7,0.6,0.3,1.4-0.3,2c2.1,1.8,1.5,1.8,3.9-0.1c-0.5-0.6-1.1-1.4-0.3-2.1
							c0.9-0.8,1.6,0.1,2.3,0.6c0.7-0.6,1.5-0.8,1.4-2.1c-0.2-1.6,1.4-3.1,3.2-3.2c1.6-0.1,3,0.9,3.3,2.4c0.4,2-1.6,3.9-3.8,3.6
							c-1.1-0.1-1.6,0.2-2.2,0.9c0.5,0.7,1.6,1.4,0.5,2.3c-1,0.9-1.7-0.2-2.5-0.7c-0.6,0.5-1.1,1-1.8,1.6c2.1,1.6,4.2,3.1,6.2,4.7
							c2.1,1.6,4.2,3.1,6.2,4.7c0.8,0.6,1.4,0.5,2.1-0.1c1.2-1.1,1.5-2.5,1.6-4c0-0.1,0-0.3-0.1-0.4c-1.2-0.9-0.9-2.1-0.9-3.3
							c0-0.6-0.2-1.1-0.2-1.7c0-0.3,0-0.7,0.1-1c0.4,0.1,0.8,0.1,1.1,0.2c1.7,1.1,3,2.5,3.6,4.4c0.3,0.7,0.4,1.5,0.6,2.3
							c-1.5,0.4-1.4,0.4-1.6,1.8c-0.2,1.4-0.8,2.8-1,4.2c-0.2,1,0,2.1,0.1,3.2c0,0.4,0.1,0.9,0.2,1.5c-1.3,0-2.5-0.1-3.7,0
							c-0.6,0-1.3,0.2-1.8,0.5c-1.4,0.8-2.8,1.3-4.4,1.4c-0.6,0-0.8,0.2-0.9,0.8c0,0.3-0.5,0.8-0.7,0.8c-2.6,0-5-0.6-6.8-2.4
							c-0.3-0.3-0.6-0.8-0.9-1.2c1.9-0.8,4,0.5,5.7-0.8c0.9,1.3,2.1,0.8,3.2,0.3c0.8-0.4,1.5-0.9,2.2-1.4c1-0.8,1-1.2,0-2.1
							c-2.2-1.9-4.4-3.8-6.7-5.7c-1.8-1.5-3.6-3.1-5.4-4.6c-3.1,2.6-6.1,5.2-9.1,7.8c-1,0.8-2,1.7-2.9,2.6c-0.8,0.7-0.8,1.2,0.1,1.8
							c0.9,0.6,1.8,1.2,2.9,1.7C525.3,290.6,526.3,291,527,289.6z M542.5,268.5c-0.2,0.1-0.3,0.3-0.4,0.4c1.4-0.4,1.9-0.9,1.8-1.7
							c-0.1-0.7-0.6-1.1-1.3-1.2c-0.8-0.1-1.5,0.5-1.9,1.7c0.2-0.2,0.4-0.4,0.6-0.6C541.7,267.6,542.1,268,542.5,268.5z M525,269.1
							c0.5-0.5,1-1,1.5-1.4c-0.4-1.1-1.1-1.6-1.9-1.5c-0.7,0.1-1.1,0.6-1.2,1.2C523.2,268.2,523.7,268.7,525,269.1z"/>
						<g>
							<defs>
								<path id="SVGID_00000085217638981590119340000005887322584759315644_" d="M474.6,239.5c19.9-8.7,41-15.2,62.8-14.1
									c33.4,1.7,64.2,16.4,91.8,34.5c1.1,0.7,2.2,1.4,3.3,2.2c11.5,7.7,23,16.4,30.3,28.4c7.9,12.9,2.3,25.4-9.5,33.7
									c-1.6,1.1-18.6,11.4-19.5,9.9c-1.3-2-3.1-3.4-5.2-4.4c-4.5-2.1-9.3-3.2-14.1-4.2c-14.7-3.1-29.6-4.4-44.5-5.3
									c-8.9-0.5-17.8-0.8-26.8-1c-11.5-0.3-23.1,0-34.6,0.5c-12.6,0.6-25.1,1.3-37.6,2.9c-9.9,1.3-19.8,2.8-29.2,6.1
									c-3.2,1.1-6.4,2.4-7.8,6c-9.9-3.2-21-9-28.1-16.8c-4.6-5-7.6-11.9-6.3-18.5c1.5-7.3,6.5-13.1,11.6-18.2
									c5.2-5.3,10.9-10.2,16.8-14.7c11.9-9.1,24.9-16.8,38.4-23.1C469.1,241.9,471.9,240.7,474.6,239.5z M498,278.8
									c0,19.5,15.9,35.5,35.3,35.3c19.5-0.2,35.3-15.2,35.3-35.3c0-21.1-17.2-35.5-35.5-35.4C513.7,243.4,498,259.2,498,278.8z"/>
							</defs>
							<clipPath id="SVGID_00000129172961027496657690000017989884711122549439_">
								<use xlink:href="#SVGID_00000085217638981590119340000005887322584759315644_"  style="overflow:visible;"/>
							</clipPath>
							<path style="clip-path:url(#SVGID_00000129172961027496657690000017989884711122549439_);fill:#915A3F;" d="M487.3,238.9
								c-15.5,5.8-29.2,15.2-42.9,24.6c-4.2,2.9-8.4,5.7-12.6,8.6c-4.3,2.9-8.6,5.9-12.2,9.7c-3.5,3.8-6.3,8.6-6.6,13.8
								c-0.5,7,3.2,13.7,8,18.9s10.7,9.2,15.7,14.1c1.5,1.5,3.1,3.9,1.8,5.6c-0.8,1-2.2,1.2-3.5,1.3c-9,0.4-18.2-2.5-25.4-8
								c-7.1-5.6-12.2-13.8-13.9-22.6c-0.6-3-0.8-6-0.3-9c0.6-3.4,2.1-6.6,4-9.5c6.1-9.6,15.6-16.5,25.1-22.9
								c9.7-6.5,19.7-12.7,29.8-18.5c5.6-3.2,11.2-6.3,17.1-9c5.5-2.5,11.2-4.5,16.9-6.5c8.4-3,16.9-5.9,25.3-8.9
								c2.1-0.7,11.9-4,11,1.2c-0.5,3-8.9,6.4-11.4,7.5C505.1,233.5,496,235.7,487.3,238.9z"/>
						</g>
						<g>
							<defs>
								<path id="SVGID_00000000925526888028646830000017551964096679561115_" d="M539.3,399c-1.2,0-2.5,0-3.7,0
									c-19.4,0-39.4-0.2-57.9-3.8c-11.8-2.3-22.9-6.2-30.9-11.7c-4.4-3.1-7.5-6.7-9.5-10.5c-1.2-2.3-2.2-4.7-2.8-7.1
									c-0.3-1.2-0.5-2.5-0.6-3.7c0-0.4-0.4-1.4,0-1.8c0.4-0.4,0.2-0.2,0.8-0.2c1.8,0,3.9,0.6,5.7,0.8c2.3,0.3,4.7,0.6,7,0.8
									c1,0.1,1.9,0.2,2.9,0.3c6.5,0.6,13.1,1.1,19.7,1.5c13.1,0.9,26.4,1.5,39.6,1.8c26.5,0.7,53,0.3,79.4-1.2
									c8.8-0.5,17.6-1.1,26.3-1.9c4.2-0.4,8.3-1,12.5-1.6c1-0.1,5.2-1,6-0.7c0.7,0.3,0.3,2.6,0.3,3.2c0,4.3-1.5,8.6-4.4,12.6
									c-2.2,3.1-5.3,5.9-9,8.4c-6.9,4.6-16.6,7.7-26.6,9.8C576.6,397.9,557.8,398.9,539.3,399z"/>
							</defs>
							<clipPath id="SVGID_00000057828019483763413160000004506435945515461267_">
								<use xlink:href="#SVGID_00000000925526888028646830000017551964096679561115_"  style="overflow:visible;"/>
							</clipPath>
							<path style="clip-path:url(#SVGID_00000057828019483763413160000004506435945515461267_);fill:#915A3F;" d="M435.5,378.7
								c4.5,5.2,10.2,9.3,15.8,13.3c2.7,2,5.5,4,8.7,5.2c5.9,2.2,12.5,1.4,18.8,2.2c2.6,0.3,5.1,0.9,7.7,1.4
								c12.1,2.4,24.6,2.5,36.7,0.3c2.6-0.5,5.2-0.1,7.8-0.3c0.6,0,3.3,0,3.6-0.8c0.3-0.9-2.5-1.3-3.1-1.5c-5.9-1.6-12-2.1-18-3
								c-10.4-1.5-20.7-3.9-30.7-7.2c-9.7-3.2-20.4-7-28.8-12.7c-2.6-1.7-4.9-3.8-6.8-6.3c-2-2.8-2.9-6.1-4.6-9.1
								c-0.8-1.4-1.7-2.8-3-3.5c-1.8-1-3.9-0.9-6-0.7c-2.2,0.2-5.7,0.7-6.5,3.2c-0.5,1.6,0.6,4.3,1,5.9
								C429.4,370.3,432.1,374.9,435.5,378.7z"/>
						</g>
					</g>
				</g>
				<path class="st41" d="M505.6,639H307.4c-4.8,0-8.7-3.9-8.7-8.7l-24.4-125.4c0-4.8,3.9-8.7,8.7-8.7h196.7c4.8,0,8.7,3.9,8.7,8.7
					l25.9,125.4C514.3,635.1,510.4,639,505.6,639z"/>
				<g class="st42">
					<path class="st43" d="M468.7,527.8H304.2c-2.2,0-4-1.8-4-4v0c0-2.2,1.8-4,4-4h164.5c2.2,0,4,1.8,4,4v0
						C472.6,526,470.8,527.8,468.7,527.8z"/>
					<path class="st43" d="M473,549.6H308.5c-2.2,0-4-1.8-4-4v0c0-2.2,1.8-4,4-4H473c2.2,0,4,1.8,4,4v0
						C477,547.8,475.2,549.6,473,549.6z"/>
					<path class="st43" d="M477.4,571.8h-71.1c-2.2,0-4-1.8-4-4v0c0-2.2,1.8-4,4-4h71.1c2.2,0,4,1.8,4,4v0
						C481.3,570,479.5,571.8,477.4,571.8z"/>
					<path class="st43" d="M482.4,593.8h-71.1c-2.2,0-4-1.8-4-4v0c0-2.2,1.8-4,4-4h71.1c2.2,0,4,1.8,4,4v0
						C486.4,592,484.6,593.8,482.4,593.8z"/>
					<path class="st43" d="M486.8,615.4h-71.1c-2.2,0-4-1.8-4-4v0c0-2.2,1.8-4,4-4h71.1c2.2,0,4,1.8,4,4v0
						C490.8,613.6,489,615.4,486.8,615.4z"/>
					<path class="st43" d="M385.6,615.4l-58.9,0.6c-4.8,0-8.7-2.9-8.7-6.4l-8.3-39.1c0-3.5,3.9-6.4,8.7-6.4h59.3
						c4.8,0,8.7,2.9,8.7,6.4l7.9,38.5C394.3,612.5,390.4,615.4,385.6,615.4z"/>
				</g>
				<ellipse class="st5" cx="537.4" cy="649.5" rx="6.1" ry="5.3"/>
				<ellipse class="st5" cx="537.7" cy="667.7" rx="6.1" ry="5.3"/>
				<polyline class="st5" points="548.4,635.8 547.2,686.2 545.7,631.8 				"/>
				<path class="st5" d="M637.6,652.7c0,0,4.2,16.5,0,23.4l-57,36.1l-9.7-18c0,0-5.3-4.7,1.2-8.9l23.4-15.7l8.9-5.6l-6-24"/>
				<path class="st10" d="M607.5,564.1c0,0,23.8,38.8,31.3,89.6c0,0,4.3,16.5,0,23.4l-57.8,36.4l-9.9-18.5c0,0-5.4-6.2,0.5-8.6
					l24-15.7l9.2-5.6l-8.8-35.1"/>
			</g>
			<g>
				<g>
					<path class="st22" d="M511.4,484.5c5.1,13,16.9,18.9,30.5,18.5c12.2-0.4,23.4-6.3,28.1-18c0.7-1.8-2.2-2.6-2.9-0.8
						c-4.1,10.4-14.5,15.5-25.2,15.8c-12.1,0.4-23.1-4.6-27.7-16.3C513.6,481.9,510.7,482.7,511.4,484.5L511.4,484.5z"/>
				</g>
			</g>
			<ellipse class="st44" cx="495.6" cy="437.8" rx="8.3" ry="13"/>
			<ellipse class="st44" cx="581.1" cy="437.8" rx="8.3" ry="13"/>
			<path class="st45" d="M581.1,424.8c-4.6,0-8.3,5.8-8.3,13h16.5C589.4,430.6,585.7,424.8,581.1,424.8z"/>
			<path class="st45" d="M495.6,424.8c-4.6,0-8.3,5.8-8.3,13h16.5C503.9,430.6,500.1,424.8,495.6,424.8z"/>
			<g>
				<g>
					<path class="st22" d="M487.4,409c3.9-4.8,9.7-5.5,14.6-1.8c1.5,1.2,3-1.4,1.5-2.6c-5.9-4.4-13.6-3.6-18.3,2.2
						C484,408.4,486.2,410.5,487.4,409L487.4,409z"/>
				</g>
			</g>
			<g>
				<g>
					<path class="st22" d="M586.9,406.9c-4.7-5.8-12.4-6.7-18.3-2.2c-1.5,1.1,0,3.8,1.5,2.6c4.9-3.7,10.7-3.1,14.6,1.8
						C586,410.5,588.1,408.4,586.9,406.9L586.9,406.9z"/>
				</g>
			</g>
		</g>
	</g>
</g>
</svg>
