<?xml version="1.0" encoding="utf-8"?>
<!-- Generator: Adobe Illustrator 26.0.3, SVG Export Plug-In . SVG Version: 6.00 Build 0)  -->
<svg version="1.1" id="Capa_1" xmlns="http://www.w3.org/2000/svg" xmlns:xlink="http://www.w3.org/1999/xlink" x="0px" y="0px"
	 viewBox="0 0 640 734.1" style="enable-background:new 0 0 640 734.1;" xml:space="preserve">
<style type="text/css">
	.st0{fill:#0073A5;}
	.st1{fill:#FFFFFF;}
	.st2{clip-path:url(#SVGID_00000037675633099827063090000000421608577390141352_);}
	.st3{opacity:0.2;enable-background:new    ;}
	.st4{fill:#6993B5;}
	.st5{fill:#AFC5D7;}
	.st6{fill:#8E624F;}
	.st7{fill:#3B2B21;}
	.st8{fill:#553E31;}
	.st9{fill:#434041;}
	.st10{fill:none;stroke:#434041;stroke-miterlimit:10;}
	.st11{fill:#B58363;}
	.st12{fill:#7B4F40;}
	.st13{fill:#DAA17F;}
	.st14{fill:#1D1611;}
	.st15{fill:#D8946D;}
	.st16{fill:#E9AD89;}
	.st17{fill:#F4D2BB;}
	.st18{fill:#D7B69F;}
	.st19{fill:#FCDFC7;}
	.st20{fill:#B07F63;}
	.st21{fill:#A0725C;}
	.st22{fill:#37302D;}
	.st23{fill:#A07A61;}
	.st24{fill:#E8BC00;}
	.st25{fill:#DDBDA6;}
	.st26{clip-path:url(#SVGID_00000150787457371877501890000012882023345442424230_);}
	.st27{clip-path:url(#SVGID_00000174562422949075406090000000215585145076162492_);fill:#9B6E4E;}
	.st28{clip-path:url(#SVGID_00000152236983982144613290000002628736882543783053_);fill:#EF9195;}
	.st29{clip-path:url(#SVGID_00000049902685404458754030000017410370379821476493_);}
	.st30{clip-path:url(#SVGID_00000178173727965834922960000013231300785566614451_);fill:#CE5351;}
	.st31{clip-path:url(#SVGID_00000020393331274711733300000006375074577004802714_);fill:#E8695F;}
	.st32{clip-path:url(#SVGID_00000008109005899313716520000012698818100460207034_);fill:#FDFDFD;}
	.st33{clip-path:url(#SVGID_00000003074691934942348800000001454558094679579781_);fill:#0B75A4;}
	.st34{clip-path:url(#SVGID_00000029015828920256715880000015858091584580125354_);}
	.st35{fill:#949494;}
	.st36{fill:#DEDBD9;}
	.st37{fill:#989898;}
	.st38{clip-path:url(#SVGID_00000153690666926762380480000015372289675619984771_);fill:#DDBDA6;}
	.st39{fill:#BA8A72;}
	.st40{fill:#915A3F;}
	.st41{clip-path:url(#SVGID_00000002349616240641884460000008067648816875625642_);fill:#915A3F;}
	.st42{clip-path:url(#SVGID_00000181084474820304608270000003279970628403030178_);fill:#915A3F;}
	.st43{opacity:0.7;fill:#DEDBD9;enable-background:new    ;}
	.st44{opacity:0.7;}
	.st45{opacity:0.9;fill:#FFFFFF;enable-background:new    ;}
	.st46{fill:#BA8A70;stroke:#BA8A70;stroke-miterlimit:10;}
	.st47{fill:#A07A61;stroke:#A07A61;stroke-miterlimit:10;}
</style>
<g>
	<rect class="st0" width="640" height="734.1"/>
	<g>
		<circle class="st1" cx="320" cy="406.7" r="183.9"/>
		<g>
			<g>
				<defs>
					<circle id="SVGID_1_" cx="320" cy="406.7" r="140.6"/>
				</defs>
				<clipPath id="SVGID_00000093136239460497275990000014689392220314908095_">
					<use xlink:href="#SVGID_1_"  style="overflow:visible;"/>
				</clipPath>
				<g style="clip-path:url(#SVGID_00000093136239460497275990000014689392220314908095_);">
					<path class="st3" d="M400.5,370.5c-1.1-2.3-2.6-4.6-4.2-6.5c0-0.1-0.1-0.1-0.1-0.1c4.7-1.7,12.3-5.4,13.2-11.8c0,0,1-7-8-2.5
						c0,0-3.6,1.7-12.5,3.5l-2.1-5.8l0,0l-2.6-7.3l0,0l-7.6-21.6c0,0-0.2-1.7-3.5-2.2c0,0-19.5-4.6-43.9-5.2l0,0l0,0
						c-24.4,0.6-43.9,5.2-43.9,5.2c-3.3,0.5-3.5,2.2-3.5,2.2l-1.7,5h0.1l-5.9,16.6l0,0l-4.1,11.7l0,0l-0.5,1.5
						c-8.8-1.9-12.5-3.5-12.5-3.5c-9.1-4.6-8,2.5-8,2.5c0.8,5.8,7.2,9.4,11.9,11.3c-4.4,9.8-7.8,23.9-8.6,27.2
						c-7.6,8.8-14.3,18.6-16.1,27c0,0-0.7,4.8,0.1,11.6c1.1,10.9,5.6,27.5,22.5,39.1c0.1,0.1,0.2,0.2,0.3,0.2
						c0.4,0.3,0.8,0.5,1.2,0.8c0.2,0.2,0.4,0.3,0.7,0.4c0.3,0.2,0.6,0.4,0.9,0.6c0.3,0.2,0.7,0.4,1,0.6c0.2,0.1,0.4,0.3,0.6,0.4
						c0.4,0.3,0.9,0.5,1.3,0.7c0.1,0.1,0.3,0.1,0.4,0.2c0.5,0.3,1.1,0.6,1.6,0.8c0.1,0,0.1,0.1,0.2,0.1c4.6,2.2,9.7,4.1,15.7,5.5
						c0.1,0,0.2,0.1,0.3,0.1c0.7,0.2,1.4,0.3,2.2,0.5c0.3,0.1,0.5,0.1,0.8,0.2c0.6,0.1,1.1,0.2,1.7,0.3c0.2,0.1,0.3,0.1,0.4,0.1
						c-4,12-13,36.5-15.7,41.4c0,0-2.9,5,0.8,6.2l1.7,3.6l-4.8,13.9c0,0-2.8,4.8,3.4,5.4c0,0,33.3,17.2,86-0.4c0,0,1.4-0.2,2.4-1.3
						c0.7-0.2,1.3-0.4,2-0.6c0,0,2.9-0.5,3.4-3.2c3.1-0.3,7.7-1.4,13.3-4.2c2.8-1.1,5.8-2.5,9.2-4.7c0,0,1.2,0,0-5
						c0,0-6.7-38.8-12.5-61.5c0.9-0.4,1.8-0.9,2.8-1.5c2.4-1.6,4.7-3.6,6.5-5.8c2.7-3.2,4.8-7,6-11.1c0.8-2.6,0.3-3.5,3.2-4.1
						c2.4-0.5,4.8-1.1,7.1-2.1c3-1.3,5.8-3.4,7.3-6.2c1.5-2.6,1.8-5.8,2-8.8C413.1,409.4,409.4,388.8,400.5,370.5z M288,479.9
						L288,479.9L288,479.9L288,479.9z"/>
					<g>
						<path class="st4" d="M283,444.2c4.1,0,8.2-0.1,12.3,0c3.9,0.1,6.6,2.4,6.5,5.7c-0.1,3.3-2.6,5.7-6.6,5.8
							c-8.3,0.1-16.6,0.1-24.9,0c-3.9-0.1-6.5-2.6-6.4-5.9c0.1-3.2,2.8-5.5,6.5-5.6C274.7,444.2,278.9,444.2,283,444.2z"/>
						<path class="st5" d="M321,477.9c-4.1,0-8.2,0-12.3,0c-3.8,0-6-1.9-6.2-5c-0.2-3.5,2.1-6.4,5.8-6.5c8.6-0.2,17.2-0.2,25.7,0
							c3.9,0.1,6.3,2.9,6.1,6.2c-0.2,3.1-2.9,5.2-6.7,5.2C329.2,477.9,325.1,477.9,321,477.9z"/>
						<path class="st4" d="M352.4,496.4c0,3.3-2.6,5.7-6.2,5.7c-3.3-0.1-6-2.5-6-5.7c-0.1-3.3,2.6-5.8,6.1-5.8
							C349.8,490.6,352.4,493.2,352.4,496.4z"/>
						<path class="st4" d="M290.7,466.3c3.5,0,6.2,2.5,6.1,5.8c-0.1,3.1-2.6,5.6-6,5.7c-3.5,0.1-6.2-2.4-6.2-5.7
							C284.6,468.8,287.2,466.4,290.7,466.3z"/>
						<path class="st4" d="M310,444.2c3.5,0,6,2.3,6,5.6c0.1,3.3-2.6,5.9-6.1,5.9c-3.4,0-6.2-2.7-6.1-5.9
							C303.9,446.6,306.6,444.2,310,444.2z"/>
						<path class="st5" d="M365.9,502.2c-3.5,0-6.1-2.4-6.1-5.8c0-3.3,2.7-5.8,6.2-5.8c3.2,0.1,6,2.6,6.1,5.7
							C372,499.6,369.3,502.1,365.9,502.2z"/>
						<path class="st6" d="M370.7,479.6l-85-7.1c-2.3,7.9-13.9,40-17,45.7c0,0-4.7,6.6-1,7.8l3.4,1.9l-4.7,13.7c0,0-2.7,4.7,3.4,5.3
							c0,0,32.9,17,85-0.4c0,0,4.1-0.7,3.3-5c0,0,9,1.5,22.3-6.8c0,0,1.2,0,0-5C380.5,529.7,375.7,501.8,370.7,479.6z"/>
						<path class="st7" d="M246.2,388.8c0.5,2.4,2.4,4.2,4.5,5.5c5.5,3.3,11.2,6.2,16.7,9.5c11.2,6.7,22,13.9,32.7,21.2
							c10.7,7.3,21.4,14.7,32.2,21.8c5.5,3.5,10.9,7,16.5,10.4c5.5,3.3,11.1,6.7,16.9,9.5c3.2,1.5,5.6,0.5,8.4-1.3
							c2.4-1.6,4.7-3.6,6.5-5.8c2.7-3.2,4.8-7,6-11.1c0.8-2.6,0.3-3.5,3.2-4.1c2.4-0.5,4.8-1.1,7.1-2.1c3-1.3,5.8-3.4,7.3-6.2
							c1.5-2.6,1.8-5.8,2-8.8c1.1-20.3-2.7-40.9-11.5-59.2c-1.1-2.3-2.6-4.6-4.2-6.5c-1.2-1.4-3.2-1-4.9-1c-2.1-0.1-4.3-0.1-6.4-0.1
							c-4.3-0.1-8.5-0.1-12.8-0.2c-17.2-0.3-34.4-0.6-51.6-1.1c-18.4-0.5-36.7-1.1-55.1-1.7c-0.3-0.4-0.8-0.6-1.4-0.6
							c-0.6,0-1.1,0.2-1.4,0.5c-0.1,0-0.1,0-0.1,0C250.8,368.1,246.2,388.8,246.2,388.8z"/>
						<path class="st8" d="M390.8,413.5c-1.9-13.6-5-27.2-11.2-39.6c-1.5-3-3.2-5.9-5-8.7c-1.8-2.8-3.8-5.9-6.3-8.2
							c-1.3-1.2-3.3-0.6-5-0.4c-2.1,0.2-4.2,0.4-6.4,0.6c-4.2,0.4-8.5,0.8-12.8,1.3c-10.9,1.1-21.8,2.1-32.6,3.2l10.2,87.4
							c5.4,2.6,10.9,5.3,16.4,7.7c5.9,2.6,11.9,5.4,18,7.5c3.3,1.1,5.7-0.1,8.2-2.3c2.2-1.9,4.2-4.1,5.8-6.5
							c3.1-4.7,4.8-9.9,5.1-15.3c5.1-1.6,10.5-3.8,13.9-7.8C393.4,427.1,391.6,419.8,390.8,413.5z"/>
						<ellipse class="st9" cx="301.2" cy="395" rx="1.5" ry="1.4"/>
						<ellipse class="st9" cx="344.1" cy="395" rx="1.5" ry="1.4"/>
						<path class="st10" d="M313.6,431c0,0,8.2,1.6,19.5-5.6"/>
						<path class="st10" d="M322.4,413.3c-1.5,1.1-3.6,0.7-4.7-0.6c-1.1-1.4-0.8-3.4,0.7-4.4"/>
						<g>
							<g>
								<path class="st11" d="M313,444.9c-35-0.6-36.6-13.9-36.6-13.9c-6.2-23.9,13.7-43.5,13.7-43.5l-17.8-25
									c0,0-37.2,31.1-42,52.6c0,0-7.5,52.6,53.8,62.6c0,0-9.2,31.7-13.1,39.1c0,0-4.7,6.7-1,7.9l3.5,1.9l-4.8,13.9
									c0,0-2.8,4.8,3.4,5.4c0,0,33.3,17.2,86-0.4c0,0,4.1-0.7,3.3-5.1c0,0,9.1,1.5,22.6-6.9c0,0,1.2,0,0-5
									c0,0-12.7-73.6-18.3-77.4c0,0-2.8-4.4-7.8-3.4l-10.2,1.3l-0.2-5.3L313,444.9z"/>
								<g>
									<path class="st12" d="M287.2,446.2l3.1,19.3c0,0,0.1,7,6.8,5c5.9-1.8,2.7,1.6,2.7,1.6l-3.1,5.9c0,0-1.7,2.2,1.5,5.1
										l32.6,33.8l-33.1-71.4l-10.5-2.2V446.2L287.2,446.2z"/>
									<path class="st6" d="M288.7,446.7l3.1,19c0,0,0.1,6.9,6.8,4.9c5.9-1.7,2.7,1.6,2.7,1.6l-3.1,5.8c0,0-1.7,2.1,1.5,5
										l32.6,33.4L299.1,446l-10.5-2.1L288.7,446.7L288.7,446.7z"/>
									<path class="st12" d="M358.2,445.5l-3.1,19c0,0-0.1,6.9-6.8,4.9c-5.9-1.7-2.7,1.6-2.7,1.6l3.1,5.8c0,0,1,1.8-1.5,5
										L329.5,510l-2.9-4.7l21.1-60.5l10.5-2.1V445.5z"/>
									<path class="st6" d="M356.8,445.5l-3.1,19c0,0-0.1,6.9-6.8,4.9c-5.9-1.7-2.7,1.6-2.7,1.6l3.1,5.8c0,0,1,1.8-1.5,5
										L328.1,510l-2.9-4.7l21.1-60.5l10.5-2.1V445.5z"/>
									<g>
										<polygon class="st13" points="299.5,442.7 324.3,507.7 345.9,446.9 										"/>
										<g>
											<g>
												<g>
													<polygon class="st14" points="315.6,485.5 319.5,477.5 326.6,477.5 332.2,485.3 324.3,507.7 													"/>
													<path class="st14" d="M311.8,463.1l8.8,16.5c0,0,1.5,2.1,4.8,0l11.6-16.5l-13.8-6.3L311.8,463.1z"/>
													<path class="st7" d="M311.8,459.3l8.8,16.5c0,0,1.5,2.1,4.8,0l11.6-16.5l-13.8-6.3L311.8,459.3z"/>
												</g>
												<g>
													<path class="st15" d="M296.8,442l12.5,34c0,0,2,3.4,4.2,0l15.6-22.3L296.8,442z"/>
													<g>
														<path class="st15" d="M350.1,442l-12.5,34c0,0-2,3.4-4.2,0l-15.6-22.3L350.1,442z"/>
													</g>
												</g>
												<g>
													<path class="st16" d="M299.2,439.3l11.6,31.8c0,0,1.9,3.2,3.9,0l14.6-20.9L299.2,439.3z"/>
													<g>
														<path class="st16" d="M348,438.9l-11.6,31.8c0,0-1.9,3.2-3.9,0l-14.6-20.9L348,438.9z"/>
													</g>
												</g>
											</g>
										</g>
									</g>
								</g>
							</g>
							<path class="st17" d="M312.8,444.6l0.5,6.1l8.3,7c0,0,1.7,1.1,4.1,0l6-7.5l-0.7-6.1L312.8,444.6z"/>
							<path class="st18" d="M315.8,451.4c1.9,0.4,3.8,0.7,5.7,0.8c3.6,0.2,7.3-0.6,10.8-1.3c1.7-0.4,3.5-0.7,5.1-1.4
								c1-0.4,2-1.1,2.1-2c0.1-0.8-0.7-1.4-1.5-1.7c-1-0.4-2.1-0.6-3.2-0.8c-6.7-0.6-13.6,2.5-20.3,2.4c-0.6,0-1.2-0.1-1.7,0.1
								c-0.8,0.2-1.4,0.6-2,1.2c-0.8,0.7-0.3,0.9,0.5,1.3C312.6,450.7,314.2,451.1,315.8,451.4z"/>
						</g>
						<path class="st19" d="M378.6,404.7c-1.5-17.4-12.3-39.8-12.3-39.8l-39.2-1.3v-0.2l-3.3,0.1l-3.3-0.1v0.2l-39.2,1.3
							c0,0-10.9,22.4-12.3,39.8c0,0-5.6,46.6,54.9,46.4C387.7,451.3,378.6,404.7,378.6,404.7z"/>
						<path class="st7" d="M350.6,358.5c-10.3-0.3-20.5-0.5-30.8-0.4c-4.9,0-9.8,0.1-14.8,0.2c-3.5,0.1-9.4-1-10.6,3.2
							c-0.3,1.2,0.1,2.1,0.7,2.7c-0.5,0.6-0.7,1.4-0.4,2.4c1.7,6.3,8.2,9.7,14.5,11.2c6.8,1.6,14,1.3,20.7-0.7c3.2,3.3,8.7,4,13.1,2
							c6.2-2.8,8.7-9.3,10.3-15.1c0.1-0.4,0.2-0.8,0.1-1.2C354,360.9,353.1,358.5,350.6,358.5z"/>
						<path class="st8" d="M351.2,354.6c-10.3-0.3-20.5-0.5-30.8-0.4c-4.9,0-9.8,0.1-14.8,0.2c-3.5,0.1-9.4-1-10.6,3.2
							c-0.3,1.2,0.1,2.1,0.7,2.7c-0.5,0.6-0.7,1.4-0.4,2.4c1.7,6.3,8.2,9.7,14.5,11.2c6.8,1.6,14,1.3,20.7-0.7c3.2,3.3,8.7,4,13.1,2
							c6.2-2.8,8.7-9.3,10.3-15.1c0.1-0.4,0.2-0.8,0.1-1.2C354.7,357.1,353.8,354.7,351.2,354.6z"/>
						<g>
							<g>
								<g>
									<path class="st11" d="M370.7,315.9c0,0-0.2-1.7-3.5-2.2c0,0-19.5-4.6-43.9-5.2c-24.4,0.6-43.9,5.2-43.9,5.2
										c-3.3,0.5-3.5,2.2-3.5,2.2L263.5,351l28.8,7.8l31-2.6l31,2.6l28.8-7.8L370.7,315.9z"/>
								</g>
							</g>
							<path class="st20" d="M364.7,325c-4.4,0.7-8.9,1.4-13.2,2.7c-4,1.3-14.1,4.8-15.8-1.3c-0.1-0.1-0.1-0.2-0.1-0.3
								c-0.3,0-0.7,0-1,0c-0.6,0-1.3,0.1-2,0.2c-1.8,0.2-3.6,0.3-5.3,0.4c-4.3,0.4-8.7,1.1-13,1.6c-3.9,0.5-7.9,1-11.9,0.7
								c-2-0.2-4.1-0.5-5.9-1.3c-1.5-0.6-2.8-1.6-4.4-2c-6.5-1.3-13.6-0.2-20,1.7l-7.6,21.1c4.4-2.1,10.4-2.4,15-3
								c10.7-1.2,21.5-1,32.2-1.3c10-0.3,20.1-0.2,30.1-0.5c9.5-0.3,19-1.3,28.2-3.5c2.8-0.6,5.5-1.4,8.2-2.4l-5-14
								C370.3,324.2,367.4,324.6,364.7,325z"/>
							<path class="st21" d="M280.5,319.7c4.4-0.5,9.5-1,13.8,0.3c1.6,0.5,2.9,1.5,4.4,2.1c1.8,0.7,3.9,0.8,5.8,0.9
								c4.1,0.1,8.1-0.6,12.1-1.1c4.6-0.6,9.1-1.3,13.7-1.6c2.3-0.2,5.9-1.1,7.9,0.5c1,0.8,0.8,2.3,2.1,2.8c1.2,0.4,2.6,0.1,3.8-0.2
								c2.9-0.6,5.7-1.7,8.5-2.4c6.1-1.4,12.4-2.4,18.7-3.1l-0.7-2.1c0,0-0.2-1.7-3.5-2.2c0,0-19.5-4.6-43.9-5.2
								c-24.4,0.6-43.9,5.2-43.9,5.2c-3.3,0.5-3.5,2.2-3.5,2.2l-1.7,5C276.2,320.4,278.4,320,280.5,319.7z"/>
							<polygon points="268.3,337.5 263.5,351 292.3,358.8 323.3,356.2 354.4,358.8 383.2,351 378.3,337.5 							"/>
							<path class="st14" d="M287.9,343c8.6,0,17.3,0.1,25.8,1.1c8.5,1,16.9,3.4,25.5,3.9c9.1,0.5,18.1-0.8,27.1-2
								c4.9-0.6,9.7-1,14.6-1.2l-2.6-7.3H268.3l-2.6,7.4C272.9,343.3,280.4,343,287.9,343z"/>
							<path d="M362.7,350.3c-8.7,1.1-17.6,2.3-26.4,1.3c-8.5-1-16.7-3.1-25.2-4c-8.4-0.8-16.9-0.8-25.4-0.8
								c-7.3,0.1-14.6,0.5-21.6,2.3l-0.6,1.9l28.8,7.8l31-2.6l31,2.6l28.8-7.8l-0.8-2.4C375.8,348.9,369.3,349.5,362.7,350.3z"/>
							<ellipse class="st22" cx="324.7" cy="332.3" rx="18.4" ry="19.1"/>
							<path class="st14" d="M395.5,347c0,0-18,8.5-72.2,8.4c-54.2,0.1-72.2-8.4-72.2-8.4c-9.1-4.6-8,2.5-8,2.5
								c1.3,9.3,16.9,12.9,16.9,12.9c11.1,3.1,52.3,4.6,63.3,4.7c11-0.1,52.2-1.6,63.3-4.7c0,0,15.6-3.6,16.9-12.9
								C403.6,349.6,404.5,342.5,395.5,347z"/>
						</g>
						<polyline class="st6" points="332.2,516.4 331,552.7 329.4,513.5 						"/>
						<ellipse class="st6" cx="323.8" cy="521.3" rx="3.3" ry="3.1"/>
						<ellipse class="st6" cx="323.9" cy="531.9" rx="3.3" ry="3.1"/>
						<polygon class="st6" points="356.8,499.9 363.2,541.1 359.7,541.9 						"/>
						<path class="st23" d="M336.2,398.7c0.3-1.9,1-3.7,2.1-5.3c1.7-2.5,4.2-3.4,7.3-2.5c3.6,1.1,5.8,3.7,7.5,6.7
							c0.1,0.2,0.1,0.5,0.1,0.9c-2.3-2.9-4.7-5.3-8.7-5.3C340.3,393.1,338.1,395.7,336.2,398.7z"/>
						<path class="st23" d="M296.3,398.7c1.2-2.5,2.4-5,4.9-6.6c2.2-1.4,4.2-1.1,5.9,0.8c1.7,2,2.5,4.3,3.2,6.8
							c-0.8-1.2-1.5-2.4-2.5-3.4c-2.1-2.2-4-2.5-6.8-1.2C299.1,396,297.7,397.4,296.3,398.7z"/>
						<path d="M321.1,337.7c1,0.7,2,0.1,3,0.4c-0.2,0.3-0.4,0.6-0.6,0.8c-1,0.8-2.1,1.2-3.4,1.1c-0.2,0-0.4-0.2-0.4-0.4
							c0-0.4-0.3-0.4-0.5-0.5c-0.6-0.1-1.3-0.2-1.7-0.5c-0.7-0.4-1.5-0.5-2.3-0.5c-0.3,0-0.7,0-1.1,0c0.1-0.5,0.1-1,0.2-1.4
							c0.1-0.5,0-0.9-0.2-1.4c-0.2-0.6-0.3-1.3-0.4-2c-0.1-0.5-0.1-0.8-0.8-0.7c0.1-0.5,0.2-0.8,0.3-1.2c0.3-1.1,1-1.8,1.9-2.4
							c0.2-0.1,0.4-0.1,0.6-0.1c0,0.2,0,0.3,0,0.5c-0.1,0.5-0.1,1-0.2,1.5c-0.1,0.3-0.1,0.7-0.3,1c-0.5,0.7,0.2,2.6,1.1,2.8
							c0.1,0,0.3-0.1,0.4-0.1c2.2-1.6,4.3-3.3,6.6-5c-0.3-0.3-0.5-0.5-0.8-0.7c-0.4,0.3-0.8,0.8-1.4,0.3c-0.4-0.4,0-0.8,0.4-1.2
							c-0.3-0.3-0.6-0.6-1.2-0.5c-1,0.2-1.8-0.5-2-1.4c-0.2-0.7,0.4-1.4,1.1-1.6c1.1-0.3,2.3,0.5,2.2,1.6c-0.1,0.6,0.4,0.8,0.7,1.1
							c0.4-0.3,0.7-0.7,1.2-0.3c0.4,0.3,0.2,0.7-0.2,1.1c1.1,1,0.8,1,2.1-0.1c-0.3-0.3-0.6-0.7-0.1-1.1c0.5-0.4,0.8,0.1,1.2,0.3
							c0.4-0.3,0.8-0.4,0.7-1.1c-0.1-0.8,0.7-1.6,1.6-1.7c0.8-0.1,1.6,0.4,1.7,1.3c0.2,1-0.8,2.1-2,1.9c-0.5-0.1-0.8,0.1-1.1,0.5
							c0.3,0.4,0.8,0.7,0.3,1.2c-0.5,0.5-0.9-0.1-1.3-0.4c-0.3,0.3-0.6,0.5-1,0.8c1.1,0.8,2.2,1.6,3.2,2.4c1.1,0.8,2.2,1.6,3.3,2.5
							c0.4,0.3,0.7,0.3,1.1-0.1c0.6-0.6,0.8-1.3,0.8-2.1c0-0.1,0-0.2-0.1-0.2c-0.6-0.5-0.5-1.1-0.5-1.7c0-0.3-0.1-0.6-0.1-0.9
							c0-0.2,0-0.4,0.1-0.5c0.2,0.1,0.4,0.1,0.6,0.1c0.9,0.6,1.6,1.3,1.9,2.3c0.2,0.4,0.2,0.8,0.3,1.2c-0.8,0.2-0.7,0.2-0.8,1
							c-0.1,0.7-0.4,1.4-0.5,2.2c-0.1,0.5,0,1.1,0.1,1.7c0,0.2,0.1,0.5,0.1,0.7c-0.7,0-1.3-0.1-1.9,0c-0.3,0-0.7,0.1-1,0.3
							c-0.7,0.4-1.5,0.7-2.3,0.7c-0.3,0-0.4,0.1-0.5,0.4c0,0.2-0.3,0.4-0.4,0.4c-1.3,0-2.6-0.3-3.5-1.3c-0.2-0.2-0.3-0.4-0.5-0.6
							c1-0.4,2.1,0.3,3-0.4c0.5,0.7,1.1,0.4,1.6,0.2c0.4-0.2,0.8-0.4,1.2-0.7c0.5-0.4,0.5-0.6,0-1.1c-1.2-1-2.3-2-3.5-3
							c-1-0.8-1.9-1.6-2.8-2.4c-1.6,1.4-3.2,2.7-4.8,4.1c-0.5,0.4-1.1,0.9-1.5,1.3c-0.4,0.4-0.4,0.6,0.1,1s1,0.6,1.5,0.8
							C320.2,338.2,320.7,338.4,321.1,337.7z M329.2,326.6c-0.1,0.1-0.2,0.2-0.2,0.2c0.7-0.2,1-0.5,1-0.9c-0.1-0.4-0.3-0.6-0.7-0.6
							c-0.4-0.1-0.8,0.3-1,0.8c0.1-0.1,0.2-0.2,0.3-0.3C328.7,326.2,328.9,326.4,329.2,326.6z M320.1,326.9c0.3-0.3,0.5-0.5,0.7-0.7
							c-0.2-0.6-0.5-0.8-1-0.7c-0.4,0.1-0.6,0.3-0.6,0.6S319.4,326.7,320.1,326.9z"/>
						<path class="st24" d="M320.6,337.2c1,0.7,2,0.1,3,0.4c-0.2,0.3-0.4,0.6-0.6,0.8c-1,0.8-2.1,1.2-3.4,1.1
							c-0.2,0-0.4-0.2-0.4-0.4c0-0.4-0.3-0.4-0.5-0.5c-0.6-0.1-1.3-0.2-1.7-0.5c-0.7-0.4-1.5-0.5-2.3-0.5c-0.3,0-0.7,0-1.1,0
							c0.1-0.5,0.1-1,0.2-1.4c0.1-0.5,0-0.9-0.2-1.4c-0.2-0.6-0.3-1.3-0.4-2c-0.1-0.5-0.1-0.8-0.8-0.7c0.1-0.5,0.2-0.8,0.3-1.2
							c0.3-1.1,1-1.8,1.9-2.4c0.2-0.1,0.4-0.1,0.6-0.1c0,0.2,0,0.3,0,0.5c-0.1,0.5-0.1,1-0.2,1.5c-0.1,0.3-0.1,0.7-0.3,1
							c-0.5,0.7,0.2,2.6,1.1,2.8c0.1,0,0.3-0.1,0.4-0.1c2.2-1.6,4.3-3.3,6.6-5c-0.3-0.3-0.5-0.5-0.8-0.7c-0.4,0.3-0.8,0.8-1.4,0.3
							c-0.4-0.4,0-0.8,0.4-1.2c-0.3-0.3-0.6-0.6-1.2-0.5c-1,0.2-1.8-0.5-2-1.4c-0.2-0.7,0.4-1.4,1.1-1.6c1.1-0.3,2.3,0.5,2.2,1.6
							c-0.1,0.6,0.4,0.8,0.7,1.1c0.4-0.3,0.7-0.7,1.2-0.3c0.4,0.3,0.2,0.7-0.2,1.1c1.1,1,0.8,1,2.1-0.1c-0.3-0.3-0.6-0.7-0.1-1.1
							c0.5-0.4,0.8,0.1,1.2,0.3c0.4-0.3,0.8-0.4,0.7-1.1c-0.1-0.8,0.7-1.6,1.6-1.7c0.8-0.1,1.6,0.4,1.7,1.3c0.2,1-0.8,2.1-2,1.9
							c-0.5-0.1-0.8,0.1-1.1,0.5c0.3,0.4,0.8,0.7,0.3,1.2c-0.5,0.5-0.9-0.1-1.3-0.4c-0.3,0.3-0.6,0.5-1,0.8c1.1,0.8,2.2,1.6,3.2,2.4
							c1.1,0.8,2.2,1.6,3.3,2.5c0.4,0.3,0.7,0.3,1.1-0.1c0.6-0.6,0.8-1.3,0.8-2.1c0-0.1,0-0.2-0.1-0.2c-0.6-0.5-0.5-1.1-0.5-1.7
							c0-0.3-0.1-0.6-0.1-0.9c0-0.2,0-0.4,0.1-0.5c0.2,0.1,0.4,0.1,0.6,0.1c0.9,0.6,1.6,1.3,1.9,2.3c0.2,0.4,0.2,0.8,0.3,1.2
							c-0.8,0.2-0.7,0.2-0.8,1c-0.1,0.7-0.4,1.4-0.5,2.2c-0.1,0.5,0,1.1,0.1,1.7c0,0.2,0.1,0.5,0.1,0.7c-0.7,0-1.3-0.1-1.9,0
							c-0.3,0-0.7,0.1-1,0.3c-0.7,0.4-1.5,0.7-2.3,0.7c-0.3,0-0.4,0.1-0.5,0.4c0,0.2-0.3,0.4-0.4,0.4c-1.3,0-2.6-0.3-3.5-1.3
							c-0.2-0.2-0.3-0.4-0.5-0.6c1-0.4,2.1,0.3,3-0.4c0.5,0.7,1.1,0.4,1.6,0.2c0.4-0.2,0.8-0.4,1.2-0.7c0.5-0.4,0.5-0.6,0-1.1
							c-1.2-1-2.3-2-3.5-3c-1-0.8-1.9-1.6-2.8-2.4c-1.6,1.4-3.2,2.7-4.8,4.1c-0.5,0.4-1.1,0.9-1.5,1.3c-0.4,0.4-0.4,0.6,0.1,1
							s1,0.6,1.5,0.8C319.7,337.7,320.2,337.9,320.6,337.2z M328.7,326.2c-0.1,0.1-0.2,0.2-0.2,0.2c0.7-0.2,1-0.5,1-0.9
							c-0.1-0.4-0.3-0.6-0.7-0.6c-0.4-0.1-0.8,0.3-1,0.8c0.1-0.1,0.2-0.2,0.3-0.3C328.3,325.7,328.5,325.9,328.7,326.2z
							 M319.6,326.5c0.3-0.3,0.5-0.5,0.7-0.7c-0.2-0.6-0.5-0.8-1-0.7c-0.4,0.1-0.6,0.3-0.6,0.6C318.6,326,318.9,326.3,319.6,326.5z"
							/>
						<path class="st25" d="M292.6,368.4c0.5,0.8,0.8,1.8,0.8,2.8c0.1,1.9-1.1,3.3-2.4,4.5c-1.4,1.3-3.1,2.3-4.2,4
							c1.6,2,3,4.1,4.3,6.3c0.5,0.8,1,1.6,0.9,2.5c-0.1,2.9-2.9,5.1-4.4,7.4c-1.8,2.6-3.4,5.5-4.7,8.4c-4.2,9.2-7.1,20.8-3.4,30.6
							c0.6,1.6,1.6,3.2,1.2,5c-3-3.8-8.7-10.5-10-15.1c-1.7-6.2-0.6-12.9,1.7-19c2.3-6,5.7-11.6,8.4-17.4c0.8-1.8,1.7-4,0.6-5.8
							c-0.8-1.4-2.7-2.1-3.2-3.7c-0.4-1.5,0.8-3.1,2.2-3.9c1.4-0.8,3-1.3,4.1-2.4c1.2-1.1,1.7-3.2,0.4-4.2c-0.6-0.5-1.4-0.7-1.5-1.5
							c-0.1-0.3-0.1-1,0.3-1c1.8,0.3,6.5-0.3,8,1.7C292.2,367.7,292.5,368,292.6,368.4z"/>
						<path class="st19" d="M270.8,364.9l21.7-20c0,0,3.2-3.1,5.9-1.9c0,0,1.1,0.3-1,4l-4.8,8.8c0,0,0,0-3.1,4.8l-3.3,5.5l4.2,2.3
							c0,0,3,1.5,0.2,4l-9.2,7.2L270.8,364.9z"/>
						<g>
							<g>
								<defs>
									<path id="SVGID_00000105402319026624125400000002734772035329295283_" d="M282,438.7c-4.1-3.8-5.6-7-5.6-7
										c-5.8-18.6,6.4-34.9,11.4-41c1.4-1.6,2.3-2.5,2.3-2.5l-1.7-2.4l-16.1-22.7c0,0-37.2,31.1-42,52.6c0,0-7.3,50.8,51.8,61.6
										L282,438.7z"/>
								</defs>
								<clipPath id="SVGID_00000025435915435021471990000007391945103697928877_">
									<use xlink:href="#SVGID_00000105402319026624125400000002734772035329295283_"  style="overflow:visible;"/>
								</clipPath>
								<g style="clip-path:url(#SVGID_00000025435915435021471990000007391945103697928877_);">
									<g>
										<path class="st11" d="M282,438.7c-4.1-3.8-5.6-7-5.6-7c-5.8-18.6,6.4-34.9,11.4-41c1.4-1.6,2.3-2.5,2.3-2.5l-1.7-2.4
											l-16.1-22.7c0,0-37.2,31.1-42,52.6c0,0-7.3,50.8,51.8,61.6L282,438.7z"/>
									</g>
								</g>
							</g>
							<g>
								<defs>
									<path id="SVGID_00000119838586881206099460000014721569634254798782_" d="M282,438.7c-4.1-3.8-5.6-7-5.6-7
										c-5.8-18.6,6.4-34.9,11.4-41c1.4-1.6,2.3-2.5,2.3-2.5l-1.7-2.4l-16.1-22.7c0,0-37.2,31.1-42,52.6c0,0-7.3,50.8,51.8,61.6
										L282,438.7z"/>
								</defs>
								<clipPath id="SVGID_00000170997497719005176770000004772677897269308559_">
									<use xlink:href="#SVGID_00000119838586881206099460000014721569634254798782_"  style="overflow:visible;"/>
								</clipPath>
								<path style="clip-path:url(#SVGID_00000170997497719005176770000004772677897269308559_);fill:#9B6E4E;" d="M280.9,397.7
									c-1.9,3.3-3.7,6.5-5.1,10c-2.7,6.7-3.7,14.2-1.6,21.2c2.1,6.9,5,9.2,11.9,11.1c0.4,0.1,1.3,1,0.4,0.3
									c-1.3-1-2.6-1.8-3.9-2.8c-3.8-3.3-5.7-8.3-5.9-13.3c-0.3-5,1-10,2.7-14.7c2.6-7.3,6.5-14.2,11.2-20.4c0.5-0.6,1-1.3,0.9-2.1
									c-0.3-3.1-5,2.3-5.5,3C283.9,392.4,282.4,395.1,280.9,397.7z"/>
							</g>
						</g>
						<g>
							<g>
								<defs>
									<path id="SVGID_00000057855890399713120790000010254758744099619986_" d="M302.2,426.2c1.9,2.6,4.2,4.8,6.9,6.5
										c6.8,4.4,15.9,6.4,23.9,4.6c2.5-0.6,4.9-1.5,7-2.9c1.4-0.9,2.8-2,4-3.2c1.9-2,4.2-4.8,5.5-7.3c0.4-0.7,3.3-9,3-9.2
										c-2.2-1-3.5,3.2-27,6.5c-3.2,0.5-14.1,0.4-17.3-0.3c-1.3-0.3-3.1-0.7-4.4-1c-1.1-0.3-2.6-0.8-3.8-0.6
										c-1.4,0.3-0.7,1.7-0.2,2.6c0.8,1.3,1.5,2.7,2.4,4C302.2,426.1,302.2,426.2,302.2,426.2z"/>
								</defs>
								<clipPath id="SVGID_00000144305084789202362140000003067455853580858770_">
									<use xlink:href="#SVGID_00000057855890399713120790000010254758744099619986_"  style="overflow:visible;"/>
								</clipPath>
								<path style="clip-path:url(#SVGID_00000144305084789202362140000003067455853580858770_);fill:#EF9195;" d="M302.2,426.2
									c1.9,2.6,4.2,4.8,6.9,6.5c6.8,4.4,15.9,6.4,23.9,4.6c2.5-0.6,4.9-1.5,7-2.9c1.4-0.9,2.8-2,4-3.2c1.9-2,4.2-4.8,5.5-7.3
									c0.4-0.7,3.3-9,3-9.2c-2.2-1-3.5,3.2-27,6.5c-3.2,0.5-14.1,0.4-17.3-0.3c-1.3-0.3-3.1-0.7-4.4-1c-1.1-0.3-2.6-0.8-3.8-0.6
									c-1.4,0.3-0.7,1.7-0.2,2.6c0.8,1.3,1.5,2.7,2.4,4C302.2,426.1,302.2,426.2,302.2,426.2z"/>
							</g>
							<g>
								<defs>
									<path id="SVGID_00000074418748609421723560000002548648240826795667_" d="M302.2,426.2c1.9,2.6,4.2,4.8,6.9,6.5
										c6.8,4.4,15.9,6.4,23.9,4.6c2.5-0.6,4.9-1.5,7-2.9c1.4-0.9,2.8-2,4-3.2c1.9-2,4.2-4.8,5.5-7.3c0.4-0.7,3.3-9,3-9.2
										c-2.2-1-3.5,3.2-27,6.5c-3.2,0.5-14.1,0.4-17.3-0.3c-1.3-0.3-3.1-0.7-4.4-1c-1.1-0.3-2.6-0.8-3.8-0.6
										c-1.4,0.3-0.7,1.7-0.2,2.6c0.8,1.3,1.5,2.7,2.4,4C302.2,426.1,302.2,426.2,302.2,426.2z"/>
								</defs>
								<clipPath id="SVGID_00000100380740033148452910000002920384914329935522_">
									<use xlink:href="#SVGID_00000074418748609421723560000002548648240826795667_"  style="overflow:visible;"/>
								</clipPath>
								<g style="clip-path:url(#SVGID_00000100380740033148452910000002920384914329935522_);">
									<g>
										<defs>
											<path id="SVGID_00000003785549109225084950000017798402340088919695_" d="M319.5,429.2c4.1,0.1,8.2-0.4,12.2-1.1
												c1.4-0.3,2.7-0.6,4.1-0.9c0.1,0.3,0.3,0.4,0.6,0.5c2.9,0.8,5.5,2.2,8.2,3.3c-1.7,2.3-4.1,3.7-6.6,4.9
												c-5.7,2.7-11.6,2.9-17.7,1.8c-2.2-0.4-4.2-1-6.2-1.7c-0.5-0.2-1.1-0.3-1.4-0.8C314.7,433,317.1,431.1,319.5,429.2z"/>
										</defs>
										<clipPath id="SVGID_00000129885888264745173520000011993601960942316928_">
											<use xlink:href="#SVGID_00000003785549109225084950000017798402340088919695_"  style="overflow:visible;"/>
										</clipPath>
										<path style="clip-path:url(#SVGID_00000129885888264745173520000011993601960942316928_);fill:#CE5351;" d="M319.4,429.5
											c4.1,0.1,8.2-0.4,12.2-1.1c1.4-0.3,2.7-0.6,4.1-0.9c0.1,0.3,0.3,0.4,0.6,0.5c2.9,0.8,5.5,2.2,8.2,3.3
											c-1.7,2.3-4.1,3.7-6.6,4.9c-5.7,2.7-11.6,2.9-17.7,1.8c-2.2-0.4-4.2-1-6.2-1.7c-0.5-0.2-1.1-0.3-1.4-0.8
											C314.6,433.2,317,431.3,319.4,429.5z"/>
									</g>
									<g>
										<defs>
											<path id="SVGID_00000013890723434587600430000008820149787554271121_" d="M319.5,429.2c4.1,0.1,8.2-0.4,12.2-1.1
												c1.4-0.3,2.7-0.6,4.1-0.9c0.1,0.3,0.3,0.4,0.6,0.5c2.9,0.8,5.5,2.2,8.2,3.3c-1.7,2.3-4.1,3.7-6.6,4.9
												c-5.7,2.7-11.6,2.9-17.7,1.8c-2.2-0.4-4.2-1-6.2-1.7c-0.5-0.2-1.1-0.3-1.4-0.8C314.7,433,317.1,431.1,319.5,429.2z"/>
										</defs>
										<clipPath id="SVGID_00000078042092423156166240000017769770530449661582_">
											<use xlink:href="#SVGID_00000013890723434587600430000008820149787554271121_"  style="overflow:visible;"/>
										</clipPath>
										<path style="clip-path:url(#SVGID_00000078042092423156166240000017769770530449661582_);fill:#E8695F;" d="M320.7,429.4
											c4.1-0.1,8.2-0.7,12.1-1.6c1.4-0.3,2.7-0.7,4.1-1.1c0.1,0.3,0.3,0.4,0.6,0.5c2.9,0.7,5.6,1.9,8.3,3
											c-1.7,2.3-4,3.9-6.4,5.1c-5.6,2.9-11.5,3.3-17.7,2.5c-2.2-0.3-4.2-0.8-6.3-1.5c-0.5-0.2-1.1-0.2-1.4-0.7
											C316.1,433.3,318.4,431.3,320.7,429.4z"/>
									</g>
								</g>
							</g>
							<g>
								<defs>
									<path id="SVGID_00000136369962280086014260000010497901680639130303_" d="M302.2,426.2c1.9,2.6,4.2,4.8,6.9,6.5
										c6.8,4.4,15.9,6.4,23.9,4.6c2.5-0.6,4.9-1.5,7-2.9c1.4-0.9,2.8-2,4-3.2c1.9-2,4.2-4.8,5.5-7.3c0.4-0.7,3.3-9,3-9.2
										c-2.2-1-3.5,3.2-27,6.5c-3.2,0.5-14.1,0.4-17.3-0.3c-1.3-0.3-3.1-0.7-4.4-1c-1.1-0.3-2.6-0.8-3.8-0.6
										c-1.4,0.3-0.7,1.7-0.2,2.6c0.8,1.3,1.5,2.7,2.4,4C302.2,426.1,302.2,426.2,302.2,426.2z"/>
								</defs>
								<clipPath id="SVGID_00000124149640741477312280000010941592185003791272_">
									<use xlink:href="#SVGID_00000136369962280086014260000010497901680639130303_"  style="overflow:visible;"/>
								</clipPath>
								<path style="clip-path:url(#SVGID_00000124149640741477312280000010941592185003791272_);fill:#FDFDFD;" d="M304.6,419.9
									c2.6,0.2,5.3,0.8,8,1c10.1,0.6,20.2-0.2,30-3.1c3-0.9,6-2,8.8-3.4c0.5-0.3,1-0.4,1.7-0.7c-0.1,1.4-0.5,2.6-1,3.8
									c-0.4,0.3-0.8,0.6-1.2,1c-2.9,2.6-6.1,4.7-9.6,6.5c-2.1,1.1-4.3,2-6.5,2.6c-0.8,0.2-1.5,0.4-2.3,0.6
									c-2.3,0.5-4.6,0.9-6.9,1.1c-2.2,0.2-4.6,0.5-6.8,0.3c-1.9-0.2-3.9-0.2-5.8-0.5c-2.8-0.5-5.3-1.5-6.8-4.1
									C305.3,423.5,305,421.6,304.6,419.9z"/>
							</g>
						</g>
					</g>
				</g>
			</g>
			<g>
				<defs>
					<circle id="SVGID_00000016038502379042038950000001836996137419599265_" cx="320" cy="406.7" r="140.6"/>
				</defs>
				<clipPath id="SVGID_00000098914182015788021960000016854361989354199980_">
					<use xlink:href="#SVGID_00000016038502379042038950000001836996137419599265_"  style="overflow:visible;"/>
				</clipPath>
				
					<circle style="clip-path:url(#SVGID_00000098914182015788021960000016854361989354199980_);fill:#0B75A4;" cx="320" cy="406.7" r="140.6"/>
			</g>
			<g>
				<defs>
					<circle id="SVGID_00000095310783979503955070000003201847490806460057_" cx="320" cy="406.7" r="140.6"/>
				</defs>
				<clipPath id="SVGID_00000111149416641621786070000015831021591475874975_">
					<use xlink:href="#SVGID_00000095310783979503955070000003201847490806460057_"  style="overflow:visible;"/>
				</clipPath>
				<g style="clip-path:url(#SVGID_00000111149416641621786070000015831021591475874975_);">
					<g>
						<path class="st3" d="M385.3,518.2c-0.5-0.1,3.7-1.5,3.3-1.5c10.7-6.1,18.2-11.9,18.2-11.9c3.9-7-1-16.9-1-16.9l-5.9-20.2
							l-7.1-19.1l-6.9-15.1c-4.9-7.5-11-8.9-11-8.9c-0.1,0,0.1,0,0,0l0,0c29.1-8.8,31.5-29.1,31.7-40.2c11.7-4.6,9.7-14.8,9.2-16.9
							c-3.2-12.1-13.4-10.4-13.4-10.4c-0.8,0-1.7-4.4-1.8-4.8c0.9-0.3,2.7-0.9,3.7-1.6c0.8-0.7,1.2-2,1.2-3c0-1.1-0.3-3.2-0.7-4.2
							c-0.4-0.9-0.8-1.7-1.3-2.6c-0.3-0.5-0.6-0.9-0.8-1.4c-1-1.5-1.9-3-2.8-4.4c-0.4-0.7-1-1.4-1.3-2.1c-0.3-0.6-1.3-2-1.9-2.5
							l0.4-5.1c0-0.7,0.1-3.2,0-3.2v-0.7c0-0.6-0.1-1.1-0.2-1.6c0.1,0.1,0.1,0.1,0.2,0.1c0.9,0.1,4.3-1.7,7.1-3.2
							c0.8-0.4,1.5-0.8,2.1-1.2c0.8-0.5,1.5-0.8,1.6-1c4.2-2.8,7-6.4,7.4-10.3c0.2-1.4,0.4-3-0.1-4.5c-0.3-1.1-1-2.9-1.7-3.9
							c-1.1-1.6-1.6-2.3-3-3.7c-0.3-0.4-1.6-1.6-2-2c-2-2-5.8-5.5-8.1-7.1c-2-1.4-1.2-0.8-3.2-2.1c-0.6-0.4-1.2-0.8-1.9-1.2
							c-1.3-0.8-2.6-1.5-3.9-2.3c-0.5-0.3-1-0.6-1.5-0.8c-0.4-0.2-0.8-0.4-1.2-0.7c-1.1-0.6-2.2-1.2-3.3-1.8
							c-0.5-0.2-0.9-0.5-1.4-0.7c-0.5-0.2-1-0.5-1.4-0.7c-2.2-1.1-4.6-2.2-6.8-3.2c-0.7-0.3-1.4-0.6-2.1-0.9
							c-1.1-0.4-2.2-0.8-3.2-1.3c-1.1-0.4-2.2-0.8-3.3-1.2c-0.5-0.2-1.1-0.4-1.6-0.5c-7.2-2.3-14.7-3.8-22.4-4.1
							c-0.8-0.1-1.5-0.1-2.3-0.1c-1.4,0-2.8,0.1-4.2,0.1"/>
						<path class="st3" d="M392.2,521.9"/>
					</g>
					<g>
						<path class="st35" d="M383.8,517.5c-9-1.7-18.7-0.8-27.9-0.9c-9.7-0.1-19.4-0.2-29.1-0.2c-4.7-0.1-9.5-0.1-14.2-0.1
							c-4.4-0.1-9.9-0.9-14.2,0.4c-4.3,1.3-10.9,8.8-13.8,12.9c-1,1-2,2.1-3,3.9c-1,1.6-0.1,4.2,1.9,4.6c9,1.7,18.7,0.8,27.9,0.9
							c9.7,0.1,19.4,0.2,29.1,0.2c4.7,0.1,9.5,0.1,14.2,0.1c4.4,0.1,9.9,0.9,14.2-0.4c4.3-1.3,8.2-4.9,11.1-8.9c1-1,4.7-6,5.7-7.8
							C386.6,520.4,385.8,517.8,383.8,517.5z"/>
						<path class="st36" d="M384.5,516.3c-9-1.7-18.7-0.8-27.9-0.9c-9.7-0.1-19.4-0.2-29.1-0.2c-4.7-0.1-9.5-0.1-14.2-0.1
							c-4.4-0.1-9.9-0.9-14.2,0.4c-4.3,1.3-10.9,8.8-13.8,12.9c-1,1-2,2.1-3,3.9c-1,1.6-0.1,4.2,1.9,4.6c9,1.7,18.7,0.8,27.9,0.9
							c9.7,0.1,19.4,0.2,29.1,0.2c4.7,0.1,9.5,0.1,14.2,0.1c4.4,0.1,9.9,0.9,14.2-0.4c4.3-1.3,8.2-4.9,11.1-8.9c1-1,4.7-6,5.7-7.8
							C387.4,519.3,386.5,516.7,384.5,516.3z"/>
						<g>
							<path class="st25" d="M357.3,509.3c0,0-6.1,3.5-6.9,4.3c0,0-5.2,5.2-4.4,10.6c0,0,1,5.5,8.3,1.5c0,0,8.2,1,10-1.5l0.6-7
								L357.3,509.3z"/>
							<path class="st19" d="M357.2,508.7c0,0-6.1,3.5-6.9,4.3c0,0-5.2,5.2-4.4,10.6c0,0,1,5.5,8.3,1.5c0,0,8.2,1,10-1.5l0.6-7
								L357.2,508.7z"/>
						</g>
						<path class="st13" d="M357.8,506.3l-1.1,2.1c0,0-2.4,1.1-1.4,2.8l7.8,12.4c0,0,1.5,1.3,3.8,0l5.3-1.5l-9.9-16.8L357.8,506.3z"
							/>
						<g>
							<g>
								<path class="st37" d="M246.9,525.2c-0.3,0.6-0.6,1.3-0.6,2c0.1,1.5,1.9,2.5,2.8,2.9c3.5,1.4,7.4,1.2,11.1,1.1
									c2.2-0.1,4.4-0.1,6.5-0.6c2.1-0.6,4.2-1.7,5.4-3.5c0.4-0.6,0.7-1.3,0.8-2c0.2-1.8-1-3.6-2.5-4.6c-1.5-1-3.4-1.4-5.2-1.6
									c-4.6-0.8-6.9-1-9.1-0.4c0,0-3.4,0.9-7.5,4.8C248.1,523.5,247.5,524.2,246.9,525.2z"/>
							</g>
							<g>
								<path class="st36" d="M246.3,524.2c-0.3,0.6-0.6,1.3-0.6,2c0.1,1.5,1.9,2.5,2.8,2.9c3.5,1.4,7.4,1.2,11.1,1.1
									c2.2-0.1,4.4-0.1,6.5-0.6c2.1-0.6,4.2-1.7,5.4-3.5c0.4-0.6,0.7-1.3,0.8-2c0.2-1.8-1-3.6-2.5-4.6c-1.5-1-3.4-1.4-5.2-1.6
									c-4.6-0.8-6.9-1-9.1-0.4c0,0-3.4,0.9-7.5,4.8C247.6,522.4,246.9,523.1,246.3,524.2z"/>
							</g>
							<g>
								<path class="st25" d="M255.1,511.6c-2.5,1.9-5.5,4-6.4,5.1c-1,1.1-1.2,1.7-1.3,2.3c-0.2,0.9-0.1,1.9,0.6,2.5
									c0.8,0.9,2.2,1,3.3,0.6c1.1-0.4,4.3-2.9,5.3-3.6c1.2-0.8,2.4-1.6,3.6-2.3c-0.1,0.8-0.1,1.7,0.5,2.3c0.4,0.5,1.2,0.7,1.9,0.8
									c1.7,0.3,3.6-0.1,5.2-0.8c0.1-0.1,0.3-0.1,0.3-0.2c0.1-0.2,0.1-0.3,0-0.5c-0.6-2.2-1.3-4.4-2.6-6.4
									c-0.5-0.7-1.1-1.4-1.9-1.7c-0.2-0.1-0.6-0.3-2.2-0.4c-1.5-0.1-2.2-0.2-3,0C257.7,509.6,257.4,509.9,255.1,511.6z"/>
								<g>
									<path class="st25" d="M254.5,510.5c-1.9,1.4-3.9,2.8-5.7,4.4c-1.4,1.2-2.6,2.8-2.8,4.7c-0.2,2.6,2.1,4.4,4.6,4.1
										c1.7-0.2,3.2-1.4,4.6-2.4c1.9-1.4,3.7-2.7,5.7-3.9c-0.7-0.4-1.3-0.7-2-1.2c-0.1,1.4,0.2,2.9,1.4,3.8c1,0.7,2.4,0.9,3.7,0.8
										c1.5,0,2.9-0.4,4.2-1c0.6-0.3,1.2-0.8,1.2-1.6c0-0.7-0.3-1.4-0.5-2c-0.8-2.5-1.8-5.5-4-7.1c-0.6-0.5-1.4-0.7-2.2-0.8
										c-1.2-0.2-2.4-0.3-3.5-0.3C257.3,508.1,256,509.3,254.5,510.5c-0.6,0.4-0.8,1.2-0.5,1.8c0.3,0.6,1.2,0.9,1.8,0.5
										c0.6-0.5,1.3-1,1.9-1.4c0.2-0.1,0.4-0.3,0.5-0.4c0.1-0.1,0.2-0.1,0.2-0.1c-0.1,0.1-0.3,0.1-0.1,0.1
										c0.2-0.1,0.3-0.1,0.5-0.1c-0.2,0.1,0.2,0,0.3,0c0.2,0,0.4,0,0.5,0c0.8,0,1.6,0.1,2.4,0.2c0.3,0.1,0.5,0.1,0.7,0.2
										c0.1,0,0.2,0.1,0.2,0.1c-0.1,0.1-0.4-0.3,0,0c0.7,0.5,1.3,1.2,1.7,1.9c0.5,0.8,0.8,1.7,1.2,2.6c0.2,0.4,0.3,0.9,0.4,1.3
										c0.1,0.2,0.2,0.4,0.2,0.7c0.1,0.2,0.1,0.3,0.1,0.4c0.1,0.3,0.1,0.3,0.1,0c0.1-0.2,0.2-0.4,0.3-0.6
										c-0.2,0.2-0.6,0.3-0.8,0.3c-0.4,0.1-0.7,0.2-1.1,0.3c-0.7,0.2-1.4,0.2-2.1,0.1c-0.4-0.1-1.1-0.1-1.4-0.4
										c-0.3-0.4-0.2-1.1-0.2-1.5c0.1-1-1.2-1.6-2-1.2c-1.6,1-3.1,2-4.6,3c-1.2,0.8-2.3,1.7-3.6,2.5c-0.1,0.1-0.3,0.1-0.4,0.2
										c-0.3,0.2,0.1,0-0.1,0.1c-0.4,0.1-0.7,0.2-1.2,0.2c-0.6-0.1-1.1-0.4-1.2-1.1c-0.1-0.3,0-0.6,0.1-1c0-0.1,0.1-0.3,0.1-0.2
										c0.1-0.2,0.2-0.4,0.3-0.5c0.4-0.6,0.9-1.1,1.4-1.6c1.6-1.5,3.5-2.8,5.2-4.1c0.6-0.4,0.8-1.2,0.5-1.8
										C256,510.4,255.1,510,254.5,510.5z"/>
								</g>
							</g>
							<g>
								<path class="st19" d="M255.1,510.9c-2.5,1.9-5.5,4-6.4,5.1c-1,1.1-1.2,1.7-1.3,2.3c-0.2,0.9-0.1,1.9,0.6,2.5
									c0.8,0.9,2.2,1,3.3,0.6c1.1-0.4,4.3-2.9,5.3-3.6c1.2-0.8,2.4-1.6,3.6-2.3c-0.1,0.8-0.1,1.7,0.5,2.3c0.4,0.5,1.2,0.7,1.9,0.8
									c1.7,0.3,3.6-0.1,5.2-0.8c0.1-0.1,0.3-0.1,0.3-0.2c0.1-0.2,0.1-0.3,0-0.5c-0.6-2.2-1.3-4.4-2.6-6.4
									c-0.5-0.7-1.1-1.4-1.9-1.7c-0.2-0.1-0.6-0.3-2.2-0.4c-1.5-0.1-2.2-0.2-3,0C257.7,509,257.4,509.2,255.1,510.9z"/>
								<g>
									<path class="st19" d="M254.5,509.8c-1.9,1.4-3.9,2.8-5.7,4.4c-1.4,1.2-2.6,2.8-2.8,4.7c-0.2,2.6,2.1,4.4,4.6,4.1
										c1.7-0.2,3.2-1.4,4.6-2.4c1.9-1.4,3.7-2.7,5.7-3.9c-0.7-0.4-1.3-0.7-2-1.2c-0.1,1.4,0.2,2.9,1.4,3.8c1,0.7,2.4,0.9,3.7,0.8
										c1.5,0,2.9-0.4,4.2-1c0.6-0.3,1.2-0.8,1.2-1.6c0-0.7-0.3-1.4-0.5-2c-0.8-2.5-1.8-5.5-4-7.1c-0.6-0.5-1.4-0.7-2.2-0.8
										c-1.2-0.2-2.4-0.3-3.5-0.3C257.3,507.5,256,508.6,254.5,509.8c-0.6,0.4-0.8,1.2-0.5,1.8c0.3,0.6,1.2,0.9,1.8,0.5
										c0.6-0.5,1.3-1,1.9-1.4c0.2-0.1,0.4-0.3,0.5-0.4c0.1-0.1,0.2-0.1,0.2-0.1c-0.1,0.1-0.3,0.1-0.1,0.1
										c0.2-0.1,0.3-0.1,0.5-0.1c-0.2,0.1,0.2,0,0.3,0c0.2,0,0.4,0,0.5,0c0.8,0,1.6,0.1,2.4,0.2c0.3,0.1,0.5,0.1,0.7,0.2
										c0.1,0,0.2,0.1,0.2,0.1c-0.1,0.1-0.4-0.3,0,0c0.7,0.5,1.3,1.2,1.7,1.9c0.5,0.8,0.8,1.7,1.2,2.6c0.2,0.4,0.3,0.9,0.4,1.3
										c0.1,0.2,0.2,0.4,0.2,0.7c0.1,0.2,0.1,0.3,0.1,0.4c0.1,0.3,0.1,0.3,0.1,0c0.1-0.2,0.2-0.4,0.3-0.6
										c-0.2,0.2-0.6,0.3-0.8,0.3c-0.4,0.1-0.7,0.2-1.1,0.3c-0.7,0.2-1.4,0.2-2.1,0.1c-0.4-0.1-1.1-0.1-1.4-0.4
										c-0.3-0.4-0.2-1.1-0.2-1.5c0.1-1-1.2-1.6-2-1.2c-1.6,1-3.1,2-4.6,3c-1.2,0.8-2.3,1.7-3.6,2.5c-0.1,0.1-0.3,0.1-0.4,0.2
										c-0.3,0.2,0.1,0-0.1,0.1c-0.4,0.1-0.7,0.2-1.2,0.2c-0.6-0.1-1.1-0.4-1.2-1.1c-0.1-0.3,0-0.6,0.1-1c0-0.1,0.1-0.3,0.1-0.2
										c0.1-0.2,0.2-0.4,0.3-0.5c0.4-0.6,0.9-1.1,1.4-1.6c1.6-1.5,3.5-2.8,5.2-4.1c0.6-0.4,0.8-1.2,0.5-1.8
										C256,509.7,255.1,509.4,254.5,509.8z"/>
								</g>
							</g>
						</g>
						<path class="st13" d="M260.2,504.8l-3,1.5c0,0-2.4,1.1-1.4,2.8l6.5,11.1c0,0,1.6,1.8,3.9,0.5l6.6-0.7l-9.9-16.8L260.2,504.8z"
							/>
						<path class="st6" d="M357.9,506.4c-1.7,2.4,0.3,4,0.3,4l5.3,10.4c2.9,6.2,8.9,1.4,8.9,1.4c15.4-7.8,27.7-18,27.7-18
							c3.7-7-0.9-16.9-0.9-16.9l-5.5-20.2l-6.6-19.1l-6-14.4c-4.3-5.1-10.4-8.2-10.4-8.2c-5.9-2.9-8.9-2.3-8.9-2.3l-4.5,20.3
							c-1.8,4.8-13.9,30.7-13.9,30.7l-22.6-52.4l-10.9,4.9c-6,0.9-8.1,10.3-8.1,10.3l-5.9,15c-2.8,8-7.5,28.1-7.5,28.1
							c-2.2,10.9-8.5,14.7-8.5,14.7l-18.6,9.3c-5.8,1.1-2,7.6-2,7.6l3.3,6.9c2.2,5.5,7.4,2.5,7.4,2.5l21.2-9.3
							c7.4-2.9,9.4-9.5,9.4-9.5c1.6-3.1,3-13.2,3-13.2l0.7,18.2l36.6-0.2l0,0"/>
						<path class="st11" d="M398.8,486.6l-5.5-20.2l-6.6-19.1l-6-14.4c-4.3-5.1-10.4-8.2-10.4-8.2c-5.9-2.9-8.9-2.3-8.9-2.3
							l-4.5,20.3c-1.8,4.8-13.9,30.7-13.9,30.7l-22.6-52.4l-10.9,4.9c-6,0.9-8.1,10.3-8.1,10.3l-5.9,15c-2.8,8-7.5,28.1-7.5,28.1
							c-2.2,10.9-8.5,14.7-8.5,14.7l-18.6,9.3c-5.8,1.1-2,7.6-2,7.6l3.3,6.9c2.2,5.5,7.4,2.5,7.4,2.5l21.2-9.3
							c7.4-2.9,9.4-9.5,9.4-9.5c1.6-3.1,3-13.2,3-13.2l0.7,18.2l36.6-0.2l0,0h1.5v-0.1l15.4-0.5c-1.7,2.4,0.3,4,0.3,4l5.3,10.4
							c2.9,6.2,8.9,1.4,8.9,1.4c15.4-7.8,27.7-18,27.7-18C403.3,496.4,398.8,486.6,398.8,486.6z"/>
						<path class="st12" d="M370.4,423l-2.7,16.3c0,0-0.1,5.9-6,4.2c-5.1-1.5-2.3,1.4-2.3,1.4l2.7,5c0,0,0.8,1.5-1.3,4.3l-15.4,24.1
							l-2.5-4l18.4-51.8l9.1-1.9V423z"/>
						<path class="st12" d="M317.3,423.4l0.8,14.3c0,0-0.5,5.1,4.8,4.2c4.6-0.8,1.9,1.4,1.9,1.4l-2.8,4c0,0-1.5,1.4,0.7,3.9
							l22.1,27.1l-19.7-54.5l-7.7-2.4L317.3,423.4z"/>
						<path class="st6" d="M317.3,421.5l0.8,14.9c0,0-0.5,5.3,4.9,4.3c4.7-0.8,2,1.5,2,1.5l-2.9,4.2c0,0-1.5,1.5,0.7,4l22.7,28.3
							l-20.1-56.8l-8-2.5L317.3,421.5z"/>
						<g>
							<polygon class="st13" points="323.9,422.4 343.4,472.9 360.4,425.6 							"/>
							<g>
								<g>
									<g>
										<polygon class="st14" points="336.6,455.6 339.6,449.4 345.2,449.4 349.7,455.5 343.4,472.9 										"/>
										<path class="st14" d="M333.6,438.2l7,12.8c0,0,1.2,1.6,3.8,0l9.2-12.8l-10.9-4.9L333.6,438.2z"/>
										<path class="st7" d="M333.6,435.2l7,12.8c0,0,1.2,1.6,3.8,0l9.2-12.8l-10.9-4.9L333.6,435.2z"/>
									</g>
									<g>
										<path class="st15" d="M321.8,421.8l9.8,26.4c0,0,1.6,2.6,3.3,0l12.2-17.3L321.8,421.8z"/>
										<g>
											<path class="st15" d="M363.7,421.8l-9.8,26.4c0,0-1.6,2.6-3.3,0l-12.2-17.3L363.7,421.8z"/>
										</g>
									</g>
									<g>
										<path class="st16" d="M323.7,419.7l9.2,24.7c0,0,1.5,2.5,3.1,0l11.4-16.2L323.7,419.7z"/>
										<g>
											<path class="st16" d="M362,419.4l-9.2,24.7c0,0-1.5,2.5-3.1,0l-11.4-16.2L362,419.4z"/>
										</g>
									</g>
								</g>
							</g>
						</g>
						<path class="st6" d="M369.7,423l-2.6,16.3c0,0-0.1,5.9-5.9,4.2c-5.1-1.5-2.3,1.4-2.3,1.4l2.6,5c0,0,0.8,1.5-1.3,4.3
							l-15.2,24.1l-2.5-4l18.2-51.7l9.1-1.9V423z"/>
						<path class="st17" d="M334.5,423.3l0.4,4.7l6.6,5.5c0,0,1.4,0.9,3.3,0l4.8-5.9l-0.5-4.7L334.5,423.3z"/>
						<g>
							<g>
								<path class="st19" d="M412,371.8c0-5.8-4.7-10.5-10.5-10.5c-0.8,0-1.6,0.1-2.3,0.3c-4-16-11.5-31.4-11.5-31.4l-44.1-1.4
									v-0.3l-3.8,0.1l-3.8-0.1v0.3l-44.1,1.4c0,0-7.4,15.3-11.5,31.3c-4.9,0.9-8.6,5.2-8.6,10.3c0,4.3,2.5,7.9,6.2,9.6
									c0.9,14,8.8,45.7,61.7,45.6c54.7,0.1,61.8-30.3,62.2-44.7C407.6,382,412,377.4,412,371.8z"/>
								<g>
									<g>
										<defs>
											<path id="SVGID_00000065771786088292056610000014986596682342289541_" d="M412,371.8c0-5.8-4.7-10.5-10.5-10.5
												c-0.8,0-1.6,0.1-2.3,0.3c-4-16-11.5-31.4-11.5-31.4l-44.1-1.4v-0.3l-3.8,0.1l-3.8-0.1v0.3l-44.1,1.4
												c0,0-7.4,15.3-11.5,31.3c-4.9,0.9-8.6,5.2-8.6,10.3c0,4.3,2.5,7.9,6.2,9.6c0.9,14,8.8,45.7,61.7,45.6
												c54.7,0.1,61.8-30.3,62.2-44.7C407.6,382,412,377.4,412,371.8z"/>
										</defs>
										<clipPath id="SVGID_00000114075905025456724400000011532073803349370299_">
											<use xlink:href="#SVGID_00000065771786088292056610000014986596682342289541_"  style="overflow:visible;"/>
										</clipPath>
										<path style="clip-path:url(#SVGID_00000114075905025456724400000011532073803349370299_);fill:#DDBDA6;" d="M287.5,350.7
											c-1.3,3.4-1.8,11.5-4.7,13.7c-1,0.7-3.5,1.9-4.4,2.6c-2.5,2.3-2.8,6.7-0.6,9.3c0.7,0.9,1.7,1.5,2.4,2.5
											c1.4,1.9,0.6,4.1,0.8,6.4c0.8,10.2,5,18.4,15.8,32.1c-1.2-0.3-8.2-4.1-8.8-5.1c-6.8-10.1-8.9-22.8-15.5-33
											c-1.6-2.5-3.5-4.9-4.5-7.8c-1-2.9-0.8-6.4,1.4-8.4c1.5-1.5,3.9-2,5.3-3.6c2.8-2.9,1.4-7.7,2.7-11.5c0.6-1.6,1.6-3,2.6-4.4
											c1.6-2.1,3.2-4.2,4.8-6.4c0.6-0.8,1.3-1.6,2.2-2.1c1.9-1,2-2,3.5-0.8c1.1,0.8,2,0.6,1,3
											C289.8,341.9,289.4,345.9,287.5,350.7z"/>
									</g>
								</g>
								<g>
									<path class="st14" d="M280,341.9c-0.4,0.8-0.8,1.7-1.1,2.6c-0.3,1-0.5,2.1-0.5,3.2c0.1,1,0.1,2.2,0.5,3.2
										c0.5,1.3,1.9,1.9,3.2,2c1,0.1,1.9-0.1,2.8-0.3c1-0.2,2-0.4,2.7-1c1-0.7,1.4-1.9,1.5-3c0.3-1.4,0.7-2.8,1.2-4.1
										c1.1-2.8,2.4-5.3,3.3-8.2c0.3-1,0.6-2.1,0.7-3.1c0.1-0.4,0.1-0.8-0.1-1.2c-0.2-0.5-0.7-0.8-1.2-1c-1.9-0.6-4.3,0-6.2,0.4
										c-0.5,0.1-1.1,0.3-1.5,0.6c-0.6,0.5-0.8,1.2-1.2,1.9c-0.3,0.7-0.7,1.4-1.1,2.2c-0.8,1.5-1.6,3.1-2.3,4.6
										C280.5,340.9,280.3,341.4,280,341.9z"/>
									<path class="st14" d="M283.5,354c0.6-0.1,1.2-0.1,1.7-0.1c0.9-0.1,1.7-0.1,2.6-0.1c0.1,0,0.1,0,0.1,0
										c0.1,0,0.1,0.1,0.1,0.1c0.1,0.4-0.2,0.7-0.5,0.8c-0.2,0.1-0.5,0.1-0.7,0.2c-1.2,0.2-2.3,0.4-3.5,0.4
										c-1.2,0-2.3-0.3-3.5-0.6c-0.2-0.1-0.4-0.1-0.6-0.2s-0.4-0.3-0.5-0.5c-0.1-0.2-0.1-0.4,0.1-0.5c0.1-0.1,0.2-0.1,0.2-0.1
										c0.7,0.1,1.3,0.4,2,0.5c0.5,0.1,1,0.2,1.5,0.2C282.8,354.1,283.2,354,283.5,354z"/>
									<path class="st14" d="M283,357.4c0.1,0,0.2,0,0.3,0c1.3-0.1,2.6-0.2,3.9-0.3c0.1,0,0.2,0,0.3,0.1c0.3,0.2,0,0.7-0.2,0.8
										c-0.3,0.2-0.6,0.2-0.9,0.3c-1.3,0.2-2.6,0.3-3.9,0.3c-0.6,0-1.2-0.1-1.8-0.2c-0.6-0.2-1.2-0.4-1.7-0.6
										c-0.3-0.1-0.5-0.3-0.7-0.5c-0.1-0.1-0.1-0.3-0.1-0.4c0.1-0.1,0.2-0.1,0.3-0.1c0.3,0,0.6,0.1,1,0.2
										C280.6,357.4,281.8,357.5,283,357.4z"/>
									<path class="st14" d="M283,355.8c-1.3,0.1-2.5,0-3.8-0.5c-0.2-0.1-0.3-0.1-0.4-0.2c-0.1,0-0.1-0.1-0.2-0.1
										c-0.2,0.1,0,0.4,0.1,0.5c0.2,0.2,0.4,0.3,0.6,0.4c2.1,1,4.6,0.7,6.8,0.5c0.3-0.1,0.6-0.1,0.8-0.1c0.2,0,0.8-0.1,0.7-0.4
										c0-0.5-1-0.6-1.3-0.6c-0.4,0-0.9,0.1-1.3,0.1C284.4,355.7,283.7,355.8,283,355.8z"/>
								</g>
								<g>
									<path class="st14" d="M396.7,341.2c0.5,0.8,0.9,1.7,1.2,2.6c0.4,1,0.6,2.1,0.6,3.2c0,1,0,2.2-0.3,3.2
										c-0.5,1.3-1.7,2-3.1,2.1c-0.9,0.1-1.9,0-2.8-0.2c-1-0.2-2-0.3-2.8-0.9c-1.1-0.7-1.4-1.7-1.7-2.9c-0.3-1.4-0.8-2.7-1.4-4
										c-1.2-2.7-2.7-5.2-3.8-8c-0.4-1-0.7-2.1-0.8-3.1c-0.1-0.4-0.1-0.8,0-1.2c0.2-0.5,0.6-0.9,1.2-1.1c1.9-0.7,4.3-0.3,6.2,0.1
										c0.5,0.1,1.1,0.2,1.5,0.5c0.6,0.4,0.9,1.2,1.3,1.8c0.4,0.7,0.8,1.4,1.3,2.1c0.8,1.5,1.7,3,2.6,4.4
										C396.2,340.3,396.5,340.8,396.7,341.2z"/>
									<path class="st14" d="M393.9,353.5c-0.6,0-1.2-0.1-1.7-0.1c-0.9,0-1.7,0-2.6,0c-0.1,0-0.1,0-0.1,0.1
										c-0.1,0-0.1,0.1-0.1,0.1c-0.1,0.4,0.2,0.6,0.6,0.8c0.2,0.1,0.5,0.1,0.7,0.1c1.2,0.1,2.4,0.3,3.5,0.2
										c1.2-0.1,2.3-0.4,3.4-0.8c0.2-0.1,0.4-0.2,0.6-0.3c0.2-0.1,0.4-0.3,0.4-0.5c0.1-0.2,0.1-0.4-0.1-0.5
										c-0.1-0.1-0.2-0.1-0.2,0c-0.7,0.1-1.3,0.4-2,0.6c-0.5,0.1-1,0.2-1.5,0.2C394.6,353.5,394.3,353.6,393.9,353.5z"/>
									<path class="st14" d="M394.7,357c-0.1,0-0.2,0-0.3,0c-1.3,0-2.6-0.1-3.9-0.1c-0.1,0-0.2,0-0.3,0.1
										c-0.3,0.2,0.1,0.7,0.3,0.8c0.3,0.2,0.6,0.2,0.9,0.2c1.3,0.1,2.6,0.2,4,0.1c0.6-0.1,1.2-0.1,1.7-0.3
										c0.6-0.2,1.1-0.5,1.7-0.6c0.3-0.1,0.5-0.3,0.7-0.6c0.1-0.1,0.1-0.3,0-0.4c-0.1-0.1-0.2-0.1-0.3-0.1c-0.3,0-0.6,0.2-0.9,0.3
										C397.1,356.8,395.9,356.9,394.7,357z"/>
									<path class="st14" d="M394.6,355.3c1.3,0,2.5-0.2,3.8-0.7c0.2-0.1,0.3-0.1,0.4-0.2c0.1,0,0.1-0.1,0.2-0.1
										c0.2,0,0.1,0.4-0.1,0.5c-0.2,0.2-0.4,0.3-0.6,0.5c-2.1,1.1-4.5,1-6.8,0.8c-0.3,0-0.6,0-0.8,0c-0.2,0-0.8,0-0.8-0.4
										c0-0.5,0.9-0.6,1.3-0.7c0.4-0.1,0.9,0,1.3,0.1C393.1,355.3,393.9,355.3,394.6,355.3z"/>
								</g>
							</g>
							<g>
								<path d="M338,308.6c-30.9,0-53.1,0.4-53.1,12v12.3c0,7,10.5,12,53.1,12s53.1-4.9,53.1-12v-12.3
									C391.1,309,368.9,308.6,338,308.6z"/>
								<path class="st39" d="M406.2,295.8c-3.9-6.4-10-11-16-15c-0.6-0.4-1.2-0.8-1.7-1.2c-14.6-9.6-30.9-17.4-48.6-18.3
									c-11.5-0.6-22.8,2.9-33.3,7.5c-1.5,0.6-2.9,1.3-4.3,2c-7.1,3.4-14,7.4-20.3,12.2c-3.1,2.4-6.1,5-8.9,7.8
									c-2.7,2.7-5.3,5.8-6.1,9.6c-0.7,3.5,0.9,7.1,3.3,9.8c3.8,4.1,9.6,7.2,14.9,8.9c0.7-1.9,2.4-2.6,4.1-3.2
									c5-1.7,10.2-2.5,15.5-3.2c6.6-0.9,13.2-1.2,19.9-1.5c6.1-0.3,12.2-0.4,18.3-0.3c4.7,0.2,9.5,0.3,14.2,0.5
									c7.9,0.4,15.8,1.2,23.6,2.8c2.5,0.5,5.1,1.2,7.5,2.2c1.2,0.5,2.1,1.2,2.8,2.3c0.5,0.8,9.5-4.7,10.3-5.2
									C407.4,309.3,410.4,302.6,406.2,295.8z"/>
								<path class="st39" d="M340.8,353.3c-0.6,0-1.3,0-2,0c-10.3,0-20.9-0.1-30.7-2c-6.2-1.2-12.1-3.3-16.4-6.2
									c-2.3-1.6-4-3.5-5-5.6c-0.6-1.2-1.2-2.5-1.5-3.8c-0.2-0.6-0.3-1.3-0.3-2c0-0.2-0.2-0.7,0-1s0.1-0.1,0.4-0.1
									c1,0,2.1,0.3,3,0.4c1.2,0.2,2.5,0.3,3.7,0.4c0.5,0.1,1,0.1,1.5,0.2c3.4,0.3,6.9,0.6,10.4,0.8c6.9,0.5,14,0.8,21,1
									c14,0.4,28.1,0.2,42-0.6c4.7-0.3,9.3-0.6,13.9-1c2.2-0.2,4.4-0.5,6.6-0.8c0.5-0.1,2.8-0.5,3.2-0.4c0.4,0.2,0.2,1.4,0.2,1.7
									c0,2.3-0.8,4.6-2.3,6.7c-1.2,1.6-2.8,3.1-4.8,4.4c-3.7,2.4-8.8,4.1-14.1,5.2C360.6,352.7,350.6,353.2,340.8,353.3z"/>
								<path class="st24" d="M390.9,324.9c-3.7,1-7.3,1.8-11.1,2.4c-0.6,0.1-0.9,0.3-1.2,0.8c-0.8,1.7-3.1,2.1-4.6,0.8
									c-0.6-0.6-1.3-0.5-2-0.4c-11.7,1.6-23.5,2.4-35.3,2.3c-11.1-0.1-22.1-0.7-33.1-2.3c-0.8-0.1-1.3,0-2,0.5
									c-1.4,1.2-3.7,0.7-4.4-0.8c-0.3-0.6-0.6-0.8-1.4-0.9c-3.7-0.7-7.4-1.4-11-2.4c0-1.2,0-2.3,0-3.4c3.4,0.5,7.1,1.1,10.5,1.6
									c0.9,0.1,1.5,0.2,2-0.7c0.4-0.9,1.4-1.3,2.6-1.2c1.3,0.1,2.3,0.7,2.4,1.7c0.1,0.8,0.5,0.9,1.4,1c6.5,0.5,13,0.8,19.4,1.1
									c7.3,0.2,14.5,0.3,21.8,0.2c9-0.2,18.1-0.5,27.1-1.2c0.9-0.1,1.2-0.3,1.3-1c0.2-1,1.1-1.6,2.3-1.7c1.3-0.2,2.3,0.3,2.8,1.2
									c0.4,0.9,1,0.9,1.9,0.7c3.4-0.5,7.3-1.2,10.7-1.7c0.1,0,0,3.4,0,3.4C391,324.8,391,324.8,390.9,324.9z M339.1,328.9
									c4.1,0.1,9.3-0.2,14.6-0.5c6.2-0.4,12.4-1,18.6-1.9c0.4-0.1,1-0.1,1-0.6c-0.1-0.6-0.6-0.3-1-0.3c-3.5,0.2-7.1,0.5-10.6,0.7
									c-7.7,0.4-15.4,0.6-23,0.5c-8.7,0-17.5-0.1-26.2-0.7c-3-0.2-6-0.4-8.9-0.5c-0.3,0-0.8-0.3-0.8,0.3c-0.1,0.4,0.3,0.5,0.6,0.6
									c0.2,0.1,0.4,0.1,0.5,0.1C315.1,328.2,326.4,328.9,339.1,328.9z M381.8,325c-1-0.2-2-0.2-2.8,0.5
									C379.9,325.4,380.9,325.1,381.8,325z M296.8,325.5c0.1-0.1,0.1-0.2,0.2-0.3c-1-0.4-2-0.4-3.4-0.3
									C294.8,325.1,295.8,325.3,296.8,325.5z"/>
								<ellipse class="st40" cx="338.6" cy="290" rx="18" ry="18.7"/>
								<ellipse class="st22" cx="337.6" cy="289.6" rx="18" ry="18.7"/>
								<path d="M334.8,295.8c1,0.7,2,0.1,3.1,0.5c-0.2,0.3-0.4,0.6-0.6,0.8c-1,0.9-2.2,1.2-3.5,1.2c-0.2,0-0.4-0.2-0.4-0.4
									c0-0.4-0.3-0.4-0.6-0.5c-0.6-0.1-1.3-0.2-1.8-0.5c-0.7-0.4-1.5-0.5-2.3-0.5c-0.3,0-0.7,0-1.1,0c0.1-0.5,0.1-1,0.2-1.4
									c0.1-0.5,0-1-0.2-1.4c-0.2-0.6-0.4-1.3-0.4-2c-0.1-0.5-0.1-0.8-0.8-0.7c0.1-0.5,0.2-0.8,0.3-1.2c0.3-1.1,1.1-1.8,2-2.4
									c0.2-0.1,0.4-0.1,0.6-0.1c0,0.2,0,0.4,0,0.5c-0.1,0.5-0.1,1-0.2,1.5c-0.1,0.3-0.1,0.7-0.3,1c-0.5,0.7,0.2,2.6,1.1,2.9
									c0.1,0,0.3-0.1,0.4-0.1c2.2-1.6,4.4-3.3,6.7-5c-0.3-0.3-0.5-0.5-0.8-0.7c-0.4,0.3-0.8,0.8-1.4,0.3c-0.4-0.4,0-0.8,0.4-1.2
									c-0.3-0.3-0.6-0.6-1.2-0.5c-1,0.2-1.9-0.5-2-1.5c-0.2-0.7,0.4-1.5,1.2-1.7c1.1-0.3,2.3,0.5,2.3,1.6
									c-0.1,0.6,0.4,0.8,0.7,1.1c0.4-0.3,0.7-0.7,1.2-0.3c0.4,0.3,0.2,0.7-0.2,1.1c1.1,1,0.8,1,2.1-0.1c-0.3-0.3-0.6-0.7-0.2-1.1
									c0.5-0.4,0.8,0.1,1.2,0.3c0.4-0.3,0.8-0.4,0.7-1.1c-0.1-0.8,0.7-1.6,1.7-1.7c0.8-0.1,1.6,0.5,1.7,1.3c0.2,1.1-0.8,2.1-2,1.9
									c-0.6-0.1-0.8,0.1-1.2,0.5c0.3,0.4,0.8,0.7,0.3,1.2c-0.5,0.5-0.9-0.1-1.3-0.4c-0.3,0.3-0.6,0.5-1,0.8
									c1.1,0.8,2.2,1.6,3.3,2.5c1.1,0.8,2.2,1.6,3.3,2.5c0.4,0.3,0.7,0.3,1.1-0.1c0.6-0.6,0.8-1.3,0.8-2.1c0-0.1,0-0.2-0.1-0.2
									c-0.6-0.5-0.5-1.1-0.5-1.7c0-0.3-0.1-0.6-0.1-0.9c0-0.2,0-0.4,0.1-0.5c0.2,0.1,0.4,0.1,0.6,0.1c0.9,0.6,1.6,1.3,1.9,2.3
									c0.2,0.4,0.2,0.8,0.3,1.2c-0.8,0.2-0.7,0.2-0.8,1c-0.1,0.7-0.4,1.5-0.5,2.2c-0.1,0.5,0,1.1,0.1,1.7c0,0.2,0.1,0.5,0.1,0.8
									c-0.7,0-1.3-0.1-2,0c-0.3,0-0.7,0.1-1,0.3c-0.7,0.4-1.5,0.7-2.3,0.7c-0.3,0-0.4,0.1-0.5,0.4c0,0.2-0.3,0.4-0.4,0.4
									c-1.4,0-2.6-0.3-3.6-1.3c-0.2-0.2-0.3-0.4-0.5-0.6c1-0.4,2.1,0.3,3-0.4c0.5,0.7,1.1,0.4,1.7,0.2c0.4-0.2,0.8-0.5,1.2-0.7
									c0.5-0.4,0.5-0.6,0-1.1c-1.2-1-2.3-2-3.5-3c-1-0.8-1.9-1.6-2.9-2.4c-1.6,1.4-3.2,2.8-4.8,4.1c-0.5,0.4-1.1,0.9-1.5,1.4
									c-0.4,0.4-0.4,0.6,0.1,1c0.5,0.3,1,0.6,1.5,0.9C333.9,296.3,334.5,296.6,334.8,295.8z M343,284.6c-0.1,0.1-0.2,0.2-0.2,0.2
									c0.7-0.2,1-0.5,1-0.9c-0.1-0.4-0.3-0.6-0.7-0.6c-0.4-0.1-0.8,0.3-1,0.9c0.1-0.1,0.2-0.2,0.3-0.3
									C342.6,284.2,342.8,284.4,343,284.6z M333.8,285c0.3-0.3,0.5-0.5,0.8-0.7c-0.2-0.6-0.6-0.8-1-0.8c-0.4,0.1-0.6,0.3-0.6,0.6
									C332.8,284.5,333,284.7,333.8,285z"/>
								<path class="st24" d="M334.3,295.3c1,0.7,2,0.1,3.1,0.5c-0.2,0.3-0.4,0.6-0.6,0.8c-1,0.9-2.2,1.2-3.5,1.2
									c-0.2,0-0.4-0.2-0.4-0.4c0-0.4-0.3-0.4-0.6-0.5c-0.6-0.1-1.3-0.2-1.8-0.5c-0.7-0.4-1.5-0.5-2.3-0.5c-0.3,0-0.7,0-1.1,0
									c0.1-0.5,0.1-1,0.2-1.4c0.1-0.5,0-1-0.2-1.4c-0.2-0.6-0.4-1.3-0.4-2c-0.1-0.5-0.1-0.8-0.8-0.7c0.1-0.5,0.2-0.8,0.3-1.2
									c0.3-1.1,1.1-1.8,2-2.4c0.2-0.1,0.4-0.1,0.6-0.1c0,0.2,0,0.4,0,0.5c-0.1,0.5-0.1,1-0.2,1.5c-0.1,0.3-0.1,0.7-0.3,1
									c-0.5,0.7,0.2,2.6,1.1,2.9c0.1,0,0.3-0.1,0.4-0.1c2.2-1.6,4.4-3.3,6.7-5c-0.3-0.3-0.5-0.5-0.8-0.7c-0.4,0.3-0.8,0.8-1.4,0.3
									c-0.4-0.4,0-0.8,0.4-1.2c-0.3-0.3-0.6-0.6-1.2-0.5c-1,0.2-1.9-0.5-2-1.5c-0.2-0.7,0.4-1.5,1.2-1.7c1.1-0.3,2.3,0.5,2.3,1.6
									c-0.1,0.6,0.4,0.8,0.7,1.1c0.4-0.3,0.7-0.7,1.2-0.3c0.4,0.3,0.2,0.7-0.2,1.1c1.1,1,0.8,1,2.1-0.1c-0.3-0.3-0.6-0.7-0.2-1.1
									c0.5-0.4,0.8,0.1,1.2,0.3c0.4-0.3,0.8-0.4,0.7-1.1c-0.1-0.8,0.7-1.6,1.7-1.7c0.8-0.1,1.6,0.5,1.7,1.3c0.2,1.1-0.8,2.1-2,1.9
									c-0.6-0.1-0.8,0.1-1.2,0.5c0.3,0.4,0.8,0.7,0.3,1.2c-0.5,0.5-0.9-0.1-1.3-0.4c-0.3,0.3-0.6,0.5-1,0.8
									c1.1,0.8,2.2,1.6,3.3,2.5c1.1,0.8,2.2,1.6,3.3,2.5c0.4,0.3,0.7,0.3,1.1-0.1c0.6-0.6,0.8-1.3,0.8-2.1c0-0.1,0-0.2-0.1-0.2
									c-0.6-0.5-0.5-1.1-0.5-1.7c0-0.3-0.1-0.6-0.1-0.9c0-0.2,0-0.4,0.1-0.5c0.2,0.1,0.4,0.1,0.6,0.1c0.9,0.6,1.6,1.3,1.9,2.3
									c0.2,0.4,0.2,0.8,0.3,1.2c-0.8,0.2-0.7,0.2-0.8,1c-0.1,0.7-0.4,1.5-0.5,2.2c-0.1,0.5,0,1.1,0.1,1.7c0,0.2,0.1,0.5,0.1,0.8
									c-0.7,0-1.3-0.1-2,0c-0.3,0-0.7,0.1-1,0.3c-0.7,0.4-1.5,0.7-2.3,0.7c-0.3,0-0.4,0.1-0.5,0.4c0,0.2-0.3,0.4-0.4,0.4
									c-1.4,0-2.6-0.3-3.6-1.3c-0.2-0.2-0.3-0.4-0.5-0.6c1-0.4,2.1,0.3,3-0.4c0.5,0.7,1.1,0.4,1.7,0.2c0.4-0.2,0.8-0.5,1.2-0.7
									c0.5-0.4,0.5-0.6,0-1.1c-1.2-1-2.3-2-3.5-3c-1-0.8-1.9-1.6-2.9-2.4c-1.6,1.4-3.2,2.8-4.8,4.1c-0.5,0.4-1.1,0.9-1.5,1.4
									c-0.4,0.4-0.4,0.6,0.1,1c0.5,0.3,1,0.6,1.5,0.9C333.4,295.9,333.9,296.1,334.3,295.3z M342.5,284.2
									c-0.1,0.1-0.2,0.2-0.2,0.2c0.7-0.2,1-0.5,1-0.9c-0.1-0.4-0.3-0.6-0.7-0.6c-0.4-0.1-0.8,0.3-1,0.9c0.1-0.1,0.2-0.2,0.3-0.3
									C342.1,283.7,342.3,283.9,342.5,284.2z M333.2,284.5c0.3-0.3,0.5-0.5,0.8-0.7c-0.2-0.6-0.6-0.8-1-0.8
									c-0.4,0.1-0.6,0.3-0.6,0.6C332.3,284,332.5,284.3,333.2,284.5z"/>
								<g>
									<g>
										<defs>
											<path id="SVGID_00000128442775022332625800000012933350451224912798_" d="M306.6,268.8c10.5-4.6,21.7-8,33.3-7.5
												c17.7,0.9,34,8.7,48.6,18.3c0.6,0.4,1.2,0.7,1.7,1.2c6.1,4.1,12.2,8.7,16,15c4.2,6.8,1.2,13.4-5,17.8
												c-0.8,0.6-9.8,6-10.3,5.2c-0.7-1.1-1.6-1.8-2.8-2.3c-2.4-1.1-4.9-1.7-7.5-2.2c-7.8-1.6-15.7-2.3-23.6-2.8
												c-4.7-0.3-9.4-0.4-14.2-0.5c-6.1-0.2-12.2,0-18.3,0.3c-6.7,0.3-13.3,0.7-19.9,1.5c-5.2,0.7-10.5,1.5-15.5,3.2
												c-1.7,0.6-3.4,1.3-4.1,3.2c-5.2-1.7-11.1-4.8-14.9-8.9c-2.4-2.6-4-6.3-3.3-9.8c0.8-3.9,3.4-6.9,6.1-9.6
												c2.8-2.8,5.8-5.4,8.9-7.8c6.3-4.8,13.2-8.9,20.3-12.2C303.6,270.1,305.1,269.4,306.6,268.8z M318.9,289.6
												c0,10.3,8.4,18.8,18.7,18.7c10.3-0.1,18.7-8,18.7-18.7c0-11.2-9.1-18.8-18.8-18.7C327.3,270.9,318.9,279.2,318.9,289.6z"
												/>
										</defs>
										<clipPath id="SVGID_00000082351456219222035070000001552335326255837593_">
											<use xlink:href="#SVGID_00000128442775022332625800000012933350451224912798_"  style="overflow:visible;"/>
										</clipPath>
										<path style="clip-path:url(#SVGID_00000082351456219222035070000001552335326255837593_);fill:#915A3F;" d="M313.3,268.5
											c-8.2,3.1-15.5,8-22.7,13c-2.2,1.5-4.4,3-6.7,4.6c-2.3,1.5-4.6,3.1-6.5,5.1c-1.9,2-3.3,4.6-3.5,7.3
											c-0.3,3.7,1.7,7.3,4.2,10c2.5,2.8,5.7,4.9,8.3,7.5c0.8,0.8,1.6,2.1,1,3c-0.4,0.5-1.2,0.6-1.9,0.7
											c-4.8,0.2-9.6-1.3-13.4-4.2c-3.8-3-6.5-7.3-7.4-12c-0.3-1.6-0.4-3.2-0.2-4.8c0.3-1.8,1.1-3.5,2.1-5
											c3.2-5.1,8.3-8.7,13.3-12.1c5.1-3.4,10.4-6.7,15.8-9.8c3-1.7,5.9-3.3,9.1-4.8c2.9-1.3,5.9-2.4,8.9-3.4
											c4.4-1.6,8.9-3.1,13.4-4.7c1.1-0.4,6.3-2.1,5.8,0.6c-0.3,1.6-4.7,3.4-6,4C322.7,265.6,317.9,266.8,313.3,268.5z"/>
									</g>
								</g>
								<g>
									<g>
										<defs>
											<path id="SVGID_00000064355790816629089030000005149281245480397967_" d="M340.8,353.3c-0.6,0-1.3,0-2,0
												c-10.3,0-20.9-0.1-30.7-2c-6.2-1.2-12.1-3.3-16.4-6.2c-2.3-1.6-4-3.5-5-5.6c-0.6-1.2-1.2-2.5-1.5-3.8
												c-0.2-0.6-0.3-1.3-0.3-2c0-0.2-0.2-0.7,0-1s0.1-0.1,0.4-0.1c1,0,2.1,0.3,3,0.4c1.2,0.2,2.5,0.3,3.7,0.4
												c0.5,0.1,1,0.1,1.5,0.2c3.4,0.3,6.9,0.6,10.4,0.8c6.9,0.5,14,0.8,21,1c14,0.4,28.1,0.2,42-0.6c4.7-0.3,9.3-0.6,13.9-1
												c2.2-0.2,4.4-0.5,6.6-0.8c0.5-0.1,2.8-0.5,3.2-0.4c0.4,0.2,0.2,1.4,0.2,1.7c0,2.3-0.8,4.6-2.3,6.7
												c-1.2,1.6-2.8,3.1-4.8,4.4c-3.7,2.4-8.8,4.1-14.1,5.2C360.6,352.7,350.6,353.2,340.8,353.3z"/>
										</defs>
										<clipPath id="SVGID_00000008870124874867490820000001260519538293769880_">
											<use xlink:href="#SVGID_00000064355790816629089030000005149281245480397967_"  style="overflow:visible;"/>
										</clipPath>
										<path style="clip-path:url(#SVGID_00000008870124874867490820000001260519538293769880_);fill:#915A3F;" d="M285.8,342.5
											c2.4,2.8,5.4,4.9,8.4,7c1.4,1.1,2.9,2.1,4.6,2.8c3.1,1.2,6.6,0.7,10,1.2c1.4,0.2,2.7,0.5,4.1,0.7c6.4,1.3,13,1.3,19.4,0.2
											c1.4-0.3,2.8-0.1,4.1-0.2c0.3,0,1.7,0,1.9-0.4c0.2-0.5-1.3-0.7-1.6-0.8c-3.1-0.8-6.4-1.1-9.5-1.6
											c-5.5-0.8-11-2.1-16.3-3.8c-5.1-1.7-10.8-3.7-15.2-6.7c-1.4-0.9-2.6-2-3.6-3.3c-1.1-1.5-1.5-3.2-2.4-4.8
											c-0.4-0.7-0.9-1.5-1.6-1.9c-1-0.5-2.1-0.5-3.2-0.4c-1.2,0.1-3,0.4-3.4,1.7c-0.3,0.8,0.3,2.3,0.5,3.1
											C282.6,338.1,284,340.5,285.8,342.5z"/>
									</g>
								</g>
							</g>
						</g>
						<path class="st43" d="M323,480.3H218c-2.5,0-4.6-2.1-4.6-4.6l-12.9-66.4c0-2.5,2.1-4.6,4.6-4.6h104.2c2.5,0,4.6,2.1,4.6,4.6
							l13.7,66.4C327.6,478.3,325.5,480.3,323,480.3z"/>
						<g class="st44">
							<path class="st45" d="M303.4,421.5h-87.1c-1.2,0-2.1-1-2.1-2.1l0,0c0-1.2,1-2.1,2.1-2.1h87.1c1.2,0,2.1,1,2.1,2.1l0,0
								C305.5,420.5,304.5,421.5,303.4,421.5z"/>
							<path class="st45" d="M305.7,433h-87.1c-1.2,0-2.1-1-2.1-2.1l0,0c0-1.2,1-2.1,2.1-2.1h87.1c1.2,0,2.1,1,2.1,2.1l0,0
								C307.8,432.1,306.9,433,305.7,433z"/>
							<path class="st45" d="M308,444.8h-37.6c-1.2,0-2.1-1-2.1-2.1l0,0c0-1.2,1-2.1,2.1-2.1H308c1.2,0,2.1,1,2.1,2.1l0,0
								C310.1,443.8,309.1,444.8,308,444.8z"/>
							<path class="st45" d="M310.7,456.4H273c-1.2,0-2.1-1-2.1-2.1l0,0c0-1.2,1-2.1,2.1-2.1h37.6c1.2,0,2.1,1,2.1,2.1l0,0
								C312.8,455.5,311.8,456.4,310.7,456.4z"/>
							<path class="st45" d="M313,467.8h-37.6c-1.2,0-2.1-1-2.1-2.1l0,0c0-1.2,1-2.1,2.1-2.1H313c1.2,0,2.1,1,2.1,2.1l0,0
								C315.1,466.9,314.2,467.8,313,467.8z"/>
							<path class="st45" d="M259.4,467.8l-31.2,0.3c-2.5,0-4.6-1.5-4.6-3.4l-4.4-20.7c0-1.9,2.1-3.4,4.6-3.4h31.4
								c2.5,0,4.6,1.5,4.6,3.4l4.2,20.4C264,466.3,262,467.8,259.4,467.8z"/>
						</g>
						<ellipse class="st6" cx="339.8" cy="485.9" rx="3.2" ry="2.8"/>
						<ellipse class="st6" cx="340" cy="495.5" rx="3.2" ry="2.8"/>
						<polyline class="st6" points="345.6,478.6 345,505.3 344.2,476.5 						"/>
						<path class="st6" d="M392.9,487.6c0,0,2.2,8.7,0,12.4l-30.2,19.1l-5.1-9.5c0,0-2.8-2.5,0.6-4.7l12.4-8.3l4.7-3l-3.2-12.7"/>
						<path class="st11" d="M376.9,440.7c0,0,12.6,20.5,16.6,47.4c0,0,2.3,8.7,0,12.4l-30.6,19.3l-5.2-9.8c0,0-2.9-3.3,0.3-4.6
							l12.7-8.3l4.9-3l-4.7-18.6"/>
					</g>
					<g>
						<g>
							<path class="st23" d="M326,398.5c2.7,6.9,8.9,10,16.1,9.8c6.5-0.2,12.4-3.3,14.9-9.5c0.4-1-1.2-1.4-1.5-0.4
								c-2.2,5.5-7.7,8.2-13.3,8.4c-6.4,0.2-12.2-2.4-14.7-8.6C327.2,397.2,325.7,397.6,326,398.5L326,398.5z"/>
						</g>
					</g>
					<ellipse class="st46" cx="317.7" cy="373.8" rx="4.4" ry="6.9"/>
					<ellipse class="st46" cx="362.9" cy="373.8" rx="4.4" ry="6.9"/>
					<path class="st47" d="M362.9,366.9c-2.4,0-4.4,3.1-4.4,6.9h8.7C367.3,370,365.4,366.9,362.9,366.9z"/>
					<path class="st47" d="M317.7,366.9c-2.4,0-4.4,3.1-4.4,6.9h8.7C322.1,370,320.1,366.9,317.7,366.9z"/>
					<g>
						<g>
							<path class="st23" d="M313.3,358.6c2.1-2.5,5.1-2.9,7.7-1c0.8,0.6,1.6-0.7,0.8-1.4c-3.1-2.3-7.2-1.9-9.7,1.2
								C311.5,358.2,312.7,359.4,313.3,358.6L313.3,358.6z"/>
						</g>
					</g>
					<g>
						<g>
							<path class="st23" d="M366,357.4c-2.5-3.1-6.6-3.5-9.7-1.2c-0.8,0.6,0,2,0.8,1.4c2.6-2,5.7-1.6,7.7,1
								C365.5,359.4,366.6,358.2,366,357.4L366,357.4z"/>
						</g>
					</g>
				</g>
			</g>
		</g>
	</g>
</g>
</svg>
