<?xml version="1.0" encoding="utf-8"?>
<!-- Generator: Adobe Illustrator 27.5.0, SVG Export Plug-In . SVG Version: 6.00 Build 0)  -->
<svg version="1.1" id="Capa_1" xmlns="http://www.w3.org/2000/svg" xmlns:xlink="http://www.w3.org/1999/xlink" x="0px" y="0px"
	 viewBox="0 0 298.2 298.2" style="enable-background:new 0 0 298.2 298.2;" xml:space="preserve">
<style type="text/css">
	.st0{fill:#FCF2F2;stroke:#AA4543;stroke-width:2;stroke-miterlimit:10;}
	.st1{fill:#AA4543;}
</style>
<g>
	<path class="st0" d="M251.4,256H46.8C33.7,256,23,245.3,23,232.2V66c0-13.1,10.7-23.8,23.8-23.8h204.5c13.1,0,23.8,10.7,23.8,23.8
		v166.2C275.2,245.3,264.5,256,251.4,256z"/>
	<g>
		<path class="st1" d="M71,141.4V124h3.5v17.5H71z"/>
		<path class="st1" d="M77.8,141.4V124h5.3l3.2,11.9l3.1-11.9h5.3v17.5h-3.3v-13.8L88,141.4h-3.4l-3.5-13.8v13.8H77.8z"/>
		<path class="st1" d="M98.2,141.4V124h5.7c2.1,0,3.5,0.1,4.2,0.3c1,0.3,1.8,0.8,2.5,1.7s1,2,1,3.4c0,1.1-0.2,2-0.6,2.7
			s-0.9,1.3-1.5,1.7c-0.6,0.4-1.2,0.7-1.8,0.8c-0.8,0.2-2.1,0.2-3.7,0.2h-2.3v6.6H98.2z M101.7,126.9v5h1.9c1.4,0,2.3-0.1,2.8-0.3
			c0.5-0.2,0.8-0.5,1.1-0.9c0.3-0.4,0.4-0.8,0.4-1.4c0-0.6-0.2-1.2-0.6-1.6c-0.4-0.4-0.8-0.7-1.4-0.8c-0.4-0.1-1.3-0.1-2.5-0.1
			H101.7z"/>
		<path class="st1" d="M113.8,132.8c0-1.8,0.3-3.3,0.8-4.5c0.4-0.9,0.9-1.7,1.6-2.4c0.7-0.7,1.4-1.2,2.3-1.6
			c1.1-0.5,2.3-0.7,3.8-0.7c2.6,0,4.6,0.8,6.2,2.4c1.5,1.6,2.3,3.8,2.3,6.7c0,2.8-0.8,5-2.3,6.6c-1.5,1.6-3.6,2.4-6.2,2.4
			c-2.6,0-4.7-0.8-6.2-2.4S113.8,135.6,113.8,132.8z M117.4,132.7c0,2,0.5,3.5,1.4,4.5c0.9,1,2.1,1.5,3.5,1.5c1.4,0,2.6-0.5,3.5-1.5
			s1.4-2.5,1.4-4.6c0-2-0.4-3.5-1.3-4.5c-0.9-1-2-1.5-3.5-1.5c-1.5,0-2.6,0.5-3.5,1.5C117.9,129.2,117.4,130.7,117.4,132.7z"/>
		<path class="st1" d="M133.5,141.4V124h7.4c1.9,0,3.2,0.2,4.1,0.5c0.8,0.3,1.5,0.9,2,1.7c0.5,0.8,0.8,1.7,0.8,2.8
			c0,1.3-0.4,2.4-1.2,3.2c-0.8,0.9-1.9,1.4-3.5,1.6c0.8,0.4,1.4,0.9,1.9,1.5c0.5,0.5,1.2,1.5,2,2.8l2.1,3.4H145l-2.6-3.8
			c-0.9-1.4-1.5-2.2-1.9-2.6c-0.3-0.4-0.7-0.6-1.1-0.7s-1-0.2-1.8-0.2H137v7.3H133.5z M137,131.4h2.6c1.7,0,2.7-0.1,3.2-0.2
			c0.4-0.1,0.8-0.4,1-0.7s0.4-0.8,0.4-1.3c0-0.6-0.2-1.1-0.5-1.4c-0.3-0.4-0.8-0.6-1.3-0.7c-0.3,0-1.1-0.1-2.6-0.1H137V131.4z"/>
		<path class="st1" d="M155,141.4v-14.5h-5.2v-3h13.9v3h-5.2v14.5H155z"/>
		<path class="st1" d="M180,141.4h-3.8l-1.5-4h-7l-1.4,4h-3.7l6.8-17.5h3.7L180,141.4z M173.5,134.5l-2.4-6.5l-2.4,6.5H173.5z"/>
		<path class="st1" d="M181.9,141.4V124h3.4l7.2,11.7V124h3.3v17.5h-3.5l-7-11.4v11.4H181.9z"/>
		<path class="st1" d="M203.4,141.4v-14.5h-5.2v-3h13.9v3h-5.2v14.5H203.4z"/>
		<path class="st1" d="M214.4,141.4V124h13v3h-9.4v3.9h8.8v2.9h-8.8v4.8h9.8v2.9H214.4z"/>
	</g>
	<g>
		<path class="st1" d="M59.8,156.4h1v7.2h3.5v0.9h-4.5V156.4z"/>
		<path class="st1" d="M68.6,164.5l-0.1-0.7h0c-0.3,0.5-0.9,0.9-1.8,0.9c-1.2,0-1.8-0.8-1.8-1.7c0-1.4,1.2-2.2,3.5-2.2v-0.1
			c0-0.5-0.1-1.3-1.3-1.3c-0.5,0-1.1,0.2-1.5,0.4l-0.2-0.7c0.5-0.3,1.2-0.5,1.9-0.5c1.8,0,2.2,1.2,2.2,2.4v2.2c0,0.5,0,1,0.1,1.4
			H68.6z M68.5,161.6c-1.2,0-2.5,0.2-2.5,1.3c0,0.7,0.5,1,1,1c0.8,0,1.2-0.5,1.4-1c0-0.1,0.1-0.2,0.1-0.3V161.6z"/>
		<path class="st1" d="M73.7,160.6c0-0.7,0-1.3,0-1.9h0.9l0,1h0c0.4-0.7,1.1-1.1,2.1-1.1c1.4,0,2.5,1.2,2.5,3c0,2.1-1.3,3.1-2.6,3.1
			c-0.8,0-1.4-0.3-1.8-0.9h0v3.2h-1V160.6z M74.8,162.2c0,0.2,0,0.3,0,0.4c0.2,0.7,0.8,1.2,1.6,1.2c1.1,0,1.8-0.9,1.8-2.2
			c0-1.2-0.6-2.2-1.7-2.2c-0.7,0-1.4,0.5-1.6,1.3c0,0.1-0.1,0.3-0.1,0.4V162.2z"/>
		<path class="st1" d="M80.6,160.5c0-0.7,0-1.3,0-1.8h0.9l0,1.1h0c0.3-0.8,0.9-1.3,1.6-1.3c0.1,0,0.2,0,0.3,0v1c-0.1,0-0.2,0-0.4,0
			c-0.7,0-1.3,0.6-1.4,1.4c0,0.1,0,0.3,0,0.5v3.1h-1V160.5z"/>
		<path class="st1" d="M84.9,161.8c0,1.4,0.9,2,2,2c0.8,0,1.2-0.1,1.6-0.3l0.2,0.8c-0.4,0.2-1,0.4-1.9,0.4c-1.8,0-2.9-1.2-2.9-2.9
			c0-1.8,1-3.1,2.7-3.1c1.9,0,2.4,1.7,2.4,2.7c0,0.2,0,0.4,0,0.5H84.9z M88,161.1c0-0.7-0.3-1.7-1.5-1.7c-1.1,0-1.5,1-1.6,1.7H88z"
			/>
		<path class="st1" d="M90.2,163.4c0.3,0.2,0.9,0.4,1.4,0.4c0.8,0,1.1-0.4,1.1-0.9c0-0.5-0.3-0.8-1.1-1.1c-1-0.4-1.5-0.9-1.5-1.6
			c0-0.9,0.8-1.7,2-1.7c0.6,0,1.1,0.2,1.4,0.4l-0.3,0.8c-0.2-0.1-0.6-0.3-1.2-0.3c-0.6,0-1,0.4-1,0.8c0,0.5,0.3,0.7,1.1,1
			c1,0.4,1.5,0.9,1.5,1.8c0,1-0.8,1.7-2.2,1.7c-0.6,0-1.2-0.2-1.6-0.4L90.2,163.4z"/>
		<path class="st1" d="M95.7,161.8c0,1.4,0.9,2,2,2c0.8,0,1.2-0.1,1.6-0.3l0.2,0.8c-0.4,0.2-1,0.4-1.9,0.4c-1.8,0-2.9-1.2-2.9-2.9
			c0-1.8,1-3.1,2.7-3.1c1.9,0,2.4,1.7,2.4,2.7c0,0.2,0,0.4,0,0.5H95.7z M98.8,161.1c0-0.7-0.3-1.7-1.5-1.7c-1.1,0-1.5,1-1.6,1.7
			H98.8z"/>
		<path class="st1" d="M101.1,160.3c0-0.6,0-1.1,0-1.6h0.9l0.1,1h0c0.3-0.6,1-1.1,1.9-1.1c0.8,0,2.1,0.5,2.1,2.5v3.5H105v-3.3
			c0-0.9-0.3-1.7-1.3-1.7c-0.7,0-1.2,0.5-1.4,1.1c0,0.1-0.1,0.3-0.1,0.5v3.5h-1.1V160.3z"/>
		<path class="st1" d="M109,157v1.7h1.5v0.8H109v3.1c0,0.7,0.2,1.1,0.8,1.1c0.3,0,0.5,0,0.6-0.1l0,0.8c-0.2,0.1-0.5,0.1-0.9,0.1
			c-0.5,0-0.9-0.2-1.1-0.4c-0.3-0.3-0.4-0.8-0.4-1.5v-3.2h-0.9v-0.8h0.9v-1.4L109,157z"/>
		<path class="st1" d="M114.9,164.5l-0.1-0.7h0c-0.3,0.5-0.9,0.9-1.8,0.9c-1.2,0-1.8-0.8-1.8-1.7c0-1.4,1.2-2.2,3.5-2.2v-0.1
			c0-0.5-0.1-1.3-1.3-1.3c-0.5,0-1.1,0.2-1.5,0.4l-0.2-0.7c0.5-0.3,1.2-0.5,1.9-0.5c1.8,0,2.2,1.2,2.2,2.4v2.2c0,0.5,0,1,0.1,1.4
			H114.9z M114.8,161.6c-1.2,0-2.5,0.2-2.5,1.3c0,0.7,0.5,1,1,1c0.8,0,1.2-0.5,1.4-1c0-0.1,0.1-0.2,0.1-0.3V161.6z"/>
		<path class="st1" d="M121.6,164.3c-0.3,0.1-0.9,0.3-1.7,0.3c-1.8,0-2.9-1.2-2.9-3c0-1.8,1.2-3.1,3.1-3.1c0.6,0,1.2,0.2,1.5,0.3
			l-0.2,0.8c-0.3-0.1-0.6-0.3-1.2-0.3c-1.3,0-2.1,1-2.1,2.2c0,1.3,0.9,2.2,2,2.2c0.6,0,1-0.2,1.3-0.3L121.6,164.3z"/>
		<path class="st1" d="M124.1,157.1c0,0.4-0.3,0.6-0.7,0.6c-0.4,0-0.6-0.3-0.6-0.6c0-0.4,0.3-0.7,0.7-0.7
			C123.8,156.4,124.1,156.7,124.1,157.1z M122.9,164.5v-5.8h1.1v5.8H122.9z"/>
		<path class="st1" d="M130.9,161.6c0,2.1-1.5,3.1-2.9,3.1c-1.6,0-2.8-1.2-2.8-3c0-1.9,1.3-3.1,2.9-3.1
			C129.8,158.6,130.9,159.8,130.9,161.6z M126.3,161.6c0,1.3,0.7,2.2,1.8,2.2c1,0,1.8-0.9,1.8-2.3c0-1-0.5-2.2-1.7-2.2
			C126.9,159.4,126.3,160.5,126.3,161.6z M129.7,156.2l-1.5,1.7h-0.8l1.1-1.7H129.7z"/>
		<path class="st1" d="M132.3,160.3c0-0.6,0-1.1,0-1.6h0.9l0.1,1h0c0.3-0.6,1-1.1,1.9-1.1c0.8,0,2.1,0.5,2.1,2.5v3.5h-1.1v-3.3
			c0-0.9-0.3-1.7-1.3-1.7c-0.7,0-1.2,0.5-1.4,1.1c0,0.1-0.1,0.3-0.1,0.5v3.5h-1.1V160.3z"/>
		<path class="st1" d="M146.5,156v7c0,0.5,0,1.1,0,1.5h-0.9l0-1h0c-0.3,0.6-1,1.1-2,1.1c-1.4,0-2.5-1.2-2.5-3c0-1.9,1.2-3.1,2.6-3.1
			c0.9,0,1.5,0.4,1.8,0.9h0V156H146.5z M145.4,161.1c0-0.1,0-0.3,0-0.4c-0.2-0.7-0.7-1.2-1.5-1.2c-1.1,0-1.7,1-1.7,2.2
			c0,1.2,0.6,2.1,1.7,2.1c0.7,0,1.4-0.5,1.5-1.3c0-0.1,0-0.3,0-0.5V161.1z"/>
		<path class="st1" d="M148.8,161.8c0,1.4,0.9,2,2,2c0.8,0,1.2-0.1,1.6-0.3l0.2,0.8c-0.4,0.2-1,0.4-1.9,0.4c-1.8,0-2.9-1.2-2.9-2.9
			c0-1.8,1-3.1,2.7-3.1c1.9,0,2.4,1.7,2.4,2.7c0,0.2,0,0.4,0,0.5H148.8z M151.9,161.1c0-0.7-0.3-1.7-1.5-1.7c-1.1,0-1.5,1-1.6,1.7
			H151.9z"/>
		<path class="st1" d="M161.7,162.9c0,0.6,0,1.1,0,1.6h-0.9l-0.1-0.9h0c-0.3,0.5-0.9,1.1-1.9,1.1c-0.9,0-2-0.5-2-2.5v-3.4h1.1v3.2
			c0,1.1,0.3,1.8,1.3,1.8c0.7,0,1.2-0.5,1.4-1c0.1-0.2,0.1-0.3,0.1-0.5v-3.6h1.1V162.9z"/>
		<path class="st1" d="M163.4,160.3c0-0.6,0-1.1,0-1.6h0.9l0.1,1h0c0.3-0.6,1-1.1,1.9-1.1c0.8,0,2.1,0.5,2.1,2.5v3.5h-1.1v-3.3
			c0-0.9-0.3-1.7-1.3-1.7c-0.7,0-1.2,0.5-1.4,1.1c0,0.1-0.1,0.3-0.1,0.5v3.5h-1.1V160.3z"/>
		<path class="st1" d="M177.6,156v7c0,0.5,0,1.1,0,1.5h-0.9l0-1h0c-0.3,0.6-1,1.1-2,1.1c-1.4,0-2.5-1.2-2.5-3c0-1.9,1.2-3.1,2.6-3.1
			c0.9,0,1.5,0.4,1.8,0.9h0V156H177.6z M176.6,161.1c0-0.1,0-0.3,0-0.4c-0.2-0.7-0.7-1.2-1.5-1.2c-1.1,0-1.7,1-1.7,2.2
			c0,1.2,0.6,2.1,1.7,2.1c0.7,0,1.4-0.5,1.5-1.3c0-0.1,0-0.3,0-0.5V161.1z"/>
		<path class="st1" d="M184.6,161.6c0,2.1-1.5,3.1-2.9,3.1c-1.6,0-2.8-1.2-2.8-3c0-1.9,1.3-3.1,2.9-3.1
			C183.5,158.6,184.6,159.8,184.6,161.6z M180,161.6c0,1.3,0.7,2.2,1.8,2.2c1,0,1.8-0.9,1.8-2.3c0-1-0.5-2.2-1.7-2.2
			C180.6,159.4,180,160.5,180,161.6z"/>
		<path class="st1" d="M190.1,164.3c-0.3,0.1-0.9,0.3-1.7,0.3c-1.8,0-2.9-1.2-2.9-3c0-1.8,1.2-3.1,3.1-3.1c0.6,0,1.2,0.2,1.5,0.3
			l-0.2,0.8c-0.3-0.1-0.6-0.3-1.2-0.3c-1.3,0-2.1,1-2.1,2.2c0,1.3,0.9,2.2,2,2.2c0.6,0,1-0.2,1.3-0.3L190.1,164.3z"/>
		<path class="st1" d="M196.2,162.9c0,0.6,0,1.1,0,1.6h-0.9l-0.1-0.9h0c-0.3,0.5-0.9,1.1-1.9,1.1c-0.9,0-2-0.5-2-2.5v-3.4h1.1v3.2
			c0,1.1,0.3,1.8,1.3,1.8c0.7,0,1.2-0.5,1.4-1c0.1-0.2,0.1-0.3,0.1-0.5v-3.6h1.1V162.9z"/>
		<path class="st1" d="M198,160.3c0-0.6,0-1.1,0-1.6h0.9l0,0.9h0c0.3-0.6,0.9-1.1,1.8-1.1c0.8,0,1.4,0.5,1.6,1.2h0
			c0.2-0.3,0.4-0.6,0.6-0.8c0.3-0.3,0.7-0.4,1.3-0.4c0.8,0,1.9,0.5,1.9,2.5v3.4h-1v-3.3c0-1.1-0.4-1.8-1.3-1.8c-0.6,0-1.1,0.4-1.2,1
			c0,0.1-0.1,0.3-0.1,0.5v3.6h-1V161c0-0.9-0.4-1.6-1.2-1.6c-0.7,0-1.1,0.5-1.3,1.1c-0.1,0.2-0.1,0.3-0.1,0.5v3.5h-1V160.3z"/>
		<path class="st1" d="M208.6,161.8c0,1.4,0.9,2,2,2c0.8,0,1.2-0.1,1.6-0.3l0.2,0.8c-0.4,0.2-1,0.4-1.9,0.4c-1.8,0-2.9-1.2-2.9-2.9
			c0-1.8,1-3.1,2.7-3.1c1.9,0,2.4,1.7,2.4,2.7c0,0.2,0,0.4,0,0.5H208.6z M211.7,161.1c0-0.7-0.3-1.7-1.5-1.7c-1.1,0-1.5,1-1.6,1.7
			H211.7z"/>
		<path class="st1" d="M214,160.3c0-0.6,0-1.1,0-1.6h0.9l0.1,1h0c0.3-0.6,1-1.1,1.9-1.1c0.8,0,2.1,0.5,2.1,2.5v3.5h-1.1v-3.3
			c0-0.9-0.3-1.7-1.3-1.7c-0.7,0-1.2,0.5-1.4,1.1c0,0.1-0.1,0.3-0.1,0.5v3.5H214V160.3z"/>
		<path class="st1" d="M221.9,157v1.7h1.5v0.8h-1.5v3.1c0,0.7,0.2,1.1,0.8,1.1c0.3,0,0.5,0,0.6-0.1l0,0.8c-0.2,0.1-0.5,0.1-0.9,0.1
			c-0.5,0-0.9-0.2-1.1-0.4c-0.3-0.3-0.4-0.8-0.4-1.5v-3.2h-0.9v-0.8h0.9v-1.4L221.9,157z"/>
		<path class="st1" d="M229.7,161.6c0,2.1-1.5,3.1-2.9,3.1c-1.6,0-2.8-1.2-2.8-3c0-1.9,1.3-3.1,2.9-3.1
			C228.6,158.6,229.7,159.8,229.7,161.6z M225.1,161.6c0,1.3,0.7,2.2,1.8,2.2c1,0,1.8-0.9,1.8-2.3c0-1-0.5-2.2-1.7-2.2
			C225.7,159.4,225.1,160.5,225.1,161.6z"/>
		<path class="st1" d="M238.9,161.6c0,2.1-1.5,3.1-2.9,3.1c-1.6,0-2.8-1.2-2.8-3c0-1.9,1.3-3.1,2.9-3.1
			C237.7,158.6,238.9,159.8,238.9,161.6z M234.3,161.6c0,1.3,0.7,2.2,1.8,2.2c1,0,1.8-0.9,1.8-2.3c0-1-0.5-2.2-1.7-2.2
			C234.8,159.4,234.3,160.5,234.3,161.6z"/>
		<path class="st1" d="M51.7,178.7c-0.3,0.1-0.9,0.3-1.7,0.3c-1.8,0-2.9-1.2-2.9-3c0-1.8,1.2-3.1,3.1-3.1c0.6,0,1.2,0.2,1.5,0.3
			l-0.2,0.8c-0.3-0.1-0.6-0.3-1.2-0.3c-1.3,0-2.1,1-2.1,2.2c0,1.3,0.9,2.2,2,2.2c0.6,0,1-0.2,1.3-0.3L51.7,178.7z"/>
		<path class="st1" d="M53.4,176.2c0,1.4,0.9,2,2,2c0.8,0,1.2-0.1,1.6-0.3l0.2,0.8c-0.4,0.2-1,0.4-1.9,0.4c-1.8,0-2.9-1.2-2.9-2.9
			s1-3.1,2.7-3.1c1.9,0,2.4,1.7,2.4,2.7c0,0.2,0,0.4,0,0.5H53.4z M56.5,175.5c0-0.7-0.3-1.7-1.5-1.7c-1.1,0-1.5,1-1.6,1.7H56.5z"/>
		<path class="st1" d="M58.9,174.9c0-0.7,0-1.3,0-1.8h0.9l0,1.1h0c0.3-0.8,0.9-1.3,1.6-1.3c0.1,0,0.2,0,0.3,0v1c-0.1,0-0.2,0-0.4,0
			c-0.7,0-1.3,0.6-1.4,1.4c0,0.1,0,0.3,0,0.5v3.1h-1V174.9z"/>
		<path class="st1" d="M64.4,171.4v1.7h1.5v0.8h-1.5v3.1c0,0.7,0.2,1.1,0.8,1.1c0.3,0,0.5,0,0.6-0.1l0,0.8c-0.2,0.1-0.5,0.1-0.9,0.1
			c-0.5,0-0.9-0.2-1.1-0.4c-0.3-0.3-0.4-0.8-0.4-1.5v-3.2h-0.9v-0.8h0.9v-1.4L64.4,171.4z"/>
		<path class="st1" d="M68.2,171.5c0,0.4-0.3,0.6-0.7,0.6c-0.4,0-0.6-0.3-0.6-0.6c0-0.4,0.3-0.7,0.7-0.7
			C68,170.8,68.2,171.1,68.2,171.5z M67.1,178.9v-5.8h1.1v5.8H67.1z"/>
		<path class="st1" d="M70,178.9v-5h-0.8v-0.8H70v-0.3c0-1.5,0.9-2.5,2.5-2.5c0.5,0,1.2,0.2,1.5,0.4l-0.3,0.8
			c-0.3-0.2-0.7-0.3-1.2-0.3c-1.1,0-1.4,0.8-1.4,1.7v0.3h3.4v5.8h-1v-5H71v5H70z"/>
		<path class="st1" d="M80.3,178.7c-0.3,0.1-0.9,0.3-1.7,0.3c-1.8,0-2.9-1.2-2.9-3c0-1.8,1.2-3.1,3.1-3.1c0.6,0,1.2,0.2,1.5,0.3
			l-0.2,0.8c-0.3-0.1-0.6-0.3-1.2-0.3c-1.3,0-2.1,1-2.1,2.2c0,1.3,0.9,2.2,2,2.2c0.6,0,1-0.2,1.3-0.3L80.3,178.7z"/>
		<path class="st1" d="M84.7,178.9l-0.1-0.7h0c-0.3,0.5-0.9,0.9-1.8,0.9c-1.2,0-1.8-0.8-1.8-1.7c0-1.4,1.2-2.2,3.5-2.2v-0.1
			c0-0.5-0.1-1.3-1.3-1.3c-0.5,0-1.1,0.2-1.5,0.4l-0.2-0.7c0.5-0.3,1.2-0.5,1.9-0.5c1.8,0,2.2,1.2,2.2,2.4v2.2c0,0.5,0,1,0.1,1.4
			H84.7z M84.6,176c-1.2,0-2.5,0.2-2.5,1.3c0,0.7,0.5,1,1,1c0.8,0,1.2-0.5,1.4-1c0-0.1,0.1-0.2,0.1-0.3V176z"/>
		<path class="st1" d="M92.3,170.4v7c0,0.5,0,1.1,0,1.5h-0.9l0-1h0c-0.3,0.6-1,1.1-2,1.1c-1.4,0-2.5-1.2-2.5-3
			c0-1.9,1.2-3.1,2.6-3.1c0.9,0,1.5,0.4,1.8,0.9h0v-3.5H92.3z M91.3,175.5c0-0.1,0-0.3,0-0.4c-0.2-0.7-0.7-1.2-1.5-1.2
			c-1.1,0-1.7,1-1.7,2.2c0,1.2,0.6,2.1,1.7,2.1c0.7,0,1.4-0.5,1.5-1.3c0-0.1,0-0.3,0-0.5V175.5z"/>
		<path class="st1" d="M99.3,176c0,2.1-1.5,3.1-2.9,3.1c-1.6,0-2.8-1.2-2.8-3c0-1.9,1.3-3.1,2.9-3.1C98.2,173,99.3,174.2,99.3,176z
			 M94.7,176c0,1.3,0.7,2.2,1.8,2.2c1,0,1.8-0.9,1.8-2.3c0-1-0.5-2.2-1.7-2.2C95.3,173.8,94.7,174.9,94.7,176z"/>
		<path class="st1" d="M99.7,180.4c0.3-0.7,0.6-2,0.7-2.9l1.2-0.1c-0.3,1-0.8,2.4-1.1,2.9L99.7,180.4z"/>
		<path class="st1" d="M105.5,178.9v-5h-0.8v-0.8h0.8v-0.3c0-0.8,0.2-1.6,0.7-2c0.4-0.4,0.9-0.5,1.4-0.5c0.4,0,0.7,0.1,0.9,0.2
			l-0.1,0.8c-0.2-0.1-0.4-0.1-0.7-0.1c-0.9,0-1.1,0.8-1.1,1.7v0.3h1.4v0.8h-1.4v5H105.5z"/>
		<path class="st1" d="M112.1,178.9l-0.1-0.7h0c-0.3,0.5-0.9,0.9-1.8,0.9c-1.2,0-1.8-0.8-1.8-1.7c0-1.4,1.2-2.2,3.5-2.2v-0.1
			c0-0.5-0.1-1.3-1.3-1.3c-0.5,0-1.1,0.2-1.5,0.4l-0.2-0.7c0.5-0.3,1.2-0.5,1.9-0.5c1.8,0,2.2,1.2,2.2,2.4v2.2c0,0.5,0,1,0.1,1.4
			H112.1z M112,176c-1.2,0-2.5,0.2-2.5,1.3c0,0.7,0.5,1,1,1c0.8,0,1.2-0.5,1.4-1c0-0.1,0.1-0.2,0.1-0.3V176z"/>
		<path class="st1" d="M114.7,170.4h1.1v8.5h-1.1V170.4z"/>
		<path class="st1" d="M117.4,177.8c0.3,0.2,0.9,0.4,1.4,0.4c0.8,0,1.1-0.4,1.1-0.9c0-0.5-0.3-0.8-1.1-1.1c-1-0.4-1.5-0.9-1.5-1.6
			c0-0.9,0.8-1.7,2-1.7c0.6,0,1.1,0.2,1.4,0.4l-0.3,0.8c-0.2-0.1-0.6-0.3-1.2-0.3c-0.6,0-1,0.4-1,0.8c0,0.5,0.3,0.7,1.1,1
			c1,0.4,1.5,0.9,1.5,1.8c0,1-0.8,1.7-2.2,1.7c-0.6,0-1.2-0.2-1.6-0.4L117.4,177.8z"/>
		<path class="st1" d="M127.5,176c0,2.1-1.5,3.1-2.9,3.1c-1.6,0-2.8-1.2-2.8-3c0-1.9,1.3-3.1,2.9-3.1
			C126.4,173,127.5,174.2,127.5,176z M122.9,176c0,1.3,0.7,2.2,1.8,2.2c1,0,1.8-0.9,1.8-2.3c0-1-0.5-2.2-1.7-2.2
			C123.5,173.8,122.9,174.9,122.9,176z"/>
		<path class="st1" d="M136.7,176c0,2.1-1.5,3.1-2.9,3.1c-1.6,0-2.8-1.2-2.8-3c0-1.9,1.3-3.1,2.9-3.1
			C135.5,173,136.7,174.2,136.7,176z M132,176c0,1.3,0.7,2.2,1.8,2.2c1,0,1.8-0.9,1.8-2.3c0-1-0.5-2.2-1.7-2.2
			C132.6,173.8,132,174.9,132,176z"/>
		<path class="st1" d="M143.7,178.9l-0.1-0.7h0c-0.3,0.5-0.9,0.9-1.8,0.9c-1.2,0-1.8-0.8-1.8-1.7c0-1.4,1.2-2.2,3.5-2.2v-0.1
			c0-0.5-0.1-1.3-1.3-1.3c-0.5,0-1.1,0.2-1.5,0.4l-0.2-0.7c0.5-0.3,1.2-0.5,1.9-0.5c1.8,0,2.2,1.2,2.2,2.4v2.2c0,0.5,0,1,0.1,1.4
			H143.7z M143.6,176c-1.2,0-2.5,0.2-2.5,1.3c0,0.7,0.5,1,1,1c0.8,0,1.2-0.5,1.4-1c0-0.1,0.1-0.2,0.1-0.3V176z"/>
		<path class="st1" d="M151.3,170.4v7c0,0.5,0,1.1,0,1.5h-0.9l0-1h0c-0.3,0.6-1,1.1-2,1.1c-1.4,0-2.5-1.2-2.5-3
			c0-1.9,1.2-3.1,2.6-3.1c0.9,0,1.5,0.4,1.8,0.9h0v-3.5H151.3z M150.3,175.5c0-0.1,0-0.3,0-0.4c-0.2-0.7-0.7-1.2-1.5-1.2
			c-1.1,0-1.7,1-1.7,2.2c0,1.2,0.6,2.1,1.7,2.1c0.7,0,1.4-0.5,1.5-1.3c0-0.1,0-0.3,0-0.5V175.5z"/>
		<path class="st1" d="M157.9,177.3c0,0.6,0,1.1,0,1.6h-0.9L157,178h0c-0.3,0.5-0.9,1.1-1.9,1.1c-0.9,0-2-0.5-2-2.5v-3.4h1.1v3.2
			c0,1.1,0.3,1.8,1.3,1.8c0.7,0,1.2-0.5,1.4-1c0.1-0.2,0.1-0.3,0.1-0.5v-3.6h1.1V177.3z"/>
		<path class="st1" d="M159.7,170.4h1.1v8.5h-1.1V170.4z"/>
		<path class="st1" d="M163.8,171.4v1.7h1.5v0.8h-1.5v3.1c0,0.7,0.2,1.1,0.8,1.1c0.3,0,0.5,0,0.6-0.1l0,0.8
			c-0.2,0.1-0.5,0.1-0.9,0.1c-0.5,0-0.9-0.2-1.1-0.4c-0.3-0.3-0.4-0.8-0.4-1.5v-3.2h-0.9v-0.8h0.9v-1.4L163.8,171.4z"/>
		<path class="st1" d="M167,176.2c0,1.4,0.9,2,2,2c0.8,0,1.2-0.1,1.6-0.3l0.2,0.8c-0.4,0.2-1,0.4-1.9,0.4c-1.8,0-2.9-1.2-2.9-2.9
			s1-3.1,2.7-3.1c1.9,0,2.4,1.7,2.4,2.7c0,0.2,0,0.4,0,0.5H167z M170.1,175.5c0-0.7-0.3-1.7-1.5-1.7c-1.1,0-1.5,1-1.6,1.7H170.1z"/>
		<path class="st1" d="M172.4,174.9c0-0.7,0-1.3,0-1.8h0.9l0,1.1h0c0.3-0.8,0.9-1.3,1.6-1.3c0.1,0,0.2,0,0.3,0v1c-0.1,0-0.2,0-0.4,0
			c-0.7,0-1.3,0.6-1.4,1.4c0,0.1,0,0.3,0,0.5v3.1h-1V174.9z"/>
		<path class="st1" d="M179.5,178.9l-0.1-0.7h0c-0.3,0.5-0.9,0.9-1.8,0.9c-1.2,0-1.8-0.8-1.8-1.7c0-1.4,1.2-2.2,3.5-2.2v-0.1
			c0-0.5-0.1-1.3-1.3-1.3c-0.5,0-1.1,0.2-1.5,0.4l-0.2-0.7c0.5-0.3,1.2-0.5,1.9-0.5c1.8,0,2.2,1.2,2.2,2.4v2.2c0,0.5,0,1,0.1,1.4
			H179.5z M179.4,176c-1.2,0-2.5,0.2-2.5,1.3c0,0.7,0.5,1,1,1c0.8,0,1.2-0.5,1.4-1c0-0.1,0.1-0.2,0.1-0.3V176z"/>
		<path class="st1" d="M187.1,170.4v7c0,0.5,0,1.1,0,1.5h-0.9l0-1h0c-0.3,0.6-1,1.1-2,1.1c-1.4,0-2.5-1.2-2.5-3
			c0-1.9,1.2-3.1,2.6-3.1c0.9,0,1.5,0.4,1.8,0.9h0v-3.5H187.1z M186,175.5c0-0.1,0-0.3,0-0.4c-0.2-0.7-0.7-1.2-1.5-1.2
			c-1.1,0-1.7,1-1.7,2.2c0,1.2,0.6,2.1,1.7,2.1c0.7,0,1.4-0.5,1.5-1.3c0-0.1,0-0.3,0-0.5V175.5z"/>
		<path class="st1" d="M194.1,176c0,2.1-1.5,3.1-2.9,3.1c-1.6,0-2.8-1.2-2.8-3c0-1.9,1.3-3.1,2.9-3.1C193,173,194.1,174.2,194.1,176
			z M189.5,176c0,1.3,0.7,2.2,1.8,2.2c1,0,1.8-0.9,1.8-2.3c0-1-0.5-2.2-1.7-2.2C190,173.8,189.5,174.9,189.5,176z"/>
		<path class="st1" d="M194.5,180.4c0.3-0.7,0.6-2,0.7-2.9l1.2-0.1c-0.3,1-0.8,2.4-1.1,2.9L194.5,180.4z"/>
		<path class="st1" d="M204.3,178.7c-0.3,0.1-0.9,0.3-1.7,0.3c-1.8,0-2.9-1.2-2.9-3c0-1.8,1.2-3.1,3.1-3.1c0.6,0,1.2,0.2,1.5,0.3
			l-0.2,0.8c-0.3-0.1-0.6-0.3-1.2-0.3c-1.3,0-2.1,1-2.1,2.2c0,1.3,0.9,2.2,2,2.2c0.6,0,1-0.2,1.3-0.3L204.3,178.7z"/>
		<path class="st1" d="M210.7,176c0,2.1-1.5,3.1-2.9,3.1c-1.6,0-2.8-1.2-2.8-3c0-1.9,1.3-3.1,2.9-3.1
			C209.6,173,210.7,174.2,210.7,176z M206.1,176c0,1.3,0.7,2.2,1.8,2.2c1,0,1.8-0.9,1.8-2.3c0-1-0.5-2.2-1.7-2.2
			C206.7,173.8,206.1,174.9,206.1,176z"/>
		<path class="st1" d="M212.1,174.7c0-0.6,0-1.1,0-1.6h0.9l0.1,1h0c0.3-0.6,1-1.1,1.9-1.1c0.8,0,2.1,0.5,2.1,2.5v3.5H216v-3.3
			c0-0.9-0.3-1.7-1.3-1.7c-0.7,0-1.2,0.5-1.4,1.1c0,0.1-0.1,0.3-0.1,0.5v3.5h-1.1V174.7z"/>
		<path class="st1" d="M218.6,177.8c0.3,0.2,0.9,0.4,1.4,0.4c0.8,0,1.1-0.4,1.1-0.9c0-0.5-0.3-0.8-1.1-1.1c-1-0.4-1.5-0.9-1.5-1.6
			c0-0.9,0.8-1.7,2-1.7c0.6,0,1.1,0.2,1.4,0.4l-0.3,0.8c-0.2-0.1-0.6-0.3-1.2-0.3c-0.6,0-1,0.4-1,0.8c0,0.5,0.3,0.7,1.1,1
			c1,0.4,1.5,0.9,1.5,1.8c0,1-0.8,1.7-2.2,1.7c-0.6,0-1.2-0.2-1.6-0.4L218.6,177.8z"/>
		<path class="st1" d="M224.8,171.4v1.7h1.5v0.8h-1.5v3.1c0,0.7,0.2,1.1,0.8,1.1c0.3,0,0.5,0,0.6-0.1l0,0.8
			c-0.2,0.1-0.5,0.1-0.9,0.1c-0.5,0-0.9-0.2-1.1-0.4c-0.3-0.3-0.4-0.8-0.4-1.5v-3.2h-0.9v-0.8h0.9v-1.4L224.8,171.4z"/>
		<path class="st1" d="M228.6,171.5c0,0.4-0.3,0.6-0.7,0.6c-0.4,0-0.6-0.3-0.6-0.6c0-0.4,0.3-0.7,0.7-0.7
			C228.4,170.8,228.6,171.1,228.6,171.5z M227.5,178.9v-5.8h1.1v5.8H227.5z"/>
		<path class="st1" d="M231.5,171.4v1.7h1.5v0.8h-1.5v3.1c0,0.7,0.2,1.1,0.8,1.1c0.3,0,0.5,0,0.6-0.1l0,0.8
			c-0.2,0.1-0.5,0.1-0.9,0.1c-0.5,0-0.9-0.2-1.1-0.4c-0.3-0.3-0.4-0.8-0.4-1.5v-3.2h-0.9v-0.8h0.9v-1.4L231.5,171.4z"/>
		<path class="st1" d="M239.1,177.3c0,0.6,0,1.1,0,1.6h-0.9l-0.1-0.9h0c-0.3,0.5-0.9,1.1-1.9,1.1c-0.9,0-2-0.5-2-2.5v-3.4h1.1v3.2
			c0,1.1,0.3,1.8,1.3,1.8c0.7,0,1.2-0.5,1.4-1c0.1-0.2,0.1-0.3,0.1-0.5v-3.6h1.1V177.3z"/>
		<path class="st1" d="M241.2,173.1l1.3,3.4c0.1,0.4,0.3,0.8,0.4,1.2h0c0.1-0.3,0.2-0.8,0.4-1.2l1.2-3.4h1.1l-1.6,4.1
			c-0.8,2-1.3,3-2,3.6c-0.5,0.5-1,0.6-1.3,0.7l-0.3-0.9c0.3-0.1,0.6-0.3,0.9-0.5c0.3-0.2,0.6-0.6,0.9-1.2c0-0.1,0.1-0.2,0.1-0.3
			c0-0.1,0-0.1-0.1-0.3l-2.1-5.3H241.2z"/>
		<path class="st1" d="M247,176.2c0,1.4,0.9,2,2,2c0.8,0,1.2-0.1,1.6-0.3l0.2,0.8c-0.4,0.2-1,0.4-1.9,0.4c-1.8,0-2.9-1.2-2.9-2.9
			s1-3.1,2.7-3.1c1.9,0,2.4,1.7,2.4,2.7c0,0.2,0,0.4,0,0.5H247z M250.1,175.5c0-0.7-0.3-1.7-1.5-1.7c-1.1,0-1.5,1-1.6,1.7H250.1z"/>
		<path class="st1" d="M52.6,191.7c0,0.6,0,1.1,0,1.6h-0.9l-0.1-0.9h0c-0.3,0.5-0.9,1.1-1.9,1.1c-0.9,0-2-0.5-2-2.5v-3.4h1.1v3.2
			c0,1.1,0.3,1.8,1.3,1.8c0.7,0,1.2-0.5,1.4-1c0.1-0.2,0.1-0.3,0.1-0.5v-3.6h1.1V191.7z"/>
		<path class="st1" d="M54.3,189.1c0-0.6,0-1.1,0-1.6h0.9l0.1,1h0c0.3-0.6,1-1.1,1.9-1.1c0.8,0,2.1,0.5,2.1,2.5v3.5h-1.1V190
			c0-0.9-0.3-1.7-1.3-1.7c-0.7,0-1.2,0.5-1.4,1.1c0,0.1-0.1,0.3-0.1,0.5v3.5h-1.1V189.1z"/>
		<path class="st1" d="M63.6,185.3c0.6-0.1,1.4-0.2,2.2-0.2c1.5,0,2.6,0.3,3.3,1c0.7,0.7,1.1,1.6,1.1,2.9c0,1.3-0.4,2.4-1.2,3.1
			c-0.8,0.8-2,1.2-3.6,1.2c-0.7,0-1.4,0-1.9-0.1V185.3z M64.6,192.5c0.3,0,0.6,0.1,1.1,0.1c2.2,0,3.4-1.2,3.4-3.4
			c0-1.9-1.1-3.1-3.3-3.1c-0.5,0-0.9,0-1.2,0.1V192.5z"/>
		<path class="st1" d="M75.8,189.5h-3.1v2.9h3.5v0.9h-4.5v-8.1h4.4v0.9h-3.3v2.6h3.1V189.5z"/>
		<path class="st1" d="M77.5,185.2h1v7.2H82v0.9h-4.5V185.2z"/>
		<path class="st1" d="M84.2,185.2v8.1h-1v-8.1H84.2z"/>
		<path class="st1" d="M87.5,186.1h-2.5v-0.9h6v0.9h-2.5v7.2h-1.1V186.1z"/>
		<path class="st1" d="M98.6,189.2c0,2.8-1.7,4.3-3.8,4.3c-2.1,0-3.6-1.7-3.6-4.1c0-2.6,1.6-4.2,3.8-4.2
			C97.1,185.1,98.6,186.8,98.6,189.2z M92.3,189.3c0,1.7,0.9,3.3,2.6,3.3c1.7,0,2.6-1.5,2.6-3.4c0-1.6-0.8-3.3-2.6-3.3
			C93.1,186,92.3,187.5,92.3,189.3z"/>
		<path class="st1" d="M103.7,185.8v1.7h1.5v0.8h-1.5v3.1c0,0.7,0.2,1.1,0.8,1.1c0.3,0,0.5,0,0.6-0.1l0,0.8
			c-0.2,0.1-0.5,0.1-0.9,0.1c-0.5,0-0.9-0.2-1.1-0.4c-0.3-0.3-0.4-0.8-0.4-1.5v-3.2h-0.9v-0.8h0.9v-1.4L103.7,185.8z"/>
		<path class="st1" d="M107.6,185.9c0,0.4-0.3,0.6-0.7,0.6c-0.4,0-0.6-0.3-0.6-0.6c0-0.4,0.3-0.7,0.7-0.7
			C107.3,185.2,107.6,185.5,107.6,185.9z M106.4,193.3v-5.8h1.1v5.8H106.4z"/>
		<path class="st1" d="M109.2,189.4c0-0.7,0-1.3,0-1.9h0.9l0,1h0c0.4-0.7,1.1-1.1,2.1-1.1c1.4,0,2.5,1.2,2.5,3
			c0,2.1-1.3,3.1-2.6,3.1c-0.8,0-1.4-0.3-1.8-0.9h0v3.2h-1V189.4z M110.2,191c0,0.2,0,0.3,0,0.4c0.2,0.7,0.8,1.2,1.6,1.2
			c1.1,0,1.8-0.9,1.8-2.2c0-1.2-0.6-2.2-1.7-2.2c-0.7,0-1.4,0.5-1.6,1.3c0,0.1-0.1,0.3-0.1,0.4V191z"/>
		<path class="st1" d="M117.2,185.9c0,0.4-0.3,0.6-0.7,0.6c-0.4,0-0.6-0.3-0.6-0.6c0-0.4,0.3-0.7,0.7-0.7
			C117,185.2,117.2,185.5,117.2,185.9z M116,193.3v-5.8h1.1v5.8H116z"/>
		<path class="st1" d="M118.9,193.3v-5h-0.8v-0.8h0.8v-0.3c0-1.5,0.9-2.5,2.5-2.5c0.5,0,1.2,0.2,1.5,0.4l-0.3,0.8
			c-0.3-0.2-0.7-0.3-1.2-0.3c-1.1,0-1.4,0.8-1.4,1.7v0.3h3.4v5.8h-1v-5H120v5H118.9z"/>
		<path class="st1" d="M129.2,193.1c-0.3,0.1-0.9,0.3-1.7,0.3c-1.8,0-2.9-1.2-2.9-3c0-1.8,1.2-3.1,3.1-3.1c0.6,0,1.2,0.2,1.5,0.3
			l-0.2,0.8c-0.3-0.1-0.6-0.3-1.2-0.3c-1.3,0-2.1,1-2.1,2.2c0,1.3,0.9,2.2,2,2.2c0.6,0,1-0.2,1.3-0.3L129.2,193.1z"/>
		<path class="st1" d="M133.7,193.3l-0.1-0.7h0c-0.3,0.5-0.9,0.9-1.8,0.9c-1.2,0-1.8-0.8-1.8-1.7c0-1.4,1.2-2.2,3.5-2.2v-0.1
			c0-0.5-0.1-1.3-1.3-1.3c-0.5,0-1.1,0.2-1.5,0.4l-0.2-0.7c0.5-0.3,1.2-0.5,1.9-0.5c1.8,0,2.2,1.2,2.2,2.4v2.2c0,0.5,0,1,0.1,1.4
			H133.7z M133.5,190.4c-1.2,0-2.5,0.2-2.5,1.3c0,0.7,0.5,1,1,1c0.8,0,1.2-0.5,1.4-1c0-0.1,0.1-0.2,0.1-0.3V190.4z"/>
		<path class="st1" d="M141.3,184.8v7c0,0.5,0,1.1,0,1.5h-0.9l0-1h0c-0.3,0.6-1,1.1-2,1.1c-1.4,0-2.5-1.2-2.5-3
			c0-1.9,1.2-3.1,2.6-3.1c0.9,0,1.5,0.4,1.8,0.9h0v-3.5H141.3z M140.2,189.9c0-0.1,0-0.3,0-0.4c-0.2-0.7-0.7-1.2-1.5-1.2
			c-1.1,0-1.7,1-1.7,2.2c0,1.2,0.6,2.1,1.7,2.1c0.7,0,1.4-0.5,1.5-1.3c0-0.1,0-0.3,0-0.5V189.9z"/>
		<path class="st1" d="M148.3,190.4c0,2.1-1.5,3.1-2.9,3.1c-1.6,0-2.8-1.2-2.8-3c0-1.9,1.3-3.1,2.9-3.1
			C147.2,187.4,148.3,188.6,148.3,190.4z M143.7,190.4c0,1.3,0.7,2.2,1.8,2.2c1,0,1.8-0.9,1.8-2.3c0-1-0.5-2.2-1.7-2.2
			C144.2,188.2,143.7,189.3,143.7,190.4z"/>
		<path class="st1" d="M152.8,190.6c0,1.4,0.9,2,2,2c0.8,0,1.2-0.1,1.6-0.3l0.2,0.8c-0.4,0.2-1,0.4-1.9,0.4c-1.8,0-2.9-1.2-2.9-2.9
			c0-1.8,1-3.1,2.7-3.1c1.9,0,2.4,1.7,2.4,2.7c0,0.2,0,0.4,0,0.5H152.8z M155.9,189.9c0-0.7-0.3-1.7-1.5-1.7c-1.1,0-1.5,1-1.6,1.7
			H155.9z"/>
		<path class="st1" d="M158.2,189.1c0-0.6,0-1.1,0-1.6h0.9l0.1,1h0c0.3-0.6,1-1.1,1.9-1.1c0.8,0,2.1,0.5,2.1,2.5v3.5h-1.1V190
			c0-0.9-0.3-1.7-1.3-1.7c-0.7,0-1.2,0.5-1.4,1.1c0,0.1-0.1,0.3-0.1,0.5v3.5h-1.1V189.1z"/>
		<path class="st1" d="M168,190.6c0,1.4,0.9,2,2,2c0.8,0,1.2-0.1,1.6-0.3l0.2,0.8c-0.4,0.2-1,0.4-1.9,0.4c-1.8,0-2.9-1.2-2.9-2.9
			c0-1.8,1-3.1,2.7-3.1c1.9,0,2.4,1.7,2.4,2.7c0,0.2,0,0.4,0,0.5H168z M171.1,189.9c0-0.7-0.3-1.7-1.5-1.7c-1.1,0-1.5,1-1.6,1.7
			H171.1z"/>
		<path class="st1" d="M173.4,184.8h1.1v8.5h-1.1V184.8z"/>
		<path class="st1" d="M182,193.3l-0.1-0.7h0c-0.3,0.5-0.9,0.9-1.8,0.9c-1.2,0-1.8-0.8-1.8-1.7c0-1.4,1.2-2.2,3.5-2.2v-0.1
			c0-0.5-0.1-1.3-1.3-1.3c-0.5,0-1.1,0.2-1.5,0.4l-0.2-0.7c0.5-0.3,1.2-0.5,1.9-0.5c1.8,0,2.2,1.2,2.2,2.4v2.2c0,0.5,0,1,0.1,1.4
			H182z M181.8,190.4c-1.2,0-2.5,0.2-2.5,1.3c0,0.7,0.5,1,1,1c0.8,0,1.2-0.5,1.4-1c0-0.1,0.1-0.2,0.1-0.3V190.4z"/>
		<path class="st1" d="M184.6,189.3c0-0.7,0-1.3,0-1.8h0.9l0,1.1h0c0.3-0.8,0.9-1.3,1.6-1.3c0.1,0,0.2,0,0.3,0v1c-0.1,0-0.2,0-0.4,0
			c-0.7,0-1.3,0.6-1.4,1.4c0,0.1,0,0.3,0,0.5v3.1h-1V189.3z"/>
		<path class="st1" d="M190,185.8v1.7h1.5v0.8H190v3.1c0,0.7,0.2,1.1,0.8,1.1c0.3,0,0.5,0,0.6-0.1l0,0.8c-0.2,0.1-0.5,0.1-0.9,0.1
			c-0.5,0-0.9-0.2-1.1-0.4c-0.3-0.3-0.4-0.8-0.4-1.5v-3.2h-0.9v-0.8h0.9v-1.4L190,185.8z"/>
		<path class="st1" d="M194.9,185l-1.5,1.7h-0.8l1.1-1.7H194.9z M192.7,193.3v-5.8h1.1v5.8H192.7z"/>
		<path class="st1" d="M199.7,193.1c-0.3,0.1-0.9,0.3-1.7,0.3c-1.8,0-2.9-1.2-2.9-3c0-1.8,1.2-3.1,3.1-3.1c0.6,0,1.2,0.2,1.5,0.3
			l-0.2,0.8c-0.3-0.1-0.6-0.3-1.2-0.3c-1.3,0-2.1,1-2.1,2.2c0,1.3,0.9,2.2,2,2.2c0.6,0,1-0.2,1.3-0.3L199.7,193.1z"/>
		<path class="st1" d="M205.8,191.7c0,0.6,0,1.1,0,1.6h-0.9l-0.1-0.9h0c-0.3,0.5-0.9,1.1-1.9,1.1c-0.9,0-2-0.5-2-2.5v-3.4h1.1v3.2
			c0,1.1,0.3,1.8,1.3,1.8c0.7,0,1.2-0.5,1.4-1c0.1-0.2,0.1-0.3,0.1-0.5v-3.6h1.1V191.7z"/>
		<path class="st1" d="M207.5,184.8h1.1v8.5h-1.1V184.8z"/>
		<path class="st1" d="M215.6,190.4c0,2.1-1.5,3.1-2.9,3.1c-1.6,0-2.8-1.2-2.8-3c0-1.9,1.3-3.1,2.9-3.1
			C214.5,187.4,215.6,188.6,215.6,190.4z M211,190.4c0,1.3,0.7,2.2,1.8,2.2c1,0,1.8-0.9,1.8-2.3c0-1-0.5-2.2-1.7-2.2
			C211.6,188.2,211,189.3,211,190.4z"/>
		<path class="st1" d="M219.5,193.3v-8.1h1.1l2.6,4.1c0.6,0.9,1.1,1.8,1.5,2.6l0,0c-0.1-1.1-0.1-2.1-0.1-3.3v-3.4h1v8.1h-1.1
			l-2.6-4.1c-0.6-0.9-1.1-1.8-1.5-2.7l0,0c0.1,1,0.1,2,0.1,3.3v3.5H219.5z"/>
		<path class="st1" d="M230,186.7c0,1-0.8,1.6-1.6,1.6c-0.9,0-1.6-0.7-1.6-1.5c0-0.9,0.7-1.6,1.6-1.6
			C229.4,185.1,230,185.8,230,186.7z M227.5,186.7c0,0.6,0.4,1,0.9,1c0.5,0,0.9-0.4,0.9-1c0-0.4-0.3-1-0.9-1
			C227.8,185.7,227.5,186.2,227.5,186.7z"/>
		<path class="st1" d="M233.4,193.3v-0.6l0.8-0.8c2-1.9,2.9-2.9,2.9-4.1c0-0.8-0.4-1.5-1.5-1.5c-0.7,0-1.3,0.4-1.7,0.7l-0.3-0.7
			c0.5-0.5,1.3-0.8,2.2-0.8c1.7,0,2.4,1.2,2.4,2.3c0,1.4-1,2.6-2.7,4.2l-0.6,0.6v0h3.5v0.9H233.4z"/>
		<path class="st1" d="M240.2,192.6c0.2,0,0.5,0,0.9,0c0.6-0.1,1.2-0.3,1.6-0.8c0.5-0.5,0.9-1.2,1-2.1h0c-0.4,0.5-1.1,0.8-1.8,0.8
			c-1.4,0-2.3-1.1-2.3-2.4c0-1.5,1.1-2.8,2.7-2.8s2.6,1.3,2.6,3.3c0,1.7-0.6,2.9-1.3,3.7c-0.6,0.6-1.4,0.9-2.3,1
			c-0.4,0.1-0.7,0.1-1,0.1V192.6z M240.6,188.1c0,1,0.6,1.7,1.5,1.7c0.7,0,1.3-0.3,1.5-0.8c0.1-0.1,0.1-0.2,0.1-0.4
			c0-1.3-0.5-2.4-1.6-2.4C241.2,186.2,240.6,187,240.6,188.1z"/>
		<path class="st1" d="M250.2,186.3c-0.2,0-0.5,0-0.8,0c-1.7,0.3-2.5,1.5-2.7,2.8h0c0.4-0.5,1-0.9,1.9-0.9c1.4,0,2.4,1,2.4,2.5
			c0,1.4-1,2.7-2.6,2.7c-1.7,0-2.8-1.3-2.8-3.3c0-1.5,0.6-2.7,1.3-3.5c0.6-0.6,1.5-1,2.5-1.2c0.3,0,0.6-0.1,0.8-0.1V186.3z
			 M249.9,190.8c0-1.1-0.6-1.8-1.6-1.8c-0.6,0-1.2,0.4-1.5,1c-0.1,0.1-0.1,0.3-0.1,0.5c0,1.3,0.6,2.2,1.7,2.2
			C249.3,192.6,249.9,191.9,249.9,190.8z"/>
		<path class="st1" d="M79.5,199.2v7c0,0.5,0,1.1,0,1.5h-0.9l0-1h0c-0.3,0.6-1,1.1-2,1.1c-1.4,0-2.5-1.2-2.5-3
			c0-1.9,1.2-3.1,2.6-3.1c0.9,0,1.5,0.4,1.8,0.9h0v-3.5H79.5z M78.4,204.3c0-0.1,0-0.3,0-0.4c-0.2-0.7-0.7-1.2-1.5-1.2
			c-1.1,0-1.7,1-1.7,2.2c0,1.2,0.6,2.1,1.7,2.1c0.7,0,1.4-0.5,1.5-1.3c0-0.1,0-0.3,0-0.5V204.3z"/>
		<path class="st1" d="M81.8,205c0,1.4,0.9,2,2,2c0.8,0,1.2-0.1,1.6-0.3l0.2,0.8c-0.4,0.2-1,0.4-1.9,0.4c-1.8,0-2.9-1.2-2.9-2.9
			s1-3.1,2.7-3.1c1.9,0,2.4,1.7,2.4,2.7c0,0.2,0,0.4,0,0.5H81.8z M84.9,204.3c0-0.7-0.3-1.7-1.5-1.7c-1.1,0-1.5,1-1.6,1.7H84.9z"/>
		<path class="st1" d="M87.3,199.2h1.1v8.5h-1.1V199.2z"/>
		<path class="st1" d="M98.3,207.5c-0.4,0.2-1.2,0.4-2.1,0.4c-2.3,0-4-1.4-4-4.1c0-2.5,1.7-4.2,4.2-4.2c1,0,1.6,0.2,1.9,0.4
			l-0.3,0.9c-0.4-0.2-1-0.3-1.6-0.3c-1.9,0-3.2,1.2-3.2,3.3c0,2,1.1,3.3,3.1,3.3c0.6,0,1.3-0.1,1.7-0.3L98.3,207.5z"/>
		<path class="st1" d="M104.7,204.8c0,2.1-1.5,3.1-2.9,3.1c-1.6,0-2.8-1.2-2.8-3c0-1.9,1.3-3.1,2.9-3.1
			C103.6,201.8,104.7,203,104.7,204.8z M100.1,204.8c0,1.3,0.7,2.2,1.8,2.2c1,0,1.8-0.9,1.8-2.3c0-1-0.5-2.2-1.7-2.2
			C100.7,202.6,100.1,203.7,100.1,204.8z M103.5,199.4l-1.5,1.7h-0.8l1.1-1.7H103.5z"/>
		<path class="st1" d="M111.1,199.2v7c0,0.5,0,1.1,0,1.5h-0.9l0-1h0c-0.3,0.6-1,1.1-2,1.1c-1.4,0-2.5-1.2-2.5-3
			c0-1.9,1.2-3.1,2.6-3.1c0.9,0,1.5,0.4,1.8,0.9h0v-3.5H111.1z M110,204.3c0-0.1,0-0.3,0-0.4c-0.2-0.7-0.7-1.2-1.5-1.2
			c-1.1,0-1.7,1-1.7,2.2c0,1.2,0.6,2.1,1.7,2.1c0.7,0,1.4-0.5,1.5-1.3c0-0.1,0-0.3,0-0.5V204.3z"/>
		<path class="st1" d="M114,200.3c0,0.4-0.3,0.6-0.7,0.6c-0.4,0-0.6-0.3-0.6-0.6c0-0.4,0.3-0.7,0.7-0.7
			C113.7,199.6,114,199.9,114,200.3z M112.8,207.7v-5.8h1.1v5.8H112.8z"/>
		<path class="st1" d="M120.6,201.9c0,0.4,0,0.9,0,1.6v3.4c0,1.3-0.3,2.1-0.8,2.7c-0.6,0.5-1.4,0.7-2.1,0.7c-0.7,0-1.5-0.2-1.9-0.5
			l0.3-0.8c0.4,0.2,1,0.5,1.7,0.5c1.1,0,1.9-0.6,1.9-2v-0.6h0c-0.3,0.5-0.9,1-1.8,1c-1.4,0-2.5-1.2-2.5-2.8c0-2,1.3-3.1,2.6-3.1
			c1,0,1.6,0.5,1.8,1h0l0-0.9H120.6z M119.5,204.2c0-0.2,0-0.3-0.1-0.5c-0.2-0.6-0.7-1.1-1.5-1.1c-1,0-1.7,0.9-1.7,2.2
			c0,1.1,0.6,2.1,1.7,2.1c0.6,0,1.2-0.4,1.5-1.1c0.1-0.2,0.1-0.4,0.1-0.6V204.2z"/>
		<path class="st1" d="M127.6,204.8c0,2.1-1.5,3.1-2.9,3.1c-1.6,0-2.8-1.2-2.8-3c0-1.9,1.3-3.1,2.9-3.1
			C126.5,201.8,127.6,203,127.6,204.8z M123,204.8c0,1.3,0.7,2.2,1.8,2.2c1,0,1.8-0.9,1.8-2.3c0-1-0.5-2.2-1.7-2.2
			C123.5,202.6,123,203.7,123,204.8z"/>
		<path class="st1" d="M131.5,199.7c0.5-0.1,1.2-0.2,2-0.2c1,0,1.8,0.2,2.3,0.7c0.4,0.4,0.7,1,0.7,1.7c0,0.7-0.2,1.3-0.6,1.7
			c-0.6,0.6-1.5,0.9-2.5,0.9c-0.3,0-0.6,0-0.8-0.1v3.2h-1V199.7z M132.6,203.6c0.2,0.1,0.5,0.1,0.9,0.1c1.3,0,2-0.6,2-1.7
			c0-1.1-0.8-1.6-1.9-1.6c-0.5,0-0.8,0-1,0.1V203.6z"/>
		<path class="st1" d="M138.1,205c0,1.4,0.9,2,2,2c0.8,0,1.2-0.1,1.6-0.3l0.2,0.8c-0.4,0.2-1,0.4-1.9,0.4c-1.8,0-2.9-1.2-2.9-2.9
			s1-3.1,2.7-3.1c1.9,0,2.4,1.7,2.4,2.7c0,0.2,0,0.4,0,0.5H138.1z M141.2,204.3c0-0.7-0.3-1.7-1.5-1.7c-1.1,0-1.5,1-1.6,1.7H141.2z"
			/>
		<path class="st1" d="M143.6,203.5c0-0.6,0-1.1,0-1.6h0.9l0.1,1h0c0.3-0.6,1-1.1,1.9-1.1c0.8,0,2.1,0.5,2.1,2.5v3.5h-1.1v-3.3
			c0-0.9-0.3-1.7-1.3-1.7c-0.7,0-1.2,0.5-1.4,1.1c0,0.1-0.1,0.3-0.1,0.5v3.5h-1.1V203.5z"/>
		<path class="st1" d="M153.4,207.7l-0.1-0.7h0c-0.3,0.5-0.9,0.9-1.8,0.9c-1.2,0-1.8-0.8-1.8-1.7c0-1.4,1.2-2.2,3.5-2.2v-0.1
			c0-0.5-0.1-1.3-1.3-1.3c-0.5,0-1.1,0.2-1.5,0.4l-0.2-0.7c0.5-0.3,1.2-0.5,1.9-0.5c1.8,0,2.2,1.2,2.2,2.4v2.2c0,0.5,0,1,0.1,1.4
			H153.4z M153.3,204.8c-1.2,0-2.5,0.2-2.5,1.3c0,0.7,0.5,1,1,1c0.8,0,1.2-0.5,1.4-1c0-0.1,0.1-0.2,0.1-0.3V204.8z"/>
		<path class="st1" d="M156,199.2h1.1v8.5H156V199.2z"/>
		<path class="st1" d="M166.4,199.2v7c0,0.5,0,1.1,0,1.5h-0.9l0-1h0c-0.3,0.6-1,1.1-2,1.1c-1.4,0-2.5-1.2-2.5-3
			c0-1.9,1.2-3.1,2.6-3.1c0.9,0,1.5,0.4,1.8,0.9h0v-3.5H166.4z M165.3,204.3c0-0.1,0-0.3,0-0.4c-0.2-0.7-0.7-1.2-1.5-1.2
			c-1.1,0-1.7,1-1.7,2.2c0,1.2,0.6,2.1,1.7,2.1c0.7,0,1.4-0.5,1.5-1.3c0-0.1,0-0.3,0-0.5V204.3z"/>
		<path class="st1" d="M168.7,205c0,1.4,0.9,2,2,2c0.8,0,1.2-0.1,1.6-0.3l0.2,0.8c-0.4,0.2-1,0.4-1.9,0.4c-1.8,0-2.9-1.2-2.9-2.9
			s1-3.1,2.7-3.1c1.9,0,2.4,1.7,2.4,2.7c0,0.2,0,0.4,0,0.5H168.7z M171.8,204.3c0-0.7-0.3-1.7-1.5-1.7c-1.1,0-1.5,1-1.6,1.7H171.8z"
			/>
		<path class="st1" d="M176.7,199.2h1.1v8.5h-1.1V199.2z"/>
		<path class="st1" d="M182.8,207.7l-0.1-0.7h0c-0.3,0.5-0.9,0.9-1.8,0.9c-1.2,0-1.8-0.8-1.8-1.7c0-1.4,1.2-2.2,3.5-2.2v-0.1
			c0-0.5-0.1-1.3-1.3-1.3c-0.5,0-1.1,0.2-1.5,0.4l-0.2-0.7c0.5-0.3,1.2-0.5,1.9-0.5c1.8,0,2.2,1.2,2.2,2.4v2.2c0,0.5,0,1,0.1,1.4
			H182.8z M182.6,204.8c-1.2,0-2.5,0.2-2.5,1.3c0,0.7,0.5,1,1,1c0.8,0,1.2-0.5,1.4-1c0-0.1,0.1-0.2,0.1-0.3V204.8z"/>
		<path class="st1" d="M187.9,207.7v-8.1h1.1l2.6,4.1c0.6,0.9,1.1,1.8,1.5,2.6l0,0c-0.1-1.1-0.1-2.1-0.1-3.3v-3.4h1v8.1h-1.1
			l-2.6-4.1c-0.6-0.9-1.1-1.8-1.5-2.7l0,0c0.1,1,0.1,2,0.1,3.3v3.5H187.9z"/>
		<path class="st1" d="M199,207.7l-0.1-0.7h0c-0.3,0.5-0.9,0.9-1.8,0.9c-1.2,0-1.8-0.8-1.8-1.7c0-1.4,1.2-2.2,3.5-2.2v-0.1
			c0-0.5-0.1-1.3-1.3-1.3c-0.5,0-1.1,0.2-1.5,0.4l-0.2-0.7c0.5-0.3,1.2-0.5,1.9-0.5c1.8,0,2.2,1.2,2.2,2.4v2.2c0,0.5,0,1,0.1,1.4
			H199z M198.8,204.8c-1.2,0-2.5,0.2-2.5,1.3c0,0.7,0.5,1,1,1c0.8,0,1.2-0.5,1.4-1c0-0.1,0.1-0.2,0.1-0.3V204.8z"/>
		<path class="st1" d="M205.7,207.5c-0.3,0.1-0.9,0.3-1.7,0.3c-1.8,0-2.9-1.2-2.9-3c0-1.8,1.2-3.1,3.1-3.1c0.6,0,1.2,0.2,1.5,0.3
			l-0.2,0.8c-0.3-0.1-0.6-0.3-1.2-0.3c-1.3,0-2.1,1-2.1,2.2c0,1.3,0.9,2.2,2,2.2c0.6,0,1-0.2,1.3-0.3L205.7,207.5z"/>
		<path class="st1" d="M208.1,200.3c0,0.4-0.3,0.6-0.7,0.6c-0.4,0-0.6-0.3-0.6-0.6c0-0.4,0.3-0.7,0.7-0.7
			C207.8,199.6,208.1,199.9,208.1,200.3z M206.9,207.7v-5.8h1.1v5.8H206.9z"/>
		<path class="st1" d="M215,204.8c0,2.1-1.5,3.1-2.9,3.1c-1.6,0-2.8-1.2-2.8-3c0-1.9,1.3-3.1,2.9-3.1C213.9,201.8,215,203,215,204.8
			z M210.4,204.8c0,1.3,0.7,2.2,1.8,2.2c1,0,1.8-0.9,1.8-2.3c0-1-0.5-2.2-1.7-2.2C210.9,202.6,210.4,203.7,210.4,204.8z
			 M213.7,199.4l-1.5,1.7h-0.8l1.1-1.7H213.7z"/>
		<path class="st1" d="M216.3,203.5c0-0.6,0-1.1,0-1.6h0.9l0.1,1h0c0.3-0.6,1-1.1,1.9-1.1c0.8,0,2.1,0.5,2.1,2.5v3.5h-1.1v-3.3
			c0-0.9-0.3-1.7-1.3-1.7c-0.7,0-1.2,0.5-1.4,1.1c0,0.1-0.1,0.3-0.1,0.5v3.5h-1.1V203.5z"/>
		<path class="st1" d="M222.7,207.1c0-0.4,0.3-0.8,0.7-0.8c0.4,0,0.7,0.3,0.7,0.8c0,0.4-0.3,0.8-0.7,0.8
			C223,207.8,222.7,207.5,222.7,207.1z"/>
	</g>
	<g>
		<path class="st1" d="M139,78.1h13.1c0.4,0,0.8-0.4,0.8-0.8s-0.4-0.8-0.8-0.8H139c-0.4,0-0.8,0.4-0.8,0.8S138.5,78.1,139,78.1
			L139,78.1z"/>
		<path class="st1" d="M136.1,82.7h16c0.4,0,0.8-0.4,0.8-0.8s-0.3-0.7-0.6-0.7c-0.1,0-0.1,0-0.2,0h-16c-0.4,0-0.8,0.3-0.8,0.8l0,0
			l0,0C135.3,82.3,135.6,82.7,136.1,82.7z"/>
		<path class="st1" d="M153,86.6c0-0.4-0.3-0.8-0.7-0.9c-0.1,0-0.1,0-0.2,0h-16c-0.4,0-0.8,0.3-0.8,0.7l0,0l0,0
			c0,0.4,0.4,0.8,0.8,0.8h16C152.5,87.3,152.9,87,153,86.6z"/>
		<path class="st1" d="M169.5,99.2l-8.8-14.8c-0.2-0.4-0.5-0.7-0.9-0.8v-11c0-2.2-1.8-4.1-4.1-4.1h-19.3c-0.8,0-1.5,0.3-2,0.9
			l-5.2,5.5c-0.5,0.5-0.7,1.2-0.8,1.9V102c0,2.2,1.8,4,4.1,4h23.2c2.1,0,3.8-1.6,4-3.7h7.9c1.2,0,2.1-0.9,2.1-2.1
			C169.7,99.9,169.6,99.5,169.5,99.2L169.5,99.2z M134.5,71.9v3.4h-3.2L134.5,71.9z M155.7,104.4h-23.2c-1.3,0-2.4-1.1-2.4-2.4l0,0
			V77.2h5.3c0.5,0,0.9-0.4,0.9-0.9v-6.2h19.4c1.3,0,2.4,1.1,2.4,2.4v11c-0.5,0.2-0.8,0.5-1.1,0.9l-8.1,14.8c-0.6,1-0.2,2.3,0.8,2.8
			c0.3,0.2,0.7,0.3,1,0.3h7.3C157.9,103.5,156.9,104.4,155.7,104.4z M168.1,100.5c-0.1,0.2-0.3,0.3-0.4,0.2h-16.9
			c-0.2,0-0.3-0.1-0.4-0.2c-0.1-0.2-0.1-0.3,0-0.5l8.1-14.8c0.1-0.2,0.2-0.3,0.4-0.3l0,0c0.2,0,0.3,0.1,0.4,0.2l8.8,14.8
			C168.2,100.1,168.2,100.3,168.1,100.5z"/>
		<path class="st1" d="M159.7,89h-1.4c-0.3,0-0.6,0.3-0.6,0.6c0,0.1,0,0.1,0,0.1l0.7,5.4c0,0.4,0.3,0.7,0.7,0.7
			c0.4,0,0.7-0.3,0.7-0.7l0.6-5.4c0.1-0.3-0.1-0.6-0.4-0.7C159.8,89,159.8,89,159.7,89z"/>
		<path class="st1" d="M159,96.7c-0.7,0-1.2,0.5-1.2,1.2c0,0,0,0,0,0.1l0,0c0,0.7,0.6,1.2,1.2,1.2c0.6,0,1.2-0.6,1.2-1.2l0,0
			C160.3,97.3,159.7,96.7,159,96.7C159.1,96.7,159,96.7,159,96.7z"/>
	</g>
</g>
<g>
	<path class="st0" d="M799.6,216.7H595c-13.1,0-23.8-10.7-23.8-23.8V26.7c0-13.1,10.7-23.8,23.8-23.8h204.5
		c13.1,0,23.8,10.7,23.8,23.8v166.2C823.4,206.1,812.7,216.7,799.6,216.7z"/>
	<text transform="matrix(1 0 0 1 616.6071 102.1722)" class="st1" style="font-family:'Arial-BoldMT'; font-size:24.4114px;">IMPORTANTE</text>
	<rect x="593.9" y="116.7" style="fill:none;" width="206.7" height="62.3"/>
	<text transform="matrix(1 0 0 1 606.914 125.2423)"><tspan x="0" y="0" class="st1" style="font-family:'MyriadPro-Regular'; font-size:12px;">La presentación de un documento o </tspan><tspan x="-12.4" y="14.4" class="st1" style="font-family:'MyriadPro-Regular'; font-size:12px;">certificado, falso o adulterado, constituye </tspan><tspan x="-11.9" y="28.8" class="st1" style="font-family:'MyriadPro-Regular'; font-size:12px;">un DELITO tipificado en el artículo N° 296 </tspan><tspan x="14.7" y="43.2" class="st1" style="font-family:'MyriadPro-Regular'; font-size:12px;">del Código Penal de la Nación.</tspan></text>
	<g>
		<path class="st1" d="M687.2,38.8h13.1c0.4,0,0.8-0.4,0.8-0.8c0-0.4-0.4-0.8-0.8-0.8h-13.1c-0.4,0-0.8,0.4-0.8,0.8
			C686.4,38.4,686.7,38.8,687.2,38.8L687.2,38.8z"/>
		<path class="st1" d="M684.3,43.4h16c0.4,0,0.8-0.4,0.8-0.8c0-0.4-0.3-0.7-0.6-0.7c-0.1,0-0.1,0-0.2,0h-16c-0.4,0-0.8,0.3-0.8,0.8
			l0,0l0,0C683.5,43,683.8,43.4,684.3,43.4z"/>
		<path class="st1" d="M701.2,47.3c0-0.4-0.3-0.8-0.7-0.9c-0.1,0-0.1,0-0.2,0h-16c-0.4,0-0.8,0.3-0.8,0.7l0,0l0,0
			c0,0.4,0.4,0.8,0.8,0.8h16C700.7,48,701.1,47.7,701.2,47.3z"/>
		<path class="st1" d="M717.7,59.9l-8.8-14.8c-0.2-0.4-0.5-0.7-0.9-0.8v-11c0-2.2-1.8-4.1-4.1-4.1h-19.3c-0.8,0-1.5,0.3-2,0.9
			l-5.2,5.5c-0.5,0.5-0.7,1.2-0.8,1.9v25.2c0,2.2,1.8,4,4.1,4h23.2c2.1,0,3.8-1.6,4-3.7h7.9c1.2,0,2.1-0.9,2.1-2.1
			C717.9,60.6,717.8,60.2,717.7,59.9L717.7,59.9z M682.7,32.6V36h-3.2L682.7,32.6z M703.9,65.1h-23.2c-1.3,0-2.4-1.1-2.4-2.4l0,0
			V37.9h5.3c0.5,0,0.9-0.4,0.9-0.9v-6.2h19.4c1.3,0,2.4,1.1,2.4,2.4v11c-0.5,0.2-0.8,0.5-1.1,0.9l-8.1,14.8c-0.6,1-0.2,2.3,0.8,2.8
			c0.3,0.2,0.7,0.3,1,0.3h7.3C706.1,64.2,705.1,65.1,703.9,65.1z M716.3,61.2c-0.1,0.2-0.3,0.3-0.4,0.2H699c-0.2,0-0.3-0.1-0.4-0.2
			c-0.1-0.2-0.1-0.3,0-0.5l8.1-14.8c0.1-0.2,0.2-0.3,0.4-0.3l0,0c0.2,0,0.3,0.1,0.4,0.2l8.8,14.8C716.4,60.8,716.4,61,716.3,61.2z"
			/>
		<path class="st1" d="M707.9,49.7h-1.4c-0.3,0-0.6,0.3-0.6,0.6c0,0.1,0,0.1,0,0.1l0.7,5.4c0,0.4,0.3,0.7,0.7,0.7
			c0.4,0,0.7-0.3,0.7-0.7l0.6-5.4c0.1-0.3-0.1-0.6-0.4-0.7C708,49.7,708,49.7,707.9,49.7z"/>
		<path class="st1" d="M707.2,57.4c-0.7,0-1.2,0.5-1.2,1.2c0,0,0,0,0,0.1l0,0c0,0.7,0.6,1.2,1.2,1.2c0.6,0,1.2-0.6,1.2-1.2l0,0
			C708.5,58,707.9,57.4,707.2,57.4C707.3,57.4,707.2,57.4,707.2,57.4z"/>
	</g>
</g>
</svg>
