<?xml version="1.0" encoding="utf-8"?>
<!-- Generator: Adobe Illustrator 26.0.3, SVG Export Plug-In . SVG Version: 6.00 Build 0)  -->
<svg version="1.1" id="Capa_1" xmlns="http://www.w3.org/2000/svg" xmlns:xlink="http://www.w3.org/1999/xlink" x="0px" y="0px"
	 viewBox="0 0 50 50" style="enable-background:new 0 0 50 50;" xml:space="preserve">
<style type="text/css">
	.st0{fill:#FFFFFF;}
</style>
<g>
	<path class="st0" d="M15.67,7.64c6.22,0,12.44,0,18.66,0c0.09,0.02,0.18,0.05,0.27,0.06c3.94,0.56,6.6,2.72,7.98,6.44
		c0.27,0.72,0.35,1.51,0.51,2.26c0,6.22,0,12.44,0,18.66c-0.02,0.1-0.05,0.2-0.07,0.31c-0.51,4.7-4.55,8.42-9.28,8.45
		c-5.84,0.03-11.69,0.03-17.53-0.01c-0.91-0.01-1.86-0.19-2.73-0.47c-4-1.3-6.58-4.91-6.59-9.11c-0.01-5.65,0-11.31,0-16.96
		c0-0.36,0.02-0.73,0.06-1.09c0.36-3.75,3.1-7.07,6.71-8.11C14.32,7.88,15,7.78,15.67,7.64z M36.73,25.76c0-1.76,0-3.51,0-5.27
		c0-3.69-2.8-6.48-6.49-6.49c-3.5,0-7,0-10.5,0c-3.69,0-6.48,2.8-6.49,6.48c0,3.5,0,7,0,10.5c0,3.69,2.8,6.48,6.49,6.49
		c3.5,0,7,0,10.5,0c3.69,0,6.48-2.8,6.49-6.49C36.73,29.24,36.73,27.5,36.73,25.76z"/>
	<path class="st0" d="M34.61,25.74c0,1.75,0,3.51,0,5.26c0,2.49-1.86,4.35-4.36,4.35c-3.51,0-7.02,0-10.53,0
		c-2.48,0-4.34-1.86-4.34-4.33c0-3.52,0-7.04,0-10.56c0-2.47,1.87-4.33,4.34-4.33c3.52,0,7.04,0,10.56,0c2.45,0,4.32,1.86,4.32,4.31
		C34.62,22.2,34.61,23.97,34.61,25.74z M24.98,31.04c2.92,0.01,5.31-2.37,5.32-5.28c0.01-2.92-2.37-5.31-5.28-5.32
		c-2.93-0.01-5.31,2.36-5.32,5.28C19.69,28.64,22.06,31.03,24.98,31.04z M31.06,20.72c0.57,0.01,1.06-0.46,1.07-1.04
		c0.01-0.57-0.46-1.06-1.03-1.08c-0.59-0.02-1.09,0.47-1.09,1.05C30.02,20.23,30.49,20.71,31.06,20.72z"/>
	<path class="st0" d="M28.18,25.75c0,1.76-1.45,3.18-3.21,3.17c-1.74-0.01-3.16-1.45-3.15-3.19c0-1.76,1.45-3.18,3.21-3.17
		C26.77,22.57,28.18,24,28.18,25.75z"/>
</g>
</svg>
