<?xml version="1.0" encoding="utf-8"?>
<!-- Generator: Adobe Illustrator 27.0.1, SVG Export Plug-In . SVG Version: 6.00 Build 0)  -->
<svg version="1.1" id="Capa_1" xmlns="http://www.w3.org/2000/svg" xmlns:xlink="http://www.w3.org/1999/xlink" x="0px" y="0px"
	 viewBox="0 0 612.7 163.6" style="enable-background:new 0 0 612.7 163.6;" xml:space="preserve">
<style type="text/css">
	.st0{fill:#FFFFFF;}
	.st1{fill:#1176A5;}
	.st2{enable-background:new    ;}
	.st3{fill:#010202;}
</style>
<g>
	<path class="st0" d="M178.2-70.2v6.3h-4.5v-18.7h7.5c1.4,0,2.7,0.3,3.8,0.8s1.9,1.3,2.6,2.2c0.6,1,0.9,2.1,0.9,3.3
		c0,1.8-0.6,3.3-2,4.4c-1.3,1.1-3.1,1.6-5.4,1.6L178.2-70.2L178.2-70.2z M178.2-73.7h2.9c0.9,0,1.5-0.2,2-0.7s0.7-1.1,0.7-1.8
		c0-0.9-0.2-1.6-0.7-2.1s-1.1-0.8-1.9-0.8h-3V-73.7L178.2-73.7z"/>
	<path class="st0" d="M197.8-70.4h-2.4v6.6h-4.5v-18.7h7.4c2.2,0,3.9,0.5,5.2,1.5c1.2,1,1.9,2.4,1.9,4.2c0,1.3-0.3,2.4-0.8,3.2
		c-0.5,0.8-1.4,1.6-2.5,2.1l3.9,7.6v0.2h-4.8L197.8-70.4z M195.4-73.9h2.9c0.9,0,1.5-0.2,1.9-0.7s0.6-1.1,0.6-1.9s-0.2-1.4-0.6-1.9
		s-1.1-0.7-1.9-0.7h-2.9V-73.9z"/>
	<path class="st0" d="M219.6-71.8h-7.1v4.5h8.4v3.5H208v-18.7h12.9v3.5h-8.4v3.9h7.1V-71.8z"/>
	<path class="st0" d="M234.5-71.3h-7.3v7.5h-4.5v-18.7h12.5v3.5h-8v4.3h7.3V-71.3z"/>
	<path class="st0" d="M248.7-71.8h-7.1v4.5h8.4v3.5h-12.9v-18.7H250v3.5h-8.4v3.9h7.1L248.7-71.8L248.7-71.8z"/>
	<path class="st0" d="M267-70.2c-0.1,1.3-0.4,2.4-1,3.4s-1.5,1.8-2.7,2.3s-2.5,0.8-4,0.8c-2.5,0-4.4-0.8-5.8-2.4s-2.1-3.9-2.1-6.8
		v-0.9c0-1.8,0.3-3.4,1-4.8c0.6-1.4,1.6-2.4,2.8-3.2c1.2-0.8,2.6-1.1,4.2-1.1c2.3,0,4.1,0.6,5.5,1.8s2.2,2.8,2.4,4.9h-4.5
		c0-1.1-0.3-2-0.9-2.4c-0.5-0.5-1.4-0.7-2.5-0.7s-1.9,0.4-2.5,1.3c-0.5,0.8-0.8,2.2-0.8,4v1.3c0,2,0.2,3.4,0.8,4.3s1.4,1.3,2.6,1.3
		c1,0,1.8-0.2,2.4-0.7c0.5-0.5,0.8-1.3,0.9-2.3L267-70.2L267-70.2z"/>
	<path class="st0" d="M283.4-79.1h-5.6v15.2h-4.5v-15.2h-5.5v-3.5h15.6V-79.1z"/>
	<path class="st0" d="M300-82.5v12.2c0,1.4-0.3,2.6-0.9,3.6s-1.4,1.8-2.5,2.3s-2.4,0.8-3.9,0.8c-2.3,0-4.1-0.6-5.4-1.8s-2-2.8-2-4.8
		v-12.3h4.5v12.4c0,2.1,1,3.1,2.9,3.1c0.9,0,1.6-0.3,2.1-0.8s0.7-1.3,0.7-2.5v-12.2L300-82.5L300-82.5z"/>
	<path class="st0" d="M309.7-70.4h-2.4v6.6h-4.5v-18.7h7.4c2.2,0,4,0.5,5.2,1.5s1.9,2.4,1.9,4.2c0,1.3-0.3,2.4-0.8,3.2
		c-0.5,0.8-1.4,1.6-2.5,2.1l3.9,7.6v0.2H313L309.7-70.4z M307.3-73.9h2.9c0.9,0,1.5-0.2,1.9-0.7s0.6-1.1,0.6-1.9s-0.2-1.4-0.6-1.9
		s-1.1-0.7-1.9-0.7h-2.9V-73.9z"/>
	<path class="st0" d="M330.6-67.3h-6.2l-1.1,3.5h-4.8l6.9-18.7h4.2l6.9,18.7h-4.8L330.6-67.3z M325.5-70.8h4l-2-6.5L325.5-70.8z"/>
	<path class="st0" d="M360-63.8h-4.5l-6.6-11.6v11.6h-4.5v-18.7h4.5l6.6,11.6v-11.6h4.5V-63.8L360-63.8z"/>
	<path class="st0" d="M373.7-67.3h-6.2l-1.1,3.5h-4.8l6.9-18.7h4.2l6.9,18.7h-4.8L373.7-67.3z M368.6-70.8h4l-2-6.5L368.6-70.8z"/>
	<path class="st0" d="M387.3-68.9l3.7-13.6h5l-6.3,18.7h-4.9l-6.2-18.7h5L387.3-68.9z"/>
	<path class="st0" d="M407.1-67.3h-6.2l-1.1,3.5H395l6.9-18.7h4.2l6.9,18.7h-4.8L407.1-67.3z M402-70.8h4l-2-6.5L402-70.8z"/>
	<path class="st0" d="M418.9-67.3h7.9v3.5h-12.4v-18.7h4.5V-67.3L418.9-67.3z"/>
	<path class="st0" d="M445.8-67.3h-6.2l-1.1,3.5h-4.8l6.9-18.7h4.2l6.9,18.7h-4.8L445.8-67.3z M440.7-70.8h4l-2-6.5L440.7-70.8z"/>
	<path class="st0" d="M460-70.4h-2.4v6.6h-4.5v-18.7h7.4c2.2,0,4,0.5,5.2,1.5s1.9,2.4,1.9,4.2c0,1.3-0.3,2.4-0.8,3.2
		c-0.5,0.8-1.4,1.6-2.5,2.1l3.9,7.6v0.2h-4.8L460-70.4z M457.6-73.9h2.9c0.9,0,1.5-0.2,1.9-0.7s0.6-1.1,0.6-1.9s-0.2-1.4-0.6-1.9
		s-1.1-0.7-1.9-0.7h-2.9V-73.9z"/>
	<path class="st0" d="M485.6-66.1c-0.7,0.8-1.7,1.4-3,1.9s-2.8,0.7-4.4,0.7c-2.5,0-4.4-0.8-5.9-2.2s-2.2-3.6-2.4-6.3v-1.6
		c0-1.8,0.3-3.4,1-4.8c0.6-1.4,1.6-2.4,2.8-3.2c1.2-0.7,2.6-1.1,4.2-1.1c2.3,0,4.1,0.5,5.4,1.6s2,2.7,2.2,4.8h-4.3
		c-0.1-1-0.5-1.8-1-2.2s-1.2-0.7-2.2-0.7c-1.1,0-2,0.5-2.6,1.4s-0.9,2.3-0.9,4.1v1.1c0,1.9,0.3,3.3,1,4.2c0.6,0.9,1.6,1.4,3,1.4
		c1.2,0,2-0.3,2.6-0.8v-2.9H478v-3.1h7.6L485.6-66.1L485.6-66.1z"/>
	<path class="st0" d="M499.8-71.8h-7.1v4.5h8.4v3.5h-12.9v-18.7h12.9v3.5h-8.4v3.9h7.1V-71.8z"/>
	<path class="st0" d="M518.5-63.8H514l-6.6-11.6v11.6h-4.5v-18.7h4.5l6.6,11.6v-11.6h4.5V-63.8z"/>
	<path class="st0" d="M535.7-79.1h-5.6v15.2h-4.5v-15.2H520v-3.5h15.6v3.5H535.7z"/>
	<path class="st0" d="M542.4-63.8h-4.5v-18.7h4.5V-63.8z"/>
	<path class="st0" d="M561.1-63.8h-4.5L550-75.5v11.6h-4.5v-18.7h4.5l6.6,11.6v-11.6h4.5V-63.8z"/>
	<path class="st0" d="M574.8-67.3h-6.2l-1.1,3.5h-4.8l6.9-18.7h4.2l6.9,18.7h-4.8L574.8-67.3z M569.7-70.8h4l-2-6.5L569.7-70.8z"/>
	<path class="st0" d="M184.4-35.8h-6.2l-1.1,3.5h-4.8l6.9-18.7h4.2l6.9,18.7h-4.8L184.4-35.8z M179.2-39.2h4l-2-6.5L179.2-39.2z"/>
	<path class="st0" d="M213.3-51v12.2c0,1.4-0.3,2.6-0.9,3.6c-0.6,1-1.4,1.8-2.5,2.3s-2.4,0.8-3.9,0.8c-2.3,0-4.1-0.6-5.4-1.8
		s-2-2.8-2-4.8V-51h4.5v12.4c0.1,2,1,3.1,2.9,3.1c0.9,0,1.6-0.3,2.1-0.8s0.7-1.3,0.7-2.5V-51H213.3L213.3-51z"/>
	<path class="st0" d="M238-47.5h-5.6v15.2h-4.5v-15.2h-5.5V-51H238V-47.5z"/>
	<path class="st0" d="M262.6-41.2c0,1.8-0.3,3.4-1,4.8s-1.6,2.5-2.9,3.2c-1.2,0.8-2.7,1.1-4.3,1.1s-3-0.4-4.2-1.1s-2.2-1.8-2.9-3.1
		s-1.1-2.9-1.1-4.7v-1c0-1.8,0.3-3.5,1-4.8c0.7-1.4,1.6-2.5,2.9-3.2c1.2-0.8,2.7-1.1,4.3-1.1c1.6,0,3,0.4,4.2,1.1s2.2,1.8,2.9,3.2
		s1,3,1,4.8L262.6-41.2L262.6-41.2z M258-42c0-1.9-0.3-3.3-0.9-4.2s-1.5-1.5-2.7-1.5c-2.3,0-3.4,1.7-3.6,5.1v1.4
		c0,1.8,0.3,3.2,0.9,4.2c0.6,1,1.5,1.5,2.7,1.5c1.1,0,2-0.5,2.6-1.5s0.9-2.4,0.9-4.2L258-42L258-42z"/>
	<path class="st0" d="M279.1-38.9h-2.4v6.6h-4.5V-51h7.4c2.2,0,4,0.5,5.2,1.5s1.9,2.4,1.9,4.2c0,1.3-0.3,2.4-0.8,3.2
		s-1.4,1.5-2.5,2.1l3.9,7.5v0.2h-4.8L279.1-38.9z M276.6-42.3h2.9c0.9,0,1.5-0.2,1.9-0.7s0.6-1.1,0.6-1.9c0-0.8-0.2-1.4-0.6-1.9
		s-1.1-0.7-1.9-0.7h-2.9V-42.3z"/>
	<path class="st0" d="M301.3-32.3h-4.5V-51h4.5V-32.3z"/>
	<path class="st0" d="M311.6-32.3V-51h6c1.6,0,3.1,0.4,4.5,1.1c1.3,0.8,2.4,1.8,3.1,3.2s1.1,2.9,1.1,4.6v0.9c0,1.7-0.4,3.2-1.1,4.6
		c-0.7,1.4-1.7,2.4-3.1,3.2c-1.3,0.8-2.8,1.2-4.4,1.2L311.6-32.3L311.6-32.3z M316.1-47.5v11.8h1.6c1.3,0,2.3-0.5,3-1.4s1-2.3,1-4.1
		V-42c0-1.8-0.4-3.2-1-4.1s-1.7-1.4-3-1.4H316.1L316.1-47.5z"/>
	<path class="st0" d="M346.2-35.8H340l-1.1,3.5h-4.8L341-51h4.2l6.9,18.7h-4.8L346.2-35.8z M341.1-39.2h4l-2-6.5L341.1-39.2z"/>
	<path class="st0" d="M360.7-32.3V-51h6c1.6,0,3.1,0.4,4.5,1.1c1.3,0.8,2.4,1.8,3.1,3.2s1.1,2.9,1.1,4.6v0.9c0,1.7-0.4,3.2-1.1,4.6
		c-0.7,1.4-1.7,2.4-3.1,3.2c-1.3,0.8-2.8,1.2-4.4,1.2L360.7-32.3L360.7-32.3z M365.2-47.5v11.8h1.6c1.3,0,2.3-0.5,3-1.4s1-2.3,1-4.1
		V-42c0-1.8-0.4-3.2-1-4.1s-1.7-1.4-3-1.4H365.2L365.2-47.5z"/>
	<path class="st0" d="M404.6-51l4.2,13l4.2-13h5.9v18.7h-4.5v-4.4l0.4-8.9l-4.5,13.3h-3l-4.5-13.3l0.4,9v4.4h-4.5V-51H404.6z"/>
	<path class="st0" d="M439.8-35.8h-6.2l-1.1,3.5h-4.8l6.9-18.7h4.2l6.9,18.7h-4.8L439.8-35.8z M434.7-39.2h4l-2-6.5L434.7-39.2z"/>
	<path class="st0" d="M461.2-38.9h-2.4v6.6h-4.5V-51h7.4c2.2,0,4,0.5,5.2,1.5s1.9,2.4,1.9,4.2c0,1.3-0.3,2.4-0.8,3.2
		s-1.4,1.5-2.5,2.1l3.9,7.5v0.2h-4.8L461.2-38.9z M458.8-42.3h2.9c0.9,0,1.5-0.2,1.9-0.7s0.6-1.1,0.6-1.9c0-0.8-0.2-1.4-0.6-1.9
		s-1.1-0.7-1.9-0.7h-2.9V-42.3z"/>
	<path class="st0" d="M483.5-32.3H479V-51h4.5V-32.3z M481.8-56h4.6l-3.6,4h-3.5L481.8-56z"/>
	<path class="st0" d="M508.1-47.5h-5.6v15.2H498v-15.2h-5.5V-51h15.6V-47.5z"/>
	<path class="st0" d="M522-32.3h-4.5V-51h4.5V-32.3z"/>
	<path class="st0" d="M538.3-51l4.2,13l4.2-13h5.9v18.7H548v-4.4l0.4-8.9l-4.5,13.3h-3l-4.5-13.3l0.4,9v4.4h-4.5V-51
		C532.4-51,538.3-51,538.3-51z"/>
	<path class="st0" d="M573.5-35.8h-6.2l-1.1,3.5h-4.8l6.9-18.7h4.2l6.9,18.7h-4.8L573.5-35.8z M568.4-39.2h4l-2-6.5L568.4-39.2z"/>
</g>
<path class="st0" d="M71.2-30.7c4.4,3.8,9.3,0.5,14.1,2.2c-1,1.4-1.7,2.9-2.7,3.9c-4.5,4.3-10,5.9-16,5.6c-0.6,0-1.7-1.1-1.8-1.8
	c0-1.9-1.2-2-2.6-2.3c-2.8-0.6-5.9-1-8.3-2.5c-3.4-2-6.9-2.3-10.5-2.5c-1.6-0.1-3.1,0-5,0c0.2-2.5,0.3-4.8,0.7-6.9
	c0.5-2.5,0.1-4.6-0.7-7c-1.1-3.1-1.6-6.5-1.8-9.8c-0.2-2.3-0.3-4-3.8-3.4c0.4-2.3,0.7-4.2,1.2-6c1.4-5.1,4.8-8.9,9-12
	c0.7-0.5,2-0.4,3-0.5c0,0.8,0.1,1.7,0.1,2.6c-0.2,2.5-0.3,5-0.6,7.5C45.3-62,44.9-60.3,44-59c-2.5,3.6,0.7,12.9,5.1,13.9
	c0.5,0.1,1.3-0.2,1.8-0.5c10.1-8,20.2-16.1,30.6-24.5c-1.3-1.2-2.5-2.3-3.8-3.5c-2,1.2-3.8,4.2-6.3,1.4c-2-2.2,0.1-3.9,1.6-5.7
	c-1.5-1.6-2.6-2.9-5.3-2.4c-4.4,0.8-8.4-2.6-9.3-7.2c-0.7-3.5,1.7-7.2,5.3-8.3c5-1.4,10.8,2.7,10.5,8.1c-0.2,3.2,1.7,3.9,3.4,5.4
	c1.8-1.4,3.5-3.5,5.7-1.4C85-82,84-80,82.6-78.4c5.2,4.7,3.6,4.7,9.5-0.4c-1.3-1.7-2.6-3.6-0.6-5.4c2.2-2,3.9,0.2,5.7,1.5
	c1.7-1.5,3.8-2.1,3.3-5.4c-0.6-4.1,3.5-8,7.7-8.3c4-0.3,7.3,2.2,8.1,6.3c0.9,5.1-3.9,10.2-9.3,9.4c-2.6-0.4-3.9,0.6-5.2,2.4
	c1.2,1.8,3.8,3.6,1.3,5.9s-4.2-0.5-6.1-1.8c-1.4,1.3-2.8,2.6-4.4,4.1c5.2,4.2,10.2,8.2,15.2,12.2c5.1,4.1,10.2,8.1,15.2,12.3
	c1.9,1.6,3.4,1.3,5-0.2c3-2.9,3.7-6.6,3.8-10.5c0-0.3,0-0.8-0.2-1c-2.8-2.3-2.2-5.5-2.3-8.6c-0.1-1.5-0.4-3-0.6-4.5
	c-0.1-0.9,0.1-1.8,0.2-2.7c0.9,0.2,2,0.1,2.7,0.6c4.1,2.9,7.3,6.6,8.9,11.5c0.6,1.9,0.9,4,1.4,6c-3.6,1.1-3.3,1.1-3.8,4.6
	c-0.5,3.7-1.9,7.2-2.4,10.9c-0.4,2.7,0.1,5.6,0.2,8.3c0.1,1.1,0.2,2.3,0.4,3.8c-3.2,0-6.1-0.1-9,0.1c-1.5,0.1-3.1,0.6-4.4,1.3
	c-3.4,2-6.8,3.5-10.8,3.6c-1.4,0-2,0.5-2.2,2c-0.1,0.8-1.2,2-1.8,2.1c-6.3,0-12.1-1.4-16.6-6.2c-0.8-0.9-1.4-2-2.2-3.2
	c4.7-2.2,9.8,1.4,13.9-2.1c2.2,3.3,5.1,2.1,7.7,0.8c1.9-0.9,3.7-2.2,5.4-3.6c2.6-2,2.5-3.2,0.1-5.4c-5.4-5-10.8-9.9-16.3-14.9
	c-4.4-4-8.7-8-13.2-12.1c-7.5,6.8-14.8,13.5-22.1,20.2c-2.4,2.2-4.8,4.4-7.2,6.6c-1.9,1.8-2,3.1,0.2,4.8c2.2,1.6,4.5,3.2,7,4.3
	C67.1-28.2,69.6-27.2,71.2-30.7z M109-85.6c-0.4,0.4-0.7,0.7-1.1,1.1c3.3-0.9,4.8-2.3,4.5-4.4c-0.2-1.9-1.4-3-3.3-3.2
	c-2.1-0.3-3.8,1.4-4.5,4.3c0.5-0.5,1-1,1.5-1.5C107-88,108-86.8,109-85.6z M66.5-84.1c1.2-1.3,2.4-2.5,3.6-3.7
	c-1-2.8-2.6-4.1-4.6-3.8c-1.8,0.3-2.8,1.4-3,3.2C62.1-86.3,63.2-85.2,66.5-84.1z"/>
<g>
	<path class="st0" d="M146.85,113.12c5.1,4.4,10.9,0.6,16.5,2.6c-1.2,1.7-2,3.3-3.2,4.5c-5.2,5-11.7,6.9-18.8,6.6
		c-0.7,0-2-1.3-2.1-2.1c0-2.3-1.4-2.3-3-2.6c-3.3-0.8-6.9-1.2-9.7-2.9c-3.9-2.4-8-2.7-12.3-2.9c-1.8-0.1-3.7,0-5.8,0
		c0.3-2.9,0.3-5.6,0.9-8.1c0.6-2.9,0.1-5.4-0.8-8.2c-1.3-3.6-1.9-7.6-2.1-11.4c-0.2-2.8-0.4-4.7-4.5-3.9c0.5-2.6,0.8-4.9,1.4-7.1
		c1.7-6,5.6-10.4,10.5-14c0.8-0.6,2.3-0.4,3.4-0.6c0,1,0.1,2,0.1,3c-0.2,2.9-0.3,5.8-0.8,8.7c-0.3,1.9-0.7,3.9-1.7,5.4
		c-2.9,4.2,0.8,15.1,5.9,16.3c0.6,0.1,1.6-0.2,2.1-0.6c11.9-9.5,23.8-19,36-28.8c-1.6-1.4-2.9-2.7-4.4-4.1c-2.3,1.4-4.5,4.9-7.4,1.7
		c-2.3-2.6,0.1-4.6,1.9-6.6c-1.7-1.9-3.1-3.4-6.2-2.8c-5.1,1-9.8-3-10.9-8.4c-0.8-4.1,2-8.4,6.2-9.7c5.9-1.7,12.7,3.1,12.2,9.4
		c-0.3,3.7,1.9,4.6,4,6.3c2.1-1.6,4.1-4.1,6.7-1.7c2.1,2,0.9,4.3-0.8,6.1c6,5.5,4.2,5.5,11.1-0.4c-1.5-1.9-3.1-4.2-0.7-6.3
		c2.6-2.3,4.6,0.2,6.7,1.8c1.9-1.8,4.4-2.5,3.9-6.3c-0.7-4.8,4.1-9.3,9.1-9.8c4.7-0.4,8.5,2.6,9.4,7.3c1.1,5.9-4.5,12-10.9,11
		c-3-0.4-4.5,0.7-6.1,2.8c1.4,2.1,4.4,4.2,1.5,6.9s-4.9-0.5-7.2-2.1c-1.6,1.5-3.3,3-5.1,4.8c6.1,4.8,11.9,9.5,17.8,14.2
		c5.9,4.8,11.9,9.5,17.8,14.3c2.2,1.9,4,1.5,5.9-0.3c3.5-3.4,4.4-7.7,4.5-12.3c0-0.4,0-0.9-0.2-1.1c-3.3-2.7-2.6-6.5-2.7-10.1
		c-0.1-1.7-0.5-3.5-0.6-5.2c-0.1-1,0.1-2.1,0.2-3.1c1.1,0.2,2.4,0.2,3.2,0.7c4.8,3.4,8.6,7.7,10.4,13.4c0.7,2.3,1.1,4.7,1.6,7
		c-4.2,1.3-3.9,1.3-4.5,5.4c-0.6,4.3-2.3,8.4-2.9,12.7c-0.4,3.2,0.1,6.5,0.3,9.8c0.1,1.3,0.3,2.7,0.5,4.5c-3.7,0-7.1-0.2-10.5,0.1
		c-1.8,0.1-3.6,0.7-5.2,1.6c-3.9,2.3-8,4.1-12.6,4.2c-1.7,0-2.4,0.6-2.6,2.3c-0.1,0.9-1.3,2.4-2.1,2.4c-7.3,0-14.1-1.7-19.4-7.3
		c-0.9-1-1.6-2.3-2.6-3.8c5.5-2.6,11.4,1.6,16.3-2.5c2.6,3.9,5.9,2.4,9,0.9c2.2-1.1,4.4-2.6,6.3-4.2c3-2.4,3-3.7,0.1-6.4
		c-6.3-5.8-12.7-11.6-19-17.4c-5.1-4.7-10.2-9.3-15.4-14.1c-8.8,8-17.3,15.8-25.9,23.7c-2.8,2.6-5.6,5.1-8.4,7.8
		c-2.2,2.2-2.3,3.7,0.2,5.6c2.6,1.9,5.2,3.8,8.1,5.1C141.95,115.92,145.05,117.12,146.85,113.12z M190.95,48.92
		c-0.4,0.4-0.9,0.9-1.3,1.3c3.9-1.1,5.6-2.7,5.2-5.1c-0.3-2.2-1.7-3.5-3.8-3.8c-2.4-0.3-4.4,1.6-5.3,5.1c0.6-0.6,1.1-1.1,1.7-1.7
		C188.75,46.02,189.85,47.42,190.95,48.92z M141.35,50.62c1.4-1.5,2.8-2.9,4.1-4.4c-1.2-3.3-3-4.8-5.4-4.4c-2.1,0.3-3.2,1.7-3.6,3.7
		C136.15,48.02,137.55,49.32,141.35,50.62z"/>
	<g>
		<path class="st0" d="M271.45,65.72v9.6h-6.8v-28.3h11.3c2.2,0,4.1,0.4,5.7,1.2s3,1.9,3.9,3.4s1.4,3.1,1.4,5c0,2.8-1,5-3,6.6
			s-4.7,2.5-8.1,2.5H271.45L271.45,65.72z M271.45,60.42h4.5c1.3,0,2.3-0.3,3-1s1-1.6,1-2.8c0-1.3-0.4-2.4-1.1-3.2s-1.7-1.2-2.9-1.2
			h-4.5V60.42L271.45,60.42z"/>
		<path class="st0" d="M301.05,65.32h-3.7v10h-6.8v-28.3h11.1c3.4,0,6,0.7,7.9,2.2s2.8,3.6,2.8,6.3c0,2-0.4,3.6-1.2,4.9
			c-0.8,1.3-2,2.3-3.7,3.1l5.9,11.4v0.3h-7.3L301.05,65.32z M297.35,60.12h4.3c1.3,0,2.3-0.3,2.9-1s1-1.6,1-2.8s-0.3-2.2-1-2.9
			s-1.6-1-2.9-1h-4.3V60.12L297.35,60.12z"/>
		<path class="st0" d="M333.95,63.32h-10.7v6.8h12.7v5.2h-19.5v-28.3h19.5v5.3h-12.7v6h10.7V63.32z"/>
		<path class="st0" d="M356.55,64.02h-11v11.3h-6.8v-28.3h18.9v5.3h-12.1v6.5h11V64.02L356.55,64.02z"/>
		<path class="st0" d="M377.95,63.32h-10.7v6.8h12.7v5.2h-19.5v-28.3h19.5v5.3h-12.7v6h10.7V63.32z"/>
		<path class="st0" d="M405.55,65.72c-0.1,2-0.6,3.7-1.6,5.2s-2.3,2.7-4.1,3.5c-1.8,0.8-3.8,1.2-6,1.2c-3.7,0-6.6-1.2-8.8-3.6
			c-2.1-2.4-3.2-5.8-3.2-10.2v-1.4c0-2.8,0.5-5.2,1.5-7.3s2.4-3.7,4.2-4.8s3.9-1.7,6.3-1.7c3.4,0,6.2,0.9,8.3,2.7s3.3,4.3,3.5,7.5
			h-6.8c0-1.7-0.5-3-1.3-3.7c-0.8-0.8-2.1-1.1-3.7-1.1c-1.7,0-2.9,0.6-3.7,1.9s-1.2,3.3-1.2,6.1v2c0,3,0.4,5.2,1.1,6.5
			c0.8,1.3,2.1,1.9,3.9,1.9c1.6,0,2.8-0.4,3.6-1.1c0.8-0.7,1.3-1.9,1.3-3.5L405.55,65.72L405.55,65.72z"/>
		<path class="st0" d="M430.45,52.32h-8.5v23h-6.8v-23h-8.3v-5.3h23.6L430.45,52.32L430.45,52.32z"/>
		<path class="st0" d="M455.45,47.02v18.5c0,2.1-0.5,3.9-1.3,5.4c-0.9,1.5-2.2,2.7-3.8,3.5c-1.7,0.8-3.6,1.2-5.9,1.2
			c-3.4,0-6.1-0.9-8.1-2.7s-3-4.2-3-7.3v-18.6h6.9v18.8c0.1,3.1,1.5,4.6,4.3,4.6c1.4,0,2.5-0.4,3.2-1.2s1.1-2,1.1-3.8v-18.4H455.45z
			"/>
		<path class="st0" d="M470.25,65.32h-3.7v10h-6.8v-28.3h11.1c3.4,0,6,0.7,7.9,2.2s2.8,3.6,2.8,6.3c0,2-0.4,3.6-1.2,4.9
			c-0.8,1.3-2,2.3-3.7,3.1l5.9,11.4v0.3h-7.3L470.25,65.32z M466.55,60.12h4.3c1.3,0,2.3-0.3,2.9-1s1-1.6,1-2.8s-0.3-2.2-1-2.9
			s-1.6-1-2.9-1h-4.3V60.12L466.55,60.12z"/>
		<path class="st0" d="M501.75,70.02h-9.3l-1.6,5.3h-7.3l10.4-28.3h6.4l10.4,28.3h-7.3L501.75,70.02z M493.95,64.82h6.1l-3-9.8
			L493.95,64.82z"/>
		<path class="st0" d="M280.25,102.22h-4.7l-6.9-12.1v12.1h-4.7v-19.4h4.7l6.9,12.1v-12.1h4.7L280.25,102.22L280.25,102.22z"/>
		<path class="st0" d="M294.45,98.62h-6.4l-1.1,3.6h-5l7.1-19.4h4.4l7.2,19.4h-5L294.45,98.62z M289.15,94.92h4.2l-2.1-6.7
			L289.15,94.92z"/>
		<path class="st0" d="M308.55,96.92l3.9-14.1h5.2l-6.5,19.4h-5.2l-6.5-19.4h5.2L308.55,96.92z"/>
		<path class="st0" d="M329.15,98.62h-6.4l-1.1,3.6h-5l7.1-19.4h4.4l7.2,19.4h-5L329.15,98.62z M323.85,94.92h4.2l-2.1-6.7
			L323.85,94.92z"/>
		<path class="st0" d="M341.45,98.62h8.2v3.6h-12.8v-19.4h4.7L341.45,98.62L341.45,98.62z"/>
		<path class="st0" d="M369.35,98.62h-6.4l-1.1,3.6h-5l7.1-19.4h4.4l7.2,19.4h-5L369.35,98.62z M364.05,94.92h4.2l-2.1-6.7
			L364.05,94.92z"/>
		<path class="st0" d="M384.15,95.32h-2.5v6.9h-4.7v-19.4h7.6c2.3,0,4.1,0.5,5.4,1.5s2,2.5,2,4.3c0,1.3-0.3,2.5-0.8,3.4
			s-1.4,1.6-2.6,2.2l4.1,7.8v0.2h-5L384.15,95.32z M381.65,91.72h3c0.9,0,1.6-0.2,2-0.7s0.7-1.1,0.7-2s-0.2-1.5-0.7-2
			s-1.1-0.7-2-0.7h-3V91.72L381.65,91.72z"/>
		<path class="st0" d="M410.75,99.82c-0.7,0.8-1.8,1.4-3.2,1.9c-1.4,0.5-2.9,0.7-4.6,0.7c-2.5,0-4.6-0.8-6.1-2.3
			c-1.5-1.6-2.3-3.7-2.4-6.5v-1.7c0-1.9,0.3-3.6,1-5s1.6-2.5,2.9-3.3s2.7-1.2,4.4-1.2c2.4,0,4.3,0.6,5.6,1.7c1.3,1.1,2.1,2.8,2.3,5
			h-4.5c-0.2-1.1-0.5-1.9-1-2.3c-0.5-0.5-1.3-0.7-2.3-0.7c-1.2,0-2.1,0.5-2.7,1.5s-1,2.4-1,4.3v1.2c0,1.9,0.3,3.4,1,4.4
			s1.7,1.5,3.1,1.5c1.2,0,2.1-0.3,2.7-0.8v-3h-3.3v-3.2h7.9L410.75,99.82L410.75,99.82z"/>
		<path class="st0" d="M425.45,93.92h-7.4v4.6h8.7v3.6h-13.4v-19.4h13.4v3.6h-8.7v4.1h7.4V93.92L425.45,93.92z"/>
		<path class="st0" d="M444.95,102.22h-4.7l-6.9-12.1v12.1h-4.7v-19.4h4.7l6.9,12.1v-12.1h4.7V102.22z"/>
		<path class="st0" d="M462.85,86.42h-5.9v15.8h-4.7v-15.8h-5.7v-3.6h16.2v3.6H462.85z"/>
		<path class="st0" d="M469.75,102.22h-4.7v-19.4h4.7V102.22z"/>
		<path class="st0" d="M489.25,102.22h-4.7l-6.9-12.1v12.1h-4.7v-19.4h4.7l6.9,12.1v-12.1h4.7V102.22z"/>
		<path class="st0" d="M503.55,98.62h-6.4l-1.1,3.6h-5l7.1-19.4h4.4l7.2,19.4h-5L503.55,98.62z M498.25,94.92h4.2l-2.1-6.7
			L498.25,94.92z"/>
		<path class="st0" d="M272.95,123.12h-6.1l-1.3,3.7h-2.9l6-15.8h2.5l6,15.8h-2.9L272.95,123.12z M267.65,120.82h4.6l-2.3-6.6
			L267.65,120.82z"/>
		<path class="st0" d="M290.95,110.92v10.6c0,1.7-0.5,3-1.6,4s-2.5,1.5-4.3,1.5s-3.2-0.5-4.3-1.4c-1.1-1-1.6-2.3-1.6-4v-10.5h2.7
			v10.6c0,1.1,0.3,1.9,0.8,2.4s1.3,0.8,2.4,0.8c2.1,0,3.2-1.1,3.2-3.3v-10.5L290.95,110.92L290.95,110.92z"/>
		<path class="st0" d="M305.95,113.22h-4.9v13.6h-2.7v-13.6h-4.9v-2.2h12.5V113.22L305.95,113.22z"/>
		<path class="st0" d="M320.95,119.32c0,1.6-0.3,2.9-0.8,4.1c-0.5,1.2-1.3,2.1-2.3,2.7c-1,0.6-2.1,0.9-3.4,0.9s-2.4-0.3-3.4-0.9
			c-1-0.6-1.8-1.5-2.3-2.7s-0.8-2.5-0.8-4v-0.9c0-1.5,0.3-2.9,0.8-4.1c0.5-1.2,1.3-2.1,2.3-2.7c1-0.6,2.1-0.9,3.4-0.9
			s2.4,0.3,3.4,0.9c1,0.6,1.8,1.5,2.3,2.7s0.8,2.5,0.8,4.1V119.32L320.95,119.32z M318.25,118.42c0-1.8-0.3-3.1-1-4
			s-1.6-1.4-2.8-1.4c-1.2,0-2.1,0.5-2.8,1.4c-0.7,0.9-1,2.2-1,3.9v0.9c0,1.7,0.3,3.1,1,4s1.6,1.4,2.8,1.4c1.2,0,2.1-0.5,2.8-1.4
			c0.6-0.9,1-2.3,1-4.1V118.42L318.25,118.42z"/>
		<path class="st0" d="M330.15,120.72h-3.1v6.1h-2.7v-15.8h5.5c1.8,0,3.2,0.4,4.2,1.2s1.5,2,1.5,3.6c0,1.1-0.2,1.9-0.8,2.7
			c-0.5,0.7-1.2,1.3-2.1,1.6l3.5,6.6v0.1h-2.9L330.15,120.72z M327.15,118.52h2.8c0.9,0,1.6-0.2,2.2-0.7c0.5-0.5,0.8-1.1,0.8-1.9
			c0-0.8-0.2-1.5-0.7-2s-1.2-0.7-2.1-0.7h-2.9L327.15,118.52L327.15,118.52z"/>
		<path class="st0" d="M341.85,126.72h-2.7v-15.7h2.7V126.72z"/>
		<path class="st0" d="M345.85,126.72v-15.7h4.7c1.4,0,2.6,0.3,3.7,0.9c1.1,0.6,1.9,1.5,2.5,2.6s0.9,2.4,0.9,3.9v0.8
			c0,1.5-0.3,2.8-0.9,3.9c-0.6,1.1-1.5,2-2.5,2.6c-1.1,0.6-2.4,0.9-3.8,0.9h-4.6V126.72z M348.65,113.22v11.4h1.8
			c1.4,0,2.5-0.4,3.3-1.3c0.8-0.9,1.2-2.2,1.2-3.9v-0.9c0-1.7-0.4-3-1.1-3.9c-0.8-0.9-1.8-1.4-3.2-1.4L348.65,113.22L348.65,113.22z
			"/>
		<path class="st0" d="M369.65,123.12h-6.1l-1.3,3.7h-2.9l6-15.8h2.5l6,15.8h-2.9L369.65,123.12z M364.35,120.82h4.6l-2.3-6.6
			L364.35,120.82z"/>
		<path class="st0" d="M376.25,126.72v-15.7h4.7c1.4,0,2.6,0.3,3.7,0.9c1.1,0.6,1.9,1.5,2.5,2.6s0.9,2.4,0.9,3.9v0.8
			c0,1.5-0.3,2.8-0.9,3.9c-0.6,1.1-1.5,2-2.5,2.6c-1.1,0.6-2.4,0.9-3.8,0.9h-4.6V126.72z M379.05,113.22v11.4h1.8
			c1.4,0,2.5-0.4,3.3-1.3c0.8-0.9,1.2-2.2,1.2-3.9v-0.9c0-1.7-0.4-3-1.1-3.9c-0.8-0.9-1.8-1.4-3.2-1.4L379.05,113.22L379.05,113.22z
			"/>
		<path class="st0" d="M401.25,110.92l4.6,12.1l4.5-12.1h3.5v15.8h-2.7v-5.2l0.3-7l-4.7,12.2h-2l-4.6-12.2l0.3,6.9v5.2h-2.7v-15.8
			h3.5V110.92z"/>
		<path class="st0" d="M426.85,123.12h-6.1l-1.3,3.7h-2.9l6-15.8h2.5l6,15.8h-2.9L426.85,123.12z M421.45,120.82h4.6l-2.3-6.6
			L421.45,120.82z"/>
		<path class="st0" d="M439.25,120.72h-3.1v6.1h-2.7v-15.8h5.5c1.8,0,3.2,0.4,4.2,1.2s1.5,2,1.5,3.6c0,1.1-0.2,1.9-0.8,2.7
			c-0.5,0.7-1.2,1.3-2.1,1.6l3.5,6.6v0.1h-2.9L439.25,120.72z M436.15,118.52h2.8c0.9,0,1.6-0.2,2.2-0.7c0.5-0.5,0.8-1.1,0.8-1.9
			c0-0.8-0.2-1.5-0.7-2s-1.2-0.7-2.1-0.7h-2.9L436.15,118.52L436.15,118.52z"/>
		<path class="st0" d="M450.85,126.72h-2.7v-15.7h2.7V126.72z M450.25,106.62h3l-3,3.3h-2.1L450.25,106.62z"/>
		<path class="st0" d="M465.95,113.22h-4.9v13.6h-2.7v-13.6h-4.9v-2.2h12.5V113.22L465.95,113.22z"/>
		<path class="st0" d="M471.65,126.72h-2.7v-15.7h2.7V126.72z"/>
		<path class="st0" d="M479.25,110.92l4.6,12.1l4.5-12.1h3.5v15.8h-2.7v-5.2l0.3-7l-4.7,12.2h-2l-4.6-12.2l0.3,6.9v5.2h-2.7v-15.8
			h3.5V110.92z"/>
		<path class="st0" d="M504.85,123.12h-6.1l-1.3,3.7h-2.9l6-15.8h2.5l6,15.8h-2.9L504.85,123.12z M499.45,120.82h4.6l-2.3-6.6
			L499.45,120.82z"/>
	</g>
</g>
<polygon class="st1" points="121.8,376.5 110,376.5 143.3,283.9 155,283.9 "/>
<polygon class="st1" points="202.8,376.5 130.9,376.5 164.1,283.9 236,283.9 "/>
<g>
	<g class="st2">
		<path class="st3" d="M244.8,284.4h12c2.6,0,4.6,1,5.9,2.9c1.3,1.9,1.9,4.7,1.9,8.2c0,3.6-0.7,6.5-2.1,8.5
			c-1.4,2.1-3.6,3.1-6.5,3.1h-3.9v13.4h-7.2v-36.1H244.8z M252.1,299.8h1.8c1.4,0,2.4-0.4,2.9-1.1c0.5-0.7,0.8-1.7,0.8-2.9
			c0-1.1-0.2-2.1-0.7-2.9c-0.5-0.8-1.4-1.2-2.8-1.2H252v8.1H252.1z"/>
		<path class="st3" d="M268.5,320.5v-36.1h12c2.2,0,3.9,0.3,5.1,0.9c1.2,0.6,2.1,1.7,2.8,3.3s1.1,3.5,1.1,5.8c0,2-0.3,3.7-0.8,5.2
			s-1.3,2.6-2.3,3.5c-0.6,0.6-1.5,1-2.5,1.4c0.9,0.4,1.5,0.9,1.9,1.3c0.3,0.3,0.6,0.9,1.2,1.9c0.5,1,0.8,1.7,1,2.2l3.5,10.5h-8.1
			l-3.9-11c-0.5-1.4-0.9-2.4-1.3-2.8c-0.5-0.6-1.1-0.8-1.8-0.8h-0.6v14.6h-7.3V320.5z M275.7,299.1h3c0.3,0,1-0.2,1.9-0.5
			c0.5-0.1,0.9-0.5,1.2-1.1c0.3-0.6,0.5-1.3,0.5-2.1c0-1.2-0.2-2.1-0.7-2.7c-0.5-0.6-1.4-0.9-2.7-0.9h-3.2L275.7,299.1L275.7,299.1z
			"/>
		<path class="st3" d="M293.7,284.4H313v7.7h-12v5.7h11.2v7.4H301v7.1h12.4v8.2h-19.7L293.7,284.4L293.7,284.4z"/>
		<path class="st3" d="M317.3,284.4h17.8v7.8h-10.6v6.3h9v7.3h-9v14.7h-7.2L317.3,284.4L317.3,284.4z"/>
		<path class="st3" d="M339,284.4h19.3v7.7h-12.1v5.7h11.2v7.4h-11.2v7.1h12.4v8.2H339V284.4z"/>
		<path class="st3" d="M378.1,305.8l6.3,3c-0.4,2.7-1.1,5-2,6.9c-0.9,1.8-2,3.2-3.4,4.2c-1.4,0.9-3.1,1.4-5.2,1.4
			c-2.5,0-4.6-0.6-6.2-1.7s-3-3.1-4.2-6s-1.8-6.5-1.8-11c0-6,1-10.6,3.1-13.8c2.1-3.2,5-4.8,8.7-4.8c2.9,0,5.2,0.9,6.9,2.8
			c1.7,1.8,2.9,4.7,3.7,8.5l-6.4,2.2c-0.2-1.1-0.5-1.9-0.7-2.4c-0.4-0.9-0.9-1.5-1.5-2s-1.2-0.7-2-0.7c-1.6,0-2.9,1-3.8,3
			c-0.7,1.5-1,3.9-1,7.1c0,4,0.4,6.7,1.2,8.2s1.9,2.2,3.3,2.2s2.4-0.6,3.1-1.8C377.3,309.8,377.8,308,378.1,305.8z"/>
		<path class="st3" d="M386.3,284.4h21.9v8.9h-7.4v27.2h-7.2v-27.1h-7.4v-9H386.3z"/>
		<path class="st3" d="M426.7,284.4h7.2v21.5c0,2.1-0.2,4.1-0.6,6s-1.1,3.6-2,5s-1.9,2.4-2.9,3c-1.4,0.8-3.1,1.2-5,1.2
			c-1.1,0-2.4-0.1-3.7-0.4c-1.3-0.2-2.5-0.7-3.4-1.5c-0.9-0.7-1.7-1.8-2.5-3.1c-0.7-1.3-1.3-2.7-1.5-4.2c-0.4-2.3-0.7-4.3-0.7-6.1
			v-21.4h7.2v22c0,2,0.4,3.5,1.1,4.6s1.7,1.7,2.9,1.7c1.2,0,2.2-0.5,2.9-1.6c0.7-1.1,1.1-2.6,1.1-4.6v-22.1H426.7z"/>
		<path class="st3" d="M438.7,320.5v-36.1h12c2.2,0,3.9,0.3,5.1,0.9c1.2,0.6,2.1,1.7,2.8,3.3s1.1,3.5,1.1,5.8c0,2-0.3,3.7-0.8,5.2
			s-1.3,2.6-2.3,3.5c-0.6,0.6-1.5,1-2.5,1.4c0.9,0.4,1.5,0.9,1.9,1.3c0.3,0.3,0.6,0.9,1.2,1.9c0.5,1,0.8,1.7,1,2.2l3.5,10.5h-8.1
			l-3.9-11c-0.5-1.4-0.9-2.4-1.3-2.8c-0.5-0.6-1.1-0.8-1.8-0.8H446v14.6h-7.3V320.5z M446,299.1h3c0.3,0,1-0.2,1.9-0.5
			c0.5-0.1,0.9-0.5,1.2-1.1c0.3-0.6,0.5-1.3,0.5-2.1c0-1.2-0.2-2.1-0.7-2.7c-0.5-0.6-1.4-0.9-2.7-0.9H446V299.1z"/>
		<path class="st3" d="M478.3,314.6h-8.2l-1.1,6h-7.4l8.8-36.1h7.9l8.8,36.1h-7.6L478.3,314.6z M476.8,306.8l-2.6-13l-2.5,13H476.8z
			"/>
	</g>
	<g>
		<g class="st2">
			<path class="st3" d="M254.1,374.3h-3.7l-0.5,2.1h-3.4l4-12.6h3.6l4,12.6h-3.5L254.1,374.3z M253.4,371.5l-1.2-4.5l-1.2,4.5H253.4
				z"/>
			<path class="st3" d="M268.6,363.8h3.3v7.5c0,0.7-0.1,1.4-0.3,2.1c-0.2,0.7-0.5,1.2-0.9,1.7s-0.9,0.8-1.3,1
				c-0.6,0.3-1.4,0.4-2.3,0.4c-0.5,0-1.1,0-1.7-0.1s-1.1-0.3-1.5-0.5c-0.4-0.3-0.8-0.6-1.1-1.1c-0.3-0.5-0.6-1-0.7-1.4
				c-0.2-0.8-0.3-1.5-0.3-2.1v-7.5h3.3v7.7c0,0.7,0.2,1.2,0.5,1.6c0.3,0.4,0.8,0.6,1.3,0.6c0.6,0,1-0.2,1.3-0.6
				c0.3-0.4,0.5-0.9,0.5-1.6v-7.7H268.6z"/>
			<path class="st3" d="M276.3,363.8h10v3.1h-3.4v9.5h-3.3v-9.5h-3.4v-3.1H276.3z"/>
			<path class="st3" d="M289.9,370.1c0-2.1,0.5-3.6,1.5-4.8c1-1.1,2.3-1.7,4.1-1.7c1.8,0,3.1,0.6,4.1,1.7c1,1.1,1.4,2.7,1.4,4.7
				c0,1.5-0.2,2.7-0.6,3.6c-0.4,0.9-1,1.7-1.8,2.2s-1.8,0.8-3,0.8s-2.2-0.2-3-0.7s-1.4-1.2-1.9-2.1
				C290.1,372.8,289.9,371.5,289.9,370.1z M293.2,370.1c0,1.3,0.2,2.2,0.6,2.7c0.4,0.6,0.9,0.8,1.6,0.8s1.3-0.3,1.6-0.8
				s0.6-1.5,0.6-2.9c0-1.2-0.2-2-0.6-2.6c-0.4-0.5-1-0.8-1.6-0.8c-0.7,0-1.2,0.3-1.6,0.8C293.4,367.9,293.2,368.8,293.2,370.1z"/>
			<path class="st3" d="M305.7,376.3v-12.6h5.5c1,0,1.8,0.1,2.3,0.3s1,0.6,1.3,1.1c0.3,0.6,0.5,1.2,0.5,2c0,0.7-0.1,1.3-0.4,1.8
				s-0.6,0.9-1,1.2c-0.3,0.2-0.7,0.4-1.2,0.5c0.4,0.2,0.7,0.3,0.9,0.5c0.1,0.1,0.3,0.3,0.5,0.7c0.2,0.3,0.4,0.6,0.5,0.8l1.6,3.6
				h-3.7l-1.8-3.8c-0.2-0.5-0.4-0.8-0.6-1c-0.2-0.2-0.5-0.3-0.8-0.3H309v5.1h-3.3V376.3z M309,368.9h1.4c0.2,0,0.4-0.1,0.9-0.2
				c0.2-0.1,0.4-0.2,0.5-0.4c0.1-0.2,0.2-0.5,0.2-0.7c0-0.4-0.1-0.7-0.3-0.9c-0.2-0.2-0.6-0.3-1.2-0.3H309V368.9z"/>
			<path class="st3" d="M320.4,363.8h3.3v12.6h-3.3V363.8z"/>
			<path class="st3" d="M329.1,363.8h4.9c1,0,1.7,0.2,2.3,0.5c0.6,0.3,1.1,0.8,1.5,1.3c0.4,0.6,0.7,1.2,0.8,2s0.3,1.6,0.3,2.4
				c0,1.3-0.1,2.4-0.4,3.1s-0.6,1.4-1.1,1.9s-1,0.8-1.5,1c-0.7,0.2-1.4,0.3-2,0.3H329v-12.5H329.1z M332.4,366.6v6.9h0.8
				c0.7,0,1.2-0.1,1.5-0.3c0.3-0.2,0.5-0.5,0.7-0.9c0.2-0.4,0.2-1.2,0.2-2.2c0-1.3-0.2-2.2-0.6-2.7s-1-0.7-1.8-0.7h-0.8V366.6z"/>
			<path class="st3" d="M349.6,374.3h-3.7l-0.5,2.1H342l4-12.6h3.6l4,12.6h-3.5L349.6,374.3z M348.9,371.5l-1.2-4.5l-1.2,4.5H348.9z
				"/>
			<path class="st3" d="M357.6,363.8h4.9c1,0,1.7,0.2,2.3,0.5c0.6,0.3,1.1,0.8,1.5,1.3c0.4,0.6,0.7,1.2,0.8,2s0.3,1.6,0.3,2.4
				c0,1.3-0.1,2.4-0.4,3.1s-0.6,1.4-1.1,1.9s-1,0.8-1.5,1c-0.7,0.2-1.4,0.3-2,0.3h-4.9v-12.5H357.6z M360.9,366.6v6.9h0.8
				c0.7,0,1.2-0.1,1.5-0.3c0.3-0.2,0.5-0.5,0.7-0.9c0.2-0.4,0.2-1.2,0.2-2.2c0-1.3-0.2-2.2-0.6-2.7s-1-0.7-1.8-0.7h-0.8V366.6z"/>
			<path class="st3" d="M380.1,363.8h4.3l1.7,7.6l1.7-7.6h4.3v12.6h-2.7v-9.6l-2.1,9.6h-2.4l-2.1-9.6v9.6h-2.7L380.1,363.8
				L380.1,363.8z"/>
			<path class="st3" d="M403.8,374.3H400l-0.5,2.1h-3.4l4-12.6h3.6l4,12.6h-3.5L403.8,374.3z M403.1,371.5l-1.2-4.5l-1.2,4.5H403.1z
				"/>
			<path class="st3" d="M411.8,376.3v-12.6h5.5c1,0,1.8,0.1,2.3,0.3s1,0.6,1.3,1.1c0.3,0.6,0.5,1.2,0.5,2c0,0.7-0.1,1.3-0.4,1.8
				s-0.6,0.9-1,1.2c-0.3,0.2-0.7,0.4-1.2,0.5c0.4,0.2,0.7,0.3,0.9,0.5c0.1,0.1,0.3,0.3,0.5,0.7c0.2,0.3,0.4,0.6,0.5,0.8l1.6,3.6
				h-3.7l-1.8-3.8c-0.2-0.5-0.4-0.8-0.6-1c-0.2-0.2-0.5-0.3-0.8-0.3h-0.3v5.1h-3.3V376.3z M415.1,368.9h1.4c0.2,0,0.4-0.1,0.9-0.2
				c0.2-0.1,0.4-0.2,0.5-0.4c0.1-0.2,0.2-0.5,0.2-0.7c0-0.4-0.1-0.7-0.3-0.9c-0.2-0.2-0.6-0.3-1.2-0.3h-1.4v2.5H415.1z"/>
			<path class="st3" d="M426.5,363.8h3.3v12.6h-3.3V363.8z M428.1,360.4h2.5l-2.3,2.6h-1.4L428.1,360.4z"/>
			<path class="st3" d="M434.4,363.8h10v3.1H441v9.5h-3.3v-9.5h-3.4v-3.1H434.4z"/>
			<path class="st3" d="M449,363.8h3.3v12.6H449V363.8z"/>
			<path class="st3" d="M457.7,363.8h4.3l1.7,7.6l1.7-7.6h4.3v12.6H467v-9.6l-2.1,9.6h-2.4l-2.1-9.6v9.6h-2.7L457.7,363.8
				L457.7,363.8z"/>
			<path class="st3" d="M481.3,374.3h-3.7l-0.5,2.1h-3.4l4-12.6h3.6l4,12.6h-3.5L481.3,374.3z M480.6,371.5l-1.2-4.5l-1.2,4.5H480.6
				z"/>
		</g>
	</g>
	<g>
		<g class="st2">
			<path class="st3" d="M245.3,330.6h4.7l6.1,12.9v-12.9h4.8v23.3h-4.8l-6.1-12.8v12.8h-4.7V330.6z"/>
			<path class="st3" d="M274,350h-5.7l-0.8,3.8h-5.1l6.1-23.3h5.5l6.1,23.3h-5.3L274,350z M273,345l-1.8-8.4l-1.8,8.4H273z"/>
			<path class="st3" d="M278.9,330.6h5.3l3.7,16.7l3.6-16.7h5.1l-6.1,23.3H285L278.9,330.6z"/>
			<path class="st3" d="M306.9,350h-5.7l-0.8,3.8h-5.1l6.1-23.3h5.5l6.1,23.3h-5.3L306.9,350z M305.9,345l-1.8-8.4l-1.8,8.4H305.9z"
				/>
			<path class="st3" d="M314.6,330.6h5v17.5h7.9v5.7h-12.9V330.6z"/>
			<path class="st3" d="M347.4,350h-5.7l-0.8,3.8h-5.1l6.1-23.3h5.5l6.1,23.3h-5.3L347.4,350z M346.4,345l-1.8-8.4l-1.8,8.4H346.4z"
				/>
			<path class="st3" d="M355.2,353.9v-23.3h8.4c1.6,0,2.7,0.2,3.6,0.6c0.9,0.4,1.5,1.1,2,2.1s0.8,2.3,0.8,3.8c0,1.3-0.2,2.4-0.6,3.3
				s-0.9,1.7-1.6,2.3c-0.4,0.4-1,0.7-1.8,0.9c0.6,0.3,1,0.6,1.3,0.9c0.2,0.2,0.5,0.6,0.8,1.2c0.4,0.6,0.6,1.1,0.7,1.4l2.4,6.7h-5.7
				l-2.7-7.1c-0.3-0.9-0.6-1.5-0.9-1.8c-0.4-0.4-0.8-0.5-1.2-0.5h-0.4v9.4h-5.1V353.9z M360.3,340h2.1c0.2,0,0.7-0.1,1.3-0.3
				c0.3-0.1,0.6-0.3,0.8-0.7c0.2-0.4,0.3-0.8,0.3-1.3c0-0.8-0.2-1.3-0.5-1.7s-1-0.6-1.9-0.6h-2.2v4.6H360.3z"/>
			<path class="st3" d="M380.6,345.4v-4.8h7.8v9.9c-1.5,1.4-2.8,2.4-4,3c-1.1,0.5-2.5,0.8-4.1,0.8c-1.9,0-3.5-0.5-4.7-1.4
				s-2.2-2.3-2.8-4.2c-0.7-1.9-1-4-1-6.4c0-2.5,0.4-4.7,1.1-6.6c0.7-1.9,1.8-3.3,3.2-4.3c1.1-0.8,2.6-1.1,4.5-1.1
				c1.8,0,3.1,0.2,4,0.7s1.6,1.2,2.2,2.2s1,2.2,1.3,3.7l-4.9,1.2c-0.2-0.9-0.5-1.5-1-2s-1.1-0.7-1.8-0.7c-1.1,0-2,0.5-2.6,1.6
				c-0.6,1.1-1,2.8-1,5.2c0,2.5,0.3,4.3,1,5.4c0.7,1.1,1.6,1.6,2.8,1.6c0.6,0,1.1-0.1,1.6-0.3c0.5-0.2,1.1-0.6,1.8-1.2v-2.2h-3.4
				V345.4z"/>
			<path class="st3" d="M391.4,330.6h13.5v5h-8.5v3.7h7.8v4.7h-7.8v4.6h8.7v5.3h-13.8v-23.3H391.4z"/>
			<path class="st3" d="M407.9,330.6h4.7l6.1,12.9v-12.9h4.8v23.3h-4.8l-6.1-12.8v12.8h-4.7V330.6z"/>
			<path class="st3" d="M425.7,330.6H441v5.7h-5.1v17.5h-5v-17.4h-5.1v-5.8H425.7z"/>
			<path class="st3" d="M443.5,330.6h5.1v23.3h-5.1V330.6z"/>
			<path class="st3" d="M452.2,330.6h4.7l6.1,12.9v-12.9h4.8v23.3H463l-6.1-12.8v12.8h-4.7V330.6z"/>
			<path class="st3" d="M481,350h-5.7l-0.8,3.8h-5.1l6.1-23.3h5.5l6.1,23.3h-5.3L481,350z M479.9,345l-1.8-8.4l-1.8,8.4H479.9z"/>
		</g>
	</g>
</g>
<g>
	<g>
		<path class="st0" d="M160.2,342.6l0.3,0.8l-1.4,1.8l1.8-0.7l0.3,0.8l-3.3,1.3l-0.3-0.8l1.4-1.8l-1.8,0.7l-0.3-0.8L160.2,342.6z"/>
		<path class="st0" d="M160.3,349.4l-0.6-0.9l-0.6,0.2l-0.5-0.8l3.6-1l0.5,0.8l-2.3,2.9l-0.5-0.8L160.3,349.4z M160.9,348.9l0.9-1
			l-1.2,0.4L160.9,348.9z"/>
		<path class="st0" d="M163.7,349.1l0.7,0.7L163,352l2.3-1.2l0.6,0.7l-3.3,1.6l-0.7-0.7L163.7,349.1z"/>
		<path class="st0" d="M166,355.4l-0.8-0.6l-0.5,0.4l-0.7-0.6l3-2.1l0.8,0.6l-1.3,3.5l-0.8-0.6L166,355.4z M166.4,354.7l0.5-1.2
			l-1,0.8L166.4,354.7z"/>
		<path class="st0" d="M169.5,354.2l0.8,0.4l-1.3,2.3l1.3,0.7l-0.4,0.8l-2.1-1.1L169.5,354.2z"/>
		<path class="st0" d="M175.7,359.7l-1-0.2l-0.3,0.5l-0.9-0.2l1.9-3.2l1,0.2l0.3,3.7l-0.9-0.2L175.7,359.7z M175.7,359v-1.3
			l-0.6,1.2L175.7,359z"/>
		<path class="st0" d="M178.3,360.7l0.1-3.5l1.5,0.1c0.3,0,0.5,0.1,0.6,0.1c0.1,0.1,0.3,0.2,0.4,0.3c0.1,0.2,0.1,0.4,0.1,0.6
			c0,0.2-0.1,0.4-0.1,0.5c-0.1,0.1-0.2,0.2-0.3,0.3s-0.2,0.1-0.3,0.1c0.1,0,0.2,0.1,0.2,0.1s0.1,0.1,0.1,0.2
			c0.1,0.1,0.1,0.2,0.1,0.2l0.4,1h-1l-0.4-1.1c-0.1-0.1-0.1-0.2-0.2-0.3c-0.1-0.1-0.1-0.1-0.2-0.1h-0.1l-0.1,1.4L178.3,360.7z
			 M179.3,358.7h0.4c0,0,0.1,0,0.2,0c0.1,0,0.1,0,0.2-0.1c0-0.1,0.1-0.1,0.1-0.2s0-0.2-0.1-0.3s-0.2-0.1-0.3-0.1h-0.4L179.3,358.7z"
			/>
		<path class="st0" d="M184,359.3l-0.1-0.7l1.4-0.2l0.2,1.5c-0.2,0.3-0.5,0.4-0.7,0.5c-0.2,0.1-0.4,0.2-0.7,0.2
			c-0.4,0-0.6,0-0.9-0.1c-0.2-0.1-0.4-0.3-0.6-0.6c-0.2-0.3-0.3-0.6-0.3-0.9c-0.1-0.4,0-0.7,0.1-1c0.1-0.3,0.3-0.5,0.5-0.7
			c0.2-0.1,0.4-0.2,0.8-0.3c0.3,0,0.6,0,0.7,0c0.2,0,0.3,0.1,0.4,0.3c0.1,0.2,0.2,0.3,0.3,0.5l-0.9,0.3c-0.1-0.1-0.1-0.2-0.2-0.3
			c-0.1-0.1-0.2-0.1-0.3-0.1c-0.2,0-0.3,0.1-0.4,0.3c-0.1,0.2-0.1,0.4-0.1,0.8c0.1,0.4,0.1,0.6,0.3,0.8c0.2,0.2,0.3,0.2,0.5,0.2
			c0.1,0,0.2,0,0.3-0.1c0.1,0,0.2-0.1,0.3-0.2v-0.3L184,359.3z"/>
		<path class="st0" d="M186.2,356.6l2.4-0.8l0.2,0.7l-1.5,0.5l0.2,0.5l1.4-0.4l0.2,0.7l-1.4,0.4l0.2,0.7l1.5-0.5l0.2,0.8l-2.4,0.8
			L186.2,356.6z"/>
		<path class="st0" d="M189.6,355.4l0.8-0.4l1.9,1.2l-0.9-1.7l0.8-0.4l1.7,3.1l-0.8,0.4l-1.9-1.2l0.9,1.7l-0.8,0.4L189.6,355.4z"/>
		<path class="st0" d="M193,353.4l2.2-1.8l0.5,0.7L195,353l1.7,2.1l-0.7,0.6l-1.7-2.1l-0.7,0.6L193,353.4z"/>
		<path class="st0" d="M196,350.9l0.6-0.7l2.6,2.4l-0.6,0.7L196,350.9z"/>
		<path class="st0" d="M197.5,349.2l0.5-0.7l2.2,0.2l-1.6-1.1l0.5-0.7l2.9,2l-0.5,0.7l-2.2-0.2l1.6,1.1l-0.5,0.7L197.5,349.2z"/>
		<path class="st0" d="M203.2,345.4l-0.4,1l0.5,0.4l-0.4,0.9l-2.7-2.5l0.4-0.9l3.7,0.4l-0.4,0.9L203.2,345.4z M202.4,345.2l-1.3-0.2
			l1,0.8L202.4,345.2z"/>
	</g>
	<g>
		<path class="st0" d="M160.9,324.1l0.9-1.4c0.2-0.3,0.4-0.5,0.7-0.5s0.6,0.1,0.9,0.3c0.3,0.2,0.5,0.5,0.6,0.8
			c0.1,0.3,0,0.6-0.2,0.9l-0.3,0.4l1.2,0.8l-0.6,0.8L160.9,324.1z M162.8,324.2l0.1-0.2c0.1-0.2,0.2-0.3,0.1-0.4
			c0-0.1-0.1-0.2-0.2-0.3c-0.1-0.1-0.2-0.1-0.3-0.1s-0.2,0.1-0.3,0.2l-0.2,0.2L162.8,324.2z"/>
		<path class="st0" d="M166.4,323.1l-2.6-2.8l1.2-1.1c0.2-0.2,0.4-0.3,0.6-0.4c0.2-0.1,0.3-0.1,0.5,0c0.2,0.1,0.4,0.2,0.5,0.3
			c0.1,0.2,0.2,0.3,0.3,0.5c0,0.2,0.1,0.3,0,0.5c0,0.1-0.1,0.2-0.2,0.3c0.1,0,0.2-0.1,0.3-0.1c0,0,0.1,0,0.3,0
			c0.1,0,0.2,0.1,0.3,0.1l1.1,0.5l-0.8,0.8l-1.2-0.5c-0.2-0.1-0.3-0.1-0.3-0.1c-0.1,0-0.2,0-0.2,0.1l-0.1,0.1l1.1,1.1L166.4,323.1z
			 M165.6,320.8l0.3-0.3c0,0,0.1-0.1,0.2-0.2c0-0.1,0.1-0.1,0-0.2s0-0.1-0.1-0.2c-0.1-0.1-0.2-0.1-0.3-0.1s-0.2,0.1-0.3,0.2
			l-0.3,0.3L165.6,320.8z"/>
		<path class="st0" d="M167.6,317.1l2.3-1.4l0.4,0.7l-1.4,0.9l0.3,0.5l1.3-0.8l0.4,0.7l-1.3,0.8l0.4,0.6l1.5-0.9l0.4,0.7l-2.3,1.4
			L167.6,317.1z"/>
		<path class="st0" d="M171.8,314.8l2.3-0.8l0.3,0.8l-1.4,0.5l0.2,0.6l1.2-0.4l0.3,0.7l-1.2,0.4l0.5,1.5l-0.9,0.3L171.8,314.8z"/>
		<path class="st0" d="M176.1,313.5l2.7-0.4l0.1,0.8l-1.7,0.2l0.1,0.6l1.5-0.2l0.1,0.8l-1.5,0.2l0.1,0.7l1.7-0.2l0.1,0.9l-2.7,0.4
			L176.1,313.5z"/>
		<path class="st0" d="M182.8,315.5l0.9,0.4c-0.1,0.3-0.2,0.5-0.3,0.7c-0.1,0.2-0.3,0.3-0.5,0.4s-0.4,0.1-0.7,0.1
			c-0.4,0-0.6-0.1-0.8-0.2s-0.4-0.4-0.5-0.7c-0.1-0.3-0.2-0.7-0.2-1.2c0-0.6,0.2-1.1,0.5-1.4s0.7-0.5,1.2-0.4c0.4,0,0.7,0.1,0.9,0.4
			c0.2,0.2,0.4,0.5,0.5,0.9l-0.9,0.2c0-0.1,0-0.2-0.1-0.3c0-0.1-0.1-0.2-0.2-0.2s-0.2-0.1-0.3-0.1c-0.2,0-0.4,0.1-0.5,0.3
			c-0.1,0.2-0.2,0.4-0.2,0.7c0,0.4,0,0.7,0.1,0.9s0.2,0.3,0.4,0.3s0.3,0,0.4-0.2C182.6,315.9,182.8,315.7,182.8,315.5z"/>
		<path class="st0" d="M185.6,313.6l2.9,0.8l-0.3,0.9l-1-0.3l-0.8,2.8l-1-0.3l0.8-2.8l-1-0.3L185.6,313.6z"/>
		<path class="st0" d="M192.3,316.2l0.9,0.5l-1.1,2c-0.1,0.2-0.2,0.4-0.4,0.5c-0.1,0.1-0.3,0.3-0.5,0.3s-0.4,0.1-0.5,0.1
			c-0.2,0-0.4-0.1-0.7-0.2c-0.1-0.1-0.3-0.2-0.4-0.3c-0.2-0.1-0.3-0.2-0.3-0.4c-0.1-0.1-0.1-0.3-0.1-0.5c0-0.2,0-0.3,0-0.5
			c0.1-0.2,0.1-0.4,0.2-0.6l1.1-2l0.9,0.5l-1.1,2c-0.1,0.2-0.1,0.3-0.1,0.5c0,0.1,0.1,0.3,0.3,0.3c0.2,0.1,0.3,0.1,0.4,0
			c0.1-0.1,0.3-0.2,0.4-0.4L192.3,316.2z"/>
		<path class="st0" d="M192.4,320.8l2.5-2.9l1.2,1.1c0.2,0.2,0.4,0.4,0.5,0.5c0.1,0.2,0.1,0.3,0.1,0.5s-0.1,0.4-0.3,0.6
			c-0.1,0.2-0.3,0.3-0.4,0.3c-0.2,0.1-0.3,0.1-0.5,0.1c-0.1,0-0.2-0.1-0.4-0.1c0.1,0.1,0.1,0.2,0.1,0.3c0,0,0,0.1,0,0.3
			c0,0.1,0,0.2-0.1,0.3l-0.4,1.1l-0.8-0.7l0.4-1.2c0-0.2,0.1-0.3,0.1-0.3c0-0.1-0.1-0.2-0.1-0.2l-0.1-0.1l-1,1.2L192.4,320.8z
			 M194.7,319.8l0.3,0.3c0,0,0.1,0.1,0.2,0.1c0.1,0,0.1,0,0.2,0c0.1,0,0.1-0.1,0.2-0.1c0.1-0.1,0.1-0.2,0.1-0.3
			c0-0.1-0.1-0.2-0.2-0.3l-0.3-0.3L194.7,319.8z"/>
		<path class="st0" d="M197.2,325l-0.7-0.9l-0.6,0.2l-0.6-0.8l3.8-1.3l0.6,0.9l-2.4,3.2l-0.6-0.8L197.2,325z M197.7,324.3l0.9-1.1
			l-1.3,0.5L197.7,324.3z"/>
	</g>
	<g id="Capa_1-2_00000091015310850236851210000004068488328301183884_">
		<path class="st0" d="M176.5,343.4c1.1,1,2.4,0.1,3.6,0.6c-0.3,0.4-0.4,0.7-0.7,1c-1.1,1.1-2.5,1.5-4.1,1.4c-0.2,0-0.4-0.3-0.4-0.4
			c0-0.5-0.3-0.5-0.7-0.6c-0.7-0.2-1.5-0.3-2.1-0.6c-0.9-0.5-1.8-0.6-2.7-0.6c-0.4,0-0.8,0-1.3,0c0.1-0.6,0.1-1.2,0.2-1.8
			c0.1-0.6,0-1.2-0.2-1.8c-0.3-0.8-0.4-1.7-0.5-2.5c0-0.6-0.1-1-1-0.9c0.1-0.6,0.2-1.1,0.3-1.6c0.4-1.3,1.2-2.3,2.3-3.1
			c0.2-0.1,0.5-0.1,0.8-0.1c0,0.2,0,0.4,0,0.7c0,0.6-0.1,1.3-0.2,1.9c-0.1,0.4-0.2,0.9-0.4,1.2c-0.6,0.9,0.2,3.3,1.3,3.6
			c0.1,0,0.3,0,0.5-0.1c2.6-2.1,5.2-4.2,7.9-6.3c-0.3-0.3-0.6-0.6-1-0.9c-0.5,0.3-1,1.1-1.6,0.4c-0.5-0.6,0-1,0.4-1.5
			c-0.4-0.4-0.7-0.8-1.4-0.6c-1.1,0.2-2.2-0.7-2.4-1.8c-0.2-0.9,0.4-1.8,1.4-2.1c1.3-0.4,2.8,0.7,2.7,2.1c-0.1,0.8,0.4,1,0.9,1.4
			c0.4-0.3,0.9-0.9,1.5-0.4c0.5,0.4,0.2,0.9-0.2,1.3c1.3,1.2,0.9,1.2,2.4-0.1c-0.3-0.4-0.7-0.9-0.2-1.4c0.6-0.5,1,0.1,1.5,0.4
			c0.4-0.4,1-0.5,0.8-1.4c-0.2-1,0.9-2,2-2.1c1-0.1,1.9,0.6,2.1,1.6c0.2,1.3-1,2.6-2.4,2.4c-0.7-0.1-1,0.1-1.3,0.6
			c0.3,0.5,1,0.9,0.3,1.5c-0.6,0.6-1.1-0.1-1.6-0.4c-0.4,0.3-0.7,0.7-1.1,1c1.3,1.1,2.6,2.1,3.9,3.1c1.3,1,2.6,2.1,3.9,3.1
			c0.5,0.4,0.9,0.3,1.3-0.1c0.8-0.7,1-1.7,1-2.7c0-0.1,0-0.2-0.1-0.2c-0.7-0.6-0.6-1.4-0.6-2.2c0-0.4-0.1-0.8-0.1-1.1
			c0-0.2,0-0.5,0.1-0.7c0.2,0.1,0.5,0,0.7,0.2c1,0.7,1.9,1.7,2.3,2.9c0.2,0.5,0.2,1,0.3,1.5c-0.9,0.3-0.9,0.3-1,1.2
			s-0.5,1.8-0.6,2.8c-0.1,0.7,0,1.4,0.1,2.1c0,0.3,0.1,0.6,0.1,1c-0.8,0-1.6,0-2.3,0c-0.4,0-0.8,0.1-1.1,0.3
			c-0.9,0.5-1.7,0.9-2.8,0.9c-0.4,0-0.5,0.1-0.6,0.5c0,0.2-0.3,0.5-0.4,0.5c-1.6,0-3.1-0.4-4.2-1.6c-0.2-0.2-0.4-0.5-0.6-0.8
			c1.2-0.6,2.5,0.3,3.6-0.5c0.6,0.9,1.3,0.5,2,0.2c0.5-0.2,1-0.6,1.4-0.9c0.7-0.5,0.6-0.8,0-1.4c-1.4-1.3-2.8-2.5-4.2-3.8
			c-1.1-1-2.2-2-3.4-3.1c-1.9,1.7-3.8,3.5-5.7,5.2c-0.6,0.6-1.2,1.1-1.8,1.7c-0.5,0.5-0.5,0.8,0.1,1.2s1.1,0.8,1.8,1.1
			C175.5,344.1,176.1,344.3,176.5,343.4L176.5,343.4z M186.2,329.4c-0.1,0.1-0.2,0.2-0.3,0.3c0.9-0.2,1.2-0.6,1.1-1.1
			c-0.1-0.5-0.4-0.8-0.8-0.8c-0.5-0.1-1,0.3-1.2,1.1c0.1-0.1,0.3-0.3,0.4-0.4C185.7,328.8,185.9,329.1,186.2,329.4L186.2,329.4
			L186.2,329.4z M175.3,329.8c0.3-0.3,0.6-0.6,0.9-1c-0.3-0.7-0.7-1-1.2-1c-0.5,0.1-0.7,0.4-0.8,0.8
			C174.2,329.2,174.5,329.5,175.3,329.8L175.3,329.8z"/>
	</g>
</g>
</svg>
