<?xml version="1.0" encoding="utf-8"?>
<!-- Generator: Adobe Illustrator 26.0.3, SVG Export Plug-In . SVG Version: 6.00 Build 0)  -->
<svg version="1.1" id="Capa_1" xmlns="http://www.w3.org/2000/svg" xmlns:xlink="http://www.w3.org/1999/xlink" x="0px" y="0px"
	 viewBox="0 0 1000 1000" style="enable-background:new 0 0 1000 1000;" xml:space="preserve">
<style type="text/css">
	.st0{fill:#FFFFFF;}
	.st1{clip-path:url(#SVGID_00000164474437534161483430000006058992905421270683_);}
	.st2{opacity:0.2;}
	.st3{fill:#6993B5;}
	.st4{fill:#AFC5D7;}
	.st5{fill:#8E624F;}
	.st6{fill:#3B2B21;}
	.st7{fill:#553E31;}
	.st8{fill:#434041;}
	.st9{fill:none;stroke:#434041;stroke-miterlimit:10;}
	.st10{fill:#B58363;}
	.st11{fill:#7B4F40;}
	.st12{fill:#DAA17F;}
	.st13{fill:#1D1611;}
	.st14{fill:#D8946D;}
	.st15{fill:#E9AD89;}
	.st16{fill:#F4D2BB;}
	.st17{fill:#D7B69F;}
	.st18{fill:#FCDFC7;}
	.st19{fill:#B07F63;}
	.st20{fill:#A0725C;}
	.st21{fill:#37302D;}
	.st22{fill:#A07A61;}
	.st23{fill:#E8BC00;}
	.st24{fill:#DDBDA6;}
	.st25{clip-path:url(#SVGID_00000166647074557842111620000011356234324485719210_);}
	.st26{clip-path:url(#SVGID_00000166647074557842111620000011356234324485719210_);fill:#9B6E4E;}
	.st27{clip-path:url(#SVGID_00000085935681442620169910000001360835327290965428_);fill:#EF9195;}
	.st28{clip-path:url(#SVGID_00000085935681442620169910000001360835327290965428_);}
	.st29{clip-path:url(#SVGID_00000120561001843241599130000013001738940074839179_);fill:#CE5351;}
	.st30{clip-path:url(#SVGID_00000120561001843241599130000013001738940074839179_);fill:#E8695F;}
	.st31{clip-path:url(#SVGID_00000085935681442620169910000001360835327290965428_);fill:#FDFDFD;}
	.st32{clip-path:url(#SVGID_00000164474437534161483430000006058992905421270683_);fill:#0B75A4;}
	.st33{clip-path:url(#SVGID_00000035489056273366200630000017205606229565165722_);}
	.st34{clip-path:url(#SVGID_00000035489056273366200630000017205606229565165722_);fill:#9B6E4E;}
	.st35{clip-path:url(#SVGID_00000173121693784113266120000017150760528693353914_);fill:#EF9195;}
	.st36{clip-path:url(#SVGID_00000173121693784113266120000017150760528693353914_);}
	.st37{clip-path:url(#SVGID_00000008128646839563378040000000350619690366447237_);fill:#CE5351;}
	.st38{clip-path:url(#SVGID_00000008128646839563378040000000350619690366447237_);fill:#E8695F;}
	.st39{clip-path:url(#SVGID_00000173121693784113266120000017150760528693353914_);fill:#FDFDFD;}
</style>
<g>
	<circle class="st0" cx="500" cy="500" r="347.4"/>
	<g>
		<defs>
			<circle id="SVGID_1_" cx="500" cy="500" r="265.5"/>
		</defs>
		<clipPath id="SVGID_00000084492742619236160780000011035800096114063786_">
			<use xlink:href="#SVGID_1_"  style="overflow:visible;"/>
		</clipPath>
		<g style="clip-path:url(#SVGID_00000084492742619236160780000011035800096114063786_);">
			<path class="st2" d="M652,431.5c-2.1-4.3-4.9-8.7-8-12.3c0-0.1-0.1-0.1-0.2-0.2c8.9-3.2,23.2-10.2,24.9-22.2
				c0,0,1.9-13.3-15.2-4.8c0,0-6.8,3.2-23.6,6.7l-3.9-11l0,0l-4.9-13.8l0,0l-14.4-40.7c0,0-0.4-3.3-6.6-4.1c0,0-36.9-8.6-82.9-9.8
				c0,0,0,0,0,0c0,0,0,0,0,0c-46.1,1.2-82.9,9.8-82.9,9.8c-6.2,0.9-6.6,4.1-6.6,4.1l-3.3,9.4c0,0,0.1,0,0.1,0L413.3,374l0,0
				l-7.8,22.1l0,0l-1,2.8c-16.7-3.5-23.6-6.7-23.6-6.7c-17.1-8.6-15.2,4.8-15.2,4.8c1.5,11,13.6,17.8,22.5,21.3
				c-8.3,18.6-14.7,45.1-16.2,51.4c-14.3,16.7-27,35.2-30.5,51c0,0-1.3,9,0.1,22c2,20.5,10.6,52,42.4,73.9c0.2,0.1,0.4,0.3,0.6,0.4
				c0.7,0.5,1.5,1,2.3,1.5c0.4,0.3,0.8,0.5,1.3,0.8c0.6,0.4,1.1,0.7,1.7,1.1c0.6,0.4,1.3,0.8,1.9,1.1c0.4,0.2,0.8,0.5,1.2,0.7
				c0.8,0.5,1.7,0.9,2.5,1.4c0.2,0.1,0.5,0.2,0.7,0.4c1,0.5,2.1,1.1,3.1,1.6c0.1,0,0.2,0.1,0.3,0.1c8.6,4.1,18.4,7.7,29.6,10.4
				c0.2,0,0.4,0.1,0.6,0.1c1.4,0.3,2.7,0.6,4.1,0.9c0.5,0.1,1,0.2,1.6,0.3c1.1,0.2,2.1,0.4,3.2,0.6c0.3,0.1,0.5,0.1,0.8,0.2
				c-7.6,22.7-24.6,68.9-29.6,78.2c0,0-5.5,9.4,1.6,11.8l3.2,6.8l-9,26.2c0,0-5.2,9,6.5,10.2c0,0,62.9,32.5,162.4-0.8
				c0,0,2.6-0.4,4.5-2.4c1.3-0.4,2.5-0.8,3.8-1.2c0,0,5.4-0.9,6.4-6.1c5.9-0.6,14.5-2.6,25.2-7.9c5.2-2,11-4.8,17.3-8.8
				c0,0,2.3,0,0-9.5c0,0-12.7-73.3-23.6-116.2c1.7-0.7,3.4-1.7,5.2-2.9c4.6-3.1,8.8-6.8,12.3-11c5.1-6.1,9-13.2,11.3-20.9
				c1.5-5,0.6-6.6,6-7.8c4.6-1,9.1-2.1,13.4-4c5.6-2.5,10.9-6.4,13.8-11.8c2.8-5,3.4-11,3.7-16.7C675.8,505,668.8,466.1,652,431.5z
				 M439.5,638.1C439.5,638.1,439.5,638.1,439.5,638.1C439.5,638.1,439.5,638.1,439.5,638.1L439.5,638.1z"/>
			<g>
				<path class="st3" d="M430.2,570.8c7.7,0,15.5-0.1,23.2,0c7.4,0.1,12.4,4.6,12.3,10.8c-0.1,6.3-5,10.8-12.4,10.9
					c-15.7,0.1-31.3,0.1-47,0c-7.3-0.1-12.3-4.9-12.1-11.2c0.2-6.1,5.2-10.4,12.2-10.5C414.4,570.7,422.3,570.8,430.2,570.8z"/>
				<path class="st4" d="M501.9,634.4c-7.7,0-15.5,0-23.2,0c-7.1,0-11.4-3.6-11.7-9.5c-0.4-6.7,3.9-12,10.9-12.2
					c16.2-0.3,32.4-0.3,48.6,0c7.3,0.1,11.9,5.4,11.5,11.7c-0.3,5.8-5.5,9.9-12.7,9.9C517.4,634.4,509.7,634.4,501.9,634.4z"/>
				<path class="st3" d="M561.2,669.4c0,6.3-5,10.8-11.7,10.8c-6.3-0.1-11.3-4.8-11.4-10.7c-0.1-6.2,5-11,11.5-11
					C556.2,658.4,561.2,663.2,561.2,669.4z"/>
				<path class="st3" d="M444.7,612.5c6.6,0,11.7,4.8,11.6,10.9c-0.1,5.9-5,10.6-11.3,10.8c-6.6,0.1-11.8-4.6-11.8-10.7
					C433.1,617.2,438.1,612.6,444.7,612.5z"/>
				<path class="st3" d="M481.1,570.7c6.7,0,11.3,4.3,11.4,10.5c0.1,6.3-4.9,11.1-11.5,11.2c-6.4,0-11.7-5.1-11.6-11.2
					C469.5,575.3,474.6,570.7,481.1,570.7z"/>
				<path class="st4" d="M586.6,680.2c-6.7,0-11.6-4.6-11.6-10.9c0-6.2,5.1-10.9,11.7-10.9c6.1,0.1,11.4,5,11.5,10.7
					C598.3,675.3,593.2,680.1,586.6,680.2z"/>
				<path class="st5" d="M595.8,637.6l-160.6-13.5c-4.4,15-26.3,75.6-32.1,86.4c0,0-8.8,12.5-1.8,14.8l6.5,3.5l-8.9,25.9
					c0,0-5.1,8.9,6.4,10.1c0,0,62.2,32.1,160.6-0.8c0,0,7.7-1.3,6.2-9.5c0,0,17,2.8,42.1-12.9c0,0,2.3,0,0-9.4
					C614.3,732.2,605.2,679.5,595.8,637.6z"/>
				<path class="st6" d="M360.7,466.1c0.9,4.6,4.5,7.9,8.5,10.4c10.3,6.3,21.2,11.7,31.6,17.9c21.1,12.6,41.5,26.2,61.7,40
					c20.3,13.8,40.4,27.8,60.9,41.2c10.3,6.7,20.6,13.2,31.1,19.6c10.4,6.2,21,12.7,32,18c6,2.9,10.6,1,15.8-2.4
					c4.6-3.1,8.8-6.8,12.3-11c5.1-6.1,9-13.2,11.3-20.9c1.5-5,0.6-6.6,6-7.8c4.6-1,9.1-2.1,13.4-4c5.6-2.5,10.9-6.4,13.8-11.8
					c2.8-5,3.4-11,3.7-16.7c2-38.3-5.1-77.2-21.8-111.8c-2.1-4.3-4.9-8.7-8-12.3c-2.2-2.6-6.1-1.8-9.3-1.8c-4-0.1-8.1-0.1-12.1-0.2
					c-8.1-0.1-16.1-0.2-24.2-0.4c-32.5-0.5-65-1.2-97.4-2c-34.7-0.9-69.4-2-104.1-3.2c-0.6-0.7-1.5-1.1-2.7-1.1
					c-1.1,0-2,0.4-2.6,0.9c-0.1,0-0.1,0-0.2,0C369.4,427.1,360.7,466.1,360.7,466.1z"/>
				<path class="st7" d="M633.7,512.8c-3.5-25.6-9.5-51.3-21.2-74.7c-2.8-5.7-6-11.2-9.5-16.5c-3.4-5.2-7.2-11.1-11.9-15.4
					c-2.5-2.3-6.3-1.1-9.5-0.8c-4,0.4-8,0.8-12.1,1.2c-8,0.8-16.1,1.6-24.1,2.4c-20.5,2.1-41.1,4-61.6,6l19.2,165.1
					c10.2,5,20.5,10,30.9,14.6c11.1,5,22.4,10.2,34,14.1c6.3,2.1,10.7-0.2,15.4-4.3c4.2-3.6,8-7.7,11-12.3
					c5.9-8.8,9.1-18.7,9.6-28.9c9.6-3.1,19.8-7.1,26.3-14.8C638.7,538.4,635.3,524.6,633.7,512.8z"/>
				<ellipse class="st8" cx="464.4" cy="477.8" rx="2.9" ry="2.7"/>
				<ellipse class="st8" cx="545.6" cy="477.8" rx="2.9" ry="2.7"/>
				<path class="st9" d="M487.9,545.9c0,0,15.5,3,36.8-10.6"/>
				<path class="st9" d="M504.6,512.3c-2.8,2-6.8,1.4-8.9-1.2s-1.5-6.4,1.3-8.3"/>
				<g>
					<g>
						<path class="st10" d="M486.8,572.1c-66.1-1.2-69.1-26.2-69.1-26.2c-11.7-45.2,25.8-82.2,25.8-82.2l-33.7-47.3
							c0,0-70.2,58.7-79.3,99.4c0,0-14.2,99.4,101.6,118.2c0,0-17.4,59.9-24.8,73.9c0,0-8.9,12.6-1.8,15l6.6,3.6l-9,26.2
							c0,0-5.2,9,6.5,10.2c0,0,62.9,32.5,162.4-0.8c0,0,7.8-1.3,6.3-9.6c0,0,17.2,2.9,42.6-13.1c0,0,2.3,0,0-9.5
							c0,0-24-139-34.5-146.2c0,0-5.3-8.4-14.7-6.4l-19.3,2.4l-0.3-10.1L486.8,572.1z"/>
						<g>
							<path class="st11" d="M438,574.6l5.8,36.4c0,0,0.1,13.3,12.9,9.4c11.1-3.4,5.1,3.1,5.1,3.1l-5.8,11.1c0,0-3.3,4.1,2.8,9.6
								l61.6,63.9l-62.6-134.8l-19.8-4.1V574.6z"/>
							<path class="st5" d="M440.8,575.4l5.8,35.9c0,0,0.1,13.1,12.9,9.3c11.1-3.3,5.1,3.1,5.1,3.1l-5.8,10.9c0,0-3.3,4,2.8,9.5
								l61.6,63l-62.6-132.9l-19.8-4V575.4z"/>
							<path class="st11" d="M572.2,573.2l-5.8,35.9c0,0-0.1,13.1-12.9,9.3c-11.1-3.3-5.1,3.1-5.1,3.1l5.8,10.9c0,0,1.8,3.4-2.8,9.5
								l-33.4,53.1l-5.4-8.8L552.4,572l19.8-4V573.2z"/>
							<path class="st5" d="M569.5,573.2l-5.8,35.9c0,0-0.1,13.1-12.9,9.3c-11.1-3.3-5.1,3.1-5.1,3.1l5.8,10.9c0,0,1.8,3.4-2.8,9.5
								l-33.4,53.1l-5.4-8.8L549.7,572l19.8-4V573.2z"/>
							<g>
								<polygon class="st12" points="461.3,567.9 508.1,690.6 548.9,575.8 								"/>
								<g>
									<g>
										<g>
											<polygon class="st13" points="491.7,648.8 499.1,633.6 512.5,633.6 523.1,648.4 508.1,690.6 											"/>
											<path class="st13" d="M484.6,606.5l16.7,31.1c0,0,2.8,4,9.1,0l22-31.1l-26.1-11.9L484.6,606.5z"/>
											<path class="st6" d="M484.6,599.3l16.7,31.1c0,0,2.8,4,9.1,0l22-31.1l-26.1-11.9L484.6,599.3z"/>
										</g>
										<g>
											<path class="st14" d="M456.2,566.5l23.6,64.2c0,0,3.8,6.4,7.9,0l29.4-42.1L456.2,566.5z"/>
											<g>
												<path class="st14" d="M556.9,566.5l-23.6,64.2c0,0-3.8,6.4-7.9,0l-29.4-42.1L556.9,566.5z"/>
											</g>
										</g>
										<g>
											<path class="st15" d="M460.7,561.4l22,60.1c0,0,3.6,6,7.3,0l27.5-39.4L460.7,561.4z"/>
											<g>
												<path class="st15" d="M552.8,560.7l-22,60.1c0,0-3.6,6-7.3,0l-27.5-39.4L552.8,560.7z"/>
											</g>
										</g>
									</g>
								</g>
							</g>
						</g>
					</g>
					<path class="st16" d="M486.4,571.5l1,11.5l15.7,13.3c0,0,3.3,2.1,7.8,0l11.4-14.2l-1.3-11.5L486.4,571.5z"/>
					<path class="st17" d="M492,584.3c3.5,0.8,7.1,1.4,10.8,1.5c6.8,0.3,13.7-1.1,20.4-2.5c3.3-0.7,6.6-1.4,9.7-2.6
						c1.9-0.8,3.8-2,4-3.7c0.1-1.5-1.3-2.7-2.8-3.3c-1.8-0.8-3.9-1.2-6-1.5c-12.7-1.2-25.6,4.8-38.4,4.6c-1.1,0-2.2-0.1-3.3,0.2
						c-1.5,0.3-2.7,1.2-3.8,2.2c-1.6,1.4-0.6,1.7,1,2.5C486.1,583,489.1,583.7,492,584.3z"/>
				</g>
				<path class="st18" d="M610.7,496.1c-2.8-32.8-23.3-75.1-23.3-75.1l-74.1-2.4l0-0.4l-6.3,0.2l-6.3-0.2l0,0.4l-74.1,2.4
					c0,0-20.5,42.3-23.3,75.1c0,0-10.5,88,103.7,87.7C627.8,584.1,610.7,496.1,610.7,496.1z"/>
				<path class="st6" d="M557.7,408.8c-19.4-0.6-38.8-0.9-58.2-0.8c-9.3,0-18.6,0.1-28,0.3c-6.6,0.1-17.8-1.8-20,6.1
					c-0.6,2.2,0.1,3.9,1.4,5.1c-0.9,1.2-1.3,2.7-0.8,4.5c3.3,11.9,15.4,18.4,27.4,21.2c12.9,3,26.5,2.5,39.1-1.3
					c6.1,6.3,16.4,7.6,24.7,3.8c11.8-5.3,16.4-17.5,19.5-28.6c0.2-0.8,0.3-1.6,0.2-2.3C564.3,413.5,562.6,408.9,557.7,408.8z"/>
				<path class="st7" d="M559,401.5c-19.4-0.6-38.8-0.9-58.2-0.8c-9.3,0-18.6,0.1-28,0.3c-6.6,0.1-17.8-1.8-20,6.1
					c-0.6,2.2,0.1,3.9,1.4,5.1c-0.9,1.2-1.3,2.7-0.8,4.5c3.3,11.9,15.4,18.4,27.4,21.2c12.9,3,26.5,2.5,39.1-1.3
					c6.1,6.3,16.4,7.6,24.7,3.8c11.8-5.3,16.4-17.5,19.5-28.6c0.2-0.8,0.3-1.6,0.2-2.3C565.6,406.2,563.8,401.7,559,401.5z"/>
				<g>
					<g>
						<g>
							<path class="st10" d="M595.8,328.4c0,0-0.4-3.3-6.6-4.1c0,0-36.9-8.6-82.9-9.8c-46.1,1.2-82.9,9.8-82.9,9.8
								c-6.2,0.9-6.6,4.1-6.6,4.1l-23.5,66.3l54.4,14.7l58.6-4.9l58.6,4.9l54.4-14.7L595.8,328.4z"/>
						</g>
					</g>
					<path class="st19" d="M584.4,345.6c-8.3,1.3-16.9,2.6-24.9,5.1c-7.6,2.4-26.6,9.1-29.8-2.4c-0.1-0.2-0.1-0.3-0.2-0.5
						c-0.6,0-1.3,0-1.9,0c-1.2,0-2.5,0.2-3.7,0.3c-3.4,0.3-6.8,0.5-10.1,0.8c-8.2,0.8-16.4,2-24.6,3c-7.4,1-15,1.9-22.5,1.3
						c-3.8-0.3-7.7-1-11.2-2.5c-2.8-1.2-5.2-3.1-8.3-3.7c-12.2-2.4-25.6-0.4-37.8,3.2l-14.3,39.9c8.4-4,19.7-4.6,28.3-5.6
						c20.2-2.3,40.6-1.8,60.8-2.4c18.9-0.5,37.9-0.3,56.8-0.9c18-0.6,35.8-2.4,53.2-6.6c5.2-1.2,10.4-2.6,15.4-4.5l-9.5-26.5
						C595,344.1,589.6,344.8,584.4,345.6z"/>
					<path class="st20" d="M425.4,335.6c8.3-1,18-1.8,26.1,0.6c3,0.9,5.4,2.9,8.3,4c3.4,1.3,7.3,1.6,10.9,1.7
						c7.7,0.1,15.3-1.1,22.9-2c8.6-1.1,17.2-2.4,25.9-3c4.4-0.3,11.2-2.1,15,0.9c1.9,1.5,1.5,4.4,3.9,5.2c2.2,0.7,5,0.1,7.2-0.3
						c5.5-1.1,10.7-3.3,16.1-4.5c11.6-2.7,23.4-4.5,35.3-5.8l-1.4-4c0,0-0.4-3.3-6.6-4.1c0,0-36.9-8.6-82.9-9.8
						c-46.1,1.2-82.9,9.8-82.9,9.8c-6.2,0.9-6.6,4.1-6.6,4.1l-3.3,9.4C417.3,336.9,421.4,336.2,425.4,335.6z"/>
					<polygon points="402.3,369.2 393.3,394.7 447.7,409.4 506.3,404.6 564.9,409.4 619.3,394.7 610.2,369.2 					"/>
					<path class="st13" d="M439.4,379.7c16.3,0,32.6,0.2,48.8,2c16.1,1.8,32,6.5,48.2,7.4c17.1,0.9,34.1-1.6,51.1-3.8
						c9.2-1.2,18.4-1.9,27.6-2.3l-4.9-13.8H402.3l-5,14C411.1,380.2,425.3,379.7,439.4,379.7z"/>
					<path d="M580.7,393.4c-16.5,2.1-33.2,4.3-49.9,2.4c-16-1.8-31.5-5.9-47.6-7.5c-15.9-1.6-32-1.6-48-1.5
						c-13.8,0.1-27.5,0.9-40.8,4.4l-1.2,3.5l54.4,14.7l58.6-4.9l58.6,4.9l54.4-14.7l-1.6-4.6C605.3,390.7,593.1,391.8,580.7,393.4z"
						/>
					<ellipse class="st21" cx="508.9" cy="359.4" rx="34.7" ry="36.1"/>
					<path class="st13" d="M642.6,387.2c0,0-34,16-136.3,15.9C404,403.3,370,387.2,370,387.2c-17.1-8.6-15.2,4.8-15.2,4.8
						c2.4,17.6,31.9,24.4,31.9,24.4c20.9,5.9,98.7,8.7,119.6,8.9c20.8-0.2,98.6-3,119.6-8.9c0,0,29.5-6.8,31.9-24.4
						C657.8,392,659.6,378.7,642.6,387.2z"/>
				</g>
				<polyline class="st5" points="523.1,707.1 520.8,775.6 517.8,701.7 				"/>
				<ellipse class="st5" cx="507.1" cy="716.3" rx="6.2" ry="5.8"/>
				<ellipse class="st5" cx="507.4" cy="736.3" rx="6.2" ry="5.8"/>
				<polygon class="st5" points="569.5,676 581.6,753.8 575,755.3 				"/>
				<path class="st22" d="M530.6,484.8c0.6-3.6,1.8-7,3.9-10c3.2-4.8,8-6.5,13.7-4.7c6.8,2.1,10.9,6.9,14.2,12.6
					c0.2,0.4,0.1,0.9,0.2,1.7c-4.4-5.4-8.9-10.1-16.4-10.1C538.4,474.3,534.1,479.1,530.6,484.8z"/>
				<path class="st22" d="M455.2,484.8c2.2-4.8,4.5-9.4,9.2-12.4c4.1-2.6,7.9-2.1,11.1,1.5c3.3,3.7,4.8,8.2,6,12.9
					c-1.5-2.2-2.8-4.5-4.7-6.4c-4-4.1-7.6-4.8-12.9-2.2C460.5,479.8,457.9,482.4,455.2,484.8z"/>
				<path d="M502,369.6c1.8,1.4,3.8,0.2,5.7,0.8c-0.4,0.5-0.7,1.1-1.1,1.5c-1.8,1.6-4,2.2-6.5,2.1c-0.3,0-0.7-0.4-0.7-0.7
					c0-0.7-0.5-0.7-1-0.9c-1.1-0.2-2.4-0.4-3.3-1c-1.4-0.8-2.8-0.9-4.3-0.9c-0.6,0-1.3,0-2,0c0.1-1,0.1-1.8,0.3-2.6
					c0.2-0.9,0-1.7-0.3-2.7c-0.4-1.2-0.6-2.5-0.7-3.7c-0.1-0.9-0.1-1.5-1.6-1.3c0.2-0.9,0.3-1.6,0.5-2.3c0.6-2,1.9-3.4,3.6-4.6
					c0.3-0.2,0.8-0.1,1.2-0.2c0,0.3,0,0.6,0,1c-0.1,0.9-0.1,1.9-0.3,2.8c-0.1,0.6-0.2,1.3-0.6,1.8c-1,1.4,0.3,4.9,2.1,5.3
					c0.2,0,0.5-0.1,0.7-0.2c4.1-3.1,8.2-6.2,12.4-9.4c-0.5-0.5-1-0.9-1.5-1.3c-0.8,0.5-1.5,1.6-2.6,0.5c-0.8-0.8,0-1.5,0.7-2.2
					c-0.6-0.6-1.1-1.1-2.2-0.9c-1.8,0.3-3.4-1-3.8-2.7c-0.3-1.3,0.7-2.7,2.1-3.1c2-0.6,4.4,1,4.2,3.1c-0.1,1.2,0.7,1.5,1.4,2
					c0.7-0.5,1.4-1.3,2.3-0.5c0.7,0.6,0.3,1.4-0.3,2c2.1,1.8,1.5,1.8,3.9-0.1c-0.5-0.6-1.1-1.4-0.2-2.1c0.9-0.7,1.6,0.1,2.3,0.6
					c0.7-0.6,1.5-0.8,1.3-2c-0.2-1.5,1.4-3,3.1-3.2c1.6-0.1,3,0.8,3.3,2.4c0.4,1.9-1.6,3.9-3.8,3.6c-1-0.1-1.6,0.2-2.1,0.9
					c0.5,0.7,1.5,1.4,0.5,2.3c-1,0.9-1.7-0.2-2.5-0.7c-0.6,0.5-1.1,1-1.8,1.5c2.1,1.6,4.1,3.1,6.1,4.6c2.1,1.5,4.1,3.1,6.2,4.7
					c0.8,0.6,1.4,0.5,2-0.1c1.2-1.1,1.5-2.5,1.6-4c0-0.1,0-0.3-0.1-0.4c-1.1-0.9-0.9-2.1-0.9-3.3c0-0.6-0.2-1.1-0.2-1.7
					c0-0.3,0-0.7,0.1-1c0.4,0.1,0.8,0.1,1.1,0.2c1.7,1.1,3,2.5,3.6,4.4c0.3,0.7,0.4,1.5,0.5,2.3c-1.5,0.4-1.3,0.4-1.5,1.8
					c-0.2,1.4-0.8,2.7-1,4.1c-0.1,1,0,2.1,0.1,3.2c0,0.4,0.1,0.9,0.2,1.4c-1.3,0-2.5-0.1-3.6,0c-0.6,0-1.3,0.2-1.8,0.5
					c-1.4,0.7-2.8,1.3-4.4,1.4c-0.6,0-0.8,0.2-0.9,0.8c0,0.3-0.5,0.8-0.7,0.8c-2.5,0-4.9-0.5-6.7-2.4c-0.3-0.3-0.6-0.8-0.9-1.2
					c1.9-0.8,3.9,0.5,5.6-0.8c0.9,1.3,2.1,0.8,3.1,0.3c0.8-0.4,1.5-0.8,2.2-1.4c1-0.8,1-1.2,0-2.1c-2.2-1.9-4.4-3.8-6.6-5.7
					c-1.8-1.5-3.5-3-5.3-4.6c-3,2.6-6,5.1-9,7.7c-1,0.8-2,1.7-2.9,2.5c-0.8,0.7-0.8,1.2,0.1,1.8c0.9,0.6,1.8,1.2,2.8,1.6
					C500.3,370.5,501.4,370.9,502,369.6z M517.3,348.7c-0.1,0.1-0.3,0.3-0.4,0.4c1.3-0.4,1.9-0.9,1.8-1.7c-0.1-0.7-0.6-1.1-1.3-1.2
					c-0.8-0.1-1.5,0.5-1.8,1.6c0.2-0.2,0.4-0.4,0.6-0.6C516.5,347.8,516.9,348.3,517.3,348.7z M500.1,349.3c0.5-0.5,1-1,1.4-1.4
					c-0.4-1.1-1-1.6-1.9-1.4c-0.7,0.1-1.1,0.5-1.2,1.2C498.3,348.4,498.8,348.9,500.1,349.3z"/>
				<path class="st23" d="M501.1,368.7c1.8,1.4,3.8,0.2,5.7,0.8c-0.4,0.5-0.7,1.1-1.1,1.5c-1.8,1.6-4,2.2-6.5,2.1
					c-0.3,0-0.7-0.4-0.7-0.7c0-0.7-0.5-0.7-1-0.9c-1.1-0.2-2.4-0.4-3.3-1c-1.4-0.8-2.8-0.9-4.3-0.9c-0.6,0-1.3,0-2,0
					c0.1-1,0.1-1.8,0.3-2.6c0.2-0.9,0-1.7-0.3-2.7c-0.4-1.2-0.6-2.5-0.7-3.7c-0.1-0.9-0.1-1.5-1.6-1.3c0.2-0.9,0.3-1.6,0.5-2.3
					c0.6-2,1.9-3.4,3.6-4.6c0.3-0.2,0.8-0.1,1.2-0.2c0,0.3,0,0.6,0,1c-0.1,0.9-0.1,1.9-0.3,2.8c-0.1,0.6-0.2,1.3-0.6,1.8
					c-1,1.4,0.3,4.9,2.1,5.3c0.2,0,0.5-0.1,0.7-0.2c4.1-3.1,8.2-6.2,12.4-9.4c-0.5-0.5-1-0.9-1.5-1.3c-0.8,0.5-1.5,1.6-2.6,0.5
					c-0.8-0.8,0-1.5,0.7-2.2c-0.6-0.6-1.1-1.1-2.2-0.9c-1.8,0.3-3.4-1-3.8-2.7c-0.3-1.3,0.7-2.7,2.1-3.1c2-0.6,4.4,1,4.2,3.1
					c-0.1,1.2,0.7,1.5,1.4,2c0.7-0.5,1.4-1.3,2.3-0.5c0.7,0.6,0.3,1.4-0.3,2c2.1,1.8,1.5,1.8,3.9-0.1c-0.5-0.6-1.1-1.4-0.2-2.1
					c0.9-0.7,1.6,0.1,2.3,0.6c0.7-0.6,1.5-0.8,1.3-2c-0.2-1.5,1.4-3,3.1-3.2c1.6-0.1,3,0.8,3.3,2.4c0.4,1.9-1.6,3.9-3.8,3.6
					c-1-0.1-1.6,0.2-2.1,0.9c0.5,0.7,1.5,1.4,0.5,2.3c-1,0.9-1.7-0.2-2.5-0.7c-0.6,0.5-1.1,1-1.8,1.5c2.1,1.6,4.1,3.1,6.1,4.6
					c2.1,1.5,4.1,3.1,6.2,4.7c0.8,0.6,1.4,0.5,2-0.1c1.2-1.1,1.5-2.5,1.6-4c0-0.1,0-0.3-0.1-0.4c-1.1-0.9-0.9-2.1-0.9-3.3
					c0-0.6-0.2-1.1-0.2-1.7c0-0.3,0-0.7,0.1-1c0.4,0.1,0.8,0.1,1.1,0.2c1.7,1.1,3,2.5,3.6,4.4c0.3,0.7,0.4,1.5,0.5,2.3
					c-1.5,0.4-1.3,0.4-1.5,1.8c-0.2,1.4-0.8,2.7-1,4.1c-0.1,1,0,2.1,0.1,3.2c0,0.4,0.1,0.9,0.2,1.4c-1.3,0-2.5-0.1-3.6,0
					c-0.6,0-1.3,0.2-1.8,0.5c-1.4,0.7-2.8,1.3-4.4,1.4c-0.6,0-0.8,0.2-0.9,0.8c0,0.3-0.5,0.8-0.7,0.8c-2.5,0-4.9-0.5-6.7-2.4
					c-0.3-0.3-0.6-0.8-0.9-1.2c1.9-0.8,3.9,0.5,5.6-0.8c0.9,1.3,2.1,0.8,3.1,0.3c0.8-0.4,1.5-0.8,2.2-1.4c1-0.8,1-1.2,0-2.1
					c-2.2-1.9-4.4-3.8-6.6-5.7c-1.8-1.5-3.5-3-5.3-4.6c-3,2.6-6,5.1-9,7.7c-1,0.8-2,1.7-2.9,2.5c-0.8,0.7-0.8,1.2,0.1,1.8
					c0.9,0.6,1.8,1.2,2.8,1.6C499.4,369.6,500.4,370,501.1,368.7z M516.4,347.8c-0.1,0.1-0.3,0.3-0.4,0.4c1.3-0.4,1.9-0.9,1.8-1.7
					c-0.1-0.7-0.6-1.1-1.3-1.2c-0.8-0.1-1.5,0.5-1.8,1.6c0.2-0.2,0.4-0.4,0.6-0.6C515.6,346.9,516,347.4,516.4,347.8z M499.2,348.4
					c0.5-0.5,1-1,1.4-1.4c-0.4-1.1-1-1.6-1.9-1.4c-0.7,0.1-1.1,0.5-1.2,1.2C497.4,347.5,497.9,348,499.2,348.4z"/>
				<path class="st24" d="M448.3,427.5c0.9,1.6,1.5,3.4,1.5,5.2c0.1,3.5-2.1,6.2-4.6,8.5c-2.7,2.4-5.9,4.4-7.9,7.5
					c3,3.8,5.7,7.8,8.2,11.9c0.9,1.5,1.8,3.1,1.7,4.8c-0.2,5.5-5.4,9.7-8.3,14c-3.4,5-6.4,10.4-8.9,15.9
					c-7.9,17.3-13.5,39.2-6.4,57.7c1.2,3.1,3,6,2.3,9.4c-5.6-7.1-16.5-19.9-18.9-28.6c-3.3-11.7-1.1-24.4,3.3-35.8
					c4.3-11.4,10.7-21.9,15.9-32.9c1.6-3.4,3.2-7.6,1.2-10.9c-1.6-2.7-5.1-4-6-7c-0.8-2.9,1.5-5.8,4.1-7.4c2.6-1.6,5.6-2.5,7.8-4.6
					c2.2-2.1,3.2-6.1,0.8-8c-1.1-0.9-2.7-1.4-2.9-2.8c-0.1-0.6-0.1-1.9,0.6-1.8c3.4,0.5,12.2-0.5,15.1,3.2
					C447.5,426.2,448,426.8,448.3,427.5z"/>
				<path class="st18" d="M407,421l41-37.8c0,0,6-5.9,11.1-3.6c0,0,2,0.6-1.9,7.5l-9.1,16.6c0,0,0,0-5.9,9l-6.2,10.4l7.9,4.4
					c0,0,5.6,2.9,0.3,7.5l-17.3,13.6L407,421z"/>
				<g>
					<defs>
						<path id="SVGID_00000038403861006177542060000004711423598875882113_" d="M428.3,560.4c-7.7-7.2-10.5-13.2-10.5-13.2
							c-11-35.2,12-66,21.5-77.4c2.6-3.1,4.3-4.8,4.3-4.8l-3.2-4.5l-30.5-42.8c0,0-70.2,58.7-79.3,99.4c0,0-13.7,95.9,97.9,116.3
							L428.3,560.4z"/>
					</defs>
					<clipPath id="SVGID_00000100360069056086090140000011487825670066604965_">
						<use xlink:href="#SVGID_00000038403861006177542060000004711423598875882113_"  style="overflow:visible;"/>
					</clipPath>
					<g style="clip-path:url(#SVGID_00000100360069056086090140000011487825670066604965_);">
						<g>
							<path class="st10" d="M428.3,560.4c-7.7-7.2-10.5-13.2-10.5-13.2c-11-35.2,12-66,21.5-77.4c2.6-3.1,4.3-4.8,4.3-4.8l-3.2-4.5
								l-30.5-42.8c0,0-70.2,58.7-79.3,99.4c0,0-13.7,95.9,97.9,116.3L428.3,560.4z"/>
						</g>
					</g>
					<path style="clip-path:url(#SVGID_00000100360069056086090140000011487825670066604965_);fill:#9B6E4E;" d="M426.1,483
						c-3.5,6.2-7,12.3-9.7,18.9c-5.1,12.6-6.9,26.9-3,40s9.4,17.3,22.5,21c0.8,0.2,2.5,1.8,0.7,0.5c-2.5-1.8-5-3.4-7.3-5.3
						c-7.1-6.2-10.8-15.7-11.2-25.2c-0.5-9.4,1.9-18.8,5.1-27.7c5-13.8,12.2-26.8,21.1-38.5c0.9-1.2,1.9-2.5,1.7-4
						c-0.6-5.9-9.4,4.4-10.4,5.7C431.8,472.9,428.9,478,426.1,483z"/>
				</g>
				<g>
					<defs>
						<path id="SVGID_00000062173007175241231190000010387319254387465638_" d="M466.4,536.8c3.5,4.9,8,9.1,13.1,12.3
							c12.9,8.3,30,12,45.1,8.6c4.7-1.1,9.2-2.9,13.2-5.4c2.7-1.7,5.3-3.7,7.5-6c3.6-3.8,8-9,10.3-13.8c0.7-1.4,6.3-17,5.7-17.3
							c-4.1-1.9-6.7,6.1-50.9,12.3c-6.1,0.9-26.7,0.8-32.7-0.5c-2.5-0.6-5.8-1.3-8.3-1.9c-2.1-0.5-5-1.6-7.2-1.1
							c-2.7,0.6-1.3,3.3-0.4,4.9c1.5,2.5,2.8,5.1,4.5,7.6C466.3,536.6,466.4,536.7,466.4,536.8z"/>
					</defs>
					<clipPath id="SVGID_00000147929840647578379470000009739796584383697083_">
						<use xlink:href="#SVGID_00000062173007175241231190000010387319254387465638_"  style="overflow:visible;"/>
					</clipPath>
					<path style="clip-path:url(#SVGID_00000147929840647578379470000009739796584383697083_);fill:#EF9195;" d="M466.4,536.8
						c3.5,4.9,8,9.1,13.1,12.3c12.9,8.3,30,12,45.1,8.6c4.7-1.1,9.2-2.9,13.2-5.4c2.7-1.7,5.3-3.7,7.5-6c3.6-3.8,8-9,10.3-13.8
						c0.7-1.4,6.3-17,5.7-17.3c-4.1-1.9-6.7,6.1-50.9,12.3c-6.1,0.9-26.7,0.8-32.7-0.5c-2.5-0.6-5.8-1.3-8.3-1.9
						c-2.1-0.5-5-1.6-7.2-1.1c-2.7,0.6-1.3,3.3-0.4,4.9c1.5,2.5,2.8,5.1,4.5,7.6C466.3,536.6,466.4,536.7,466.4,536.8z"/>
					<g style="clip-path:url(#SVGID_00000147929840647578379470000009739796584383697083_);">
						<defs>
							<path id="SVGID_00000079470840739668770830000015861630469647651508_" d="M499.1,542.5c7.7,0.2,15.4-0.7,23-2.1
								c2.6-0.5,5.1-1.1,7.7-1.7c0.2,0.5,0.6,0.8,1.1,0.9c5.4,1.6,10.4,4.1,15.5,6.3c-3.3,4.3-7.7,7-12.4,9.2
								c-10.8,5.1-22,5.4-33.5,3.4c-4.1-0.7-8-1.8-11.8-3.2c-1-0.4-2.1-0.5-2.7-1.5C490,549.6,494.5,546,499.1,542.5z"/>
						</defs>
						<clipPath id="SVGID_00000035495911373223096970000017123111455684223897_">
							<use xlink:href="#SVGID_00000079470840739668770830000015861630469647651508_"  style="overflow:visible;"/>
						</clipPath>
						<path style="clip-path:url(#SVGID_00000035495911373223096970000017123111455684223897_);fill:#CE5351;" d="M498.9,542.9
							c7.7,0.2,15.4-0.7,23-2.1c2.6-0.5,5.1-1.1,7.7-1.7c0.2,0.5,0.6,0.8,1.1,0.9c5.4,1.6,10.4,4.1,15.5,6.3
							c-3.3,4.3-7.7,7-12.4,9.2c-10.8,5.1-22,5.4-33.5,3.4c-4.1-0.7-8-1.8-11.8-3.2c-1-0.4-2.1-0.5-2.7-1.5
							C489.8,550,494.3,546.4,498.9,542.9z"/>
						<path style="clip-path:url(#SVGID_00000035495911373223096970000017123111455684223897_);fill:#E8695F;" d="M501.4,542.7
							c7.7-0.1,15.4-1.3,22.9-3c2.6-0.6,5.1-1.3,7.7-2c0.2,0.5,0.6,0.8,1.1,0.9c5.4,1.4,10.5,3.6,15.7,5.7
							c-3.2,4.4-7.5,7.3-12.1,9.7c-10.6,5.5-21.8,6.3-33.4,4.8c-4.1-0.5-8-1.5-11.9-2.8c-1-0.3-2.1-0.4-2.7-1.4
							C492.6,550.2,497,546.4,501.4,542.7z"/>
					</g>
					<path style="clip-path:url(#SVGID_00000147929840647578379470000009739796584383697083_);fill:#FDFDFD;" d="M471,524.9
						c5,0.4,10,1.5,15.1,1.8c19.1,1.1,38.1-0.4,56.6-5.9c5.7-1.7,11.3-3.7,16.6-6.4c0.9-0.5,1.9-0.8,3.3-1.4c-0.2,2.7-1,4.9-1.9,7.1
						c-0.8,0.6-1.6,1.2-2.3,1.8c-5.5,4.9-11.6,8.9-18.1,12.3c-3.9,2-8.1,3.7-12.3,5c-1.5,0.4-2.9,0.8-4.4,1.1
						c-4.3,1-8.7,1.7-13.1,2.1c-4.2,0.4-8.7,1-12.9,0.6c-3.6-0.4-7.3-0.4-10.9-1c-5.3-0.9-10-2.8-12.9-7.7
						C472.3,531.7,471.7,528,471,524.9z"/>
				</g>
			</g>
		</g>
		
			<circle style="clip-path:url(#SVGID_00000084492742619236160780000011035800096114063786_);fill:#0B75A4;" cx="500" cy="500" r="265.5"/>
		<g style="clip-path:url(#SVGID_00000084492742619236160780000011035800096114063786_);">
			<path class="st2" d="M642,431.5c-2.1-4.3-4.9-8.7-8-12.3c0-0.1-0.1-0.1-0.2-0.2c8.9-3.2,23.2-10.2,24.9-22.2
				c0,0,1.9-13.3-15.2-4.8c0,0-6.8,3.2-23.6,6.7l-3.9-11l0,0l-4.9-13.8l0,0l-14.4-40.7c0,0-0.4-3.3-6.6-4.1c0,0-36.9-8.6-82.9-9.8
				c0,0,0,0,0,0c0,0,0,0,0,0c-46.1,1.2-82.9,9.8-82.9,9.8c-6.2,0.9-6.6,4.1-6.6,4.1l-3.3,9.4c0,0,0.1,0,0.1,0L403.3,374l0,0
				l-7.8,22.1l0,0l-1,2.8c-16.7-3.5-23.6-6.7-23.6-6.7c-17.1-8.6-15.2,4.8-15.2,4.8c1.5,11,13.6,17.8,22.5,21.3
				c-8.3,18.6-14.7,45.1-16.2,51.4c-14.3,16.7-27,35.2-30.5,51c0,0-1.3,9,0.1,22c2,20.5,10.6,52,42.4,73.9c0.2,0.1,0.4,0.3,0.6,0.4
				c0.7,0.5,1.5,1,2.3,1.5c0.4,0.3,0.8,0.5,1.3,0.8c0.6,0.4,1.1,0.7,1.7,1.1c0.6,0.4,1.3,0.8,1.9,1.1c0.4,0.2,0.8,0.5,1.2,0.7
				c0.8,0.5,1.7,0.9,2.5,1.4c0.2,0.1,0.5,0.2,0.7,0.4c1,0.5,2.1,1.1,3.1,1.6c0.1,0,0.2,0.1,0.3,0.1c8.6,4.1,18.4,7.7,29.6,10.4
				c0.2,0,0.4,0.1,0.6,0.1c1.4,0.3,2.7,0.6,4.1,0.9c0.5,0.1,1,0.2,1.6,0.3c1.1,0.2,2.1,0.4,3.2,0.6c0.3,0.1,0.5,0.1,0.8,0.2
				c-7.6,22.7-24.6,68.9-29.6,78.2c0,0-5.5,9.4,1.6,11.8l3.2,6.8l-9,26.2c0,0-5.2,9,6.5,10.2c0,0,62.9,32.5,162.4-0.8
				c0,0,2.6-0.4,4.5-2.4c1.3-0.4,2.5-0.8,3.8-1.2c0,0,5.4-0.9,6.4-6.1c5.9-0.6,14.5-2.6,25.2-7.9c5.2-2,11-4.8,17.3-8.8
				c0,0,2.3,0,0-9.5c0,0-12.7-73.3-23.6-116.2c1.7-0.7,3.4-1.7,5.2-2.9c4.6-3.1,8.8-6.8,12.3-11c5.1-6.1,9-13.2,11.3-20.9
				c1.5-5,0.6-6.6,6-7.8c4.6-1,9.1-2.1,13.4-4c5.6-2.5,10.9-6.4,13.8-11.8c2.8-5,3.4-11,3.7-16.7C665.8,505,658.8,466.1,642,431.5z
				 M429.5,638.1C429.5,638.1,429.5,638.1,429.5,638.1C429.5,638.1,429.5,638.1,429.5,638.1L429.5,638.1z"/>
			<g>
				<path class="st3" d="M420.2,570.8c7.7,0,15.5-0.1,23.2,0c7.4,0.1,12.4,4.6,12.3,10.8c-0.1,6.3-5,10.8-12.4,10.9
					c-15.7,0.1-31.3,0.1-47,0c-7.3-0.1-12.3-4.9-12.1-11.2c0.2-6.1,5.2-10.4,12.2-10.5C404.4,570.7,412.3,570.8,420.2,570.8z"/>
				<path class="st4" d="M491.9,634.4c-7.7,0-15.5,0-23.2,0c-7.1,0-11.4-3.6-11.7-9.5c-0.4-6.7,3.9-12,10.9-12.2
					c16.2-0.3,32.4-0.3,48.6,0c7.3,0.1,11.9,5.4,11.5,11.7c-0.3,5.8-5.5,9.9-12.7,9.9C507.4,634.4,499.7,634.4,491.9,634.4z"/>
				<path class="st3" d="M551.2,669.4c0,6.3-5,10.8-11.7,10.8c-6.3-0.1-11.3-4.8-11.4-10.7c-0.1-6.2,5-11,11.5-11
					C546.2,658.4,551.2,663.2,551.2,669.4z"/>
				<path class="st3" d="M434.7,612.5c6.6,0,11.7,4.8,11.6,10.9c-0.1,5.9-5,10.6-11.3,10.8c-6.6,0.1-11.8-4.6-11.8-10.7
					C423.1,617.2,428.1,612.6,434.7,612.5z"/>
				<path class="st3" d="M471.1,570.7c6.7,0,11.3,4.3,11.4,10.5c0.1,6.3-4.9,11.1-11.5,11.2c-6.4,0-11.7-5.1-11.6-11.2
					C459.5,575.3,464.6,570.7,471.1,570.7z"/>
				<path class="st4" d="M576.6,680.2c-6.7,0-11.6-4.6-11.6-10.9c0-6.2,5.1-10.9,11.7-10.9c6.1,0.1,11.4,5,11.5,10.7
					C588.3,675.3,583.2,680.1,576.6,680.2z"/>
				<path class="st5" d="M585.8,637.6l-160.6-13.5c-4.4,15-26.3,75.6-32.1,86.4c0,0-8.8,12.5-1.8,14.8l6.5,3.5l-8.9,25.9
					c0,0-5.1,8.9,6.4,10.1c0,0,62.2,32.1,160.6-0.8c0,0,7.7-1.3,6.2-9.5c0,0,17,2.8,42.1-12.9c0,0,2.3,0,0-9.4
					C604.3,732.2,595.2,679.5,585.8,637.6z"/>
				<path class="st6" d="M350.7,466.1c0.9,4.6,4.5,7.9,8.5,10.4c10.3,6.3,21.2,11.7,31.6,17.9c21.1,12.6,41.5,26.2,61.7,40
					c20.3,13.8,40.4,27.8,60.9,41.2c10.3,6.7,20.6,13.2,31.1,19.6c10.4,6.2,21,12.7,32,18c6,2.9,10.6,1,15.8-2.4
					c4.6-3.1,8.8-6.8,12.3-11c5.1-6.1,9-13.2,11.3-20.9c1.5-5,0.6-6.6,6-7.8c4.6-1,9.1-2.1,13.4-4c5.6-2.5,10.9-6.4,13.8-11.8
					c2.8-5,3.4-11,3.7-16.7c2-38.3-5.1-77.2-21.8-111.8c-2.1-4.3-4.9-8.7-8-12.3c-2.2-2.6-6.1-1.8-9.3-1.8c-4-0.1-8.1-0.1-12.1-0.2
					c-8.1-0.1-16.1-0.2-24.2-0.4c-32.5-0.5-65-1.2-97.4-2c-34.7-0.9-69.4-2-104.1-3.2c-0.6-0.7-1.5-1.1-2.7-1.1
					c-1.1,0-2,0.4-2.6,0.9c-0.1,0-0.1,0-0.2,0C359.4,427.1,350.7,466.1,350.7,466.1z"/>
				<path class="st7" d="M623.7,512.8c-3.5-25.6-9.5-51.3-21.2-74.7c-2.8-5.7-6-11.2-9.5-16.5c-3.4-5.2-7.2-11.1-11.9-15.4
					c-2.5-2.3-6.3-1.1-9.5-0.8c-4,0.4-8,0.8-12.1,1.2c-8,0.8-16.1,1.6-24.1,2.4c-20.5,2.1-41.1,4-61.6,6l19.2,165.1
					c10.2,5,20.5,10,30.9,14.6c11.1,5,22.4,10.2,34,14.1c6.3,2.1,10.7-0.2,15.4-4.3c4.2-3.6,8-7.7,11-12.3
					c5.9-8.8,9.1-18.7,9.6-28.9c9.6-3.1,19.8-7.1,26.3-14.8C628.7,538.4,625.3,524.6,623.7,512.8z"/>
				<ellipse class="st8" cx="454.4" cy="477.8" rx="2.9" ry="2.7"/>
				<ellipse class="st8" cx="535.6" cy="477.8" rx="2.9" ry="2.7"/>
				<path class="st9" d="M477.9,545.9c0,0,15.5,3,36.8-10.6"/>
				<path class="st9" d="M494.6,512.3c-2.8,2-6.8,1.4-8.9-1.2s-1.5-6.4,1.3-8.3"/>
				<g>
					<g>
						<path class="st10" d="M476.8,572.1c-66.1-1.2-69.1-26.2-69.1-26.2c-11.7-45.2,25.8-82.2,25.8-82.2l-33.7-47.3
							c0,0-70.2,58.7-79.3,99.4c0,0-14.2,99.4,101.6,118.2c0,0-17.4,59.9-24.8,73.9c0,0-8.9,12.6-1.8,15l6.6,3.6l-9,26.2
							c0,0-5.2,9,6.5,10.2c0,0,62.9,32.5,162.4-0.8c0,0,7.8-1.3,6.3-9.6c0,0,17.2,2.9,42.6-13.1c0,0,2.3,0,0-9.5
							c0,0-24-139-34.5-146.2c0,0-5.3-8.4-14.7-6.4l-19.3,2.4l-0.3-10.1L476.8,572.1z"/>
						<g>
							<path class="st11" d="M428,574.6l5.8,36.4c0,0,0.1,13.3,12.9,9.4c11.1-3.4,5.1,3.1,5.1,3.1l-5.8,11.1c0,0-3.3,4.1,2.8,9.6
								l61.6,63.9l-62.6-134.8l-19.8-4.1V574.6z"/>
							<path class="st5" d="M430.8,575.4l5.8,35.9c0,0,0.1,13.1,12.9,9.3c11.1-3.3,5.1,3.1,5.1,3.1l-5.8,10.9c0,0-3.3,4,2.8,9.5
								l61.6,63l-62.6-132.9l-19.8-4V575.4z"/>
							<path class="st11" d="M562.2,573.2l-5.8,35.9c0,0-0.1,13.1-12.9,9.3c-11.1-3.3-5.1,3.1-5.1,3.1l5.8,10.9c0,0,1.8,3.4-2.8,9.5
								l-33.4,53.1l-5.4-8.8L542.4,572l19.8-4V573.2z"/>
							<path class="st5" d="M559.5,573.2l-5.8,35.9c0,0-0.1,13.1-12.9,9.3c-11.1-3.3-5.1,3.1-5.1,3.1l5.8,10.9c0,0,1.8,3.4-2.8,9.5
								l-33.4,53.1l-5.4-8.8L539.7,572l19.8-4V573.2z"/>
							<g>
								<polygon class="st12" points="451.3,567.9 498.1,690.6 538.9,575.8 								"/>
								<g>
									<g>
										<g>
											<polygon class="st13" points="481.7,648.8 489.1,633.6 502.5,633.6 513.1,648.4 498.1,690.6 											"/>
											<path class="st13" d="M474.6,606.5l16.7,31.1c0,0,2.8,4,9.1,0l22-31.1l-26.1-11.9L474.6,606.5z"/>
											<path class="st6" d="M474.6,599.3l16.7,31.1c0,0,2.8,4,9.1,0l22-31.1l-26.1-11.9L474.6,599.3z"/>
										</g>
										<g>
											<path class="st14" d="M446.2,566.5l23.6,64.2c0,0,3.8,6.4,7.9,0l29.4-42.1L446.2,566.5z"/>
											<g>
												<path class="st14" d="M546.9,566.5l-23.6,64.2c0,0-3.8,6.4-7.9,0l-29.4-42.1L546.9,566.5z"/>
											</g>
										</g>
										<g>
											<path class="st15" d="M450.7,561.4l22,60.1c0,0,3.6,6,7.3,0l27.5-39.4L450.7,561.4z"/>
											<g>
												<path class="st15" d="M542.8,560.7l-22,60.1c0,0-3.6,6-7.3,0l-27.5-39.4L542.8,560.7z"/>
											</g>
										</g>
									</g>
								</g>
							</g>
						</g>
					</g>
					<path class="st16" d="M476.4,571.5l1,11.5l15.7,13.3c0,0,3.3,2.1,7.8,0l11.4-14.2l-1.3-11.5L476.4,571.5z"/>
					<path class="st17" d="M482,584.3c3.5,0.8,7.1,1.4,10.8,1.5c6.8,0.3,13.7-1.1,20.4-2.5c3.3-0.7,6.6-1.4,9.7-2.6
						c1.9-0.8,3.8-2,4-3.7c0.1-1.5-1.3-2.7-2.8-3.3c-1.8-0.8-3.9-1.2-6-1.5c-12.7-1.2-25.6,4.8-38.4,4.6c-1.1,0-2.2-0.1-3.3,0.2
						c-1.5,0.3-2.7,1.2-3.8,2.2c-1.6,1.4-0.6,1.7,1,2.5C476.1,583,479.1,583.7,482,584.3z"/>
				</g>
				<path class="st18" d="M600.7,496.1c-2.8-32.8-23.3-75.1-23.3-75.1l-74.1-2.4l0-0.4l-6.3,0.2l-6.3-0.2l0,0.4l-74.1,2.4
					c0,0-20.5,42.3-23.3,75.1c0,0-10.5,88,103.7,87.7C617.8,584.1,600.7,496.1,600.7,496.1z"/>
				<path class="st6" d="M547.7,408.8c-19.4-0.6-38.8-0.9-58.2-0.8c-9.3,0-18.6,0.1-28,0.3c-6.6,0.1-17.8-1.8-20,6.1
					c-0.6,2.2,0.1,3.9,1.4,5.1c-0.9,1.2-1.3,2.7-0.8,4.5c3.3,11.9,15.4,18.4,27.4,21.2c12.9,3,26.5,2.5,39.1-1.3
					c6.1,6.3,16.4,7.6,24.7,3.8c11.8-5.3,16.4-17.5,19.5-28.6c0.2-0.8,0.3-1.6,0.2-2.3C554.3,413.5,552.6,408.9,547.7,408.8z"/>
				<path class="st7" d="M549,401.5c-19.4-0.6-38.8-0.9-58.2-0.8c-9.3,0-18.6,0.1-28,0.3c-6.6,0.1-17.8-1.8-20,6.1
					c-0.6,2.2,0.1,3.9,1.4,5.1c-0.9,1.2-1.3,2.7-0.8,4.5c3.3,11.9,15.4,18.4,27.4,21.2c12.9,3,26.5,2.5,39.1-1.3
					c6.1,6.3,16.4,7.6,24.7,3.8c11.8-5.3,16.4-17.5,19.5-28.6c0.2-0.8,0.3-1.6,0.2-2.3C555.6,406.2,553.8,401.7,549,401.5z"/>
				<g>
					<g>
						<g>
							<path class="st10" d="M585.8,328.4c0,0-0.4-3.3-6.6-4.1c0,0-36.9-8.6-82.9-9.8c-46.1,1.2-82.9,9.8-82.9,9.8
								c-6.2,0.9-6.6,4.1-6.6,4.1l-23.5,66.3l54.4,14.7l58.6-4.9l58.6,4.9l54.4-14.7L585.8,328.4z"/>
						</g>
					</g>
					<path class="st19" d="M574.4,345.6c-8.3,1.3-16.9,2.6-24.9,5.1c-7.6,2.4-26.6,9.1-29.8-2.4c-0.1-0.2-0.1-0.3-0.2-0.5
						c-0.6,0-1.3,0-1.9,0c-1.2,0-2.5,0.2-3.7,0.3c-3.4,0.3-6.8,0.5-10.1,0.8c-8.2,0.8-16.4,2-24.6,3c-7.4,1-15,1.9-22.5,1.3
						c-3.8-0.3-7.7-1-11.2-2.5c-2.8-1.2-5.2-3.1-8.3-3.7c-12.2-2.4-25.6-0.4-37.8,3.2l-14.3,39.9c8.4-4,19.7-4.6,28.3-5.6
						c20.2-2.3,40.6-1.8,60.8-2.4c18.9-0.5,37.9-0.3,56.8-0.9c18-0.6,35.8-2.4,53.2-6.6c5.2-1.2,10.4-2.6,15.4-4.5l-9.5-26.5
						C585,344.1,579.6,344.8,574.4,345.6z"/>
					<path class="st20" d="M415.4,335.6c8.3-1,18-1.8,26.1,0.6c3,0.9,5.4,2.9,8.3,4c3.4,1.3,7.3,1.6,10.9,1.7
						c7.7,0.1,15.3-1.1,22.9-2c8.6-1.1,17.2-2.4,25.9-3c4.4-0.3,11.2-2.1,15,0.9c1.9,1.5,1.5,4.4,3.9,5.2c2.2,0.7,5,0.1,7.2-0.3
						c5.5-1.1,10.7-3.3,16.1-4.5c11.6-2.7,23.4-4.5,35.3-5.8l-1.4-4c0,0-0.4-3.3-6.6-4.1c0,0-36.9-8.6-82.9-9.8
						c-46.1,1.2-82.9,9.8-82.9,9.8c-6.2,0.9-6.6,4.1-6.6,4.1l-3.3,9.4C407.3,336.9,411.4,336.2,415.4,335.6z"/>
					<polygon points="392.3,369.2 383.3,394.7 437.7,409.4 496.3,404.6 554.9,409.4 609.3,394.7 600.2,369.2 					"/>
					<path class="st13" d="M429.4,379.7c16.3,0,32.6,0.2,48.8,2c16.1,1.8,32,6.5,48.2,7.4c17.1,0.9,34.1-1.6,51.1-3.8
						c9.2-1.2,18.4-1.9,27.6-2.3l-4.9-13.8H392.3l-5,14C401.1,380.2,415.3,379.7,429.4,379.7z"/>
					<path d="M570.7,393.4c-16.5,2.1-33.2,4.3-49.9,2.4c-16-1.8-31.5-5.9-47.6-7.5c-15.9-1.6-32-1.6-48-1.5
						c-13.8,0.1-27.5,0.9-40.8,4.4l-1.2,3.5l54.4,14.7l58.6-4.9l58.6,4.9l54.4-14.7l-1.6-4.6C595.3,390.7,583.1,391.8,570.7,393.4z"
						/>
					<ellipse class="st21" cx="498.9" cy="359.4" rx="34.7" ry="36.1"/>
					<path class="st13" d="M632.6,387.2c0,0-34,16-136.3,15.9C394,403.3,360,387.2,360,387.2c-17.1-8.6-15.2,4.8-15.2,4.8
						c2.4,17.6,31.9,24.4,31.9,24.4c20.9,5.9,98.7,8.7,119.6,8.9c20.8-0.2,98.6-3,119.6-8.9c0,0,29.5-6.8,31.9-24.4
						C647.8,392,649.6,378.7,632.6,387.2z"/>
				</g>
				<polyline class="st5" points="513.1,707.1 510.8,775.6 507.8,701.7 				"/>
				<ellipse class="st5" cx="497.1" cy="716.3" rx="6.2" ry="5.8"/>
				<ellipse class="st5" cx="497.4" cy="736.3" rx="6.2" ry="5.8"/>
				<polygon class="st5" points="559.5,676 571.6,753.8 565,755.3 				"/>
				<path class="st22" d="M520.6,484.8c0.6-3.6,1.8-7,3.9-10c3.2-4.8,8-6.5,13.7-4.7c6.8,2.1,10.9,6.9,14.2,12.6
					c0.2,0.4,0.1,0.9,0.2,1.7c-4.4-5.4-8.9-10.1-16.4-10.1C528.4,474.3,524.1,479.1,520.6,484.8z"/>
				<path class="st22" d="M445.2,484.8c2.2-4.8,4.5-9.4,9.2-12.4c4.1-2.6,7.9-2.1,11.1,1.5c3.3,3.7,4.8,8.2,6,12.9
					c-1.5-2.2-2.8-4.5-4.7-6.4c-4-4.1-7.6-4.8-12.9-2.2C450.5,479.8,447.9,482.4,445.2,484.8z"/>
				<path d="M492,369.6c1.8,1.4,3.8,0.2,5.7,0.8c-0.4,0.5-0.7,1.1-1.1,1.5c-1.8,1.6-4,2.2-6.5,2.1c-0.3,0-0.7-0.4-0.7-0.7
					c0-0.7-0.5-0.7-1-0.9c-1.1-0.2-2.4-0.4-3.3-1c-1.4-0.8-2.8-0.9-4.3-0.9c-0.6,0-1.3,0-2,0c0.1-1,0.1-1.8,0.3-2.6
					c0.2-0.9,0-1.7-0.3-2.7c-0.4-1.2-0.6-2.5-0.7-3.7c-0.1-0.9-0.1-1.5-1.6-1.3c0.2-0.9,0.3-1.6,0.5-2.3c0.6-2,1.9-3.4,3.6-4.6
					c0.3-0.2,0.8-0.1,1.2-0.2c0,0.3,0,0.6,0,1c-0.1,0.9-0.1,1.9-0.3,2.8c-0.1,0.6-0.2,1.3-0.6,1.8c-1,1.4,0.3,4.9,2.1,5.3
					c0.2,0,0.5-0.1,0.7-0.2c4.1-3.1,8.2-6.2,12.4-9.4c-0.5-0.5-1-0.9-1.5-1.3c-0.8,0.5-1.5,1.6-2.6,0.5c-0.8-0.8,0-1.5,0.7-2.2
					c-0.6-0.6-1.1-1.1-2.2-0.9c-1.8,0.3-3.4-1-3.8-2.7c-0.3-1.3,0.7-2.7,2.1-3.1c2-0.6,4.4,1,4.2,3.1c-0.1,1.2,0.7,1.5,1.4,2
					c0.7-0.5,1.4-1.3,2.3-0.5c0.7,0.6,0.3,1.4-0.3,2c2.1,1.8,1.5,1.8,3.9-0.1c-0.5-0.6-1.1-1.4-0.2-2.1c0.9-0.7,1.6,0.1,2.3,0.6
					c0.7-0.6,1.5-0.8,1.3-2c-0.2-1.5,1.4-3,3.1-3.2c1.6-0.1,3,0.8,3.3,2.4c0.4,1.9-1.6,3.9-3.8,3.6c-1-0.1-1.6,0.2-2.1,0.9
					c0.5,0.7,1.5,1.4,0.5,2.3c-1,0.9-1.7-0.2-2.5-0.7c-0.6,0.5-1.1,1-1.8,1.5c2.1,1.6,4.1,3.1,6.1,4.6c2.1,1.5,4.1,3.1,6.2,4.7
					c0.8,0.6,1.4,0.5,2-0.1c1.2-1.1,1.5-2.5,1.6-4c0-0.1,0-0.3-0.1-0.4c-1.1-0.9-0.9-2.1-0.9-3.3c0-0.6-0.2-1.1-0.2-1.7
					c0-0.3,0-0.7,0.1-1c0.4,0.1,0.8,0.1,1.1,0.2c1.7,1.1,3,2.5,3.6,4.4c0.3,0.7,0.4,1.5,0.5,2.3c-1.5,0.4-1.3,0.4-1.5,1.8
					c-0.2,1.4-0.8,2.7-1,4.1c-0.1,1,0,2.1,0.1,3.2c0,0.4,0.1,0.9,0.2,1.4c-1.3,0-2.5-0.1-3.6,0c-0.6,0-1.3,0.2-1.8,0.5
					c-1.4,0.7-2.8,1.3-4.4,1.4c-0.6,0-0.8,0.2-0.9,0.8c0,0.3-0.5,0.8-0.7,0.8c-2.5,0-4.9-0.5-6.7-2.4c-0.3-0.3-0.6-0.8-0.9-1.2
					c1.9-0.8,3.9,0.5,5.6-0.8c0.9,1.3,2.1,0.8,3.1,0.3c0.8-0.4,1.5-0.8,2.2-1.4c1-0.8,1-1.2,0-2.1c-2.2-1.9-4.4-3.8-6.6-5.7
					c-1.8-1.5-3.5-3-5.3-4.6c-3,2.6-6,5.1-9,7.7c-1,0.8-2,1.7-2.9,2.5c-0.8,0.7-0.8,1.2,0.1,1.8c0.9,0.6,1.8,1.2,2.8,1.6
					C490.3,370.5,491.4,370.9,492,369.6z M507.3,348.7c-0.1,0.1-0.3,0.3-0.4,0.4c1.3-0.4,1.9-0.9,1.8-1.7c-0.1-0.7-0.6-1.1-1.3-1.2
					c-0.8-0.1-1.5,0.5-1.8,1.6c0.2-0.2,0.4-0.4,0.6-0.6C506.5,347.8,506.9,348.3,507.3,348.7z M490.1,349.3c0.5-0.5,1-1,1.4-1.4
					c-0.4-1.1-1-1.6-1.9-1.4c-0.7,0.1-1.1,0.5-1.2,1.2C488.3,348.4,488.8,348.9,490.1,349.3z"/>
				<path class="st23" d="M491.1,368.7c1.8,1.4,3.8,0.2,5.7,0.8c-0.4,0.5-0.7,1.1-1.1,1.5c-1.8,1.6-4,2.2-6.5,2.1
					c-0.3,0-0.7-0.4-0.7-0.7c0-0.7-0.5-0.7-1-0.9c-1.1-0.2-2.4-0.4-3.3-1c-1.4-0.8-2.8-0.9-4.3-0.9c-0.6,0-1.3,0-2,0
					c0.1-1,0.1-1.8,0.3-2.6c0.2-0.9,0-1.7-0.3-2.7c-0.4-1.2-0.6-2.5-0.7-3.7c-0.1-0.9-0.1-1.5-1.6-1.3c0.2-0.9,0.3-1.6,0.5-2.3
					c0.6-2,1.9-3.4,3.6-4.6c0.3-0.2,0.8-0.1,1.2-0.2c0,0.3,0,0.6,0,1c-0.1,0.9-0.1,1.9-0.3,2.8c-0.1,0.6-0.2,1.3-0.6,1.8
					c-1,1.4,0.3,4.9,2.1,5.3c0.2,0,0.5-0.1,0.7-0.2c4.1-3.1,8.2-6.2,12.4-9.4c-0.5-0.5-1-0.9-1.5-1.3c-0.8,0.5-1.5,1.6-2.6,0.5
					c-0.8-0.8,0-1.5,0.7-2.2c-0.6-0.6-1.1-1.1-2.2-0.9c-1.8,0.3-3.4-1-3.8-2.7c-0.3-1.3,0.7-2.7,2.1-3.1c2-0.6,4.4,1,4.2,3.1
					c-0.1,1.2,0.7,1.5,1.4,2c0.7-0.5,1.4-1.3,2.3-0.5c0.7,0.6,0.3,1.4-0.3,2c2.1,1.8,1.5,1.8,3.9-0.1c-0.5-0.6-1.1-1.4-0.2-2.1
					c0.9-0.7,1.6,0.1,2.3,0.6c0.7-0.6,1.5-0.8,1.3-2c-0.2-1.5,1.4-3,3.1-3.2c1.6-0.1,3,0.8,3.3,2.4c0.4,1.9-1.6,3.9-3.8,3.6
					c-1-0.1-1.6,0.2-2.1,0.9c0.5,0.7,1.5,1.4,0.5,2.3c-1,0.9-1.7-0.2-2.5-0.7c-0.6,0.5-1.1,1-1.8,1.5c2.1,1.6,4.1,3.1,6.1,4.6
					c2.1,1.5,4.1,3.1,6.2,4.7c0.8,0.6,1.4,0.5,2-0.1c1.2-1.1,1.5-2.5,1.6-4c0-0.1,0-0.3-0.1-0.4c-1.1-0.9-0.9-2.1-0.9-3.3
					c0-0.6-0.2-1.1-0.2-1.7c0-0.3,0-0.7,0.1-1c0.4,0.1,0.8,0.1,1.1,0.2c1.7,1.1,3,2.5,3.6,4.4c0.3,0.7,0.4,1.5,0.5,2.3
					c-1.5,0.4-1.3,0.4-1.5,1.8c-0.2,1.4-0.8,2.7-1,4.1c-0.1,1,0,2.1,0.1,3.2c0,0.4,0.1,0.9,0.2,1.4c-1.3,0-2.5-0.1-3.6,0
					c-0.6,0-1.3,0.2-1.8,0.5c-1.4,0.7-2.8,1.3-4.4,1.4c-0.6,0-0.8,0.2-0.9,0.8c0,0.3-0.5,0.8-0.7,0.8c-2.5,0-4.9-0.5-6.7-2.4
					c-0.3-0.3-0.6-0.8-0.9-1.2c1.9-0.8,3.9,0.5,5.6-0.8c0.9,1.3,2.1,0.8,3.1,0.3c0.8-0.4,1.5-0.8,2.2-1.4c1-0.8,1-1.2,0-2.1
					c-2.2-1.9-4.4-3.8-6.6-5.7c-1.8-1.5-3.5-3-5.3-4.6c-3,2.6-6,5.1-9,7.7c-1,0.8-2,1.7-2.9,2.5c-0.8,0.7-0.8,1.2,0.1,1.8
					c0.9,0.6,1.8,1.2,2.8,1.6C489.4,369.6,490.4,370,491.1,368.7z M506.4,347.8c-0.1,0.1-0.3,0.3-0.4,0.4c1.3-0.4,1.9-0.9,1.8-1.7
					c-0.1-0.7-0.6-1.1-1.3-1.2c-0.8-0.1-1.5,0.5-1.8,1.6c0.2-0.2,0.4-0.4,0.6-0.6C505.6,346.9,506,347.4,506.4,347.8z M489.2,348.4
					c0.5-0.5,1-1,1.4-1.4c-0.4-1.1-1-1.6-1.9-1.4c-0.7,0.1-1.1,0.5-1.2,1.2C487.4,347.5,487.9,348,489.2,348.4z"/>
				<path class="st24" d="M438.3,427.5c0.9,1.6,1.5,3.4,1.5,5.2c0.1,3.5-2.1,6.2-4.6,8.5c-2.7,2.4-5.9,4.4-7.9,7.5
					c3,3.8,5.7,7.8,8.2,11.9c0.9,1.5,1.8,3.1,1.7,4.8c-0.2,5.5-5.4,9.7-8.3,14c-3.4,5-6.4,10.4-8.9,15.9
					c-7.9,17.3-13.5,39.2-6.4,57.7c1.2,3.1,3,6,2.3,9.4c-5.6-7.1-16.5-19.9-18.9-28.6c-3.3-11.7-1.1-24.4,3.3-35.8
					c4.3-11.4,10.7-21.9,15.9-32.9c1.6-3.4,3.2-7.6,1.2-10.9c-1.6-2.7-5.1-4-6-7c-0.8-2.9,1.5-5.8,4.1-7.4c2.6-1.6,5.6-2.5,7.8-4.6
					c2.2-2.1,3.2-6.1,0.8-8c-1.1-0.9-2.7-1.4-2.9-2.8c-0.1-0.6-0.1-1.9,0.6-1.8c3.4,0.5,12.2-0.5,15.1,3.2
					C437.5,426.2,438,426.8,438.3,427.5z"/>
				<path class="st18" d="M397,421l41-37.8c0,0,6-5.9,11.1-3.6c0,0,2,0.6-1.9,7.5l-9.1,16.6c0,0,0,0-5.9,9l-6.2,10.4l7.9,4.4
					c0,0,5.6,2.9,0.3,7.5l-17.3,13.6L397,421z"/>
				<g>
					<defs>
						<path id="SVGID_00000083054902209194440700000007084507654759416990_" d="M418.3,560.4c-7.7-7.2-10.5-13.2-10.5-13.2
							c-11-35.2,12-66,21.5-77.4c2.6-3.1,4.3-4.8,4.3-4.8l-3.2-4.5l-30.5-42.8c0,0-70.2,58.7-79.3,99.4c0,0-13.7,95.9,97.9,116.3
							L418.3,560.4z"/>
					</defs>
					<clipPath id="SVGID_00000026849864991093174760000005509948965013421193_">
						<use xlink:href="#SVGID_00000083054902209194440700000007084507654759416990_"  style="overflow:visible;"/>
					</clipPath>
					<g style="clip-path:url(#SVGID_00000026849864991093174760000005509948965013421193_);">
						<g>
							<path class="st10" d="M418.3,560.4c-7.7-7.2-10.5-13.2-10.5-13.2c-11-35.2,12-66,21.5-77.4c2.6-3.1,4.3-4.8,4.3-4.8l-3.2-4.5
								l-30.5-42.8c0,0-70.2,58.7-79.3,99.4c0,0-13.7,95.9,97.9,116.3L418.3,560.4z"/>
						</g>
					</g>
					<path style="clip-path:url(#SVGID_00000026849864991093174760000005509948965013421193_);fill:#9B6E4E;" d="M416.1,483
						c-3.5,6.2-7,12.3-9.7,18.9c-5.1,12.6-6.9,26.9-3,40s9.4,17.3,22.5,21c0.8,0.2,2.5,1.8,0.7,0.5c-2.5-1.8-5-3.4-7.3-5.3
						c-7.1-6.2-10.8-15.7-11.2-25.2c-0.5-9.4,1.9-18.8,5.1-27.7c5-13.8,12.2-26.8,21.1-38.5c0.9-1.2,1.9-2.5,1.7-4
						c-0.6-5.9-9.4,4.4-10.4,5.7C421.8,472.9,418.9,478,416.1,483z"/>
				</g>
				<g>
					<defs>
						<path id="SVGID_00000146491608895609815360000004642506193054627773_" d="M456.4,536.8c3.5,4.9,8,9.1,13.1,12.3
							c12.9,8.3,30,12,45.1,8.6c4.7-1.1,9.2-2.9,13.2-5.4c2.7-1.7,5.3-3.7,7.5-6c3.6-3.8,8-9,10.3-13.8c0.7-1.4,6.3-17,5.7-17.3
							c-4.1-1.9-6.7,6.1-50.9,12.3c-6.1,0.9-26.7,0.8-32.7-0.5c-2.5-0.6-5.8-1.3-8.3-1.9c-2.1-0.5-5-1.6-7.2-1.1
							c-2.7,0.6-1.3,3.3-0.4,4.9c1.5,2.5,2.8,5.1,4.5,7.6C456.3,536.6,456.4,536.7,456.4,536.8z"/>
					</defs>
					<clipPath id="SVGID_00000081633700868655102450000005267967733120873141_">
						<use xlink:href="#SVGID_00000146491608895609815360000004642506193054627773_"  style="overflow:visible;"/>
					</clipPath>
					<path style="clip-path:url(#SVGID_00000081633700868655102450000005267967733120873141_);fill:#EF9195;" d="M456.4,536.8
						c3.5,4.9,8,9.1,13.1,12.3c12.9,8.3,30,12,45.1,8.6c4.7-1.1,9.2-2.9,13.2-5.4c2.7-1.7,5.3-3.7,7.5-6c3.6-3.8,8-9,10.3-13.8
						c0.7-1.4,6.3-17,5.7-17.3c-4.1-1.9-6.7,6.1-50.9,12.3c-6.1,0.9-26.7,0.8-32.7-0.5c-2.5-0.6-5.8-1.3-8.3-1.9
						c-2.1-0.5-5-1.6-7.2-1.1c-2.7,0.6-1.3,3.3-0.4,4.9c1.5,2.5,2.8,5.1,4.5,7.6C456.3,536.6,456.4,536.7,456.4,536.8z"/>
					<g style="clip-path:url(#SVGID_00000081633700868655102450000005267967733120873141_);">
						<defs>
							<path id="SVGID_00000112628330067139706620000009930736466467845310_" d="M489.1,542.5c7.7,0.2,15.4-0.7,23-2.1
								c2.6-0.5,5.1-1.1,7.7-1.7c0.2,0.5,0.6,0.8,1.1,0.9c5.4,1.6,10.4,4.1,15.5,6.3c-3.3,4.3-7.7,7-12.4,9.2
								c-10.8,5.1-22,5.4-33.5,3.4c-4.1-0.7-8-1.8-11.8-3.2c-1-0.4-2.1-0.5-2.7-1.5C480,549.6,484.5,546,489.1,542.5z"/>
						</defs>
						<clipPath id="SVGID_00000070113703636922371730000004480798691164408723_">
							<use xlink:href="#SVGID_00000112628330067139706620000009930736466467845310_"  style="overflow:visible;"/>
						</clipPath>
						<path style="clip-path:url(#SVGID_00000070113703636922371730000004480798691164408723_);fill:#CE5351;" d="M488.9,542.9
							c7.7,0.2,15.4-0.7,23-2.1c2.6-0.5,5.1-1.1,7.7-1.7c0.2,0.5,0.6,0.8,1.1,0.9c5.4,1.6,10.4,4.1,15.5,6.3
							c-3.3,4.3-7.7,7-12.4,9.2c-10.8,5.1-22,5.4-33.5,3.4c-4.1-0.7-8-1.8-11.8-3.2c-1-0.4-2.1-0.5-2.7-1.5
							C479.8,550,484.3,546.4,488.9,542.9z"/>
						<path style="clip-path:url(#SVGID_00000070113703636922371730000004480798691164408723_);fill:#E8695F;" d="M491.4,542.7
							c7.7-0.1,15.4-1.3,22.9-3c2.6-0.6,5.1-1.3,7.7-2c0.2,0.5,0.6,0.8,1.1,0.9c5.4,1.4,10.5,3.6,15.7,5.7
							c-3.2,4.4-7.5,7.3-12.1,9.7c-10.6,5.5-21.8,6.3-33.4,4.8c-4.1-0.5-8-1.5-11.9-2.8c-1-0.3-2.1-0.4-2.7-1.4
							C482.6,550.2,487,546.4,491.4,542.7z"/>
					</g>
					<path style="clip-path:url(#SVGID_00000081633700868655102450000005267967733120873141_);fill:#FDFDFD;" d="M461,524.9
						c5,0.4,10,1.5,15.1,1.8c19.1,1.1,38.1-0.4,56.6-5.9c5.7-1.7,11.3-3.7,16.6-6.4c0.9-0.5,1.9-0.8,3.3-1.4c-0.2,2.7-1,4.9-1.9,7.1
						c-0.8,0.6-1.6,1.2-2.3,1.8c-5.5,4.9-11.6,8.9-18.1,12.3c-3.9,2-8.1,3.7-12.3,5c-1.5,0.4-2.9,0.8-4.4,1.1
						c-4.3,1-8.7,1.7-13.1,2.1c-4.2,0.4-8.7,1-12.9,0.6c-3.6-0.4-7.3-0.4-10.9-1c-5.3-0.9-10-2.8-12.9-7.7
						C462.3,531.7,461.7,528,461,524.9z"/>
				</g>
			</g>
		</g>
	</g>
</g>
</svg>
