<?xml version="1.0" encoding="utf-8"?>
<!-- Generator: Adobe Illustrator 27.5.0, SVG Export Plug-In . SVG Version: 6.00 Build 0)  -->
<svg version="1.1" id="Capa_1" xmlns="http://www.w3.org/2000/svg" xmlns:xlink="http://www.w3.org/1999/xlink" x="0px" y="0px"
	 viewBox="0 0 298.2 298.2" style="enable-background:new 0 0 298.2 298.2;" xml:space="preserve">
<style type="text/css">
	.st0{fill:#FCF2F2;stroke:#AA4543;stroke-width:2;stroke-miterlimit:10;}
	.st1{fill:#AA4543;}
	.st2{fill:#F2F9F6;stroke:#307F34;stroke-width:2;stroke-miterlimit:10;}
	.st3{fill:#307E33;}
</style>
<g>
	<path class="st0" d="M1168.1,581.8H963.6c-13.1,0-23.8-10.7-23.8-23.8V391.8c0-13.1,10.7-23.8,23.8-23.8h204.5
		c13.1,0,23.8,10.7,23.8,23.8V558C1191.9,571.2,1181.2,581.8,1168.1,581.8z"/>
	<g>
		<path class="st1" d="M987.7,467.3v-17.5h3.5v17.5H987.7z"/>
		<path class="st1" d="M994.6,467.3v-17.5h5.3l3.2,11.9l3.1-11.9h5.3v17.5h-3.3v-13.8l-3.5,13.8h-3.4l-3.5-13.8v13.8H994.6z"/>
		<path class="st1" d="M1014.9,467.3v-17.5h5.7c2.1,0,3.5,0.1,4.2,0.3c1,0.3,1.8,0.8,2.5,1.7s1,2,1,3.4c0,1.1-0.2,2-0.6,2.7
			s-0.9,1.3-1.5,1.7c-0.6,0.4-1.2,0.7-1.8,0.8c-0.8,0.2-2.1,0.2-3.7,0.2h-2.3v6.6H1014.9z M1018.5,452.8v5h1.9
			c1.4,0,2.3-0.1,2.8-0.3c0.5-0.2,0.8-0.5,1.1-0.9c0.3-0.4,0.4-0.8,0.4-1.4c0-0.6-0.2-1.2-0.6-1.6c-0.4-0.4-0.8-0.7-1.4-0.8
			c-0.4-0.1-1.3-0.1-2.5-0.1H1018.5z"/>
		<path class="st1" d="M1030.5,458.6c0-1.8,0.3-3.3,0.8-4.5c0.4-0.9,0.9-1.7,1.6-2.4c0.7-0.7,1.4-1.2,2.3-1.6
			c1.1-0.5,2.3-0.7,3.8-0.7c2.6,0,4.6,0.8,6.2,2.4c1.5,1.6,2.3,3.8,2.3,6.7c0,2.8-0.8,5-2.3,6.6s-3.6,2.4-6.2,2.4
			c-2.6,0-4.7-0.8-6.2-2.4S1030.5,461.4,1030.5,458.6z M1034.1,458.5c0,2,0.5,3.5,1.4,4.5c0.9,1,2.1,1.5,3.5,1.5
			c1.4,0,2.6-0.5,3.5-1.5s1.4-2.5,1.4-4.6c0-2-0.4-3.5-1.3-4.5s-2-1.5-3.5-1.5c-1.5,0-2.6,0.5-3.5,1.5
			C1034.6,455,1034.1,456.5,1034.1,458.5z"/>
		<path class="st1" d="M1050.2,467.3v-17.5h7.4c1.9,0,3.2,0.2,4.1,0.5c0.8,0.3,1.5,0.9,2,1.7c0.5,0.8,0.8,1.7,0.8,2.8
			c0,1.3-0.4,2.4-1.2,3.2c-0.8,0.9-1.9,1.4-3.5,1.6c0.8,0.4,1.4,0.9,1.9,1.5c0.5,0.5,1.2,1.5,2,2.8l2.1,3.4h-4.2l-2.6-3.8
			c-0.9-1.4-1.5-2.2-1.9-2.6c-0.3-0.4-0.7-0.6-1.1-0.7s-1-0.2-1.8-0.2h-0.7v7.3H1050.2z M1053.7,457.2h2.6c1.7,0,2.7-0.1,3.2-0.2
			c0.4-0.1,0.8-0.4,1-0.7s0.4-0.8,0.4-1.3c0-0.6-0.2-1.1-0.5-1.4c-0.3-0.4-0.8-0.6-1.3-0.7c-0.3,0-1.1-0.1-2.6-0.1h-2.8V457.2z"/>
		<path class="st1" d="M1071.8,467.3v-14.5h-5.2v-3h13.9v3h-5.2v14.5H1071.8z"/>
		<path class="st1" d="M1096.7,467.3h-3.8l-1.5-4h-7l-1.4,4h-3.7l6.8-17.5h3.7L1096.7,467.3z M1090.2,460.4l-2.4-6.5l-2.4,6.5
			H1090.2z"/>
		<path class="st1" d="M1098.6,467.3v-17.5h3.4l7.2,11.7v-11.7h3.3v17.5h-3.5l-7-11.4v11.4H1098.6z"/>
		<path class="st1" d="M1120.1,467.3v-14.5h-5.2v-3h13.9v3h-5.2v14.5H1120.1z"/>
		<path class="st1" d="M1131.1,467.3v-17.5h13v3h-9.4v3.9h8.8v2.9h-8.8v4.8h9.8v2.9H1131.1z"/>
	</g>
	<g>
		<path class="st1" d="M976.5,482.3h1v7.2h3.5v0.9h-4.5V482.3z"/>
		<path class="st1" d="M985.3,490.3l-0.1-0.7h0c-0.3,0.5-0.9,0.9-1.8,0.9c-1.2,0-1.8-0.8-1.8-1.7c0-1.4,1.2-2.2,3.5-2.2v-0.1
			c0-0.5-0.1-1.3-1.3-1.3c-0.5,0-1.1,0.2-1.5,0.4l-0.2-0.7c0.5-0.3,1.2-0.5,1.9-0.5c1.8,0,2.2,1.2,2.2,2.4v2.2c0,0.5,0,1,0.1,1.4
			H985.3z M985.2,487.4c-1.2,0-2.5,0.2-2.5,1.3c0,0.7,0.5,1,1,1c0.8,0,1.2-0.5,1.4-1c0-0.1,0.1-0.2,0.1-0.3V487.4z"/>
		<path class="st1" d="M990.5,486.4c0-0.7,0-1.3,0-1.9h0.9l0,1h0c0.4-0.7,1.1-1.1,2.1-1.1c1.4,0,2.5,1.2,2.5,3
			c0,2.1-1.3,3.1-2.6,3.1c-0.8,0-1.4-0.3-1.8-0.9h0v3.2h-1V486.4z M991.5,488c0,0.2,0,0.3,0,0.4c0.2,0.7,0.8,1.2,1.6,1.2
			c1.1,0,1.8-0.9,1.8-2.2c0-1.2-0.6-2.2-1.7-2.2c-0.7,0-1.4,0.5-1.6,1.3c0,0.1-0.1,0.3-0.1,0.4V488z"/>
		<path class="st1" d="M997.3,486.4c0-0.7,0-1.3,0-1.8h0.9l0,1.1h0c0.3-0.8,0.9-1.3,1.6-1.3c0.1,0,0.2,0,0.3,0v1c-0.1,0-0.2,0-0.4,0
			c-0.7,0-1.3,0.6-1.4,1.4c0,0.1,0,0.3,0,0.5v3.1h-1V486.4z"/>
		<path class="st1" d="M1001.7,487.6c0,1.4,0.9,2,2,2c0.8,0,1.2-0.1,1.6-0.3l0.2,0.8c-0.4,0.2-1,0.4-1.9,0.4c-1.8,0-2.9-1.2-2.9-2.9
			c0-1.8,1-3.1,2.7-3.1c1.9,0,2.4,1.7,2.4,2.7c0,0.2,0,0.4,0,0.5H1001.7z M1004.8,486.9c0-0.7-0.3-1.7-1.5-1.7c-1.1,0-1.5,1-1.6,1.7
			H1004.8z"/>
		<path class="st1" d="M1007,489.3c0.3,0.2,0.9,0.4,1.4,0.4c0.8,0,1.1-0.4,1.1-0.9c0-0.5-0.3-0.8-1.1-1.1c-1-0.4-1.5-0.9-1.5-1.6
			c0-0.9,0.8-1.7,2-1.7c0.6,0,1.1,0.2,1.4,0.4l-0.3,0.8c-0.2-0.1-0.6-0.3-1.2-0.3c-0.6,0-1,0.4-1,0.8c0,0.5,0.3,0.7,1.1,1
			c1,0.4,1.5,0.9,1.5,1.8c0,1-0.8,1.7-2.2,1.7c-0.6,0-1.2-0.2-1.6-0.4L1007,489.3z"/>
		<path class="st1" d="M1012.4,487.6c0,1.4,0.9,2,2,2c0.8,0,1.2-0.1,1.6-0.3l0.2,0.8c-0.4,0.2-1,0.4-1.9,0.4c-1.8,0-2.9-1.2-2.9-2.9
			c0-1.8,1-3.1,2.7-3.1c1.9,0,2.4,1.7,2.4,2.7c0,0.2,0,0.4,0,0.5H1012.4z M1015.5,486.9c0-0.7-0.3-1.7-1.5-1.7c-1.1,0-1.5,1-1.6,1.7
			H1015.5z"/>
		<path class="st1" d="M1017.9,486.1c0-0.6,0-1.1,0-1.6h0.9l0.1,1h0c0.3-0.6,1-1.1,1.9-1.1c0.8,0,2.1,0.5,2.1,2.5v3.5h-1.1V487
			c0-0.9-0.3-1.7-1.3-1.7c-0.7,0-1.2,0.5-1.4,1.1c0,0.1-0.1,0.3-0.1,0.5v3.5h-1.1V486.1z"/>
		<path class="st1" d="M1025.7,482.9v1.7h1.5v0.8h-1.5v3.1c0,0.7,0.2,1.1,0.8,1.1c0.3,0,0.5,0,0.6-0.1l0,0.8
			c-0.2,0.1-0.5,0.1-0.9,0.1c-0.5,0-0.9-0.2-1.1-0.4c-0.3-0.3-0.4-0.8-0.4-1.5v-3.2h-0.9v-0.8h0.9v-1.4L1025.7,482.9z"/>
		<path class="st1" d="M1031.7,490.3l-0.1-0.7h0c-0.3,0.5-0.9,0.9-1.8,0.9c-1.2,0-1.8-0.8-1.8-1.7c0-1.4,1.2-2.2,3.5-2.2v-0.1
			c0-0.5-0.1-1.3-1.3-1.3c-0.5,0-1.1,0.2-1.5,0.4l-0.2-0.7c0.5-0.3,1.2-0.5,1.9-0.5c1.8,0,2.2,1.2,2.2,2.4v2.2c0,0.5,0,1,0.1,1.4
			H1031.7z M1031.5,487.4c-1.2,0-2.5,0.2-2.5,1.3c0,0.7,0.5,1,1,1c0.8,0,1.2-0.5,1.4-1c0-0.1,0.1-0.2,0.1-0.3V487.4z"/>
		<path class="st1" d="M1038.4,490.1c-0.3,0.1-0.9,0.3-1.7,0.3c-1.8,0-2.9-1.2-2.9-3c0-1.8,1.2-3.1,3.1-3.1c0.6,0,1.2,0.2,1.5,0.3
			l-0.2,0.8c-0.3-0.1-0.6-0.3-1.2-0.3c-1.3,0-2.1,1-2.1,2.2c0,1.3,0.9,2.2,2,2.2c0.6,0,1-0.2,1.3-0.3L1038.4,490.1z"/>
		<path class="st1" d="M1040.8,482.9c0,0.4-0.3,0.6-0.7,0.6c-0.4,0-0.6-0.3-0.6-0.6c0-0.4,0.3-0.7,0.7-0.7
			C1040.5,482.2,1040.8,482.5,1040.8,482.9z M1039.6,490.3v-5.8h1.1v5.8H1039.6z"/>
		<path class="st1" d="M1047.7,487.4c0,2.1-1.5,3.1-2.9,3.1c-1.6,0-2.8-1.2-2.8-3c0-1.9,1.3-3.1,2.9-3.1
			C1046.5,484.4,1047.7,485.6,1047.7,487.4z M1043.1,487.5c0,1.3,0.7,2.2,1.8,2.2c1,0,1.8-0.9,1.8-2.3c0-1-0.5-2.2-1.7-2.2
			C1043.6,485.2,1043.1,486.4,1043.1,487.5z M1046.4,482l-1.5,1.7h-0.8l1.1-1.7H1046.4z"/>
		<path class="st1" d="M1049,486.1c0-0.6,0-1.1,0-1.6h0.9l0.1,1h0c0.3-0.6,1-1.1,1.9-1.1c0.8,0,2.1,0.5,2.1,2.5v3.5h-1.1V487
			c0-0.9-0.3-1.7-1.3-1.7c-0.7,0-1.2,0.5-1.4,1.1c0,0.1-0.1,0.3-0.1,0.5v3.5h-1.1V486.1z"/>
		<path class="st1" d="M1063.2,481.8v7c0,0.5,0,1.1,0,1.5h-0.9l0-1h0c-0.3,0.6-1,1.1-2,1.1c-1.4,0-2.5-1.2-2.5-3
			c0-1.9,1.2-3.1,2.6-3.1c0.9,0,1.5,0.4,1.8,0.9h0v-3.5H1063.2z M1062.2,486.9c0-0.1,0-0.3,0-0.4c-0.2-0.7-0.7-1.2-1.5-1.2
			c-1.1,0-1.7,1-1.7,2.2c0,1.2,0.6,2.1,1.7,2.1c0.7,0,1.4-0.5,1.5-1.3c0-0.1,0-0.3,0-0.5V486.9z"/>
		<path class="st1" d="M1065.6,487.6c0,1.4,0.9,2,2,2c0.8,0,1.2-0.1,1.6-0.3l0.2,0.8c-0.4,0.2-1,0.4-1.9,0.4c-1.8,0-2.9-1.2-2.9-2.9
			c0-1.8,1-3.1,2.7-3.1c1.9,0,2.4,1.7,2.4,2.7c0,0.2,0,0.4,0,0.5H1065.6z M1068.7,486.9c0-0.7-0.3-1.7-1.5-1.7c-1.1,0-1.5,1-1.6,1.7
			H1068.7z"/>
		<path class="st1" d="M1078.4,488.8c0,0.6,0,1.1,0,1.6h-0.9l-0.1-0.9h0c-0.3,0.5-0.9,1.1-1.9,1.1c-0.9,0-2-0.5-2-2.5v-3.4h1.1v3.2
			c0,1.1,0.3,1.8,1.3,1.8c0.7,0,1.2-0.5,1.4-1c0.1-0.2,0.1-0.3,0.1-0.5v-3.6h1.1V488.8z"/>
		<path class="st1" d="M1080.1,486.1c0-0.6,0-1.1,0-1.6h0.9l0.1,1h0c0.3-0.6,1-1.1,1.9-1.1c0.8,0,2.1,0.5,2.1,2.5v3.5h-1.1V487
			c0-0.9-0.3-1.7-1.3-1.7c-0.7,0-1.2,0.5-1.4,1.1c0,0.1-0.1,0.3-0.1,0.5v3.5h-1.1V486.1z"/>
		<path class="st1" d="M1094.4,481.8v7c0,0.5,0,1.1,0,1.5h-0.9l0-1h0c-0.3,0.6-1,1.1-2,1.1c-1.4,0-2.5-1.2-2.5-3
			c0-1.9,1.2-3.1,2.6-3.1c0.9,0,1.5,0.4,1.8,0.9h0v-3.5H1094.4z M1093.3,486.9c0-0.1,0-0.3,0-0.4c-0.2-0.7-0.7-1.2-1.5-1.2
			c-1.1,0-1.7,1-1.7,2.2c0,1.2,0.6,2.1,1.7,2.1c0.7,0,1.4-0.5,1.5-1.3c0-0.1,0-0.3,0-0.5V486.9z"/>
		<path class="st1" d="M1101.4,487.4c0,2.1-1.5,3.1-2.9,3.1c-1.6,0-2.8-1.2-2.8-3c0-1.9,1.3-3.1,2.9-3.1
			C1100.2,484.4,1101.4,485.6,1101.4,487.4z M1096.8,487.5c0,1.3,0.7,2.2,1.8,2.2c1,0,1.8-0.9,1.8-2.3c0-1-0.5-2.2-1.7-2.2
			C1097.3,485.2,1096.8,486.4,1096.8,487.5z"/>
		<path class="st1" d="M1106.8,490.1c-0.3,0.1-0.9,0.3-1.7,0.3c-1.8,0-2.9-1.2-2.9-3c0-1.8,1.2-3.1,3.1-3.1c0.6,0,1.2,0.2,1.5,0.3
			l-0.2,0.8c-0.3-0.1-0.6-0.3-1.2-0.3c-1.3,0-2.1,1-2.1,2.2c0,1.3,0.9,2.2,2,2.2c0.6,0,1-0.2,1.3-0.3L1106.8,490.1z"/>
		<path class="st1" d="M1112.9,488.8c0,0.6,0,1.1,0,1.6h-0.9l-0.1-0.9h0c-0.3,0.5-0.9,1.1-1.9,1.1c-0.9,0-2-0.5-2-2.5v-3.4h1.1v3.2
			c0,1.1,0.3,1.8,1.3,1.8c0.7,0,1.2-0.5,1.4-1c0.1-0.2,0.1-0.3,0.1-0.5v-3.6h1.1V488.8z"/>
		<path class="st1" d="M1114.7,486.1c0-0.6,0-1.1,0-1.6h0.9l0,0.9h0c0.3-0.6,0.9-1.1,1.8-1.1c0.8,0,1.4,0.5,1.6,1.2h0
			c0.2-0.3,0.4-0.6,0.6-0.8c0.3-0.3,0.7-0.4,1.3-0.4c0.8,0,1.9,0.5,1.9,2.5v3.4h-1v-3.3c0-1.1-0.4-1.8-1.3-1.8c-0.6,0-1.1,0.4-1.2,1
			c0,0.1-0.1,0.3-0.1,0.5v3.6h-1v-3.5c0-0.9-0.4-1.6-1.2-1.6c-0.7,0-1.1,0.5-1.3,1.1c-0.1,0.2-0.1,0.3-0.1,0.5v3.5h-1V486.1z"/>
		<path class="st1" d="M1125.3,487.6c0,1.4,0.9,2,2,2c0.8,0,1.2-0.1,1.6-0.3l0.2,0.8c-0.4,0.2-1,0.4-1.9,0.4c-1.8,0-2.9-1.2-2.9-2.9
			c0-1.8,1-3.1,2.7-3.1c1.9,0,2.4,1.7,2.4,2.7c0,0.2,0,0.4,0,0.5H1125.3z M1128.4,486.9c0-0.7-0.3-1.7-1.5-1.7c-1.1,0-1.5,1-1.6,1.7
			H1128.4z"/>
		<path class="st1" d="M1130.7,486.1c0-0.6,0-1.1,0-1.6h0.9l0.1,1h0c0.3-0.6,1-1.1,1.9-1.1c0.8,0,2.1,0.5,2.1,2.5v3.5h-1.1V487
			c0-0.9-0.3-1.7-1.3-1.7c-0.7,0-1.2,0.5-1.4,1.1c0,0.1-0.1,0.3-0.1,0.5v3.5h-1.1V486.1z"/>
		<path class="st1" d="M1138.6,482.9v1.7h1.5v0.8h-1.5v3.1c0,0.7,0.2,1.1,0.8,1.1c0.3,0,0.5,0,0.6-0.1l0,0.8
			c-0.2,0.1-0.5,0.1-0.9,0.1c-0.5,0-0.9-0.2-1.1-0.4c-0.3-0.3-0.4-0.8-0.4-1.5v-3.2h-0.9v-0.8h0.9v-1.4L1138.6,482.9z"/>
		<path class="st1" d="M1146.5,487.4c0,2.1-1.5,3.1-2.9,3.1c-1.6,0-2.8-1.2-2.8-3c0-1.9,1.3-3.1,2.9-3.1
			C1145.3,484.4,1146.5,485.6,1146.5,487.4z M1141.9,487.5c0,1.3,0.7,2.2,1.8,2.2c1,0,1.8-0.9,1.8-2.3c0-1-0.5-2.2-1.7-2.2
			C1142.4,485.2,1141.9,486.4,1141.9,487.5z"/>
		<path class="st1" d="M1155.6,487.4c0,2.1-1.5,3.1-2.9,3.1c-1.6,0-2.8-1.2-2.8-3c0-1.9,1.3-3.1,2.9-3.1
			C1154.5,484.4,1155.6,485.6,1155.6,487.4z M1151,487.5c0,1.3,0.7,2.2,1.8,2.2c1,0,1.8-0.9,1.8-2.3c0-1-0.5-2.2-1.7-2.2
			C1151.5,485.2,1151,486.4,1151,487.5z"/>
		<path class="st1" d="M968.4,504.5c-0.3,0.1-0.9,0.3-1.7,0.3c-1.8,0-2.9-1.2-2.9-3c0-1.8,1.2-3.1,3.1-3.1c0.6,0,1.2,0.2,1.5,0.3
			l-0.2,0.8c-0.3-0.1-0.6-0.3-1.2-0.3c-1.3,0-2.1,1-2.1,2.2c0,1.3,0.9,2.2,2,2.2c0.6,0,1-0.2,1.3-0.3L968.4,504.5z"/>
		<path class="st1" d="M970.2,502c0,1.4,0.9,2,2,2c0.8,0,1.2-0.1,1.6-0.3l0.2,0.8c-0.4,0.2-1,0.4-1.9,0.4c-1.8,0-2.9-1.2-2.9-2.9
			s1-3.1,2.7-3.1c1.9,0,2.4,1.7,2.4,2.7c0,0.2,0,0.4,0,0.5H970.2z M973.3,501.3c0-0.7-0.3-1.7-1.5-1.7c-1.1,0-1.5,1-1.6,1.7H973.3z"
			/>
		<path class="st1" d="M975.6,500.8c0-0.7,0-1.3,0-1.8h0.9l0,1.1h0c0.3-0.8,0.9-1.3,1.6-1.3c0.1,0,0.2,0,0.3,0v1c-0.1,0-0.2,0-0.4,0
			c-0.7,0-1.3,0.6-1.4,1.4c0,0.1,0,0.3,0,0.5v3.1h-1V500.8z"/>
		<path class="st1" d="M981.1,497.3v1.7h1.5v0.8h-1.5v3.1c0,0.7,0.2,1.1,0.8,1.1c0.3,0,0.5,0,0.6-0.1l0,0.8
			c-0.2,0.1-0.5,0.1-0.9,0.1c-0.5,0-0.9-0.2-1.1-0.4c-0.3-0.3-0.4-0.8-0.4-1.5v-3.2h-0.9v-0.8h0.9v-1.4L981.1,497.3z"/>
		<path class="st1" d="M985,497.3c0,0.4-0.3,0.6-0.7,0.6c-0.4,0-0.6-0.3-0.6-0.6c0-0.4,0.3-0.7,0.7-0.7
			C984.7,496.6,985,496.9,985,497.3z M983.8,504.7v-5.8h1.1v5.8H983.8z"/>
		<path class="st1" d="M986.7,504.7v-5h-0.8v-0.8h0.8v-0.3c0-1.5,0.9-2.5,2.5-2.5c0.5,0,1.2,0.2,1.5,0.4l-0.3,0.8
			c-0.3-0.2-0.7-0.3-1.2-0.3c-1.1,0-1.4,0.8-1.4,1.7v0.3h3.4v5.8h-1v-5h-2.3v5H986.7z"/>
		<path class="st1" d="M997,504.5c-0.3,0.1-0.9,0.3-1.7,0.3c-1.8,0-2.9-1.2-2.9-3c0-1.8,1.2-3.1,3.1-3.1c0.6,0,1.2,0.2,1.5,0.3
			l-0.2,0.8c-0.3-0.1-0.6-0.3-1.2-0.3c-1.3,0-2.1,1-2.1,2.2c0,1.3,0.9,2.2,2,2.2c0.6,0,1-0.2,1.3-0.3L997,504.5z"/>
		<path class="st1" d="M1001.5,504.7l-0.1-0.7h0c-0.3,0.5-0.9,0.9-1.8,0.9c-1.2,0-1.8-0.8-1.8-1.7c0-1.4,1.2-2.2,3.5-2.2v-0.1
			c0-0.5-0.1-1.3-1.3-1.3c-0.5,0-1.1,0.2-1.5,0.4l-0.2-0.7c0.5-0.3,1.2-0.5,1.9-0.5c1.8,0,2.2,1.2,2.2,2.4v2.2c0,0.5,0,1,0.1,1.4
			H1001.5z M1001.3,501.8c-1.2,0-2.5,0.2-2.5,1.3c0,0.7,0.5,1,1,1c0.8,0,1.2-0.5,1.4-1c0-0.1,0.1-0.2,0.1-0.3V501.8z"/>
		<path class="st1" d="M1009,496.2v7c0,0.5,0,1.1,0,1.5h-0.9l0-1h0c-0.3,0.6-1,1.1-2,1.1c-1.4,0-2.5-1.2-2.5-3
			c0-1.9,1.2-3.1,2.6-3.1c0.9,0,1.5,0.4,1.8,0.9h0v-3.5H1009z M1008,501.3c0-0.1,0-0.3,0-0.4c-0.2-0.7-0.7-1.2-1.5-1.2
			c-1.1,0-1.7,1-1.7,2.2c0,1.2,0.6,2.1,1.7,2.1c0.7,0,1.4-0.5,1.5-1.3c0-0.1,0-0.3,0-0.5V501.3z"/>
		<path class="st1" d="M1016,501.8c0,2.1-1.5,3.1-2.9,3.1c-1.6,0-2.8-1.2-2.8-3c0-1.9,1.3-3.1,2.9-3.1
			C1014.9,498.8,1016,500,1016,501.8z M1011.4,501.9c0,1.3,0.7,2.2,1.8,2.2c1,0,1.8-0.9,1.8-2.3c0-1-0.5-2.2-1.7-2.2
			C1012,499.6,1011.4,500.8,1011.4,501.9z"/>
		<path class="st1" d="M1016.4,506.2c0.3-0.7,0.6-2,0.7-2.9l1.2-0.1c-0.3,1-0.8,2.4-1.1,2.9L1016.4,506.2z"/>
		<path class="st1" d="M1022.2,504.7v-5h-0.8v-0.8h0.8v-0.3c0-0.8,0.2-1.6,0.7-2c0.4-0.4,0.9-0.5,1.4-0.5c0.4,0,0.7,0.1,0.9,0.2
			l-0.1,0.8c-0.2-0.1-0.4-0.1-0.7-0.1c-0.9,0-1.1,0.8-1.1,1.7v0.3h1.4v0.8h-1.4v5H1022.2z"/>
		<path class="st1" d="M1028.8,504.7l-0.1-0.7h0c-0.3,0.5-0.9,0.9-1.8,0.9c-1.2,0-1.8-0.8-1.8-1.7c0-1.4,1.2-2.2,3.5-2.2v-0.1
			c0-0.5-0.1-1.3-1.3-1.3c-0.5,0-1.1,0.2-1.5,0.4l-0.2-0.7c0.5-0.3,1.2-0.5,1.9-0.5c1.8,0,2.2,1.2,2.2,2.4v2.2c0,0.5,0,1,0.1,1.4
			H1028.8z M1028.7,501.8c-1.2,0-2.5,0.2-2.5,1.3c0,0.7,0.5,1,1,1c0.8,0,1.2-0.5,1.4-1c0-0.1,0.1-0.2,0.1-0.3V501.8z"/>
		<path class="st1" d="M1031.4,496.2h1.1v8.5h-1.1V496.2z"/>
		<path class="st1" d="M1034.1,503.7c0.3,0.2,0.9,0.4,1.4,0.4c0.8,0,1.1-0.4,1.1-0.9c0-0.5-0.3-0.8-1.1-1.1c-1-0.4-1.5-0.9-1.5-1.6
			c0-0.9,0.8-1.7,2-1.7c0.6,0,1.1,0.2,1.4,0.4l-0.3,0.8c-0.2-0.1-0.6-0.3-1.2-0.3c-0.6,0-1,0.4-1,0.8c0,0.5,0.3,0.7,1.1,1
			c1,0.4,1.5,0.9,1.5,1.8c0,1-0.8,1.7-2.2,1.7c-0.6,0-1.2-0.2-1.6-0.4L1034.1,503.7z"/>
		<path class="st1" d="M1044.2,501.8c0,2.1-1.5,3.1-2.9,3.1c-1.6,0-2.8-1.2-2.8-3c0-1.9,1.3-3.1,2.9-3.1
			C1043.1,498.8,1044.2,500,1044.2,501.8z M1039.6,501.9c0,1.3,0.7,2.2,1.8,2.2c1,0,1.8-0.9,1.8-2.3c0-1-0.5-2.2-1.7-2.2
			C1040.2,499.6,1039.6,500.8,1039.6,501.9z"/>
		<path class="st1" d="M1053.4,501.8c0,2.1-1.5,3.1-2.9,3.1c-1.6,0-2.8-1.2-2.8-3c0-1.9,1.3-3.1,2.9-3.1
			C1052.3,498.8,1053.4,500,1053.4,501.8z M1048.8,501.9c0,1.3,0.7,2.2,1.8,2.2c1,0,1.8-0.9,1.8-2.3c0-1-0.5-2.2-1.7-2.2
			C1049.3,499.6,1048.8,500.8,1048.8,501.9z"/>
		<path class="st1" d="M1060.5,504.7l-0.1-0.7h0c-0.3,0.5-0.9,0.9-1.8,0.9c-1.2,0-1.8-0.8-1.8-1.7c0-1.4,1.2-2.2,3.5-2.2v-0.1
			c0-0.5-0.1-1.3-1.3-1.3c-0.5,0-1.1,0.2-1.5,0.4l-0.2-0.7c0.5-0.3,1.2-0.5,1.9-0.5c1.8,0,2.2,1.2,2.2,2.4v2.2c0,0.5,0,1,0.1,1.4
			H1060.5z M1060.3,501.8c-1.2,0-2.5,0.2-2.5,1.3c0,0.7,0.5,1,1,1c0.8,0,1.2-0.5,1.4-1c0-0.1,0.1-0.2,0.1-0.3V501.8z"/>
		<path class="st1" d="M1068.1,496.2v7c0,0.5,0,1.1,0,1.5h-0.9l0-1h0c-0.3,0.6-1,1.1-2,1.1c-1.4,0-2.5-1.2-2.5-3
			c0-1.9,1.2-3.1,2.6-3.1c0.9,0,1.5,0.4,1.8,0.9h0v-3.5H1068.1z M1067,501.3c0-0.1,0-0.3,0-0.4c-0.2-0.7-0.7-1.2-1.5-1.2
			c-1.1,0-1.7,1-1.7,2.2c0,1.2,0.6,2.1,1.7,2.1c0.7,0,1.4-0.5,1.5-1.3c0-0.1,0-0.3,0-0.5V501.3z"/>
		<path class="st1" d="M1074.7,503.2c0,0.6,0,1.1,0,1.6h-0.9l-0.1-0.9h0c-0.3,0.5-0.9,1.1-1.9,1.1c-0.9,0-2-0.5-2-2.5v-3.4h1.1v3.2
			c0,1.1,0.3,1.8,1.3,1.8c0.7,0,1.2-0.5,1.4-1c0.1-0.2,0.1-0.3,0.1-0.5v-3.6h1.1V503.2z"/>
		<path class="st1" d="M1076.4,496.2h1.1v8.5h-1.1V496.2z"/>
		<path class="st1" d="M1080.5,497.3v1.7h1.5v0.8h-1.5v3.1c0,0.7,0.2,1.1,0.8,1.1c0.3,0,0.5,0,0.6-0.1l0,0.8
			c-0.2,0.1-0.5,0.1-0.9,0.1c-0.5,0-0.9-0.2-1.1-0.4c-0.3-0.3-0.4-0.8-0.4-1.5v-3.2h-0.9v-0.8h0.9v-1.4L1080.5,497.3z"/>
		<path class="st1" d="M1083.7,502c0,1.4,0.9,2,2,2c0.8,0,1.2-0.1,1.6-0.3l0.2,0.8c-0.4,0.2-1,0.4-1.9,0.4c-1.8,0-2.9-1.2-2.9-2.9
			s1-3.1,2.7-3.1c1.9,0,2.4,1.7,2.4,2.7c0,0.2,0,0.4,0,0.5H1083.7z M1086.8,501.3c0-0.7-0.3-1.7-1.5-1.7c-1.1,0-1.5,1-1.6,1.7
			H1086.8z"/>
		<path class="st1" d="M1089.2,500.8c0-0.7,0-1.3,0-1.8h0.9l0,1.1h0c0.3-0.8,0.9-1.3,1.6-1.3c0.1,0,0.2,0,0.3,0v1
			c-0.1,0-0.2,0-0.4,0c-0.7,0-1.3,0.6-1.4,1.4c0,0.1,0,0.3,0,0.5v3.1h-1V500.8z"/>
		<path class="st1" d="M1096.2,504.7l-0.1-0.7h0c-0.3,0.5-0.9,0.9-1.8,0.9c-1.2,0-1.8-0.8-1.8-1.7c0-1.4,1.2-2.2,3.5-2.2v-0.1
			c0-0.5-0.1-1.3-1.3-1.3c-0.5,0-1.1,0.2-1.5,0.4l-0.2-0.7c0.5-0.3,1.2-0.5,1.9-0.5c1.8,0,2.2,1.2,2.2,2.4v2.2c0,0.5,0,1,0.1,1.4
			H1096.2z M1096.1,501.8c-1.2,0-2.5,0.2-2.5,1.3c0,0.7,0.5,1,1,1c0.8,0,1.2-0.5,1.4-1c0-0.1,0.1-0.2,0.1-0.3V501.8z"/>
		<path class="st1" d="M1103.8,496.2v7c0,0.5,0,1.1,0,1.5h-0.9l0-1h0c-0.3,0.6-1,1.1-2,1.1c-1.4,0-2.5-1.2-2.5-3
			c0-1.9,1.2-3.1,2.6-3.1c0.9,0,1.5,0.4,1.8,0.9h0v-3.5H1103.8z M1102.8,501.3c0-0.1,0-0.3,0-0.4c-0.2-0.7-0.7-1.2-1.5-1.2
			c-1.1,0-1.7,1-1.7,2.2c0,1.2,0.6,2.1,1.7,2.1c0.7,0,1.4-0.5,1.5-1.3c0-0.1,0-0.3,0-0.5V501.3z"/>
		<path class="st1" d="M1110.8,501.8c0,2.1-1.5,3.1-2.9,3.1c-1.6,0-2.8-1.2-2.8-3c0-1.9,1.3-3.1,2.9-3.1
			C1109.7,498.8,1110.8,500,1110.8,501.8z M1106.2,501.9c0,1.3,0.7,2.2,1.8,2.2c1,0,1.8-0.9,1.8-2.3c0-1-0.5-2.2-1.7-2.2
			C1106.8,499.6,1106.2,500.8,1106.2,501.9z"/>
		<path class="st1" d="M1111.2,506.2c0.3-0.7,0.6-2,0.7-2.9l1.2-0.1c-0.3,1-0.8,2.4-1.1,2.9L1111.2,506.2z"/>
		<path class="st1" d="M1121,504.5c-0.3,0.1-0.9,0.3-1.7,0.3c-1.8,0-2.9-1.2-2.9-3c0-1.8,1.2-3.1,3.1-3.1c0.6,0,1.2,0.2,1.5,0.3
			l-0.2,0.8c-0.3-0.1-0.6-0.3-1.2-0.3c-1.3,0-2.1,1-2.1,2.2c0,1.3,0.9,2.2,2,2.2c0.6,0,1-0.2,1.3-0.3L1121,504.5z"/>
		<path class="st1" d="M1127.5,501.8c0,2.1-1.5,3.1-2.9,3.1c-1.6,0-2.8-1.2-2.8-3c0-1.9,1.3-3.1,2.9-3.1
			C1126.3,498.8,1127.5,500,1127.5,501.8z M1122.9,501.9c0,1.3,0.7,2.2,1.8,2.2c1,0,1.8-0.9,1.8-2.3c0-1-0.5-2.2-1.7-2.2
			C1123.4,499.6,1122.9,500.8,1122.9,501.9z"/>
		<path class="st1" d="M1128.8,500.5c0-0.6,0-1.1,0-1.6h0.9l0.1,1h0c0.3-0.6,1-1.1,1.9-1.1c0.8,0,2.1,0.5,2.1,2.5v3.5h-1.1v-3.3
			c0-0.9-0.3-1.7-1.3-1.7c-0.7,0-1.2,0.5-1.4,1.1c0,0.1-0.1,0.3-0.1,0.5v3.5h-1.1V500.5z"/>
		<path class="st1" d="M1135.3,503.7c0.3,0.2,0.9,0.4,1.4,0.4c0.8,0,1.1-0.4,1.1-0.9c0-0.5-0.3-0.8-1.1-1.1c-1-0.4-1.5-0.9-1.5-1.6
			c0-0.9,0.8-1.7,2-1.7c0.6,0,1.1,0.2,1.4,0.4l-0.3,0.8c-0.2-0.1-0.6-0.3-1.2-0.3c-0.6,0-1,0.4-1,0.8c0,0.5,0.3,0.7,1.1,1
			c1,0.4,1.5,0.9,1.5,1.8c0,1-0.8,1.7-2.2,1.7c-0.6,0-1.2-0.2-1.6-0.4L1135.3,503.7z"/>
		<path class="st1" d="M1141.5,497.3v1.7h1.5v0.8h-1.5v3.1c0,0.7,0.2,1.1,0.8,1.1c0.3,0,0.5,0,0.6-0.1l0,0.8
			c-0.2,0.1-0.5,0.1-0.9,0.1c-0.5,0-0.9-0.2-1.1-0.4c-0.3-0.3-0.4-0.8-0.4-1.5v-3.2h-0.9v-0.8h0.9v-1.4L1141.5,497.3z"/>
		<path class="st1" d="M1145.4,497.3c0,0.4-0.3,0.6-0.7,0.6c-0.4,0-0.6-0.3-0.6-0.6c0-0.4,0.3-0.7,0.7-0.7
			C1145.1,496.6,1145.4,496.9,1145.4,497.3z M1144.2,504.7v-5.8h1.1v5.8H1144.2z"/>
		<path class="st1" d="M1148.3,497.3v1.7h1.5v0.8h-1.5v3.1c0,0.7,0.2,1.1,0.8,1.1c0.3,0,0.5,0,0.6-0.1l0,0.8
			c-0.2,0.1-0.5,0.1-0.9,0.1c-0.5,0-0.9-0.2-1.1-0.4c-0.3-0.3-0.4-0.8-0.4-1.5v-3.2h-0.9v-0.8h0.9v-1.4L1148.3,497.3z"/>
		<path class="st1" d="M1155.8,503.2c0,0.6,0,1.1,0,1.6h-0.9l-0.1-0.9h0c-0.3,0.5-0.9,1.1-1.9,1.1c-0.9,0-2-0.5-2-2.5v-3.4h1.1v3.2
			c0,1.1,0.3,1.8,1.3,1.8c0.7,0,1.2-0.5,1.4-1c0.1-0.2,0.1-0.3,0.1-0.5v-3.6h1.1V503.2z"/>
		<path class="st1" d="M1158,498.9l1.3,3.4c0.1,0.4,0.3,0.8,0.4,1.2h0c0.1-0.3,0.2-0.8,0.4-1.2l1.2-3.4h1.1l-1.6,4.1
			c-0.8,2-1.3,3-2,3.6c-0.5,0.5-1,0.6-1.3,0.7l-0.3-0.9c0.3-0.1,0.6-0.3,0.9-0.5c0.3-0.2,0.6-0.6,0.9-1.2c0-0.1,0.1-0.2,0.1-0.3
			c0-0.1,0-0.1-0.1-0.3l-2.1-5.3H1158z"/>
		<path class="st1" d="M1163.7,502c0,1.4,0.9,2,2,2c0.8,0,1.2-0.1,1.6-0.3l0.2,0.8c-0.4,0.2-1,0.4-1.9,0.4c-1.8,0-2.9-1.2-2.9-2.9
			s1-3.1,2.7-3.1c1.9,0,2.4,1.7,2.4,2.7c0,0.2,0,0.4,0,0.5H1163.7z M1166.8,501.3c0-0.7-0.3-1.7-1.5-1.7c-1.1,0-1.5,1-1.6,1.7
			H1166.8z"/>
		<path class="st1" d="M969.3,517.6c0,0.6,0,1.1,0,1.6h-0.9l-0.1-0.9h0c-0.3,0.5-0.9,1.1-1.9,1.1c-0.9,0-2-0.5-2-2.5v-3.4h1.1v3.2
			c0,1.1,0.3,1.8,1.3,1.8c0.7,0,1.2-0.5,1.4-1c0.1-0.2,0.1-0.3,0.1-0.5v-3.6h1.1V517.6z"/>
		<path class="st1" d="M971.1,514.9c0-0.6,0-1.1,0-1.6h0.9l0.1,1h0c0.3-0.6,1-1.1,1.9-1.1c0.8,0,2.1,0.5,2.1,2.5v3.5h-1.1v-3.3
			c0-0.9-0.3-1.7-1.3-1.7c-0.7,0-1.2,0.5-1.4,1.1c0,0.1-0.1,0.3-0.1,0.5v3.5h-1.1V514.9z"/>
		<path class="st1" d="M980.3,511.2c0.6-0.1,1.4-0.2,2.2-0.2c1.5,0,2.6,0.3,3.3,1c0.7,0.7,1.1,1.6,1.1,2.9c0,1.3-0.4,2.4-1.2,3.1
			c-0.8,0.8-2,1.2-3.6,1.2c-0.7,0-1.4,0-1.9-0.1V511.2z M981.3,518.3c0.3,0,0.6,0.1,1.1,0.1c2.2,0,3.4-1.2,3.4-3.4
			c0-1.9-1.1-3.1-3.3-3.1c-0.5,0-0.9,0-1.2,0.1V518.3z"/>
		<path class="st1" d="M992.5,515.4h-3.1v2.9h3.5v0.9h-4.5v-8.1h4.4v0.9h-3.3v2.6h3.1V515.4z"/>
		<path class="st1" d="M994.2,511.1h1v7.2h3.5v0.9h-4.5V511.1z"/>
		<path class="st1" d="M1000.9,511.1v8.1h-1v-8.1H1000.9z"/>
		<path class="st1" d="M1004.3,511.9h-2.5v-0.9h6v0.9h-2.5v7.2h-1.1V511.9z"/>
		<path class="st1" d="M1015.3,515c0,2.8-1.7,4.3-3.8,4.3c-2.1,0-3.6-1.7-3.6-4.1c0-2.6,1.6-4.2,3.8-4.2
			C1013.9,510.9,1015.3,512.6,1015.3,515z M1009,515.1c0,1.7,0.9,3.3,2.6,3.3c1.7,0,2.6-1.5,2.6-3.4c0-1.6-0.8-3.3-2.6-3.3
			C1009.9,511.8,1009,513.4,1009,515.1z"/>
		<path class="st1" d="M1020.4,511.7v1.7h1.5v0.8h-1.5v3.1c0,0.7,0.2,1.1,0.8,1.1c0.3,0,0.5,0,0.6-0.1l0,0.8
			c-0.2,0.1-0.5,0.1-0.9,0.1c-0.5,0-0.9-0.2-1.1-0.4c-0.3-0.3-0.4-0.8-0.4-1.5v-3.2h-0.9v-0.8h0.9v-1.4L1020.4,511.7z"/>
		<path class="st1" d="M1024.3,511.7c0,0.4-0.3,0.6-0.7,0.6c-0.4,0-0.6-0.3-0.6-0.6c0-0.4,0.3-0.7,0.7-0.7
			C1024,511,1024.3,511.3,1024.3,511.7z M1023.1,519.1v-5.8h1.1v5.8H1023.1z"/>
		<path class="st1" d="M1025.9,515.2c0-0.7,0-1.3,0-1.9h0.9l0,1h0c0.4-0.7,1.1-1.1,2.1-1.1c1.4,0,2.5,1.2,2.5,3
			c0,2.1-1.3,3.1-2.6,3.1c-0.8,0-1.4-0.3-1.8-0.9h0v3.2h-1V515.2z M1027,516.8c0,0.2,0,0.3,0,0.4c0.2,0.7,0.8,1.2,1.6,1.2
			c1.1,0,1.8-0.9,1.8-2.2c0-1.2-0.6-2.2-1.7-2.2c-0.7,0-1.4,0.5-1.6,1.3c0,0.1-0.1,0.3-0.1,0.4V516.8z"/>
		<path class="st1" d="M1033.9,511.7c0,0.4-0.3,0.6-0.7,0.6c-0.4,0-0.6-0.3-0.6-0.6c0-0.4,0.3-0.7,0.7-0.7
			C1033.7,511,1033.9,511.3,1033.9,511.7z M1032.8,519.1v-5.8h1.1v5.8H1032.8z"/>
		<path class="st1" d="M1035.7,519.1v-5h-0.8v-0.8h0.8V513c0-1.5,0.9-2.5,2.5-2.5c0.5,0,1.2,0.2,1.5,0.4l-0.3,0.8
			c-0.3-0.2-0.7-0.3-1.2-0.3c-1.1,0-1.4,0.8-1.4,1.7v0.3h3.4v5.8h-1v-5h-2.3v5H1035.7z"/>
		<path class="st1" d="M1046,518.9c-0.3,0.1-0.9,0.3-1.7,0.3c-1.8,0-2.9-1.2-2.9-3c0-1.8,1.2-3.1,3.1-3.1c0.6,0,1.2,0.2,1.5,0.3
			l-0.2,0.8c-0.3-0.1-0.6-0.3-1.2-0.3c-1.3,0-2.1,1-2.1,2.2c0,1.3,0.9,2.2,2,2.2c0.6,0,1-0.2,1.3-0.3L1046,518.9z"/>
		<path class="st1" d="M1050.4,519.1l-0.1-0.7h0c-0.3,0.5-0.9,0.9-1.8,0.9c-1.2,0-1.8-0.8-1.8-1.7c0-1.4,1.2-2.2,3.5-2.2v-0.1
			c0-0.5-0.1-1.3-1.3-1.3c-0.5,0-1.1,0.2-1.5,0.4l-0.2-0.7c0.5-0.3,1.2-0.5,1.9-0.5c1.8,0,2.2,1.2,2.2,2.4v2.2c0,0.5,0,1,0.1,1.4
			H1050.4z M1050.3,516.2c-1.2,0-2.5,0.2-2.5,1.3c0,0.7,0.5,1,1,1c0.8,0,1.2-0.5,1.4-1c0-0.1,0.1-0.2,0.1-0.3V516.2z"/>
		<path class="st1" d="M1058,510.6v7c0,0.5,0,1.1,0,1.5h-0.9l0-1h0c-0.3,0.6-1,1.1-2,1.1c-1.4,0-2.5-1.2-2.5-3
			c0-1.9,1.2-3.1,2.6-3.1c0.9,0,1.5,0.4,1.8,0.9h0v-3.5H1058z M1057,515.7c0-0.1,0-0.3,0-0.4c-0.2-0.7-0.7-1.2-1.5-1.2
			c-1.1,0-1.7,1-1.7,2.2c0,1.2,0.6,2.1,1.7,2.1c0.7,0,1.4-0.5,1.5-1.3c0-0.1,0-0.3,0-0.5V515.7z"/>
		<path class="st1" d="M1065,516.2c0,2.1-1.5,3.1-2.9,3.1c-1.6,0-2.8-1.2-2.8-3c0-1.9,1.3-3.1,2.9-3.1
			C1063.9,513.2,1065,514.4,1065,516.2z M1060.4,516.3c0,1.3,0.7,2.2,1.8,2.2c1,0,1.8-0.9,1.8-2.3c0-1-0.5-2.2-1.7-2.2
			C1061,514,1060.4,515.1,1060.4,516.3z"/>
		<path class="st1" d="M1069.5,516.4c0,1.4,0.9,2,2,2c0.8,0,1.2-0.1,1.6-0.3l0.2,0.8c-0.4,0.2-1,0.4-1.9,0.4c-1.8,0-2.9-1.2-2.9-2.9
			c0-1.8,1-3.1,2.7-3.1c1.9,0,2.4,1.7,2.4,2.7c0,0.2,0,0.4,0,0.5H1069.5z M1072.6,515.7c0-0.7-0.3-1.7-1.5-1.7c-1.1,0-1.5,1-1.6,1.7
			H1072.6z"/>
		<path class="st1" d="M1074.9,514.9c0-0.6,0-1.1,0-1.6h0.9l0.1,1h0c0.3-0.6,1-1.1,1.9-1.1c0.8,0,2.1,0.5,2.1,2.5v3.5h-1.1v-3.3
			c0-0.9-0.3-1.7-1.3-1.7c-0.7,0-1.2,0.5-1.4,1.1c0,0.1-0.1,0.3-0.1,0.5v3.5h-1.1V514.9z"/>
		<path class="st1" d="M1084.7,516.4c0,1.4,0.9,2,2,2c0.8,0,1.2-0.1,1.6-0.3l0.2,0.8c-0.4,0.2-1,0.4-1.9,0.4c-1.8,0-2.9-1.2-2.9-2.9
			c0-1.8,1-3.1,2.7-3.1c1.9,0,2.4,1.7,2.4,2.7c0,0.2,0,0.4,0,0.5H1084.7z M1087.8,515.7c0-0.7-0.3-1.7-1.5-1.7c-1.1,0-1.5,1-1.6,1.7
			H1087.8z"/>
		<path class="st1" d="M1090.1,510.6h1.1v8.5h-1.1V510.6z"/>
		<path class="st1" d="M1098.7,519.1l-0.1-0.7h0c-0.3,0.5-0.9,0.9-1.8,0.9c-1.2,0-1.8-0.8-1.8-1.7c0-1.4,1.2-2.2,3.5-2.2v-0.1
			c0-0.5-0.1-1.3-1.3-1.3c-0.5,0-1.1,0.2-1.5,0.4l-0.2-0.7c0.5-0.3,1.2-0.5,1.9-0.5c1.8,0,2.2,1.2,2.2,2.4v2.2c0,0.5,0,1,0.1,1.4
			H1098.7z M1098.6,516.2c-1.2,0-2.5,0.2-2.5,1.3c0,0.7,0.5,1,1,1c0.8,0,1.2-0.5,1.4-1c0-0.1,0.1-0.2,0.1-0.3V516.2z"/>
		<path class="st1" d="M1101.3,515.1c0-0.7,0-1.3,0-1.8h0.9l0,1.1h0c0.3-0.8,0.9-1.3,1.6-1.3c0.1,0,0.2,0,0.3,0v1
			c-0.1,0-0.2,0-0.4,0c-0.7,0-1.3,0.6-1.4,1.4c0,0.1,0,0.3,0,0.5v3.1h-1V515.1z"/>
		<path class="st1" d="M1106.8,511.7v1.7h1.5v0.8h-1.5v3.1c0,0.7,0.2,1.1,0.8,1.1c0.3,0,0.5,0,0.6-0.1l0,0.8
			c-0.2,0.1-0.5,0.1-0.9,0.1c-0.5,0-0.9-0.2-1.1-0.4c-0.3-0.3-0.4-0.8-0.4-1.5v-3.2h-0.9v-0.8h0.9v-1.4L1106.8,511.7z"/>
		<path class="st1" d="M1111.6,510.8l-1.5,1.7h-0.8l1.1-1.7H1111.6z M1109.5,519.1v-5.8h1.1v5.8H1109.5z"/>
		<path class="st1" d="M1116.4,518.9c-0.3,0.1-0.9,0.3-1.7,0.3c-1.8,0-2.9-1.2-2.9-3c0-1.8,1.2-3.1,3.1-3.1c0.6,0,1.2,0.2,1.5,0.3
			l-0.2,0.8c-0.3-0.1-0.6-0.3-1.2-0.3c-1.3,0-2.1,1-2.1,2.2c0,1.3,0.9,2.2,2,2.2c0.6,0,1-0.2,1.3-0.3L1116.4,518.9z"/>
		<path class="st1" d="M1122.5,517.6c0,0.6,0,1.1,0,1.6h-0.9l-0.1-0.9h0c-0.3,0.5-0.9,1.1-1.9,1.1c-0.9,0-2-0.5-2-2.5v-3.4h1.1v3.2
			c0,1.1,0.3,1.8,1.3,1.8c0.7,0,1.2-0.5,1.4-1c0.1-0.2,0.1-0.3,0.1-0.5v-3.6h1.1V517.6z"/>
		<path class="st1" d="M1124.3,510.6h1.1v8.5h-1.1V510.6z"/>
		<path class="st1" d="M1132.3,516.2c0,2.1-1.5,3.1-2.9,3.1c-1.6,0-2.8-1.2-2.8-3c0-1.9,1.3-3.1,2.9-3.1
			C1131.2,513.2,1132.3,514.4,1132.3,516.2z M1127.7,516.3c0,1.3,0.7,2.2,1.8,2.2c1,0,1.8-0.9,1.8-2.3c0-1-0.5-2.2-1.7-2.2
			C1128.3,514,1127.7,515.1,1127.7,516.3z"/>
		<path class="st1" d="M1136.3,519.1v-8.1h1.1l2.6,4.1c0.6,0.9,1.1,1.8,1.5,2.6l0,0c-0.1-1.1-0.1-2.1-0.1-3.3v-3.4h1v8.1h-1.1
			l-2.6-4.1c-0.6-0.9-1.1-1.8-1.5-2.7l0,0c0.1,1,0.1,2,0.1,3.3v3.5H1136.3z"/>
		<path class="st1" d="M1146.8,512.5c0,1-0.8,1.6-1.6,1.6c-0.9,0-1.6-0.7-1.6-1.5c0-0.9,0.7-1.6,1.6-1.6
			C1146.2,510.9,1146.8,511.7,1146.8,512.5z M1144.2,512.5c0,0.6,0.4,1,0.9,1c0.5,0,0.9-0.4,0.9-1c0-0.4-0.3-1-0.9-1
			C1144.6,511.5,1144.2,512,1144.2,512.5z"/>
		<path class="st1" d="M1150.1,519.1v-0.6l0.8-0.8c2-1.9,2.9-2.9,2.9-4.1c0-0.8-0.4-1.5-1.5-1.5c-0.7,0-1.3,0.4-1.7,0.7l-0.3-0.7
			c0.5-0.5,1.3-0.8,2.2-0.8c1.7,0,2.4,1.2,2.4,2.3c0,1.4-1,2.6-2.7,4.2l-0.6,0.6v0h3.5v0.9H1150.1z"/>
		<path class="st1" d="M1156.9,518.4c0.2,0,0.5,0,0.9,0c0.6-0.1,1.2-0.3,1.6-0.8c0.5-0.5,0.9-1.2,1-2.1h0c-0.4,0.5-1.1,0.8-1.8,0.8
			c-1.4,0-2.3-1.1-2.3-2.4c0-1.5,1.1-2.8,2.7-2.8s2.6,1.3,2.6,3.3c0,1.7-0.6,2.9-1.3,3.7c-0.6,0.6-1.4,0.9-2.3,1
			c-0.4,0.1-0.7,0.1-1,0.1V518.4z M1157.3,513.9c0,1,0.6,1.7,1.5,1.7c0.7,0,1.3-0.3,1.5-0.8c0.1-0.1,0.1-0.2,0.1-0.4
			c0-1.3-0.5-2.4-1.6-2.4C1157.9,512,1157.3,512.8,1157.3,513.9z"/>
		<path class="st1" d="M1166.9,512.1c-0.2,0-0.5,0-0.8,0c-1.7,0.3-2.5,1.5-2.7,2.8h0c0.4-0.5,1-0.9,1.9-0.9c1.4,0,2.4,1,2.4,2.5
			c0,1.4-1,2.7-2.6,2.7c-1.7,0-2.8-1.3-2.8-3.3c0-1.5,0.6-2.7,1.3-3.5c0.6-0.6,1.5-1,2.5-1.2c0.3,0,0.6-0.1,0.8-0.1V512.1z
			 M1166.6,516.6c0-1.1-0.6-1.8-1.6-1.8c-0.6,0-1.2,0.4-1.5,1c-0.1,0.1-0.1,0.3-0.1,0.5c0,1.3,0.6,2.2,1.7,2.2
			C1166,518.5,1166.6,517.7,1166.6,516.6z"/>
		<path class="st1" d="M996.2,525v7c0,0.5,0,1.1,0,1.5h-0.9l0-1h0c-0.3,0.6-1,1.1-2,1.1c-1.4,0-2.5-1.2-2.5-3c0-1.9,1.2-3.1,2.6-3.1
			c0.9,0,1.5,0.4,1.8,0.9h0V525H996.2z M995.2,530.1c0-0.1,0-0.3,0-0.4c-0.2-0.7-0.7-1.2-1.5-1.2c-1.1,0-1.7,1-1.7,2.2
			c0,1.2,0.6,2.1,1.7,2.1c0.7,0,1.4-0.5,1.5-1.3c0-0.1,0-0.3,0-0.5V530.1z"/>
		<path class="st1" d="M998.6,530.8c0,1.4,0.9,2,2,2c0.8,0,1.2-0.1,1.6-0.3l0.2,0.8c-0.4,0.2-1,0.4-1.9,0.4c-1.8,0-2.9-1.2-2.9-2.9
			s1-3.1,2.7-3.1c1.9,0,2.4,1.7,2.4,2.7c0,0.2,0,0.4,0,0.5H998.6z M1001.7,530.1c0-0.7-0.3-1.7-1.5-1.7c-1.1,0-1.5,1-1.6,1.7H1001.7
			z"/>
		<path class="st1" d="M1004,525h1.1v8.5h-1.1V525z"/>
		<path class="st1" d="M1015.1,533.3c-0.4,0.2-1.2,0.4-2.1,0.4c-2.3,0-4-1.4-4-4.1c0-2.5,1.7-4.2,4.2-4.2c1,0,1.6,0.2,1.9,0.4
			l-0.3,0.9c-0.4-0.2-1-0.3-1.6-0.3c-1.9,0-3.2,1.2-3.2,3.3c0,2,1.1,3.3,3.1,3.3c0.6,0,1.3-0.1,1.7-0.3L1015.1,533.3z"/>
		<path class="st1" d="M1021.4,530.6c0,2.1-1.5,3.1-2.9,3.1c-1.6,0-2.8-1.2-2.8-3c0-1.9,1.3-3.1,2.9-3.1
			C1020.3,527.6,1021.4,528.8,1021.4,530.6z M1016.8,530.7c0,1.3,0.7,2.2,1.8,2.2c1,0,1.8-0.9,1.8-2.3c0-1-0.5-2.2-1.7-2.2
			C1017.4,528.4,1016.8,529.6,1016.8,530.7z M1020.2,525.2l-1.5,1.7h-0.8l1.1-1.7H1020.2z"/>
		<path class="st1" d="M1027.8,525v7c0,0.5,0,1.1,0,1.5h-0.9l0-1h0c-0.3,0.6-1,1.1-2,1.1c-1.4,0-2.5-1.2-2.5-3
			c0-1.9,1.2-3.1,2.6-3.1c0.9,0,1.5,0.4,1.8,0.9h0V525H1027.8z M1026.7,530.1c0-0.1,0-0.3,0-0.4c-0.2-0.7-0.7-1.2-1.5-1.2
			c-1.1,0-1.7,1-1.7,2.2c0,1.2,0.6,2.1,1.7,2.1c0.7,0,1.4-0.5,1.5-1.3c0-0.1,0-0.3,0-0.5V530.1z"/>
		<path class="st1" d="M1030.7,526.1c0,0.4-0.3,0.6-0.7,0.6c-0.4,0-0.6-0.3-0.6-0.6c0-0.4,0.3-0.7,0.7-0.7
			C1030.5,525.4,1030.7,525.7,1030.7,526.1z M1029.5,533.5v-5.8h1.1v5.8H1029.5z"/>
		<path class="st1" d="M1037.4,527.7c0,0.4,0,0.9,0,1.6v3.4c0,1.3-0.3,2.1-0.8,2.7c-0.6,0.5-1.4,0.7-2.1,0.7c-0.7,0-1.5-0.2-1.9-0.5
			l0.3-0.8c0.4,0.2,1,0.5,1.7,0.5c1.1,0,1.9-0.6,1.9-2v-0.6h0c-0.3,0.5-0.9,1-1.8,1c-1.4,0-2.5-1.2-2.5-2.8c0-2,1.3-3.1,2.6-3.1
			c1,0,1.6,0.5,1.8,1h0l0-0.9H1037.4z M1036.3,530c0-0.2,0-0.3-0.1-0.5c-0.2-0.6-0.7-1.1-1.5-1.1c-1,0-1.7,0.9-1.7,2.2
			c0,1.1,0.6,2.1,1.7,2.1c0.6,0,1.2-0.4,1.5-1.1c0.1-0.2,0.1-0.4,0.1-0.6V530z"/>
		<path class="st1" d="M1044.3,530.6c0,2.1-1.5,3.1-2.9,3.1c-1.6,0-2.8-1.2-2.8-3c0-1.9,1.3-3.1,2.9-3.1
			C1043.2,527.6,1044.3,528.8,1044.3,530.6z M1039.7,530.7c0,1.3,0.7,2.2,1.8,2.2c1,0,1.8-0.9,1.8-2.3c0-1-0.5-2.2-1.7-2.2
			C1040.3,528.4,1039.7,529.6,1039.7,530.7z"/>
		<path class="st1" d="M1048.2,525.6c0.5-0.1,1.2-0.2,2-0.2c1,0,1.8,0.2,2.3,0.7c0.4,0.4,0.7,1,0.7,1.7c0,0.7-0.2,1.3-0.6,1.7
			c-0.6,0.6-1.5,0.9-2.5,0.9c-0.3,0-0.6,0-0.8-0.1v3.2h-1V525.6z M1049.3,529.5c0.2,0.1,0.5,0.1,0.9,0.1c1.3,0,2-0.6,2-1.7
			c0-1.1-0.8-1.6-1.9-1.6c-0.5,0-0.8,0-1,0.1V529.5z"/>
		<path class="st1" d="M1054.9,530.8c0,1.4,0.9,2,2,2c0.8,0,1.2-0.1,1.6-0.3l0.2,0.8c-0.4,0.2-1,0.4-1.9,0.4c-1.8,0-2.9-1.2-2.9-2.9
			s1-3.1,2.7-3.1c1.9,0,2.4,1.7,2.4,2.7c0,0.2,0,0.4,0,0.5H1054.9z M1058,530.1c0-0.7-0.3-1.7-1.5-1.7c-1.1,0-1.5,1-1.6,1.7H1058z"
			/>
		<path class="st1" d="M1060.3,529.3c0-0.6,0-1.1,0-1.6h0.9l0.1,1h0c0.3-0.6,1-1.1,1.9-1.1c0.8,0,2.1,0.5,2.1,2.5v3.5h-1.1v-3.3
			c0-0.9-0.3-1.7-1.3-1.7c-0.7,0-1.2,0.5-1.4,1.1c0,0.1-0.1,0.3-0.1,0.5v3.5h-1.1V529.3z"/>
		<path class="st1" d="M1070.2,533.5l-0.1-0.7h0c-0.3,0.5-0.9,0.9-1.8,0.9c-1.2,0-1.8-0.8-1.8-1.7c0-1.4,1.2-2.2,3.5-2.2v-0.1
			c0-0.5-0.1-1.3-1.3-1.3c-0.5,0-1.1,0.2-1.5,0.4l-0.2-0.7c0.5-0.3,1.2-0.5,1.9-0.5c1.8,0,2.2,1.2,2.2,2.4v2.2c0,0.5,0,1,0.1,1.4
			H1070.2z M1070,530.6c-1.2,0-2.5,0.2-2.5,1.3c0,0.7,0.5,1,1,1c0.8,0,1.2-0.5,1.4-1c0-0.1,0.1-0.2,0.1-0.3V530.6z"/>
		<path class="st1" d="M1072.7,525h1.1v8.5h-1.1V525z"/>
		<path class="st1" d="M1083.1,525v7c0,0.5,0,1.1,0,1.5h-0.9l0-1h0c-0.3,0.6-1,1.1-2,1.1c-1.4,0-2.5-1.2-2.5-3
			c0-1.9,1.2-3.1,2.6-3.1c0.9,0,1.5,0.4,1.8,0.9h0V525H1083.1z M1082.1,530.1c0-0.1,0-0.3,0-0.4c-0.2-0.7-0.7-1.2-1.5-1.2
			c-1.1,0-1.7,1-1.7,2.2c0,1.2,0.6,2.1,1.7,2.1c0.7,0,1.4-0.5,1.5-1.3c0-0.1,0-0.3,0-0.5V530.1z"/>
		<path class="st1" d="M1085.5,530.8c0,1.4,0.9,2,2,2c0.8,0,1.2-0.1,1.6-0.3l0.2,0.8c-0.4,0.2-1,0.4-1.9,0.4c-1.8,0-2.9-1.2-2.9-2.9
			s1-3.1,2.7-3.1c1.9,0,2.4,1.7,2.4,2.7c0,0.2,0,0.4,0,0.5H1085.5z M1088.6,530.1c0-0.7-0.3-1.7-1.5-1.7c-1.1,0-1.5,1-1.6,1.7
			H1088.6z"/>
		<path class="st1" d="M1093.4,525h1.1v8.5h-1.1V525z"/>
		<path class="st1" d="M1099.5,533.5l-0.1-0.7h0c-0.3,0.5-0.9,0.9-1.8,0.9c-1.2,0-1.8-0.8-1.8-1.7c0-1.4,1.2-2.2,3.5-2.2v-0.1
			c0-0.5-0.1-1.3-1.3-1.3c-0.5,0-1.1,0.2-1.5,0.4l-0.2-0.7c0.5-0.3,1.2-0.5,1.9-0.5c1.8,0,2.2,1.2,2.2,2.4v2.2c0,0.5,0,1,0.1,1.4
			H1099.5z M1099.3,530.6c-1.2,0-2.5,0.2-2.5,1.3c0,0.7,0.5,1,1,1c0.8,0,1.2-0.5,1.4-1c0-0.1,0.1-0.2,0.1-0.3V530.6z"/>
		<path class="st1" d="M1104.6,533.5v-8.1h1.1l2.6,4.1c0.6,0.9,1.1,1.8,1.5,2.6l0,0c-0.1-1.1-0.1-2.1-0.1-3.3v-3.4h1v8.1h-1.1
			l-2.6-4.1c-0.6-0.9-1.1-1.8-1.5-2.7l0,0c0.1,1,0.1,2,0.1,3.3v3.5H1104.6z"/>
		<path class="st1" d="M1115.7,533.5l-0.1-0.7h0c-0.3,0.5-0.9,0.9-1.8,0.9c-1.2,0-1.8-0.8-1.8-1.7c0-1.4,1.2-2.2,3.5-2.2v-0.1
			c0-0.5-0.1-1.3-1.3-1.3c-0.5,0-1.1,0.2-1.5,0.4l-0.2-0.7c0.5-0.3,1.2-0.5,1.9-0.5c1.8,0,2.2,1.2,2.2,2.4v2.2c0,0.5,0,1,0.1,1.4
			H1115.7z M1115.6,530.6c-1.2,0-2.5,0.2-2.5,1.3c0,0.7,0.5,1,1,1c0.8,0,1.2-0.5,1.4-1c0-0.1,0.1-0.2,0.1-0.3V530.6z"/>
		<path class="st1" d="M1122.4,533.3c-0.3,0.1-0.9,0.3-1.7,0.3c-1.8,0-2.9-1.2-2.9-3c0-1.8,1.2-3.1,3.1-3.1c0.6,0,1.2,0.2,1.5,0.3
			l-0.2,0.8c-0.3-0.1-0.6-0.3-1.2-0.3c-1.3,0-2.1,1-2.1,2.2c0,1.3,0.9,2.2,2,2.2c0.6,0,1-0.2,1.3-0.3L1122.4,533.3z"/>
		<path class="st1" d="M1124.8,526.1c0,0.4-0.3,0.6-0.7,0.6c-0.4,0-0.6-0.3-0.6-0.6c0-0.4,0.3-0.7,0.7-0.7
			C1124.6,525.4,1124.8,525.7,1124.8,526.1z M1123.7,533.5v-5.8h1.1v5.8H1123.7z"/>
		<path class="st1" d="M1131.7,530.6c0,2.1-1.5,3.1-2.9,3.1c-1.6,0-2.8-1.2-2.8-3c0-1.9,1.3-3.1,2.9-3.1
			C1130.6,527.6,1131.7,528.8,1131.7,530.6z M1127.1,530.7c0,1.3,0.7,2.2,1.8,2.2c1,0,1.8-0.9,1.8-2.3c0-1-0.5-2.2-1.7-2.2
			C1127.6,528.4,1127.1,529.6,1127.1,530.7z M1130.5,525.2l-1.5,1.7h-0.8l1.1-1.7H1130.5z"/>
		<path class="st1" d="M1133,529.3c0-0.6,0-1.1,0-1.6h0.9l0.1,1h0c0.3-0.6,1-1.1,1.9-1.1c0.8,0,2.1,0.5,2.1,2.5v3.5h-1.1v-3.3
			c0-0.9-0.3-1.7-1.3-1.7c-0.7,0-1.2,0.5-1.4,1.1c0,0.1-0.1,0.3-0.1,0.5v3.5h-1.1V529.3z"/>
		<path class="st1" d="M1139.5,532.9c0-0.4,0.3-0.8,0.7-0.8c0.4,0,0.7,0.3,0.7,0.8c0,0.4-0.3,0.8-0.7,0.8
			C1139.7,533.7,1139.5,533.4,1139.5,532.9z"/>
	</g>
	<g>
		<path class="st1" d="M1055.8,403.9h13.1c0.4,0,0.8-0.4,0.8-0.8s-0.4-0.8-0.8-0.8h-13.1c-0.4,0-0.8,0.4-0.8,0.8
			S1055.3,403.9,1055.8,403.9L1055.8,403.9z"/>
		<path class="st1" d="M1052.9,408.5h16c0.4,0,0.8-0.4,0.8-0.8c0-0.4-0.3-0.7-0.6-0.7c-0.1,0-0.1,0-0.2,0h-16
			c-0.4,0-0.8,0.3-0.8,0.8l0,0l0,0C1052.1,408.1,1052.4,408.5,1052.9,408.5z"/>
		<path class="st1" d="M1069.8,412.4c0-0.4-0.3-0.8-0.7-0.9c-0.1,0-0.1,0-0.2,0h-16c-0.4,0-0.8,0.3-0.8,0.7l0,0l0,0
			c0,0.4,0.4,0.8,0.8,0.8h16C1069.3,413.1,1069.7,412.8,1069.8,412.4z"/>
		<path class="st1" d="M1086.3,425l-8.8-14.8c-0.2-0.4-0.5-0.7-0.9-0.8v-11c0-2.2-1.8-4.1-4.1-4.1h-19.3c-0.8,0-1.5,0.3-2,0.9
			l-5.2,5.5c-0.5,0.5-0.7,1.2-0.8,1.9v25.2c0,2.2,1.8,4,4.1,4h23.2c2.1,0,3.8-1.6,4-3.7h7.9c1.2,0,2.1-0.9,2.1-2.1
			C1086.5,425.7,1086.4,425.3,1086.3,425L1086.3,425z M1051.3,397.7v3.4h-3.2L1051.3,397.7z M1072.5,430.2h-23.2
			c-1.3,0-2.4-1.1-2.4-2.4l0,0V403h5.3c0.5,0,0.9-0.4,0.9-0.9v-6.2h19.4c1.3,0,2.4,1.1,2.4,2.4v11c-0.5,0.2-0.8,0.5-1.1,0.9
			l-8.1,14.8c-0.6,1-0.2,2.3,0.8,2.8c0.3,0.2,0.7,0.3,1,0.3h7.3C1074.7,429.3,1073.7,430.2,1072.5,430.2z M1084.9,426.3
			c-0.1,0.2-0.3,0.3-0.4,0.2h-16.9c-0.2,0-0.3-0.1-0.4-0.2c-0.1-0.2-0.1-0.3,0-0.5l8.1-14.8c0.1-0.2,0.2-0.3,0.4-0.3l0,0
			c0.2,0,0.3,0.1,0.4,0.2l8.8,14.8C1085,425.9,1085,426.1,1084.9,426.3z"/>
		<path class="st1" d="M1076.5,414.8h-1.4c-0.3,0-0.6,0.3-0.6,0.6c0,0.1,0,0.1,0,0.1l0.7,5.4c0,0.4,0.3,0.7,0.7,0.7s0.7-0.3,0.7-0.7
			l0.6-5.4c0.1-0.3-0.1-0.6-0.4-0.7C1076.6,414.8,1076.6,414.8,1076.5,414.8z"/>
		<path class="st1" d="M1075.8,422.5c-0.7,0-1.2,0.5-1.2,1.2c0,0,0,0,0,0.1l0,0c0,0.7,0.6,1.2,1.2,1.2c0.6,0,1.2-0.6,1.2-1.2l0,0
			C1077.1,423.1,1076.5,422.5,1075.8,422.5C1075.9,422.5,1075.8,422.5,1075.8,422.5z"/>
	</g>
</g>
<g>
	<path class="st2" d="M1053.3,256H848.8c-13.1,0-23.8-10.7-23.8-23.8V66c0-13.1,10.7-23.8,23.8-23.8h204.5
		c13.1,0,23.8,10.7,23.8,23.8v166.2C1077.1,245.3,1066.5,256,1053.3,256z"/>
	<g>
		<path class="st3" d="M881.6,142.3v-13.6h4.4c1.7,0,2.8,0.1,3.3,0.2c0.8,0.2,1.4,0.6,2,1.3c0.5,0.7,0.8,1.6,0.8,2.7
			c0,0.8-0.2,1.5-0.5,2.1c-0.3,0.6-0.7,1-1.2,1.3s-0.9,0.5-1.4,0.6c-0.7,0.1-1.6,0.2-2.9,0.2h-1.8v5.1H881.6z M884.4,131v3.9h1.5
			c1.1,0,1.8-0.1,2.2-0.2c0.4-0.1,0.7-0.4,0.9-0.7c0.2-0.3,0.3-0.7,0.3-1.1c0-0.5-0.1-0.9-0.4-1.2c-0.3-0.3-0.7-0.5-1.1-0.6
			c-0.3-0.1-1-0.1-2-0.1H884.4z"/>
		<path class="st3" d="M893.8,135.6c0-1.4,0.2-2.6,0.6-3.5c0.3-0.7,0.7-1.3,1.3-1.9c0.5-0.6,1.1-1,1.8-1.2c0.8-0.4,1.8-0.5,2.9-0.5
			c2,0,3.6,0.6,4.8,1.9c1.2,1.2,1.8,3,1.8,5.2c0,2.2-0.6,3.9-1.8,5.2s-2.8,1.9-4.8,1.9c-2,0-3.6-0.6-4.8-1.9
			S893.8,137.8,893.8,135.6z M896.6,135.5c0,1.5,0.4,2.7,1.1,3.5c0.7,0.8,1.6,1.2,2.7,1.2c1.1,0,2-0.4,2.7-1.2
			c0.7-0.8,1.1-2,1.1-3.6c0-1.6-0.3-2.7-1-3.5c-0.7-0.8-1.6-1.2-2.7-1.2c-1.1,0-2,0.4-2.7,1.2C897,132.8,896.6,133.9,896.6,135.5z"
			/>
		<path class="st3" d="M908.4,137.9l2.7-0.3c0.2,0.9,0.5,1.6,1,2c0.5,0.4,1.2,0.6,2,0.6c0.9,0,1.6-0.2,2-0.6
			c0.4-0.4,0.7-0.8,0.7-1.3c0-0.3-0.1-0.6-0.3-0.8c-0.2-0.2-0.5-0.4-1-0.6c-0.3-0.1-1.1-0.3-2.2-0.6c-1.5-0.4-2.5-0.8-3.1-1.3
			c-0.8-0.7-1.3-1.7-1.3-2.7c0-0.7,0.2-1.3,0.6-1.9s1-1.1,1.7-1.4s1.6-0.5,2.7-0.5c1.7,0,3,0.4,3.9,1.1c0.9,0.7,1.3,1.7,1.4,3
			l-2.8,0.1c-0.1-0.7-0.4-1.2-0.8-1.5c-0.4-0.3-1-0.5-1.7-0.5c-0.8,0-1.4,0.2-1.9,0.5c-0.3,0.2-0.4,0.5-0.4,0.8
			c0,0.3,0.1,0.6,0.4,0.8c0.3,0.3,1.2,0.6,2.5,0.9c1.3,0.3,2.3,0.6,3,1c0.6,0.3,1.1,0.8,1.5,1.4c0.4,0.6,0.5,1.3,0.5,2.2
			c0,0.8-0.2,1.5-0.7,2.2c-0.4,0.7-1,1.2-1.8,1.5c-0.8,0.3-1.8,0.5-3,0.5c-1.7,0-3-0.4-4-1.2S908.6,139.4,908.4,137.9z"/>
		<path class="st3" d="M924.9,142.3V131h-4v-2.3h10.8v2.3h-4v11.3H924.9z"/>
		<path class="st3" d="M933.4,128.7h2.8v7.4c0,1.2,0,1.9,0.1,2.3c0.1,0.6,0.4,1,0.8,1.3c0.4,0.3,1,0.5,1.8,0.5
			c0.8,0,1.4-0.2,1.8-0.5c0.4-0.3,0.6-0.7,0.7-1.2c0.1-0.5,0.1-1.2,0.1-2.3v-7.5h2.8v7.2c0,1.6-0.1,2.8-0.2,3.5
			c-0.1,0.7-0.4,1.2-0.8,1.7c-0.4,0.5-0.9,0.8-1.6,1.1s-1.5,0.4-2.6,0.4c-1.3,0-2.3-0.2-3-0.5s-1.2-0.7-1.6-1.2
			c-0.4-0.5-0.6-1-0.8-1.5c-0.2-0.8-0.3-1.9-0.3-3.5V128.7z"/>
		<path class="st3" d="M947.3,142.3v-13.5h2.7V140h6.8v2.3H947.3z"/>
		<path class="st3" d="M971.1,142.3h-3l-1.2-3.1h-5.4l-1.1,3.1h-2.9l5.3-13.6h2.9L971.1,142.3z M966,136.9l-1.9-5.1l-1.8,5.1H966z"
			/>
		<path class="st3" d="M972.6,142.3v-13.6h2.7l5.6,9.1v-9.1h2.6v13.6h-2.8l-5.5-8.9v8.9H972.6z"/>
		<path class="st3" d="M989.3,142.3V131h-4v-2.3h10.8v2.3h-4v11.3H989.3z"/>
		<path class="st3" d="M997.9,142.3v-13.6h10.1v2.3h-7.3v3h6.8v2.3h-6.8v3.7h7.6v2.3H997.9z"/>
		<path class="st3" d="M1009.9,137.9l2.7-0.3c0.2,0.9,0.5,1.6,1,2c0.5,0.4,1.2,0.6,2,0.6c0.9,0,1.6-0.2,2-0.6
			c0.4-0.4,0.7-0.8,0.7-1.3c0-0.3-0.1-0.6-0.3-0.8c-0.2-0.2-0.5-0.4-1-0.6c-0.3-0.1-1.1-0.3-2.2-0.6c-1.5-0.4-2.5-0.8-3.1-1.3
			c-0.8-0.7-1.3-1.7-1.3-2.7c0-0.7,0.2-1.3,0.6-1.9s1-1.1,1.7-1.4s1.6-0.5,2.7-0.5c1.7,0,3,0.4,3.9,1.1c0.9,0.7,1.3,1.7,1.4,3
			l-2.8,0.1c-0.1-0.7-0.4-1.2-0.8-1.5c-0.4-0.3-1-0.5-1.7-0.5c-0.8,0-1.4,0.2-1.9,0.5c-0.3,0.2-0.4,0.5-0.4,0.8
			c0,0.3,0.1,0.6,0.4,0.8c0.3,0.3,1.2,0.6,2.5,0.9c1.3,0.3,2.3,0.6,3,1c0.6,0.3,1.1,0.8,1.5,1.4c0.4,0.6,0.5,1.3,0.5,2.2
			c0,0.8-0.2,1.5-0.7,2.2c-0.4,0.7-1,1.2-1.8,1.5c-0.8,0.3-1.8,0.5-3,0.5c-1.7,0-3-0.4-4-1.2S1010.1,139.4,1009.9,137.9z"/>
		<path class="st3" d="M895.9,161.3v-13.6h9.3v2.3h-6.6v3.2h5.7v2.3h-5.7v5.8H895.9z"/>
		<path class="st3" d="M907.5,161.3v-13.6h10.1v2.3h-7.3v3h6.8v2.3h-6.8v3.7h7.6v2.3H907.5z"/>
		<path class="st3" d="M920.2,161.3v-13.6h4.1l2.5,9.3l2.4-9.3h4.1v13.6h-2.6v-10.7l-2.7,10.7h-2.6l-2.7-10.7v10.7H920.2z"/>
		<path class="st3" d="M936.1,161.3v-13.6h10.1v2.3h-7.3v3h6.8v2.3h-6.8v3.7h7.6v2.3H936.1z"/>
		<path class="st3" d="M948.8,161.3v-13.6h2.7l5.6,9.1v-9.1h2.6v13.6h-2.8l-5.5-8.9v8.9H948.8z"/>
		<path class="st3" d="M962.4,161.3v-13.6h2.8v13.6H962.4z"/>
		<path class="st3" d="M967.8,161.3v-13.6h2.7l5.6,9.1v-9.1h2.6v13.6h-2.8l-5.5-8.9v8.9H967.8z"/>
		<path class="st3" d="M981,154.6c0-1.4,0.2-2.6,0.6-3.5c0.3-0.7,0.7-1.3,1.3-1.9c0.5-0.6,1.1-1,1.8-1.2c0.8-0.4,1.8-0.5,2.9-0.5
			c2,0,3.6,0.6,4.8,1.9c1.2,1.2,1.8,3,1.8,5.2c0,2.2-0.6,3.9-1.8,5.2c-1.2,1.2-2.8,1.9-4.8,1.9c-2,0-3.6-0.6-4.8-1.9
			S981,156.8,981,154.6z M983.8,154.5c0,1.5,0.4,2.7,1.1,3.5s1.6,1.2,2.7,1.2c1.1,0,2-0.4,2.7-1.2c0.7-0.8,1.1-2,1.1-3.6
			c0-1.6-0.3-2.7-1-3.5c-0.7-0.8-1.6-1.2-2.7-1.2c-1.1,0-2,0.4-2.7,1.2C984.1,151.8,983.8,152.9,983.8,154.5z"/>
		<path class="st3" d="M995.6,156.9l2.7-0.3c0.2,0.9,0.5,1.6,1,2c0.5,0.4,1.2,0.6,2,0.6c0.9,0,1.6-0.2,2-0.6
			c0.4-0.4,0.7-0.8,0.7-1.3c0-0.3-0.1-0.6-0.3-0.8c-0.2-0.2-0.5-0.4-1-0.6c-0.3-0.1-1.1-0.3-2.2-0.6c-1.5-0.4-2.5-0.8-3.1-1.3
			c-0.8-0.7-1.3-1.7-1.3-2.7c0-0.7,0.2-1.3,0.6-1.9c0.4-0.6,1-1.1,1.7-1.4s1.6-0.5,2.7-0.5c1.7,0,3,0.4,3.9,1.1
			c0.9,0.7,1.3,1.7,1.4,3l-2.8,0.1c-0.1-0.7-0.4-1.2-0.8-1.5c-0.4-0.3-1-0.5-1.7-0.5c-0.8,0-1.4,0.2-1.9,0.5
			c-0.3,0.2-0.4,0.5-0.4,0.8c0,0.3,0.1,0.6,0.4,0.8c0.3,0.3,1.2,0.6,2.5,0.9c1.3,0.3,2.3,0.6,3,1c0.6,0.3,1.1,0.8,1.5,1.4
			c0.4,0.6,0.5,1.3,0.5,2.2c0,0.8-0.2,1.5-0.7,2.2c-0.4,0.7-1,1.2-1.8,1.5c-0.8,0.3-1.8,0.5-3,0.5c-1.7,0-3-0.4-4-1.2
			S995.8,158.4,995.6,156.9z"/>
	</g>
	<g>
		<path class="st3" d="M878.6,186.1c0.5-0.1,1.3-0.2,2-0.2c1.1,0,1.8,0.2,2.3,0.7c0.4,0.4,0.6,0.9,0.6,1.5c0,1.1-0.7,1.8-1.5,2.1v0
			c0.6,0.2,1,0.8,1.2,1.6c0.3,1.1,0.5,1.9,0.6,2.2h-1.1c-0.1-0.2-0.3-0.9-0.5-1.9c-0.2-1.1-0.7-1.5-1.6-1.6h-1v3.5h-1V186.1z
			 M879.6,189.8h1.1c1.1,0,1.8-0.6,1.8-1.5c0-1-0.8-1.5-1.9-1.5c-0.5,0-0.9,0-1,0.1V189.8z"/>
		<path class="st3" d="M885.6,191.4c0,1.4,0.9,2,2,2c0.8,0,1.2-0.1,1.6-0.3l0.2,0.8c-0.4,0.2-1,0.4-1.9,0.4c-1.8,0-2.9-1.2-2.9-2.9
			s1-3.1,2.7-3.1c1.9,0,2.4,1.7,2.4,2.7c0,0.2,0,0.4,0,0.5H885.6z M888.7,190.7c0-0.7-0.3-1.7-1.5-1.7c-1.1,0-1.5,1-1.6,1.7H888.7z"
			/>
		<path class="st3" d="M890.9,193c0.3,0.2,0.9,0.4,1.4,0.4c0.8,0,1.1-0.4,1.1-0.9c0-0.5-0.3-0.8-1.1-1.1c-1-0.4-1.5-0.9-1.5-1.6
			c0-0.9,0.8-1.7,2-1.7c0.6,0,1.1,0.2,1.4,0.4l-0.3,0.8c-0.2-0.1-0.6-0.3-1.2-0.3c-0.6,0-1,0.4-1,0.8c0,0.5,0.3,0.7,1.1,1
			c1,0.4,1.5,0.9,1.5,1.8c0,1-0.8,1.7-2.2,1.7c-0.6,0-1.2-0.2-1.6-0.4L890.9,193z"/>
		<path class="st3" d="M901.1,191.2c0,2.1-1.5,3.1-2.9,3.1c-1.6,0-2.8-1.2-2.8-3c0-1.9,1.3-3.1,2.9-3.1
			C899.9,188.2,901.1,189.4,901.1,191.2z M896.4,191.2c0,1.3,0.7,2.2,1.8,2.2c1,0,1.8-0.9,1.8-2.3c0-1-0.5-2.2-1.7-2.2
			C897,189,896.4,190.1,896.4,191.2z"/>
		<path class="st3" d="M902.4,185.6h1.1v8.5h-1.1V185.6z"/>
		<path class="st3" d="M910.1,192.5c0,0.6,0,1.1,0,1.6h-0.9l-0.1-0.9h0c-0.3,0.5-0.9,1.1-1.9,1.1c-0.9,0-2-0.5-2-2.5v-3.4h1.1v3.2
			c0,1.1,0.3,1.8,1.3,1.8c0.7,0,1.2-0.5,1.4-1c0.1-0.2,0.1-0.3,0.1-0.5v-3.6h1.1V192.5z"/>
		<path class="st3" d="M916,193.9c-0.3,0.1-0.9,0.3-1.7,0.3c-1.8,0-2.9-1.2-2.9-3c0-1.8,1.2-3.1,3.1-3.1c0.6,0,1.2,0.2,1.5,0.3
			l-0.2,0.8c-0.3-0.1-0.6-0.3-1.2-0.3c-1.3,0-2.1,1-2.1,2.2c0,1.3,0.9,2.2,2,2.2c0.6,0,1-0.2,1.3-0.3L916,193.9z"/>
		<path class="st3" d="M918.4,186.7c0,0.4-0.3,0.6-0.7,0.6c-0.4,0-0.6-0.3-0.6-0.6c0-0.4,0.3-0.7,0.7-0.7
			C918.1,186,918.4,186.3,918.4,186.7z M917.2,194.1v-5.8h1.1v5.8H917.2z"/>
		<path class="st3" d="M925.3,191.2c0,2.1-1.5,3.1-2.9,3.1c-1.6,0-2.8-1.2-2.8-3c0-1.9,1.3-3.1,2.9-3.1
			C924.1,188.2,925.3,189.4,925.3,191.2z M920.7,191.2c0,1.3,0.7,2.2,1.8,2.2c1,0,1.8-0.9,1.8-2.3c0-1-0.5-2.2-1.7-2.2
			C921.2,189,920.7,190.1,920.7,191.2z M924,185.8l-1.5,1.7h-0.8l1.1-1.7H924z"/>
		<path class="st3" d="M926.6,189.9c0-0.6,0-1.1,0-1.6h0.9l0.1,1h0c0.3-0.6,1-1.1,1.9-1.1c0.8,0,2.1,0.5,2.1,2.5v3.5h-1.1v-3.3
			c0-0.9-0.3-1.7-1.3-1.7c-0.7,0-1.2,0.5-1.4,1.1c0,0.1-0.1,0.3-0.1,0.5v3.5h-1.1V189.9z"/>
		<path class="st3" d="M942.7,190.6c-0.1-1.1-0.1-2.5-0.1-3.5h0c-0.3,0.9-0.6,2-1,3.1l-1.4,3.9h-0.8l-1.3-3.8
			c-0.4-1.1-0.7-2.2-0.9-3.1h0c0,1-0.1,2.4-0.2,3.6l-0.2,3.5h-1l0.6-8.1h1.3l1.4,3.9c0.3,1,0.6,1.9,0.8,2.7h0
			c0.2-0.8,0.5-1.7,0.9-2.7l1.4-3.9h1.3l0.5,8.1h-1L942.7,190.6z"/>
		<path class="st3" d="M946.8,186.7c0,0.4-0.3,0.6-0.7,0.6c-0.4,0-0.6-0.3-0.6-0.6c0-0.4,0.3-0.7,0.7-0.7
			C946.5,186,946.8,186.3,946.8,186.7z M945.6,194.1v-5.8h1.1v5.8H945.6z"/>
		<path class="st3" d="M948.4,189.9c0-0.6,0-1.1,0-1.6h0.9l0.1,1h0c0.3-0.6,1-1.1,1.9-1.1c0.8,0,2.1,0.5,2.1,2.5v3.5h-1.1v-3.3
			c0-0.9-0.3-1.7-1.3-1.7c-0.7,0-1.2,0.5-1.4,1.1c0,0.1-0.1,0.3-0.1,0.5v3.5h-1.1V189.9z"/>
		<path class="st3" d="M956.2,186.7c0,0.4-0.3,0.6-0.7,0.6c-0.4,0-0.6-0.3-0.6-0.6c0-0.4,0.3-0.7,0.7-0.7
			C956,186,956.2,186.3,956.2,186.7z M955.1,194.1v-5.8h1.1v5.8H955.1z"/>
		<path class="st3" d="M957.7,193c0.3,0.2,0.9,0.4,1.4,0.4c0.8,0,1.1-0.4,1.1-0.9c0-0.5-0.3-0.8-1.1-1.1c-1-0.4-1.5-0.9-1.5-1.6
			c0-0.9,0.8-1.7,2-1.7c0.6,0,1.1,0.2,1.4,0.4l-0.3,0.8c-0.2-0.1-0.6-0.3-1.2-0.3c-0.6,0-1,0.4-1,0.8c0,0.5,0.3,0.7,1.1,1
			c1,0.4,1.5,0.9,1.5,1.8c0,1-0.8,1.7-2.2,1.7c-0.6,0-1.2-0.2-1.6-0.4L957.7,193z"/>
		<path class="st3" d="M963.9,186.6v1.7h1.5v0.8h-1.5v3.1c0,0.7,0.2,1.1,0.8,1.1c0.3,0,0.5,0,0.6-0.1l0,0.8
			c-0.2,0.1-0.5,0.1-0.9,0.1c-0.5,0-0.9-0.2-1.1-0.4c-0.3-0.3-0.4-0.8-0.4-1.5v-3.2H962v-0.8h0.9v-1.4L963.9,186.6z"/>
		<path class="st3" d="M967.1,191.4c0,1.4,0.9,2,2,2c0.8,0,1.2-0.1,1.6-0.3l0.2,0.8c-0.4,0.2-1,0.4-1.9,0.4c-1.8,0-2.9-1.2-2.9-2.9
			s1-3.1,2.7-3.1c1.9,0,2.4,1.7,2.4,2.7c0,0.2,0,0.4,0,0.5H967.1z M970.2,190.7c0-0.7-0.3-1.7-1.5-1.7c-1.1,0-1.5,1-1.6,1.7H970.2z"
			/>
		<path class="st3" d="M972.5,190.1c0-0.7,0-1.3,0-1.8h0.9l0,1.1h0c0.3-0.8,0.9-1.3,1.6-1.3c0.1,0,0.2,0,0.3,0v1c-0.1,0-0.2,0-0.4,0
			c-0.7,0-1.3,0.6-1.4,1.4c0,0.1,0,0.3,0,0.5v3.1h-1V190.1z"/>
		<path class="st3" d="M977.7,186.7c0,0.4-0.3,0.6-0.7,0.6c-0.4,0-0.6-0.3-0.6-0.6c0-0.4,0.3-0.7,0.7-0.7
			C977.4,186,977.7,186.3,977.7,186.7z M976.5,194.1v-5.8h1.1v5.8H976.5z"/>
		<path class="st3" d="M982.5,194.1l-0.1-0.7h0c-0.3,0.5-0.9,0.9-1.8,0.9c-1.2,0-1.8-0.8-1.8-1.7c0-1.4,1.2-2.2,3.5-2.2v-0.1
			c0-0.5-0.1-1.3-1.3-1.3c-0.5,0-1.1,0.2-1.5,0.4l-0.2-0.7c0.5-0.3,1.2-0.5,1.9-0.5c1.8,0,2.2,1.2,2.2,2.4v2.2c0,0.5,0,1,0.1,1.4
			H982.5z M982.4,191.2c-1.2,0-2.5,0.2-2.5,1.3c0,0.7,0.5,1,1,1c0.8,0,1.2-0.5,1.4-1c0-0.1,0.1-0.2,0.1-0.3V191.2z"/>
		<path class="st3" d="M985.1,185.6h1.1v8.5h-1.1V185.6z"/>
		<path class="st3" d="M993.4,194.1V192h-3.6v-0.7l3.5-5h1.1v4.8h1.1v0.8h-1.1v2.1H993.4z M993.4,191.2v-2.6c0-0.4,0-0.8,0-1.2h0
			c-0.2,0.5-0.4,0.8-0.6,1.2l-1.9,2.7v0H993.4z"/>
		<path class="st3" d="M1001.4,186.3v0.7l-3.4,7.1h-1.1l3.4-6.9v0h-3.8v-0.9H1001.4z"/>
		<path class="st3" d="M1002.5,194.1v-0.6l0.8-0.8c2-1.9,2.9-2.9,2.9-4.1c0-0.8-0.4-1.5-1.5-1.5c-0.7,0-1.3,0.4-1.7,0.7l-0.3-0.7
			c0.5-0.5,1.3-0.8,2.2-0.8c1.7,0,2.4,1.2,2.4,2.3c0,1.4-1,2.6-2.7,4.2l-0.6,0.6v0h3.5v0.9H1002.5z"/>
		<path class="st3" d="M1008.1,194.6l3.3-8.7h0.8l-3.4,8.7H1008.1z"/>
		<path class="st3" d="M1015,187.3L1015,187.3l-1.4,0.7l-0.2-0.8l1.7-0.9h0.9v7.8h-1V187.3z"/>
		<path class="st3" d="M1021.2,187.3L1021.2,187.3l-1.4,0.7l-0.2-0.8l1.7-0.9h0.9v7.8h-1V187.3z"/>
		<path class="st3" d="M875.9,204.7h-3.1v2.9h3.5v0.9h-4.5v-8.1h4.4v0.9h-3.3v2.6h3.1V204.7z"/>
		<path class="st3" d="M877.6,204.3c0-0.6,0-1.1,0-1.6h0.9l0,0.9h0c0.3-0.6,0.9-1.1,1.8-1.1c0.8,0,1.4,0.5,1.6,1.2h0
			c0.2-0.3,0.4-0.6,0.6-0.8c0.3-0.3,0.7-0.4,1.3-0.4c0.8,0,1.9,0.5,1.9,2.5v3.4h-1v-3.3c0-1.1-0.4-1.8-1.3-1.8c-0.6,0-1.1,0.4-1.2,1
			c0,0.1-0.1,0.3-0.1,0.5v3.6h-1V205c0-0.9-0.4-1.6-1.2-1.6c-0.7,0-1.1,0.5-1.3,1.1c-0.1,0.2-0.1,0.3-0.1,0.5v3.5h-1V204.3z"/>
		<path class="st3" d="M887.5,208.5c0-0.4,0-1,0-1.5v-7h1v3.6h0c0.4-0.6,1-1.1,2-1.1c1.4,0,2.5,1.2,2.4,3c0,2.1-1.3,3.1-2.6,3.1
			c-0.8,0-1.5-0.3-1.9-1.1h0l0,1H887.5z M888.6,206.2c0,0.1,0,0.3,0,0.4c0.2,0.7,0.8,1.2,1.6,1.2c1.1,0,1.8-0.9,1.8-2.2
			c0-1.2-0.6-2.2-1.7-2.2c-0.7,0-1.4,0.5-1.6,1.3c0,0.1-0.1,0.3-0.1,0.4V206.2z"/>
		<path class="st3" d="M897.6,208.5l-0.1-0.7h0c-0.3,0.5-0.9,0.9-1.8,0.9c-1.2,0-1.8-0.8-1.8-1.7c0-1.4,1.2-2.2,3.5-2.2v-0.1
			c0-0.5-0.1-1.3-1.3-1.3c-0.5,0-1.1,0.2-1.5,0.4l-0.2-0.7c0.5-0.3,1.2-0.5,1.9-0.5c1.8,0,2.2,1.2,2.2,2.4v2.2c0,0.5,0,1,0.1,1.4
			H897.6z M897.5,205.6c-1.2,0-2.5,0.2-2.5,1.3c0,0.7,0.5,1,1,1c0.8,0,1.2-0.5,1.4-1c0-0.1,0.1-0.2,0.1-0.3V205.6z"/>
		<path class="st3" d="M900.2,204.5c0-0.7,0-1.3,0-1.8h0.9l0,1.1h0c0.3-0.8,0.9-1.3,1.6-1.3c0.1,0,0.2,0,0.3,0v1c-0.1,0-0.2,0-0.4,0
			c-0.7,0-1.3,0.6-1.4,1.4c0,0.1,0,0.3,0,0.5v3.1h-1V204.5z"/>
		<path class="st3" d="M907.3,208.5l-0.1-0.7h0c-0.3,0.5-0.9,0.9-1.8,0.9c-1.2,0-1.8-0.8-1.8-1.7c0-1.4,1.2-2.2,3.5-2.2v-0.1
			c0-0.5-0.1-1.3-1.3-1.3c-0.5,0-1.1,0.2-1.5,0.4l-0.2-0.7c0.5-0.3,1.2-0.5,1.9-0.5c1.8,0,2.2,1.2,2.2,2.4v2.2c0,0.5,0,1,0.1,1.4
			H907.3z M907.1,205.6c-1.2,0-2.5,0.2-2.5,1.3c0,0.7,0.5,1,1,1c0.8,0,1.2-0.5,1.4-1c0-0.1,0.1-0.2,0.1-0.3V205.6z"/>
		<path class="st3" d="M909.2,207.9l2.6-3.4c0.3-0.3,0.5-0.6,0.8-0.9v0h-3.1v-0.9h4.4l0,0.7l-2.6,3.4c-0.2,0.3-0.5,0.6-0.7,0.9v0
			h3.4v0.8h-4.7V207.9z"/>
		<path class="st3" d="M920.2,205.6c0,2.1-1.5,3.1-2.9,3.1c-1.6,0-2.8-1.2-2.8-3c0-1.9,1.3-3.1,2.9-3.1
			C919,202.6,920.2,203.8,920.2,205.6z M915.6,205.6c0,1.3,0.7,2.2,1.8,2.2c1,0,1.8-0.9,1.8-2.3c0-1-0.5-2.2-1.7-2.2
			S915.6,204.5,915.6,205.6z"/>
		<path class="st3" d="M926.5,204.9v0.8h-3v-0.8H926.5z"/>
		<path class="st3" d="M930.3,204.6c0-0.7,0-1.3,0-1.9h0.9l0,1h0c0.4-0.7,1.1-1.1,2.1-1.1c1.4,0,2.5,1.2,2.5,3
			c0,2.1-1.3,3.1-2.6,3.1c-0.8,0-1.4-0.3-1.8-0.9h0v3.2h-1V204.6z M931.3,206.2c0,0.2,0,0.3,0,0.4c0.2,0.7,0.8,1.2,1.6,1.2
			c1.1,0,1.8-0.9,1.8-2.2c0-1.2-0.6-2.2-1.7-2.2c-0.7,0-1.4,0.5-1.6,1.3c0,0.1-0.1,0.3-0.1,0.4V206.2z"/>
		<path class="st3" d="M937.7,205.8c0,1.4,0.9,2,2,2c0.8,0,1.2-0.1,1.6-0.3l0.2,0.8c-0.4,0.2-1,0.4-1.9,0.4c-1.8,0-2.9-1.2-2.9-2.9
			s1-3.1,2.7-3.1c1.9,0,2.4,1.7,2.4,2.7c0,0.2,0,0.4,0,0.5H937.7z M940.8,205.1c0-0.7-0.3-1.7-1.5-1.7c-1.1,0-1.5,1-1.6,1.7H940.8z"
			/>
		<path class="st3" d="M943.1,204.5c0-0.7,0-1.3,0-1.8h0.9l0,1.1h0c0.3-0.8,0.9-1.3,1.6-1.3c0.1,0,0.2,0,0.3,0v1c-0.1,0-0.2,0-0.4,0
			c-0.7,0-1.3,0.6-1.4,1.4c0,0.1,0,0.3,0,0.5v3.1h-1V204.5z"/>
		<path class="st3" d="M948.3,201.1c0,0.4-0.3,0.6-0.7,0.6c-0.4,0-0.6-0.3-0.6-0.6c0-0.4,0.3-0.7,0.7-0.7
			C948,200.4,948.3,200.7,948.3,201.1z M947.1,208.5v-5.8h1.1v5.8H947.1z"/>
		<path class="st3" d="M955.1,205.6c0,2.1-1.5,3.1-2.9,3.1c-1.6,0-2.8-1.2-2.8-3c0-1.9,1.3-3.1,2.9-3.1
			C954,202.6,955.1,203.8,955.1,205.6z M950.5,205.6c0,1.3,0.7,2.2,1.8,2.2c1,0,1.8-0.9,1.8-2.3c0-1-0.5-2.2-1.7-2.2
			C951.1,203.4,950.5,204.5,950.5,205.6z"/>
		<path class="st3" d="M961.5,200v7c0,0.5,0,1.1,0,1.5h-0.9l0-1h0c-0.3,0.6-1,1.1-2,1.1c-1.4,0-2.5-1.2-2.5-3c0-1.9,1.2-3.1,2.6-3.1
			c0.9,0,1.5,0.4,1.8,0.9h0V200H961.5z M960.4,205.1c0-0.1,0-0.3,0-0.4c-0.2-0.7-0.7-1.2-1.5-1.2c-1.1,0-1.7,1-1.7,2.2
			c0,1.2,0.6,2.1,1.7,2.1c0.7,0,1.4-0.5,1.5-1.3c0-0.1,0-0.3,0-0.5V205.1z"/>
		<path class="st3" d="M968.5,205.6c0,2.1-1.5,3.1-2.9,3.1c-1.6,0-2.8-1.2-2.8-3c0-1.9,1.3-3.1,2.9-3.1
			C967.4,202.6,968.5,203.8,968.5,205.6z M963.9,205.6c0,1.3,0.7,2.2,1.8,2.2c1,0,1.8-0.9,1.8-2.3c0-1-0.5-2.2-1.7-2.2
			C964.4,203.4,963.9,204.5,963.9,205.6z"/>
		<path class="st3" d="M977.4,200v7c0,0.5,0,1.1,0,1.5h-0.9l0-1h0c-0.3,0.6-1,1.1-2,1.1c-1.4,0-2.5-1.2-2.5-3c0-1.9,1.2-3.1,2.6-3.1
			c0.9,0,1.5,0.4,1.8,0.9h0V200H977.4z M976.3,205.1c0-0.1,0-0.3,0-0.4c-0.2-0.7-0.7-1.2-1.5-1.2c-1.1,0-1.7,1-1.7,2.2
			c0,1.2,0.6,2.1,1.7,2.1c0.7,0,1.4-0.5,1.5-1.3c0-0.1,0-0.3,0-0.5V205.1z"/>
		<path class="st3" d="M979.7,205.8c0,1.4,0.9,2,2,2c0.8,0,1.2-0.1,1.6-0.3l0.2,0.8c-0.4,0.2-1,0.4-1.9,0.4c-1.8,0-2.9-1.2-2.9-2.9
			s1-3.1,2.7-3.1c1.9,0,2.4,1.7,2.4,2.7c0,0.2,0,0.4,0,0.5H979.7z M982.8,205.1c0-0.7-0.3-1.7-1.5-1.7c-1.1,0-1.5,1-1.6,1.7H982.8z"
			/>
		<path class="st3" d="M987.7,200h1.1v8.5h-1.1V200z"/>
		<path class="st3" d="M993.7,208.5l-0.1-0.7h0c-0.3,0.5-0.9,0.9-1.8,0.9c-1.2,0-1.8-0.8-1.8-1.7c0-1.4,1.2-2.2,3.5-2.2v-0.1
			c0-0.5-0.1-1.3-1.3-1.3c-0.5,0-1.1,0.2-1.5,0.4l-0.2-0.7c0.5-0.3,1.2-0.5,1.9-0.5c1.8,0,2.2,1.2,2.2,2.4v2.2c0,0.5,0,1,0.1,1.4
			H993.7z M993.6,205.6c-1.2,0-2.5,0.2-2.5,1.3c0,0.7,0.5,1,1,1c0.8,0,1.2-0.5,1.4-1c0-0.1,0.1-0.2,0.1-0.3V205.6z"/>
		<path class="st3" d="M1000.4,208.3c-0.3,0.1-0.9,0.3-1.7,0.3c-1.8,0-2.9-1.2-2.9-3c0-1.8,1.2-3.1,3.1-3.1c0.6,0,1.2,0.2,1.5,0.3
			l-0.2,0.8c-0.3-0.1-0.6-0.3-1.2-0.3c-1.3,0-2.1,1-2.1,2.2c0,1.3,0.9,2.2,2,2.2c0.6,0,1-0.2,1.3-0.3L1000.4,208.3z"/>
		<path class="st3" d="M1003.1,201.1v1.7h1.5v0.8h-1.5v3.1c0,0.7,0.2,1.1,0.8,1.1c0.3,0,0.5,0,0.6-0.1l0,0.8
			c-0.2,0.1-0.5,0.1-0.9,0.1c-0.5,0-0.9-0.2-1.1-0.4c-0.3-0.3-0.4-0.8-0.4-1.5v-3.2h-0.9v-0.8h0.9v-1.4L1003.1,201.1z"/>
		<path class="st3" d="M1009,208.5l-0.1-0.7h0c-0.3,0.5-0.9,0.9-1.8,0.9c-1.2,0-1.8-0.8-1.8-1.7c0-1.4,1.2-2.2,3.5-2.2v-0.1
			c0-0.5-0.1-1.3-1.3-1.3c-0.5,0-1.1,0.2-1.5,0.4l-0.2-0.7c0.5-0.3,1.2-0.5,1.9-0.5c1.8,0,2.2,1.2,2.2,2.4v2.2c0,0.5,0,1,0.1,1.4
			H1009z M1008.9,205.6c-1.2,0-2.5,0.2-2.5,1.3c0,0.7,0.5,1,1,1c0.8,0,1.2-0.5,1.4-1c0-0.1,0.1-0.2,0.1-0.3V205.6z"/>
		<path class="st3" d="M1011.6,204.3c0-0.6,0-1.1,0-1.6h0.9l0.1,1h0c0.3-0.6,1-1.1,1.9-1.1c0.8,0,2.1,0.5,2.1,2.5v3.5h-1.1v-3.3
			c0-0.9-0.3-1.7-1.3-1.7c-0.7,0-1.2,0.5-1.4,1.1c0,0.1-0.1,0.3-0.1,0.5v3.5h-1.1V204.3z"/>
		<path class="st3" d="M1022.4,208.3c-0.3,0.1-0.9,0.3-1.7,0.3c-1.8,0-2.9-1.2-2.9-3c0-1.8,1.2-3.1,3.1-3.1c0.6,0,1.2,0.2,1.5,0.3
			l-0.2,0.8c-0.3-0.1-0.6-0.3-1.2-0.3c-1.3,0-2.1,1-2.1,2.2c0,1.3,0.9,2.2,2,2.2c0.6,0,1-0.2,1.3-0.3L1022.4,208.3z"/>
		<path class="st3" d="M1024.8,201.1c0,0.4-0.3,0.6-0.7,0.6c-0.4,0-0.6-0.3-0.6-0.6c0-0.4,0.3-0.7,0.7-0.7
			C1024.6,200.4,1024.8,200.7,1024.8,201.1z M1023.6,208.5v-5.8h1.1v5.8H1023.6z"/>
		<path class="st3" d="M1029.7,208.5l-0.1-0.7h0c-0.3,0.5-0.9,0.9-1.8,0.9c-1.2,0-1.8-0.8-1.8-1.7c0-1.4,1.2-2.2,3.5-2.2v-0.1
			c0-0.5-0.1-1.3-1.3-1.3c-0.5,0-1.1,0.2-1.5,0.4l-0.2-0.7c0.5-0.3,1.2-0.5,1.9-0.5c1.8,0,2.2,1.2,2.2,2.4v2.2c0,0.5,0,1,0.1,1.4
			H1029.7z M1029.5,205.6c-1.2,0-2.5,0.2-2.5,1.3c0,0.7,0.5,1,1,1c0.8,0,1.2-0.5,1.4-1c0-0.1,0.1-0.2,0.1-0.3V205.6z"/>
	</g>
	<g>
		<path class="st3" d="M951.4,103h-16.8c-1.2,0-2.2-1-2.2-2.2l0,0V73.2c0-1.2,1-2.2,2.2-2.2l0,0h18v5.7c0,0.6,0.4,1,1,1
			c0.3,0,2.8,0,4.9,0v17.9h0.2c0.5,0,1,0.1,1.5,0.2V76.2v-0.1l-6.3-6.7l-0.1-0.1h-19.2c-2.2,0-3.9,1.7-3.9,3.9v27.6
			c0,2.2,1.7,3.9,3.9,3.9h17C951.5,104.1,951.4,103.5,951.4,103L951.4,103z M957.3,75.7h-2.6v-2.9L957.3,75.7z"/>
		<path class="st3" d="M958.8,97.3c-3.1,0-5.7,2.6-5.7,5.7c0,3.1,2.6,5.7,5.7,5.7c3.1,0,5.7-2.6,5.7-5.7
			C964.5,99.9,961.9,97.3,958.8,97.3L958.8,97.3z M958.5,106.5L958.5,106.5l-3.3-4.1l1.2-1l2.1,2.1l3.9-3.4l1,1L958.5,106.5z"/>
		<path class="st3" d="M953.3,82h-15.5c-0.5,0-0.9,0.4-0.9,0.9s0.4,0.9,0.9,0.9h15.5c0.5,0,0.9-0.4,0.9-0.9S953.8,82,953.3,82z"/>
		<path class="st3" d="M953.3,85.7h-15.5c-0.5,0-0.9,0.4-0.9,0.9s0.4,0.9,0.9,0.9h15.5c0.5,0,0.9-0.4,0.9-0.9S953.8,85.7,953.3,85.7
			z"/>
		<path class="st3" d="M953.3,89.3h-15.5c-0.5,0-0.9,0.4-0.9,0.9s0.4,0.9,0.9,0.9h15.5c0.5,0,0.9-0.4,0.9-0.9S953.8,89.3,953.3,89.3
			z"/>
		<path class="st3" d="M953.3,93h-15.5c-0.5,0-0.9,0.4-0.9,0.9s0.4,0.9,0.9,0.9h15.5c0.5,0,0.9-0.4,0.9-0.9S953.8,93,953.3,93z"/>
	</g>
</g>
<path class="st2" d="M706.9,256H502.4c-13.1,0-23.8-10.7-23.8-23.8V66c0-13.1,10.7-23.8,23.8-23.8h204.5c13.1,0,23.8,10.7,23.8,23.8
	v166.2C730.7,245.3,720,256,706.9,256z"/>
<text transform="matrix(1 0 0 1 533.8012 142.3134)"><tspan x="0" y="0" class="st3" style="font-family:'Arial-BoldMT'; font-size:19.0259px;">POSTULANTES</tspan><tspan x="14.3" y="19" class="st3" style="font-family:'Arial-BoldMT'; font-size:19.0259px;">FEMENINOS</tspan></text>
<rect x="501.3" y="185.6" style="fill:none;" width="206.7" height="31.1"/>
<text transform="matrix(1 0 0 1 531.2871 194.1218)"><tspan x="0" y="0" class="st3" style="font-family:'MyriadPro-Regular'; font-size:12px;">Resolucin Ministerial 472/11</tspan><tspan x="-6.9" y="14.4" class="st3" style="font-family:'MyriadPro-Regular'; font-size:12px;">Embarazo - periodo de lactancia</tspan></text>
<g>
	<path class="st3" d="M604.9,103h-16.8c-1.2,0-2.2-1-2.2-2.2l0,0V73.2c0-1.2,1-2.2,2.2-2.2l0,0h18v5.7c0,0.6,0.4,1,1,1
		c0.3,0,2.8,0,4.9,0v17.9h0.2c0.5,0,1,0.1,1.5,0.2V76.2v-0.1l-6.3-6.7l-0.1-0.1h-19.2c-2.2,0-3.9,1.7-3.9,3.9v27.6
		c0,2.2,1.7,3.9,3.9,3.9h17C605,104.1,604.9,103.5,604.9,103L604.9,103z M610.8,75.7h-2.6v-2.9L610.8,75.7z"/>
	<path class="st3" d="M612.3,97.3c-3.1,0-5.7,2.6-5.7,5.7c0,3.1,2.6,5.7,5.7,5.7c3.1,0,5.7-2.6,5.7-5.7
		C618,99.9,615.4,97.3,612.3,97.3L612.3,97.3z M612,106.5L612,106.5l-3.3-4.1l1.2-1l2.1,2.1l3.9-3.4l1,1L612,106.5z"/>
	<path class="st3" d="M606.8,82h-15.5c-0.5,0-0.9,0.4-0.9,0.9s0.4,0.9,0.9,0.9h15.5c0.5,0,0.9-0.4,0.9-0.9S607.3,82,606.8,82z"/>
	<path class="st3" d="M606.8,85.7h-15.5c-0.5,0-0.9,0.4-0.9,0.9s0.4,0.9,0.9,0.9h15.5c0.5,0,0.9-0.4,0.9-0.9S607.3,85.7,606.8,85.7z
		"/>
	<path class="st3" d="M606.8,89.3h-15.5c-0.5,0-0.9,0.4-0.9,0.9s0.4,0.9,0.9,0.9h15.5c0.5,0,0.9-0.4,0.9-0.9S607.3,89.3,606.8,89.3z
		"/>
	<path class="st3" d="M606.8,93h-15.5c-0.5,0-0.9,0.4-0.9,0.9s0.4,0.9,0.9,0.9h15.5c0.5,0,0.9-0.4,0.9-0.9S607.3,93,606.8,93z"/>
</g>
<path class="st0" d="M251.4,256H46.8C33.7,256,23,245.3,23,232.2V66c0-13.1,10.7-23.8,23.8-23.8h204.5c13.1,0,23.8,10.7,23.8,23.8
	v166.2C275.2,245.3,264.5,256,251.4,256z"/>
<g>
	<path class="st1" d="M103.2,137.3l2.7,0.8c-0.4,1.5-1.1,2.6-2,3.3c-1,0.7-2.2,1.1-3.6,1.1c-1.8,0-3.3-0.6-4.5-1.9s-1.7-2.9-1.7-5.1
		c0-2.3,0.6-4,1.8-5.3c1.2-1.3,2.7-1.9,4.6-1.9c1.7,0,3,0.5,4.1,1.5c0.6,0.6,1.1,1.4,1.4,2.5l-2.7,0.7c-0.2-0.7-0.5-1.3-1-1.7
		c-0.5-0.4-1.1-0.6-1.9-0.6c-1,0-1.8,0.4-2.5,1.1c-0.6,0.7-0.9,1.9-0.9,3.5c0,1.7,0.3,2.9,0.9,3.7c0.6,0.7,1.4,1.1,2.4,1.1
		c0.7,0,1.4-0.2,1.9-0.7S102.9,138.3,103.2,137.3z"/>
	<path class="st1" d="M120.5,142.3h-3l-1.2-3.1h-5.4l-1.1,3.1h-2.9l5.3-13.6h2.9L120.5,142.3z M115.4,136.9l-1.9-5.1l-1.8,5.1H115.4
		z"/>
	<path class="st1" d="M121.9,128.7h2.8v7.4c0,1.2,0,1.9,0.1,2.3c0.1,0.6,0.4,1,0.8,1.3c0.4,0.3,1,0.5,1.8,0.5c0.8,0,1.4-0.2,1.8-0.5
		c0.4-0.3,0.6-0.7,0.7-1.2c0.1-0.5,0.1-1.2,0.1-2.3v-7.5h2.8v7.2c0,1.6-0.1,2.8-0.2,3.5c-0.1,0.7-0.4,1.2-0.8,1.7
		c-0.4,0.5-0.9,0.8-1.6,1.1s-1.5,0.4-2.6,0.4c-1.3,0-2.3-0.2-3-0.5s-1.2-0.7-1.6-1.2c-0.4-0.5-0.6-1-0.8-1.5
		c-0.2-0.8-0.3-1.9-0.3-3.5V128.7z"/>
	<path class="st1" d="M135,137.9l2.7-0.3c0.2,0.9,0.5,1.6,1,2c0.5,0.4,1.2,0.6,2,0.6c0.9,0,1.6-0.2,2-0.6c0.4-0.4,0.7-0.8,0.7-1.3
		c0-0.3-0.1-0.6-0.3-0.8c-0.2-0.2-0.5-0.4-1-0.6c-0.3-0.1-1.1-0.3-2.2-0.6c-1.5-0.4-2.5-0.8-3.1-1.3c-0.8-0.7-1.3-1.7-1.3-2.7
		c0-0.7,0.2-1.3,0.6-1.9s1-1.1,1.7-1.4s1.6-0.5,2.7-0.5c1.7,0,3,0.4,3.9,1.1c0.9,0.7,1.3,1.7,1.4,3l-2.8,0.1
		c-0.1-0.7-0.4-1.2-0.8-1.5c-0.4-0.3-1-0.5-1.7-0.5c-0.8,0-1.4,0.2-1.9,0.5c-0.3,0.2-0.4,0.5-0.4,0.8c0,0.3,0.1,0.6,0.4,0.8
		c0.3,0.3,1.2,0.6,2.5,0.9c1.3,0.3,2.3,0.6,3,1c0.6,0.3,1.1,0.8,1.5,1.4c0.4,0.6,0.5,1.3,0.5,2.2c0,0.8-0.2,1.5-0.7,2.2
		c-0.4,0.7-1,1.2-1.8,1.5c-0.8,0.3-1.8,0.5-3,0.5c-1.7,0-3-0.4-4-1.2S135.2,139.4,135,137.9z"/>
	<path class="st1" d="M160.6,142.3h-3l-1.2-3.1H151l-1.1,3.1H147l5.3-13.6h2.9L160.6,142.3z M155.6,136.9l-1.9-5.1l-1.8,5.1H155.6z"
		/>
	<path class="st1" d="M161.4,137.9l2.7-0.3c0.2,0.9,0.5,1.6,1,2c0.5,0.4,1.2,0.6,2,0.6c0.9,0,1.6-0.2,2-0.6c0.4-0.4,0.7-0.8,0.7-1.3
		c0-0.3-0.1-0.6-0.3-0.8c-0.2-0.2-0.5-0.4-1-0.6c-0.3-0.1-1.1-0.3-2.2-0.6c-1.5-0.4-2.5-0.8-3.1-1.3c-0.8-0.7-1.3-1.7-1.3-2.7
		c0-0.7,0.2-1.3,0.6-1.9s1-1.1,1.7-1.4s1.6-0.5,2.7-0.5c1.7,0,3,0.4,3.9,1.1c0.9,0.7,1.3,1.7,1.4,3l-2.8,0.1
		c-0.1-0.7-0.4-1.2-0.8-1.5c-0.4-0.3-1-0.5-1.7-0.5c-0.8,0-1.4,0.2-1.9,0.5c-0.3,0.2-0.4,0.5-0.4,0.8c0,0.3,0.1,0.6,0.4,0.8
		c0.3,0.3,1.2,0.6,2.5,0.9c1.3,0.3,2.3,0.6,3,1c0.6,0.3,1.1,0.8,1.5,1.4c0.4,0.6,0.5,1.3,0.5,2.2c0,0.8-0.2,1.5-0.7,2.2
		c-0.4,0.7-1,1.2-1.8,1.5c-0.8,0.3-1.8,0.5-3,0.5c-1.7,0-3-0.4-4-1.2S161.6,139.4,161.4,137.9z"/>
	<path class="st1" d="M180.1,128.7h5c1.1,0,2,0.1,2.6,0.3c0.8,0.2,1.5,0.7,2.1,1.3c0.6,0.6,1,1.3,1.3,2.2c0.3,0.9,0.4,1.9,0.4,3.2
		c0,1.1-0.1,2.1-0.4,2.9c-0.3,1-0.8,1.8-1.5,2.4c-0.5,0.5-1.1,0.8-1.9,1.1c-0.6,0.2-1.4,0.3-2.4,0.3h-5.2V128.7z M182.8,131v9h2.1
		c0.8,0,1.3,0,1.7-0.1c0.4-0.1,0.8-0.3,1.1-0.6c0.3-0.3,0.5-0.7,0.7-1.3c0.2-0.6,0.3-1.4,0.3-2.5c0-1.1-0.1-1.9-0.3-2.4
		c-0.2-0.6-0.4-1-0.8-1.3c-0.3-0.3-0.8-0.5-1.3-0.6c-0.4-0.1-1.1-0.1-2.3-0.1H182.8z"/>
	<path class="st1" d="M193.8,142.3v-13.6h10.1v2.3h-7.3v3h6.8v2.3h-6.8v3.7h7.6v2.3H193.8z"/>
	<path class="st1" d="M86.4,161.3v-13.6h2.7l5.6,9.1v-9.1h2.6v13.6h-2.8l-5.5-8.9v8.9H86.4z"/>
	<path class="st1" d="M99.5,154.6c0-1.4,0.2-2.6,0.6-3.5c0.3-0.7,0.7-1.3,1.3-1.9c0.5-0.6,1.1-1,1.8-1.2c0.8-0.4,1.8-0.5,2.9-0.5
		c2,0,3.6,0.6,4.8,1.9c1.2,1.2,1.8,3,1.8,5.2c0,2.2-0.6,3.9-1.8,5.2c-1.2,1.2-2.8,1.9-4.8,1.9c-2,0-3.6-0.6-4.8-1.9
		S99.5,156.8,99.5,154.6z M102.4,154.5c0,1.5,0.4,2.7,1.1,3.5s1.6,1.2,2.7,1.2c1.1,0,2-0.4,2.7-1.2c0.7-0.8,1.1-2,1.1-3.6
		c0-1.6-0.3-2.7-1-3.5c-0.7-0.8-1.6-1.2-2.7-1.2c-1.1,0-2,0.4-2.7,1.2C102.7,151.8,102.4,152.9,102.4,154.5z"/>
	<path class="st1" d="M131.8,161.3h-3l-1.2-3.1h-5.4l-1.1,3.1h-2.9l5.3-13.6h2.9L131.8,161.3z M126.7,155.9l-1.9-5.1l-1.8,5.1H126.7
		z"/>
	<path class="st1" d="M133.2,147.7h5c1.1,0,2,0.1,2.6,0.3c0.8,0.2,1.5,0.7,2.1,1.3c0.6,0.6,1,1.3,1.3,2.2c0.3,0.9,0.4,1.9,0.4,3.2
		c0,1.1-0.1,2.1-0.4,2.9c-0.3,1-0.8,1.8-1.5,2.4c-0.5,0.5-1.1,0.8-1.9,1.1c-0.6,0.2-1.4,0.3-2.4,0.3h-5.2V147.7z M136,150v9h2.1
		c0.8,0,1.3,0,1.7-0.1c0.4-0.1,0.8-0.3,1.1-0.6c0.3-0.3,0.5-0.7,0.7-1.3c0.2-0.6,0.3-1.4,0.3-2.5c0-1.1-0.1-1.9-0.3-2.4
		s-0.4-1-0.8-1.3c-0.3-0.3-0.8-0.5-1.3-0.6c-0.4-0.1-1.1-0.1-2.3-0.1H136z"/>
	<path class="st1" d="M146.9,161.3v-13.6h4.1l2.5,9.3l2.4-9.3h4.1v13.6h-2.6v-10.7l-2.7,10.7h-2.6l-2.7-10.7v10.7H146.9z"/>
	<path class="st1" d="M162.7,161.3v-13.6h2.8v13.6H162.7z"/>
	<path class="st1" d="M167.4,156.9l2.7-0.3c0.2,0.9,0.5,1.6,1,2c0.5,0.4,1.2,0.6,2,0.6c0.9,0,1.6-0.2,2-0.6c0.4-0.4,0.7-0.8,0.7-1.3
		c0-0.3-0.1-0.6-0.3-0.8c-0.2-0.2-0.5-0.4-1-0.6c-0.3-0.1-1.1-0.3-2.2-0.6c-1.5-0.4-2.5-0.8-3.1-1.3c-0.8-0.7-1.3-1.7-1.3-2.7
		c0-0.7,0.2-1.3,0.6-1.9c0.4-0.6,1-1.1,1.7-1.4s1.6-0.5,2.7-0.5c1.7,0,3,0.4,3.9,1.1c0.9,0.7,1.3,1.7,1.4,3l-2.8,0.1
		c-0.1-0.7-0.4-1.2-0.8-1.5c-0.4-0.3-1-0.5-1.7-0.5c-0.8,0-1.4,0.2-1.9,0.5c-0.3,0.2-0.4,0.5-0.4,0.8c0,0.3,0.1,0.6,0.4,0.8
		c0.3,0.3,1.2,0.6,2.5,0.9c1.3,0.3,2.3,0.6,3,1c0.6,0.3,1.1,0.8,1.5,1.4c0.4,0.6,0.5,1.3,0.5,2.2c0,0.8-0.2,1.5-0.7,2.2
		c-0.4,0.7-1,1.2-1.8,1.5c-0.8,0.3-1.8,0.5-3,0.5c-1.7,0-3-0.4-4-1.2S167.6,158.4,167.4,156.9z"/>
	<path class="st1" d="M180.7,161.3v-13.6h2.8v13.6H180.7z"/>
	<path class="st1" d="M185.5,154.6c0-1.4,0.2-2.6,0.6-3.5c0.3-0.7,0.7-1.3,1.3-1.9c0.5-0.6,1.1-1,1.8-1.2c0.8-0.4,1.8-0.5,2.9-0.5
		c2,0,3.6,0.6,4.8,1.9c1.2,1.2,1.8,3,1.8,5.2c0,2.2-0.6,3.9-1.8,5.2c-1.2,1.2-2.8,1.9-4.8,1.9c-2,0-3.6-0.6-4.8-1.9
		S185.5,156.8,185.5,154.6z M188.3,154.5c0,1.5,0.4,2.7,1.1,3.5s1.6,1.2,2.7,1.2c1.1,0,2-0.4,2.7-1.2c0.7-0.8,1.1-2,1.1-3.6
		c0-1.6-0.3-2.7-1-3.5c-0.7-0.8-1.6-1.2-2.7-1.2c-1.1,0-2,0.4-2.7,1.2C188.7,151.8,188.3,152.9,188.3,154.5z M190.4,146.9l1.3-2.8
		h2.9l-2.6,2.8H190.4z"/>
	<path class="st1" d="M200.9,161.3v-13.6h2.7l5.6,9.1v-9.1h2.6v13.6h-2.8l-5.5-8.9v8.9H200.9z"/>
</g>
<g>
	<path class="st1" d="M54.8,186.1H56v8.4h4v1h-5.3V186.1z"/>
	<path class="st1" d="M61.8,192.4c0,1.7,1.1,2.4,2.3,2.4c0.9,0,1.4-0.2,1.9-0.3l0.2,0.9c-0.4,0.2-1.2,0.4-2.3,0.4
		c-2.1,0-3.3-1.4-3.3-3.4s1.2-3.7,3.2-3.7c2.2,0,2.8,1.9,2.8,3.2c0,0.3,0,0.4,0,0.6H61.8z M65.4,191.5c0-0.8-0.3-2-1.7-2
		c-1.2,0-1.8,1.1-1.9,2H65.4z"/>
	<path class="st1" d="M71.9,195.5l-0.1-0.9h0c-0.4,0.5-1.1,1-2.1,1c-1.4,0-2.1-1-2.1-1.9c0-1.6,1.5-2.5,4.1-2.5v-0.1
		c0-0.6-0.2-1.6-1.5-1.6c-0.6,0-1.3,0.2-1.8,0.5l-0.3-0.8c0.6-0.4,1.4-0.6,2.2-0.6c2.1,0,2.6,1.4,2.6,2.8v2.5c0,0.6,0,1.2,0.1,1.6
		H71.9z M71.7,192.1c-1.3,0-2.9,0.2-2.9,1.5c0,0.8,0.5,1.2,1.2,1.2c0.9,0,1.4-0.6,1.6-1.1c0-0.1,0.1-0.3,0.1-0.4V192.1z"/>
	<path class="st1" d="M81.6,195.5l-0.1-0.9h0c-0.4,0.5-1.1,1-2.1,1c-1.4,0-2.1-1-2.1-1.9c0-1.6,1.5-2.5,4.1-2.5v-0.1
		c0-0.6-0.2-1.6-1.5-1.6c-0.6,0-1.3,0.2-1.8,0.5l-0.3-0.8c0.6-0.4,1.4-0.6,2.2-0.6c2.1,0,2.6,1.4,2.6,2.8v2.5c0,0.6,0,1.2,0.1,1.6
		H81.6z M81.4,192.1c-1.3,0-2.9,0.2-2.9,1.5c0,0.8,0.5,1.2,1.2,1.2c0.9,0,1.4-0.6,1.6-1.1c0-0.1,0.1-0.3,0.1-0.4V192.1z"/>
	<path class="st1" d="M86,186.8v1.9h1.8v0.9H86v3.7c0,0.8,0.2,1.3,0.9,1.3c0.3,0,0.6,0,0.7-0.1l0.1,0.9c-0.2,0.1-0.6,0.2-1.1,0.2
		c-0.6,0-1-0.2-1.3-0.5c-0.4-0.4-0.5-1-0.5-1.8v-3.7h-1.1v-0.9h1.1v-1.6L86,186.8z"/>
	<path class="st1" d="M89.8,192.4c0,1.7,1.1,2.4,2.3,2.4c0.9,0,1.4-0.2,1.9-0.3l0.2,0.9c-0.4,0.2-1.2,0.4-2.3,0.4
		c-2.1,0-3.3-1.4-3.3-3.4s1.2-3.7,3.2-3.7c2.2,0,2.8,1.9,2.8,3.2c0,0.3,0,0.4,0,0.6H89.8z M93.4,191.5c0-0.8-0.3-2-1.7-2
		c-1.2,0-1.8,1.1-1.9,2H93.4z"/>
	<path class="st1" d="M96.1,190.6c0-0.7,0-1.3-0.1-1.8h1.1l0.1,1.1h0c0.3-0.6,1.1-1.3,2.2-1.3c0.9,0,2.4,0.6,2.4,2.9v4h-1.2v-3.9
		c0-1.1-0.4-2-1.6-2c-0.8,0-1.4,0.6-1.7,1.3c-0.1,0.2-0.1,0.4-0.1,0.6v4.1h-1.2V190.6z"/>
	<path class="st1" d="M105.3,186.8v1.9h1.8v0.9h-1.8v3.7c0,0.8,0.2,1.3,0.9,1.3c0.3,0,0.6,0,0.7-0.1l0.1,0.9
		c-0.2,0.1-0.6,0.2-1.1,0.2c-0.6,0-1-0.2-1.3-0.5c-0.3-0.4-0.5-1-0.5-1.8v-3.7h-1.1v-0.9h1.1v-1.6L105.3,186.8z"/>
	<path class="st1" d="M112.2,195.5l-0.1-0.9h0c-0.4,0.5-1.1,1-2.1,1c-1.4,0-2.1-1-2.1-1.9c0-1.6,1.5-2.5,4.1-2.5v-0.1
		c0-0.6-0.2-1.6-1.5-1.6c-0.6,0-1.3,0.2-1.8,0.5l-0.3-0.8c0.6-0.4,1.4-0.6,2.2-0.6c2.1,0,2.6,1.4,2.6,2.8v2.5c0,0.6,0,1.2,0.1,1.6
		H112.2z M112,192.1c-1.3,0-2.9,0.2-2.9,1.5c0,0.8,0.5,1.2,1.2,1.2c0.9,0,1.4-0.6,1.6-1.1c0-0.1,0.1-0.3,0.1-0.4V192.1z"/>
	<path class="st1" d="M115.2,190.6c0-0.7,0-1.3-0.1-1.8h1.1l0.1,1.1h0c0.4-0.6,1-1.2,2.1-1.2c0.9,0,1.6,0.6,1.9,1.4h0
		c0.2-0.4,0.5-0.7,0.8-0.9c0.4-0.3,0.9-0.5,1.5-0.5c0.9,0,2.2,0.6,2.2,2.9v4h-1.2v-3.8c0-1.3-0.5-2.1-1.5-2.1
		c-0.7,0-1.2,0.5-1.5,1.1c-0.1,0.2-0.1,0.4-0.1,0.6v4.2h-1.2v-4.1c0-1.1-0.5-1.9-1.4-1.9c-0.8,0-1.3,0.6-1.5,1.2
		c-0.1,0.2-0.1,0.4-0.1,0.6v4.1h-1.2V190.6z"/>
	<path class="st1" d="M127.6,192.4c0,1.7,1.1,2.4,2.3,2.4c0.9,0,1.4-0.2,1.9-0.3l0.2,0.9c-0.4,0.2-1.2,0.4-2.3,0.4
		c-2.1,0-3.3-1.4-3.3-3.4s1.2-3.7,3.2-3.7c2.2,0,2.8,1.9,2.8,3.2c0,0.3,0,0.4,0,0.6H127.6z M131.2,191.5c0-0.8-0.3-2-1.7-2
		c-1.2,0-1.8,1.1-1.9,2H131.2z"/>
	<path class="st1" d="M133.9,190.6c0-0.7,0-1.3-0.1-1.8h1.1l0.1,1.1h0c0.3-0.6,1.1-1.3,2.2-1.3c0.9,0,2.4,0.6,2.4,2.9v4h-1.2v-3.9
		c0-1.1-0.4-2-1.6-2c-0.8,0-1.4,0.6-1.7,1.3c-0.1,0.2-0.1,0.4-0.1,0.6v4.1h-1.2V190.6z"/>
	<path class="st1" d="M143.1,186.8v1.9h1.8v0.9h-1.8v3.7c0,0.8,0.2,1.3,0.9,1.3c0.3,0,0.6,0,0.7-0.1l0.1,0.9
		c-0.2,0.1-0.6,0.2-1.1,0.2c-0.6,0-1-0.2-1.3-0.5c-0.3-0.4-0.5-1-0.5-1.8v-3.7h-1v-0.9h1v-1.6L143.1,186.8z"/>
	<path class="st1" d="M146.9,192.4c0,1.7,1.1,2.4,2.3,2.4c0.9,0,1.4-0.2,1.9-0.3l0.2,0.9c-0.4,0.2-1.2,0.4-2.3,0.4
		c-2.1,0-3.3-1.4-3.3-3.4s1.2-3.7,3.2-3.7c2.2,0,2.8,1.9,2.8,3.2c0,0.3,0,0.4,0,0.6H146.9z M150.5,191.5c0-0.8-0.3-2-1.7-2
		c-1.2,0-1.8,1.1-1.9,2H150.5z"/>
	<path class="st1" d="M156.1,185.6h1.2v9.9h-1.2V185.6z"/>
	<path class="st1" d="M163.2,195.5l-0.1-0.9h0c-0.4,0.5-1.1,1-2.1,1c-1.4,0-2.1-1-2.1-1.9c0-1.6,1.5-2.5,4.1-2.5v-0.1
		c0-0.6-0.2-1.6-1.5-1.6c-0.6,0-1.3,0.2-1.8,0.5l-0.3-0.8c0.6-0.4,1.4-0.6,2.2-0.6c2.1,0,2.6,1.4,2.6,2.8v2.5c0,0.6,0,1.2,0.1,1.6
		H163.2z M163,192.1c-1.3,0-2.9,0.2-2.9,1.5c0,0.8,0.5,1.2,1.2,1.2c0.9,0,1.4-0.6,1.6-1.1c0-0.1,0.1-0.3,0.1-0.4V192.1z"/>
	<path class="st1" d="M166,194.3c0.4,0.2,1,0.5,1.6,0.5c0.9,0,1.3-0.4,1.3-1c0-0.6-0.3-0.9-1.3-1.2c-1.2-0.4-1.8-1.1-1.8-1.9
		c0-1.1,0.9-2,2.3-2c0.7,0,1.3,0.2,1.7,0.4l-0.3,0.9c-0.3-0.2-0.8-0.4-1.4-0.4c-0.7,0-1.1,0.4-1.1,0.9c0,0.6,0.4,0.8,1.3,1.1
		c1.2,0.4,1.8,1,1.8,2c0,1.2-0.9,2-2.5,2c-0.7,0-1.4-0.2-1.9-0.5L166,194.3z"/>
	<path class="st1" d="M179.5,195.3c-0.3,0.2-1,0.4-1.9,0.4c-2,0-3.4-1.4-3.4-3.5c0-2.1,1.4-3.6,3.6-3.6c0.7,0,1.4,0.2,1.7,0.4
		l-0.3,1c-0.3-0.2-0.8-0.3-1.4-0.3c-1.6,0-2.4,1.1-2.4,2.6c0,1.6,1,2.5,2.4,2.5c0.7,0,1.2-0.2,1.5-0.3L179.5,195.3z"/>
	<path class="st1" d="M184.7,195.5l-0.1-0.9h0c-0.4,0.5-1.1,1-2.1,1c-1.4,0-2.1-1-2.1-1.9c0-1.6,1.5-2.5,4.1-2.5v-0.1
		c0-0.6-0.2-1.6-1.5-1.6c-0.6,0-1.3,0.2-1.8,0.5l-0.3-0.8c0.6-0.4,1.4-0.6,2.2-0.6c2.1,0,2.6,1.4,2.6,2.8v2.5c0,0.6,0,1.2,0.1,1.6
		H184.7z M184.6,192.1c-1.3,0-2.9,0.2-2.9,1.5c0,0.8,0.5,1.2,1.2,1.2c0.9,0,1.4-0.6,1.6-1.1c0-0.1,0.1-0.3,0.1-0.4V192.1z"/>
	<path class="st1" d="M193.4,193.7c0,0.7,0,1.3,0.1,1.8h-1.1l-0.1-1.1h0c-0.3,0.5-1,1.3-2.2,1.3c-1.1,0-2.3-0.6-2.3-3v-4h1.2v3.8
		c0,1.3,0.4,2.2,1.5,2.2c0.8,0,1.4-0.6,1.6-1.1c0.1-0.2,0.1-0.4,0.1-0.6v-4.2h1.2V193.7z"/>
	<path class="st1" d="M195.3,194.3c0.4,0.2,1,0.5,1.6,0.5c0.9,0,1.3-0.4,1.3-1c0-0.6-0.3-0.9-1.3-1.2c-1.2-0.4-1.8-1.1-1.8-1.9
		c0-1.1,0.9-2,2.3-2c0.7,0,1.3,0.2,1.7,0.4l-0.3,0.9c-0.3-0.2-0.8-0.4-1.4-0.4c-0.7,0-1.1,0.4-1.1,0.9c0,0.6,0.4,0.8,1.3,1.1
		c1.2,0.4,1.8,1,1.8,2c0,1.2-0.9,2-2.5,2c-0.7,0-1.4-0.2-1.9-0.5L195.3,194.3z"/>
	<path class="st1" d="M204.7,195.5l-0.1-0.9h0c-0.4,0.5-1.1,1-2.1,1c-1.4,0-2.1-1-2.1-1.9c0-1.6,1.5-2.5,4.1-2.5v-0.1
		c0-0.6-0.2-1.6-1.5-1.6c-0.6,0-1.3,0.2-1.8,0.5l-0.3-0.8c0.6-0.4,1.4-0.6,2.2-0.6c2.1,0,2.6,1.4,2.6,2.8v2.5c0,0.6,0,1.2,0.1,1.6
		H204.7z M204.6,192.1c-1.3,0-2.9,0.2-2.9,1.5c0,0.8,0.5,1.2,1.2,1.2c0.9,0,1.4-0.6,1.6-1.1c0-0.1,0.1-0.3,0.1-0.4V192.1z"/>
	<path class="st1" d="M207.6,194.3c0.4,0.2,1,0.5,1.6,0.5c0.9,0,1.3-0.4,1.3-1c0-0.6-0.3-0.9-1.3-1.2c-1.2-0.4-1.8-1.1-1.8-1.9
		c0-1.1,0.9-2,2.3-2c0.7,0,1.3,0.2,1.7,0.4l-0.3,0.9c-0.3-0.2-0.8-0.4-1.4-0.4c-0.7,0-1.1,0.4-1.1,0.9c0,0.6,0.4,0.8,1.3,1.1
		c1.2,0.4,1.8,1,1.8,2c0,1.2-0.9,2-2.5,2c-0.7,0-1.4-0.2-1.9-0.5L207.6,194.3z"/>
	<path class="st1" d="M222.1,185.6v8.2c0,0.6,0,1.3,0.1,1.8h-1.1l-0.1-1.2h0c-0.4,0.8-1.2,1.3-2.3,1.3c-1.6,0-2.9-1.4-2.9-3.4
		c0-2.3,1.4-3.6,3-3.6c1,0,1.7,0.5,2,1h0v-4H222.1z M220.9,191.5c0-0.2,0-0.4-0.1-0.5c-0.2-0.8-0.9-1.4-1.8-1.4c-1.3,0-2,1.1-2,2.6
		c0,1.4,0.7,2.5,2,2.5c0.8,0,1.6-0.5,1.8-1.5c0-0.2,0.1-0.3,0.1-0.5V191.5z"/>
	<path class="st1" d="M224.8,192.4c0,1.7,1.1,2.4,2.3,2.4c0.9,0,1.4-0.2,1.9-0.3l0.2,0.9c-0.4,0.2-1.2,0.4-2.3,0.4
		c-2.1,0-3.3-1.4-3.3-3.4s1.2-3.7,3.2-3.7c2.2,0,2.8,1.9,2.8,3.2c0,0.3,0,0.4,0,0.6H224.8z M228.4,191.5c0-0.8-0.3-2-1.7-2
		c-1.2,0-1.8,1.1-1.9,2H228.4z"/>
	<path class="st1" d="M106.8,207.4c0-0.7,0-1.3-0.1-1.8h1.1l0.1,1.1h0c0.3-0.6,1.1-1.3,2.2-1.3c0.9,0,2.4,0.6,2.4,2.9v4h-1.2v-3.9
		c0-1.1-0.4-2-1.6-2c-0.8,0-1.4,0.6-1.7,1.3c-0.1,0.2-0.1,0.4-0.1,0.6v4.1h-1.2V207.4z"/>
	<path class="st1" d="M120.7,208.9c0,2.5-1.7,3.6-3.4,3.6c-1.8,0-3.2-1.3-3.2-3.5c0-2.3,1.5-3.6,3.4-3.6
		C119.4,205.4,120.7,206.8,120.7,208.9z M115.3,209c0,1.5,0.9,2.6,2.1,2.6c1.2,0,2.1-1.1,2.1-2.6c0-1.1-0.6-2.6-2-2.6
		S115.3,207.7,115.3,209z"/>
	<path class="st1" d="M129,212.3l-0.1-0.9h0c-0.4,0.5-1.1,1-2.1,1c-1.4,0-2.1-1-2.1-1.9c0-1.6,1.5-2.5,4.1-2.5v-0.1
		c0-0.6-0.2-1.6-1.5-1.6c-0.6,0-1.3,0.2-1.8,0.5l-0.3-0.8c0.6-0.4,1.4-0.6,2.2-0.6c2.1,0,2.6,1.4,2.6,2.8v2.5c0,0.6,0,1.2,0.1,1.6
		H129z M128.8,208.9c-1.3,0-2.9,0.2-2.9,1.5c0,0.8,0.5,1.2,1.2,1.2c0.9,0,1.4-0.6,1.6-1.1c0-0.1,0.1-0.3,0.1-0.4V208.9z"/>
	<path class="st1" d="M137.8,202.4v8.2c0,0.6,0,1.3,0.1,1.8h-1.1l-0.1-1.2h0c-0.4,0.8-1.2,1.3-2.3,1.3c-1.6,0-2.9-1.4-2.9-3.4
		c0-2.3,1.4-3.6,3-3.6c1,0,1.7,0.5,2,1h0v-4H137.8z M136.6,208.3c0-0.2,0-0.4-0.1-0.5c-0.2-0.8-0.9-1.4-1.8-1.4c-1.3,0-2,1.1-2,2.6
		c0,1.4,0.7,2.5,2,2.5c0.8,0,1.6-0.5,1.8-1.5c0-0.2,0.1-0.3,0.1-0.5V208.3z"/>
	<path class="st1" d="M139.9,207.4c0-0.7,0-1.3-0.1-1.8h1.1l0.1,1.1h0c0.4-0.6,1-1.2,2.1-1.2c0.9,0,1.6,0.6,1.9,1.4h0
		c0.2-0.4,0.5-0.7,0.8-0.9c0.4-0.3,0.9-0.5,1.5-0.5c0.9,0,2.2,0.6,2.2,2.9v4h-1.2v-3.8c0-1.3-0.5-2.1-1.5-2.1
		c-0.7,0-1.2,0.5-1.5,1.1c-0.1,0.2-0.1,0.4-0.1,0.6v4.2h-1.2v-4.1c0-1.1-0.5-1.9-1.4-1.9c-0.8,0-1.3,0.6-1.5,1.2
		c-0.1,0.2-0.1,0.4-0.1,0.6v4.1h-1.2V207.4z"/>
	<path class="st1" d="M152.9,203.7c0,0.4-0.3,0.8-0.8,0.8c-0.4,0-0.7-0.3-0.7-0.8c0-0.4,0.3-0.8,0.8-0.8
		C152.6,202.9,152.9,203.2,152.9,203.7z M151.5,212.3v-6.8h1.2v6.8H151.5z"/>
	<path class="st1" d="M154.6,211.1c0.4,0.2,1,0.5,1.6,0.5c0.9,0,1.3-0.4,1.3-1c0-0.6-0.3-0.9-1.3-1.2c-1.2-0.4-1.8-1.1-1.8-1.9
		c0-1.1,0.9-2,2.3-2c0.7,0,1.3,0.2,1.7,0.4l-0.3,0.9c-0.3-0.2-0.8-0.4-1.4-0.4c-0.7,0-1.1,0.4-1.1,0.9c0,0.6,0.4,0.8,1.3,1.1
		c1.2,0.4,1.8,1,1.8,2c0,1.2-0.9,2-2.5,2c-0.7,0-1.4-0.2-1.9-0.5L154.6,211.1z"/>
	<path class="st1" d="M161.7,203.7c0,0.4-0.3,0.8-0.8,0.8c-0.4,0-0.7-0.3-0.7-0.8c0-0.4,0.3-0.8,0.8-0.8
		C161.4,202.9,161.7,203.2,161.7,203.7z M160.4,212.3v-6.8h1.2v6.8H160.4z"/>
	<path class="st1" d="M169.8,208.9c0,2.5-1.7,3.6-3.4,3.6c-1.8,0-3.2-1.3-3.2-3.5c0-2.3,1.5-3.6,3.4-3.6
		C168.4,205.4,169.8,206.8,169.8,208.9z M164.4,209c0,1.5,0.9,2.6,2.1,2.6c1.2,0,2.1-1.1,2.1-2.6c0-1.1-0.6-2.6-2-2.6
		S164.4,207.7,164.4,209z M168.3,202.6l-1.7,2h-0.9l1.2-2H168.3z"/>
	<path class="st1" d="M171.3,207.4c0-0.7,0-1.3-0.1-1.8h1.1l0.1,1.1h0c0.3-0.6,1.1-1.3,2.2-1.3c0.9,0,2.4,0.6,2.4,2.9v4h-1.2v-3.9
		c0-1.1-0.4-2-1.6-2c-0.8,0-1.4,0.6-1.7,1.3c-0.1,0.2-0.1,0.4-0.1,0.6v4.1h-1.2V207.4z"/>
</g>
<g>
	<path class="st1" d="M149.4,103h-16.8c-1.2,0-2.2-1-2.2-2.2l0,0V73.2c0-1.2,1-2.2,2.2-2.2l0,0h18v5.7c0,0.6,0.4,1,1,1
		c0.3,0,2.8,0,4.9,0v17.9h0.2c0.5,0,1,0.1,1.5,0.2V76.2v-0.1l-6.3-6.7l-0.1-0.1h-19.2c-2.2,0-3.9,1.7-3.9,3.9v27.6
		c0,2.2,1.7,3.9,3.9,3.9h17C149.5,104.1,149.4,103.5,149.4,103L149.4,103z M155.3,75.7h-2.6v-2.9L155.3,75.7z"/>
	<path class="st1" d="M156.8,97.3c-3.1,0-5.7,2.6-5.7,5.7c0,3.1,2.6,5.7,5.7,5.7s5.7-2.6,5.7-5.7C162.5,99.9,159.9,97.3,156.8,97.3
		L156.8,97.3z M156.5,106.5L156.5,106.5l-3.3-4.1l1.2-1l2.1,2.1l3.9-3.4l1,1L156.5,106.5z"/>
	<path class="st1" d="M151.3,82h-15.5c-0.5,0-0.9,0.4-0.9,0.9s0.4,0.9,0.9,0.9h15.5c0.5,0,0.9-0.4,0.9-0.9S151.8,82,151.3,82z"/>
	<path class="st1" d="M151.3,85.7h-15.5c-0.5,0-0.9,0.4-0.9,0.9s0.4,0.9,0.9,0.9h15.5c0.5,0,0.9-0.4,0.9-0.9S151.8,85.7,151.3,85.7z
		"/>
	<path class="st1" d="M151.3,89.3h-15.5c-0.5,0-0.9,0.4-0.9,0.9s0.4,0.9,0.9,0.9h15.5c0.5,0,0.9-0.4,0.9-0.9S151.8,89.3,151.3,89.3z
		"/>
	<path class="st1" d="M151.3,93h-15.5c-0.5,0-0.9,0.4-0.9,0.9s0.4,0.9,0.9,0.9h15.5c0.5,0,0.9-0.4,0.9-0.9S151.8,93,151.3,93z"/>
</g>
<path class="st0" d="M251.4,645.6H46.8C33.7,645.6,23,635,23,621.8V455.7c0-13.1,10.7-23.8,23.8-23.8h204.5
	c13.1,0,23.8,10.7,23.8,23.8v166.2C275.2,635,264.5,645.6,251.4,645.6z"/>
<text transform="matrix(1 0 0 1 93.0704 531.951)"><tspan x="0" y="0" class="st1" style="font-family:'Arial-BoldMT'; font-size:19.0259px;">CAUSAS DE</tspan><tspan x="-8.4" y="19" class="st1" style="font-family:'Arial-BoldMT'; font-size:19.0259px;">NO ADMISIN</tspan></text>
<rect x="45.7" y="575.2" style="fill:none;" width="192.4" height="31.1"/>
<text transform="matrix(1 0 0 1 53.4298 585.1793)"><tspan x="0" y="0" class="st1" style="font-family:'MyriadPro-Regular'; font-size:14px;">Lea atentamente las causas de </tspan><tspan x="52.3" y="16.8" class="st1" style="font-family:'MyriadPro-Regular'; font-size:14px;">no admisin</tspan></text>
<g>
	<path class="st1" d="M149.4,492.7h-16.8c-1.2,0-2.2-1-2.2-2.2l0,0v-27.6c0-1.2,1-2.2,2.2-2.2l0,0h18v5.7c0,0.6,0.4,1,1,1
		c0.3,0,2.8,0,4.9,0v17.9h0.2c0.5,0,1,0.1,1.5,0.2v-19.6v-0.1l-6.3-6.7l-0.1-0.1h-19.2c-2.2,0-3.9,1.7-3.9,3.9v27.6
		c0,2.2,1.7,3.9,3.9,3.9h17C149.5,493.8,149.4,493.2,149.4,492.7L149.4,492.7z M155.3,465.4h-2.6v-2.9L155.3,465.4z"/>
	<path class="st1" d="M156.8,487c-3.1,0-5.7,2.6-5.7,5.7c0,3.1,2.6,5.7,5.7,5.7s5.7-2.6,5.7-5.7C162.5,489.6,159.9,487,156.8,487
		L156.8,487z M156.5,496.2L156.5,496.2l-3.3-4.1l1.2-1l2.1,2.1l3.9-3.4l1,1L156.5,496.2z"/>
	<path class="st1" d="M151.3,471.7h-15.5c-0.5,0-0.9,0.4-0.9,0.9s0.4,0.9,0.9,0.9h15.5c0.5,0,0.9-0.4,0.9-0.9
		S151.8,471.7,151.3,471.7z"/>
	<path class="st1" d="M151.3,475.4h-15.5c-0.5,0-0.9,0.4-0.9,0.9s0.4,0.9,0.9,0.9h15.5c0.5,0,0.9-0.4,0.9-0.9
		S151.8,475.4,151.3,475.4z"/>
	<path class="st1" d="M151.3,479h-15.5c-0.5,0-0.9,0.4-0.9,0.9s0.4,0.9,0.9,0.9h15.5c0.5,0,0.9-0.4,0.9-0.9S151.8,479,151.3,479z"/>
	<path class="st1" d="M151.3,482.7h-15.5c-0.5,0-0.9,0.4-0.9,0.9s0.4,0.9,0.9,0.9h15.5c0.5,0,0.9-0.4,0.9-0.9
		S151.8,482.7,151.3,482.7z"/>
</g>
</svg>
