<?xml version="1.0" encoding="utf-8"?>
<!-- Generator: Adobe Illustrator 27.5.0, SVG Export Plug-In . SVG Version: 6.00 Build 0)  -->
<svg version="1.1" id="Capa_1" xmlns="http://www.w3.org/2000/svg" xmlns:xlink="http://www.w3.org/1999/xlink" x="0px" y="0px"
	 viewBox="0 0 298.2 298.2" style="enable-background:new 0 0 298.2 298.2;" xml:space="preserve">
<style type="text/css">
	.st0{fill:#F2F9F6;stroke:#307F34;stroke-width:2;stroke-miterlimit:10;}
	.st1{fill:#307E33;}
</style>
<g>
	<path class="st0" d="M251.4,256H46.8C33.7,256,23,245.3,23,232.2V66c0-13.1,10.7-23.8,23.8-23.8h204.5c13.1,0,23.8,10.7,23.8,23.8
		v166.2C275.2,245.3,264.5,256,251.4,256z"/>
	<g>
		<path class="st1" d="M79.7,142.3v-13.6h4.4c1.7,0,2.8,0.1,3.3,0.2c0.8,0.2,1.4,0.6,2,1.3c0.5,0.7,0.8,1.6,0.8,2.7
			c0,0.8-0.2,1.5-0.5,2.1c-0.3,0.6-0.7,1-1.2,1.3s-0.9,0.5-1.4,0.6c-0.7,0.1-1.6,0.2-2.9,0.2h-1.8v5.1H79.7z M82.4,131v3.9h1.5
			c1.1,0,1.8-0.1,2.2-0.2c0.4-0.1,0.7-0.4,0.9-0.7c0.2-0.3,0.3-0.7,0.3-1.1c0-0.5-0.1-0.9-0.4-1.2c-0.3-0.3-0.7-0.5-1.1-0.6
			c-0.3-0.1-1-0.1-2-0.1H82.4z"/>
		<path class="st1" d="M91.8,135.6c0-1.4,0.2-2.6,0.6-3.5c0.3-0.7,0.7-1.3,1.3-1.9c0.5-0.6,1.1-1,1.8-1.2c0.8-0.4,1.8-0.5,2.9-0.5
			c2,0,3.6,0.6,4.8,1.9c1.2,1.2,1.8,3,1.8,5.2c0,2.2-0.6,3.9-1.8,5.2s-2.8,1.9-4.8,1.9c-2,0-3.6-0.6-4.8-1.9S91.8,137.8,91.8,135.6z
			 M94.6,135.5c0,1.5,0.4,2.7,1.1,3.5c0.7,0.8,1.6,1.2,2.7,1.2c1.1,0,2-0.4,2.7-1.2c0.7-0.8,1.1-2,1.1-3.6c0-1.6-0.3-2.7-1-3.5
			c-0.7-0.8-1.6-1.2-2.7-1.2c-1.1,0-2,0.4-2.7,1.2C95,132.8,94.6,133.9,94.6,135.5z"/>
		<path class="st1" d="M106.5,137.9l2.7-0.3c0.2,0.9,0.5,1.6,1,2c0.5,0.4,1.2,0.6,2,0.6c0.9,0,1.6-0.2,2-0.6
			c0.4-0.4,0.7-0.8,0.7-1.3c0-0.3-0.1-0.6-0.3-0.8c-0.2-0.2-0.5-0.4-1-0.6c-0.3-0.1-1.1-0.3-2.2-0.6c-1.5-0.4-2.5-0.8-3.1-1.3
			c-0.8-0.7-1.3-1.7-1.3-2.7c0-0.7,0.2-1.3,0.6-1.9s1-1.1,1.7-1.4s1.6-0.5,2.7-0.5c1.7,0,3,0.4,3.9,1.1c0.9,0.7,1.3,1.7,1.4,3
			l-2.8,0.1c-0.1-0.7-0.4-1.2-0.8-1.5c-0.4-0.3-1-0.5-1.7-0.5c-0.8,0-1.4,0.2-1.9,0.5c-0.3,0.2-0.4,0.5-0.4,0.8
			c0,0.3,0.1,0.6,0.4,0.8c0.3,0.3,1.2,0.6,2.5,0.9c1.3,0.3,2.3,0.6,3,1c0.6,0.3,1.1,0.8,1.5,1.4c0.4,0.6,0.5,1.3,0.5,2.2
			c0,0.8-0.2,1.5-0.7,2.2c-0.4,0.7-1,1.2-1.8,1.5c-0.8,0.3-1.8,0.5-3,0.5c-1.7,0-3-0.4-4-1.2S106.6,139.4,106.5,137.9z"/>
		<path class="st1" d="M122.9,142.3V131h-4v-2.3h10.8v2.3h-4v11.3H122.9z"/>
		<path class="st1" d="M131.4,128.7h2.8v7.4c0,1.2,0,1.9,0.1,2.3c0.1,0.6,0.4,1,0.8,1.3c0.4,0.3,1,0.5,1.8,0.5
			c0.8,0,1.4-0.2,1.8-0.5c0.4-0.3,0.6-0.7,0.7-1.2c0.1-0.5,0.1-1.2,0.1-2.3v-7.5h2.8v7.2c0,1.6-0.1,2.8-0.2,3.5
			c-0.1,0.7-0.4,1.2-0.8,1.7c-0.4,0.5-0.9,0.8-1.6,1.1s-1.5,0.4-2.6,0.4c-1.3,0-2.3-0.2-3-0.5s-1.2-0.7-1.6-1.2
			c-0.4-0.5-0.6-1-0.8-1.5c-0.2-0.8-0.3-1.9-0.3-3.5V128.7z"/>
		<path class="st1" d="M145.3,142.3v-13.5h2.7V140h6.8v2.3H145.3z"/>
		<path class="st1" d="M169.1,142.3h-3l-1.2-3.1h-5.4l-1.1,3.1h-2.9l5.3-13.6h2.9L169.1,142.3z M164,136.9l-1.9-5.1l-1.8,5.1H164z"
			/>
		<path class="st1" d="M170.6,142.3v-13.6h2.7l5.6,9.1v-9.1h2.6v13.6h-2.8l-5.5-8.9v8.9H170.6z"/>
		<path class="st1" d="M187.4,142.3V131h-4v-2.3h10.8v2.3h-4v11.3H187.4z"/>
		<path class="st1" d="M195.9,142.3v-13.6H206v2.3h-7.3v3h6.8v2.3h-6.8v3.7h7.6v2.3H195.9z"/>
		<path class="st1" d="M207.9,137.9l2.7-0.3c0.2,0.9,0.5,1.6,1,2c0.5,0.4,1.2,0.6,2,0.6c0.9,0,1.6-0.2,2-0.6
			c0.4-0.4,0.7-0.8,0.7-1.3c0-0.3-0.1-0.6-0.3-0.8c-0.2-0.2-0.5-0.4-1-0.6c-0.3-0.1-1.1-0.3-2.2-0.6c-1.5-0.4-2.5-0.8-3.1-1.3
			c-0.8-0.7-1.3-1.7-1.3-2.7c0-0.7,0.2-1.3,0.6-1.9s1-1.1,1.7-1.4s1.6-0.5,2.7-0.5c1.7,0,3,0.4,3.9,1.1c0.9,0.7,1.3,1.7,1.4,3
			l-2.8,0.1c-0.1-0.7-0.4-1.2-0.8-1.5c-0.4-0.3-1-0.5-1.7-0.5c-0.8,0-1.4,0.2-1.9,0.5c-0.3,0.2-0.4,0.5-0.4,0.8
			c0,0.3,0.1,0.6,0.4,0.8c0.3,0.3,1.2,0.6,2.5,0.9c1.3,0.3,2.3,0.6,3,1c0.6,0.3,1.1,0.8,1.5,1.4c0.4,0.6,0.5,1.3,0.5,2.2
			c0,0.8-0.2,1.5-0.7,2.2c-0.4,0.7-1,1.2-1.8,1.5c-0.8,0.3-1.8,0.5-3,0.5c-1.7,0-3-0.4-4-1.2S208.1,139.4,207.9,137.9z"/>
		<path class="st1" d="M93.9,161.3v-13.6h9.3v2.3h-6.6v3.2h5.7v2.3h-5.7v5.8H93.9z"/>
		<path class="st1" d="M105.6,161.3v-13.6h10.1v2.3h-7.3v3h6.8v2.3h-6.8v3.7h7.6v2.3H105.6z"/>
		<path class="st1" d="M118.2,161.3v-13.6h4.1l2.5,9.3l2.4-9.3h4.1v13.6h-2.6v-10.7l-2.7,10.7h-2.6l-2.7-10.7v10.7H118.2z"/>
		<path class="st1" d="M134.1,161.3v-13.6h10.1v2.3h-7.3v3h6.8v2.3h-6.8v3.7h7.6v2.3H134.1z"/>
		<path class="st1" d="M146.8,161.3v-13.6h2.7l5.6,9.1v-9.1h2.6v13.6h-2.8l-5.5-8.9v8.9H146.8z"/>
		<path class="st1" d="M160.4,161.3v-13.6h2.8v13.6H160.4z"/>
		<path class="st1" d="M165.8,161.3v-13.6h2.7l5.6,9.1v-9.1h2.6v13.6h-2.8l-5.5-8.9v8.9H165.8z"/>
		<path class="st1" d="M179,154.6c0-1.4,0.2-2.6,0.6-3.5c0.3-0.7,0.7-1.3,1.3-1.9c0.5-0.6,1.1-1,1.8-1.2c0.8-0.4,1.8-0.5,2.9-0.5
			c2,0,3.6,0.6,4.8,1.9c1.2,1.2,1.8,3,1.8,5.2c0,2.2-0.6,3.9-1.8,5.2c-1.2,1.2-2.8,1.9-4.8,1.9c-2,0-3.6-0.6-4.8-1.9
			S179,156.8,179,154.6z M181.8,154.5c0,1.5,0.4,2.7,1.1,3.5s1.6,1.2,2.7,1.2c1.1,0,2-0.4,2.7-1.2c0.7-0.8,1.1-2,1.1-3.6
			c0-1.6-0.3-2.7-1-3.5c-0.7-0.8-1.6-1.2-2.7-1.2c-1.1,0-2,0.4-2.7,1.2C182.2,151.8,181.8,152.9,181.8,154.5z"/>
		<path class="st1" d="M193.6,156.9l2.7-0.3c0.2,0.9,0.5,1.6,1,2c0.5,0.4,1.2,0.6,2,0.6c0.9,0,1.6-0.2,2-0.6
			c0.4-0.4,0.7-0.8,0.7-1.3c0-0.3-0.1-0.6-0.3-0.8c-0.2-0.2-0.5-0.4-1-0.6c-0.3-0.1-1.1-0.3-2.2-0.6c-1.5-0.4-2.5-0.8-3.1-1.3
			c-0.8-0.7-1.3-1.7-1.3-2.7c0-0.7,0.2-1.3,0.6-1.9c0.4-0.6,1-1.1,1.7-1.4s1.6-0.5,2.7-0.5c1.7,0,3,0.4,3.9,1.1
			c0.9,0.7,1.3,1.7,1.4,3l-2.8,0.1c-0.1-0.7-0.4-1.2-0.8-1.5c-0.4-0.3-1-0.5-1.7-0.5c-0.8,0-1.4,0.2-1.9,0.5
			c-0.3,0.2-0.4,0.5-0.4,0.8c0,0.3,0.1,0.6,0.4,0.8c0.3,0.3,1.2,0.6,2.5,0.9c1.3,0.3,2.3,0.6,3,1c0.6,0.3,1.1,0.8,1.5,1.4
			c0.4,0.6,0.5,1.3,0.5,2.2c0,0.8-0.2,1.5-0.7,2.2c-0.4,0.7-1,1.2-1.8,1.5c-0.8,0.3-1.8,0.5-3,0.5c-1.7,0-3-0.4-4-1.2
			S193.8,158.4,193.6,156.9z"/>
	</g>
	<g>
		<path class="st1" d="M76.6,186.1c0.5-0.1,1.3-0.2,2-0.2c1.1,0,1.8,0.2,2.3,0.7c0.4,0.4,0.6,0.9,0.6,1.5c0,1.1-0.7,1.8-1.5,2.1v0
			c0.6,0.2,1,0.8,1.2,1.6c0.3,1.1,0.5,1.9,0.6,2.2h-1.1c-0.1-0.2-0.3-0.9-0.5-1.9c-0.2-1.1-0.7-1.5-1.6-1.6h-1v3.5h-1V186.1z
			 M77.6,189.8h1.1c1.1,0,1.8-0.6,1.8-1.5c0-1-0.8-1.5-1.9-1.5c-0.5,0-0.9,0-1,0.1V189.8z"/>
		<path class="st1" d="M83.6,191.4c0,1.4,0.9,2,2,2c0.8,0,1.2-0.1,1.6-0.3l0.2,0.8c-0.4,0.2-1,0.4-1.9,0.4c-1.8,0-2.9-1.2-2.9-2.9
			s1-3.1,2.7-3.1c1.9,0,2.4,1.7,2.4,2.7c0,0.2,0,0.4,0,0.5H83.6z M86.7,190.7c0-0.7-0.3-1.7-1.5-1.7c-1.1,0-1.5,1-1.6,1.7H86.7z"/>
		<path class="st1" d="M88.9,193c0.3,0.2,0.9,0.4,1.4,0.4c0.8,0,1.1-0.4,1.1-0.9c0-0.5-0.3-0.8-1.1-1.1c-1-0.4-1.5-0.9-1.5-1.6
			c0-0.9,0.8-1.7,2-1.7c0.6,0,1.1,0.2,1.4,0.4l-0.3,0.8c-0.2-0.1-0.6-0.3-1.2-0.3c-0.6,0-1,0.4-1,0.8c0,0.5,0.3,0.7,1.1,1
			c1,0.4,1.5,0.9,1.5,1.8c0,1-0.8,1.7-2.2,1.7c-0.6,0-1.2-0.2-1.6-0.4L88.9,193z"/>
		<path class="st1" d="M99.1,191.2c0,2.1-1.5,3.1-2.9,3.1c-1.6,0-2.8-1.2-2.8-3c0-1.9,1.3-3.1,2.9-3.1
			C97.9,188.2,99.1,189.4,99.1,191.2z M94.5,191.2c0,1.3,0.7,2.2,1.8,2.2c1,0,1.8-0.9,1.8-2.3c0-1-0.5-2.2-1.7-2.2
			C95,189,94.5,190.1,94.5,191.2z"/>
		<path class="st1" d="M100.4,185.6h1.1v8.5h-1.1V185.6z"/>
		<path class="st1" d="M108.1,192.5c0,0.6,0,1.1,0,1.6h-0.9l-0.1-0.9h0c-0.3,0.5-0.9,1.1-1.9,1.1c-0.9,0-2-0.5-2-2.5v-3.4h1.1v3.2
			c0,1.1,0.3,1.8,1.3,1.8c0.7,0,1.2-0.5,1.4-1c0.1-0.2,0.1-0.3,0.1-0.5v-3.6h1.1V192.5z"/>
		<path class="st1" d="M114,193.9c-0.3,0.1-0.9,0.3-1.7,0.3c-1.8,0-2.9-1.2-2.9-3c0-1.8,1.2-3.1,3.1-3.1c0.6,0,1.2,0.2,1.5,0.3
			l-0.2,0.8c-0.3-0.1-0.6-0.3-1.2-0.3c-1.3,0-2.1,1-2.1,2.2c0,1.3,0.9,2.2,2,2.2c0.6,0,1-0.2,1.3-0.3L114,193.9z"/>
		<path class="st1" d="M116.4,186.7c0,0.4-0.3,0.6-0.7,0.6c-0.4,0-0.6-0.3-0.6-0.6c0-0.4,0.3-0.7,0.7-0.7
			C116.2,186,116.4,186.3,116.4,186.7z M115.2,194.1v-5.8h1.1v5.8H115.2z"/>
		<path class="st1" d="M123.3,191.2c0,2.1-1.5,3.1-2.9,3.1c-1.6,0-2.8-1.2-2.8-3c0-1.9,1.3-3.1,2.9-3.1
			C122.2,188.2,123.3,189.4,123.3,191.2z M118.7,191.2c0,1.3,0.7,2.2,1.8,2.2c1,0,1.8-0.9,1.8-2.3c0-1-0.5-2.2-1.7-2.2
			C119.2,189,118.7,190.1,118.7,191.2z M122,185.8l-1.5,1.7h-0.8l1.1-1.7H122z"/>
		<path class="st1" d="M124.6,189.9c0-0.6,0-1.1,0-1.6h0.9l0.1,1h0c0.3-0.6,1-1.1,1.9-1.1c0.8,0,2.1,0.5,2.1,2.5v3.5h-1.1v-3.3
			c0-0.9-0.3-1.7-1.3-1.7c-0.7,0-1.2,0.5-1.4,1.1c0,0.1-0.1,0.3-0.1,0.5v3.5h-1.1V189.9z"/>
		<path class="st1" d="M140.7,190.6c-0.1-1.1-0.1-2.5-0.1-3.5h0c-0.3,0.9-0.6,2-1,3.1l-1.4,3.9h-0.8l-1.3-3.8
			c-0.4-1.1-0.7-2.2-0.9-3.1h0c0,1-0.1,2.4-0.2,3.6l-0.2,3.5h-1l0.6-8.1h1.3l1.4,3.9c0.3,1,0.6,1.9,0.8,2.7h0
			c0.2-0.8,0.5-1.7,0.9-2.7l1.4-3.9h1.3l0.5,8.1h-1L140.7,190.6z"/>
		<path class="st1" d="M144.8,186.7c0,0.4-0.3,0.6-0.7,0.6c-0.4,0-0.6-0.3-0.6-0.6c0-0.4,0.3-0.7,0.7-0.7
			C144.5,186,144.8,186.3,144.8,186.7z M143.6,194.1v-5.8h1.1v5.8H143.6z"/>
		<path class="st1" d="M146.4,189.9c0-0.6,0-1.1,0-1.6h0.9l0.1,1h0c0.3-0.6,1-1.1,1.9-1.1c0.8,0,2.1,0.5,2.1,2.5v3.5h-1.1v-3.3
			c0-0.9-0.3-1.7-1.3-1.7c-0.7,0-1.2,0.5-1.4,1.1c0,0.1-0.1,0.3-0.1,0.5v3.5h-1.1V189.9z"/>
		<path class="st1" d="M154.3,186.7c0,0.4-0.3,0.6-0.7,0.6c-0.4,0-0.6-0.3-0.6-0.6c0-0.4,0.3-0.7,0.7-0.7
			C154,186,154.3,186.3,154.3,186.7z M153.1,194.1v-5.8h1.1v5.8H153.1z"/>
		<path class="st1" d="M155.8,193c0.3,0.2,0.9,0.4,1.4,0.4c0.8,0,1.1-0.4,1.1-0.9c0-0.5-0.3-0.8-1.1-1.1c-1-0.4-1.5-0.9-1.5-1.6
			c0-0.9,0.8-1.7,2-1.7c0.6,0,1.1,0.2,1.4,0.4l-0.3,0.8c-0.2-0.1-0.6-0.3-1.2-0.3c-0.6,0-1,0.4-1,0.8c0,0.5,0.3,0.7,1.1,1
			c1,0.4,1.5,0.9,1.5,1.8c0,1-0.8,1.7-2.2,1.7c-0.6,0-1.2-0.2-1.6-0.4L155.8,193z"/>
		<path class="st1" d="M161.9,186.6v1.7h1.5v0.8h-1.5v3.1c0,0.7,0.2,1.1,0.8,1.1c0.3,0,0.5,0,0.6-0.1l0,0.8
			c-0.2,0.1-0.5,0.1-0.9,0.1c-0.5,0-0.9-0.2-1.1-0.4c-0.3-0.3-0.4-0.8-0.4-1.5v-3.2H160v-0.8h0.9v-1.4L161.9,186.6z"/>
		<path class="st1" d="M165.1,191.4c0,1.4,0.9,2,2,2c0.8,0,1.2-0.1,1.6-0.3l0.2,0.8c-0.4,0.2-1,0.4-1.9,0.4c-1.8,0-2.9-1.2-2.9-2.9
			s1-3.1,2.7-3.1c1.9,0,2.4,1.7,2.4,2.7c0,0.2,0,0.4,0,0.5H165.1z M168.2,190.7c0-0.7-0.3-1.7-1.5-1.7c-1.1,0-1.5,1-1.6,1.7H168.2z"
			/>
		<path class="st1" d="M170.6,190.1c0-0.7,0-1.3,0-1.8h0.9l0,1.1h0c0.3-0.8,0.9-1.3,1.6-1.3c0.1,0,0.2,0,0.3,0v1c-0.1,0-0.2,0-0.4,0
			c-0.7,0-1.3,0.6-1.4,1.4c0,0.1,0,0.3,0,0.5v3.1h-1V190.1z"/>
		<path class="st1" d="M175.7,186.7c0,0.4-0.3,0.6-0.7,0.6c-0.4,0-0.6-0.3-0.6-0.6c0-0.4,0.3-0.7,0.7-0.7
			C175.5,186,175.7,186.3,175.7,186.7z M174.5,194.1v-5.8h1.1v5.8H174.5z"/>
		<path class="st1" d="M180.6,194.1l-0.1-0.7h0c-0.3,0.5-0.9,0.9-1.8,0.9c-1.2,0-1.8-0.8-1.8-1.7c0-1.4,1.2-2.2,3.5-2.2v-0.1
			c0-0.5-0.1-1.3-1.3-1.3c-0.5,0-1.1,0.2-1.5,0.4l-0.2-0.7c0.5-0.3,1.2-0.5,1.9-0.5c1.8,0,2.2,1.2,2.2,2.4v2.2c0,0.5,0,1,0.1,1.4
			H180.6z M180.4,191.2c-1.2,0-2.5,0.2-2.5,1.3c0,0.7,0.5,1,1,1c0.8,0,1.2-0.5,1.4-1c0-0.1,0.1-0.2,0.1-0.3V191.2z"/>
		<path class="st1" d="M183.1,185.6h1.1v8.5h-1.1V185.6z"/>
		<path class="st1" d="M191.4,194.1V192h-3.6v-0.7l3.5-5h1.1v4.8h1.1v0.8h-1.1v2.1H191.4z M191.4,191.2v-2.6c0-0.4,0-0.8,0-1.2h0
			c-0.2,0.5-0.4,0.8-0.6,1.2l-1.9,2.7v0H191.4z"/>
		<path class="st1" d="M199.4,186.3v0.7l-3.4,7.1h-1.1l3.4-6.9v0h-3.8v-0.9H199.4z"/>
		<path class="st1" d="M200.5,194.1v-0.6l0.8-0.8c2-1.9,2.9-2.9,2.9-4.1c0-0.8-0.4-1.5-1.5-1.5c-0.7,0-1.3,0.4-1.7,0.7l-0.3-0.7
			c0.5-0.5,1.3-0.8,2.2-0.8c1.7,0,2.4,1.2,2.4,2.3c0,1.4-1,2.6-2.7,4.2l-0.6,0.6v0h3.5v0.9H200.5z"/>
		<path class="st1" d="M206.1,194.6l3.3-8.7h0.8l-3.4,8.7H206.1z"/>
		<path class="st1" d="M213,187.3L213,187.3l-1.4,0.7l-0.2-0.8l1.7-0.9h0.9v7.8h-1V187.3z"/>
		<path class="st1" d="M219.2,187.3L219.2,187.3l-1.4,0.7l-0.2-0.8l1.7-0.9h0.9v7.8h-1V187.3z"/>
		<path class="st1" d="M73.9,204.7h-3.1v2.9h3.5v0.9h-4.5v-8.1h4.4v0.9h-3.3v2.6h3.1V204.7z"/>
		<path class="st1" d="M75.6,204.3c0-0.6,0-1.1,0-1.6h0.9l0,0.9h0c0.3-0.6,0.9-1.1,1.8-1.1c0.8,0,1.4,0.5,1.6,1.2h0
			c0.2-0.3,0.4-0.6,0.6-0.8c0.3-0.3,0.7-0.4,1.3-0.4c0.8,0,1.9,0.5,1.9,2.5v3.4h-1v-3.3c0-1.1-0.4-1.8-1.3-1.8c-0.6,0-1.1,0.4-1.2,1
			c0,0.1-0.1,0.3-0.1,0.5v3.6h-1V205c0-0.9-0.4-1.6-1.2-1.6c-0.7,0-1.1,0.5-1.3,1.1c-0.1,0.2-0.1,0.3-0.1,0.5v3.5h-1V204.3z"/>
		<path class="st1" d="M85.6,208.5c0-0.4,0-1,0-1.5v-7h1v3.6h0c0.4-0.6,1-1.1,2-1.1c1.4,0,2.5,1.2,2.4,3c0,2.1-1.3,3.1-2.6,3.1
			c-0.8,0-1.5-0.3-1.9-1.1h0l0,1H85.6z M86.7,206.2c0,0.1,0,0.3,0,0.4c0.2,0.7,0.8,1.2,1.6,1.2c1.1,0,1.8-0.9,1.8-2.2
			c0-1.2-0.6-2.2-1.7-2.2c-0.7,0-1.4,0.5-1.6,1.3c0,0.1-0.1,0.3-0.1,0.4V206.2z"/>
		<path class="st1" d="M95.7,208.5l-0.1-0.7h0c-0.3,0.5-0.9,0.9-1.8,0.9c-1.2,0-1.8-0.8-1.8-1.7c0-1.4,1.2-2.2,3.5-2.2v-0.1
			c0-0.5-0.1-1.3-1.3-1.3c-0.5,0-1.1,0.2-1.5,0.4l-0.2-0.7c0.5-0.3,1.2-0.5,1.9-0.5c1.8,0,2.2,1.2,2.2,2.4v2.2c0,0.5,0,1,0.1,1.4
			H95.7z M95.5,205.6c-1.2,0-2.5,0.2-2.5,1.3c0,0.7,0.5,1,1,1c0.8,0,1.2-0.5,1.4-1c0-0.1,0.1-0.2,0.1-0.3V205.6z"/>
		<path class="st1" d="M98.2,204.5c0-0.7,0-1.3,0-1.8h0.9l0,1.1h0c0.3-0.8,0.9-1.3,1.6-1.3c0.1,0,0.2,0,0.3,0v1c-0.1,0-0.2,0-0.4,0
			c-0.7,0-1.3,0.6-1.4,1.4c0,0.1,0,0.3,0,0.5v3.1h-1V204.5z"/>
		<path class="st1" d="M105.3,208.5l-0.1-0.7h0c-0.3,0.5-0.9,0.9-1.8,0.9c-1.2,0-1.8-0.8-1.8-1.7c0-1.4,1.2-2.2,3.5-2.2v-0.1
			c0-0.5-0.1-1.3-1.3-1.3c-0.5,0-1.1,0.2-1.5,0.4l-0.2-0.7c0.5-0.3,1.2-0.5,1.9-0.5c1.8,0,2.2,1.2,2.2,2.4v2.2c0,0.5,0,1,0.1,1.4
			H105.3z M105.1,205.6c-1.2,0-2.5,0.2-2.5,1.3c0,0.7,0.5,1,1,1c0.8,0,1.2-0.5,1.4-1c0-0.1,0.1-0.2,0.1-0.3V205.6z"/>
		<path class="st1" d="M107.2,207.9l2.6-3.4c0.3-0.3,0.5-0.6,0.8-0.9v0h-3.1v-0.9h4.4l0,0.7l-2.6,3.4c-0.2,0.3-0.5,0.6-0.7,0.9v0
			h3.4v0.8h-4.7V207.9z"/>
		<path class="st1" d="M118.2,205.6c0,2.1-1.5,3.1-2.9,3.1c-1.6,0-2.8-1.2-2.8-3c0-1.9,1.3-3.1,2.9-3.1
			C117.1,202.6,118.2,203.8,118.2,205.6z M113.6,205.6c0,1.3,0.7,2.2,1.8,2.2c1,0,1.8-0.9,1.8-2.3c0-1-0.5-2.2-1.7-2.2
			S113.6,204.5,113.6,205.6z"/>
		<path class="st1" d="M124.5,204.9v0.8h-3v-0.8H124.5z"/>
		<path class="st1" d="M128.3,204.6c0-0.7,0-1.3,0-1.9h0.9l0,1h0c0.4-0.7,1.1-1.1,2.1-1.1c1.4,0,2.5,1.2,2.5,3
			c0,2.1-1.3,3.1-2.6,3.1c-0.8,0-1.4-0.3-1.8-0.9h0v3.2h-1V204.6z M129.3,206.2c0,0.2,0,0.3,0,0.4c0.2,0.7,0.8,1.2,1.6,1.2
			c1.1,0,1.8-0.9,1.8-2.2c0-1.2-0.6-2.2-1.7-2.2c-0.7,0-1.4,0.5-1.6,1.3c0,0.1-0.1,0.3-0.1,0.4V206.2z"/>
		<path class="st1" d="M135.7,205.8c0,1.4,0.9,2,2,2c0.8,0,1.2-0.1,1.6-0.3l0.2,0.8c-0.4,0.2-1,0.4-1.9,0.4c-1.8,0-2.9-1.2-2.9-2.9
			s1-3.1,2.7-3.1c1.9,0,2.4,1.7,2.4,2.7c0,0.2,0,0.4,0,0.5H135.7z M138.8,205.1c0-0.7-0.3-1.7-1.5-1.7c-1.1,0-1.5,1-1.6,1.7H138.8z"
			/>
		<path class="st1" d="M141.1,204.5c0-0.7,0-1.3,0-1.8h0.9l0,1.1h0c0.3-0.8,0.9-1.3,1.6-1.3c0.1,0,0.2,0,0.3,0v1c-0.1,0-0.2,0-0.4,0
			c-0.7,0-1.3,0.6-1.4,1.4c0,0.1,0,0.3,0,0.5v3.1h-1V204.5z"/>
		<path class="st1" d="M146.3,201.1c0,0.4-0.3,0.6-0.7,0.6c-0.4,0-0.6-0.3-0.6-0.6c0-0.4,0.3-0.7,0.7-0.7
			C146,200.4,146.3,200.7,146.3,201.1z M145.1,208.5v-5.8h1.1v5.8H145.1z"/>
		<path class="st1" d="M153.2,205.6c0,2.1-1.5,3.1-2.9,3.1c-1.6,0-2.8-1.2-2.8-3c0-1.9,1.3-3.1,2.9-3.1
			C152,202.6,153.2,203.8,153.2,205.6z M148.6,205.6c0,1.3,0.7,2.2,1.8,2.2c1,0,1.8-0.9,1.8-2.3c0-1-0.5-2.2-1.7-2.2
			C149.1,203.4,148.6,204.5,148.6,205.6z"/>
		<path class="st1" d="M159.5,200v7c0,0.5,0,1.1,0,1.5h-0.9l0-1h0c-0.3,0.6-1,1.1-2,1.1c-1.4,0-2.5-1.2-2.5-3c0-1.9,1.2-3.1,2.6-3.1
			c0.9,0,1.5,0.4,1.8,0.9h0V200H159.5z M158.4,205.1c0-0.1,0-0.3,0-0.4c-0.2-0.7-0.7-1.2-1.5-1.2c-1.1,0-1.7,1-1.7,2.2
			c0,1.2,0.6,2.1,1.7,2.1c0.7,0,1.4-0.5,1.5-1.3c0-0.1,0-0.3,0-0.5V205.1z"/>
		<path class="st1" d="M166.5,205.6c0,2.1-1.5,3.1-2.9,3.1c-1.6,0-2.8-1.2-2.8-3c0-1.9,1.3-3.1,2.9-3.1
			C165.4,202.6,166.5,203.8,166.5,205.6z M161.9,205.6c0,1.3,0.7,2.2,1.8,2.2c1,0,1.8-0.9,1.8-2.3c0-1-0.5-2.2-1.7-2.2
			C162.4,203.4,161.9,204.5,161.9,205.6z"/>
		<path class="st1" d="M175.4,200v7c0,0.5,0,1.1,0,1.5h-0.9l0-1h0c-0.3,0.6-1,1.1-2,1.1c-1.4,0-2.5-1.2-2.5-3c0-1.9,1.2-3.1,2.6-3.1
			c0.9,0,1.5,0.4,1.8,0.9h0V200H175.4z M174.3,205.1c0-0.1,0-0.3,0-0.4c-0.2-0.7-0.7-1.2-1.5-1.2c-1.1,0-1.7,1-1.7,2.2
			c0,1.2,0.6,2.1,1.7,2.1c0.7,0,1.4-0.5,1.5-1.3c0-0.1,0-0.3,0-0.5V205.1z"/>
		<path class="st1" d="M177.7,205.8c0,1.4,0.9,2,2,2c0.8,0,1.2-0.1,1.6-0.3l0.2,0.8c-0.4,0.2-1,0.4-1.9,0.4c-1.8,0-2.9-1.2-2.9-2.9
			s1-3.1,2.7-3.1c1.9,0,2.4,1.7,2.4,2.7c0,0.2,0,0.4,0,0.5H177.7z M180.8,205.1c0-0.7-0.3-1.7-1.5-1.7c-1.1,0-1.5,1-1.6,1.7H180.8z"
			/>
		<path class="st1" d="M185.7,200h1.1v8.5h-1.1V200z"/>
		<path class="st1" d="M191.8,208.5l-0.1-0.7h0c-0.3,0.5-0.9,0.9-1.8,0.9c-1.2,0-1.8-0.8-1.8-1.7c0-1.4,1.2-2.2,3.5-2.2v-0.1
			c0-0.5-0.1-1.3-1.3-1.3c-0.5,0-1.1,0.2-1.5,0.4l-0.2-0.7c0.5-0.3,1.2-0.5,1.9-0.5c1.8,0,2.2,1.2,2.2,2.4v2.2c0,0.5,0,1,0.1,1.4
			H191.8z M191.6,205.6c-1.2,0-2.5,0.2-2.5,1.3c0,0.7,0.5,1,1,1c0.8,0,1.2-0.5,1.4-1c0-0.1,0.1-0.2,0.1-0.3V205.6z"/>
		<path class="st1" d="M198.5,208.3c-0.3,0.1-0.9,0.3-1.7,0.3c-1.8,0-2.9-1.2-2.9-3c0-1.8,1.2-3.1,3.1-3.1c0.6,0,1.2,0.2,1.5,0.3
			l-0.2,0.8c-0.3-0.1-0.6-0.3-1.2-0.3c-1.3,0-2.1,1-2.1,2.2c0,1.3,0.9,2.2,2,2.2c0.6,0,1-0.2,1.3-0.3L198.5,208.3z"/>
		<path class="st1" d="M201.1,201.1v1.7h1.5v0.8h-1.5v3.1c0,0.7,0.2,1.1,0.8,1.1c0.3,0,0.5,0,0.6-0.1l0,0.8
			c-0.2,0.1-0.5,0.1-0.9,0.1c-0.5,0-0.9-0.2-1.1-0.4c-0.3-0.3-0.4-0.8-0.4-1.5v-3.2h-0.9v-0.8h0.9v-1.4L201.1,201.1z"/>
		<path class="st1" d="M207,208.5l-0.1-0.7h0c-0.3,0.5-0.9,0.9-1.8,0.9c-1.2,0-1.8-0.8-1.8-1.7c0-1.4,1.2-2.2,3.5-2.2v-0.1
			c0-0.5-0.1-1.3-1.3-1.3c-0.5,0-1.1,0.2-1.5,0.4l-0.2-0.7c0.5-0.3,1.2-0.5,1.9-0.5c1.8,0,2.2,1.2,2.2,2.4v2.2c0,0.5,0,1,0.1,1.4
			H207z M206.9,205.6c-1.2,0-2.5,0.2-2.5,1.3c0,0.7,0.5,1,1,1c0.8,0,1.2-0.5,1.4-1c0-0.1,0.1-0.2,0.1-0.3V205.6z"/>
		<path class="st1" d="M209.6,204.3c0-0.6,0-1.1,0-1.6h0.9l0.1,1h0c0.3-0.6,1-1.1,1.9-1.1c0.8,0,2.1,0.5,2.1,2.5v3.5h-1.1v-3.3
			c0-0.9-0.3-1.7-1.3-1.7c-0.7,0-1.2,0.5-1.4,1.1c0,0.1-0.1,0.3-0.1,0.5v3.5h-1.1V204.3z"/>
		<path class="st1" d="M220.4,208.3c-0.3,0.1-0.9,0.3-1.7,0.3c-1.8,0-2.9-1.2-2.9-3c0-1.8,1.2-3.1,3.1-3.1c0.6,0,1.2,0.2,1.5,0.3
			l-0.2,0.8c-0.3-0.1-0.6-0.3-1.2-0.3c-1.3,0-2.1,1-2.1,2.2c0,1.3,0.9,2.2,2,2.2c0.6,0,1-0.2,1.3-0.3L220.4,208.3z"/>
		<path class="st1" d="M222.8,201.1c0,0.4-0.3,0.6-0.7,0.6c-0.4,0-0.6-0.3-0.6-0.6c0-0.4,0.3-0.7,0.7-0.7
			C222.6,200.4,222.8,200.7,222.8,201.1z M221.7,208.5v-5.8h1.1v5.8H221.7z"/>
		<path class="st1" d="M227.7,208.5l-0.1-0.7h0c-0.3,0.5-0.9,0.9-1.8,0.9c-1.2,0-1.8-0.8-1.8-1.7c0-1.4,1.2-2.2,3.5-2.2v-0.1
			c0-0.5-0.1-1.3-1.3-1.3c-0.5,0-1.1,0.2-1.5,0.4l-0.2-0.7c0.5-0.3,1.2-0.5,1.9-0.5c1.8,0,2.2,1.2,2.2,2.4v2.2c0,0.5,0,1,0.1,1.4
			H227.7z M227.5,205.6c-1.2,0-2.5,0.2-2.5,1.3c0,0.7,0.5,1,1,1c0.8,0,1.2-0.5,1.4-1c0-0.1,0.1-0.2,0.1-0.3V205.6z"/>
	</g>
	<g>
		<path class="st1" d="M149.4,103h-16.8c-1.2,0-2.2-1-2.2-2.2l0,0V73.2c0-1.2,1-2.2,2.2-2.2l0,0h18v5.7c0,0.6,0.4,1,1,1
			c0.3,0,2.8,0,4.9,0v17.9h0.2c0.5,0,1,0.1,1.5,0.2V76.2v-0.1l-6.3-6.7l-0.1-0.1h-19.2c-2.2,0-3.9,1.7-3.9,3.9v27.6
			c0,2.2,1.7,3.9,3.9,3.9h17C149.5,104.1,149.4,103.5,149.4,103L149.4,103z M155.3,75.7h-2.6v-2.9L155.3,75.7z"/>
		<path class="st1" d="M156.8,97.3c-3.1,0-5.7,2.6-5.7,5.7c0,3.1,2.6,5.7,5.7,5.7s5.7-2.6,5.7-5.7C162.5,99.9,159.9,97.3,156.8,97.3
			L156.8,97.3z M156.5,106.5L156.5,106.5l-3.3-4.1l1.2-1l2.1,2.1l3.9-3.4l1,1L156.5,106.5z"/>
		<path class="st1" d="M151.3,82h-15.5c-0.5,0-0.9,0.4-0.9,0.9s0.4,0.9,0.9,0.9h15.5c0.5,0,0.9-0.4,0.9-0.9S151.8,82,151.3,82z"/>
		<path class="st1" d="M151.3,85.7h-15.5c-0.5,0-0.9,0.4-0.9,0.9s0.4,0.9,0.9,0.9h15.5c0.5,0,0.9-0.4,0.9-0.9S151.8,85.7,151.3,85.7
			z"/>
		<path class="st1" d="M151.3,89.3h-15.5c-0.5,0-0.9,0.4-0.9,0.9s0.4,0.9,0.9,0.9h15.5c0.5,0,0.9-0.4,0.9-0.9S151.8,89.3,151.3,89.3
			z"/>
		<path class="st1" d="M151.3,93h-15.5c-0.5,0-0.9,0.4-0.9,0.9s0.4,0.9,0.9,0.9h15.5c0.5,0,0.9-0.4,0.9-0.9S151.8,93,151.3,93z"/>
	</g>
</g>
</svg>
