<?xml version="1.0" encoding="utf-8"?>
<!-- Generator: Adobe Illustrator 26.0.3, SVG Export Plug-In . SVG Version: 6.00 Build 0)  -->
<svg version="1.1" id="Capa_1" xmlns="http://www.w3.org/2000/svg" xmlns:xlink="http://www.w3.org/1999/xlink" x="0px" y="0px"
	 viewBox="0 0 50 50" style="enable-background:new 0 0 50 50;" xml:space="preserve">
<style type="text/css">
	.st0{fill:#FFFFFF;}
</style>
<path class="st0" d="M12.98,6.9c8.01,0,16.03,0,24.04,0c0.07,0.02,0.13,0.05,0.2,0.06c2.79,0.38,5.01,2.39,5.69,5.13
	c0.07,0.29,0.13,0.59,0.19,0.89c0,8.01,0,16.03,0,24.04c-0.02,0.07-0.05,0.13-0.06,0.2c-0.5,3.43-3.27,5.87-6.75,5.88
	c-7.53,0.02-15.06,0.01-22.59,0c-0.97,0-1.91-0.15-2.78-0.58c-2.59-1.29-4.01-3.36-4.02-6.3c-0.02-4.5-0.01-9-0.01-13.5
	c0-2.99-0.01-5.99,0-8.98c0.01-3.03,1.84-5.57,4.68-6.51C12.03,7.08,12.51,7,12.98,6.9z M36.39,16.32c-0.19,0.1-0.32,0.18-0.46,0.23
	c-0.81,0.3-1.63,0.6-2.45,0.88c-0.11,0.04-0.31-0.01-0.39-0.09c-0.79-0.77-1.72-1.2-2.81-1.35c-2.8-0.41-5.49,1.82-5.57,4.65
	c-0.01,0.45,0,0.91,0,1.4c-4.06-0.3-7.44-2.02-10.11-5.15c-0.52,0.8-0.77,1.87-0.68,2.95c0.12,1.49,0.79,2.68,2,3.58
	c-0.79,0.01-1.5-0.25-2.23-0.55c0,1.21,0.38,2.23,1.13,3.12c0.73,0.87,1.64,1.48,2.78,1.74c-0.01,0.04-0.02,0.09-0.03,0.13
	c-0.62,0-1.25,0-1.93,0c0.85,2.09,2.32,3.25,4.59,3.45c-2.16,1.65-4.53,2.28-7.25,2.05c0.95,0.61,1.87,1.05,2.83,1.39
	c2.22,0.79,4.5,0.97,6.82,0.65c2.54-0.35,4.87-1.26,6.81-2.95c3.44-3,5.21-6.79,5.17-11.38c0-0.14,0.09-0.3,0.2-0.4
	c0.34-0.32,0.73-0.6,1.05-0.94c0.4-0.41,0.75-0.87,1.12-1.31c-0.03-0.03-0.05-0.05-0.08-0.08c-0.27,0.1-0.55,0.2-0.82,0.29
	c-0.27,0.08-0.54,0.16-0.82,0.22c-0.27,0.06-0.55,0.11-0.83,0.16C35.36,18.31,36.02,17.47,36.39,16.32z"/>
</svg>
