<?xml version="1.0" encoding="utf-8"?>
<!-- Generator: Adobe Illustrator 26.0.3, SVG Export Plug-In . SVG Version: 6.00 Build 0)  -->
<svg version="1.1" id="Capa_1" xmlns="http://www.w3.org/2000/svg" xmlns:xlink="http://www.w3.org/1999/xlink" x="0px" y="0px"
	 viewBox="0 0 50 50" style="enable-background:new 0 0 50 50;" xml:space="preserve">
<style type="text/css">
	.st0{fill:#FFFFFF;}
</style>
<path class="st0" d="M42.92,12.09c-0.68-2.74-2.91-4.74-5.69-5.13c-0.07-0.01-0.13-0.04-0.2-0.06c-8.01,0-16.03,0-24.04,0
	c-0.47,0.11-0.95,0.18-1.4,0.33c-2.84,0.95-4.67,3.49-4.68,6.51c-0.01,2.99,0,5.99,0,8.98c0,4.5-0.01,9,0.01,13.5
	c0.01,2.93,1.43,5,4.02,6.3c0.87,0.43,1.81,0.58,2.78,0.58c7.53,0,15.06,0.01,22.59,0c3.48-0.01,6.25-2.45,6.75-5.88
	c0.01-0.07,0.04-0.13,0.06-0.2c0-8.01,0-16.03,0-24.04C43.04,12.68,42.99,12.38,42.92,12.09z M21.11,30.95c0-3.93,0-7.82,0-11.77
	c3.41,1.96,6.78,3.9,10.22,5.88C27.89,27.04,24.52,28.98,21.11,30.95z"/>
</svg>
