<?xml version="1.0" encoding="utf-8"?>
<!-- Generator: Adobe Illustrator 26.0.3, SVG Export Plug-In . SVG Version: 6.00 Build 0)  -->
<svg version="1.1" id="Capa_1" xmlns="http://www.w3.org/2000/svg" xmlns:xlink="http://www.w3.org/1999/xlink" x="0px" y="0px"
	 viewBox="0 0 50 50" style="enable-background:new 0 0 50 50;" xml:space="preserve">
<style type="text/css">
	.st0{clip-path:url(#SVGID_00000114069777042891792330000009918230380602309013_);}
	.st1{fill:none;stroke:#FFFFFF;stroke-width:6;stroke-miterlimit:10;}
	.st2{fill:#FFFFFF;}
</style>
<g>
	<g>
		<defs>
			<path id="SVGID_1_" d="M31.1,43.2H17.9c-5.8,0-10.4-4.7-10.4-10.4V19.7c0-5.8,4.7-10.4,10.4-10.4h13.2c5.8,0,10.4,4.7,10.4,10.4
				v13.2C41.5,38.6,36.8,43.2,31.1,43.2z"/>
		</defs>
		<clipPath id="SVGID_00000023964581053259898690000009232520574200840878_">
			<use xlink:href="#SVGID_1_"  style="overflow:visible;"/>
		</clipPath>
		<g style="clip-path:url(#SVGID_00000023964581053259898690000009232520574200840878_);">
			<g>
				<defs>
					<rect id="SVGID_00000060028534410447324850000018229555034497439634_" x="2.5" y="4.2" width="44" height="44"/>
				</defs>
				<clipPath id="SVGID_00000123426710411592745000000013675019722874118018_">
					<use xlink:href="#SVGID_00000060028534410447324850000018229555034497439634_"  style="overflow:visible;"/>
				</clipPath>
				<g style="clip-path:url(#SVGID_00000123426710411592745000000013675019722874118018_);">
					
						<image style="overflow:visible;" width="92" height="93" xlink:href="5164ECC9.jpg"  transform="matrix(0.48 0 0 0.48 2.4 3.92)">
					</image>
				</g>
			</g>
		</g>
	</g>
</g>
<path class="st1" d="M31.1,43.2H17.9c-5.8,0-10.4-4.7-10.4-10.4V19.7c0-5.8,4.7-10.4,10.4-10.4h13.2c5.8,0,10.4,4.7,10.4,10.4v13.2
	C41.5,38.6,36.8,43.2,31.1,43.2z"/>
<path class="st2" d="M24.5,17.2c-4.9,0-8.9,4-8.9,8.9s4,8.9,8.9,8.9s8.9-4,8.9-8.9C33.4,21.1,29.3,17.2,24.5,17.2z M24.5,31.5
	c-2.8,0-5.4-2.5-5.2-5.4c0-3,2.5-5.4,5.4-5.4s5.2,2.3,5.2,5.4S27.3,31.5,24.5,31.5z"/>
<path class="st2" d="M33.5,15.3c-1.1,0-2,0.9-2,1.9c-0.2,1.1,0.7,2,1.9,2s2-0.9,2-1.9C35.3,16.2,34.4,15.3,33.5,15.3z"/>
</svg>
