<?xml version="1.0" encoding="utf-8"?>
<!-- Generator: Adobe Illustrator 26.0.3, SVG Export Plug-In . SVG Version: 6.00 Build 0)  -->
<svg version="1.1" id="Capa_1" xmlns="http://www.w3.org/2000/svg" xmlns:xlink="http://www.w3.org/1999/xlink" x="0px" y="0px"
	 viewBox="0 0 50 50" style="enable-background:new 0 0 50 50;" xml:space="preserve">
<style type="text/css">
	.st0{fill:#FFFFFF;}
	.st1{fill:#1D9BF0;}
</style>
<g>
	<path class="st0" d="M42.9,12.1c-0.7-2.7-2.9-4.7-5.7-5.1c-0.1,0-0.1,0-0.2-0.1c-8,0-16.1,0-24.1,0C12.5,7,12,7,11.6,7.2
		c-2.8,1-4.7,3.5-4.7,6.5c0,3,0,6,0,9c0,4.5,0,9,0,13.5c0,2.9,1.4,5,4,6.3c0.9,0.4,1.8,0.6,2.8,0.6c7.5,0,15.1,0,22.6,0
		c3.5,0,6.3-2.5,6.8-5.9c0-0.1,0-0.1,0.1-0.2c0-8,0-16.1,0-24.1C43.1,12.7,43,12.4,42.9,12.1z"/>
	<path class="st1" d="M35.3,17.6c-0.4-1.6-1.7-2.7-3.3-2.9c0,0-0.1,0-0.1,0c-4.6,0-9.2,0-13.8,0c-0.3,0.1-0.5,0.1-0.8,0.2
		c-1.6,0.5-2.7,2-2.7,3.7c0,1.7,0,3.4,0,5.1c0,2.6,0,5.2,0,7.7c0,1.7,0.8,2.9,2.3,3.6c0.5,0.2,1,0.3,1.6,0.3c4.3,0,8.6,0,12.9,0
		c2,0,3.6-1.4,3.9-3.4c0,0,0-0.1,0-0.1c0-4.6,0-9.2,0-13.8C35.3,17.9,35.3,17.8,35.3,17.6z"/>
	<path class="st0" d="M30.2,20.7c-0.1,0-0.1,0.1-0.2,0.1c-0.4,0.1-0.7,0.3-1.1,0.4c0,0-0.1,0-0.2,0c-0.4-0.3-0.8-0.5-1.3-0.6
		c-1.3-0.2-2.5,0.8-2.5,2.1c0,0.2,0,0.4,0,0.6c-1.8-0.1-3.4-0.9-4.6-2.3c-0.2,0.4-0.3,0.8-0.3,1.3c0.1,0.7,0.4,1.2,0.9,1.6
		c-0.4,0-0.7-0.1-1-0.2c0,0.5,0.2,1,0.5,1.4c0.3,0.4,0.7,0.7,1.3,0.8c0,0,0,0,0,0.1c-0.3,0-0.6,0-0.9,0c0.4,0.9,1.1,1.5,2.1,1.6
		c-1,0.7-2.1,1-3.3,0.9c0.4,0.3,0.8,0.5,1.3,0.6c1,0.4,2,0.4,3.1,0.3c1.2-0.2,2.2-0.6,3.1-1.3c1.6-1.4,2.4-3.1,2.3-5.2
		c0-0.1,0-0.1,0.1-0.2c0.2-0.1,0.3-0.3,0.5-0.4c0.2-0.2,0.3-0.4,0.5-0.6c0,0,0,0,0,0c-0.1,0-0.2,0.1-0.4,0.1c-0.1,0-0.2,0.1-0.4,0.1
		c-0.1,0-0.2,0-0.4,0.1C29.7,21.6,30,21.3,30.2,20.7z"/>
</g>
</svg>
