<?xml version="1.0" encoding="utf-8"?>
<!-- Generator: Adobe Illustrator 26.0.3, SVG Export Plug-In . SVG Version: 6.00 Build 0)  -->
<svg version="1.1" id="Capa_1" xmlns="http://www.w3.org/2000/svg" xmlns:xlink="http://www.w3.org/1999/xlink" x="0px" y="0px"
	 viewBox="0 0 50 50" style="enable-background:new 0 0 50 50;" xml:space="preserve">
<style type="text/css">
	.st0{fill:#FFFFFF;}
	.st1{fill:#00A313;}
</style>
<g>
	<g>
		<path class="st0" d="M14.5,34.2c-0.2,0.6-0.3,1.2-0.5,1.8c0.1-0.1,0.1-0.1,0.2-0.1c1.8-0.5,3.5-0.9,5.3-1.4c0.2-0.1,0.3-0.1,0.4,0
			c2.7,1.3,5.4,1.6,8.2,0.7c5.7-1.7,8.9-7.8,7.1-13.4c-1.9-6.4-9.2-9.5-15.2-6.4c-5.4,2.8-7.4,9.5-4.5,14.8c0,0.1,0,0.3,0,0.4
			C15.2,31.8,14.9,33,14.5,34.2z M23.4,16.1c4.8-0.9,9.5,2.3,10.5,7.1c1,4.9-2.2,9.5-7,10.5c-2.3,0.5-4.4,0.1-6.4-1.1
			c-0.2-0.1-0.3-0.1-0.5-0.1c-1.1,0.2-2.1,0.5-3.2,0.8c0.3-0.8,0.4-1.6,0.7-2.4c0.2-0.6,0.1-1-0.2-1.6C14.2,24,17.4,17.2,23.4,16.1z
			"/>
		<path class="st0" d="M20.8,25.4c1.5,2.1,3.4,3.8,6,4.5c0.7,0.2,1.4,0.3,2.1,0c1.2-0.5,1.6-1,1.8-2.2c0-0.1-0.1-0.3-0.2-0.3
			c-0.8-0.4-1.5-0.8-2.3-1.1c-0.3-0.1-0.4,0-0.6,0.2c-0.3,0.3-0.5,0.7-0.8,1c-0.1,0.1-0.3,0.2-0.5,0.1c-1.6-0.7-2.8-1.7-3.7-3.2
			c-0.2-0.3-0.2-0.4,0-0.6s0.4-0.5,0.6-0.8c0.2-0.2,0.2-0.4,0.1-0.6c-0.3-0.6-0.6-1.3-0.8-1.9c-0.2-0.4-0.4-0.7-0.9-0.6
			c-0.4,0-0.7,0-1,0.3c-0.9,0.8-1.2,1.8-0.9,3C19.9,24,20.3,24.7,20.8,25.4z"/>
		<path class="st1" d="M17.5,30.9c-0.3,0.8-0.4,1.6-0.7,2.4c1.1-0.3,2.1-0.6,3.2-0.8c0.2,0,0.3,0,0.5,0.1c2,1.2,4.1,1.6,6.4,1.1
			c4.8-1,8-5.6,7-10.5c-1-4.8-5.7-8-10.5-7.1c-6,1.1-9.2,7.9-6.1,13.2C17.6,29.9,17.7,30.3,17.5,30.9z M20.6,20.2
			c0.3-0.3,0.6-0.3,1-0.3c0.5-0.1,0.7,0.2,0.9,0.6c0.2,0.6,0.5,1.3,0.8,1.9c0.1,0.2,0.1,0.4-0.1,0.6c-0.2,0.3-0.4,0.6-0.6,0.8
			c-0.2,0.2-0.2,0.3,0,0.6c0.9,1.5,2.1,2.5,3.7,3.2c0.2,0.1,0.4,0,0.5-0.1c0.3-0.3,0.5-0.7,0.8-1c0.2-0.2,0.3-0.3,0.6-0.2
			c0.8,0.3,1.5,0.7,2.3,1.1c0.1,0,0.2,0.2,0.2,0.3c-0.2,1.2-0.6,1.7-1.8,2.2c-0.7,0.3-1.4,0.2-2.1,0c-2.6-0.7-4.5-2.4-6-4.5
			c-0.5-0.7-0.9-1.4-1.1-2.2C19.4,22,19.7,21,20.6,20.2z"/>
	</g>
	<path class="st0" d="M42.9,12.1C42.2,9.4,40,7.4,37.2,7c-0.1,0-0.1,0-0.2-0.1c-8,0-16,0-24,0c-0.5,0.1-1,0.2-1.4,0.3
		c-2.8,0.9-4.7,3.5-4.7,6.5s0,6,0,9c0,4.5,0,9,0,13.5c0,2.9,1.4,5,4,6.3c0.9,0.4,1.8,0.6,2.8,0.6c7.5,0,15.1,0,22.6,0
		c3.5,0,6.2-2.5,6.8-5.9c0-0.1,0-0.1,0.1-0.2c0-8,0-16,0-24C42.9,12.7,42.9,12.4,42.9,12.1z M28.1,35.2c-2.8,0.9-5.5,0.6-8.2-0.7
		c-0.1-0.1-0.2-0.1-0.4,0c-1.8,0.5-3.5,0.9-5.3,1.4c-0.1,0-0.1,0-0.2,0.1c0.2-0.6,0.3-1.2,0.5-1.8c0.3-1.2,0.7-2.4,1-3.6
		c0-0.1,0-0.3,0-0.4c-2.9-5.3-0.9-12,4.5-14.8c6-3.1,13.3,0,15.2,6.4C37,27.4,33.9,33.5,28.1,35.2z"/>
</g>
</svg>
