<?xml version="1.0" encoding="utf-8"?>
<!-- Generator: Adobe Illustrator 26.0.3, SVG Export Plug-In . SVG Version: 6.00 Build 0)  -->
<svg version="1.1" id="Capa_1" xmlns="http://www.w3.org/2000/svg" xmlns:xlink="http://www.w3.org/1999/xlink" x="0px" y="0px"
	 viewBox="0 0 50 50" style="enable-background:new 0 0 50 50;" xml:space="preserve">
<style type="text/css">
	.st0{fill:#FFFFFF;}
</style>
<g>
	<path class="st0" d="M23.4,16.1c-6,1.1-9.2,7.9-6.1,13.2c0.3,0.6,0.4,1,0.2,1.6c-0.3,0.8-0.4,1.6-0.7,2.4c1.1-0.3,2.1-0.6,3.2-0.8
		c0.2,0,0.3,0,0.5,0.1c2,1.2,4.1,1.6,6.4,1.1c4.8-1,8-5.6,7-10.5C32.9,18.4,28.2,15.2,23.4,16.1z M28.9,29.9c-0.7,0.3-1.4,0.2-2.1,0
		c-2.6-0.7-4.5-2.4-6-4.5c-0.5-0.7-0.9-1.4-1.1-2.2c-0.3-1.2,0-2.2,0.9-3c0.3-0.3,0.6-0.3,1-0.3c0.5-0.1,0.7,0.2,0.9,0.6
		c0.2,0.6,0.5,1.3,0.8,1.9c0.1,0.2,0.1,0.4-0.1,0.6c-0.2,0.3-0.4,0.6-0.6,0.8c-0.2,0.2-0.2,0.3,0,0.6c0.9,1.5,2.1,2.5,3.7,3.2
		c0.2,0.1,0.4,0,0.5-0.1c0.3-0.3,0.5-0.7,0.8-1c0.2-0.2,0.3-0.3,0.6-0.2c0.8,0.3,1.5,0.7,2.3,1.1c0.1,0,0.2,0.2,0.2,0.3
		C30.5,28.9,30.1,29.4,28.9,29.9z"/>
	<path class="st0" d="M42.9,12.1C42.2,9.4,40,7.4,37.2,7c-0.1,0-0.1,0-0.2-0.1c-8,0-16,0-24,0c-0.5,0.1-1,0.2-1.4,0.3
		c-2.8,0.9-4.7,3.5-4.7,6.5s0,6,0,9c0,4.5,0,9,0,13.5c0,2.9,1.4,5,4,6.3c0.9,0.4,1.8,0.6,2.8,0.6c7.5,0,15.1,0,22.6,0
		c3.5,0,6.2-2.5,6.8-5.9c0-0.1,0-0.1,0.1-0.2c0-8,0-16,0-24C43,12.7,43,12.4,42.9,12.1z M28.2,35.2c-2.8,0.9-5.5,0.6-8.2-0.7
		c-0.1-0.1-0.2-0.1-0.4,0c-1.8,0.5-3.5,0.9-5.3,1.4c-0.1,0-0.1,0-0.2,0.1c0.2-0.6,0.3-1.2,0.5-1.8c0.3-1.2,0.7-2.4,1-3.6
		c0-0.1,0-0.3,0-0.4c-2.9-5.3-0.9-12,4.5-14.8c6-3.1,13.3,0,15.2,6.4C37.1,27.4,33.9,33.5,28.2,35.2z"/>
</g>
</svg>
