<?xml version="1.0" encoding="utf-8"?>
<!-- Generator: Adobe Illustrator 26.0.3, SVG Export Plug-In . SVG Version: 6.00 Build 0)  -->
<svg version="1.1" id="Layer_1" xmlns="http://www.w3.org/2000/svg" xmlns:xlink="http://www.w3.org/1999/xlink" x="0px" y="0px"
	 viewBox="0 0 50.5 50.5" style="enable-background:new 0 0 50.5 50.5;" xml:space="preserve">
<style type="text/css">
	.st0{fill:#A94442;stroke:#A94442;stroke-width:0.75;stroke-miterlimit:10;}
</style>
<path class="st0" d="M25.2,22.5c-0.3,0-0.5-0.1-0.7-0.3L11.3,8.9c-0.4-0.4-0.4-1,0-1.4s1-0.4,1.4,0l12.6,12.6L37.8,7.5
	c0.4-0.4,1-0.4,1.4,0s0.4,1,0,1.4L26,22.2C25.8,22.4,25.5,22.5,25.2,22.5z"/>
<path class="st0" d="M25.2,32.9c-0.3,0-0.5-0.1-0.7-0.3L11.3,19.3c-0.4-0.4-0.4-1,0-1.4s1-0.4,1.4,0l12.6,12.6l12.5-12.5
	c0.4-0.4,1-0.4,1.4,0s0.4,1,0,1.4L26,32.6C25.8,32.8,25.5,32.9,25.2,32.9z"/>
<path class="st0" d="M25.2,43.2c-0.3,0-0.5-0.1-0.7-0.3L11.3,29.7c-0.4-0.4-0.4-1,0-1.4s1-0.4,1.4,0l12.6,12.6l12.5-12.5
	c0.4-0.4,1-0.4,1.4,0s0.4,1,0,1.4L26,42.9C25.8,43.1,25.5,43.2,25.2,43.2z"/>
</svg>
