<?xml version="1.0" encoding="utf-8"?>
<!-- Generator: Adobe Illustrator 26.0.3, SVG Export Plug-In . SVG Version: 6.00 Build 0)  -->
<svg version="1.1" id="Capa_1" xmlns="http://www.w3.org/2000/svg" xmlns:xlink="http://www.w3.org/1999/xlink" x="0px" y="0px"
	 viewBox="0 0 640 734.1" style="enable-background:new 0 0 640 734.1;" xml:space="preserve">
<style type="text/css">
	.st0{fill:#0073A5;}
	.st1{fill:#FFFFFF;}
	.st2{clip-path:url(#SVGID_00000115499971591112282210000013831557220258948782_);}
	.st3{opacity:0.2;enable-background:new    ;}
	.st4{fill:#6993B5;}
	.st5{fill:#AFC5D7;}
	.st6{fill:#8E624F;}
	.st7{fill:#3B2B21;}
	.st8{fill:#553E31;}
	.st9{fill:#434041;}
	.st10{fill:none;stroke:#434041;stroke-miterlimit:10;}
	.st11{fill:#B58363;}
	.st12{fill:#7B4F40;}
	.st13{fill:#DAA17F;}
	.st14{fill:#1D1611;}
	.st15{fill:#D8946D;}
	.st16{fill:#E9AD89;}
	.st17{fill:#F4D2BB;}
	.st18{fill:#D7B69F;}
	.st19{fill:#FCDFC7;}
	.st20{fill:#B07F63;}
	.st21{fill:#A0725C;}
	.st22{fill:#37302D;}
	.st23{fill:#A07A61;}
	.st24{fill:#E8BC00;}
	.st25{fill:#DDBDA6;}
	.st26{clip-path:url(#SVGID_00000012463567560792786800000006172461524142151304_);}
	.st27{clip-path:url(#SVGID_00000171699060686090577340000007300173816701035959_);fill:#9B6E4E;}
	.st28{clip-path:url(#SVGID_00000004505174800079809080000004948673938329525134_);fill:#EF9195;}
	.st29{clip-path:url(#SVGID_00000161628647013628013050000016456788873256553640_);}
	.st30{clip-path:url(#SVGID_00000044871052742569016130000006363200598895023525_);fill:#CE5351;}
	.st31{clip-path:url(#SVGID_00000174582627440184623690000001952309133267633327_);fill:#E8695F;}
	.st32{clip-path:url(#SVGID_00000067926617094616346000000007134232736873213590_);fill:#FDFDFD;}
	.st33{clip-path:url(#SVGID_00000113324512593498158870000007408149613730958740_);fill:#0B75A4;}
	.st34{clip-path:url(#SVGID_00000009552328426497970970000004830130603583766149_);}
	.st35{clip-path:url(#SVGID_00000126292662847885684080000000895040060345499822_);}
	.st36{clip-path:url(#SVGID_00000102541595791884706780000008129649388536198798_);fill:#9B6E4E;}
	.st37{clip-path:url(#SVGID_00000093152944008001402480000017428932929629244861_);fill:#EF9195;}
	.st38{clip-path:url(#SVGID_00000076570764901368903210000018366101448961874349_);}
	.st39{clip-path:url(#SVGID_00000152228558824488739120000006397037087580595381_);fill:#CE5351;}
	.st40{clip-path:url(#SVGID_00000171684568116431148510000005252134096671951245_);fill:#E8695F;}
	.st41{clip-path:url(#SVGID_00000078045375289850631020000001818718266355234746_);fill:#FDFDFD;}
</style>
<g>
	<rect class="st0" width="640" height="734.1"/>
	<g>
		<circle class="st1" cx="320" cy="406.7" r="183.9"/>
		<g>
			<g>
				<defs>
					<circle id="SVGID_1_" cx="320" cy="406.7" r="140.6"/>
				</defs>
				<clipPath id="SVGID_00000088835645800984463680000002264161847137345443_">
					<use xlink:href="#SVGID_1_"  style="overflow:visible;"/>
				</clipPath>
				<g style="clip-path:url(#SVGID_00000088835645800984463680000002264161847137345443_);">
					<path class="st3" d="M400.5,370.5c-1.1-2.3-2.6-4.6-4.2-6.5c0-0.1-0.1-0.1-0.1-0.1c4.7-1.7,12.3-5.4,13.2-11.8c0,0,1-7-8-2.5
						c0,0-3.6,1.7-12.5,3.5l-2.1-5.8l0,0l-2.6-7.3l0,0l-7.6-21.6c0,0-0.2-1.7-3.5-2.2c0,0-19.5-4.6-43.9-5.2l0,0l0,0
						c-24.4,0.6-43.9,5.2-43.9,5.2c-3.3,0.5-3.5,2.2-3.5,2.2l-1.7,5h0.1l-5.9,16.6l0,0l-4.1,11.7l0,0l-0.5,1.5
						c-8.8-1.9-12.5-3.5-12.5-3.5c-9.1-4.6-8,2.5-8,2.5c0.8,5.8,7.2,9.4,11.9,11.3c-4.4,9.8-7.8,23.9-8.6,27.2
						c-7.6,8.8-14.3,18.6-16.1,27c0,0-0.7,4.8,0.1,11.6c1.1,10.9,5.6,27.5,22.5,39.1c0.1,0.1,0.2,0.2,0.3,0.2
						c0.4,0.3,0.8,0.5,1.2,0.8c0.2,0.2,0.4,0.3,0.7,0.4c0.3,0.2,0.6,0.4,0.9,0.6c0.3,0.2,0.7,0.4,1,0.6c0.2,0.1,0.4,0.3,0.6,0.4
						c0.4,0.3,0.9,0.5,1.3,0.7c0.1,0.1,0.3,0.1,0.4,0.2c0.5,0.3,1.1,0.6,1.6,0.8c0.1,0,0.1,0.1,0.2,0.1c4.6,2.2,9.7,4.1,15.7,5.5
						c0.1,0,0.2,0.1,0.3,0.1c0.7,0.2,1.4,0.3,2.2,0.5c0.3,0.1,0.5,0.1,0.8,0.2c0.6,0.1,1.1,0.2,1.7,0.3c0.2,0.1,0.3,0.1,0.4,0.1
						c-4,12-13,36.5-15.7,41.4c0,0-2.9,5,0.8,6.2l1.7,3.6l-4.8,13.9c0,0-2.8,4.8,3.4,5.4c0,0,33.3,17.2,86-0.4c0,0,1.4-0.2,2.4-1.3
						c0.7-0.2,1.3-0.4,2-0.6c0,0,2.9-0.5,3.4-3.2c3.1-0.3,7.7-1.4,13.3-4.2c2.8-1.1,5.8-2.5,9.2-4.7c0,0,1.2,0,0-5
						c0,0-6.7-38.8-12.5-61.5c0.9-0.4,1.8-0.9,2.8-1.5c2.4-1.6,4.7-3.6,6.5-5.8c2.7-3.2,4.8-7,6-11.1c0.8-2.6,0.3-3.5,3.2-4.1
						c2.4-0.5,4.8-1.1,7.1-2.1c3-1.3,5.8-3.4,7.3-6.2c1.5-2.6,1.8-5.8,2-8.8C413.1,409.4,409.4,388.8,400.5,370.5z M288,479.9
						L288,479.9L288,479.9L288,479.9z"/>
					<g>
						<path class="st4" d="M283,444.2c4.1,0,8.2-0.1,12.3,0c3.9,0.1,6.6,2.4,6.5,5.7c-0.1,3.3-2.6,5.7-6.6,5.8
							c-8.3,0.1-16.6,0.1-24.9,0c-3.9-0.1-6.5-2.6-6.4-5.9c0.1-3.2,2.8-5.5,6.5-5.6C274.7,444.2,278.9,444.2,283,444.2z"/>
						<path class="st5" d="M321,477.9c-4.1,0-8.2,0-12.3,0c-3.8,0-6-1.9-6.2-5c-0.2-3.5,2.1-6.4,5.8-6.5c8.6-0.2,17.2-0.2,25.7,0
							c3.9,0.1,6.3,2.9,6.1,6.2c-0.2,3.1-2.9,5.2-6.7,5.2C329.2,477.9,325.1,477.9,321,477.9z"/>
						<path class="st4" d="M352.4,496.4c0,3.3-2.6,5.7-6.2,5.7c-3.3-0.1-6-2.5-6-5.7c-0.1-3.3,2.6-5.8,6.1-5.8
							C349.8,490.6,352.4,493.2,352.4,496.4z"/>
						<path class="st4" d="M290.7,466.3c3.5,0,6.2,2.5,6.1,5.8c-0.1,3.1-2.6,5.6-6,5.7c-3.5,0.1-6.2-2.4-6.2-5.7
							C284.6,468.8,287.2,466.4,290.7,466.3z"/>
						<path class="st4" d="M310,444.2c3.5,0,6,2.3,6,5.6c0.1,3.3-2.6,5.9-6.1,5.9c-3.4,0-6.2-2.7-6.1-5.9
							C303.9,446.6,306.6,444.2,310,444.2z"/>
						<path class="st5" d="M365.9,502.2c-3.5,0-6.1-2.4-6.1-5.8c0-3.3,2.7-5.8,6.2-5.8c3.2,0.1,6,2.6,6.1,5.7
							C372,499.6,369.3,502.1,365.9,502.2z"/>
						<path class="st6" d="M370.7,479.6l-85-7.1c-2.3,7.9-13.9,40-17,45.7c0,0-4.7,6.6-1,7.8l3.4,1.9l-4.7,13.7c0,0-2.7,4.7,3.4,5.3
							c0,0,32.9,17,85-0.4c0,0,4.1-0.7,3.3-5c0,0,9,1.5,22.3-6.8c0,0,1.2,0,0-5C380.5,529.7,375.7,501.8,370.7,479.6z"/>
						<path class="st7" d="M246.2,388.8c0.5,2.4,2.4,4.2,4.5,5.5c5.5,3.3,11.2,6.2,16.7,9.5c11.2,6.7,22,13.9,32.7,21.2
							c10.7,7.3,21.4,14.7,32.2,21.8c5.5,3.5,10.9,7,16.5,10.4c5.5,3.3,11.1,6.7,16.9,9.5c3.2,1.5,5.6,0.5,8.4-1.3
							c2.4-1.6,4.7-3.6,6.5-5.8c2.7-3.2,4.8-7,6-11.1c0.8-2.6,0.3-3.5,3.2-4.1c2.4-0.5,4.8-1.1,7.1-2.1c3-1.3,5.8-3.4,7.3-6.2
							c1.5-2.6,1.8-5.8,2-8.8c1.1-20.3-2.7-40.9-11.5-59.2c-1.1-2.3-2.6-4.6-4.2-6.5c-1.2-1.4-3.2-1-4.9-1c-2.1-0.1-4.3-0.1-6.4-0.1
							c-4.3-0.1-8.5-0.1-12.8-0.2c-17.2-0.3-34.4-0.6-51.6-1.1c-18.4-0.5-36.7-1.1-55.1-1.7c-0.3-0.4-0.8-0.6-1.4-0.6
							c-0.6,0-1.1,0.2-1.4,0.5c-0.1,0-0.1,0-0.1,0C250.8,368.1,246.2,388.8,246.2,388.8z"/>
						<path class="st8" d="M390.8,413.5c-1.9-13.6-5-27.2-11.2-39.6c-1.5-3-3.2-5.9-5-8.7c-1.8-2.8-3.8-5.9-6.3-8.2
							c-1.3-1.2-3.3-0.6-5-0.4c-2.1,0.2-4.2,0.4-6.4,0.6c-4.2,0.4-8.5,0.8-12.8,1.3c-10.9,1.1-21.8,2.1-32.6,3.2l10.2,87.4
							c5.4,2.6,10.9,5.3,16.4,7.7c5.9,2.6,11.9,5.4,18,7.5c3.3,1.1,5.7-0.1,8.2-2.3c2.2-1.9,4.2-4.1,5.8-6.5
							c3.1-4.7,4.8-9.9,5.1-15.3c5.1-1.6,10.5-3.8,13.9-7.8C393.4,427.1,391.6,419.8,390.8,413.5z"/>
						<ellipse class="st9" cx="301.2" cy="395" rx="1.5" ry="1.4"/>
						<ellipse class="st9" cx="344.1" cy="395" rx="1.5" ry="1.4"/>
						<path class="st10" d="M313.6,431c0,0,8.2,1.6,19.5-5.6"/>
						<path class="st10" d="M322.4,413.3c-1.5,1.1-3.6,0.7-4.7-0.6c-1.1-1.4-0.8-3.4,0.7-4.4"/>
						<g>
							<g>
								<path class="st11" d="M313,444.9c-35-0.6-36.6-13.9-36.6-13.9c-6.2-23.9,13.7-43.5,13.7-43.5l-17.8-25
									c0,0-37.2,31.1-42,52.6c0,0-7.5,52.6,53.8,62.6c0,0-9.2,31.7-13.1,39.1c0,0-4.7,6.7-1,7.9l3.5,1.9l-4.8,13.9
									c0,0-2.8,4.8,3.4,5.4c0,0,33.3,17.2,86-0.4c0,0,4.1-0.7,3.3-5.1c0,0,9.1,1.5,22.6-6.9c0,0,1.2,0,0-5
									c0,0-12.7-73.6-18.3-77.4c0,0-2.8-4.4-7.8-3.4l-10.2,1.3l-0.2-5.3L313,444.9z"/>
								<g>
									<path class="st12" d="M287.2,446.2l3.1,19.3c0,0,0.1,7,6.8,5c5.9-1.8,2.7,1.6,2.7,1.6l-3.1,5.9c0,0-1.7,2.2,1.5,5.1
										l32.6,33.8l-33.1-71.4l-10.5-2.2V446.2L287.2,446.2z"/>
									<path class="st6" d="M288.7,446.7l3.1,19c0,0,0.1,6.9,6.8,4.9c5.9-1.7,2.7,1.6,2.7,1.6l-3.1,5.8c0,0-1.7,2.1,1.5,5
										l32.6,33.4L299.1,446l-10.5-2.1L288.7,446.7L288.7,446.7z"/>
									<path class="st12" d="M358.2,445.5l-3.1,19c0,0-0.1,6.9-6.8,4.9c-5.9-1.7-2.7,1.6-2.7,1.6l3.1,5.8c0,0,1,1.8-1.5,5
										L329.5,510l-2.9-4.7l21.1-60.5l10.5-2.1V445.5z"/>
									<path class="st6" d="M356.8,445.5l-3.1,19c0,0-0.1,6.9-6.8,4.9c-5.9-1.7-2.7,1.6-2.7,1.6l3.1,5.8c0,0,1,1.8-1.5,5
										L328.1,510l-2.9-4.7l21.1-60.5l10.5-2.1V445.5z"/>
									<g>
										<polygon class="st13" points="299.5,442.7 324.3,507.7 345.9,446.9 										"/>
										<g>
											<g>
												<g>
													<polygon class="st14" points="315.6,485.5 319.5,477.5 326.6,477.5 332.2,485.3 324.3,507.7 													"/>
													<path class="st14" d="M311.8,463.1l8.8,16.5c0,0,1.5,2.1,4.8,0l11.6-16.5l-13.8-6.3L311.8,463.1z"/>
													<path class="st7" d="M311.8,459.3l8.8,16.5c0,0,1.5,2.1,4.8,0l11.6-16.5l-13.8-6.3L311.8,459.3z"/>
												</g>
												<g>
													<path class="st15" d="M296.8,442l12.5,34c0,0,2,3.4,4.2,0l15.6-22.3L296.8,442z"/>
													<g>
														<path class="st15" d="M350.1,442l-12.5,34c0,0-2,3.4-4.2,0l-15.6-22.3L350.1,442z"/>
													</g>
												</g>
												<g>
													<path class="st16" d="M299.2,439.3l11.6,31.8c0,0,1.9,3.2,3.9,0l14.6-20.9L299.2,439.3z"/>
													<g>
														<path class="st16" d="M348,438.9l-11.6,31.8c0,0-1.9,3.2-3.9,0l-14.6-20.9L348,438.9z"/>
													</g>
												</g>
											</g>
										</g>
									</g>
								</g>
							</g>
							<path class="st17" d="M312.8,444.6l0.5,6.1l8.3,7c0,0,1.7,1.1,4.1,0l6-7.5l-0.7-6.1L312.8,444.6z"/>
							<path class="st18" d="M315.8,451.4c1.9,0.4,3.8,0.7,5.7,0.8c3.6,0.2,7.3-0.6,10.8-1.3c1.7-0.4,3.5-0.7,5.1-1.4
								c1-0.4,2-1.1,2.1-2c0.1-0.8-0.7-1.4-1.5-1.7c-1-0.4-2.1-0.6-3.2-0.8c-6.7-0.6-13.6,2.5-20.3,2.4c-0.6,0-1.2-0.1-1.7,0.1
								c-0.8,0.2-1.4,0.6-2,1.2c-0.8,0.7-0.3,0.9,0.5,1.3C312.6,450.7,314.2,451.1,315.8,451.4z"/>
						</g>
						<path class="st19" d="M378.6,404.7c-1.5-17.4-12.3-39.8-12.3-39.8l-39.2-1.3v-0.2l-3.3,0.1l-3.3-0.1v0.2l-39.2,1.3
							c0,0-10.9,22.4-12.3,39.8c0,0-5.6,46.6,54.9,46.4C387.7,451.3,378.6,404.7,378.6,404.7z"/>
						<path class="st7" d="M350.6,358.5c-10.3-0.3-20.5-0.5-30.8-0.4c-4.9,0-9.8,0.1-14.8,0.2c-3.5,0.1-9.4-1-10.6,3.2
							c-0.3,1.2,0.1,2.1,0.7,2.7c-0.5,0.6-0.7,1.4-0.4,2.4c1.7,6.3,8.2,9.7,14.5,11.2c6.8,1.6,14,1.3,20.7-0.7c3.2,3.3,8.7,4,13.1,2
							c6.2-2.8,8.7-9.3,10.3-15.1c0.1-0.4,0.2-0.8,0.1-1.2C354,360.9,353.1,358.5,350.6,358.5z"/>
						<path class="st8" d="M351.2,354.6c-10.3-0.3-20.5-0.5-30.8-0.4c-4.9,0-9.8,0.1-14.8,0.2c-3.5,0.1-9.4-1-10.6,3.2
							c-0.3,1.2,0.1,2.1,0.7,2.7c-0.5,0.6-0.7,1.4-0.4,2.4c1.7,6.3,8.2,9.7,14.5,11.2c6.8,1.6,14,1.3,20.7-0.7c3.2,3.3,8.7,4,13.1,2
							c6.2-2.8,8.7-9.3,10.3-15.1c0.1-0.4,0.2-0.8,0.1-1.2C354.7,357.1,353.8,354.7,351.2,354.6z"/>
						<g>
							<g>
								<g>
									<path class="st11" d="M370.7,315.9c0,0-0.2-1.7-3.5-2.2c0,0-19.5-4.6-43.9-5.2c-24.4,0.6-43.9,5.2-43.9,5.2
										c-3.3,0.5-3.5,2.2-3.5,2.2L263.5,351l28.8,7.8l31-2.6l31,2.6l28.8-7.8L370.7,315.9z"/>
								</g>
							</g>
							<path class="st20" d="M364.7,325c-4.4,0.7-8.9,1.4-13.2,2.7c-4,1.3-14.1,4.8-15.8-1.3c-0.1-0.1-0.1-0.2-0.1-0.3
								c-0.3,0-0.7,0-1,0c-0.6,0-1.3,0.1-2,0.2c-1.8,0.2-3.6,0.3-5.3,0.4c-4.3,0.4-8.7,1.1-13,1.6c-3.9,0.5-7.9,1-11.9,0.7
								c-2-0.2-4.1-0.5-5.9-1.3c-1.5-0.6-2.8-1.6-4.4-2c-6.5-1.3-13.6-0.2-20,1.7l-7.6,21.1c4.4-2.1,10.4-2.4,15-3
								c10.7-1.2,21.5-1,32.2-1.3c10-0.3,20.1-0.2,30.1-0.5c9.5-0.3,19-1.3,28.2-3.5c2.8-0.6,5.5-1.4,8.2-2.4l-5-14
								C370.3,324.2,367.4,324.6,364.7,325z"/>
							<path class="st21" d="M280.5,319.7c4.4-0.5,9.5-1,13.8,0.3c1.6,0.5,2.9,1.5,4.4,2.1c1.8,0.7,3.9,0.8,5.8,0.9
								c4.1,0.1,8.1-0.6,12.1-1.1c4.6-0.6,9.1-1.3,13.7-1.6c2.3-0.2,5.9-1.1,7.9,0.5c1,0.8,0.8,2.3,2.1,2.8c1.2,0.4,2.6,0.1,3.8-0.2
								c2.9-0.6,5.7-1.7,8.5-2.4c6.1-1.4,12.4-2.4,18.7-3.1l-0.7-2.1c0,0-0.2-1.7-3.5-2.2c0,0-19.5-4.6-43.9-5.2
								c-24.4,0.6-43.9,5.2-43.9,5.2c-3.3,0.5-3.5,2.2-3.5,2.2l-1.7,5C276.2,320.4,278.4,320,280.5,319.7z"/>
							<polygon points="268.3,337.5 263.5,351 292.3,358.8 323.3,356.2 354.4,358.8 383.2,351 378.3,337.5 							"/>
							<path class="st14" d="M287.9,343c8.6,0,17.3,0.1,25.8,1.1c8.5,1,16.9,3.4,25.5,3.9c9.1,0.5,18.1-0.8,27.1-2
								c4.9-0.6,9.7-1,14.6-1.2l-2.6-7.3H268.3l-2.6,7.4C272.9,343.3,280.4,343,287.9,343z"/>
							<path d="M362.7,350.3c-8.7,1.1-17.6,2.3-26.4,1.3c-8.5-1-16.7-3.1-25.2-4c-8.4-0.8-16.9-0.8-25.4-0.8
								c-7.3,0.1-14.6,0.5-21.6,2.3l-0.6,1.9l28.8,7.8l31-2.6l31,2.6l28.8-7.8l-0.8-2.4C375.8,348.9,369.3,349.5,362.7,350.3z"/>
							<ellipse class="st22" cx="324.7" cy="332.3" rx="18.4" ry="19.1"/>
							<path class="st14" d="M395.5,347c0,0-18,8.5-72.2,8.4c-54.2,0.1-72.2-8.4-72.2-8.4c-9.1-4.6-8,2.5-8,2.5
								c1.3,9.3,16.9,12.9,16.9,12.9c11.1,3.1,52.3,4.6,63.3,4.7c11-0.1,52.2-1.6,63.3-4.7c0,0,15.6-3.6,16.9-12.9
								C403.6,349.6,404.5,342.5,395.5,347z"/>
						</g>
						<polyline class="st6" points="332.2,516.4 331,552.7 329.4,513.5 						"/>
						<ellipse class="st6" cx="323.8" cy="521.3" rx="3.3" ry="3.1"/>
						<ellipse class="st6" cx="323.9" cy="531.9" rx="3.3" ry="3.1"/>
						<polygon class="st6" points="356.8,499.9 363.2,541.1 359.7,541.9 						"/>
						<path class="st23" d="M336.2,398.7c0.3-1.9,1-3.7,2.1-5.3c1.7-2.5,4.2-3.4,7.3-2.5c3.6,1.1,5.8,3.7,7.5,6.7
							c0.1,0.2,0.1,0.5,0.1,0.9c-2.3-2.9-4.7-5.3-8.7-5.3C340.3,393.1,338.1,395.7,336.2,398.7z"/>
						<path class="st23" d="M296.3,398.7c1.2-2.5,2.4-5,4.9-6.6c2.2-1.4,4.2-1.1,5.9,0.8c1.7,2,2.5,4.3,3.2,6.8
							c-0.8-1.2-1.5-2.4-2.5-3.4c-2.1-2.2-4-2.5-6.8-1.2C299.1,396,297.7,397.4,296.3,398.7z"/>
						<path d="M321.1,337.7c1,0.7,2,0.1,3,0.4c-0.2,0.3-0.4,0.6-0.6,0.8c-1,0.8-2.1,1.2-3.4,1.1c-0.2,0-0.4-0.2-0.4-0.4
							c0-0.4-0.3-0.4-0.5-0.5c-0.6-0.1-1.3-0.2-1.7-0.5c-0.7-0.4-1.5-0.5-2.3-0.5c-0.3,0-0.7,0-1.1,0c0.1-0.5,0.1-1,0.2-1.4
							c0.1-0.5,0-0.9-0.2-1.4c-0.2-0.6-0.3-1.3-0.4-2c-0.1-0.5-0.1-0.8-0.8-0.7c0.1-0.5,0.2-0.8,0.3-1.2c0.3-1.1,1-1.8,1.9-2.4
							c0.2-0.1,0.4-0.1,0.6-0.1c0,0.2,0,0.3,0,0.5c-0.1,0.5-0.1,1-0.2,1.5c-0.1,0.3-0.1,0.7-0.3,1c-0.5,0.7,0.2,2.6,1.1,2.8
							c0.1,0,0.3-0.1,0.4-0.1c2.2-1.6,4.3-3.3,6.6-5c-0.3-0.3-0.5-0.5-0.8-0.7c-0.4,0.3-0.8,0.8-1.4,0.3c-0.4-0.4,0-0.8,0.4-1.2
							c-0.3-0.3-0.6-0.6-1.2-0.5c-1,0.2-1.8-0.5-2-1.4c-0.2-0.7,0.4-1.4,1.1-1.6c1.1-0.3,2.3,0.5,2.2,1.6c-0.1,0.6,0.4,0.8,0.7,1.1
							c0.4-0.3,0.7-0.7,1.2-0.3c0.4,0.3,0.2,0.7-0.2,1.1c1.1,1,0.8,1,2.1-0.1c-0.3-0.3-0.6-0.7-0.1-1.1c0.5-0.4,0.8,0.1,1.2,0.3
							c0.4-0.3,0.8-0.4,0.7-1.1c-0.1-0.8,0.7-1.6,1.6-1.7c0.8-0.1,1.6,0.4,1.7,1.3c0.2,1-0.8,2.1-2,1.9c-0.5-0.1-0.8,0.1-1.1,0.5
							c0.3,0.4,0.8,0.7,0.3,1.2c-0.5,0.5-0.9-0.1-1.3-0.4c-0.3,0.3-0.6,0.5-1,0.8c1.1,0.8,2.2,1.6,3.2,2.4c1.1,0.8,2.2,1.6,3.3,2.5
							c0.4,0.3,0.7,0.3,1.1-0.1c0.6-0.6,0.8-1.3,0.8-2.1c0-0.1,0-0.2-0.1-0.2c-0.6-0.5-0.5-1.1-0.5-1.7c0-0.3-0.1-0.6-0.1-0.9
							c0-0.2,0-0.4,0.1-0.5c0.2,0.1,0.4,0.1,0.6,0.1c0.9,0.6,1.6,1.3,1.9,2.3c0.2,0.4,0.2,0.8,0.3,1.2c-0.8,0.2-0.7,0.2-0.8,1
							c-0.1,0.7-0.4,1.4-0.5,2.2c-0.1,0.5,0,1.1,0.1,1.7c0,0.2,0.1,0.5,0.1,0.7c-0.7,0-1.3-0.1-1.9,0c-0.3,0-0.7,0.1-1,0.3
							c-0.7,0.4-1.5,0.7-2.3,0.7c-0.3,0-0.4,0.1-0.5,0.4c0,0.2-0.3,0.4-0.4,0.4c-1.3,0-2.6-0.3-3.5-1.3c-0.2-0.2-0.3-0.4-0.5-0.6
							c1-0.4,2.1,0.3,3-0.4c0.5,0.7,1.1,0.4,1.6,0.2c0.4-0.2,0.8-0.4,1.2-0.7c0.5-0.4,0.5-0.6,0-1.1c-1.2-1-2.3-2-3.5-3
							c-1-0.8-1.9-1.6-2.8-2.4c-1.6,1.4-3.2,2.7-4.8,4.1c-0.5,0.4-1.1,0.9-1.5,1.3c-0.4,0.4-0.4,0.6,0.1,1s1,0.6,1.5,0.8
							C320.2,338.2,320.7,338.4,321.1,337.7z M329.2,326.6c-0.1,0.1-0.2,0.2-0.2,0.2c0.7-0.2,1-0.5,1-0.9c-0.1-0.4-0.3-0.6-0.7-0.6
							c-0.4-0.1-0.8,0.3-1,0.8c0.1-0.1,0.2-0.2,0.3-0.3C328.7,326.2,328.9,326.4,329.2,326.6z M320.1,326.9c0.3-0.3,0.5-0.5,0.7-0.7
							c-0.2-0.6-0.5-0.8-1-0.7c-0.4,0.1-0.6,0.3-0.6,0.6S319.4,326.7,320.1,326.9z"/>
						<path class="st24" d="M320.6,337.2c1,0.7,2,0.1,3,0.4c-0.2,0.3-0.4,0.6-0.6,0.8c-1,0.8-2.1,1.2-3.4,1.1
							c-0.2,0-0.4-0.2-0.4-0.4c0-0.4-0.3-0.4-0.5-0.5c-0.6-0.1-1.3-0.2-1.7-0.5c-0.7-0.4-1.5-0.5-2.3-0.5c-0.3,0-0.7,0-1.1,0
							c0.1-0.5,0.1-1,0.2-1.4c0.1-0.5,0-0.9-0.2-1.4c-0.2-0.6-0.3-1.3-0.4-2c-0.1-0.5-0.1-0.8-0.8-0.7c0.1-0.5,0.2-0.8,0.3-1.2
							c0.3-1.1,1-1.8,1.9-2.4c0.2-0.1,0.4-0.1,0.6-0.1c0,0.2,0,0.3,0,0.5c-0.1,0.5-0.1,1-0.2,1.5c-0.1,0.3-0.1,0.7-0.3,1
							c-0.5,0.7,0.2,2.6,1.1,2.8c0.1,0,0.3-0.1,0.4-0.1c2.2-1.6,4.3-3.3,6.6-5c-0.3-0.3-0.5-0.5-0.8-0.7c-0.4,0.3-0.8,0.8-1.4,0.3
							c-0.4-0.4,0-0.8,0.4-1.2c-0.3-0.3-0.6-0.6-1.2-0.5c-1,0.2-1.8-0.5-2-1.4c-0.2-0.7,0.4-1.4,1.1-1.6c1.1-0.3,2.3,0.5,2.2,1.6
							c-0.1,0.6,0.4,0.8,0.7,1.1c0.4-0.3,0.7-0.7,1.2-0.3c0.4,0.3,0.2,0.7-0.2,1.1c1.1,1,0.8,1,2.1-0.1c-0.3-0.3-0.6-0.7-0.1-1.1
							c0.5-0.4,0.8,0.1,1.2,0.3c0.4-0.3,0.8-0.4,0.7-1.1c-0.1-0.8,0.7-1.6,1.6-1.7c0.8-0.1,1.6,0.4,1.7,1.3c0.2,1-0.8,2.1-2,1.9
							c-0.5-0.1-0.8,0.1-1.1,0.5c0.3,0.4,0.8,0.7,0.3,1.2c-0.5,0.5-0.9-0.1-1.3-0.4c-0.3,0.3-0.6,0.5-1,0.8c1.1,0.8,2.2,1.6,3.2,2.4
							c1.1,0.8,2.2,1.6,3.3,2.5c0.4,0.3,0.7,0.3,1.1-0.1c0.6-0.6,0.8-1.3,0.8-2.1c0-0.1,0-0.2-0.1-0.2c-0.6-0.5-0.5-1.1-0.5-1.7
							c0-0.3-0.1-0.6-0.1-0.9c0-0.2,0-0.4,0.1-0.5c0.2,0.1,0.4,0.1,0.6,0.1c0.9,0.6,1.6,1.3,1.9,2.3c0.2,0.4,0.2,0.8,0.3,1.2
							c-0.8,0.2-0.7,0.2-0.8,1c-0.1,0.7-0.4,1.4-0.5,2.2c-0.1,0.5,0,1.1,0.1,1.7c0,0.2,0.1,0.5,0.1,0.7c-0.7,0-1.3-0.1-1.9,0
							c-0.3,0-0.7,0.1-1,0.3c-0.7,0.4-1.5,0.7-2.3,0.7c-0.3,0-0.4,0.1-0.5,0.4c0,0.2-0.3,0.4-0.4,0.4c-1.3,0-2.6-0.3-3.5-1.3
							c-0.2-0.2-0.3-0.4-0.5-0.6c1-0.4,2.1,0.3,3-0.4c0.5,0.7,1.1,0.4,1.6,0.2c0.4-0.2,0.8-0.4,1.2-0.7c0.5-0.4,0.5-0.6,0-1.1
							c-1.2-1-2.3-2-3.5-3c-1-0.8-1.9-1.6-2.8-2.4c-1.6,1.4-3.2,2.7-4.8,4.1c-0.5,0.4-1.1,0.9-1.5,1.3c-0.4,0.4-0.4,0.6,0.1,1
							s1,0.6,1.5,0.8C319.7,337.7,320.2,337.9,320.6,337.2z M328.7,326.2c-0.1,0.1-0.2,0.2-0.2,0.2c0.7-0.2,1-0.5,1-0.9
							c-0.1-0.4-0.3-0.6-0.7-0.6c-0.4-0.1-0.8,0.3-1,0.8c0.1-0.1,0.2-0.2,0.3-0.3C328.3,325.7,328.5,325.9,328.7,326.2z
							 M319.6,326.5c0.3-0.3,0.5-0.5,0.7-0.7c-0.2-0.6-0.5-0.8-1-0.7c-0.4,0.1-0.6,0.3-0.6,0.6C318.6,326,318.9,326.3,319.6,326.5z"
							/>
						<path class="st25" d="M292.6,368.4c0.5,0.8,0.8,1.8,0.8,2.8c0.1,1.9-1.1,3.3-2.4,4.5c-1.4,1.3-3.1,2.3-4.2,4
							c1.6,2,3,4.1,4.3,6.3c0.5,0.8,1,1.6,0.9,2.5c-0.1,2.9-2.9,5.1-4.4,7.4c-1.8,2.6-3.4,5.5-4.7,8.4c-4.2,9.2-7.1,20.8-3.4,30.6
							c0.6,1.6,1.6,3.2,1.2,5c-3-3.8-8.7-10.5-10-15.1c-1.7-6.2-0.6-12.9,1.7-19c2.3-6,5.7-11.6,8.4-17.4c0.8-1.8,1.7-4,0.6-5.8
							c-0.8-1.4-2.7-2.1-3.2-3.7c-0.4-1.5,0.8-3.1,2.2-3.9c1.4-0.8,3-1.3,4.1-2.4c1.2-1.1,1.7-3.2,0.4-4.2c-0.6-0.5-1.4-0.7-1.5-1.5
							c-0.1-0.3-0.1-1,0.3-1c1.8,0.3,6.5-0.3,8,1.7C292.2,367.7,292.5,368,292.6,368.4z"/>
						<path class="st19" d="M270.8,364.9l21.7-20c0,0,3.2-3.1,5.9-1.9c0,0,1.1,0.3-1,4l-4.8,8.8c0,0,0,0-3.1,4.8l-3.3,5.5l4.2,2.3
							c0,0,3,1.5,0.2,4l-9.2,7.2L270.8,364.9z"/>
						<g>
							<g>
								<defs>
									<path id="SVGID_00000009589835401823744340000003291629917155105437_" d="M282,438.7c-4.1-3.8-5.6-7-5.6-7
										c-5.8-18.6,6.4-34.9,11.4-41c1.4-1.6,2.3-2.5,2.3-2.5l-1.7-2.4l-16.1-22.7c0,0-37.2,31.1-42,52.6c0,0-7.3,50.8,51.8,61.6
										L282,438.7z"/>
								</defs>
								<clipPath id="SVGID_00000111163705857189752930000010817675880978200977_">
									<use xlink:href="#SVGID_00000009589835401823744340000003291629917155105437_"  style="overflow:visible;"/>
								</clipPath>
								<g style="clip-path:url(#SVGID_00000111163705857189752930000010817675880978200977_);">
									<g>
										<path class="st11" d="M282,438.7c-4.1-3.8-5.6-7-5.6-7c-5.8-18.6,6.4-34.9,11.4-41c1.4-1.6,2.3-2.5,2.3-2.5l-1.7-2.4
											l-16.1-22.7c0,0-37.2,31.1-42,52.6c0,0-7.3,50.8,51.8,61.6L282,438.7z"/>
									</g>
								</g>
							</g>
							<g>
								<defs>
									<path id="SVGID_00000140721244515132275420000001866303979754302897_" d="M282,438.7c-4.1-3.8-5.6-7-5.6-7
										c-5.8-18.6,6.4-34.9,11.4-41c1.4-1.6,2.3-2.5,2.3-2.5l-1.7-2.4l-16.1-22.7c0,0-37.2,31.1-42,52.6c0,0-7.3,50.8,51.8,61.6
										L282,438.7z"/>
								</defs>
								<clipPath id="SVGID_00000168089050621741657700000015166167897781653889_">
									<use xlink:href="#SVGID_00000140721244515132275420000001866303979754302897_"  style="overflow:visible;"/>
								</clipPath>
								<path style="clip-path:url(#SVGID_00000168089050621741657700000015166167897781653889_);fill:#9B6E4E;" d="M280.9,397.7
									c-1.9,3.3-3.7,6.5-5.1,10c-2.7,6.7-3.7,14.2-1.6,21.2c2.1,6.9,5,9.2,11.9,11.1c0.4,0.1,1.3,1,0.4,0.3
									c-1.3-1-2.6-1.8-3.9-2.8c-3.8-3.3-5.7-8.3-5.9-13.3c-0.3-5,1-10,2.7-14.7c2.6-7.3,6.5-14.2,11.2-20.4c0.5-0.6,1-1.3,0.9-2.1
									c-0.3-3.1-5,2.3-5.5,3C283.9,392.4,282.4,395.1,280.9,397.7z"/>
							</g>
						</g>
						<g>
							<g>
								<defs>
									<path id="SVGID_00000155124635713035667430000011413158907419618716_" d="M302.2,426.2c1.9,2.6,4.2,4.8,6.9,6.5
										c6.8,4.4,15.9,6.4,23.9,4.6c2.5-0.6,4.9-1.5,7-2.9c1.4-0.9,2.8-2,4-3.2c1.9-2,4.2-4.8,5.5-7.3c0.4-0.7,3.3-9,3-9.2
										c-2.2-1-3.5,3.2-27,6.5c-3.2,0.5-14.1,0.4-17.3-0.3c-1.3-0.3-3.1-0.7-4.4-1c-1.1-0.3-2.6-0.8-3.8-0.6
										c-1.4,0.3-0.7,1.7-0.2,2.6c0.8,1.3,1.5,2.7,2.4,4C302.2,426.1,302.2,426.2,302.2,426.2z"/>
								</defs>
								<clipPath id="SVGID_00000100345531724102372240000006787711346874134404_">
									<use xlink:href="#SVGID_00000155124635713035667430000011413158907419618716_"  style="overflow:visible;"/>
								</clipPath>
								<path style="clip-path:url(#SVGID_00000100345531724102372240000006787711346874134404_);fill:#EF9195;" d="M302.2,426.2
									c1.9,2.6,4.2,4.8,6.9,6.5c6.8,4.4,15.9,6.4,23.9,4.6c2.5-0.6,4.9-1.5,7-2.9c1.4-0.9,2.8-2,4-3.2c1.9-2,4.2-4.8,5.5-7.3
									c0.4-0.7,3.3-9,3-9.2c-2.2-1-3.5,3.2-27,6.5c-3.2,0.5-14.1,0.4-17.3-0.3c-1.3-0.3-3.1-0.7-4.4-1c-1.1-0.3-2.6-0.8-3.8-0.6
									c-1.4,0.3-0.7,1.7-0.2,2.6c0.8,1.3,1.5,2.7,2.4,4C302.2,426.1,302.2,426.2,302.2,426.2z"/>
							</g>
							<g>
								<defs>
									<path id="SVGID_00000023240984245705707940000007483807264096545445_" d="M302.2,426.2c1.9,2.6,4.2,4.8,6.9,6.5
										c6.8,4.4,15.9,6.4,23.9,4.6c2.5-0.6,4.9-1.5,7-2.9c1.4-0.9,2.8-2,4-3.2c1.9-2,4.2-4.8,5.5-7.3c0.4-0.7,3.3-9,3-9.2
										c-2.2-1-3.5,3.2-27,6.5c-3.2,0.5-14.1,0.4-17.3-0.3c-1.3-0.3-3.1-0.7-4.4-1c-1.1-0.3-2.6-0.8-3.8-0.6
										c-1.4,0.3-0.7,1.7-0.2,2.6c0.8,1.3,1.5,2.7,2.4,4C302.2,426.1,302.2,426.2,302.2,426.2z"/>
								</defs>
								<clipPath id="SVGID_00000039835240751020295930000001772956618077924524_">
									<use xlink:href="#SVGID_00000023240984245705707940000007483807264096545445_"  style="overflow:visible;"/>
								</clipPath>
								<g style="clip-path:url(#SVGID_00000039835240751020295930000001772956618077924524_);">
									<g>
										<defs>
											<path id="SVGID_00000113352717138567608510000011812328013779387031_" d="M319.5,429.2c4.1,0.1,8.2-0.4,12.2-1.1
												c1.4-0.3,2.7-0.6,4.1-0.9c0.1,0.3,0.3,0.4,0.6,0.5c2.9,0.8,5.5,2.2,8.2,3.3c-1.7,2.3-4.1,3.7-6.6,4.9
												c-5.7,2.7-11.6,2.9-17.7,1.8c-2.2-0.4-4.2-1-6.2-1.7c-0.5-0.2-1.1-0.3-1.4-0.8C314.7,433,317.1,431.1,319.5,429.2z"/>
										</defs>
										<clipPath id="SVGID_00000066491978393044621520000006625083241818924723_">
											<use xlink:href="#SVGID_00000113352717138567608510000011812328013779387031_"  style="overflow:visible;"/>
										</clipPath>
										<path style="clip-path:url(#SVGID_00000066491978393044621520000006625083241818924723_);fill:#CE5351;" d="M319.4,429.5
											c4.1,0.1,8.2-0.4,12.2-1.1c1.4-0.3,2.7-0.6,4.1-0.9c0.1,0.3,0.3,0.4,0.6,0.5c2.9,0.8,5.5,2.2,8.2,3.3
											c-1.7,2.3-4.1,3.7-6.6,4.9c-5.7,2.7-11.6,2.9-17.7,1.8c-2.2-0.4-4.2-1-6.2-1.7c-0.5-0.2-1.1-0.3-1.4-0.8
											C314.6,433.2,317,431.3,319.4,429.5z"/>
									</g>
									<g>
										<defs>
											<path id="SVGID_00000163031265257932271420000001596103184748169910_" d="M319.5,429.2c4.1,0.1,8.2-0.4,12.2-1.1
												c1.4-0.3,2.7-0.6,4.1-0.9c0.1,0.3,0.3,0.4,0.6,0.5c2.9,0.8,5.5,2.2,8.2,3.3c-1.7,2.3-4.1,3.7-6.6,4.9
												c-5.7,2.7-11.6,2.9-17.7,1.8c-2.2-0.4-4.2-1-6.2-1.7c-0.5-0.2-1.1-0.3-1.4-0.8C314.7,433,317.1,431.1,319.5,429.2z"/>
										</defs>
										<clipPath id="SVGID_00000157289972210864615500000017561335524488364689_">
											<use xlink:href="#SVGID_00000163031265257932271420000001596103184748169910_"  style="overflow:visible;"/>
										</clipPath>
										<path style="clip-path:url(#SVGID_00000157289972210864615500000017561335524488364689_);fill:#E8695F;" d="M320.7,429.4
											c4.1-0.1,8.2-0.7,12.1-1.6c1.4-0.3,2.7-0.7,4.1-1.1c0.1,0.3,0.3,0.4,0.6,0.5c2.9,0.7,5.6,1.9,8.3,3
											c-1.7,2.3-4,3.9-6.4,5.1c-5.6,2.9-11.5,3.3-17.7,2.5c-2.2-0.3-4.2-0.8-6.3-1.5c-0.5-0.2-1.1-0.2-1.4-0.7
											C316.1,433.3,318.4,431.3,320.7,429.4z"/>
									</g>
								</g>
							</g>
							<g>
								<defs>
									<path id="SVGID_00000105416742060202952690000010014906694868234169_" d="M302.2,426.2c1.9,2.6,4.2,4.8,6.9,6.5
										c6.8,4.4,15.9,6.4,23.9,4.6c2.5-0.6,4.9-1.5,7-2.9c1.4-0.9,2.8-2,4-3.2c1.9-2,4.2-4.8,5.5-7.3c0.4-0.7,3.3-9,3-9.2
										c-2.2-1-3.5,3.2-27,6.5c-3.2,0.5-14.1,0.4-17.3-0.3c-1.3-0.3-3.1-0.7-4.4-1c-1.1-0.3-2.6-0.8-3.8-0.6
										c-1.4,0.3-0.7,1.7-0.2,2.6c0.8,1.3,1.5,2.7,2.4,4C302.2,426.1,302.2,426.2,302.2,426.2z"/>
								</defs>
								<clipPath id="SVGID_00000113316281930604522340000009119801793801773747_">
									<use xlink:href="#SVGID_00000105416742060202952690000010014906694868234169_"  style="overflow:visible;"/>
								</clipPath>
								<path style="clip-path:url(#SVGID_00000113316281930604522340000009119801793801773747_);fill:#FDFDFD;" d="M304.6,419.9
									c2.6,0.2,5.3,0.8,8,1c10.1,0.6,20.2-0.2,30-3.1c3-0.9,6-2,8.8-3.4c0.5-0.3,1-0.4,1.7-0.7c-0.1,1.4-0.5,2.6-1,3.8
									c-0.4,0.3-0.8,0.6-1.2,1c-2.9,2.6-6.1,4.7-9.6,6.5c-2.1,1.1-4.3,2-6.5,2.6c-0.8,0.2-1.5,0.4-2.3,0.6
									c-2.3,0.5-4.6,0.9-6.9,1.1c-2.2,0.2-4.6,0.5-6.8,0.3c-1.9-0.2-3.9-0.2-5.8-0.5c-2.8-0.5-5.3-1.5-6.8-4.1
									C305.3,423.5,305,421.6,304.6,419.9z"/>
							</g>
						</g>
					</g>
				</g>
			</g>
			<g>
				<defs>
					<circle id="SVGID_00000160178133102963296730000014248375754880479411_" cx="320" cy="406.7" r="140.6"/>
				</defs>
				<clipPath id="SVGID_00000176010593559580397520000000079595501815672982_">
					<use xlink:href="#SVGID_00000160178133102963296730000014248375754880479411_"  style="overflow:visible;"/>
				</clipPath>
				
					<circle style="clip-path:url(#SVGID_00000176010593559580397520000000079595501815672982_);fill:#0B75A4;" cx="320" cy="406.7" r="140.6"/>
			</g>
			<g>
				<defs>
					<circle id="SVGID_00000073688742188443280860000006097686879738052238_" cx="320" cy="406.7" r="140.6"/>
				</defs>
				<clipPath id="SVGID_00000054984305488832695340000016023266750438247052_">
					<use xlink:href="#SVGID_00000073688742188443280860000006097686879738052238_"  style="overflow:visible;"/>
				</clipPath>
				<g style="clip-path:url(#SVGID_00000054984305488832695340000016023266750438247052_);">
					<path class="st3" d="M395.2,370.5c-1.1-2.3-2.6-4.6-4.2-6.5c0-0.1-0.1-0.1-0.1-0.1c4.7-1.7,12.3-5.4,13.2-11.8c0,0,1-7-8-2.5
						c0,0-3.6,1.7-12.5,3.5l-2.1-5.8l0,0l-2.6-7.3l0,0l-7.6-21.6c0,0-0.2-1.7-3.5-2.2c0,0-19.5-4.6-43.9-5.2l0,0l0,0
						c-24.4,0.6-43.9,5.2-43.9,5.2c-3.3,0.5-3.5,2.2-3.5,2.2l-1.7,5h0.1l-5.9,16.6l0,0l-4.1,11.7l0,0l-0.5,1.5
						c-8.8-1.9-12.5-3.5-12.5-3.5c-9.1-4.6-8,2.5-8,2.5c0.8,5.8,7.2,9.4,11.9,11.3c-4.4,9.8-7.8,23.9-8.6,27.2
						c-7.6,8.8-14.3,18.6-16.1,27c0,0-0.7,4.8,0.1,11.6c1.1,10.9,5.6,27.5,22.5,39.1c0.1,0.1,0.2,0.2,0.3,0.2
						c0.4,0.3,0.8,0.5,1.2,0.8c0.2,0.2,0.4,0.3,0.7,0.4c0.3,0.2,0.6,0.4,0.9,0.6c0.3,0.2,0.7,0.4,1,0.6c0.2,0.1,0.4,0.3,0.6,0.4
						c0.4,0.3,0.9,0.5,1.3,0.7c0.1,0.1,0.3,0.1,0.4,0.2c0.5,0.3,1.1,0.6,1.6,0.8c0.1,0,0.1,0.1,0.2,0.1c4.6,2.2,9.7,4.1,15.7,5.5
						c0.1,0,0.2,0.1,0.3,0.1c0.7,0.2,1.4,0.3,2.2,0.5c0.3,0.1,0.5,0.1,0.8,0.2c0.6,0.1,1.1,0.2,1.7,0.3c0.2,0.1,0.3,0.1,0.4,0.1
						c-4,12-13,36.5-15.7,41.4c0,0-2.9,5,0.8,6.2l1.7,3.6l-4.8,13.9c0,0-2.8,4.8,3.4,5.4c0,0,33.3,17.2,86-0.4c0,0,1.4-0.2,2.4-1.3
						c0.7-0.2,1.3-0.4,2-0.6c0,0,2.9-0.5,3.4-3.2c3.1-0.3,7.7-1.4,13.3-4.2c2.8-1.1,5.8-2.5,9.2-4.7c0,0,1.2,0,0-5
						c0,0-6.7-38.8-12.5-61.5c0.9-0.4,1.8-0.9,2.8-1.5c2.4-1.6,4.7-3.6,6.5-5.8c2.7-3.2,4.8-7,6-11.1c0.8-2.6,0.3-3.5,3.2-4.1
						c2.4-0.5,4.8-1.1,7.1-2.1c3-1.3,5.8-3.4,7.3-6.2c1.5-2.6,1.8-5.8,2-8.8C407.8,409.4,404.1,388.8,395.2,370.5z M282.7,479.9
						L282.7,479.9L282.7,479.9L282.7,479.9z"/>
					<g>
						<path class="st4" d="M277.7,444.2c4.1,0,8.2-0.1,12.3,0c3.9,0.1,6.6,2.4,6.5,5.7c-0.1,3.3-2.6,5.7-6.6,5.8
							c-8.3,0.1-16.6,0.1-24.9,0c-3.9-0.1-6.5-2.6-6.4-5.9c0.1-3.2,2.8-5.5,6.5-5.6C269.4,444.2,273.6,444.2,277.7,444.2z"/>
						<path class="st5" d="M315.7,477.9c-4.1,0-8.2,0-12.3,0c-3.8,0-6-1.9-6.2-5c-0.2-3.5,2.1-6.4,5.8-6.5c8.6-0.2,17.2-0.2,25.7,0
							c3.9,0.1,6.3,2.9,6.1,6.2c-0.2,3.1-2.9,5.2-6.7,5.2C323.9,477.9,319.8,477.9,315.7,477.9z"/>
						<path class="st4" d="M347.1,496.4c0,3.3-2.6,5.7-6.2,5.7c-3.3-0.1-6-2.5-6-5.7c-0.1-3.3,2.6-5.8,6.1-5.8
							C344.5,490.6,347.1,493.2,347.1,496.4z"/>
						<path class="st4" d="M285.4,466.3c3.5,0,6.2,2.5,6.1,5.8c-0.1,3.1-2.6,5.6-6,5.7c-3.5,0.1-6.2-2.4-6.2-5.7
							C279.3,468.8,281.9,466.4,285.4,466.3z"/>
						<path class="st4" d="M304.7,444.2c3.5,0,6,2.3,6,5.6c0.1,3.3-2.6,5.9-6.1,5.9c-3.4,0-6.2-2.7-6.1-5.9
							C298.6,446.6,301.3,444.2,304.7,444.2z"/>
						<path class="st5" d="M360.6,502.2c-3.5,0-6.1-2.4-6.1-5.8c0-3.3,2.7-5.8,6.2-5.8c3.2,0.1,6,2.6,6.1,5.7
							C366.8,499.6,364.1,502.1,360.6,502.2z"/>
						<path class="st6" d="M365.4,479.6l-85-7.1c-2.3,7.9-13.9,40-17,45.7c0,0-4.7,6.6-1,7.8l3.4,1.9l-4.7,13.7c0,0-2.7,4.7,3.4,5.3
							c0,0,32.9,17,85-0.4c0,0,4.1-0.7,3.3-5c0,0,9,1.5,22.3-6.8c0,0,1.2,0,0-5C375.2,529.7,370.4,501.8,365.4,479.6z"/>
						<path class="st7" d="M240.9,388.8c0.5,2.4,2.4,4.2,4.5,5.5c5.5,3.3,11.2,6.2,16.7,9.5c11.2,6.7,22,13.9,32.7,21.2
							c10.7,7.3,21.4,14.7,32.2,21.8c5.5,3.5,10.9,7,16.5,10.4c5.5,3.3,11.1,6.7,16.9,9.5c3.2,1.5,5.6,0.5,8.4-1.3
							c2.4-1.6,4.7-3.6,6.5-5.8c2.7-3.2,4.8-7,6-11.1c0.8-2.6,0.3-3.5,3.2-4.1c2.4-0.5,4.8-1.1,7.1-2.1c3-1.3,5.8-3.4,7.3-6.2
							c1.5-2.6,1.8-5.8,2-8.8c1.1-20.3-2.7-40.9-11.5-59.2c-1.1-2.3-2.6-4.6-4.2-6.5c-1.2-1.4-3.2-1-4.9-1c-2.1-0.1-4.3-0.1-6.4-0.1
							c-4.3-0.1-8.5-0.1-12.8-0.2c-17.2-0.3-34.4-0.6-51.6-1.1c-18.4-0.5-36.7-1.1-55.1-1.7c-0.3-0.4-0.8-0.6-1.4-0.6
							c-0.6,0-1.1,0.2-1.4,0.5c-0.1,0-0.1,0-0.1,0C245.6,368.1,240.9,388.8,240.9,388.8z"/>
						<path class="st8" d="M385.5,413.5c-1.9-13.6-5-27.2-11.2-39.6c-1.5-3-3.2-5.9-5-8.7c-1.8-2.8-3.8-5.9-6.3-8.2
							c-1.3-1.2-3.3-0.6-5-0.4c-2.1,0.2-4.2,0.4-6.4,0.6c-4.2,0.4-8.5,0.8-12.8,1.3c-10.9,1.1-21.8,2.1-32.6,3.2l10.2,87.4
							c5.4,2.6,10.9,5.3,16.4,7.7c5.9,2.6,11.9,5.4,18,7.5c3.3,1.1,5.7-0.1,8.2-2.3c2.2-1.9,4.2-4.1,5.8-6.5
							c3.1-4.7,4.8-9.9,5.1-15.3c5.1-1.6,10.5-3.8,13.9-7.8C388.1,427.1,386.3,419.8,385.5,413.5z"/>
						<ellipse class="st9" cx="295.9" cy="395" rx="1.5" ry="1.4"/>
						<ellipse class="st9" cx="338.8" cy="395" rx="1.5" ry="1.4"/>
						<path class="st10" d="M308.3,431c0,0,8.2,1.6,19.5-5.6"/>
						<path class="st10" d="M317.1,413.3c-1.5,1.1-3.6,0.7-4.7-0.6c-1.1-1.4-0.8-3.4,0.7-4.4"/>
						<g>
							<g>
								<path class="st11" d="M307.7,444.9c-35-0.6-36.6-13.9-36.6-13.9c-6.2-23.9,13.7-43.5,13.7-43.5l-17.8-25
									c0,0-37.2,31.1-42,52.6c0,0-7.5,52.6,53.8,62.6c0,0-9.2,31.7-13.1,39.1c0,0-4.7,6.7-1,7.9l3.5,1.9l-4.8,13.9
									c0,0-2.8,4.8,3.4,5.4c0,0,33.3,17.2,86-0.4c0,0,4.1-0.7,3.3-5.1c0,0,9.1,1.5,22.6-6.9c0,0,1.2,0,0-5
									c0,0-12.7-73.6-18.3-77.4c0,0-2.8-4.4-7.8-3.4l-10.2,1.3l-0.2-5.3L307.7,444.9z"/>
								<g>
									<path class="st12" d="M281.9,446.2l3.1,19.3c0,0,0.1,7,6.8,5c5.9-1.8,2.7,1.6,2.7,1.6l-3.1,5.9c0,0-1.7,2.2,1.5,5.1
										l32.6,33.8l-33.1-71.4l-10.5-2.2V446.2z"/>
									<path class="st6" d="M283.4,446.7l3.1,19c0,0,0.1,6.9,6.8,4.9c5.9-1.7,2.7,1.6,2.7,1.6l-3.1,5.8c0,0-1.7,2.1,1.5,5
										l32.6,33.4L293.8,446l-10.5-2.1L283.4,446.7L283.4,446.7z"/>
									<path class="st12" d="M352.9,445.5l-3.1,19c0,0-0.1,6.9-6.8,4.9c-5.9-1.7-2.7,1.6-2.7,1.6l3.1,5.8c0,0,1,1.8-1.5,5
										L324.2,510l-2.9-4.7l21.1-60.5l10.5-2.1V445.5z"/>
									<path class="st6" d="M351.5,445.5l-3.1,19c0,0-0.1,6.9-6.8,4.9c-5.9-1.7-2.7,1.6-2.7,1.6l3.1,5.8c0,0,1,1.8-1.5,5
										L322.8,510l-2.9-4.7l21.1-60.5l10.5-2.1V445.5z"/>
									<g>
										<polygon class="st13" points="294.2,442.7 319,507.7 340.6,446.9 										"/>
										<g>
											<g>
												<g>
													<polygon class="st14" points="310.3,485.5 314.2,477.5 321.3,477.5 326.9,485.3 319,507.7 													"/>
													<path class="st14" d="M306.6,463.1l8.8,16.5c0,0,1.5,2.1,4.8,0l11.6-16.5l-13.8-6.3L306.6,463.1z"/>
													<path class="st7" d="M306.6,459.3l8.8,16.5c0,0,1.5,2.1,4.8,0l11.6-16.5L318,453L306.6,459.3z"/>
												</g>
												<g>
													<path class="st15" d="M291.5,442l12.5,34c0,0,2,3.4,4.2,0l15.6-22.3L291.5,442z"/>
													<g>
														<path class="st15" d="M344.8,442l-12.5,34c0,0-2,3.4-4.2,0l-15.6-22.3L344.8,442z"/>
													</g>
												</g>
												<g>
													<path class="st16" d="M293.9,439.3l11.6,31.8c0,0,1.9,3.2,3.9,0l14.6-20.9L293.9,439.3z"/>
													<g>
														<path class="st16" d="M342.7,438.9L331,470.7c0,0-1.9,3.2-3.9,0l-14.6-20.9L342.7,438.9z"/>
													</g>
												</g>
											</g>
										</g>
									</g>
								</g>
							</g>
							<path class="st17" d="M307.5,444.6l0.5,6.1l8.3,7c0,0,1.7,1.1,4.1,0l6-7.5l-0.7-6.1L307.5,444.6z"/>
							<path class="st18" d="M310.5,451.4c1.9,0.4,3.8,0.7,5.7,0.8c3.6,0.2,7.3-0.6,10.8-1.3c1.7-0.4,3.5-0.7,5.1-1.4
								c1-0.4,2-1.1,2.1-2c0.1-0.8-0.7-1.4-1.5-1.7c-1-0.4-2.1-0.6-3.2-0.8c-6.7-0.6-13.6,2.5-20.3,2.4c-0.6,0-1.2-0.1-1.7,0.1
								c-0.8,0.2-1.4,0.6-2,1.2c-0.8,0.7-0.3,0.9,0.5,1.3C307.3,450.7,308.9,451.1,310.5,451.4z"/>
						</g>
						<path class="st19" d="M373.3,404.7c-1.5-17.4-12.3-39.8-12.3-39.8l-39.2-1.3v-0.2l-3.3,0.1l-3.3-0.1v0.2l-39.2,1.3
							c0,0-10.9,22.4-12.3,39.8c0,0-5.6,46.6,54.9,46.4C382.4,451.3,373.3,404.7,373.3,404.7z"/>
						<path class="st7" d="M345.3,358.5c-10.3-0.3-20.5-0.5-30.8-0.4c-4.9,0-9.8,0.1-14.8,0.2c-3.5,0.1-9.4-1-10.6,3.2
							c-0.3,1.2,0.1,2.1,0.7,2.7c-0.5,0.6-0.7,1.4-0.4,2.4c1.7,6.3,8.2,9.7,14.5,11.2c6.8,1.6,14,1.3,20.7-0.7c3.2,3.3,8.7,4,13.1,2
							c6.2-2.8,8.7-9.3,10.3-15.1c0.1-0.4,0.2-0.8,0.1-1.2C348.8,360.9,347.9,358.5,345.3,358.5z"/>
						<path class="st8" d="M345.9,354.6c-10.3-0.3-20.5-0.5-30.8-0.4c-4.9,0-9.8,0.1-14.8,0.2c-3.5,0.1-9.4-1-10.6,3.2
							c-0.3,1.2,0.1,2.1,0.7,2.7c-0.5,0.6-0.7,1.4-0.4,2.4c1.7,6.3,8.2,9.7,14.5,11.2c6.8,1.6,14,1.3,20.7-0.7c3.2,3.3,8.7,4,13.1,2
							c6.2-2.8,8.7-9.3,10.3-15.1c0.1-0.4,0.2-0.8,0.1-1.2C349.4,357.1,348.5,354.7,345.9,354.6z"/>
						<g>
							<g>
								<g>
									<path class="st11" d="M365.4,315.9c0,0-0.2-1.7-3.5-2.2c0,0-19.5-4.6-43.9-5.2c-24.4,0.6-43.9,5.2-43.9,5.2
										c-3.3,0.5-3.5,2.2-3.5,2.2L258.2,351l28.8,7.8l31-2.6l31,2.6l28.8-7.8L365.4,315.9z"/>
								</g>
							</g>
							<path class="st20" d="M359.4,325c-4.4,0.7-8.9,1.4-13.2,2.7c-4,1.3-14.1,4.8-15.8-1.3c-0.1-0.1-0.1-0.2-0.1-0.3
								c-0.3,0-0.7,0-1,0c-0.6,0-1.3,0.1-2,0.2c-1.8,0.2-3.6,0.3-5.3,0.4c-4.3,0.4-8.7,1.1-13,1.6c-3.9,0.5-7.9,1-11.9,0.7
								c-2-0.2-4.1-0.5-5.9-1.3c-1.5-0.6-2.8-1.6-4.4-2c-6.5-1.3-13.6-0.2-20,1.7l-7.6,21.1c4.4-2.1,10.4-2.4,15-3
								c10.7-1.2,21.5-1,32.2-1.3c10-0.3,20.1-0.2,30.1-0.5c9.5-0.3,19-1.3,28.2-3.5c2.8-0.6,5.5-1.4,8.2-2.4l-5-14
								C365,324.2,362.1,324.6,359.4,325z"/>
							<path class="st21" d="M275.2,319.7c4.4-0.5,9.5-1,13.8,0.3c1.6,0.5,2.9,1.5,4.4,2.1c1.8,0.7,3.9,0.8,5.8,0.9
								c4.1,0.1,8.1-0.6,12.1-1.1c4.6-0.6,9.1-1.3,13.7-1.6c2.3-0.2,5.9-1.1,7.9,0.5c1,0.8,0.8,2.3,2.1,2.8c1.2,0.4,2.6,0.1,3.8-0.2
								c2.9-0.6,5.7-1.7,8.5-2.4c6.1-1.4,12.4-2.4,18.7-3.1l-0.7-2.1c0,0-0.2-1.7-3.5-2.2c0,0-19.5-4.6-43.9-5.2
								c-24.4,0.6-43.9,5.2-43.9,5.2c-3.3,0.5-3.5,2.2-3.5,2.2l-1.7,5C270.9,320.4,273.1,320,275.2,319.7z"/>
							<polygon points="263,337.5 258.2,351 287,358.8 318,356.2 349.1,358.8 377.9,351 373.1,337.5 							"/>
							<path class="st14" d="M282.6,343c8.6,0,17.3,0.1,25.8,1.1c8.5,1,16.9,3.4,25.5,3.9c9.1,0.5,18.1-0.8,27.1-2
								c4.9-0.6,9.7-1,14.6-1.2l-2.6-7.3H263l-2.6,7.4C267.6,343.3,275.2,343,282.6,343z"/>
							<path d="M357.4,350.3c-8.7,1.1-17.6,2.3-26.4,1.3c-8.5-1-16.7-3.1-25.2-4c-8.4-0.8-16.9-0.8-25.4-0.8
								c-7.3,0.1-14.6,0.5-21.6,2.3l-0.6,1.9l28.8,7.8l31-2.6l31,2.6l28.8-7.8l-0.8-2.4C370.5,348.9,364,349.5,357.4,350.3z"/>
							<ellipse class="st22" cx="319.4" cy="332.3" rx="18.4" ry="19.1"/>
							<path class="st14" d="M390.2,347c0,0-18,8.5-72.2,8.4c-54.2,0.1-72.2-8.4-72.2-8.4c-9.1-4.6-8,2.5-8,2.5
								c1.3,9.3,16.9,12.9,16.9,12.9c11.1,3.1,52.3,4.6,63.3,4.7c11-0.1,52.2-1.6,63.3-4.7c0,0,15.6-3.6,16.9-12.9
								C398.3,349.6,399.2,342.5,390.2,347z"/>
						</g>
						<polyline class="st6" points="326.9,516.4 325.7,552.7 324.1,513.5 						"/>
						<ellipse class="st6" cx="318.5" cy="521.3" rx="3.3" ry="3.1"/>
						<ellipse class="st6" cx="318.6" cy="531.9" rx="3.3" ry="3.1"/>
						<polygon class="st6" points="351.5,499.9 357.9,541.1 354.4,541.9 						"/>
						<path class="st23" d="M330.9,398.7c0.3-1.9,1-3.7,2.1-5.3c1.7-2.5,4.2-3.4,7.3-2.5c3.6,1.1,5.8,3.7,7.5,6.7
							c0.1,0.2,0.1,0.5,0.1,0.9c-2.3-2.9-4.7-5.3-8.7-5.3C335,393.1,332.8,395.7,330.9,398.7z"/>
						<path class="st23" d="M291,398.7c1.2-2.5,2.4-5,4.9-6.6c2.2-1.4,4.2-1.1,5.9,0.8c1.7,2,2.5,4.3,3.2,6.8
							c-0.8-1.2-1.5-2.4-2.5-3.4c-2.1-2.2-4-2.5-6.8-1.2C293.8,396,292.4,397.4,291,398.7z"/>
						<path d="M315.8,337.7c1,0.7,2,0.1,3,0.4c-0.2,0.3-0.4,0.6-0.6,0.8c-1,0.8-2.1,1.2-3.4,1.1c-0.2,0-0.4-0.2-0.4-0.4
							c0-0.4-0.3-0.4-0.5-0.5c-0.6-0.1-1.3-0.2-1.7-0.5c-0.7-0.4-1.5-0.5-2.3-0.5c-0.3,0-0.7,0-1.1,0c0.1-0.5,0.1-1,0.2-1.4
							c0.1-0.5,0-0.9-0.2-1.4c-0.2-0.6-0.3-1.3-0.4-2c-0.1-0.5-0.1-0.8-0.8-0.7c0.1-0.5,0.2-0.8,0.3-1.2c0.3-1.1,1-1.8,1.9-2.4
							c0.2-0.1,0.4-0.1,0.6-0.1c0,0.2,0,0.3,0,0.5c-0.1,0.5-0.1,1-0.2,1.5c-0.1,0.3-0.1,0.7-0.3,1c-0.5,0.7,0.2,2.6,1.1,2.8
							c0.1,0,0.3-0.1,0.4-0.1c2.2-1.6,4.3-3.3,6.6-5c-0.3-0.3-0.5-0.5-0.8-0.7c-0.4,0.3-0.8,0.8-1.4,0.3c-0.4-0.4,0-0.8,0.4-1.2
							c-0.3-0.3-0.6-0.6-1.2-0.5c-1,0.2-1.8-0.5-2-1.4c-0.2-0.7,0.4-1.4,1.1-1.6c1.1-0.3,2.3,0.5,2.2,1.6c-0.1,0.6,0.4,0.8,0.7,1.1
							c0.4-0.3,0.7-0.7,1.2-0.3c0.4,0.3,0.2,0.7-0.2,1.1c1.1,1,0.8,1,2.1-0.1c-0.3-0.3-0.6-0.7-0.1-1.1c0.5-0.4,0.8,0.1,1.2,0.3
							c0.4-0.3,0.8-0.4,0.7-1.1c-0.1-0.8,0.7-1.6,1.6-1.7c0.8-0.1,1.6,0.4,1.7,1.3c0.2,1-0.8,2.1-2,1.9c-0.5-0.1-0.8,0.1-1.1,0.5
							c0.3,0.4,0.8,0.7,0.3,1.2c-0.5,0.5-0.9-0.1-1.3-0.4c-0.3,0.3-0.6,0.5-1,0.8c1.1,0.8,2.2,1.6,3.2,2.4c1.1,0.8,2.2,1.6,3.3,2.5
							c0.4,0.3,0.7,0.3,1.1-0.1c0.6-0.6,0.8-1.3,0.8-2.1c0-0.1,0-0.2-0.1-0.2c-0.6-0.5-0.5-1.1-0.5-1.7c0-0.3-0.1-0.6-0.1-0.9
							c0-0.2,0-0.4,0.1-0.5c0.2,0.1,0.4,0.1,0.6,0.1c0.9,0.6,1.6,1.3,1.9,2.3c0.2,0.4,0.2,0.8,0.3,1.2c-0.8,0.2-0.7,0.2-0.8,1
							c-0.1,0.7-0.4,1.4-0.5,2.2c-0.1,0.5,0,1.1,0.1,1.7c0,0.2,0.1,0.5,0.1,0.7c-0.7,0-1.3-0.1-1.9,0c-0.3,0-0.7,0.1-1,0.3
							c-0.7,0.4-1.5,0.7-2.3,0.7c-0.3,0-0.4,0.1-0.5,0.4c0,0.2-0.3,0.4-0.4,0.4c-1.3,0-2.6-0.3-3.5-1.3c-0.2-0.2-0.3-0.4-0.5-0.6
							c1-0.4,2.1,0.3,3-0.4c0.5,0.7,1.1,0.4,1.6,0.2c0.4-0.2,0.8-0.4,1.2-0.7c0.5-0.4,0.5-0.6,0-1.1c-1.2-1-2.3-2-3.5-3
							c-1-0.8-1.9-1.6-2.8-2.4c-1.6,1.4-3.2,2.7-4.8,4.1c-0.5,0.4-1.1,0.9-1.5,1.3c-0.4,0.4-0.4,0.6,0.1,1s1,0.6,1.5,0.8
							C314.9,338.2,315.4,338.4,315.8,337.7z M323.9,326.6c-0.1,0.1-0.2,0.2-0.2,0.2c0.7-0.2,1-0.5,1-0.9c-0.1-0.4-0.3-0.6-0.7-0.6
							c-0.4-0.1-0.8,0.3-1,0.8c0.1-0.1,0.2-0.2,0.3-0.3C323.4,326.2,323.7,326.4,323.9,326.6z M314.8,326.9c0.3-0.3,0.5-0.5,0.7-0.7
							c-0.2-0.6-0.5-0.8-1-0.7c-0.4,0.1-0.6,0.3-0.6,0.6S314.1,326.7,314.8,326.9z"/>
						<path class="st24" d="M315.3,337.2c1,0.7,2,0.1,3,0.4c-0.2,0.3-0.4,0.6-0.6,0.8c-1,0.8-2.1,1.2-3.4,1.1
							c-0.2,0-0.4-0.2-0.4-0.4c0-0.4-0.3-0.4-0.5-0.5c-0.6-0.1-1.3-0.2-1.7-0.5c-0.7-0.4-1.5-0.5-2.3-0.5c-0.3,0-0.7,0-1.1,0
							c0.1-0.5,0.1-1,0.2-1.4c0.1-0.5,0-0.9-0.2-1.4c-0.2-0.6-0.3-1.3-0.4-2c-0.1-0.5-0.1-0.8-0.8-0.7c0.1-0.5,0.2-0.8,0.3-1.2
							c0.3-1.1,1-1.8,1.9-2.4c0.2-0.1,0.4-0.1,0.6-0.1c0,0.2,0,0.3,0,0.5c-0.1,0.5-0.1,1-0.2,1.5c-0.1,0.3-0.1,0.7-0.3,1
							c-0.5,0.7,0.2,2.6,1.1,2.8c0.1,0,0.3-0.1,0.4-0.1c2.2-1.6,4.3-3.3,6.6-5c-0.3-0.3-0.5-0.5-0.8-0.7c-0.4,0.3-0.8,0.8-1.4,0.3
							c-0.4-0.4,0-0.8,0.4-1.2c-0.3-0.3-0.6-0.6-1.2-0.5c-1,0.2-1.8-0.5-2-1.4c-0.2-0.7,0.4-1.4,1.1-1.6c1.1-0.3,2.3,0.5,2.2,1.6
							c-0.1,0.6,0.4,0.8,0.7,1.1c0.4-0.3,0.7-0.7,1.2-0.3c0.4,0.3,0.2,0.7-0.2,1.1c1.1,1,0.8,1,2.1-0.1c-0.3-0.3-0.6-0.7-0.1-1.1
							c0.5-0.4,0.8,0.1,1.2,0.3c0.4-0.3,0.8-0.4,0.7-1.1c-0.1-0.8,0.7-1.6,1.6-1.7c0.8-0.1,1.6,0.4,1.7,1.3c0.2,1-0.8,2.1-2,1.9
							c-0.5-0.1-0.8,0.1-1.1,0.5c0.3,0.4,0.8,0.7,0.3,1.2c-0.5,0.5-0.9-0.1-1.3-0.4c-0.3,0.3-0.6,0.5-1,0.8c1.1,0.8,2.2,1.6,3.2,2.4
							c1.1,0.8,2.2,1.6,3.3,2.5c0.4,0.3,0.7,0.3,1.1-0.1c0.6-0.6,0.8-1.3,0.8-2.1c0-0.1,0-0.2-0.1-0.2c-0.6-0.5-0.5-1.1-0.5-1.7
							c0-0.3-0.1-0.6-0.1-0.9c0-0.2,0-0.4,0.1-0.5c0.2,0.1,0.4,0.1,0.6,0.1c0.9,0.6,1.6,1.3,1.9,2.3c0.2,0.4,0.2,0.8,0.3,1.2
							c-0.8,0.2-0.7,0.2-0.8,1c-0.1,0.7-0.4,1.4-0.5,2.2c-0.1,0.5,0,1.1,0.1,1.7c0,0.2,0.1,0.5,0.1,0.7c-0.7,0-1.3-0.1-1.9,0
							c-0.3,0-0.7,0.1-1,0.3c-0.7,0.4-1.5,0.7-2.3,0.7c-0.3,0-0.4,0.1-0.5,0.4c0,0.2-0.3,0.4-0.4,0.4c-1.3,0-2.6-0.3-3.5-1.3
							c-0.2-0.2-0.3-0.4-0.5-0.6c1-0.4,2.1,0.3,3-0.4c0.5,0.7,1.1,0.4,1.6,0.2c0.4-0.2,0.8-0.4,1.2-0.7c0.5-0.4,0.5-0.6,0-1.1
							c-1.2-1-2.3-2-3.5-3c-1-0.8-1.9-1.6-2.8-2.4c-1.6,1.4-3.2,2.7-4.8,4.1c-0.5,0.4-1.1,0.9-1.5,1.3c-0.4,0.4-0.4,0.6,0.1,1
							c0.5,0.3,1,0.6,1.5,0.8C314.4,337.7,314.9,337.9,315.3,337.2z M323.4,326.2c-0.1,0.1-0.2,0.2-0.2,0.2c0.7-0.2,1-0.5,1-0.9
							c-0.1-0.4-0.3-0.6-0.7-0.6c-0.4-0.1-0.8,0.3-1,0.8c0.1-0.1,0.2-0.2,0.3-0.3C323,325.7,323.2,325.9,323.4,326.2z M314.3,326.5
							c0.3-0.3,0.5-0.5,0.7-0.7c-0.2-0.6-0.5-0.8-1-0.7c-0.4,0.1-0.6,0.3-0.6,0.6C313.3,326,313.6,326.3,314.3,326.5z"/>
						<path class="st25" d="M287.3,368.4c0.5,0.8,0.8,1.8,0.8,2.8c0.1,1.9-1.1,3.3-2.4,4.5c-1.4,1.3-3.1,2.3-4.2,4
							c1.6,2,3,4.1,4.3,6.3c0.5,0.8,1,1.6,0.9,2.5c-0.1,2.9-2.9,5.1-4.4,7.4c-1.8,2.6-3.4,5.5-4.7,8.4c-4.2,9.2-7.1,20.8-3.4,30.6
							c0.6,1.6,1.6,3.2,1.2,5c-3-3.8-8.7-10.5-10-15.1c-1.7-6.2-0.6-12.9,1.7-19c2.3-6,5.7-11.6,8.4-17.4c0.8-1.8,1.7-4,0.6-5.8
							c-0.8-1.4-2.7-2.1-3.2-3.7c-0.4-1.5,0.8-3.1,2.2-3.9c1.4-0.8,3-1.3,4.1-2.4c1.2-1.1,1.7-3.2,0.4-4.2c-0.6-0.5-1.4-0.7-1.5-1.5
							c-0.1-0.3-0.1-1,0.3-1c1.8,0.3,6.5-0.3,8,1.7C286.9,367.7,287.2,368,287.3,368.4z"/>
						<path class="st19" d="M265.5,364.9l21.7-20c0,0,3.2-3.1,5.9-1.9c0,0,1.1,0.3-1,4l-4.8,8.8c0,0,0,0-3.1,4.8l-3.3,5.5l4.2,2.3
							c0,0,3,1.5,0.2,4l-9.2,7.2L265.5,364.9z"/>
						<g>
							<g>
								<defs>
									<path id="SVGID_00000090295383874120348880000010018042686836489150_" d="M276.7,438.7c-4.1-3.8-5.6-7-5.6-7
										c-5.8-18.6,6.4-34.9,11.4-41c1.4-1.6,2.3-2.5,2.3-2.5l-1.7-2.4L267,363.2c0,0-37.2,31.1-42,52.6c0,0-7.3,50.8,51.8,61.6
										L276.7,438.7z"/>
								</defs>
								<clipPath id="SVGID_00000024710444083653862000000000965542773719419009_">
									<use xlink:href="#SVGID_00000090295383874120348880000010018042686836489150_"  style="overflow:visible;"/>
								</clipPath>
								<g style="clip-path:url(#SVGID_00000024710444083653862000000000965542773719419009_);">
									<g>
										<path class="st11" d="M276.7,438.7c-4.1-3.8-5.6-7-5.6-7c-5.8-18.6,6.4-34.9,11.4-41c1.4-1.6,2.3-2.5,2.3-2.5l-1.7-2.4
											L267,363.2c0,0-37.2,31.1-42,52.6c0,0-7.3,50.8,51.8,61.6L276.7,438.7z"/>
									</g>
								</g>
							</g>
							<g>
								<defs>
									<path id="SVGID_00000146473176034897689980000002806341987183333788_" d="M276.7,438.7c-4.1-3.8-5.6-7-5.6-7
										c-5.8-18.6,6.4-34.9,11.4-41c1.4-1.6,2.3-2.5,2.3-2.5l-1.7-2.4L267,363.2c0,0-37.2,31.1-42,52.6c0,0-7.3,50.8,51.8,61.6
										L276.7,438.7z"/>
								</defs>
								<clipPath id="SVGID_00000127752688513603466930000008131363748581961403_">
									<use xlink:href="#SVGID_00000146473176034897689980000002806341987183333788_"  style="overflow:visible;"/>
								</clipPath>
								<path style="clip-path:url(#SVGID_00000127752688513603466930000008131363748581961403_);fill:#9B6E4E;" d="M275.6,397.7
									c-1.9,3.3-3.7,6.5-5.1,10c-2.7,6.7-3.7,14.2-1.6,21.2c2.1,6.9,5,9.2,11.9,11.1c0.4,0.1,1.3,1,0.4,0.3
									c-1.3-1-2.6-1.8-3.9-2.8c-3.8-3.3-5.7-8.3-5.9-13.3c-0.3-5,1-10,2.7-14.7c2.6-7.3,6.5-14.2,11.2-20.4c0.5-0.6,1-1.3,0.9-2.1
									c-0.3-3.1-5,2.3-5.5,3C278.6,392.4,277.1,395.1,275.6,397.7z"/>
							</g>
						</g>
						<g>
							<g>
								<defs>
									<path id="SVGID_00000152250508102919083980000003303754750324734095_" d="M296.9,426.2c1.9,2.6,4.2,4.8,6.9,6.5
										c6.8,4.4,15.9,6.4,23.9,4.6c2.5-0.6,4.9-1.5,7-2.9c1.4-0.9,2.8-2,4-3.2c1.9-2,4.2-4.8,5.5-7.3c0.4-0.7,3.3-9,3-9.2
										c-2.2-1-3.5,3.2-27,6.5c-3.2,0.5-14.1,0.4-17.3-0.3c-1.3-0.3-3.1-0.7-4.4-1c-1.1-0.3-2.6-0.8-3.8-0.6
										c-1.4,0.3-0.7,1.7-0.2,2.6c0.8,1.3,1.5,2.7,2.4,4C296.9,426.1,296.9,426.2,296.9,426.2z"/>
								</defs>
								<clipPath id="SVGID_00000096041571370180299920000006546699596277775782_">
									<use xlink:href="#SVGID_00000152250508102919083980000003303754750324734095_"  style="overflow:visible;"/>
								</clipPath>
								<path style="clip-path:url(#SVGID_00000096041571370180299920000006546699596277775782_);fill:#EF9195;" d="M296.9,426.2
									c1.9,2.6,4.2,4.8,6.9,6.5c6.8,4.4,15.9,6.4,23.9,4.6c2.5-0.6,4.9-1.5,7-2.9c1.4-0.9,2.8-2,4-3.2c1.9-2,4.2-4.8,5.5-7.3
									c0.4-0.7,3.3-9,3-9.2c-2.2-1-3.5,3.2-27,6.5c-3.2,0.5-14.1,0.4-17.3-0.3c-1.3-0.3-3.1-0.7-4.4-1c-1.1-0.3-2.6-0.8-3.8-0.6
									c-1.4,0.3-0.7,1.7-0.2,2.6c0.8,1.3,1.5,2.7,2.4,4C296.9,426.1,296.9,426.2,296.9,426.2z"/>
							</g>
							<g>
								<defs>
									<path id="SVGID_00000103263170409888755840000013678843725316149410_" d="M296.9,426.2c1.9,2.6,4.2,4.8,6.9,6.5
										c6.8,4.4,15.9,6.4,23.9,4.6c2.5-0.6,4.9-1.5,7-2.9c1.4-0.9,2.8-2,4-3.2c1.9-2,4.2-4.8,5.5-7.3c0.4-0.7,3.3-9,3-9.2
										c-2.2-1-3.5,3.2-27,6.5c-3.2,0.5-14.1,0.4-17.3-0.3c-1.3-0.3-3.1-0.7-4.4-1c-1.1-0.3-2.6-0.8-3.8-0.6
										c-1.4,0.3-0.7,1.7-0.2,2.6c0.8,1.3,1.5,2.7,2.4,4C296.9,426.1,296.9,426.2,296.9,426.2z"/>
								</defs>
								<clipPath id="SVGID_00000044146142563534826130000010037548063211405240_">
									<use xlink:href="#SVGID_00000103263170409888755840000013678843725316149410_"  style="overflow:visible;"/>
								</clipPath>
								<g style="clip-path:url(#SVGID_00000044146142563534826130000010037548063211405240_);">
									<g>
										<defs>
											<path id="SVGID_00000080167789977806018410000001840580168617639344_" d="M314.2,429.2c4.1,0.1,8.2-0.4,12.2-1.1
												c1.4-0.3,2.7-0.6,4.1-0.9c0.1,0.3,0.3,0.4,0.6,0.5c2.9,0.8,5.5,2.2,8.2,3.3c-1.7,2.3-4.1,3.7-6.6,4.9
												c-5.7,2.7-11.6,2.9-17.7,1.8c-2.2-0.4-4.2-1-6.2-1.7c-0.5-0.2-1.1-0.3-1.4-0.8C309.4,433,311.8,431.1,314.2,429.2z"/>
										</defs>
										<clipPath id="SVGID_00000065771930804326287560000001582275620452084642_">
											<use xlink:href="#SVGID_00000080167789977806018410000001840580168617639344_"  style="overflow:visible;"/>
										</clipPath>
										<path style="clip-path:url(#SVGID_00000065771930804326287560000001582275620452084642_);fill:#CE5351;" d="M314.1,429.5
											c4.1,0.1,8.2-0.4,12.2-1.1c1.4-0.3,2.7-0.6,4.1-0.9c0.1,0.3,0.3,0.4,0.6,0.5c2.9,0.8,5.5,2.2,8.2,3.3
											c-1.7,2.3-4.1,3.7-6.6,4.9c-5.7,2.7-11.6,2.9-17.7,1.8c-2.2-0.4-4.2-1-6.2-1.7c-0.5-0.2-1.1-0.3-1.4-0.8
											C309.3,433.2,311.7,431.3,314.1,429.5z"/>
									</g>
									<g>
										<defs>
											<path id="SVGID_00000060018322028940615650000014671270954567000210_" d="M314.2,429.2c4.1,0.1,8.2-0.4,12.2-1.1
												c1.4-0.3,2.7-0.6,4.1-0.9c0.1,0.3,0.3,0.4,0.6,0.5c2.9,0.8,5.5,2.2,8.2,3.3c-1.7,2.3-4.1,3.7-6.6,4.9
												c-5.7,2.7-11.6,2.9-17.7,1.8c-2.2-0.4-4.2-1-6.2-1.7c-0.5-0.2-1.1-0.3-1.4-0.8C309.4,433,311.8,431.1,314.2,429.2z"/>
										</defs>
										<clipPath id="SVGID_00000147942122374742283410000000297946511032129709_">
											<use xlink:href="#SVGID_00000060018322028940615650000014671270954567000210_"  style="overflow:visible;"/>
										</clipPath>
										<path style="clip-path:url(#SVGID_00000147942122374742283410000000297946511032129709_);fill:#E8695F;" d="M315.4,429.4
											c4.1-0.1,8.2-0.7,12.1-1.6c1.4-0.3,2.7-0.7,4.1-1.1c0.1,0.3,0.3,0.4,0.6,0.5c2.9,0.7,5.6,1.9,8.3,3
											c-1.7,2.3-4,3.9-6.4,5.1c-5.6,2.9-11.5,3.3-17.7,2.5c-2.2-0.3-4.2-0.8-6.3-1.5c-0.5-0.2-1.1-0.2-1.4-0.7
											C310.8,433.3,313.1,431.3,315.4,429.4z"/>
									</g>
								</g>
							</g>
							<g>
								<defs>
									<path id="SVGID_00000062907410847277478550000013778309127901053091_" d="M296.9,426.2c1.9,2.6,4.2,4.8,6.9,6.5
										c6.8,4.4,15.9,6.4,23.9,4.6c2.5-0.6,4.9-1.5,7-2.9c1.4-0.9,2.8-2,4-3.2c1.9-2,4.2-4.8,5.5-7.3c0.4-0.7,3.3-9,3-9.2
										c-2.2-1-3.5,3.2-27,6.5c-3.2,0.5-14.1,0.4-17.3-0.3c-1.3-0.3-3.1-0.7-4.4-1c-1.1-0.3-2.6-0.8-3.8-0.6
										c-1.4,0.3-0.7,1.7-0.2,2.6c0.8,1.3,1.5,2.7,2.4,4C296.9,426.1,296.9,426.2,296.9,426.2z"/>
								</defs>
								<clipPath id="SVGID_00000110462495490738435020000003838471090641090451_">
									<use xlink:href="#SVGID_00000062907410847277478550000013778309127901053091_"  style="overflow:visible;"/>
								</clipPath>
								<path style="clip-path:url(#SVGID_00000110462495490738435020000003838471090641090451_);fill:#FDFDFD;" d="M299.3,419.9
									c2.6,0.2,5.3,0.8,8,1c10.1,0.6,20.2-0.2,30-3.1c3-0.9,6-2,8.8-3.4c0.5-0.3,1-0.4,1.7-0.7c-0.1,1.4-0.5,2.6-1,3.8
									c-0.4,0.3-0.8,0.6-1.2,1c-2.9,2.6-6.1,4.7-9.6,6.5c-2.1,1.1-4.3,2-6.5,2.6c-0.8,0.2-1.5,0.4-2.3,0.6
									c-2.3,0.5-4.6,0.9-6.9,1.1c-2.2,0.2-4.6,0.5-6.8,0.3c-1.9-0.2-3.9-0.2-5.8-0.5c-2.8-0.5-5.3-1.5-6.8-4.1
									C300,423.5,299.7,421.6,299.3,419.9z"/>
							</g>
						</g>
					</g>
				</g>
			</g>
		</g>
	</g>
</g>
</svg>
