<?xml version="1.0" encoding="utf-8"?>
<!-- Generator: Adobe Illustrator 26.0.3, SVG Export Plug-In . SVG Version: 6.00 Build 0)  -->
<svg version="1.1" id="Capa_1" xmlns="http://www.w3.org/2000/svg" xmlns:xlink="http://www.w3.org/1999/xlink" x="0px" y="0px"
	 viewBox="0 0 640 734.1" style="enable-background:new 0 0 640 734.1;" xml:space="preserve">
<style type="text/css">
	.st0{fill:#0073A5;}
	.st1{fill:#FFFFFF;}
</style>
<rect class="st0" width="640" height="734.1"/>
<g>
	<g id="XMLID_1_">
		<g id="XMLID_6_">
			<path id="XMLID_7_" class="st1" d="M376.6,184.8c-10.3-12.7-10.8-6.6-10.8-6.6c1.4,1.4,1.4,7.9,1.4,7.9c-0.9,6.3,2.6,8,2.6,8
				c0.7,10.7-4.7,14.1-6.3,14.9c-1.6,0.8-2.9-0.4-2.9-0.4l-46.9-37.6l1.1-1c1.4-1.4,1.7-3.5,0.5-4.7c-1.2-1.2-3.3-1.1-4.8,0.3
				l-1.6,1.6l-4.5-3.6c1.2-3.2,0.2-7.1-2.7-9.7c-3.7-3.3-9.2-3.1-12.2,0.4c-3,3.5-2.4,8.9,1.3,12.2c2.9,2.5,6.7,3,9.7,1.5
				c1,1,2.4,2.2,3.9,3.6l-1.8,1.7c-1.4,1.4-1.7,3.6-0.5,4.8c1.2,1.2,3.3,1.1,4.8-0.3l2-2c15.6,14.3,42.3,38.7,44.5,40.8
				c3,2.9,0.2,5.2,0.2,5.2c-8.7,7.9-14.1,6.1-14.1,6.1c-2.2-3.4-2.3-1.9-2.3-1.9s0.1,2-8.5,1.4c-7.4-0.5-6.1,0.7-6.1,0.7
				c5,10,19.2,10.4,20.9,10.2c1.7-0.2,1.4-1.6,1.4-1.6c0-1.8,0.4-2.8,0.4-2.8c9.7,0.1,16-5.5,16-5.5l13.2-0.3l-1.6-12.3
				c3.8-5,3.7-17,3.7-17s0.1-1.5,1.8-1.1c1.6,0.4,2.1,0,2.1,0C380.7,191.1,376.6,184.8,376.6,184.8z M297.3,165.1
				c-10.2-2.8-4.2-8.7-4.2-8.7c6.2-3.3,8.2,4.8,8.2,4.8C297.2,161.1,297.3,165.1,297.3,165.1z"/>
		</g>
		<g id="XMLID_2_">
			<path id="XMLID_3_" class="st1" d="M259.1,196.7c0,0,0.5,0.4,2.1,0c1.6-0.4,1.8,1.1,1.8,1.1s-0.1,12.1,3.7,17l-1.6,12.3l13.2,0.3
				c0,0,6.3,5.6,16,5.5c0,0,0.4,1,0.4,2.9c0,0-0.3,1.4,1.4,1.6c1.7,0.2,15.8-0.2,20.9-10.2c0,0,1.4-1.2-6.1-0.7
				c-8.6,0.6-8.5-1.4-8.5-1.4s-0.1-1.5-2.3,1.9c0,0-5.4,1.7-14.1-6.1c0,0-2.9-2.3,0.2-5.2c2.1-2,28.9-26.5,44.5-40.7l2,1.9
				c1.5,1.4,3.6,1.6,4.8,0.4c1.2-1.2,1-3.4-0.5-4.8l-1.7-1.7c1.5-1.4,2.9-2.6,3.9-3.6c3,1.4,6.9,0.9,9.7-1.5
				c3.7-3.3,4.3-8.7,1.3-12.2c-3-3.5-8.5-3.6-12.2-0.4c-2.9,2.6-3.9,6.4-2.7,9.7l-4.5,3.6l-1.6-1.6c-1.5-1.4-3.6-1.6-4.8-0.4
				c-1.2,1.2-1,3.3,0.5,4.8l1.1,1L279,208c0,0-1.3,1.3-2.9,0.5c-1.6-0.8-7-4.2-6.3-15c0,0,3.5-1.7,2.6-8c0,0,0-6.5,1.4-7.9
				c0,0-0.5-6.2-10.8,6.6C263,184.2,258.8,190.5,259.1,196.7z M338.4,160.7c0,0,2-8.2,8.2-4.8c0,0,6,5.8-4.2,8.7
				C342.3,164.6,342.4,160.5,338.4,160.7z"/>
		</g>
	</g>
	<g>
		<path d="M83.9,391.5H73.5v-59.9h10.4V391.5z"/>
		<path d="M105,347l0.3,5.1c3.3-4,7.6-6,13-6c9.3,0,14,5.3,14.2,15.9v29.4h-10v-28.8c0-2.8-0.6-4.9-1.8-6.3c-1.2-1.4-3.2-2-6-2
			c-4,0-7,1.8-9,5.5v31.7h-10V347H105z"/>
		<path d="M167.5,379.4c0-1.8-0.7-3.1-2.2-4.1c-1.5-0.9-3.9-1.8-7.3-2.5c-3.4-0.7-6.2-1.6-8.5-2.7c-5-2.4-7.5-5.9-7.5-10.5
			c0-3.8,1.6-7,4.9-9.6c3.2-2.6,7.3-3.9,12.3-3.9c5.3,0,9.6,1.3,12.9,3.9c3.3,2.6,4.9,6,4.9,10.2h-10c0-1.9-0.7-3.5-2.1-4.8
			c-1.4-1.3-3.3-1.9-5.7-1.9c-2.2,0-4,0.5-5.4,1.5c-1.4,1-2.1,2.4-2.1,4.1c0,1.5,0.6,2.7,1.9,3.6c1.3,0.9,3.9,1.7,7.8,2.6
			c3.9,0.9,7,1.9,9.2,3.1c2.2,1.2,3.9,2.6,5,4.3c1.1,1.7,1.6,3.7,1.6,6.1c0,4-1.7,7.2-5,9.7c-3.3,2.5-7.7,3.7-13,3.7
			c-3.6,0-6.9-0.7-9.8-2c-2.9-1.3-5.1-3.1-6.7-5.4c-1.6-2.3-2.4-4.8-2.4-7.4h9.7c0.1,2.4,1,4.2,2.7,5.5s3.8,1.9,6.5,1.9
			c2.6,0,4.6-0.5,6-1.5C166.8,382.4,167.5,381,167.5,379.4z"/>
		<path d="M204.3,384.4c2.5,0,4.6-0.7,6.2-2.2c1.6-1.5,2.5-3.2,2.6-5.4h9.4c-0.1,2.8-1,5.4-2.6,7.8c-1.6,2.4-3.8,4.3-6.6,5.7
			c-2.8,1.4-5.8,2.1-9,2.1c-6.2,0-11.2-2-14.8-6c-3.6-4-5.5-9.6-5.5-16.7v-1c0-6.8,1.8-12.2,5.4-16.3c3.6-4.1,8.6-6.1,14.8-6.1
			c5.3,0,9.6,1.5,12.9,4.6c3.3,3.1,5.1,7.1,5.2,12.2h-9.4c-0.1-2.6-1-4.6-2.6-6.3c-1.6-1.6-3.7-2.5-6.2-2.5c-3.2,0-5.7,1.2-7.5,3.5
			c-1.8,2.3-2.6,5.9-2.7,10.7v1.6c0,4.8,0.9,8.4,2.6,10.8C198.5,383.2,201.1,384.4,204.3,384.4z"/>
		<path d="M253.5,356.1c-1.3-0.2-2.7-0.3-4.1-0.3c-4.6,0-7.7,1.8-9.3,5.3v30.4h-10V347h9.5l0.2,5c2.4-3.9,5.8-5.8,10-5.8
			c1.4,0,2.6,0.2,3.5,0.6L253.5,356.1z"/>
		<path d="M259.8,335.4c0-1.5,0.5-2.8,1.5-3.8c1-1,2.4-1.5,4.2-1.5s3.2,0.5,4.2,1.5c1,1,1.5,2.3,1.5,3.8c0,1.5-0.5,2.8-1.5,3.8
			c-1,1-2.4,1.5-4.2,1.5s-3.2-0.5-4.2-1.5C260.3,338.2,259.8,337,259.8,335.4z M270.4,391.5h-10V347h10V391.5z"/>
		<path d="M320.3,369.7c0,6.9-1.6,12.4-4.7,16.5c-3.1,4.1-7.3,6.1-12.6,6.1c-4.9,0-8.8-1.6-11.7-4.8v21.1h-10V347h9.2l0.4,4.5
			c2.9-3.6,6.9-5.3,12-5.3c5.4,0,9.7,2,12.8,6.1c3.1,4,4.6,9.7,4.6,16.8V369.7z M310.3,368.9c0-4.4-0.9-8-2.7-10.6
			c-1.8-2.6-4.3-3.9-7.6-3.9c-4.1,0-7,1.7-8.8,5.1v19.7c1.8,3.5,4.8,5.2,8.9,5.2c3.2,0,5.7-1.3,7.5-3.8
			C309.4,378,310.3,374.1,310.3,368.9z"/>
		<path d="M347,384.4c2.5,0,4.6-0.7,6.2-2.2c1.6-1.5,2.5-3.2,2.6-5.4h9.4c-0.1,2.8-1,5.4-2.6,7.8c-1.6,2.4-3.8,4.3-6.6,5.7
			c-2.8,1.4-5.8,2.1-9,2.1c-6.2,0-11.2-2-14.8-6c-3.6-4-5.5-9.6-5.5-16.7v-1c0-6.8,1.8-12.2,5.4-16.3c3.6-4.1,8.6-6.1,14.8-6.1
			c5.3,0,9.6,1.5,12.9,4.6c3.3,3.1,5.1,7.1,5.2,12.2h-9.4c-0.1-2.6-1-4.6-2.6-6.3c-1.6-1.6-3.7-2.5-6.2-2.5c-3.2,0-5.7,1.2-7.5,3.5
			c-1.8,2.3-2.6,5.9-2.7,10.7v1.6c0,4.8,0.9,8.4,2.6,10.8C341.2,383.2,343.7,384.4,347,384.4z"/>
		<path d="M372.8,335.4c0-1.5,0.5-2.8,1.5-3.8c1-1,2.4-1.5,4.2-1.5c1.8,0,3.2,0.5,4.2,1.5c1,1,1.5,2.3,1.5,3.8
			c0,1.5-0.5,2.8-1.5,3.8c-1,1-2.4,1.5-4.2,1.5c-1.8,0-3.2-0.5-4.2-1.5C373.3,338.2,372.8,337,372.8,335.4z M383.5,391.5h-10V347h10
			V391.5z"/>
		<path d="M392.5,368.9c0-4.4,0.9-8.3,2.6-11.8c1.7-3.5,4.2-6.2,7.3-8.1c3.1-1.9,6.7-2.8,10.8-2.8c6,0,10.9,1.9,14.6,5.8
			c3.7,3.9,5.8,9,6.1,15.4l0,2.3c0,4.4-0.8,8.3-2.5,11.8c-1.7,3.5-4.1,6.1-7.2,8c-3.1,1.9-6.8,2.8-10.9,2.8
			c-6.3,0-11.3-2.1-15.1-6.3c-3.8-4.2-5.7-9.8-5.7-16.7V368.9z M402.5,369.7c0,4.6,0.9,8.2,2.8,10.8c1.9,2.6,4.5,3.9,7.9,3.9
			c3.4,0,6-1.3,7.9-3.9c1.9-2.6,2.8-6.5,2.8-11.6c0-4.5-1-8.1-2.9-10.7s-4.6-3.9-7.9-3.9c-3.3,0-5.9,1.3-7.8,3.9
			C403.4,360.7,402.5,364.6,402.5,369.7z"/>
		<path d="M451.6,347l0.3,5.1c3.3-4,7.6-6,13-6c9.3,0,14,5.3,14.2,15.9v29.4h-10v-28.8c0-2.8-0.6-4.9-1.8-6.3c-1.2-1.4-3.2-2-6-2
			c-4,0-7,1.8-9,5.5v31.7h-10V347H451.6z"/>
		<path d="M508.8,392.3c-6.3,0-11.5-2-15.4-6s-5.9-9.3-5.9-15.9v-1.2c0-4.4,0.9-8.4,2.6-11.9c1.7-3.5,4.1-6.2,7.2-8.2
			c3.1-1.9,6.6-2.9,10.4-2.9c6.1,0,10.7,1.9,14,5.8c3.3,3.9,5,9.3,5,16.4v4h-29.1c0.3,3.7,1.5,6.6,3.7,8.7c2.2,2.1,4.9,3.2,8.1,3.2
			c4.6,0,8.3-1.9,11.2-5.6l5.4,5.1c-1.8,2.7-4.2,4.7-7.1,6.2S512.5,392.3,508.8,392.3z M507.6,354.2c-2.7,0-5,1-6.6,2.9
			c-1.7,1.9-2.8,4.6-3.2,8h19v-0.7c-0.2-3.3-1.1-5.9-2.7-7.6S510.3,354.2,507.6,354.2z"/>
		<path d="M559.3,379.4c0-1.8-0.7-3.1-2.2-4.1c-1.5-0.9-3.9-1.8-7.3-2.5c-3.4-0.7-6.2-1.6-8.5-2.7c-5-2.4-7.5-5.9-7.5-10.5
			c0-3.8,1.6-7,4.9-9.6c3.2-2.6,7.3-3.9,12.3-3.9c5.3,0,9.6,1.3,12.9,3.9c3.3,2.6,4.9,6,4.9,10.2h-10c0-1.9-0.7-3.5-2.1-4.8
			c-1.4-1.3-3.3-1.9-5.7-1.9c-2.2,0-4,0.5-5.4,1.5c-1.4,1-2.1,2.4-2.1,4.1c0,1.5,0.6,2.7,1.9,3.6c1.3,0.9,3.9,1.7,7.8,2.6
			s7,1.9,9.2,3.1c2.2,1.2,3.9,2.6,5,4.3c1.1,1.7,1.6,3.7,1.6,6.1c0,4-1.7,7.2-5,9.7c-3.3,2.5-7.7,3.7-13,3.7c-3.6,0-6.9-0.7-9.7-2
			c-2.9-1.3-5.1-3.1-6.7-5.4c-1.6-2.3-2.4-4.8-2.4-7.4h9.7c0.1,2.4,1,4.2,2.7,5.5s3.8,1.9,6.5,1.9c2.6,0,4.6-0.5,6-1.5
			C558.6,382.4,559.3,381,559.3,379.4z"/>
		<path d="M156,462.2c-0.2,4.2-1.3,7.9-3.4,11c-2.1,3.2-4.9,5.7-8.7,7.4c-3.7,1.8-8,2.6-12.7,2.6c-7.9,0-14.1-2.6-18.6-7.7
			c-4.5-5.1-6.8-12.4-6.8-21.7v-3c0-5.9,1-11,3.1-15.4c2-4.4,5-7.8,8.8-10.2c3.8-2.4,8.3-3.6,13.3-3.6c7.3,0,13.1,1.9,17.5,5.7
			c4.4,3.8,6.9,9.1,7.5,15.8h-14.4c-0.1-3.6-1-6.3-2.8-7.9c-1.7-1.6-4.4-2.4-7.9-2.4c-3.6,0-6.2,1.3-7.9,4c-1.7,2.7-2.6,7-2.6,12.9
			v4.2c0,6.4,0.8,11,2.4,13.7c1.6,2.7,4.4,4.1,8.3,4.1c3.3,0,5.9-0.8,7.6-2.3c1.8-1.6,2.7-4,2.8-7.4H156z"/>
		<path d="M200,457.1h-22.7v14.3h26.8v11.1h-41.3v-59.9h41.3v11.1h-26.9v12.6H200V457.1z"/>
		<path d="M232.3,461.3h-7.8v21.2H210v-59.9h23.6c7.1,0,12.7,1.6,16.7,4.7c4,3.2,6,7.6,6,13.4c0,4.2-0.8,7.6-2.5,10.4
			c-1.7,2.7-4.3,5-7.9,6.7l12.5,24.2v0.6h-15.5L232.3,461.3z M224.4,450.2h9.1c2.7,0,4.8-0.7,6.2-2.2c1.4-1.4,2.1-3.5,2.1-6
			c0-2.6-0.7-4.6-2.1-6.1c-1.4-1.5-3.5-2.2-6.2-2.2h-9.1V450.2z"/>
		<path d="M287.2,461.3h-7.8v21.2H265v-59.9h23.6c7.1,0,12.7,1.6,16.7,4.7c4,3.2,6,7.6,6,13.4c0,4.2-0.8,7.6-2.5,10.4
			c-1.7,2.7-4.3,5-7.9,6.7l12.5,24.2v0.6h-15.5L287.2,461.3z M279.4,450.2h9.1c2.7,0,4.8-0.7,6.2-2.2c1.4-1.4,2.1-3.5,2.1-6
			c0-2.6-0.7-4.6-2.1-6.1c-1.4-1.5-3.5-2.2-6.2-2.2h-9.1V450.2z"/>
		<path d="M353.9,471.3h-19.8l-3.5,11.2h-15.4l22-59.9h13.6l22.1,59.9h-15.5L353.9,471.3z M337.6,460.2h12.9l-6.5-20.8L337.6,460.2z
			"/>
		<path d="M377.3,482.5v-59.9h19.3c5.3,0,10.1,1.2,14.3,3.6c4.2,2.4,7.5,5.8,9.9,10.2c2.4,4.4,3.6,9.3,3.6,14.7v2.8
			c0,5.5-1.2,10.4-3.5,14.7c-2.3,4.3-5.6,7.7-9.8,10.2c-4.2,2.5-8.9,3.7-14.1,3.7H377.3z M391.8,433.8v37.6h5c4.1,0,7.3-1.5,9.5-4.4
			c2.2-2.9,3.3-7.3,3.3-13.1v-2.6c0-5.8-1.1-10.1-3.3-13.1c-2.2-2.9-5.5-4.4-9.7-4.4H391.8z"/>
		<path d="M464.9,471.3h-19.8l-3.5,11.2h-15.4l22-59.9h13.6l22.1,59.9h-15.5L464.9,471.3z M448.6,460.2h12.9l-6.5-20.8L448.6,460.2z
			"/>
		<path d="M519.2,466.6c0-2.1-0.7-3.8-2.2-4.9c-1.5-1.2-4.1-2.4-7.9-3.7c-3.8-1.3-6.8-2.5-9.2-3.7c-7.8-3.8-11.6-9-11.6-15.7
			c0-3.3,1-6.2,2.9-8.8c1.9-2.5,4.7-4.5,8.2-5.9c3.5-1.4,7.5-2.1,11.9-2.1c4.3,0,8.2,0.8,11.6,2.3c3.4,1.5,6.1,3.7,8,6.6
			c1.9,2.8,2.8,6.1,2.8,9.7h-14.4c0-2.4-0.7-4.3-2.2-5.7c-1.5-1.3-3.5-2-6.1-2c-2.6,0-4.6,0.6-6.1,1.7c-1.5,1.1-2.2,2.6-2.2,4.3
			c0,1.5,0.8,2.9,2.5,4.2c1.6,1.2,4.5,2.5,8.7,3.9c4.1,1.3,7.5,2.8,10.2,4.3c6.5,3.7,9.7,8.9,9.7,15.4c0,5.2-2,9.4-5.9,12.3
			c-3.9,3-9.4,4.5-16.2,4.5c-4.9,0-9.2-0.9-13.2-2.6c-3.9-1.7-6.9-4.1-8.9-7.2c-2-3-3-6.5-3-10.5h14.5c0,3.2,0.8,5.6,2.5,7.1
			c1.7,1.5,4.4,2.3,8.1,2.3c2.4,0,4.3-0.5,5.7-1.5S519.2,468.5,519.2,466.6z"/>
	</g>
	<g>
		<path class="st1" d="M46.3,576h-4.4l-11.4-18.2V576h-4.4v-25.6h4.4l11.4,18.2v-18.2h4.4V576z"/>
		<path class="st1" d="M50.3,566.3c0-1.9,0.4-3.5,1.1-5c0.7-1.5,1.8-2.6,3.1-3.4c1.3-0.8,2.9-1.2,4.6-1.2c2.6,0,4.7,0.8,6.3,2.5
			s2.5,3.8,2.6,6.6l0,1c0,1.9-0.4,3.6-1.1,5c-0.7,1.5-1.8,2.6-3.1,3.4c-1.3,0.8-2.9,1.2-4.7,1.2c-2.7,0-4.8-0.9-6.4-2.7
			c-1.6-1.8-2.4-4.2-2.4-7.1V566.3z M54.6,566.7c0,2,0.4,3.5,1.2,4.6c0.8,1.1,1.9,1.7,3.4,1.7c1.4,0,2.6-0.6,3.4-1.7
			c0.8-1.1,1.2-2.8,1.2-4.9c0-1.9-0.4-3.4-1.2-4.6c-0.8-1.1-1.9-1.7-3.4-1.7c-1.4,0-2.5,0.6-3.3,1.7C55,562.8,54.6,564.4,54.6,566.7
			z"/>
		<path class="st1" d="M82.3,570.8c0-0.8-0.3-1.3-0.9-1.7c-0.6-0.4-1.7-0.8-3.1-1.1c-1.5-0.3-2.7-0.7-3.6-1.2
			c-2.1-1-3.2-2.5-3.2-4.5c0-1.6,0.7-3,2.1-4.1c1.4-1.1,3.1-1.7,5.3-1.7c2.3,0,4.1,0.6,5.5,1.7c1.4,1.1,2.1,2.6,2.1,4.4h-4.3
			c0-0.8-0.3-1.5-0.9-2c-0.6-0.5-1.4-0.8-2.4-0.8c-0.9,0-1.7,0.2-2.3,0.7c-0.6,0.4-0.9,1-0.9,1.7c0,0.7,0.3,1.2,0.8,1.5
			s1.7,0.7,3.3,1.1c1.7,0.4,3,0.8,3.9,1.3c1,0.5,1.7,1.1,2.1,1.8c0.5,0.7,0.7,1.6,0.7,2.6c0,1.7-0.7,3.1-2.1,4.2
			c-1.4,1.1-3.3,1.6-5.6,1.6c-1.6,0-2.9-0.3-4.2-0.8c-1.2-0.6-2.2-1.3-2.8-2.3c-0.7-1-1-2-1-3.2h4.2c0.1,1,0.4,1.8,1.1,2.3
			s1.6,0.8,2.8,0.8c1.1,0,2-0.2,2.6-0.6C82,572.1,82.3,571.5,82.3,570.8z"/>
		<path class="st1" d="M105.9,570.6l4-13.6h4.4l-6.6,19H104l-6.6-19h4.4L105.9,570.6z"/>
		<path class="st1" d="M125.1,576.3c-2.7,0-4.9-0.9-6.6-2.6c-1.7-1.7-2.5-4-2.5-6.8v-0.5c0-1.9,0.4-3.6,1.1-5.1
			c0.7-1.5,1.8-2.7,3.1-3.5c1.3-0.8,2.8-1.2,4.4-1.2c2.6,0,4.6,0.8,6,2.5c1.4,1.7,2.1,4,2.1,7v1.7h-12.4c0.1,1.6,0.7,2.8,1.6,3.7
			c0.9,0.9,2.1,1.4,3.5,1.4c2,0,3.6-0.8,4.8-2.4l2.3,2.2c-0.8,1.1-1.8,2-3.1,2.6S126.7,576.3,125.1,576.3z M124.6,560
			c-1.2,0-2.1,0.4-2.8,1.2c-0.7,0.8-1.2,2-1.4,3.4h8.1v-0.3c-0.1-1.4-0.5-2.5-1.1-3.2C126.7,560.4,125.8,560,124.6,560z"/>
		<path class="st1" d="M140.1,556.9l0.1,2c1.3-1.6,3.2-2.3,5.5-2.3c2.5,0,4.3,1,5.2,2.9c1.4-1.9,3.3-2.9,5.8-2.9
			c2.1,0,3.7,0.6,4.7,1.7s1.6,2.9,1.6,5.1V576h-4.3v-12.4c0-1.2-0.3-2.1-0.8-2.7c-0.5-0.6-1.4-0.8-2.6-0.8c-1,0-1.8,0.3-2.4,0.8
			c-0.6,0.5-1,1.2-1.3,2l0,13h-4.3v-12.5c-0.1-2.2-1.2-3.4-3.4-3.4c-1.7,0-2.9,0.7-3.6,2.1V576h-4.3v-19H140.1z"/>
		<path class="st1" d="M166.6,566.3c0-1.9,0.4-3.5,1.1-5c0.7-1.5,1.8-2.6,3.1-3.4c1.3-0.8,2.9-1.2,4.6-1.2c2.6,0,4.7,0.8,6.3,2.5
			s2.5,3.8,2.6,6.6l0,1c0,1.9-0.4,3.6-1.1,5c-0.7,1.5-1.8,2.6-3.1,3.4c-1.3,0.8-2.9,1.2-4.7,1.2c-2.7,0-4.8-0.9-6.4-2.7
			c-1.6-1.8-2.4-4.2-2.4-7.1V566.3z M170.9,566.7c0,2,0.4,3.5,1.2,4.6c0.8,1.1,1.9,1.7,3.4,1.7c1.4,0,2.6-0.6,3.4-1.7
			c0.8-1.1,1.2-2.8,1.2-4.9c0-1.9-0.4-3.4-1.2-4.6c-0.8-1.1-1.9-1.7-3.4-1.7c-1.4,0-2.5,0.6-3.3,1.7
			C171.3,562.8,170.9,564.4,170.9,566.7z"/>
		<path class="st1" d="M198.6,570.8c0-0.8-0.3-1.3-0.9-1.7c-0.6-0.4-1.7-0.8-3.1-1.1c-1.5-0.3-2.7-0.7-3.6-1.2
			c-2.1-1-3.2-2.5-3.2-4.5c0-1.6,0.7-3,2.1-4.1c1.4-1.1,3.1-1.7,5.3-1.7c2.3,0,4.1,0.6,5.5,1.7c1.4,1.1,2.1,2.6,2.1,4.4h-4.3
			c0-0.8-0.3-1.5-0.9-2c-0.6-0.5-1.4-0.8-2.4-0.8c-0.9,0-1.7,0.2-2.3,0.7c-0.6,0.4-0.9,1-0.9,1.7c0,0.7,0.3,1.2,0.8,1.5
			s1.7,0.7,3.3,1.1c1.7,0.4,3,0.8,3.9,1.3c1,0.5,1.7,1.1,2.1,1.8c0.5,0.7,0.7,1.6,0.7,2.6c0,1.7-0.7,3.1-2.1,4.2
			c-1.4,1.1-3.3,1.6-5.6,1.6c-1.6,0-2.9-0.3-4.2-0.8c-1.2-0.6-2.2-1.3-2.8-2.3c-0.7-1-1-2-1-3.2h4.2c0.1,1,0.4,1.8,1.1,2.3
			s1.6,0.8,2.8,0.8c1.1,0,2-0.2,2.6-0.6C198.3,572.1,198.6,571.5,198.6,570.8z"/>
		<path class="st1" d="M223.9,576.3c-2.7,0-4.9-0.9-6.6-2.6c-1.7-1.7-2.5-4-2.5-6.8v-0.5c0-1.9,0.4-3.6,1.1-5.1
			c0.7-1.5,1.8-2.7,3.1-3.5c1.3-0.8,2.8-1.2,4.4-1.2c2.6,0,4.6,0.8,6,2.5c1.4,1.7,2.1,4,2.1,7v1.7h-12.4c0.1,1.6,0.7,2.8,1.6,3.7
			c0.9,0.9,2.1,1.4,3.5,1.4c2,0,3.6-0.8,4.8-2.4l2.3,2.2c-0.8,1.1-1.8,2-3.1,2.6S225.4,576.3,223.9,576.3z M223.4,560
			c-1.2,0-2.1,0.4-2.8,1.2c-0.7,0.8-1.2,2-1.4,3.4h8.1v-0.3c-0.1-1.4-0.5-2.5-1.1-3.2C225.5,560.4,224.5,560,223.4,560z"/>
		<path class="st1" d="M238.8,556.9l0.1,2.2c1.4-1.7,3.3-2.5,5.5-2.5c4,0,6,2.3,6,6.8V576h-4.3v-12.3c0-1.2-0.3-2.1-0.8-2.7
			c-0.5-0.6-1.4-0.9-2.6-0.9c-1.7,0-3,0.8-3.9,2.3V576h-4.3v-19H238.8z"/>
		<path class="st1" d="M268.4,576h-4.3v-27h4.3V576z"/>
		<path class="st1" d="M284.4,576c-0.2-0.4-0.4-1-0.5-1.8c-1.4,1.4-3,2.1-5,2.1c-1.9,0-3.5-0.5-4.7-1.6c-1.2-1.1-1.8-2.4-1.8-4
			c0-2,0.8-3.6,2.3-4.7c1.5-1.1,3.7-1.6,6.5-1.6h2.6v-1.2c0-1-0.3-1.8-0.8-2.4c-0.6-0.6-1.4-0.9-2.5-0.9c-1,0-1.8,0.2-2.4,0.7
			s-0.9,1.1-0.9,1.9h-4.3c0-1,0.3-2,1-2.9c0.7-0.9,1.6-1.6,2.8-2.1c1.2-0.5,2.5-0.8,4-0.8c2.2,0,4,0.6,5.3,1.7c1.3,1.1,2,2.7,2,4.7
			v8.6c0,1.7,0.2,3.1,0.7,4.1v0.3H284.4z M279.7,572.9c0.8,0,1.6-0.2,2.4-0.6c0.7-0.4,1.3-1,1.7-1.7V567h-2.3
			c-1.6,0-2.8,0.3-3.6,0.8s-1.2,1.3-1.2,2.3c0,0.8,0.3,1.5,0.8,2C278,572.7,278.8,572.9,279.7,572.9z"/>
		<path class="st1" d="M318.1,566.7c0,2.9-0.7,5.3-2,7c-1.3,1.8-3.1,2.6-5.4,2.6c-2.1,0-3.8-0.7-5-2.1v9h-4.3v-26.3h3.9l0.2,1.9
			c1.3-1.5,3-2.3,5.1-2.3c2.3,0,4.1,0.9,5.5,2.6c1.3,1.7,2,4.1,2,7.2V566.7z M313.9,566.3c0-1.9-0.4-3.4-1.1-4.5
			c-0.8-1.1-1.8-1.7-3.2-1.7c-1.7,0-3,0.7-3.8,2.2v8.4c0.8,1.5,2,2.2,3.8,2.2c1.4,0,2.4-0.5,3.2-1.6
			C313.5,570.2,313.9,568.5,313.9,566.3z"/>
		<path class="st1" d="M331.7,560.8c-0.6-0.1-1.1-0.1-1.7-0.1c-2,0-3.3,0.8-4,2.3v13h-4.3v-19h4.1l0.1,2.1c1-1.7,2.5-2.5,4.3-2.5
			c0.6,0,1.1,0.1,1.5,0.2L331.7,560.8z"/>
		<path class="st1" d="M333,566.3c0-1.9,0.4-3.5,1.1-5c0.7-1.5,1.8-2.6,3.1-3.4c1.3-0.8,2.9-1.2,4.6-1.2c2.6,0,4.7,0.8,6.3,2.5
			c1.6,1.7,2.5,3.8,2.6,6.6l0,1c0,1.9-0.4,3.6-1.1,5c-0.7,1.5-1.8,2.6-3.1,3.4c-1.3,0.8-2.9,1.2-4.7,1.2c-2.7,0-4.8-0.9-6.4-2.7
			s-2.4-4.2-2.4-7.1V566.3z M337.2,566.7c0,2,0.4,3.5,1.2,4.6c0.8,1.1,1.9,1.7,3.4,1.7c1.4,0,2.6-0.6,3.4-1.7
			c0.8-1.1,1.2-2.8,1.2-4.9c0-1.9-0.4-3.4-1.2-4.6c-0.8-1.1-1.9-1.7-3.4-1.7c-1.4,0-2.5,0.6-3.3,1.7
			C337.7,562.8,337.2,564.4,337.2,566.7z M343,549h4.9l-4.9,5.3l-3.4,0L343,549z"/>
		<path class="st1" d="M360.7,563.2l3.6-6.3h4.7l-5.8,9.4l6,9.7h-4.7l-3.8-6.5L357,576h-4.7l6-9.7l-5.8-9.4h4.7L360.7,563.2z"/>
		<path class="st1" d="M372,552c0-0.7,0.2-1.2,0.6-1.6s1-0.7,1.8-0.7c0.8,0,1.4,0.2,1.8,0.7c0.4,0.4,0.6,1,0.6,1.6
			c0,0.6-0.2,1.2-0.6,1.6c-0.4,0.4-1,0.6-1.8,0.6c-0.8,0-1.4-0.2-1.8-0.6C372.2,553.2,372,552.6,372,552z M376.6,576h-4.3v-19h4.3
			V576z"/>
		<path class="st1" d="M385.2,556.9l0.1,2c1.3-1.6,3.2-2.3,5.5-2.3c2.5,0,4.3,1,5.2,2.9c1.4-1.9,3.3-2.9,5.8-2.9
			c2.1,0,3.7,0.6,4.7,1.7s1.6,2.9,1.6,5.1V576h-4.3v-12.4c0-1.2-0.3-2.1-0.8-2.7c-0.5-0.6-1.4-0.8-2.6-0.8c-1,0-1.8,0.3-2.4,0.8
			c-0.6,0.5-1,1.2-1.3,2l0,13h-4.3v-12.5c-0.1-2.2-1.2-3.4-3.4-3.4c-1.7,0-2.9,0.7-3.6,2.1V576h-4.3v-19H385.2z"/>
		<path class="st1" d="M423.9,576c-0.2-0.4-0.4-1-0.5-1.8c-1.4,1.4-3,2.1-5,2.1c-1.9,0-3.5-0.5-4.7-1.6c-1.2-1.1-1.8-2.4-1.8-4
			c0-2,0.8-3.6,2.3-4.7s3.7-1.6,6.5-1.6h2.6v-1.2c0-1-0.3-1.8-0.8-2.4c-0.6-0.6-1.4-0.9-2.5-0.9c-1,0-1.8,0.2-2.4,0.7
			c-0.6,0.5-0.9,1.1-0.9,1.9h-4.3c0-1,0.3-2,1-2.9c0.7-0.9,1.6-1.6,2.8-2.1c1.2-0.5,2.5-0.8,4-0.8c2.2,0,4,0.6,5.3,1.7
			c1.3,1.1,2,2.7,2,4.7v8.6c0,1.7,0.2,3.1,0.7,4.1v0.3H423.9z M419.2,572.9c0.8,0,1.6-0.2,2.4-0.6c0.7-0.4,1.3-1,1.7-1.7V567H421
			c-1.6,0-2.8,0.3-3.6,0.8c-0.8,0.6-1.2,1.3-1.2,2.3c0,0.8,0.3,1.5,0.8,2C417.6,572.7,418.3,572.9,419.2,572.9z"/>
		<path class="st1" d="M441,552c0-0.7,0.2-1.2,0.6-1.6s1-0.7,1.8-0.7c0.8,0,1.4,0.2,1.8,0.7c0.4,0.4,0.6,1,0.6,1.6
			c0,0.6-0.2,1.2-0.6,1.6c-0.4,0.4-1,0.6-1.8,0.6c-0.8,0-1.4-0.2-1.8-0.6C441.2,553.2,441,552.6,441,552z M445.6,576h-4.3v-19h4.3
			V576z"/>
		<path class="st1" d="M454.2,556.9l0.1,2.2c1.4-1.7,3.3-2.5,5.5-2.5c4,0,6,2.3,6,6.8V576h-4.3v-12.3c0-1.2-0.3-2.1-0.8-2.7
			c-0.5-0.6-1.4-0.9-2.6-0.9c-1.7,0-3,0.8-3.9,2.3V576h-4.3v-19H454.2z"/>
		<path class="st1" d="M480.9,570.8c0-0.8-0.3-1.3-0.9-1.7c-0.6-0.4-1.7-0.8-3.1-1.1c-1.5-0.3-2.7-0.7-3.6-1.2
			c-2.1-1-3.2-2.5-3.2-4.5c0-1.6,0.7-3,2.1-4.1c1.4-1.1,3.1-1.7,5.3-1.7c2.3,0,4.1,0.6,5.5,1.7c1.4,1.1,2.1,2.6,2.1,4.4h-4.3
			c0-0.8-0.3-1.5-0.9-2s-1.4-0.8-2.4-0.8c-0.9,0-1.7,0.2-2.3,0.7c-0.6,0.4-0.9,1-0.9,1.7c0,0.7,0.3,1.2,0.8,1.5
			c0.6,0.4,1.7,0.7,3.3,1.1s3,0.8,3.9,1.3c1,0.5,1.7,1.1,2.1,1.8c0.5,0.7,0.7,1.6,0.7,2.6c0,1.7-0.7,3.1-2.1,4.2
			c-1.4,1.1-3.3,1.6-5.6,1.6c-1.6,0-2.9-0.3-4.2-0.8c-1.2-0.6-2.2-1.3-2.8-2.3c-0.7-1-1-2-1-3.2h4.2c0.1,1,0.4,1.8,1.1,2.3
			c0.7,0.5,1.6,0.8,2.8,0.8c1.1,0,2-0.2,2.6-0.6C480.6,572.1,480.9,571.5,480.9,570.8z"/>
		<path class="st1" d="M496.7,572.9c1.1,0,2-0.3,2.7-0.9c0.7-0.6,1.1-1.4,1.1-2.3h4c0,1.2-0.4,2.3-1.1,3.3c-0.7,1-1.6,1.8-2.8,2.4
			c-1.2,0.6-2.5,0.9-3.8,0.9c-2.7,0-4.8-0.9-6.3-2.6s-2.3-4.1-2.3-7.1v-0.4c0-2.9,0.8-5.2,2.3-7s3.7-2.6,6.3-2.6
			c2.3,0,4.1,0.7,5.5,2s2.2,3.1,2.2,5.2h-4c0-1.1-0.4-2-1.1-2.7c-0.7-0.7-1.6-1.1-2.7-1.1c-1.4,0-2.5,0.5-3.2,1.5
			c-0.8,1-1.1,2.5-1.1,4.6v0.7c0,2.1,0.4,3.6,1.1,4.6C494.2,572.4,495.2,572.9,496.7,572.9z"/>
		<path class="st1" d="M517.7,560.8c-0.6-0.1-1.1-0.1-1.7-0.1c-2,0-3.3,0.8-4,2.3v13h-4.3v-19h4.1l0.1,2.1c1-1.7,2.5-2.5,4.3-2.5
			c0.6,0,1.1,0.1,1.5,0.2L517.7,560.8z"/>
		<path class="st1" d="M520.4,552c0-0.7,0.2-1.2,0.6-1.6s1-0.7,1.8-0.7c0.8,0,1.4,0.2,1.8,0.7c0.4,0.4,0.6,1,0.6,1.6
			c0,0.6-0.2,1.2-0.6,1.6c-0.4,0.4-1,0.6-1.8,0.6c-0.8,0-1.4-0.2-1.8-0.6C520.6,553.2,520.4,552.6,520.4,552z M524.9,576h-4.3v-19
			h4.3V576z"/>
		<path class="st1" d="M546.2,566.7c0,2.9-0.7,5.3-2,7c-1.3,1.8-3.1,2.6-5.4,2.6c-2.1,0-3.8-0.7-5-2.1v9h-4.3v-26.3h3.9l0.2,1.9
			c1.3-1.5,3-2.3,5.1-2.3c2.3,0,4.1,0.9,5.5,2.6c1.3,1.7,2,4.1,2,7.2V566.7z M542,566.3c0-1.9-0.4-3.4-1.1-4.5
			c-0.8-1.1-1.8-1.7-3.2-1.7c-1.7,0-3,0.7-3.8,2.2v8.4c0.8,1.5,2,2.2,3.8,2.2c1.4,0,2.4-0.5,3.2-1.6
			C541.6,570.2,542,568.5,542,566.3z"/>
		<path class="st1" d="M557.6,572.9c1.1,0,2-0.3,2.7-0.9c0.7-0.6,1.1-1.4,1.1-2.3h4c0,1.2-0.4,2.3-1.1,3.3c-0.7,1-1.6,1.8-2.8,2.4
			c-1.2,0.6-2.5,0.9-3.8,0.9c-2.7,0-4.8-0.9-6.3-2.6s-2.3-4.1-2.3-7.1v-0.4c0-2.9,0.8-5.2,2.3-7s3.7-2.6,6.3-2.6
			c2.3,0,4.1,0.7,5.5,2s2.2,3.1,2.2,5.2h-4c0-1.1-0.4-2-1.1-2.7c-0.7-0.7-1.6-1.1-2.7-1.1c-1.4,0-2.5,0.5-3.2,1.5
			c-0.8,1-1.1,2.5-1.1,4.6v0.7c0,2.1,0.4,3.6,1.1,4.6C555.2,572.4,556.2,572.9,557.6,572.9z"/>
		<path class="st1" d="M568.7,552c0-0.7,0.2-1.2,0.6-1.6s1-0.7,1.8-0.7c0.8,0,1.4,0.2,1.8,0.7c0.4,0.4,0.6,1,0.6,1.6
			c0,0.6-0.2,1.2-0.6,1.6c-0.4,0.4-1,0.6-1.8,0.6c-0.8,0-1.4-0.2-1.8-0.6C568.9,553.2,568.7,552.6,568.7,552z M573.2,576H569v-19
			h4.3V576z"/>
		<path class="st1" d="M577.1,566.3c0-1.9,0.4-3.5,1.1-5c0.7-1.5,1.8-2.6,3.1-3.4c1.3-0.8,2.9-1.2,4.6-1.2c2.6,0,4.7,0.8,6.3,2.5
			c1.6,1.7,2.5,3.8,2.6,6.6l0,1c0,1.9-0.4,3.6-1.1,5c-0.7,1.5-1.8,2.6-3.1,3.4c-1.3,0.8-2.9,1.2-4.7,1.2c-2.7,0-4.8-0.9-6.4-2.7
			s-2.4-4.2-2.4-7.1V566.3z M581.4,566.7c0,2,0.4,3.5,1.2,4.6c0.8,1.1,1.9,1.7,3.4,1.7c1.4,0,2.6-0.6,3.4-1.7
			c0.8-1.1,1.2-2.8,1.2-4.9c0-1.9-0.4-3.4-1.2-4.6c-0.8-1.1-1.9-1.7-3.4-1.7c-1.4,0-2.5,0.6-3.3,1.7
			C581.8,562.8,581.4,564.4,581.4,566.7z M587.1,549h4.9l-4.9,5.3l-3.4,0L587.1,549z"/>
		<path class="st1" d="M602.3,556.9l0.1,2.2c1.4-1.7,3.3-2.5,5.5-2.5c4,0,6,2.3,6,6.8V576h-4.3v-12.3c0-1.2-0.3-2.1-0.8-2.7
			c-0.5-0.6-1.4-0.9-2.6-0.9c-1.7,0-3,0.8-3.9,2.3V576h-4.3v-19H602.3z"/>
	</g>
</g>
</svg>
