<?xml version="1.0" encoding="utf-8"?>
<!-- Generator: Adobe Illustrator 27.0.1, SVG Export Plug-In . SVG Version: 6.00 Build 0)  -->
<svg version="1.1" id="Capa_1" xmlns="http://www.w3.org/2000/svg" xmlns:xlink="http://www.w3.org/1999/xlink" x="0px" y="0px"
	 viewBox="0 0 612.7 163.6" style="enable-background:new 0 0 612.7 163.6;" xml:space="preserve">
<style type="text/css">
	.st0{fill:#FFFFFF;}
	.st1{fill:#1176A5;}
	.st2{enable-background:new    ;}
	.st3{fill:#010202;}
</style>
<g>
	<path class="st0" d="M178.2-70.2v6.3h-4.5v-18.7h7.5c1.4,0,2.7,0.3,3.8,0.8c1.1,0.5,1.9,1.3,2.6,2.2c0.6,1,0.9,2.1,0.9,3.3
		c0,1.8-0.6,3.3-2,4.4c-1.3,1.1-3.1,1.6-5.4,1.6L178.2-70.2L178.2-70.2z M178.2-73.7h2.9c0.9,0,1.5-0.2,2-0.7s0.7-1.1,0.7-1.8
		c0-0.9-0.2-1.6-0.7-2.1s-1.1-0.8-1.9-0.8h-3L178.2-73.7L178.2-73.7z"/>
	<path class="st0" d="M197.8-70.4h-2.4v6.6h-4.5v-18.7h7.4c2.2,0,3.9,0.5,5.2,1.5c1.2,1,1.9,2.4,1.9,4.2c0,1.3-0.3,2.4-0.8,3.2
		c-0.5,0.8-1.4,1.6-2.5,2.1l3.9,7.6v0.2h-4.8L197.8-70.4z M195.4-73.9h2.9c0.9,0,1.5-0.2,1.9-0.7s0.6-1.1,0.6-1.9s-0.2-1.4-0.6-1.9
		s-1.1-0.7-1.9-0.7h-2.9V-73.9z"/>
	<path class="st0" d="M219.6-71.8h-7.1v4.5h8.4v3.5H208v-18.7h12.9v3.5h-8.4v3.9h7.1V-71.8z"/>
	<path class="st0" d="M234.5-71.3h-7.3v7.5h-4.5v-18.7h12.5v3.5h-8v4.3h7.3V-71.3z"/>
	<path class="st0" d="M248.7-71.8h-7.1v4.5h8.4v3.5h-12.9v-18.7H250v3.5h-8.4v3.9h7.1V-71.8z"/>
	<path class="st0" d="M267-70.2c-0.1,1.3-0.4,2.4-1,3.4c-0.6,1-1.5,1.8-2.7,2.3c-1.2,0.5-2.5,0.8-4,0.8c-2.5,0-4.4-0.8-5.8-2.4
		s-2.1-3.9-2.1-6.8v-0.9c0-1.8,0.3-3.4,1-4.8c0.6-1.4,1.6-2.4,2.8-3.2c1.2-0.8,2.6-1.1,4.2-1.1c2.3,0,4.1,0.6,5.5,1.8
		s2.2,2.8,2.4,4.9h-4.5c0-1.1-0.3-2-0.9-2.4c-0.5-0.5-1.4-0.7-2.5-0.7c-1.1,0-1.9,0.4-2.5,1.3c-0.5,0.8-0.8,2.2-0.8,4v1.3
		c0,2,0.2,3.4,0.8,4.3s1.4,1.3,2.6,1.3c1,0,1.8-0.2,2.4-0.7c0.5-0.5,0.8-1.3,0.9-2.3L267-70.2L267-70.2z"/>
	<path class="st0" d="M283.4-79.1h-5.6v15.2h-4.5v-15.2h-5.5v-3.5h15.6V-79.1z"/>
	<path class="st0" d="M300-82.5v12.2c0,1.4-0.3,2.6-0.9,3.6c-0.6,1-1.4,1.8-2.5,2.3s-2.4,0.8-3.9,0.8c-2.3,0-4.1-0.6-5.4-1.8
		s-2-2.8-2-4.8v-12.3h4.5v12.4c0,2.1,1,3.1,2.9,3.1c0.9,0,1.6-0.3,2.1-0.8c0.5-0.5,0.7-1.3,0.7-2.5v-12.2L300-82.5L300-82.5z"/>
	<path class="st0" d="M309.7-70.4h-2.4v6.6h-4.5v-18.7h7.4c2.2,0,4,0.5,5.2,1.5c1.2,1,1.9,2.4,1.9,4.2c0,1.3-0.3,2.4-0.8,3.2
		c-0.5,0.8-1.4,1.6-2.5,2.1l3.9,7.6v0.2H313L309.7-70.4z M307.3-73.9h2.9c0.9,0,1.5-0.2,1.9-0.7s0.6-1.1,0.6-1.9s-0.2-1.4-0.6-1.9
		s-1.1-0.7-1.9-0.7h-2.9V-73.9z"/>
	<path class="st0" d="M330.6-67.3h-6.2l-1.1,3.5h-4.8l6.9-18.7h4.2l6.9,18.7h-4.8L330.6-67.3z M325.5-70.8h4l-2-6.5L325.5-70.8z"/>
	<path class="st0" d="M360-63.8h-4.5l-6.6-11.6v11.6h-4.5v-18.7h4.5l6.6,11.6v-11.6h4.5L360-63.8L360-63.8z"/>
	<path class="st0" d="M373.7-67.3h-6.2l-1.1,3.5h-4.8l6.9-18.7h4.2l6.9,18.7h-4.8L373.7-67.3z M368.6-70.8h4l-2-6.5L368.6-70.8z"/>
	<path class="st0" d="M387.3-68.9l3.7-13.6h5l-6.3,18.7h-4.9l-6.2-18.7h5L387.3-68.9z"/>
	<path class="st0" d="M407.1-67.3h-6.2l-1.1,3.5H395l6.9-18.7h4.2l6.9,18.7h-4.8L407.1-67.3z M402-70.8h4l-2-6.5L402-70.8z"/>
	<path class="st0" d="M418.9-67.3h7.9v3.5h-12.4v-18.7h4.5L418.9-67.3L418.9-67.3z"/>
	<path class="st0" d="M445.8-67.3h-6.2l-1.1,3.5h-4.8l6.9-18.7h4.2l6.9,18.7h-4.8L445.8-67.3z M440.7-70.8h4l-2-6.5L440.7-70.8z"/>
	<path class="st0" d="M460-70.4h-2.4v6.6h-4.5v-18.7h7.4c2.2,0,4,0.5,5.2,1.5c1.2,1,1.9,2.4,1.9,4.2c0,1.3-0.3,2.4-0.8,3.2
		c-0.5,0.8-1.4,1.6-2.5,2.1l3.9,7.6v0.2h-4.8L460-70.4z M457.6-73.9h2.9c0.9,0,1.5-0.2,1.9-0.7s0.6-1.1,0.6-1.9s-0.2-1.4-0.6-1.9
		s-1.1-0.7-1.9-0.7h-2.9V-73.9z"/>
	<path class="st0" d="M485.6-66.1c-0.7,0.8-1.7,1.4-3,1.9c-1.3,0.5-2.8,0.7-4.4,0.7c-2.5,0-4.4-0.8-5.9-2.2s-2.2-3.6-2.4-6.3l0-1.6
		c0-1.8,0.3-3.4,1-4.8c0.6-1.4,1.6-2.4,2.8-3.2c1.2-0.7,2.6-1.1,4.2-1.1c2.3,0,4.1,0.5,5.4,1.6c1.3,1.1,2,2.7,2.2,4.8h-4.3
		c-0.1-1-0.5-1.8-1-2.2s-1.2-0.7-2.2-0.7c-1.1,0-2,0.5-2.6,1.4s-0.9,2.3-0.9,4.1v1.1c0,1.9,0.3,3.3,1,4.2c0.6,0.9,1.6,1.4,3,1.4
		c1.2,0,2-0.3,2.6-0.8v-2.9h-3.1v-3.1h7.6L485.6-66.1L485.6-66.1z"/>
	<path class="st0" d="M499.8-71.8h-7.1v4.5h8.4v3.5h-12.9v-18.7h12.9v3.5h-8.4v3.9h7.1V-71.8z"/>
	<path class="st0" d="M518.5-63.8H514l-6.6-11.6v11.6h-4.5v-18.7h4.5l6.6,11.6v-11.6h4.5V-63.8z"/>
	<path class="st0" d="M535.7-79.1h-5.6v15.2h-4.5v-15.2H520v-3.5h15.6V-79.1z"/>
	<path class="st0" d="M542.4-63.8h-4.5v-18.7h4.5V-63.8z"/>
	<path class="st0" d="M561.1-63.8h-4.5L550-75.5v11.6h-4.5v-18.7h4.5l6.6,11.6v-11.6h4.5V-63.8z"/>
	<path class="st0" d="M574.8-67.3h-6.2l-1.1,3.5h-4.8l6.9-18.7h4.2l6.9,18.7h-4.8L574.8-67.3z M569.7-70.8h4l-2-6.5L569.7-70.8z"/>
	<path class="st0" d="M184.4-35.8h-6.2l-1.1,3.5h-4.8l6.9-18.7h4.2l6.9,18.7h-4.8L184.4-35.8z M179.2-39.2h4l-2-6.5L179.2-39.2z"/>
	<path class="st0" d="M213.3-51v12.2c0,1.4-0.3,2.6-0.9,3.6c-0.6,1-1.4,1.8-2.5,2.3c-1.1,0.5-2.4,0.8-3.9,0.8
		c-2.3,0-4.1-0.6-5.4-1.8s-2-2.8-2-4.8V-51h4.5v12.4c0.1,2,1,3.1,2.9,3.1c0.9,0,1.6-0.3,2.1-0.8c0.5-0.5,0.7-1.3,0.7-2.5v-12.2
		L213.3-51L213.3-51z"/>
	<path class="st0" d="M238-47.5h-5.6v15.2h-4.5v-15.2h-5.5V-51H238V-47.5z"/>
	<path class="st0" d="M262.6-41.2c0,1.8-0.3,3.4-1,4.8s-1.6,2.5-2.9,3.2c-1.2,0.8-2.7,1.1-4.3,1.1s-3-0.4-4.2-1.1s-2.2-1.8-2.9-3.1
		s-1.1-2.9-1.1-4.7v-1c0-1.8,0.3-3.5,1-4.8c0.7-1.4,1.6-2.5,2.9-3.2c1.2-0.8,2.7-1.1,4.3-1.1c1.6,0,3,0.4,4.2,1.1s2.2,1.8,2.9,3.2
		s1,3,1,4.8L262.6-41.2L262.6-41.2z M258-42c0-1.9-0.3-3.3-0.9-4.2s-1.5-1.5-2.7-1.5c-2.3,0-3.4,1.7-3.6,5.1l0,1.4
		c0,1.8,0.3,3.2,0.9,4.2c0.6,1,1.5,1.5,2.7,1.5c1.1,0,2-0.5,2.6-1.5c0.6-1,0.9-2.4,0.9-4.2L258-42L258-42z"/>
	<path class="st0" d="M279.1-38.9h-2.4v6.6h-4.5V-51h7.4c2.2,0,4,0.5,5.2,1.5c1.2,1,1.9,2.4,1.9,4.2c0,1.3-0.3,2.4-0.8,3.2
		s-1.4,1.5-2.5,2.1l3.9,7.5v0.2h-4.8L279.1-38.9z M276.6-42.3h2.9c0.9,0,1.5-0.2,1.9-0.7s0.6-1.1,0.6-1.9c0-0.8-0.2-1.4-0.6-1.9
		c-0.4-0.5-1.1-0.7-1.9-0.7h-2.9V-42.3z"/>
	<path class="st0" d="M301.3-32.3h-4.5V-51h4.5V-32.3z"/>
	<path class="st0" d="M311.6-32.3V-51h6c1.6,0,3.1,0.4,4.5,1.1c1.3,0.8,2.4,1.8,3.1,3.2c0.7,1.4,1.1,2.9,1.1,4.6v0.9
		c0,1.7-0.4,3.2-1.1,4.6c-0.7,1.4-1.7,2.4-3.1,3.2c-1.3,0.8-2.8,1.2-4.4,1.2L311.6-32.3L311.6-32.3z M316.1-47.5v11.8h1.6
		c1.3,0,2.3-0.5,3-1.4c0.7-0.9,1-2.3,1-4.1V-42c0-1.8-0.4-3.2-1-4.1s-1.7-1.4-3-1.4L316.1-47.5L316.1-47.5z"/>
	<path class="st0" d="M346.2-35.8H340l-1.1,3.5h-4.8L341-51h4.2l6.9,18.7h-4.8L346.2-35.8z M341.1-39.2h4l-2-6.5L341.1-39.2z"/>
	<path class="st0" d="M360.7-32.3V-51h6c1.6,0,3.1,0.4,4.5,1.1c1.3,0.8,2.4,1.8,3.1,3.2c0.7,1.4,1.1,2.9,1.1,4.6v0.9
		c0,1.7-0.4,3.2-1.1,4.6c-0.7,1.4-1.7,2.4-3.1,3.2c-1.3,0.8-2.8,1.2-4.4,1.2L360.7-32.3L360.7-32.3z M365.2-47.5v11.8h1.6
		c1.3,0,2.3-0.5,3-1.4c0.7-0.9,1-2.3,1-4.1V-42c0-1.8-0.4-3.2-1-4.1s-1.7-1.4-3-1.4L365.2-47.5L365.2-47.5z"/>
	<path class="st0" d="M404.6-51l4.2,13l4.2-13h5.9v18.7h-4.5v-4.4l0.4-8.9l-4.5,13.3h-3l-4.5-13.3l0.4,9v4.4h-4.5V-51
		C398.7-51,404.6-51,404.6-51z"/>
	<path class="st0" d="M439.8-35.8h-6.2l-1.1,3.5h-4.8l6.9-18.7h4.2l6.9,18.7h-4.8L439.8-35.8z M434.7-39.2h4l-2-6.5L434.7-39.2z"/>
	<path class="st0" d="M461.2-38.9h-2.4v6.6h-4.5V-51h7.4c2.2,0,4,0.5,5.2,1.5c1.2,1,1.9,2.4,1.9,4.2c0,1.3-0.3,2.4-0.8,3.2
		s-1.4,1.5-2.5,2.1l3.9,7.5v0.2h-4.8L461.2-38.9z M458.8-42.3h2.9c0.9,0,1.5-0.2,1.9-0.7s0.6-1.1,0.6-1.9c0-0.8-0.2-1.4-0.6-1.9
		c-0.4-0.5-1.1-0.7-1.9-0.7h-2.9V-42.3z"/>
	<path class="st0" d="M483.5-32.3H479V-51h4.5V-32.3z M481.8-56h4.6l-3.6,4l-3.5,0L481.8-56z"/>
	<path class="st0" d="M508.1-47.5h-5.6v15.2H498v-15.2h-5.5V-51h15.6V-47.5z"/>
	<path class="st0" d="M522-32.3h-4.5V-51h4.5V-32.3z"/>
	<path class="st0" d="M538.3-51l4.2,13l4.2-13h5.9v18.7H548v-4.4l0.4-8.9l-4.5,13.3h-3l-4.5-13.3l0.4,9v4.4h-4.5V-51
		C532.4-51,538.3-51,538.3-51z"/>
	<path class="st0" d="M573.5-35.8h-6.2l-1.1,3.5h-4.8l6.9-18.7h4.2l6.9,18.7h-4.8L573.5-35.8z M568.4-39.2h4l-2-6.5L568.4-39.2z"/>
</g>
<path class="st0" d="M71.2-30.7c4.4,3.8,9.3,0.5,14.1,2.2c-1,1.4-1.7,2.9-2.7,3.9c-4.5,4.3-10,5.9-16,5.6c-0.6,0-1.7-1.1-1.8-1.8
	c0-1.9-1.2-2-2.6-2.3c-2.8-0.6-5.9-1-8.3-2.5c-3.4-2-6.9-2.3-10.5-2.5c-1.6-0.1-3.1,0-5,0c0.2-2.5,0.3-4.8,0.7-6.9
	c0.5-2.5,0.1-4.6-0.7-7c-1.1-3.1-1.6-6.5-1.8-9.8c-0.2-2.3-0.3-4-3.8-3.4c0.4-2.3,0.7-4.2,1.2-6c1.4-5.1,4.8-8.9,9-12
	c0.7-0.5,2-0.4,3-0.5c0,0.8,0.1,1.7,0.1,2.6c-0.2,2.5-0.3,5-0.6,7.5c-0.2,1.6-0.6,3.3-1.5,4.6c-2.5,3.6,0.7,12.9,5.1,13.9
	c0.5,0.1,1.3-0.2,1.8-0.5C61-53.6,71.1-61.7,81.5-70.1c-1.3-1.2-2.5-2.3-3.8-3.5c-2,1.2-3.8,4.2-6.3,1.4c-2-2.2,0.1-3.9,1.6-5.7
	c-1.5-1.6-2.6-2.9-5.3-2.4c-4.4,0.8-8.4-2.6-9.3-7.2c-0.7-3.5,1.7-7.2,5.3-8.3c5-1.4,10.8,2.7,10.5,8.1c-0.2,3.2,1.7,3.9,3.4,5.4
	c1.8-1.4,3.5-3.5,5.7-1.4C85-82,84-80,82.6-78.4c5.2,4.7,3.6,4.7,9.5-0.4c-1.3-1.7-2.6-3.6-0.6-5.4c2.2-2,3.9,0.2,5.7,1.5
	c1.7-1.5,3.8-2.1,3.3-5.4c-0.6-4.1,3.5-8,7.7-8.3c4-0.3,7.3,2.2,8.1,6.3c0.9,5.1-3.9,10.2-9.3,9.4c-2.6-0.4-3.9,0.6-5.2,2.4
	c1.2,1.8,3.8,3.6,1.3,5.9c-2.5,2.3-4.2-0.5-6.1-1.8c-1.4,1.3-2.8,2.6-4.4,4.1c5.2,4.2,10.2,8.2,15.2,12.2
	c5.1,4.1,10.2,8.1,15.2,12.3c1.9,1.6,3.4,1.3,5-0.2c3-2.9,3.7-6.6,3.8-10.5c0-0.3,0-0.8-0.2-1c-2.8-2.3-2.2-5.5-2.3-8.6
	c-0.1-1.5-0.4-3-0.6-4.5c-0.1-0.9,0.1-1.8,0.2-2.7c0.9,0.2,2,0.1,2.7,0.6c4.1,2.9,7.3,6.6,8.9,11.5c0.6,1.9,0.9,4,1.4,6
	c-3.6,1.1-3.3,1.1-3.8,4.6c-0.5,3.7-1.9,7.2-2.4,10.9c-0.4,2.7,0.1,5.6,0.2,8.3c0.1,1.1,0.2,2.3,0.4,3.8c-3.2,0-6.1-0.1-9,0.1
	c-1.5,0.1-3.1,0.6-4.4,1.3c-3.4,2-6.8,3.5-10.8,3.6c-1.4,0-2,0.5-2.2,2c-0.1,0.8-1.2,2-1.8,2.1c-6.3,0-12.1-1.4-16.6-6.2
	c-0.8-0.9-1.4-2-2.2-3.2c4.7-2.2,9.8,1.4,13.9-2.1c2.2,3.3,5.1,2.1,7.7,0.8c1.9-0.9,3.7-2.2,5.4-3.6c2.6-2,2.5-3.2,0.1-5.4
	c-5.4-5-10.8-9.9-16.3-14.9c-4.4-4-8.7-8-13.2-12.1c-7.5,6.8-14.8,13.5-22.1,20.2c-2.4,2.2-4.8,4.4-7.2,6.6c-1.9,1.8-2,3.1,0.2,4.8
	c2.2,1.6,4.5,3.2,7,4.3C67.1-28.2,69.6-27.2,71.2-30.7z M109-85.6c-0.4,0.4-0.7,0.7-1.1,1.1c3.3-0.9,4.8-2.3,4.5-4.4
	c-0.2-1.9-1.4-3-3.3-3.2c-2.1-0.3-3.8,1.4-4.5,4.3c0.5-0.5,1-1,1.5-1.5C107-88,108-86.8,109-85.6z M66.5-84.1
	c1.2-1.3,2.4-2.5,3.6-3.7c-1-2.8-2.6-4.1-4.6-3.8c-1.8,0.3-2.8,1.4-3,3.2C62.1-86.3,63.2-85.2,66.5-84.1z"/>
<g>
	<path class="st0" d="M146.9-164.9c5.1,4.4,10.9,0.6,16.5,2.6c-1.2,1.7-2,3.3-3.2,4.5c-5.2,5-11.7,6.9-18.8,6.6
		c-0.7,0-2-1.3-2.1-2.1c0-2.3-1.4-2.3-3-2.6c-3.3-0.8-6.9-1.2-9.7-2.9c-3.9-2.4-8-2.7-12.3-2.9c-1.8-0.1-3.7,0-5.8,0
		c0.3-2.9,0.3-5.6,0.9-8.1c0.6-2.9,0.1-5.4-0.8-8.2c-1.3-3.6-1.9-7.6-2.1-11.4c-0.2-2.8-0.4-4.7-4.5-3.9c0.5-2.6,0.8-4.9,1.4-7.1
		c1.7-6,5.6-10.4,10.5-14c0.8-0.6,2.3-0.4,3.4-0.6c0,1,0.1,2,0.1,3c-0.2,2.9-0.3,5.8-0.8,8.7c-0.3,1.9-0.7,3.9-1.7,5.4
		c-2.9,4.2,0.8,15.1,5.9,16.3c0.6,0.1,1.6-0.2,2.1-0.6c11.9-9.5,23.8-19,36-28.8c-1.6-1.4-2.9-2.7-4.4-4.1c-2.3,1.4-4.5,4.9-7.4,1.7
		c-2.3-2.6,0.1-4.6,1.9-6.6c-1.7-1.9-3.1-3.4-6.2-2.8c-5.1,1-9.8-3-10.9-8.4c-0.8-4.1,2-8.4,6.2-9.7c5.9-1.7,12.7,3.1,12.2,9.4
		c-0.3,3.7,1.9,4.6,4,6.3c2.1-1.6,4.1-4.1,6.7-1.7c2.1,2,0.9,4.3-0.8,6.1c6,5.5,4.2,5.5,11.1-0.4c-1.5-1.9-3.1-4.2-0.7-6.3
		c2.6-2.3,4.6,0.2,6.7,1.8c1.9-1.8,4.4-2.5,3.9-6.3c-0.7-4.8,4.1-9.3,9.1-9.8c4.7-0.4,8.5,2.6,9.4,7.3c1.1,5.9-4.5,12-10.9,11
		c-3-0.4-4.5,0.7-6.1,2.8c1.4,2.1,4.4,4.2,1.5,6.9c-2.9,2.7-4.9-0.5-7.2-2.1c-1.6,1.5-3.3,3-5.1,4.8c6.1,4.8,11.9,9.5,17.8,14.2
		c5.9,4.8,11.9,9.5,17.8,14.3c2.2,1.9,4,1.5,5.9-0.3c3.5-3.4,4.4-7.7,4.5-12.3c0-0.4,0-0.9-0.2-1.1c-3.3-2.7-2.6-6.5-2.7-10.1
		c-0.1-1.7-0.5-3.5-0.6-5.2c-0.1-1,0.1-2.1,0.2-3.1c1.1,0.2,2.4,0.2,3.2,0.7c4.8,3.4,8.6,7.7,10.4,13.4c0.7,2.3,1.1,4.7,1.6,7
		c-4.2,1.3-3.9,1.3-4.5,5.4c-0.6,4.3-2.3,8.4-2.9,12.7c-0.4,3.2,0.1,6.5,0.3,9.8c0.1,1.3,0.3,2.7,0.5,4.5c-3.7,0-7.1-0.2-10.5,0.1
		c-1.8,0.1-3.6,0.7-5.2,1.6c-3.9,2.3-8,4.1-12.6,4.2c-1.7,0-2.4,0.6-2.6,2.3c-0.1,0.9-1.3,2.4-2.1,2.4c-7.3,0-14.1-1.7-19.4-7.3
		c-0.9-1-1.6-2.3-2.6-3.8c5.5-2.6,11.4,1.6,16.3-2.5c2.6,3.9,5.9,2.4,9,0.9c2.2-1.1,4.4-2.6,6.3-4.2c3-2.4,3-3.7,0.1-6.4
		c-6.3-5.8-12.7-11.6-19-17.4c-5.1-4.7-10.2-9.3-15.4-14.1c-8.8,8-17.3,15.8-25.9,23.7c-2.8,2.6-5.6,5.1-8.4,7.8
		c-2.2,2.2-2.3,3.7,0.2,5.6c2.6,1.9,5.2,3.8,8.1,5.1C142-162.1,145.1-160.9,146.9-164.9z M191-229.1c-0.4,0.4-0.9,0.9-1.3,1.3
		c3.9-1.1,5.6-2.7,5.2-5.1c-0.3-2.2-1.7-3.5-3.8-3.8c-2.4-0.3-4.4,1.6-5.3,5.1c0.6-0.6,1.1-1.1,1.7-1.7
		C188.8-232,189.9-230.6,191-229.1z M141.4-227.4c1.4-1.5,2.8-2.9,4.1-4.4c-1.2-3.3-3-4.8-5.4-4.4c-2.1,0.3-3.2,1.7-3.6,3.7
		C136.2-230,137.6-228.7,141.4-227.4z"/>
	<g>
		<path class="st0" d="M271.5-212.3v9.6h-6.8V-231H276c2.2,0,4.1,0.4,5.7,1.2s3,1.9,3.9,3.4c0.9,1.5,1.4,3.1,1.4,5c0,2.8-1,5-3,6.6
			c-2,1.6-4.7,2.5-8.1,2.5L271.5-212.3L271.5-212.3z M271.5-217.6h4.5c1.3,0,2.3-0.3,3-1c0.7-0.7,1-1.6,1-2.8c0-1.3-0.4-2.4-1.1-3.2
			s-1.7-1.2-2.9-1.2h-4.5L271.5-217.6L271.5-217.6z"/>
		<path class="st0" d="M301.1-212.7h-3.7v10h-6.8V-231h11.1c3.4,0,6,0.7,7.9,2.2c1.9,1.5,2.8,3.6,2.8,6.3c0,2-0.4,3.6-1.2,4.9
			c-0.8,1.3-2,2.3-3.7,3.1l5.9,11.4v0.3h-7.3L301.1-212.7z M297.4-217.9h4.3c1.3,0,2.3-0.3,2.9-1c0.6-0.7,1-1.6,1-2.8
			c0-1.2-0.3-2.2-1-2.9c-0.7-0.7-1.6-1-2.9-1h-4.3L297.4-217.9L297.4-217.9z"/>
		<path class="st0" d="M334-214.7h-10.7v6.8H336v5.2h-19.5V-231H336v5.3h-12.7v6H334V-214.7z"/>
		<path class="st0" d="M356.6-214h-11v11.3h-6.8V-231h18.9v5.3h-12.1v6.5h11L356.6-214L356.6-214z"/>
		<path class="st0" d="M378-214.7h-10.7v6.8H380v5.2h-19.5V-231H380v5.3h-12.7v6H378V-214.7z"/>
		<path class="st0" d="M405.6-212.3c-0.1,2-0.6,3.7-1.6,5.2c-1,1.5-2.3,2.7-4.1,3.5c-1.8,0.8-3.8,1.2-6,1.2c-3.7,0-6.6-1.2-8.8-3.6
			c-2.1-2.4-3.2-5.8-3.2-10.2v-1.4c0-2.8,0.5-5.2,1.5-7.3s2.4-3.7,4.2-4.8s3.9-1.7,6.3-1.7c3.4,0,6.2,0.9,8.3,2.7s3.3,4.3,3.5,7.5
			h-6.8c0-1.7-0.5-3-1.3-3.7c-0.8-0.8-2.1-1.1-3.7-1.1c-1.7,0-2.9,0.6-3.7,1.9s-1.2,3.3-1.2,6.1v2c0,3,0.4,5.2,1.1,6.5
			c0.8,1.3,2.1,1.9,3.9,1.9c1.6,0,2.8-0.4,3.6-1.1c0.8-0.7,1.3-1.9,1.3-3.5L405.6-212.3L405.6-212.3z"/>
		<path class="st0" d="M430.5-225.7H422v23h-6.8v-23h-8.3v-5.3h23.6V-225.7z"/>
		<path class="st0" d="M455.5-231v18.5c0,2.1-0.5,3.9-1.3,5.4c-0.9,1.5-2.2,2.7-3.8,3.5c-1.7,0.8-3.6,1.2-5.9,1.2
			c-3.4,0-6.1-0.9-8.1-2.7c-2-1.8-3-4.2-3-7.3V-231h6.9v18.8c0.1,3.1,1.5,4.6,4.3,4.6c1.4,0,2.5-0.4,3.2-1.2s1.1-2,1.1-3.8V-231
			H455.5z"/>
		<path class="st0" d="M470.3-212.7h-3.7v10h-6.8V-231h11.1c3.4,0,6,0.7,7.9,2.2c1.9,1.5,2.8,3.6,2.8,6.3c0,2-0.4,3.6-1.2,4.9
			c-0.8,1.3-2,2.3-3.7,3.1l5.9,11.4v0.3h-7.3L470.3-212.7z M466.6-217.9h4.3c1.3,0,2.3-0.3,2.9-1c0.6-0.7,1-1.6,1-2.8
			c0-1.2-0.3-2.2-1-2.9c-0.7-0.7-1.6-1-2.9-1h-4.3L466.6-217.9L466.6-217.9z"/>
		<path class="st0" d="M501.8-208h-9.3l-1.6,5.3h-7.3l10.4-28.3h6.4l10.4,28.3h-7.3L501.8-208z M494-213.2h6.1l-3-9.8L494-213.2z"/>
		<path class="st0" d="M280.3-175.8h-4.7l-6.9-12.1v12.1H264v-19.4h4.7l6.9,12.1v-12.1h4.7V-175.8z"/>
		<path class="st0" d="M294.5-179.4h-6.4l-1.1,3.6h-5l7.1-19.4h4.4l7.2,19.4h-5L294.5-179.4z M289.2-183.1h4.2l-2.1-6.7L289.2-183.1
			z"/>
		<path class="st0" d="M308.6-181.1l3.9-14.1h5.2l-6.5,19.4H306l-6.5-19.4h5.2L308.6-181.1z"/>
		<path class="st0" d="M329.2-179.4h-6.4l-1.1,3.6h-5l7.1-19.4h4.4l7.2,19.4h-5L329.2-179.4z M323.9-183.1h4.2l-2.1-6.7L323.9-183.1
			z"/>
		<path class="st0" d="M341.5-179.4h8.2v3.6h-12.8v-19.4h4.7L341.5-179.4L341.5-179.4z"/>
		<path class="st0" d="M369.4-179.4H363l-1.1,3.6h-5l7.1-19.4h4.4l7.2,19.4h-5L369.4-179.4z M364.1-183.1h4.2l-2.1-6.7L364.1-183.1z
			"/>
		<path class="st0" d="M384.2-182.7h-2.5v6.9H377v-19.4h7.6c2.3,0,4.1,0.5,5.4,1.5c1.3,1,2,2.5,2,4.3c0,1.3-0.3,2.5-0.8,3.4
			c-0.5,0.9-1.4,1.6-2.6,2.2l4.1,7.8v0.2h-5L384.2-182.7z M381.7-186.3h3c0.9,0,1.6-0.2,2-0.7s0.7-1.1,0.7-2s-0.2-1.5-0.7-2
			s-1.1-0.7-2-0.7h-3L381.7-186.3L381.7-186.3z"/>
		<path class="st0" d="M410.8-178.2c-0.7,0.8-1.8,1.4-3.2,1.9c-1.4,0.5-2.9,0.7-4.6,0.7c-2.5,0-4.6-0.8-6.1-2.3
			c-1.5-1.6-2.3-3.7-2.4-6.5l0-1.7c0-1.9,0.3-3.6,1-5c0.7-1.4,1.6-2.5,2.9-3.3c1.3-0.8,2.7-1.2,4.4-1.2c2.4,0,4.3,0.6,5.6,1.7
			c1.3,1.1,2.1,2.8,2.3,5h-4.5c-0.2-1.1-0.5-1.9-1-2.3c-0.5-0.5-1.3-0.7-2.3-0.7c-1.2,0-2.1,0.5-2.7,1.5s-1,2.4-1,4.3v1.2
			c0,1.9,0.3,3.4,1,4.4c0.7,1,1.7,1.5,3.1,1.5c1.2,0,2.1-0.3,2.7-0.8v-3h-3.3v-3.2h7.9L410.8-178.2L410.8-178.2z"/>
		<path class="st0" d="M425.5-184.1h-7.4v4.6h8.7v3.6h-13.4v-19.4h13.4v3.6h-8.7v4.1h7.4L425.5-184.1L425.5-184.1z"/>
		<path class="st0" d="M445-175.8h-4.7l-6.9-12.1v12.1h-4.7v-19.4h4.7l6.9,12.1v-12.1h4.7V-175.8z"/>
		<path class="st0" d="M462.9-191.6H457v15.8h-4.7v-15.8h-5.7v-3.6h16.2V-191.6z"/>
		<path class="st0" d="M469.8-175.8h-4.7v-19.4h4.7V-175.8z"/>
		<path class="st0" d="M489.3-175.8h-4.7l-6.9-12.1v12.1h-4.7v-19.4h4.7l6.9,12.1v-12.1h4.7V-175.8z"/>
		<path class="st0" d="M503.6-179.4h-6.4l-1.1,3.6h-5l7.1-19.4h4.4l7.2,19.4h-5L503.6-179.4z M498.3-183.1h4.2l-2.1-6.7L498.3-183.1
			z"/>
		<path class="st0" d="M273-154.9h-6.1l-1.3,3.7h-2.9l6-15.8h2.5l6,15.8h-2.9L273-154.9z M267.7-157.2h4.6l-2.3-6.6L267.7-157.2z"/>
		<path class="st0" d="M291-167.1v10.6c0,1.7-0.5,3-1.6,4c-1.1,1-2.5,1.5-4.3,1.5c-1.8,0-3.2-0.5-4.3-1.4c-1.1-1-1.6-2.3-1.6-4
			v-10.5h2.7v10.6c0,1.1,0.3,1.9,0.8,2.4s1.3,0.8,2.4,0.8c2.1,0,3.2-1.1,3.2-3.3v-10.5L291-167.1L291-167.1z"/>
		<path class="st0" d="M306-164.8h-4.9v13.6h-2.7v-13.6h-4.9v-2.2H306L306-164.8L306-164.8z"/>
		<path class="st0" d="M321-158.7c0,1.6-0.3,2.9-0.8,4.1c-0.5,1.2-1.3,2.1-2.3,2.7c-1,0.6-2.1,0.9-3.4,0.9c-1.3,0-2.4-0.3-3.4-0.9
			c-1-0.6-1.8-1.5-2.3-2.7c-0.5-1.2-0.8-2.5-0.8-4v-0.9c0-1.5,0.3-2.9,0.8-4.1c0.5-1.2,1.3-2.1,2.3-2.7c1-0.6,2.1-0.9,3.4-0.9
			s2.4,0.3,3.4,0.9c1,0.6,1.8,1.5,2.3,2.7c0.5,1.2,0.8,2.5,0.8,4.1L321-158.7L321-158.7z M318.3-159.6c0-1.8-0.3-3.1-1-4
			c-0.7-0.9-1.6-1.4-2.8-1.4c-1.2,0-2.1,0.5-2.8,1.4c-0.7,0.9-1,2.2-1,3.9v0.9c0,1.7,0.3,3.1,1,4c0.7,0.9,1.6,1.4,2.8,1.4
			c1.2,0,2.1-0.5,2.8-1.4c0.6-0.9,1-2.3,1-4.1L318.3-159.6L318.3-159.6z"/>
		<path class="st0" d="M330.2-157.3h-3.1v6.1h-2.7v-15.8h5.5c1.8,0,3.2,0.4,4.2,1.2c1,0.8,1.5,2,1.5,3.6c0,1.1-0.2,1.9-0.8,2.7
			c-0.5,0.7-1.2,1.3-2.1,1.6l3.5,6.6v0.1h-2.9L330.2-157.3z M327.2-159.5h2.8c0.9,0,1.6-0.2,2.2-0.7c0.5-0.5,0.8-1.1,0.8-1.9
			c0-0.8-0.2-1.5-0.7-2c-0.5-0.5-1.2-0.7-2.1-0.7h-2.9L327.2-159.5L327.2-159.5z"/>
		<path class="st0" d="M341.9-151.3h-2.7V-167h2.7V-151.3z"/>
		<path class="st0" d="M345.9-151.3V-167h4.7c1.4,0,2.6,0.3,3.7,0.9c1.1,0.6,1.9,1.5,2.5,2.6c0.6,1.1,0.9,2.4,0.9,3.9v0.8
			c0,1.5-0.3,2.8-0.9,3.9c-0.6,1.1-1.5,2-2.5,2.6c-1.1,0.6-2.4,0.9-3.8,0.9H345.9z M348.7-164.8v11.4h1.8c1.4,0,2.5-0.4,3.3-1.3
			c0.8-0.9,1.2-2.2,1.2-3.9v-0.9c0-1.7-0.4-3-1.1-3.9c-0.8-0.9-1.8-1.4-3.2-1.4L348.7-164.8L348.7-164.8z"/>
		<path class="st0" d="M369.7-154.9h-6.1l-1.3,3.7h-2.9l6-15.8h2.5l6,15.8H371L369.7-154.9z M364.4-157.2h4.6l-2.3-6.6L364.4-157.2z
			"/>
		<path class="st0" d="M376.3-151.3V-167h4.7c1.4,0,2.6,0.3,3.7,0.9c1.1,0.6,1.9,1.5,2.5,2.6c0.6,1.1,0.9,2.4,0.9,3.9v0.8
			c0,1.5-0.3,2.8-0.9,3.9c-0.6,1.1-1.5,2-2.5,2.6c-1.1,0.6-2.4,0.9-3.8,0.9H376.3z M379.1-164.8v11.4h1.8c1.4,0,2.5-0.4,3.3-1.3
			c0.8-0.9,1.2-2.2,1.2-3.9v-0.9c0-1.7-0.4-3-1.1-3.9c-0.8-0.9-1.8-1.4-3.2-1.4L379.1-164.8L379.1-164.8z"/>
		<path class="st0" d="M401.3-167.1l4.6,12.1l4.5-12.1h3.5v15.8h-2.7v-5.2l0.3-7l-4.7,12.2h-2l-4.6-12.2l0.3,6.9v5.2h-2.7v-15.8
			H401.3z"/>
		<path class="st0" d="M426.9-154.9h-6.1l-1.3,3.7h-2.9l6-15.8h2.5l6,15.8h-2.9L426.9-154.9z M421.5-157.2h4.6l-2.3-6.6L421.5-157.2
			z"/>
		<path class="st0" d="M439.3-157.3h-3.1v6.1h-2.7v-15.8h5.5c1.8,0,3.2,0.4,4.2,1.2c1,0.8,1.5,2,1.5,3.6c0,1.1-0.2,1.9-0.8,2.7
			c-0.5,0.7-1.2,1.3-2.1,1.6l3.5,6.6v0.1h-2.9L439.3-157.3z M436.2-159.5h2.8c0.9,0,1.6-0.2,2.2-0.7c0.5-0.5,0.8-1.1,0.8-1.9
			c0-0.8-0.2-1.5-0.7-2c-0.5-0.5-1.2-0.7-2.1-0.7h-2.9L436.2-159.5L436.2-159.5z"/>
		<path class="st0" d="M450.9-151.3h-2.7V-167h2.7V-151.3z M450.3-171.4h3l-3,3.3l-2.1,0L450.3-171.4z"/>
		<path class="st0" d="M466-164.8h-4.9v13.6h-2.7v-13.6h-4.9v-2.2H466L466-164.8L466-164.8z"/>
		<path class="st0" d="M471.7-151.3h-2.7V-167h2.7V-151.3z"/>
		<path class="st0" d="M479.3-167.1l4.6,12.1l4.5-12.1h3.5v15.8h-2.7v-5.2l0.3-7l-4.7,12.2h-2l-4.6-12.2l0.3,6.9v5.2h-2.7v-15.8
			H479.3z"/>
		<path class="st0" d="M504.9-154.9h-6.1l-1.3,3.7h-2.9l6-15.8h2.5l6,15.8h-2.9L504.9-154.9z M499.5-157.2h4.6l-2.3-6.6L499.5-157.2
			z"/>
	</g>
</g>
<polygon class="st1" points="121.8,129.5 110,129.5 143.3,36.9 155,36.9 "/>
<polygon class="st1" points="202.8,129.5 130.9,129.5 164.1,36.9 236,36.9 "/>
<g>
	<g class="st2">
		<path class="st3" d="M244.8,37.4h12c2.6,0,4.6,1,5.9,2.9c1.3,1.9,1.9,4.7,1.9,8.2c0,3.6-0.7,6.5-2.1,8.5c-1.4,2.1-3.6,3.1-6.5,3.1
			h-3.9v13.4h-7.2V37.4z M252.1,52.8h1.8c1.4,0,2.4-0.4,2.9-1.1s0.8-1.7,0.8-2.9c0-1.1-0.2-2.1-0.7-2.9c-0.5-0.8-1.4-1.2-2.8-1.2
			h-2.1V52.8z"/>
		<path class="st3" d="M268.5,73.5V37.4h12c2.2,0,3.9,0.3,5.1,0.9c1.2,0.6,2.1,1.7,2.8,3.3s1.1,3.5,1.1,5.8c0,2-0.3,3.7-0.8,5.2
			s-1.3,2.6-2.3,3.5c-0.6,0.6-1.5,1-2.5,1.4c0.9,0.4,1.5,0.9,1.9,1.3c0.3,0.3,0.6,0.9,1.2,1.9c0.5,1,0.8,1.7,1,2.2l3.5,10.5h-8.1
			l-3.9-11c-0.5-1.4-0.9-2.4-1.3-2.8c-0.5-0.6-1.1-0.8-1.8-0.8h-0.6v14.6H268.5z M275.7,52.1h3c0.3,0,1-0.2,1.9-0.5
			c0.5-0.1,0.9-0.5,1.2-1.1c0.3-0.6,0.5-1.3,0.5-2.1c0-1.2-0.2-2.1-0.7-2.7c-0.5-0.6-1.4-0.9-2.7-0.9h-3.2V52.1z"/>
		<path class="st3" d="M293.7,37.4h19.3v7.7H301v5.7h11.2v7.4H301v7.1h12.4v8.2h-19.7V37.4z"/>
		<path class="st3" d="M317.3,37.4h17.8v7.8h-10.6v6.3h9v7.3h-9v14.7h-7.2V37.4z"/>
		<path class="st3" d="M339,37.4h19.3v7.7h-12.1v5.7h11.2v7.4h-11.2v7.1h12.4v8.2H339V37.4z"/>
		<path class="st3" d="M378.1,58.8l6.3,3c-0.4,2.7-1.1,5-2,6.9c-0.9,1.8-2,3.2-3.4,4.2c-1.4,0.9-3.1,1.4-5.2,1.4
			c-2.5,0-4.6-0.6-6.2-1.7c-1.6-1.1-3-3.1-4.2-6c-1.2-2.9-1.8-6.5-1.8-11c0-6,1-10.6,3.1-13.8c2.1-3.2,5-4.8,8.7-4.8
			c2.9,0,5.2,0.9,6.9,2.8c1.7,1.8,2.9,4.7,3.7,8.5l-6.4,2.2c-0.2-1.1-0.5-1.9-0.7-2.4c-0.4-0.9-0.9-1.5-1.5-2s-1.2-0.7-2-0.7
			c-1.6,0-2.9,1-3.8,3c-0.7,1.5-1,3.9-1,7.1c0,4,0.4,6.7,1.2,8.2s1.9,2.2,3.3,2.2c1.4,0,2.4-0.6,3.1-1.8
			C377.3,62.8,377.8,61,378.1,58.8z"/>
		<path class="st3" d="M386.3,37.4h21.9v8.9h-7.4v27.2h-7.2V46.4h-7.4V37.4z"/>
		<path class="st3" d="M426.7,37.4h7.2v21.5c0,2.1-0.2,4.1-0.6,6c-0.4,1.9-1.1,3.6-2,5s-1.9,2.4-2.9,3c-1.4,0.8-3.1,1.2-5,1.2
			c-1.1,0-2.4-0.1-3.7-0.4c-1.3-0.2-2.5-0.7-3.4-1.5c-0.9-0.7-1.7-1.8-2.5-3.1c-0.7-1.3-1.3-2.7-1.5-4.2c-0.4-2.3-0.7-4.3-0.7-6.1
			V37.4h7.2v22c0,2,0.4,3.5,1.1,4.6c0.7,1.1,1.7,1.7,2.9,1.7c1.2,0,2.2-0.5,2.9-1.6c0.7-1.1,1.1-2.6,1.1-4.6V37.4z"/>
		<path class="st3" d="M438.7,73.5V37.4h12c2.2,0,3.9,0.3,5.1,0.9c1.2,0.6,2.1,1.7,2.8,3.3s1.1,3.5,1.1,5.8c0,2-0.3,3.7-0.8,5.2
			s-1.3,2.6-2.3,3.5c-0.6,0.6-1.5,1-2.5,1.4c0.9,0.4,1.5,0.9,1.9,1.3c0.3,0.3,0.6,0.9,1.2,1.9c0.5,1,0.8,1.7,1,2.2l3.5,10.5h-8.1
			l-3.9-11c-0.5-1.4-0.9-2.4-1.3-2.8c-0.5-0.6-1.1-0.8-1.8-0.8H446v14.6H438.7z M446,52.1h3c0.3,0,1-0.2,1.9-0.5
			c0.5-0.1,0.9-0.5,1.2-1.1c0.3-0.6,0.5-1.3,0.5-2.1c0-1.2-0.2-2.1-0.7-2.7s-1.4-0.9-2.7-0.9H446V52.1z"/>
		<path class="st3" d="M478.3,67.6h-8.2l-1.1,6h-7.4l8.8-36.1h7.9l8.8,36.1h-7.6L478.3,67.6z M476.8,59.8l-2.6-13l-2.5,13H476.8z"/>
	</g>
	<g>
		<g class="st2">
			<path class="st3" d="M254.1,127.3h-3.7l-0.5,2.1h-3.4l4-12.6h3.6l4,12.6h-3.5L254.1,127.3z M253.4,124.5l-1.2-4.5l-1.2,4.5H253.4
				z"/>
			<path class="st3" d="M268.6,116.8h3.3v7.5c0,0.7-0.1,1.4-0.3,2.1c-0.2,0.7-0.5,1.2-0.9,1.7s-0.9,0.8-1.3,1
				c-0.6,0.3-1.4,0.4-2.3,0.4c-0.5,0-1.1,0-1.7-0.1c-0.6-0.1-1.1-0.3-1.5-0.5c-0.4-0.3-0.8-0.6-1.1-1.1c-0.3-0.5-0.6-1-0.7-1.4
				c-0.2-0.8-0.3-1.5-0.3-2.1v-7.5h3.3v7.7c0,0.7,0.2,1.2,0.5,1.6c0.3,0.4,0.8,0.6,1.3,0.6c0.6,0,1-0.2,1.3-0.6
				c0.3-0.4,0.5-0.9,0.5-1.6V116.8z"/>
			<path class="st3" d="M276.3,116.8h10v3.1h-3.4v9.5h-3.3v-9.5h-3.4V116.8z"/>
			<path class="st3" d="M289.9,123.1c0-2.1,0.5-3.6,1.5-4.8c1-1.1,2.3-1.7,4.1-1.7c1.8,0,3.1,0.6,4.1,1.7s1.4,2.7,1.4,4.7
				c0,1.5-0.2,2.7-0.6,3.6c-0.4,0.9-1,1.7-1.8,2.2c-0.8,0.5-1.8,0.8-3,0.8c-1.2,0-2.2-0.2-3-0.7s-1.4-1.2-1.9-2.1
				C290.1,125.8,289.9,124.5,289.9,123.1z M293.2,123.1c0,1.3,0.2,2.2,0.6,2.7c0.4,0.6,0.9,0.8,1.6,0.8c0.7,0,1.3-0.3,1.6-0.8
				s0.6-1.5,0.6-2.9c0-1.2-0.2-2-0.6-2.6c-0.4-0.5-1-0.8-1.6-0.8c-0.7,0-1.2,0.3-1.6,0.8C293.4,120.9,293.2,121.8,293.2,123.1z"/>
			<path class="st3" d="M305.7,129.3v-12.6h5.5c1,0,1.8,0.1,2.3,0.3s1,0.6,1.3,1.1c0.3,0.6,0.5,1.2,0.5,2c0,0.7-0.1,1.3-0.4,1.8
				c-0.3,0.5-0.6,0.9-1,1.2c-0.3,0.2-0.7,0.4-1.2,0.5c0.4,0.2,0.7,0.3,0.9,0.5c0.1,0.1,0.3,0.3,0.5,0.7c0.2,0.3,0.4,0.6,0.5,0.8
				l1.6,3.6h-3.7l-1.8-3.8c-0.2-0.5-0.4-0.8-0.6-1c-0.2-0.2-0.5-0.3-0.8-0.3H309v5.1H305.7z M309,121.9h1.4c0.2,0,0.4-0.1,0.9-0.2
				c0.2-0.1,0.4-0.2,0.5-0.4c0.1-0.2,0.2-0.5,0.2-0.7c0-0.4-0.1-0.7-0.3-0.9c-0.2-0.2-0.6-0.3-1.2-0.3H309V121.9z"/>
			<path class="st3" d="M320.4,116.8h3.3v12.6h-3.3V116.8z"/>
			<path class="st3" d="M329.1,116.8h4.9c1,0,1.7,0.2,2.3,0.5c0.6,0.3,1.1,0.8,1.5,1.3c0.4,0.6,0.7,1.2,0.8,2s0.3,1.6,0.3,2.4
				c0,1.3-0.1,2.4-0.4,3.1c-0.3,0.7-0.6,1.4-1.1,1.9s-1,0.8-1.5,1c-0.7,0.2-1.4,0.3-2,0.3h-4.9V116.8z M332.4,119.6v6.9h0.8
				c0.7,0,1.2-0.1,1.5-0.3s0.5-0.5,0.7-0.9c0.2-0.4,0.2-1.2,0.2-2.2c0-1.3-0.2-2.2-0.6-2.7c-0.4-0.5-1-0.7-1.8-0.7H332.4z"/>
			<path class="st3" d="M349.6,127.3h-3.7l-0.5,2.1h-3.4l4-12.6h3.6l4,12.6h-3.5L349.6,127.3z M348.9,124.5l-1.2-4.5l-1.2,4.5H348.9
				z"/>
			<path class="st3" d="M357.6,116.8h4.9c1,0,1.7,0.2,2.3,0.5c0.6,0.3,1.1,0.8,1.5,1.3c0.4,0.6,0.7,1.2,0.8,2s0.3,1.6,0.3,2.4
				c0,1.3-0.1,2.4-0.4,3.1c-0.3,0.7-0.6,1.4-1.1,1.9s-1,0.8-1.5,1c-0.7,0.2-1.4,0.3-2,0.3h-4.9V116.8z M360.9,119.6v6.9h0.8
				c0.7,0,1.2-0.1,1.5-0.3s0.5-0.5,0.7-0.9c0.2-0.4,0.2-1.2,0.2-2.2c0-1.3-0.2-2.2-0.6-2.7c-0.4-0.5-1-0.7-1.8-0.7H360.9z"/>
			<path class="st3" d="M380.1,116.8h4.3l1.7,7.6l1.7-7.6h4.3v12.6h-2.7v-9.6l-2.1,9.6h-2.4l-2.1-9.6v9.6h-2.7V116.8z"/>
			<path class="st3" d="M403.8,127.3H400l-0.5,2.1h-3.4l4-12.6h3.6l4,12.6h-3.5L403.8,127.3z M403.1,124.5l-1.2-4.5l-1.2,4.5H403.1z
				"/>
			<path class="st3" d="M411.8,129.3v-12.6h5.5c1,0,1.8,0.1,2.3,0.3s1,0.6,1.3,1.1c0.3,0.6,0.5,1.2,0.5,2c0,0.7-0.1,1.3-0.4,1.8
				c-0.3,0.5-0.6,0.9-1,1.2c-0.3,0.2-0.7,0.4-1.2,0.5c0.4,0.2,0.7,0.3,0.9,0.5c0.1,0.1,0.3,0.3,0.5,0.7c0.2,0.3,0.4,0.6,0.5,0.8
				l1.6,3.6h-3.7l-1.8-3.8c-0.2-0.5-0.4-0.8-0.6-1c-0.2-0.2-0.5-0.3-0.8-0.3h-0.3v5.1H411.8z M415.1,121.9h1.4
				c0.2,0,0.4-0.1,0.9-0.2c0.2-0.1,0.4-0.2,0.5-0.4c0.1-0.2,0.2-0.5,0.2-0.7c0-0.4-0.1-0.7-0.3-0.9c-0.2-0.2-0.6-0.3-1.2-0.3h-1.4
				V121.9z"/>
			<path class="st3" d="M426.5,116.8h3.3v12.6h-3.3V116.8z M428.1,113.4h2.5l-2.3,2.6h-1.4L428.1,113.4z"/>
			<path class="st3" d="M434.4,116.8h10v3.1h-3.4v9.5h-3.3v-9.5h-3.4V116.8z"/>
			<path class="st3" d="M449,116.8h3.3v12.6H449V116.8z"/>
			<path class="st3" d="M457.7,116.8h4.3l1.7,7.6l1.7-7.6h4.3v12.6H467v-9.6l-2.1,9.6h-2.4l-2.1-9.6v9.6h-2.7V116.8z"/>
			<path class="st3" d="M481.3,127.3h-3.7l-0.5,2.1h-3.4l4-12.6h3.6l4,12.6h-3.5L481.3,127.3z M480.6,124.5l-1.2-4.5l-1.2,4.5H480.6
				z"/>
		</g>
	</g>
	<g>
		<g class="st2">
			<path class="st3" d="M245.3,83.6h4.7l6.1,12.9V83.6h4.8v23.3h-4.8L250,94.1v12.8h-4.7V83.6z"/>
			<path class="st3" d="M274,103h-5.7l-0.8,3.8h-5.1l6.1-23.3h5.5l6.1,23.3h-5.3L274,103z M273,98l-1.8-8.4l-1.8,8.4H273z"/>
			<path class="st3" d="M278.9,83.6h5.3l3.7,16.7l3.6-16.7h5.1l-6.1,23.3H285L278.9,83.6z"/>
			<path class="st3" d="M306.9,103h-5.7l-0.8,3.8h-5.1l6.1-23.3h5.5l6.1,23.3h-5.3L306.9,103z M305.9,98l-1.8-8.4l-1.8,8.4H305.9z"
				/>
			<path class="st3" d="M314.6,83.6h5v17.5h7.9v5.7h-12.9V83.6z"/>
			<path class="st3" d="M347.4,103h-5.7l-0.8,3.8h-5.1l6.1-23.3h5.5l6.1,23.3h-5.3L347.4,103z M346.4,98l-1.8-8.4l-1.8,8.4H346.4z"
				/>
			<path class="st3" d="M355.2,106.9V83.6h8.4c1.6,0,2.7,0.2,3.6,0.6s1.5,1.1,2,2.1c0.5,1,0.8,2.3,0.8,3.8c0,1.3-0.2,2.4-0.6,3.3
				s-0.9,1.7-1.6,2.3c-0.4,0.4-1,0.7-1.8,0.9c0.6,0.3,1,0.6,1.3,0.9c0.2,0.2,0.5,0.6,0.8,1.2c0.4,0.6,0.6,1.1,0.7,1.4l2.4,6.7h-5.7
				l-2.7-7.1c-0.3-0.9-0.6-1.5-0.9-1.8c-0.4-0.4-0.8-0.5-1.2-0.5h-0.4v9.4H355.2z M360.3,93h2.1c0.2,0,0.7-0.1,1.3-0.3
				c0.3-0.1,0.6-0.3,0.8-0.7c0.2-0.4,0.3-0.8,0.3-1.3c0-0.8-0.2-1.3-0.5-1.7c-0.3-0.4-1-0.6-1.9-0.6h-2.2V93z"/>
			<path class="st3" d="M380.6,98.4v-4.8h7.8v9.9c-1.5,1.4-2.8,2.4-4,3c-1.1,0.5-2.5,0.8-4.1,0.8c-1.9,0-3.5-0.5-4.7-1.4
				c-1.2-0.9-2.2-2.3-2.8-4.2c-0.7-1.9-1-4-1-6.4c0-2.5,0.4-4.7,1.1-6.6s1.8-3.3,3.2-4.3c1.1-0.8,2.6-1.1,4.5-1.1
				c1.8,0,3.1,0.2,4,0.7c0.9,0.5,1.6,1.2,2.2,2.2s1,2.2,1.3,3.7l-4.9,1.2c-0.2-0.9-0.5-1.5-1-2c-0.5-0.5-1.1-0.7-1.8-0.7
				c-1.1,0-2,0.5-2.6,1.6s-1,2.8-1,5.2c0,2.5,0.3,4.3,1,5.4c0.7,1.1,1.6,1.6,2.8,1.6c0.6,0,1.1-0.1,1.6-0.3c0.5-0.2,1.1-0.6,1.8-1.2
				v-2.2H380.6z"/>
			<path class="st3" d="M391.4,83.6h13.5v5h-8.5v3.7h7.8V97h-7.8v4.6h8.7v5.3h-13.8V83.6z"/>
			<path class="st3" d="M407.9,83.6h4.7l6.1,12.9V83.6h4.8v23.3h-4.8l-6.1-12.8v12.8h-4.7V83.6z"/>
			<path class="st3" d="M425.7,83.6H441v5.7h-5.1v17.5h-5V89.4h-5.1V83.6z"/>
			<path class="st3" d="M443.5,83.6h5.1v23.3h-5.1V83.6z"/>
			<path class="st3" d="M452.2,83.6h4.7l6.1,12.9V83.6h4.8v23.3h-4.8l-6.1-12.8v12.8h-4.7V83.6z"/>
			<path class="st3" d="M481,103h-5.7l-0.8,3.8h-5.1l6.1-23.3h5.5l6.1,23.3h-5.3L481,103z M479.9,98l-1.8-8.4l-1.8,8.4H479.9z"/>
		</g>
	</g>
</g>
<g>
	<g>
		<path class="st0" d="M160.2,95.6l0.3,0.8l-1.4,1.8l1.8-0.7l0.3,0.8l-3.3,1.3l-0.3-0.8L159,97l-1.8,0.7l-0.3-0.8L160.2,95.6z"/>
		<path class="st0" d="M160.3,102.4l-0.6-0.9l-0.6,0.2l-0.5-0.8l3.6-1l0.5,0.8l-2.3,2.9l-0.5-0.8L160.3,102.4z M160.9,101.9l0.9-1
			l-1.2,0.4L160.9,101.9z"/>
		<path class="st0" d="M163.7,102.1l0.7,0.7l-1.4,2.2l2.3-1.2l0.6,0.7l-3.3,1.6l-0.7-0.7L163.7,102.1z"/>
		<path class="st0" d="M166,108.4l-0.8-0.6l-0.5,0.4l-0.7-0.6l3-2.1l0.8,0.6l-1.3,3.5l-0.8-0.6L166,108.4z M166.4,107.7l0.5-1.2
			l-1,0.8L166.4,107.7z"/>
		<path class="st0" d="M169.5,107.2l0.8,0.4l-1.3,2.3l1.3,0.7l-0.4,0.8l-2.1-1.1L169.5,107.2z"/>
		<path class="st0" d="M175.7,112.7l-1-0.2l-0.3,0.5l-0.9-0.2l1.9-3.2l1,0.2l0.3,3.7l-0.9-0.2L175.7,112.7z M175.7,112l0-1.3
			l-0.6,1.2L175.7,112z"/>
		<path class="st0" d="M178.3,113.7l0.1-3.5l1.5,0.1c0.3,0,0.5,0.1,0.6,0.1c0.1,0.1,0.3,0.2,0.4,0.3c0.1,0.2,0.1,0.4,0.1,0.6
			c0,0.2-0.1,0.4-0.1,0.5c-0.1,0.1-0.2,0.2-0.3,0.3c-0.1,0.1-0.2,0.1-0.3,0.1c0.1,0,0.2,0.1,0.2,0.1c0,0,0.1,0.1,0.1,0.2
			c0.1,0.1,0.1,0.2,0.1,0.2l0.4,1l-1,0l-0.4-1.1c-0.1-0.1-0.1-0.2-0.2-0.3c-0.1-0.1-0.1-0.1-0.2-0.1l-0.1,0l-0.1,1.4L178.3,113.7z
			 M179.3,111.7l0.4,0c0,0,0.1,0,0.2,0c0.1,0,0.1,0,0.2-0.1c0-0.1,0.1-0.1,0.1-0.2c0-0.1,0-0.2-0.1-0.3c-0.1-0.1-0.2-0.1-0.3-0.1
			l-0.4,0L179.3,111.7z"/>
		<path class="st0" d="M184,112.3l-0.1-0.7l1.4-0.2l0.2,1.5c-0.2,0.3-0.5,0.4-0.7,0.5c-0.2,0.1-0.4,0.2-0.7,0.2
			c-0.4,0-0.6,0-0.9-0.1c-0.2-0.1-0.4-0.3-0.6-0.6c-0.2-0.3-0.3-0.6-0.3-0.9c-0.1-0.4,0-0.7,0.1-1c0.1-0.3,0.3-0.5,0.5-0.7
			c0.2-0.1,0.4-0.2,0.8-0.3c0.3,0,0.6,0,0.7,0c0.2,0,0.3,0.1,0.4,0.3s0.2,0.3,0.3,0.5l-0.9,0.3c-0.1-0.1-0.1-0.2-0.2-0.3
			c-0.1-0.1-0.2-0.1-0.3-0.1c-0.2,0-0.3,0.1-0.4,0.3c-0.1,0.2-0.1,0.4-0.1,0.8c0.1,0.4,0.1,0.6,0.3,0.8s0.3,0.2,0.5,0.2
			c0.1,0,0.2,0,0.3-0.1c0.1,0,0.2-0.1,0.3-0.2l0-0.3L184,112.3z"/>
		<path class="st0" d="M186.2,109.6l2.4-0.8l0.2,0.7l-1.5,0.5l0.2,0.5l1.4-0.4l0.2,0.7l-1.4,0.4l0.2,0.7l1.5-0.5l0.2,0.8l-2.4,0.8
			L186.2,109.6z"/>
		<path class="st0" d="M189.6,108.4l0.8-0.4l1.9,1.2l-0.9-1.7l0.8-0.4l1.7,3.1l-0.8,0.4l-1.9-1.2l0.9,1.7l-0.8,0.4L189.6,108.4z"/>
		<path class="st0" d="M193,106.4l2.2-1.8l0.5,0.7L195,106l1.7,2.1l-0.7,0.6l-1.7-2.1l-0.7,0.6L193,106.4z"/>
		<path class="st0" d="M196,103.9l0.6-0.7l2.6,2.4l-0.6,0.7L196,103.9z"/>
		<path class="st0" d="M197.5,102.2l0.5-0.7l2.2,0.2l-1.6-1.1l0.5-0.7l2.9,2l-0.5,0.7l-2.2-0.2l1.6,1.1l-0.5,0.7L197.5,102.2z"/>
		<path class="st0" d="M203.2,98.4l-0.4,1l0.5,0.4l-0.4,0.9l-2.7-2.5l0.4-0.9l3.7,0.4l-0.4,0.9L203.2,98.4z M202.4,98.2l-1.3-0.2
			l1,0.8L202.4,98.2z"/>
	</g>
	<g>
		<path class="st0" d="M160.9,77.1l0.9-1.4c0.2-0.3,0.4-0.5,0.7-0.5c0.3,0,0.6,0.1,0.9,0.3c0.3,0.2,0.5,0.5,0.6,0.8
			c0.1,0.3,0,0.6-0.2,0.9l-0.3,0.4l1.2,0.8l-0.6,0.8L160.9,77.1z M162.8,77.2l0.1-0.2c0.1-0.2,0.2-0.3,0.1-0.4
			c0-0.1-0.1-0.2-0.2-0.3c-0.1-0.1-0.2-0.1-0.3-0.1c-0.1,0-0.2,0.1-0.3,0.2l-0.2,0.2L162.8,77.2z"/>
		<path class="st0" d="M166.4,76.1l-2.6-2.8l1.2-1.1c0.2-0.2,0.4-0.3,0.6-0.4c0.2-0.1,0.3-0.1,0.5,0c0.2,0.1,0.4,0.2,0.5,0.3
			c0.1,0.2,0.2,0.3,0.3,0.5c0,0.2,0.1,0.3,0,0.5c0,0.1-0.1,0.2-0.2,0.3c0.1,0,0.2-0.1,0.3-0.1c0,0,0.1,0,0.3,0
			c0.1,0,0.2,0.1,0.3,0.1l1.1,0.5l-0.8,0.8l-1.2-0.5c-0.2-0.1-0.3-0.1-0.3-0.1c-0.1,0-0.2,0-0.2,0.1l-0.1,0.1l1.1,1.1L166.4,76.1z
			 M165.6,73.8l0.3-0.3c0,0,0.1-0.1,0.2-0.2c0-0.1,0.1-0.1,0-0.2s0-0.1-0.1-0.2c-0.1-0.1-0.2-0.1-0.3-0.1c-0.1,0-0.2,0.1-0.3,0.2
			l-0.3,0.3L165.6,73.8z"/>
		<path class="st0" d="M167.6,70.1l2.3-1.4l0.4,0.7l-1.4,0.9l0.3,0.5l1.3-0.8l0.4,0.7l-1.3,0.8l0.4,0.6l1.5-0.9l0.4,0.7l-2.3,1.4
			L167.6,70.1z"/>
		<path class="st0" d="M171.8,67.8l2.3-0.8l0.3,0.8l-1.4,0.5l0.2,0.6l1.2-0.4l0.3,0.7l-1.2,0.4l0.5,1.5l-0.9,0.3L171.8,67.8z"/>
		<path class="st0" d="M176.1,66.5l2.7-0.4l0.1,0.8l-1.7,0.2l0.1,0.6l1.5-0.2l0.1,0.8l-1.5,0.2l0.1,0.7l1.7-0.2l0.1,0.9l-2.7,0.4
			L176.1,66.5z"/>
		<path class="st0" d="M182.8,68.5l0.9,0.4c-0.1,0.3-0.2,0.5-0.3,0.7c-0.1,0.2-0.3,0.3-0.5,0.4c-0.2,0.1-0.4,0.1-0.7,0.1
			c-0.4,0-0.6-0.1-0.8-0.2c-0.2-0.1-0.4-0.4-0.5-0.7c-0.1-0.3-0.2-0.7-0.2-1.2c0-0.6,0.2-1.1,0.5-1.4c0.3-0.3,0.7-0.5,1.2-0.4
			c0.4,0,0.7,0.1,0.9,0.4c0.2,0.2,0.4,0.5,0.5,0.9l-0.9,0.2c0-0.1,0-0.2-0.1-0.3c0-0.1-0.1-0.2-0.2-0.2s-0.2-0.1-0.3-0.1
			c-0.2,0-0.4,0.1-0.5,0.3c-0.1,0.2-0.2,0.4-0.2,0.7c0,0.4,0,0.7,0.1,0.9c0.1,0.2,0.2,0.3,0.4,0.3c0.2,0,0.3,0,0.4-0.2
			S182.8,68.7,182.8,68.5z"/>
		<path class="st0" d="M185.6,66.6l2.9,0.8l-0.3,0.9l-1-0.3l-0.8,2.8l-1-0.3l0.8-2.8l-1-0.3L185.6,66.6z"/>
		<path class="st0" d="M192.3,69.2l0.9,0.5l-1.1,2c-0.1,0.2-0.2,0.4-0.4,0.5c-0.1,0.1-0.3,0.3-0.5,0.3s-0.4,0.1-0.5,0.1
			c-0.2,0-0.4-0.1-0.7-0.2c-0.1-0.1-0.3-0.2-0.4-0.3c-0.2-0.1-0.3-0.2-0.3-0.4c-0.1-0.1-0.1-0.3-0.1-0.5c0-0.2,0-0.3,0-0.5
			c0.1-0.2,0.1-0.4,0.2-0.6l1.1-2l0.9,0.5l-1.1,2c-0.1,0.2-0.1,0.3-0.1,0.5c0,0.1,0.1,0.3,0.3,0.3c0.2,0.1,0.3,0.1,0.4,0
			c0.1-0.1,0.3-0.2,0.4-0.4L192.3,69.2z"/>
		<path class="st0" d="M192.4,73.8l2.5-2.9l1.2,1.1c0.2,0.2,0.4,0.4,0.5,0.5c0.1,0.2,0.1,0.3,0.1,0.5c0,0.2-0.1,0.4-0.3,0.6
			c-0.1,0.2-0.3,0.3-0.4,0.3c-0.2,0.1-0.3,0.1-0.5,0.1c-0.1,0-0.2-0.1-0.4-0.1c0.1,0.1,0.1,0.2,0.1,0.3c0,0,0,0.1,0,0.3
			c0,0.1,0,0.2-0.1,0.3l-0.4,1.1l-0.8-0.7l0.4-1.2c0-0.2,0.1-0.3,0.1-0.3c0-0.1-0.1-0.2-0.1-0.2l-0.1-0.1l-1,1.2L192.4,73.8z
			 M194.7,72.8l0.3,0.3c0,0,0.1,0.1,0.2,0.1c0.1,0,0.1,0,0.2,0c0.1,0,0.1-0.1,0.2-0.1c0.1-0.1,0.1-0.2,0.1-0.3
			c0-0.1-0.1-0.2-0.2-0.3l-0.3-0.3L194.7,72.8z"/>
		<path class="st0" d="M197.2,78l-0.7-0.9l-0.6,0.2l-0.6-0.8l3.8-1.3l0.6,0.9l-2.4,3.2l-0.6-0.8L197.2,78z M197.7,77.3l0.9-1.1
			l-1.3,0.5L197.7,77.3z"/>
	</g>
	<g id="Capa_1-2_00000091015310850236851210000004068488328301183884_">
		<path class="st0" d="M176.5,96.4c1.1,1,2.4,0.1,3.6,0.6c-0.3,0.4-0.4,0.7-0.7,1c-1.1,1.1-2.5,1.5-4.1,1.4c-0.2,0-0.4-0.3-0.4-0.4
			c0-0.5-0.3-0.5-0.7-0.6c-0.7-0.2-1.5-0.3-2.1-0.6c-0.9-0.5-1.8-0.6-2.7-0.6c-0.4,0-0.8,0-1.3,0c0.1-0.6,0.1-1.2,0.2-1.8
			c0.1-0.6,0-1.2-0.2-1.8c-0.3-0.8-0.4-1.7-0.5-2.5c0-0.6-0.1-1-1-0.9c0.1-0.6,0.2-1.1,0.3-1.6c0.4-1.3,1.2-2.3,2.3-3.1
			c0.2-0.1,0.5-0.1,0.8-0.1c0,0.2,0,0.4,0,0.7c0,0.6-0.1,1.3-0.2,1.9c-0.1,0.4-0.2,0.9-0.4,1.2c-0.6,0.9,0.2,3.3,1.3,3.6
			c0.1,0,0.3,0,0.5-0.1c2.6-2.1,5.2-4.2,7.9-6.3c-0.3-0.3-0.6-0.6-1-0.9c-0.5,0.3-1,1.1-1.6,0.4c-0.5-0.6,0-1,0.4-1.5
			c-0.4-0.4-0.7-0.8-1.4-0.6c-1.1,0.2-2.2-0.7-2.4-1.8c-0.2-0.9,0.4-1.8,1.4-2.1c1.3-0.4,2.8,0.7,2.7,2.1c-0.1,0.8,0.4,1,0.9,1.4
			c0.4-0.3,0.9-0.9,1.5-0.4c0.5,0.4,0.2,0.9-0.2,1.3c1.3,1.2,0.9,1.2,2.4-0.1c-0.3-0.4-0.7-0.9-0.2-1.4c0.6-0.5,1,0.1,1.5,0.4
			c0.4-0.4,1-0.5,0.8-1.4c-0.2-1,0.9-2,2-2.1c1-0.1,1.9,0.6,2.1,1.6c0.2,1.3-1,2.6-2.4,2.4c-0.7-0.1-1,0.1-1.3,0.6
			c0.3,0.5,1,0.9,0.3,1.5c-0.6,0.6-1.1-0.1-1.6-0.4c-0.4,0.3-0.7,0.7-1.1,1c1.3,1.1,2.6,2.1,3.9,3.1c1.3,1,2.6,2.1,3.9,3.1
			c0.5,0.4,0.9,0.3,1.3-0.1c0.8-0.7,1-1.7,1-2.7c0-0.1,0-0.2-0.1-0.2c-0.7-0.6-0.6-1.4-0.6-2.2c0-0.4-0.1-0.8-0.1-1.1
			c0-0.2,0-0.5,0.1-0.7c0.2,0.1,0.5,0,0.7,0.2c1,0.7,1.9,1.7,2.3,2.9c0.2,0.5,0.2,1,0.3,1.5c-0.9,0.3-0.9,0.3-1,1.2
			c-0.1,0.9-0.5,1.8-0.6,2.8c-0.1,0.7,0,1.4,0.1,2.1c0,0.3,0.1,0.6,0.1,1c-0.8,0-1.6,0-2.3,0c-0.4,0-0.8,0.1-1.1,0.3
			c-0.9,0.5-1.7,0.9-2.8,0.9c-0.4,0-0.5,0.1-0.6,0.5c0,0.2-0.3,0.5-0.4,0.5c-1.6,0-3.1-0.4-4.2-1.6c-0.2-0.2-0.4-0.5-0.6-0.8
			c1.2-0.6,2.5,0.3,3.6-0.5c0.6,0.9,1.3,0.5,2,0.2c0.5-0.2,1-0.6,1.4-0.9c0.7-0.5,0.6-0.8,0-1.4c-1.4-1.3-2.8-2.5-4.2-3.8
			c-1.1-1-2.2-2-3.4-3.1c-1.9,1.7-3.8,3.5-5.7,5.2c-0.6,0.6-1.2,1.1-1.8,1.7c-0.5,0.5-0.5,0.8,0.1,1.2c0.6,0.4,1.1,0.8,1.8,1.1
			C175.5,97.1,176.1,97.3,176.5,96.4L176.5,96.4z M186.2,82.4c-0.1,0.1-0.2,0.2-0.3,0.3c0.9-0.2,1.2-0.6,1.1-1.1
			c-0.1-0.5-0.4-0.8-0.8-0.8c-0.5-0.1-1,0.3-1.2,1.1c0.1-0.1,0.3-0.3,0.4-0.4C185.7,81.8,185.9,82.1,186.2,82.4L186.2,82.4
			L186.2,82.4z M175.3,82.8c0.3-0.3,0.6-0.6,0.9-1c-0.3-0.7-0.7-1-1.2-1c-0.5,0.1-0.7,0.4-0.8,0.8C174.2,82.2,174.5,82.5,175.3,82.8
			L175.3,82.8z"/>
	</g>
</g>
</svg>
