<?xml version="1.0" encoding="utf-8"?>
<!-- Generator: Adobe Illustrator 26.0.3, SVG Export Plug-In . SVG Version: 6.00 Build 0)  -->
<svg version="1.1" id="Layer_1" xmlns="http://www.w3.org/2000/svg" xmlns:xlink="http://www.w3.org/1999/xlink" x="0px" y="0px"
	 viewBox="0 0 50.5 50.5" style="enable-background:new 0 0 50.5 50.5;" xml:space="preserve">
<style type="text/css">
	.st0{fill:#2E7D33;}
</style>
<path class="st0" d="M31.3,41.3H14.5c-1.2,0-2.2-1-2.2-2.2l0,0V11.5c0-1.2,1-2.2,2.2-2.2l0,0h18V15c0,0.6,0.4,1,1,1
	c0.3,0,2.8,0,4.9,0v17.9h0.2c0.5,0,1,0.1,1.5,0.2l0-19.6v-0.1l-6.3-6.7l-0.1-0.1H14.5c-2.2,0-3.9,1.7-3.9,3.9v27.6
	c0,2.2,1.7,3.9,3.9,3.9h17C31.4,42.4,31.3,41.8,31.3,41.3L31.3,41.3z M37.2,14h-2.6v-2.9L37.2,14z"/>
<path class="st0" d="M38.7,35.6c-3.1,0-5.7,2.6-5.7,5.7c0,3.1,2.6,5.7,5.7,5.7s5.7-2.6,5.7-5.7S41.8,35.6,38.7,35.6L38.7,35.6z
	 M38.4,44.8L38.4,44.8l-3.3-4.1l1.2-1l2.1,2.1l3.9-3.4l1,1L38.4,44.8z"/>
<path class="st0" d="M33.2,20.3H17.7c-0.5,0-0.9,0.4-0.9,0.9s0.4,0.9,0.9,0.9h15.5c0.5,0,0.9-0.4,0.9-0.9S33.7,20.3,33.2,20.3z"/>
<path class="st0" d="M33.2,24H17.7c-0.5,0-0.9,0.4-0.9,0.9s0.4,0.9,0.9,0.9h15.5c0.5,0,0.9-0.4,0.9-0.9S33.7,24,33.2,24z"/>
<path class="st0" d="M33.2,27.6H17.7c-0.5,0-0.9,0.4-0.9,0.9s0.4,0.9,0.9,0.9h15.5c0.5,0,0.9-0.4,0.9-0.9S33.7,27.6,33.2,27.6z"/>
<path class="st0" d="M33.2,31.3H17.7c-0.5,0-0.9,0.4-0.9,0.9s0.4,0.9,0.9,0.9h15.5c0.5,0,0.9-0.4,0.9-0.9
	C34.1,31.7,33.7,31.3,33.2,31.3z"/>
</svg>
